<?xml version="1.0" encoding="UTF-8"?>
<!-- Created with Inkscape (http://www.inkscape.org/) -->
<svg width="210mm" height="297mm" version="1.1" viewBox="0 0 210 297" xmlns="http://www.w3.org/2000/svg" xmlns:cc="http://creativecommons.org/ns#" xmlns:dc="http://purl.org/dc/elements/1.1/" xmlns:rdf="http://www.w3.org/1999/02/22-rdf-syntax-ns#">
 <metadata>
  <rdf:RDF>
   <cc:Work rdf:about="">
    <dc:format>image/svg+xml</dc:format>
    <dc:type rdf:resource="http://purl.org/dc/dcmitype/StillImage"/>
    <dc:title/>
   </cc:Work>
  </rdf:RDF>
 </metadata>
 <g stroke-width=".38803">
  <path d="m33.073 127.44v-26.723h147.79v53.446h-147.79z" fill="#fefdfd"/>
  <path d="m106.84 152.19c-0.10881-0.36141-0.43468-0.65712-0.72416-0.65712-0.59246 0-0.7063-0.68268-0.18264-1.0952 0.18904-0.14891 0.3437-0.67753 0.3437-1.1747 0-0.75384 0.0856-0.81338 0.51554-0.35858 0.41131 0.43509 0.61978 0.43509 1.0311 0 0.42994-0.4548 0.51555-0.39526 0.51555 0.35858 0 0.49717 0.15466 1.0258 0.34369 1.1747 0.52366 0.41252 0.40982 1.0952-0.18263 1.0952-0.28948 0-0.61536 0.29571-0.72416 0.65712-0.10881 0.36142-0.3194 0.65712-0.46799 0.65712-0.14858 0-0.35917-0.2957-0.46798-0.65712zm-6.0622-1.2925c0-0.34945-0.27066-0.84229-0.60147-1.0952-0.57282-0.43795-0.57282-0.48175 0-0.9197 0.33081-0.25292 0.60147-0.74576 0.60147-1.0952 0-0.34945 0.15466-0.63535 0.34369-0.63535s0.3437 0.19713 0.3437 0.43808c0 0.24094 0.32587 0.43808 0.72416 0.43808 0.52757 0 0.66591 0.19346 0.50961 0.71264-0.118 0.39196-0.0383 0.98337 0.17716 1.3142 0.31059 0.47701 0.24484 0.60159-0.31748 0.60159-0.39006 0-0.80478 0.19714-0.92161 0.43808-0.31684 0.65345-0.85923 0.52892-0.85923-0.19727zm12.602 0.30679c-0.14849-0.30118-0.64752-0.5476-1.1089-0.5476-0.83174 0-1.1266-0.59788-0.52752-1.0698 0.17128-0.13494 0.22997-0.64234 0.13042-1.1276-0.1351-0.65849-0.0486-0.81746 0.3412-0.62682 0.28721 0.14048 0.6243 0.0448 0.74909-0.21253 0.32391-0.66802 0.87372-0.57846 0.87372 0.14231 0 0.33564 0.27066 0.74399 0.60147 0.90744 0.55262 0.27307 0.55588 0.34001 0.0401 0.82444-0.30876 0.28998-0.62171 0.91659-0.69546 1.3925-0.0955 0.61599-0.21186 0.70749-0.40408 0.31764zm-17.156-3.5337c-0.62579-0.0918-0.94516-0.39524-0.94516-0.89807 0-0.41769-0.1856-0.99601-0.41243-1.2851-0.32078-0.40887-0.25258-0.5257 0.30692-0.5257 0.39565 0 0.82364-0.34499 0.95109-0.76664 0.2207-0.73013 0.24781-0.73013 0.56939 0 0.18571 0.42165 0.56197 0.76664 0.83612 0.76664 0.56462 0 0.64873 0.49942 0.18813 1.1171-0.17068 0.22889-0.36401 0.71188-0.42962 1.0733-0.07866 0.43334-0.44115 0.60991-1.0644 0.5185zm20.87-0.91972c0.11495-0.46161 0.048-0.96608-0.14869-1.121-0.51625-0.40669-0.43967-1.1062 0.1211-1.1062 0.26332 0 0.58305-0.34499 0.7105-0.76664 0.2207-0.73013 0.24781-0.73013 0.56939 0 0.18572 0.42165 0.65824 0.76664 1.0501 0.76664 0.62368 0 0.65366 0.0902 0.24071 0.72442-0.25943 0.39843-0.42132 1.1033-0.35977 1.5664 0.0956 0.71894 0.0107 0.77297-0.58062 0.3696-0.45798-0.31241-0.76469-0.32364-0.90554-0.0332-0.37635 0.77618-0.9133 0.46807-0.69714-0.40003zm-24.694-4.3297c-0.14028-0.28931-0.52432-0.52602-0.85342-0.52602-0.45485 0-0.59837-0.36818-0.59837-1.535 0-1.2509 0.10915-1.4908 0.58972-1.2964 0.32435 0.13122 0.6892 0.0334 0.81078-0.21733 0.36072-0.74393 0.86788-0.51968 0.86788 0.38376 0 0.46181 0.19333 0.93203 0.42962 1.0449 0.31581 0.1509 0.28076 0.36365-0.13231 0.80315-0.30906 0.32883-0.62873 0.88386-0.71039 1.2334-0.10959 0.46917-0.21523 0.49784-0.40351 0.10952zm29-1.1363c0-0.33564-0.27066-0.74399-0.60146-0.90745-0.56607-0.27971-0.56404-0.33232 0.0344-0.89389 0.37858-0.35524 0.5296-0.81586 0.37323-1.1384-0.18557-0.38272-0.0866-0.45555 0.33739-0.24818 0.33002 0.16141 0.86606 0.29348 1.1912 0.29348 0.44219 0 0.59992 0.39409 0.62594 1.5638 0.0257 1.1561-0.0881 1.5038-0.43642 1.3334-0.25916-0.12676-0.56261-0.0419-0.67434 0.18848-0.30423 0.62745-0.84996 0.50463-0.84996-0.1913zm-41.524-1.4033c-0.60188-0.86653-1.0943-1.6551-1.0943-1.7523 0-0.0973 1.4382-0.17682 3.1961-0.17682h3.1961l0.41274 1.4549c0.22701 0.80017 0.41274 1.5887 0.41274 1.7523s-1.1315 0.29746-2.5145 0.29746c-2.4545 0-2.5406-0.0376-3.6088-1.5755zm48.054 1.41c0-0.091 0.23407-0.8796 0.52016-1.7523l0.52015-1.5868h6.6496l-1.0095 1.4168c-0.55521 0.77923-1.1641 1.5648-1.3532 1.7456-0.34193 0.32713-5.3273 0.49248-5.3273 0.1767zm-33.143-3.6743c-0.1074-0.1369-0.19528-2.3846-0.19528-4.9948v-4.7459h0.85924c0.78923 0 0.85924 0.16063 0.85924 1.9714 0 1.0842 0.15466 1.9714 0.34369 1.9714 0.18903 0 0.3437-0.88711 0.3437-1.9714 0-1.8175 0.06793-1.9714 0.87049-1.9714h0.87049l-0.09718 4.9284c-0.09061 4.5951-0.14367 4.9284-0.78457 4.9284-0.56299 0-0.70652-0.33695-0.79308-1.8618-0.13559-2.3887-0.68194-2.4151-0.81971-0.0395-0.07586 1.3081-0.2688 1.8522-0.68372 1.9282-0.31792 0.0582-0.66591-6e-3 -0.77331-0.14305zm4.4154-0.0664c-0.07849-0.10039-0.1427-2.3182-0.1427-4.9284v-4.7459h1.7185c1.4687 0 1.7185 0.12291 1.7185 0.84569 0 0.54348-0.27635 0.89572-0.77331 0.98568-1.0549 0.19097-1.3111 2.1114-0.28168 2.1114 0.52958 0 0.71129 0.27979 0.71129 1.0952 0 0.81605-0.18162 1.0952-0.71258 1.0952-0.99626 0-0.72358 1.4897 0.3069 1.6767 0.57737 0.10477 0.76158 0.38689 0.68388 1.0474-0.0876 0.74428-0.36954 0.91242-1.5962 0.9518-0.81942 0.0263-1.5541-0.0343-1.6325-0.13471zm3.8332 0.0664c-0.1074-0.1369-0.19528-2.3944-0.19528-5.0166v-4.7677l3.9525 0.26277 0.0278 4.1618c0.0153 2.289 0.0926 4.4435 0.17184 4.7879 0.0961 0.41788-0.13262 0.6324-0.68775 0.64495-0.64604 0.0146-0.9247-0.32089-1.2478-1.5023l-0.41603-1.5211-0.12695 1.4941c-0.11779 1.3861-0.91626 2.1727-1.4783 1.4563zm2.2758-6.455c-0.0772-0.8433-0.27817-1.5333-0.44652-1.5333s-0.30609 0.68998-0.30609 1.5333c0 0.96554 0.16534 1.5333 0.44652 1.5333 0.30794 0 0.40294-0.47589 0.30609-1.5333zm2.9307 6.4328c-0.82354-0.20216-0.97254-1.4762-0.67548-5.7756l0.25727-3.7237 1.6852-0.13627c1.1155-0.0902 1.7818 0.0579 1.971 0.43808 0.37594 0.7556 0.36972 7.8528-8e-3 8.6116-0.2832 0.56958-2.0164 0.88392-3.2305 0.58591zm1.8158-4.936c0-2.0183-0.12915-3.0482-0.36947-2.9461-0.20321 0.0863-0.35787 0.2999-0.3437 0.47458 0.0142 0.17469 0.0258 1.5004 0.0258 2.9461 0 1.4603 0.15275 2.6285 0.3437 2.6285 0.19678 0 0.34369-1.3264 0.34369-3.1031zm2.205 4.8919c-0.0786-0.10039-0.14282-2.3182-0.14282-4.9284v-4.7459h1.5065c1.2175 0 1.541 0.1681 1.6863 0.87616 0.14298 0.6969 0.0106 0.87616-0.64731 0.87616-0.64227 0-0.82706 0.23328-0.82706 1.0441 0 0.67568 0.24256 1.125 0.68739 1.2732 0.37806 0.12601 0.68739 0.56173 0.68739 0.96827 0 0.40653-0.30933 0.84225-0.68739 0.96826-1.028 0.34267-0.8966 1.8793 0.16077 1.8793 0.72306 0 0.80791 0.13868 0.57529 0.94022-0.20884 0.71958-0.576 0.95089-1.5646 0.98568-0.71044 0.025-1.356-0.0367-1.4345-0.13707zm4.0304 0.0573c-0.21594-0.0917-0.39262-0.54466-0.39262-1.0065 0-0.60357 0.24158-0.83965 0.85924-0.83965 0.68738 0 0.85923-0.21904 0.85923-1.0952 0-0.88163-0.17075-1.0952-0.87564-1.0952-0.85589 0-0.87332-0.0617-0.77331-2.738l0.10233-2.738h1.5419c1.17 0 1.5687 0.1773 1.653 0.73503 0.0791 0.52374-0.1665 0.7756-0.85453 0.87616-0.6864 0.10032-0.9964 0.41698-1.0722 1.0952-0.085 0.76076 0.0891 0.98265 0.85924 1.0952 0.91001 0.133 0.97191 0.27764 1.0714 2.5036 0.0581 1.2994-0.0412 2.5496-0.2207 2.7784-0.34454 0.43917-2.0931 0.71119-2.7574 0.42896zm-26.981-2.5032c-0.10881-0.36142-0.45865-0.65712-0.77743-0.65712-0.52248 0-0.52796-0.0756-0.05564-0.76664 0.28818-0.42166 0.46424-0.97364 0.39124-1.2266-0.07681-0.26619 0.37705-0.45998 1.0773-0.45998 0.9868 0 1.1755 0.13865 1.0228 0.75167-0.10294 0.41343-0.02622 0.87847 0.1705 1.0334 0.59325 0.46734 0.40283 1.1062-0.32971 1.1062-0.37806 0-0.68739 0.19713-0.68739 0.43808 0 0.67677-0.58991 0.51757-0.81168-0.21904zm34.732-0.37662c-0.11898-0.39522-0.45318-0.71858-0.74266-0.71858-0.58458 0-0.70877-0.68073-0.19764-1.0834 0.18077-0.14241 0.23471-0.57106 0.11985-0.95257-0.16283-0.54087-0.0523-0.63034 0.50163-0.40623 0.39075 0.15808 0.80993 0.0823 0.93151-0.16849 0.38354-0.791 0.92359-0.49361 0.70413 0.38775-0.13849 0.55616 2e-5 0.99397 0.40646 1.2848 0.58187 0.41634 0.57789 0.45973-0.0709 0.77201-0.37807 0.18198-0.85585 0.61717-1.0617 0.96708-0.32294 0.54885-0.40406 0.53754-0.59069-0.0824zm-81.782-2.7078c-0.51846-1.0941-0.94266-2.0798-0.94266-2.1904 0-0.11066 9.5891-0.20119 21.309-0.20119 20.606 0 21.309 0.0271 21.309 0.8214 0 0.45177 0.09666 1.4374 0.21481 2.1904l0.21481 1.369h-41.162zm87.61 0.34641c0.0988-0.90354 0.23883-1.8892 0.3113-2.1904 0.1714-0.71234 42.428-0.81207 42.428-0.10013 0 0.24611-0.40721 1.2318-0.90491 2.1904l-0.90491 1.7429h-41.109zm-41.466-4.6557c0-0.33192-0.24559-0.86328-0.54576-1.1808-0.49077-0.51915-0.47346-0.61141 0.17185-0.91568 0.39468-0.1861 0.7176-0.64042 0.7176-1.0096s0.15466-0.67124 0.3437-0.67124 0.3437 0.19714 0.3437 0.43808c0 0.24095 0.27839 0.43808 0.61865 0.43808 0.47803 0 0.61865 0.34891 0.61865 1.535 0 1.2509-0.10915 1.4908-0.58972 1.2964-0.32435-0.13121-0.6892-0.0334-0.81078 0.21733-0.3177 0.65522-0.86788 0.56167-0.86788-0.14758zm36.661-0.16316c-0.14849-0.30118-0.58673-0.5476-0.97387-0.5476-0.50883 0-0.64442-0.19747-0.48932-0.71265 0.118-0.39196 0.0383-0.98336-0.17716-1.3142-0.31034-0.47662-0.24612-0.6016 0.30912-0.6016 0.38546 0 0.76821-0.24642 0.85055-0.5476 0.0995-0.36376 0.46164-0.15503 1.0788 0.62173 0.75559 0.95095 0.83641 1.2373 0.43277 1.5333-0.27298 0.20018-0.55586 0.75823-0.62863 1.2401-0.0939 0.62161-0.21073 0.71707-0.40229 0.32856zm-86.816-3.4171c-0.58049-1.0963-1.0554-2.082-1.0554-2.1904 0-0.1084 10.594-0.19708 23.543-0.19708 22.791 0 23.543 0.0262 23.543 0.8214 0 0.45177-0.09666 1.4374-0.21481 2.1904l-0.21481 1.369h-44.546zm91.93 1.4457c-0.0739-0.30118-0.23068-1.2869-0.34848-2.1904l-0.2142-1.6428h23.559c12.957 0 23.559 0.12718 23.559 0.28262 0 0.15545-0.42532 1.1408-0.94516 2.1896l-0.94516 1.907-22.265 7.9e-4c-17.512 6.1e-4 -22.294-0.11613-22.399-0.54683zm-31.12-4.7094v-4.8189h0.85924c0.84913 0 0.85924 0.0438 0.85924 3.7237 0 3.4316 0.0539 3.7237 0.68739 3.7237 0.50408 0 0.68738 0.29206 0.68738 1.0952 0 1.006-0.12602 1.0952-1.5466 1.0952h-1.5466zm3.4369 0v-4.8189h1.7185c1.4893 0 1.7185 0.11682 1.7185 0.87616 0 0.64252-0.22913 0.87616-0.85923 0.87616-0.68739 0-0.85924 0.21904-0.85924 1.0952 0 0.80314 0.1833 1.0952 0.68739 1.0952 0.45826 0 0.68739 0.29205 0.68739 0.87616s-0.22913 0.87616-0.68739 0.87616-0.68739 0.29205-0.68739 0.87616c0 0.57523 0.22913 0.87616 0.66711 0.87616 0.8098 0 1.1254 0.55863 0.84386 1.4938-0.14768 0.49053-0.65647 0.69666-1.7196 0.69666h-1.5098zm3.7752 4.2713c-3e-3 -0.30118 0.2559-2.4697 0.57538-4.8189 0.56792-4.1761 0.60171-4.2713 1.5168-4.2713 0.91298 0 0.95299 0.11036 1.6277 4.4903l0.69176 4.4903 0.0309-4.4903 0.0309-4.4903h4.1243l0.0286 2.6285c0.0157 1.4457 0.0415 3.2878 0.0573 4.0936 0.0537 2.7481-0.12622 2.9157-3.1316 2.9157-2.1039 0-2.7686-0.14951-2.9214-0.65713-0.10881-0.36141-0.35735-0.65712-0.55232-0.65712-0.19496 0-0.35448 0.29571-0.35448 0.65712 0 0.40888-0.3246 0.65713-0.85923 0.65713-0.47258 0-0.86171-0.24643-0.86473-0.54761zm6.9371-4.2723c0.0833-2.2399-2e-3 -3.0673-0.31549-3.0666-0.3027 6.9e-4 -0.42962 0.90688-0.42962 3.0676 0 3.9863 0.5968 3.9855 0.74511-1e-3zm-4.5258 0.87715c0-0.48189-0.0593-0.87616-0.13176-0.87616-0.0725 0-0.21265 0.39427-0.31152 0.87616-0.0989 0.48189-0.0396 0.87616 0.13176 0.87616 0.17134 0 0.31152-0.39427 0.31152-0.87616zm-19.129-1.8395c0.08893-0.43346 0.02155-0.89851-0.14974-1.0334-0.44584-0.35122-0.38464-1.0698 0.09113-1.0698 0.2214 0 0.68539-0.32625 1.0311-0.72501 0.56992-0.65742 0.62853-0.65945 0.62853-0.0218 0 0.38679 0.26335 0.8911 0.58523 1.1207 0.48614 0.34677 0.51023 0.53265 0.14226 1.0978-0.24364 0.37418-0.36231 0.84667-0.26373 1.05 0.09858 0.20331-0.36204 0.36966-1.0236 0.36966-0.98883 0-1.1741-0.14022-1.0412-0.78811zm32.694-0.3065c0.15863-0.63704 0.0602-1.0081-0.31637-1.1923-0.45602-0.22305-0.39407-0.44765 0.37363-1.3545 0.80604-0.95216 0.95843-1.0003 1.2274-0.38757 0.16893 0.38475 0.55039 0.69955 0.84769 0.69955 0.41934 0 0.45272 0.1349 0.14884 0.6016-0.21544 0.33088-0.28562 0.95397-0.15596 1.3847 0.18903 0.62789 0.0977 0.73706-0.4608 0.55089-0.3831-0.1277-0.96614-0.0399-1.2956 0.19518-0.50733 0.36188-0.56383 0.28566-0.36882-0.49752zm-88.225-3.7653-0.93552-1.9742h53.566l-1.3079 3.7237-50.387 0.22464zm94.05-3e-3 -0.71633-1.971h26.751c14.713 0 26.751 0.10279 26.751 0.22843s-0.40721 1.0128-0.90491 1.9714l-0.90491 1.7429-50.26-6.8e-4zm-34.358-1.5692c-0.10716-0.22102-0.50273-0.40185-0.87903-0.40185-0.53356 0-0.61465-0.15836-0.36835-0.71934 0.17371-0.39564 0.24008-1.0886 0.1475-1.5398-0.12699-0.61897-0.03048-0.75302 0.39302-0.54589 0.30874 0.15101 0.79136 0.0312 1.0725-0.26617 0.42446-0.44901 0.51117-0.38671 0.51117 0.36731 0 0.49941 0.22216 1.0665 0.49369 1.2602 0.4007 0.28583 0.33647 0.53065-0.34098 1.2998-0.45907 0.52119-0.92235 0.76679-1.0295 0.54578zm25.623-0.48641c0-0.38382-0.25786-0.82399-0.57302-0.97813-0.43674-0.21362-0.4776-0.40188-0.17185-0.79161 0.22065-0.28124 0.40117-0.87312 0.40117-1.3153 0-0.65813 0.12016-0.72198 0.66249-0.35203 0.36437 0.24856 0.87476 0.3481 1.1342 0.2212 0.3449-0.1687 0.4717 0.18499 0.4717 1.3158 0 1.1256-0.14968 1.5465-0.54992 1.5465-0.30245 0-0.7355 0.23656-0.96234 0.52569-0.32078 0.40888-0.41243 0.37062-0.41243-0.17217zm-21.537-4.5447c-0.10394-0.34525-0.40442-0.62772-0.66775-0.62772-0.26332 0-0.47877-0.19714-0.47877-0.43808s0.15466-0.43808 0.3437-0.43808 0.3437-0.35978 0.3437-0.79951c0-0.61896 0.25593-0.79208 1.1333-0.76664 1.0301 0.0299 1.1334 0.15539 1.1342 1.378 6.87e-4 0.98382-0.21671 1.476-0.80924 1.8324-0.64321 0.38691-0.84907 0.35798-0.99912-0.1404zm17.272-0.0264c-0.0996-0.33071-0.39568-0.6013-0.65803-0.6013-0.31057 0-0.46424-0.466-0.44041-1.3356 0.0286-1.0445 0.16761-1.2921 0.63772-1.1363 0.33062 0.10959 0.68774 0.0206 0.7936-0.19771 0.32781-0.67608 0.83929-0.43744 0.83929 0.39159 0 0.4337 0.14629 0.97583 0.32507 1.2047 0.20463 0.26197 0.021 0.76072-0.49557 1.346-0.63808 0.723-0.86092 0.79609-1.0017 0.32856zm-12.468-3.0386c-0.34955-0.96329-0.30792-1.2505 0.29214-2.0154 0.50894-0.6487 0.8029-0.76054 1.0778-0.41007 0.20794 0.26504 0.6754 0.48188 1.0388 0.48188 0.54584 0 0.58697 0.1133 0.23651 0.65155-0.23333 0.35835-0.33445 0.94975-0.22472 1.3142 0.13465 0.44725-0.0113 0.6627-0.44898 0.6627-0.35667 0-0.85447 0.0986-1.1062 0.21921-0.26152 0.12525-0.63247-0.26233-0.86538-0.90416zm7.3015 0.72607c-0.10586-0.21832-0.50394-0.29313-0.88463-0.16624-0.534 0.17799-0.64293 0.0672-0.47674-0.48479 0.11847-0.39352 0.0245-1.0087-0.20883-1.367-0.35161-0.54002-0.30565-0.65155 0.26848-0.65155 0.38098 0 0.78927-0.32078 0.90731-0.71285 0.18151-0.60289 0.3488-0.52828 1.0846 0.4837 0.80254 1.1038 0.82465 1.2388 0.2852 1.7416-0.32164 0.29978-0.47471 0.77209-0.34016 1.0496s0.09 0.50454-0.0991 0.50454c-0.18903 0-0.4303-0.17863-0.53617-0.39695z" fill="#e7979c"/>
  <path d="m106.98 152.3c-7e-3 -0.46994-0.27696-0.76664-0.69832-0.76664-0.37807 0-0.68739-0.19713-0.68739-0.43808 0-0.24094 0.15466-0.43808 0.34369-0.43808 0.18904 0 0.3437-0.36142 0.3437-0.80315 0-0.60033 0.26037-0.80315 1.0311-0.80315s1.0311 0.20282 1.0311 0.80315c0 0.44173 0.15466 0.80315 0.34369 0.80315s0.3437 0.19714 0.3437 0.43808c0 0.24095-0.25361 0.43808-0.56358 0.43808s-0.76903 0.34499-1.0202 0.76664c-0.43484 0.73014-0.4571 0.73014-0.46751 0zm-6.1974-1.3499c0-0.41717-0.232-0.87196-0.51555-1.0106-0.28354-0.13869-0.51554-0.4282-0.51554-0.64337s0.23199-0.39121 0.51554-0.39121c0.28355 0 0.51555-0.29571 0.51555-0.65712 0-0.73395 0.53665-0.88433 0.84996-0.23817 0.11172 0.23042 0.4044 0.3205 0.65039 0.20018 0.30682-0.15007 0.44725 0.19981 0.44725 1.1143 0 0.94128-0.16499 1.3331-0.56137 1.3331-0.30875 0-0.74696 0.23656-0.9738 0.5257-0.32078 0.40887-0.41243 0.35714-0.41243-0.23279zm12.21-0.27378c-0.11172-0.23042-0.39925-0.32303-0.63893-0.20579-0.29961 0.14655-0.4358-0.25532-0.4358-1.286 0-0.98524 0.14125-1.4301 0.41204-1.2976 0.22662 0.11085 0.51414-9e-3 0.63893-0.26641 0.33577-0.69247 0.87372-0.56752 0.87372 0.20292 0 0.36899 0.24893 0.79263 0.55316 0.94144 0.50842 0.24867 0.50842 0.30248 0 0.66514-0.30423 0.21702-0.55316 0.68048-0.55316 1.0299 0 0.71627-0.54082 0.85397-0.84996 0.2164zm-17.71-3.9472c0-0.39355-0.1856-0.9521-0.41243-1.2412-0.32078-0.40887-0.25077-0.5257 0.31506-0.5257 0.40012 0 0.8177-0.24642 0.92798-0.5476 0.16039-0.43808 0.24059-0.43808 0.40098 0 0.11027 0.30118 0.43614 0.5476 0.72416 0.5476 0.33632 0 0.44903 0.24792 0.31506 0.69295-0.11474 0.38112-0.20862 0.93968-0.20862 1.2412 0 0.31714-0.43467 0.54828-1.0311 0.54828-0.7248 0-1.0311-0.21255-1.0311-0.71553zm21.855-0.0772c0.11038-0.22764 0.0107-0.70572-0.22157-1.0624-0.23225-0.35669-0.36156-0.69304-0.28736-0.74746 1.2883-0.94483 1.5197-1.0029 2.2582-0.56695 0.84976 0.50166 0.99624 0.91738 0.46945 1.3324-0.18077 0.14241-0.25337 0.50907-0.16132 0.81481 0.11442 0.38005-0.21624 0.56975-1.0453 0.5997-0.68155 0.0246-1.1248-0.13746-1.012-0.37006zm-24.9-4.4632c-0.2432-0.37351-0.66287-0.57117-0.9326-0.43924-0.55365 0.2708-0.6768-0.5315-0.14579-0.94981 0.21886-0.17241 0.22787-0.54954 0.02471-1.0334-0.27448-0.65369-0.15568-0.76195 0.83609-0.76195 0.63582 0 1.0854 0.14559 0.99916 0.32354-0.08628 0.17794 0.11704 0.5214 0.45182 0.76324 0.5606 0.40496 0.5643 0.48497 0.04676 1.0126-0.30906 0.31509-0.62404 0.84093-0.69995 1.1685-0.11114 0.47964-0.22413 0.46339-0.5802-0.0835zm29.166-0.90336c0-0.33564-0.27066-0.74317-0.60146-0.90563-0.57283-0.2813-0.57283-0.31586 0-0.72575 0.3308-0.23672 0.60146-0.74044 0.60146-1.1194 0-0.5345 0.10583-0.57704 0.47198-0.18971 0.25959 0.2746 0.69265 0.39135 0.96235 0.25943 0.36582-0.17893 0.49036 0.14092 0.49036 1.2593 0 0.98523-0.14125 1.4301-0.41203 1.2976-0.22663-0.11084-0.51414 9e-3 -0.63894 0.26641-0.3239 0.66802-0.87372 0.57847-0.87372-0.1423zm-41.698-1.8161-0.97037-1.5501 6.3602 0.25277 0.90981 2.8475-2.6646-2e-5c-2.6388-1e-5 -2.674-0.015-3.635-1.5501zm48.813 0.0169 0.57364-1.5333h3.0296c1.6663 0 3.0296 0.10028 3.0296 0.22284 0 0.12255-0.41222 0.81253-0.91605 1.5333-0.86954 1.2439-1.0525 1.3104-3.6032 1.3104h-2.6872zm-33.923-6.7902v-4.8189h0.85924c0.80383 0 0.85924 0.14359 0.85924 2.2269 0 2.8214 0.7939 2.7626 0.83258-0.0617 0.02293-1.6724 0.13545-1.9659 0.79997-2.0862 0.762-0.13794 0.77331-0.069 0.77331 4.7094v4.8494h-0.85924c-0.79087 0-0.85924-0.1589-0.85924-1.9972 0-1.2199-0.13376-1.8918-0.3437-1.7265-0.18903 0.14891-0.34369 1.0477-0.34369 1.9972 0 1.5495-0.08807 1.7265-0.85924 1.7265h-0.85924zm4.5877 1.4939c0.12323-1.8581 0.22405-4.05 0.22405-4.8708 0-1.4844 0.0078-1.4917 1.4577-1.3577 1.0634 0.0983 1.4886 0.34212 1.5718 0.90135 0.0853 0.57325-0.11478 0.76664-0.79318 0.76664-0.78697 0-0.89284 0.15972-0.79851 1.2047 0.0643 0.7117 0.31781 1.2047 0.61959 1.2047 0.80318 0 0.8211 1.3881 0.0213 1.6547-0.42677 0.14225-0.70403 0.59587-0.70403 1.1518 0 0.69324 0.21595 0.91718 0.88444 0.91718 0.6567 0 0.85503 0.1974 0.77022 0.76664-0.0867 0.58197-0.51931 0.79946-1.7959 0.90288l-1.6817 0.13624zm3.6861-1.5144 0.047-4.8394 3.8803 0.26002 0.10098 3.1761c0.062 1.9491-0.0343 3.1761-0.24926 3.1761-0.23395 0-0.23895 0.37312-0.0151 1.1237 0.4929 1.6524 0.42201 1.9428-0.47433 1.9428-0.61067 0-0.89753-0.34973-1.1678-1.4238l-0.35833-1.4238-0.0351 1.4238c-0.03 1.2196-0.15986 1.4238-0.90526 1.4238h-0.87018l0.047-4.8394zm2.7244-1.5386c0-1.0479-0.15717-1.5074-0.51554-1.5074-0.35515 0-0.51554 0.45431-0.51554 1.4603 0 0.80315 0.0989 1.5863 0.21978 1.7404 0.43854 0.55897 0.8113-0.21901 0.8113-1.6932zm2.2095 5.7976c-0.0961-0.31926-0.12992-2.4385-0.0751-4.7094l0.0996-4.1289h3.437l0.0975 4.7094 0.0975 4.7094h-1.7409c-1.1282 0-1.8024-0.20428-1.9156-0.58046zm2.2585-4.2384c0-2.4338-0.10638-3.0666-0.51554-3.0666s-0.51554 0.63278-0.51554 3.0666c0 2.4338 0.10638 3.0666 0.51554 3.0666s0.51554-0.63278 0.51554-3.0666zm2.0622 0v-4.8189h1.5466c1.3175 0 1.5466 0.1298 1.5466 0.87616 0 0.58411-0.22913 0.87616-0.68739 0.87616-0.5399 0-0.68739 0.29205-0.68739 1.3611 0 0.98736 0.13227 1.2964 0.48168 1.1255 0.2864-0.14009 0.55202 0.10731 0.65521 0.61025 0.12665 0.6173-4e-3 0.84585-0.48168 0.84585-0.46976 0-0.65521 0.30998-0.65521 1.0952 0 0.80315 0.1833 1.0952 0.68739 1.0952 0.45826 0 0.68739 0.29205 0.68739 0.87616 0 0.74636-0.22913 0.87616-1.5466 0.87616h-1.5466zm4.0259 4.5474c-0.53342-0.67991-0.19732-1.4297 0.69986-1.5613 1.344-0.19711 1.3312-1.8345-0.0158-2.0315-0.94933-0.13886-0.9597-0.17323-0.85923-2.8475l0.1017-2.707 1.3398-0.13984c0.83951-0.0876 1.4472 0.076 1.6273 0.43808 0.48787 0.98072 0.33691 1.235-0.73307 1.235-0.86319 0-1.0311 0.1736-1.0311 1.0661 0 0.83737 0.20279 1.0958 0.94516 1.2047 0.91398 0.13404 0.94516 0.22532 0.94516 2.7671v2.6285l-1.3872 0.13014c-0.76298 0.0716-1.4976-0.0106-1.6326-0.18254zm-27.162-2.4229c-0.48332-0.67257-0.5349-1.0065-0.22818-1.4776 0.21795-0.33474 0.28026-0.84789 0.13846-1.1403-0.18006-0.37135-0.07685-0.4432 0.34222-0.23823 0.33002 0.16142 0.90584 0.29348 1.2796 0.29348 0.38454 0 0.5833 0.19853 0.45785 0.45727-0.12195 0.2515-0.03481 0.74434 0.19364 1.0952 0.33519 0.51478 0.30564 0.63793-0.15304 0.63793-0.31263 0-0.65744 0.2957-0.76624 0.65712-0.25328 0.84128-0.494 0.78704-1.2643-0.28486zm35.06-0.0918c-0.11898-0.39522-0.45318-0.71858-0.74266-0.71858s-0.52633-0.19714-0.52633-0.43808c0-0.24095 0.16509-0.43808 0.36686-0.43808 0.21905 0 0.2723-0.37971 0.13218-0.94244-0.19206-0.77131-0.12595-0.88925 0.3641-0.64956 0.32932 0.16108 0.81116 0.0682 1.0708-0.20641 0.37424-0.39589 0.47197-0.31209 0.47197 0.40467 0 0.49717 0.15467 1.0258 0.3437 1.1747 0.46714 0.36799 0.43525 1.0952-0.048 1.0952-0.21544 0-0.57723 0.32336-0.80396 0.71858-0.38209 0.66606-0.42804 0.66606-0.62857 0zm-81.517-2.4622c-0.47495-0.95899-0.86355-1.8461-0.86355-1.9714s9.5118-0.22775 21.137-0.22775h21.137v1.2784c0 0.70313 0.09388 1.5902 0.20862 1.9714 0.18879 0.6271-1.7377 0.69295-20.274 0.69295h-20.482zm87.61-0.10178c0.12733-1.015 0.27718-1.9036 0.333-1.9748 0.0558-0.0711 9.5546-0.0785 21.108-0.0164l21.007 0.11291-1.8641 3.7174-40.816 6e-3 0.23152-1.8454zm-41.731-4.6528c0-0.48189-0.19333-0.97971-0.42962-1.1063-0.30766-0.16479-0.25888-0.36788 0.17185-0.7154 0.33081-0.2669 0.60146-0.80173 0.60146-1.1885 0-0.63768 0.05861-0.63565 0.62853 0.0218 0.34569 0.39876 0.84061 0.72501 1.0998 0.72501 0.34832 0 0.37069 0.12824 0.08572 0.49147-0.21207 0.2703-0.31158 0.73723-0.22115 1.0376 0.09044 0.30039-0.11498 0.67076-0.45648 0.82306-0.3415 0.15229-0.81423 0.39176-1.0505 0.53216-0.26724 0.15878-0.42962-0.0759-0.42962-0.6209zm36.269-0.49196c-0.11173-0.23042-0.45703-0.29477-0.76734-0.14299-0.4357 0.21311-0.51012 0.0963-0.32676-0.51274 0.1306-0.43378 0.0612-1.0594-0.15426-1.3903-0.3106-0.47702-0.24485-0.6016 0.31748-0.6016 0.39005 0 0.79687-0.18083 0.90403-0.40185 0.10717-0.22101 0.57045 0.0246 1.0295 0.54578 0.67745 0.76913 0.74167 1.014 0.34098 1.2998-0.27153 0.19368-0.49369 0.63806-0.49369 0.9875 0 0.71628-0.54082 0.85397-0.84996 0.21641zm-86.385-3.0358c-0.41287-0.93635-0.75068-1.8235-0.75068-1.9714 0-0.1479 10.535-0.26891 23.411-0.26891h23.411l-0.20724 0.98568c-0.11398 0.54213-0.20936 1.4292-0.21194 1.9714l-0.0047 0.98569h-44.897zm60.771-3.1164v-4.8189h0.84845c0.61842 0 0.79402 0.18077 0.64772 0.66676-0.1104 0.36671-0.0923 2.1409 0.0401 3.9427 0.20794 2.8284 0.33076 3.276 0.89891 3.276 0.42893 0 0.65807 0.30507 0.65807 0.87616 0 0.74636-0.22914 0.87617-1.5466 0.87617h-1.5466zm3.7484 4.5998c-0.0177-0.12047-0.0322-1.1062-0.0322-2.1904s0.0145-3.1542 0.0322-4.5998l0.0322-2.6285h1.338c0.90303 0 1.4058 0.22527 1.5466 0.69295 0.30831 1.0241 0.28587 1.0594-0.67344 1.0594-0.75949 0-0.86695 0.16742-0.77331 1.2047 0.0642 0.7117 0.3178 1.2047 0.61958 1.2047 0.28096 0 0.56296 0.34499 0.62667 0.76664 0.0802 0.5311-0.1031 0.76664-0.59676 0.76664-0.53096 0-0.71259 0.27914-0.71259 1.0952 0 0.8648 0.17399 1.0952 0.82706 1.0952 0.65785 0 0.79029 0.17926 0.6473 0.87616-0.14082 0.68642-0.4688 0.87617-1.5144 0.87617-0.73408 0-1.3492-0.0986-1.3669-0.21905zm3.6166-1.4238c0.12315-0.90354 0.4671-3.0828 0.76433-4.8429 0.47742-2.827 0.62454-3.1845 1.2618-3.0666 0.61052 0.113 0.81348 0.70592 1.3204 3.8572 0.8018 4.9847 0.79469 5.695-0.057 5.695-0.38189 0-0.68739-0.29206-0.68739-0.65713 0-0.36141-0.23685-0.65712-0.52633-0.65712s-0.61536 0.29571-0.72416 0.65712c-0.10881 0.36142-0.50782 0.65713-0.8867 0.65713-0.6067 0-0.66217-0.19596-0.46497-1.6428zm2.2585-2.519c0-0.84331-0.15466-1.5333-0.34369-1.5333-0.18904 0-0.3437 0.68997-0.3437 1.5333 0 0.8433 0.15466 1.5333 0.3437 1.5333 0.18903 0 0.34369-0.68998 0.34369-1.5333zm2.4059-0.65712v-4.8647l3.6088 0.26483v9.1997l-1.8044 0.13242-1.8044 0.13241zm2.335-0.0745c-0.0651-2.0263-0.25345-3.2053-0.5306-3.3221-0.31842-0.1342-0.42962 0.67884-0.42962 3.141 0 2.7028 0.0989 3.3221 0.5306 3.3221 0.43839 0 0.51305-0.54586 0.42962-3.141zm16.777 4.2004c-0.11474-0.38112-0.20862-1.2682-0.20862-1.9714v-1.2784h23.371c12.854 0 23.371 0.10279 23.371 0.22843s-0.40721 1.0128-0.90491 1.9714l-0.9049 1.7429h-22.258c-19.979 0-22.279-0.071-22.466-0.69296zm-40.611-4.9276c0.12009-0.48229 0.0574-1.0037-0.13932-1.1586-0.58365-0.45978-0.40771-1.1062 0.30107-1.1062 0.36231 0 0.71997-0.2341 0.79479-0.52022 0.08592-0.32856 0.43678-0.1369 0.95232 0.52022s0.66591 1.1043 0.40814 1.2138c-0.22448 0.0954-0.40814 0.59068-0.40814 1.1007 0 0.7003-0.09701 0.80361-0.39635 0.42208-0.28178-0.35916-0.58922-0.37362-1.0636-0.05-0.57684 0.39349-0.63767 0.33634-0.44891-0.42172zm32.721-0.61935c0.0986-0.20331-6e-3 -0.65439-0.23276-1.0024-0.32778-0.50341-0.2987-0.68816 0.14226-0.90384 0.30484-0.1491 0.55425-0.57626 0.55425-0.94924 0-0.59506 0.077-0.58932 0.62853 0.0469 0.34569 0.39876 0.82862 0.72501 1.0732 0.72501 0.35457 0 0.35871 0.13198 0.0204 0.65155-0.23332 0.35834-0.34632 0.91033-0.25109 1.2266 0.12154 0.40372-0.16764 0.57508-0.97043 0.57508-0.62897 0-1.0629-0.16634-0.96434-0.36965zm-88.033-3.3891c-0.47495-0.95899-0.86355-1.8461-0.86355-1.9714s11.984-0.22774 26.632-0.22774h26.632l-1.5028 3.9427h-50.034zm93.979-0.0512c-0.39509-0.98713-0.65504-1.8755-0.57767-1.9741 0.0774-0.0986 12.069-0.1288 26.647-0.0671l26.507 0.11224-1.8641 3.7174-49.994 6e-3zm-34.467-1.6004c-0.14849-0.30118-0.57563-0.5476-0.94919-0.5476-0.53557 0-0.61378-0.16212-0.36985-0.76664 0.17014-0.42166 0.24002-1.0131 0.1553-1.3142-0.08472-0.30118 0.07819-0.54761 0.36203-0.54761 0.28384 0 0.74039-0.10971 1.0146-0.24381 0.29201-0.14283 0.58846 0.084 0.71572 0.5476 0.11948 0.43528 0.30736 1.0378 0.41751 1.339 0.11301 0.30901-0.02585 0.5476-0.31872 0.5476-0.28544 0-0.57262 0.34499-0.63817 0.76664-0.08719 0.5608-0.19168 0.61961-0.38918 0.21904zm25.548-0.65726c0-0.39763-0.25186-0.90262-0.55968-1.1222-0.38265-0.27295-0.43701-0.49586-0.17185-0.70475 0.21331-0.16803 0.38783-0.71229 0.38783-1.2095 0-0.7504 0.0868-0.8121 0.51117-0.36322 0.28114 0.29741 0.74512 0.4263 1.0311 0.28643 0.35089-0.17162 0.51992 0.0144 0.51992 0.57228 0 0.45462 0.0939 1.1384 0.20862 1.5195 0.14528 0.48259 0.01 0.69295-0.44681 0.69295-0.36048 0-0.84101 0.23656-1.0678 0.52569-0.32078 0.40888-0.41243 0.36504-0.41243-0.19727zm-21.45-4.5438c-0.09993-0.33193-0.41853-0.6035-0.70802-0.6035-0.28948 0-0.52633-0.19714-0.52633-0.43808s0.15466-0.43808 0.3437-0.43808 0.3437-0.39427 0.3437-0.87616c0-0.90075 0.49724-1.1847 0.8393-0.47921 0.10586 0.21833 0.46298 0.3073 0.7936 0.19772 0.98556-0.32666 0.87879 2.1683-0.11847 2.7681-0.60925 0.36647-0.8266 0.33708-0.96747-0.13083zm16.776-0.3343c-0.90572-0.52703-0.99843-3.0545-0.10112-2.7572 0.30396 0.10069 0.80661 2e-3 1.117-0.21949 0.43377-0.30941 0.56435-0.21506 0.56435 0.40775 0 0.44568 0.14251 0.9976 0.31668 1.2265 0.54004 0.70973-1.0502 1.8352-1.8969 1.3425zm-11.606-2.2369c0.11231-0.37307-0.0398-0.7691-0.35449-0.92303-0.6957-0.34028-0.71982-1.052-0.0357-1.052 0.28355 0 0.51555-0.31214 0.51555-0.69363 0-0.39899 0.18249-0.5852 0.42961-0.43836 0.2363 0.14039 0.70903 0.37986 1.0505 0.53216 0.36373 0.1622 0.54167 0.54006 0.42962 0.91227-0.10521 0.34946-0.19129 0.93605-0.19129 1.3035 0 0.40746-0.19686 0.57187-0.50453 0.42138-0.2775-0.13573-0.59595-0.0583-0.70768 0.17217-0.3269 0.67419-0.84709 0.48109-0.63166-0.23448zm6.8551 0.27243c-0.14156-0.29194-0.55271-0.41132-0.91367-0.2653-0.49879 0.20179-0.60635 0.0996-0.44817-0.42583 0.11447-0.38025 0.0172-0.98454-0.2161-1.3429-0.35227-0.54103-0.30339-0.65155 0.28817-0.65155 0.39182 0 0.85632-0.32781 1.0322-0.72848 0.28334-0.64535 0.34676-0.62036 0.55578 0.21904 0.12976 0.52114 0.45751 0.94753 0.72832 0.94753s0.49238 0.19713 0.49238 0.43808c0 0.24094-0.15965 0.43808-0.35477 0.43808-0.19513 0-0.47898 0.42797-0.63079 0.95106-0.19021 0.65539-0.35603 0.78604-0.53339 0.42026z" fill="#ee4c57"/>
  <path d="m106.98 152.3c-7e-3 -0.46994-0.27696-0.76664-0.69832-0.76664-0.37807 0-0.68739-0.19713-0.68739-0.43808 0-0.24094 0.15466-0.43808 0.34369-0.43808 0.18904 0 0.3437-0.36142 0.3437-0.80315 0-0.60033 0.26037-0.80315 1.0311-0.80315s1.0311 0.20282 1.0311 0.80315c0 0.44173 0.15466 0.80315 0.34369 0.80315s0.3437 0.19714 0.3437 0.43808c0 0.24095-0.25361 0.43808-0.56358 0.43808s-0.76903 0.34499-1.0202 0.76664c-0.43484 0.73014-0.4571 0.73014-0.46751 0zm-6.1974-1.3499c0-0.41717-0.232-0.87196-0.51555-1.0106-0.28354-0.13869-0.51554-0.4282-0.51554-0.64337s0.23199-0.39121 0.51554-0.39121c0.28355 0 0.51555-0.29571 0.51555-0.65712 0-0.73395 0.53665-0.88433 0.84996-0.23817 0.11172 0.23042 0.4044 0.3205 0.65039 0.20018 0.30682-0.15007 0.44725 0.19981 0.44725 1.1143 0 0.94128-0.16499 1.3331-0.56137 1.3331-0.30875 0-0.74696 0.23656-0.9738 0.5257-0.32078 0.40887-0.41243 0.35714-0.41243-0.23279zm12.21-0.27378c-0.11172-0.23042-0.39925-0.32303-0.63893-0.20579-0.29961 0.14655-0.4358-0.25532-0.4358-1.286 0-0.98524 0.14125-1.4301 0.41204-1.2976 0.22662 0.11085 0.51414-9e-3 0.63893-0.26641 0.33577-0.69247 0.87372-0.56752 0.87372 0.20292 0 0.36899 0.24893 0.79263 0.55316 0.94144 0.50842 0.24867 0.50842 0.30248 0 0.66514-0.30423 0.21702-0.55316 0.68048-0.55316 1.0299 0 0.71627-0.54082 0.85397-0.84996 0.2164zm-17.71-3.9472c0-0.39355-0.1856-0.9521-0.41243-1.2412-0.32078-0.40887-0.25077-0.5257 0.31506-0.5257 0.40012 0 0.8177-0.24642 0.92798-0.5476 0.16039-0.43808 0.24059-0.43808 0.40098 0 0.11027 0.30118 0.43614 0.5476 0.72416 0.5476 0.33632 0 0.44903 0.24792 0.31506 0.69295-0.11474 0.38112-0.20862 0.93968-0.20862 1.2412 0 0.31714-0.43467 0.54828-1.0311 0.54828-0.7248 0-1.0311-0.21255-1.0311-0.71553zm21.855-0.0772c0.11038-0.22764 0.0107-0.70572-0.22157-1.0624-0.23225-0.35669-0.36156-0.69304-0.28736-0.74746 1.2883-0.94483 1.5197-1.0029 2.2582-0.56695 0.84976 0.50166 0.99624 0.91738 0.46945 1.3324-0.18077 0.14241-0.25337 0.50907-0.16132 0.81481 0.11442 0.38005-0.21624 0.56975-1.0453 0.5997-0.68155 0.0246-1.1248-0.13746-1.012-0.37006zm-24.9-4.4632c-0.2432-0.37351-0.66287-0.57117-0.9326-0.43924-0.55365 0.2708-0.6768-0.5315-0.14579-0.94981 0.21886-0.17241 0.22787-0.54954 0.02471-1.0334-0.27448-0.65369-0.15568-0.76195 0.83609-0.76195 0.63582 0 1.0854 0.14559 0.99916 0.32354-0.08628 0.17794 0.11704 0.5214 0.45182 0.76324 0.5606 0.40496 0.5643 0.48497 0.04676 1.0126-0.30906 0.31509-0.62404 0.84093-0.69995 1.1685-0.11114 0.47964-0.22413 0.46339-0.5802-0.0835zm29.166-0.90336c0-0.33564-0.27066-0.74317-0.60146-0.90563-0.57283-0.2813-0.57283-0.31586 0-0.72575 0.3308-0.23672 0.60146-0.74044 0.60146-1.1194 0-0.5345 0.10583-0.57704 0.47198-0.18971 0.25959 0.2746 0.69265 0.39135 0.96235 0.25943 0.36582-0.17893 0.49036 0.14092 0.49036 1.2593 0 0.98523-0.14125 1.4301-0.41203 1.2976-0.22663-0.11084-0.51414 9e-3 -0.63894 0.26641-0.3239 0.66802-0.87372 0.57847-0.87372-0.1423zm-41.719-1.848-0.9908-1.5189 6.3382 0.25346 0.93754 2.8475-2.647-0.0316c-2.5887-0.0309-2.6689-0.0651-3.6378-1.5505zm48.767 0.81548c0.13619-0.42166 0.32544-1.1116 0.42056-1.5333 0.14807-0.65641 0.61403-0.76664 3.2408-0.76664h3.0678l-0.95981 1.5333c-0.94055 1.5025-1.0106 1.5333-3.4884 1.5333-2.2734 2e-5 -2.5036-0.0774-2.281-0.76662zm-33.856-7.5569v-4.8189h0.85924c0.80383 0 0.85924 0.14359 0.85924 2.2269 0 2.8214 0.7939 2.7626 0.83258-0.0617 0.02293-1.6724 0.13545-1.9659 0.79997-2.0862 0.762-0.13794 0.77331-0.069 0.77331 4.7094v4.8494h-0.85924c-0.79087 0-0.85924-0.1589-0.85924-1.9972 0-1.2199-0.13376-1.8918-0.3437-1.7265-0.18903 0.14891-0.34369 1.0477-0.34369 1.9972 0 1.5495-0.08807 1.7265-0.85924 1.7265h-0.85924zm4.5877 1.4939c0.12323-1.8581 0.22405-4.05 0.22405-4.8708 0-1.4844 0.0078-1.4917 1.4577-1.3577 1.0634 0.0983 1.4886 0.34212 1.5718 0.90135 0.0853 0.57325-0.11478 0.76664-0.79318 0.76664-0.78697 0-0.89284 0.15972-0.79851 1.2047 0.0643 0.7117 0.31781 1.2047 0.61959 1.2047 0.80318 0 0.8211 1.3881 0.0213 1.6547-0.42677 0.14225-0.70403 0.59587-0.70403 1.1518 0 0.69324 0.21595 0.91718 0.88444 0.91718 0.6567 0 0.85503 0.1974 0.77022 0.76664-0.0867 0.58197-0.51931 0.79946-1.7959 0.90288l-1.6817 0.13624zm3.6861-1.5144 0.047-4.8394 3.8803 0.26002 0.10098 3.1761c0.062 1.9491-0.0343 3.1761-0.24926 3.1761-0.23395 0-0.23895 0.37312-0.0151 1.1237 0.4929 1.6524 0.42201 1.9428-0.47433 1.9428-0.61067 0-0.89753-0.34973-1.1678-1.4238l-0.35833-1.4238-0.0351 1.4238c-0.03 1.2196-0.15986 1.4238-0.90526 1.4238h-0.87018l0.047-4.8394zm2.7244-1.5386c0-1.0479-0.15717-1.5074-0.51554-1.5074-0.35515 0-0.51554 0.45431-0.51554 1.4603 0 0.80315 0.0989 1.5863 0.21978 1.7404 0.43854 0.55897 0.8113-0.21901 0.8113-1.6932zm2.2095 5.7976c-0.0961-0.31926-0.12992-2.4385-0.0751-4.7094l0.0996-4.1289h3.437l0.0975 4.7094 0.0975 4.7094h-1.7409c-1.1282 0-1.8024-0.20428-1.9156-0.58046zm2.2585-4.2384c0-2.4338-0.10638-3.0666-0.51554-3.0666s-0.51554 0.63278-0.51554 3.0666c0 2.4338 0.10638 3.0666 0.51554 3.0666s0.51554-0.63278 0.51554-3.0666zm2.0622 0v-4.8189h1.5466c1.3175 0 1.5466 0.1298 1.5466 0.87616 0 0.58411-0.22913 0.87616-0.68739 0.87616-0.5399 0-0.68739 0.29205-0.68739 1.3611 0 0.98736 0.13227 1.2964 0.48168 1.1255 0.2864-0.14009 0.55202 0.10731 0.65521 0.61025 0.12665 0.6173-4e-3 0.84585-0.48168 0.84585-0.46976 0-0.65521 0.30998-0.65521 1.0952 0 0.80315 0.1833 1.0952 0.68739 1.0952 0.45826 0 0.68739 0.29205 0.68739 0.87616 0 0.74636-0.22913 0.87616-1.5466 0.87616h-1.5466zm4.0259 4.5474c-0.53342-0.67991-0.19732-1.4297 0.69986-1.5613 1.344-0.19711 1.3312-1.8345-0.0158-2.0315-0.94933-0.13886-0.9597-0.17323-0.85923-2.8475l0.1017-2.707 1.3398-0.13984c0.83951-0.0876 1.4472 0.076 1.6273 0.43808 0.48787 0.98072 0.33691 1.235-0.73307 1.235-0.86319 0-1.0311 0.1736-1.0311 1.0661 0 0.83737 0.20279 1.0958 0.94516 1.2047 0.91398 0.13404 0.94516 0.22532 0.94516 2.7671v2.6285l-1.3872 0.13014c-0.76298 0.0716-1.4976-0.0106-1.6326-0.18254zm-27.162-2.4229c-0.48332-0.67257-0.5349-1.0065-0.22818-1.4776 0.21795-0.33474 0.28026-0.84789 0.13846-1.1403-0.18006-0.37135-0.07685-0.4432 0.34222-0.23823 0.33002 0.16142 0.90584 0.29348 1.2796 0.29348 0.38454 0 0.5833 0.19853 0.45785 0.45727-0.12195 0.2515-0.03481 0.74434 0.19364 1.0952 0.33519 0.51478 0.30564 0.63793-0.15304 0.63793-0.31263 0-0.65744 0.2957-0.76624 0.65712-0.25328 0.84128-0.494 0.78704-1.2643-0.28486zm35.06-0.0918c-0.11898-0.39522-0.45318-0.71858-0.74266-0.71858s-0.52633-0.19714-0.52633-0.43808c0-0.24095 0.16509-0.43808 0.36686-0.43808 0.21905 0 0.2723-0.37971 0.13218-0.94244-0.19206-0.77131-0.12595-0.88925 0.3641-0.64956 0.32932 0.16108 0.81116 0.0682 1.0708-0.20641 0.37424-0.39589 0.47197-0.31209 0.47197 0.40467 0 0.49717 0.15467 1.0258 0.3437 1.1747 0.46714 0.36799 0.43525 1.0952-0.048 1.0952-0.21544 0-0.57723 0.32336-0.80396 0.71858-0.38209 0.66606-0.42804 0.66606-0.62857 0zm-81.476-2.4615c-0.4977-0.95861-0.90491-1.8457-0.90491-1.9714 0-0.12563 9.4179-0.22843 20.929-0.22843 23.039 0 21.346-0.21128 21.346 2.6643v1.2784h-40.465zm87.554 0.37392c0.11814-0.75295 0.2148-1.6401 0.2148-1.9714 0-0.50457 3.4342-0.60236 21.154-0.60236h21.154l-2.1282 3.9427h-40.609zm-41.716-5.1292c0-0.48189-0.19333-0.97971-0.42962-1.1063-0.30766-0.16479-0.25888-0.36788 0.17185-0.7154 0.33081-0.2669 0.60146-0.80173 0.60146-1.1885 0-0.63768 0.05861-0.63565 0.62853 0.0218 0.34569 0.39876 0.84061 0.72501 1.0998 0.72501 0.34832 0 0.37069 0.12824 0.08572 0.49147-0.21207 0.2703-0.31158 0.73723-0.22115 1.0376 0.09044 0.30039-0.11498 0.67076-0.45648 0.82306-0.3415 0.15229-0.81423 0.39176-1.0505 0.53216-0.26724 0.15878-0.42962-0.0759-0.42962-0.6209zm36.269-0.49196c-0.11173-0.23042-0.45703-0.29477-0.76734-0.14299-0.4357 0.21311-0.51012 0.0963-0.32676-0.51274 0.1306-0.43378 0.0612-1.0594-0.15426-1.3903-0.3106-0.47702-0.24485-0.6016 0.31748-0.6016 0.39005 0 0.79687-0.18083 0.90403-0.40185 0.10717-0.22101 0.57045 0.0246 1.0295 0.54578 0.67745 0.76913 0.74167 1.014 0.34098 1.2998-0.27153 0.19368-0.49369 0.63806-0.49369 0.9875 0 0.71628-0.54082 0.85397-0.84996 0.21641zm-86.025-2.5381c-0.35994-0.66259-0.76626-1.4511-0.90292-1.7523-0.19776-0.43581 4.5111-0.5476 23.066-0.5476h23.315l-0.13111 1.7523-0.13111 1.7523h-44.561zm60.73 1.0121c-0.01351-0.13502-0.03579-1.1819-0.04953-2.3264-0.01918-1.5977 0.10623-2.1138 0.54009-2.2225 0.4396-0.1102 0.56507 0.20593 0.56507 1.4238 0 1.3896 0.0993 1.5654 0.88443 1.5654 0.65662 0 0.85508 0.19748 0.77046 0.76664-0.0797 0.53579-0.50124 0.80759-1.4 0.90261-0.7073 0.0748-1.297 0.0255-1.3105-0.10952zm3.4615-2.1689v-2.3615l1.2029-0.17901c0.82958-0.12344 1.2029-2e-3 1.2029 0.39016 0 0.31303-0.23199 0.56915-0.51554 0.56915-0.32078 0-0.51554 0.41374-0.51554 1.0952 0 0.80315 0.1833 1.0952 0.68739 1.0952 0.45826 0 0.68739 0.29206 0.68739 0.87616 0 0.73014-0.22913 0.87617-1.3748 0.87617h-1.3748zm3.437 2.164c0-0.10861 0.16748-1.1929 0.37217-2.4094 0.40001-2.3774 1.3463-3.1367 1.3463-1.0802 0 0.71291 0.15898 1.0626 0.42962 0.94496 0.23629-0.10271 0.38123-0.61198 0.32209-1.1317-0.0694-0.60974 0.0758-0.94496 0.40933-0.94496 0.67118 0 0.76731 0.2506 1.0502 2.738 0.19766 1.7377 0.14642 2.0809-0.31069 2.0809-0.30107 0-0.63642-0.29571-0.74522-0.65713-0.10881-0.36141-0.49061-0.65712-0.84846-0.65712-0.35783 0-0.65061 0.29571-0.65061 0.65712 0 0.36507-0.30551 0.65713-0.68739 0.65713-0.37807 0-0.68739-0.0889-0.68739-0.19748zm4.8117-2.212c0-2.1174 0.0833-2.4094 0.68739-2.4094 0.55646 0 0.68739 0.29205 0.68739 1.5333 0 1.0709 0.15548 1.5333 0.51554 1.5333 0.36007 0 0.51555-0.46242 0.51555-1.5333 0-1.2412 0.13093-1.5333 0.68739-1.5333 0.58081 0 0.68738 0.29205 0.68738 1.8837 0 1.0361-0.18559 2.1203-0.41243 2.4094s-1.0775 0.5257-1.8903 0.5257h-1.4779zm19.118 1.0404c-0.11815-0.75295-0.21481-1.5415-0.21481-1.7523 0-0.21525 10.172-0.38332 23.199-0.38332 12.76 0 23.199 0.10133 23.199 0.22518 0 0.12386-0.34799 0.90996-0.77332 1.7469l-0.77331 1.5217-44.423 0.01zm-40.617-4.2516c0.12009-0.48229 0.0574-1.0037-0.13932-1.1586-0.58365-0.45978-0.40771-1.1062 0.30107-1.1062 0.36231 0 0.71997-0.2341 0.79479-0.52022 0.08592-0.32856 0.43678-0.1369 0.95232 0.52022s0.66591 1.1043 0.40814 1.2138c-0.22448 0.0954-0.40814 0.59068-0.40814 1.1007 0 0.7003-0.09701 0.80361-0.39635 0.42208-0.28178-0.35916-0.58922-0.37362-1.0636-0.05-0.57684 0.39349-0.63767 0.33634-0.44891-0.42172zm32.721-0.61935c0.0986-0.20331-6e-3 -0.65439-0.23276-1.0024-0.32778-0.50341-0.2987-0.68816 0.14226-0.90384 0.30484-0.1491 0.55425-0.57626 0.55425-0.94924 0-0.59506 0.077-0.58932 0.62853 0.0469 0.34569 0.39876 0.82862 0.72501 1.0732 0.72501 0.35457 0 0.35871 0.13198 0.0204 0.65155-0.23332 0.35834-0.34632 0.91033-0.25109 1.2266 0.12154 0.40372-0.16764 0.57508-0.97043 0.57508-0.62897 0-1.0629-0.16634-0.96434-0.36965zm-87.992-3.3884c-0.4977-0.95861-0.90491-1.8457-0.90491-1.9714s11.922-0.22843 26.493-0.22843c14.571 0 26.441 0.14785 26.377 0.32856-0.06395 0.18071-0.33991 1.0678-0.61323 1.9714l-0.49695 1.6428h-49.95zm94.29 0.61824c-0.18452-0.61858-0.49546-1.5057-0.69098-1.9714-0.34995-0.83346 0.0606-0.84667 26.309-0.84667h26.665l-2.1282 3.9427h-49.82zm-23.335-7e-3c0.0165-0.51033 0.0979-0.61414 0.20765-0.26467 0.0993 0.31624 0.0871 0.69408-0.0271 0.83966-0.11421 0.14557-0.19544-0.11318-0.18052-0.57499zm-11.483-2.2634c-0.14849-0.30118-0.57563-0.5476-0.94919-0.5476-0.53557 0-0.61378-0.16212-0.36985-0.76664 0.17014-0.42166 0.24002-1.0131 0.1553-1.3142-0.08472-0.30118 0.07819-0.54761 0.36203-0.54761 0.28384 0 0.74039-0.10971 1.0146-0.24381 0.29201-0.14283 0.58846 0.084 0.71572 0.5476 0.11948 0.43528 0.30736 1.0378 0.41751 1.339 0.11301 0.30901-0.02585 0.5476-0.31872 0.5476-0.28544 0-0.57262 0.34499-0.63817 0.76664-0.08719 0.5608-0.19168 0.61961-0.38918 0.21904zm25.548-0.65726c0-0.39763-0.25186-0.90262-0.55968-1.1222-0.38265-0.27295-0.43701-0.49586-0.17185-0.70475 0.21331-0.16803 0.38783-0.71229 0.38783-1.2095 0-0.7504 0.0868-0.8121 0.51117-0.36322 0.28114 0.29741 0.74512 0.4263 1.0311 0.28643 0.35089-0.17162 0.51992 0.0144 0.51992 0.57228 0 0.45462 0.0939 1.1384 0.20862 1.5195 0.14528 0.48259 0.01 0.69295-0.44681 0.69295-0.36048 0-0.84101 0.23656-1.0678 0.52569-0.32078 0.40888-0.41243 0.36504-0.41243-0.19727zm-21.45-4.5438c-0.09993-0.33193-0.41853-0.6035-0.70802-0.6035-0.28948 0-0.52633-0.19714-0.52633-0.43808s0.15466-0.43808 0.3437-0.43808 0.3437-0.39427 0.3437-0.87616c0-0.90075 0.49724-1.1847 0.8393-0.47921 0.10586 0.21833 0.46298 0.3073 0.7936 0.19772 0.98556-0.32666 0.87879 2.1683-0.11847 2.7681-0.60925 0.36647-0.8266 0.33708-0.96747-0.13083zm16.776-0.3343c-0.90572-0.52703-0.99843-3.0545-0.10112-2.7572 0.30396 0.10069 0.80661 2e-3 1.117-0.21949 0.43377-0.30941 0.56435-0.21506 0.56435 0.40775 0 0.44568 0.14251 0.9976 0.31668 1.2265 0.54004 0.70973-1.0502 1.8352-1.8969 1.3425zm-11.606-2.2369c0.11231-0.37307-0.0398-0.7691-0.35449-0.92303-0.6957-0.34028-0.71982-1.052-0.0357-1.052 0.28355 0 0.51555-0.31214 0.51555-0.69363 0-0.39899 0.18249-0.5852 0.42961-0.43836 0.2363 0.14039 0.70903 0.37986 1.0505 0.53216 0.36373 0.1622 0.54167 0.54006 0.42962 0.91227-0.10521 0.34946-0.19129 0.93605-0.19129 1.3035 0 0.40746-0.19686 0.57187-0.50453 0.42138-0.2775-0.13573-0.59595-0.0583-0.70768 0.17217-0.3269 0.67419-0.84709 0.48109-0.63166-0.23448zm6.8551 0.27243c-0.14156-0.29194-0.55271-0.41132-0.91367-0.2653-0.49879 0.20179-0.60635 0.0996-0.44817-0.42583 0.11447-0.38025 0.0172-0.98454-0.2161-1.3429-0.35227-0.54103-0.30339-0.65155 0.28817-0.65155 0.39182 0 0.85632-0.32781 1.0322-0.72848 0.28334-0.64535 0.34676-0.62036 0.55578 0.21904 0.12976 0.52114 0.45751 0.94753 0.72832 0.94753s0.49238 0.19713 0.49238 0.43808c0 0.24094-0.15965 0.43808-0.35477 0.43808-0.19513 0-0.47898 0.42797-0.63079 0.95106-0.19021 0.65539-0.35603 0.78604-0.53339 0.42026z" fill="#646c89"/>
  <path d="m106.55 151.51c-0.37096-0.51882-0.45769-0.92705-0.23433-1.103 0.19502-0.15363 0.28145-0.52223 0.19207-0.81912-0.10498-0.34873 0.17925-0.5398 0.80304-0.5398s0.90803 0.19107 0.80304 0.5398c-0.0894 0.29689-3e-3 0.66549 0.19208 0.81912 0.21799 0.17173 0.0946 0.61072-0.32026 1.1395-0.78898 1.0056-0.68867 1.0082-1.4356-0.0365zm-5.7694-1.0382c0-0.34134-0.18367-0.69865-0.40814-0.79403-0.26374-0.11205-0.14657-0.5068 0.33116-1.1157 0.44932-0.57271 0.82525-0.76504 0.95844-0.49035 0.12053 0.24858 0.39683 0.36506 0.614 0.25884 0.24109-0.11792 0.39486 0.29883 0.39486 1.0702 0 0.81295-0.14924 1.1903-0.41861 1.0586-0.23024-0.11262-0.51003-0.0162-0.62175 0.21419-0.30628 0.63166-0.84996 0.50266-0.84996-0.20166zm12.373 0.18253c0-0.24094-0.27066-0.43808-0.60146-0.43808-0.4079 0-0.60147-0.34277-0.60147-1.0651 0-1.3351 1.1324-1.6976 1.9532-0.62538 0.49625 0.64826 0.509 0.82915 0.0897 1.2727-0.26882 0.28437-0.40401 0.69184-0.30042 0.90548s0.0245 0.38844-0.17563 0.38844c-0.20019 0-0.36398-0.19714-0.36398-0.43808zm-17.718-3.8192c0.08785-0.29347 0.01182-0.65009-0.16896-0.7925-0.52384-0.41266-0.38146-0.83051 0.44731-1.3127 0.60284-0.35076 0.89886-0.2827 1.3596 0.31258 0.32391 0.41854 0.44666 0.87305 0.27278 1.01-0.17388 0.13698-0.23738 0.51068-0.14111 0.83044 0.12359 0.41054-0.13418 0.56734-0.87714 0.53358-0.67465-0.0307-0.99486-0.23927-0.89244-0.58139zm21.767-0.78068c-0.0686-0.48189 0.15243-1.2212 0.49115-1.6428s0.61585-0.5695 0.61585-0.32856c0 0.24095 0.32826 0.43808 0.72947 0.43808 0.60668 0 0.65806 0.10968 0.30525 0.65155-0.23333 0.35834-0.34323 0.92058-0.24424 1.2494 0.12765 0.42399-0.10397 0.58487-0.79639 0.55318-0.69002-0.0316-1.013-0.30167-1.1011-0.92086zm-25.186-4.3571c-0.98411-0.66106-0.94431-2.3102 0.06167-2.5554 0.49777-0.12129 0.79756 0.0161 0.79756 0.36553 0 0.30792 0.19333 0.65985 0.42962 0.78206 0.30574 0.15812 0.3206 0.32655 0.05153 0.5841-0.20794 0.19906-0.43994 0.5697-0.51554 0.82366-0.09633 0.32359-0.34311 0.32359-0.82485 0zm29.202-0.81228c-0.24461-0.66346-0.24461-1.2367 0-1.8399 0.29016-0.71552 0.49795-0.7964 1.1333-0.44113 0.42792 0.23927 0.71066 0.65881 0.62832 0.9323-0.0823 0.2735 0.0238 0.71843 0.23587 0.98873 0.28498 0.36323 0.20623 0.49147-0.30181 0.49147-0.37806 0-0.83432 0.18724-1.0139 0.4161-0.20619 0.26277-0.45744 0.061-0.68181-0.5476zm-41.535-1.4506-0.9908-1.5189 6.3382 0.25346 0.93754 2.8475-2.647-0.0316c-2.5887-0.0309-2.6689-0.0651-3.6378-1.5505zm48.767 0.81548c0.13619-0.42166 0.32544-1.1116 0.42056-1.5333 0.14807-0.65641 0.61403-0.76664 3.2408-0.76664h3.0678l-0.95981 1.5333c-0.94055 1.5025-1.0106 1.5333-3.4884 1.5333-2.2734 2e-5 -2.5036-0.0774-2.281-0.76662zm-33.512-7.3378c0-3.7967 0.09001-4.5998 0.51554-4.5998 0.38504 0 0.5032 0.47129 0.46677 1.8618l-0.04877 1.8618-0.4923-3.5046-0.04877 2.0975c-0.04475 1.9244 0.01505 2.0905 0.72454 2.0128 0.42532-0.0466 1.1986-0.054 1.7185-0.0166 0.91004 0.0656 0.94516 0.15767 0.94516 2.4776 0 2.0936-0.08751 2.4094-0.66763 2.4094-0.53748 0-0.68823-0.35632-0.77331-1.8278-0.15113-2.6138-0.96492-2.7656-0.96492-0.18008 0 1.7158-0.09998 2.0079-0.68739 2.0079-0.64375 0-0.68739-0.29205-0.68739-4.5998zm4.468 0v-4.5998h1.338c0.87229 0 1.4069 0.22872 1.5358 0.65712 0.14707 0.48851-0.0419 0.64922-0.73654 0.62633-0.83131-0.0274-0.85855-0.0723-0.24698-0.40729 0.57604-0.31551 0.50644-0.38149-0.42962-0.40729-1.0984-0.0303-1.117 2e-3 -1.117 1.9422 0 1.9435 0.01615 1.9714 1.0796 1.8618 0.62336-0.0642 1.1438 0.12023 1.2316 0.43642 0.0901 0.32483-0.13932 0.5476-0.56406 0.5476-0.53464 0-0.71603 0.27745-0.71603 1.0952 0 0.88814 0.16939 1.0952 0.896 1.0952 0.67584 0 0.84475 0.17027 0.68739 0.69295-0.11474 0.38112-0.20862 0.7754-0.20862 0.87616 0 0.10077-0.61865 0.18321-1.3748 0.18321h-1.3748zm3.7806 0v-4.5998l1.8044 0.0437c1.3968 0.0338 1.6103 0.12044 0.94516 0.3835-0.47258 0.18691-1.2072 0.24446-1.6326 0.12788-0.71185-0.19511-0.77331-0.0556-0.77331 1.7558 0 1.6703 0.11689 2.0077 0.77331 2.2319 1.2395 0.42338 1.286 0.3686 1.3466-1.5857l0.0578-1.8618 0.13482 1.6428c0.0868 1.058 0.31095 1.6428 0.62961 1.6428 0.5696 0 0.66948 1.1249 0.13712 1.5443-0.32072 0.25265-0.24719 0.97531 0.28137 2.7655 0.12013 0.40685-0.0721 0.54086-0.62831 0.43808-0.57636-0.10649-0.90058-0.57861-1.1547-1.6814l-0.3533-1.5333-0.11738 1.6428c-0.0916 1.2823-0.26369 1.6428-0.78403 1.6428-0.6174 0-0.66664-0.33977-0.66664-4.5998zm4.6221 4.0418c-0.10042-0.33356-0.13751-2.3651-0.0824-4.5145l0.10015-3.908 1.8166-0.13296 1.8166-0.13295-0.0982 4.5138-0.0981 4.5138-1.636 0.13371c-1.1523 0.0942-1.69-0.0456-1.8186-0.47275zm2.2518-2.5085c0-1.2656 0.14321-1.7523 0.51554-1.7523 0.38044 0 0.51554-0.50703 0.51554-1.9348v-1.9349h-3.0932v1.9349c0 2.3552 0.59319 2.5771 0.78071 0.29205 0.0771-0.93945 0.15956-0.31425 0.1926 1.4603 0.0318 1.7067 0.16088 3.2345 0.28691 3.3951 0.53119 0.67706 0.80195 0.18404 0.80195-1.4603zm2.0622 0.68231c0-2.0244 0.10135-2.4356 0.60146-2.4406 0.33081-3e-3 0.94946-0.12485 1.3748-0.27013 0.56852-0.1942 0.77331-0.0766 0.77331 0.44406 0 0.41616-0.28346 0.70822-0.68738 0.70822-0.50409 0-0.68739 0.29205-0.68739 1.0952 0 0.88448 0.17016 1.0952 0.88443 1.0952 0.65666 0 0.85506 0.19744 0.77035 0.76664-0.0832 0.55923-0.50846 0.80309-1.5718 0.90135l-1.4577 0.13471zm4.1243 1.5333c0-0.66939 0.22113-0.90135 0.85924-0.90135 0.68739 0 0.85924-0.21904 0.85924-1.0952 0-0.8691-0.1732-1.0952-0.83895-1.0952-0.46143 0-0.92261-0.17252-1.0248-0.38337-0.25255-0.52084 2.5832-1.0653 2.9714-0.57045 0.1698 0.21642 0.2607 1.3574 0.20201 2.5355l-0.10671 2.142-1.4607 0.13471c-1.2794 0.11799-1.4607 0.0229-1.4607-0.76664zm-26.62-1.449c-0.14399-0.42165-0.47725-0.76664-0.74058-0.76664-0.26332 0-0.47877-0.19714-0.47877-0.43808 0-0.24095 0.15466-0.43808 0.34369-0.43808 0.18903 0 0.3437-0.41841 0.3437-0.92981 0-0.76438 0.08904-0.83561 0.50049-0.40036 0.27526 0.29119 0.64424 0.41619 0.81994 0.27778 0.1757-0.1384 0.39302 0.2389 0.48294 0.83845 0.10574 0.70504 0.0071 1.0901-0.27919 1.0901-0.24347 0-0.50742 0.34499-0.58654 0.76664-0.13701 0.73013-0.15633 0.73013-0.40567 0zm34.525-0.74619c0-0.25219-0.24854-0.45853-0.55231-0.45853-0.36244 0-0.48059-0.23823-0.3437-0.69295 0.11474-0.38113 0.20862-0.85099 0.20862-1.0441 0-0.19315 0.35709-0.43819 0.79352-0.54453 0.56416-0.13747 0.89325 0.076 1.1385 0.73847 0.28138 0.75997 0.19841 1.0728-0.44983 1.696-0.43716 0.42031-0.79483 0.55785-0.79483 0.30566zm-81.582-2.2015c-0.4977-0.95861-0.90491-1.8457-0.90491-1.9714 0-0.12563 9.4179-0.22843 20.929-0.22843 23.039 0 21.346-0.21128 21.346 2.6643v1.2784h-40.465zm87.554 0.37392c0.11814-0.75295 0.2148-1.6401 0.2148-1.9714 0-0.50457 3.4342-0.60236 21.154-0.60236h21.154l-2.1282 3.9427h-40.609zm-32.728-2.2452c-0.03936-1.5869 0.07077-2.0809 0.46392-2.0809 0.38645 0 0.50108 0.46619 0.45777 1.8618l-0.05778 1.8618-0.35749-3.5046-0.4548 3.9427zm6.5583 0.5476c0-0.8433 0.0707-1.1883 0.15719-0.76664 0.0864 0.42165 0.0864 1.1116 0 1.5333-0.0864 0.42166-0.15719 0.0767-0.15719-0.76664zm9.2798 0c0-0.8433 0.0707-1.1883 0.15718-0.76664 0.0865 0.42165 0.0865 1.1116 0 1.5333-0.0864 0.42166-0.15718 0.0767-0.15718-0.76664zm3.8396-0.42075c0.0231-0.75004 0.29451-1.1785 0.89241-1.4088 0.65649-0.25281 0.52139-0.30668-0.57256-0.2283-0.78748 0.0564-1.3583-0.0489-1.2686-0.23405 0.0898-0.18514 0.77275-0.33662 1.5177-0.33662 0.97486 0 1.3545 0.18417 1.3545 0.65712 0 0.40409-0.32206 0.65712-0.83641 0.65712-0.5962 0-0.87716 0.28307-0.97832 0.98568-0.12682 0.88084-0.13839 0.87104-0.10876-0.0922zm-2.7164-1.3154c0.53968-0.2829 0.35504-0.40104-0.85923-0.5498l-1.5466-0.18947 1.6326-0.0765c1.2487-0.0585 1.6326 0.078 1.6326 0.58059 0 0.39853-0.30432 0.645-0.77331 0.62633-0.73521-0.0293-0.73944-0.0486-0.0859-0.39111zm-26.066-2.5035c-0.5203-0.87922-0.52986-1.0173-0.07043-1.0173 0.29237 0 0.53158-0.29571 0.53158-0.65713 0-0.36141 0.15466-0.65712 0.3437-0.65712s0.3437 0.19714 0.3437 0.43808c0 0.24095 0.21563 0.43808 0.47918 0.43808 0.29196 0 0.45982 0.41608 0.42962 1.0649-0.06911 1.4847-1.2744 1.7135-2.0574 0.39051zm36.549 0.24585c0-0.26904-0.28355-0.39466-0.63011-0.27914-0.50265 0.16754-0.63011-0.0437-0.63011-1.0441 0-0.68978 0.0777-1.1551 0.17261-1.0341 0.0949 0.121 0.4558-0.10669 0.80195-0.50598 0.55194-0.63667 0.62935-0.64256 0.62935-0.0478 0 0.37298 0.25305 0.80191 0.56233 0.95319 0.52051 0.25459 0.52046 0.33401-6.9e-4 1.0681-0.30969 0.43618-0.45963 0.92491-0.3332 1.0861 0.12638 0.16115 0.0494 0.29301-0.17115 0.29301-0.22054 0-0.40098-0.22013-0.40098-0.48918zm-86.188-2.4679c-0.35994-0.66259-0.76626-1.4511-0.90292-1.7523-0.19776-0.43581 4.5111-0.5476 23.066-0.5476h23.315l-0.13111 1.7523-0.13111 1.7523h-44.561zm60.73 1.0121c-0.01351-0.13502-0.03579-1.1819-0.04953-2.3264-0.01918-1.5977 0.10623-2.1138 0.54009-2.2225 0.4396-0.1102 0.56507 0.20593 0.56507 1.4238 0 1.3896 0.0993 1.5654 0.88443 1.5654 0.65662 0 0.85508 0.19748 0.77046 0.76664-0.0797 0.53579-0.50124 0.80759-1.4 0.90261-0.7073 0.0748-1.297 0.0255-1.3105-0.10952zm3.4615-2.1689v-2.3615l1.2029-0.17901c0.82958-0.12344 1.2029-2e-3 1.2029 0.39016 0 0.31303-0.23199 0.56915-0.51554 0.56915-0.32078 0-0.51554 0.41374-0.51554 1.0952 0 0.80315 0.1833 1.0952 0.68739 1.0952 0.45826 0 0.68739 0.29206 0.68739 0.87616 0 0.73014-0.22913 0.87617-1.3748 0.87617h-1.3748zm3.437 2.164c0-0.10861 0.16748-1.1929 0.37217-2.4094 0.40001-2.3774 1.3463-3.1367 1.3463-1.0802 0 0.71291 0.15898 1.0626 0.42962 0.94496 0.23629-0.10271 0.38123-0.61198 0.32209-1.1317-0.0694-0.60974 0.0758-0.94496 0.40933-0.94496 0.67118 0 0.76731 0.2506 1.0502 2.738 0.19766 1.7377 0.14642 2.0809-0.31069 2.0809-0.30107 0-0.63642-0.29571-0.74522-0.65713-0.10881-0.36141-0.49061-0.65712-0.84846-0.65712-0.35783 0-0.65061 0.29571-0.65061 0.65712 0 0.36507-0.30551 0.65713-0.68739 0.65713-0.37807 0-0.68739-0.0889-0.68739-0.19748zm4.8117-2.212c0-2.1174 0.0833-2.4094 0.68739-2.4094 0.55646 0 0.68739 0.29205 0.68739 1.5333 0 1.0709 0.15548 1.5333 0.51554 1.5333 0.36007 0 0.51555-0.46242 0.51555-1.5333 0-1.2412 0.13093-1.5333 0.68739-1.5333 0.58081 0 0.68738 0.29205 0.68738 1.8837 0 1.0361-0.18559 2.1203-0.41243 2.4094s-1.0775 0.5257-1.8903 0.5257h-1.4779zm19.118 1.0404c-0.11815-0.75295-0.21481-1.5415-0.21481-1.7523 0-0.21525 10.172-0.38332 23.199-0.38332 12.76 0 23.199 0.10133 23.199 0.22518 0 0.12386-0.34799 0.90996-0.77332 1.7469l-0.77331 1.5217-44.423 0.01zm-40.5-4.9832c-0.05432-0.48189 0.1719-1.2212 0.5027-1.6428 0.73626-0.93845 0.94516-0.96265 0.94516-0.10952 0 0.36142 0.21744 0.65712 0.4832 0.65712 0.38796 0 0.4071 0.20557 0.09707 1.0429-0.4845 1.3086-1.8824 1.3446-2.0281 0.0523zm32.511-0.43808c-0.22259-0.6452-0.12674-1.0999 0.36363-1.725 0.44168-0.56297 0.71172-0.6736 0.80196-0.32856 0.0748 0.28612 0.3717 0.52022 0.65972 0.52022 0.33631 0 0.44903 0.24792 0.31505 0.69295-0.11474 0.38113-0.20862 0.92325-0.20862 1.2047 0 0.88121-1.6066 0.57816-1.9317-0.36439zm-87.899-2.8381c-0.4977-0.95861-0.90491-1.8457-0.90491-1.9714s11.922-0.22843 26.493-0.22843c14.571 0 26.441 0.14785 26.377 0.32856-0.06395 0.18071-0.33991 1.0678-0.61323 1.9714l-0.49695 1.6428h-49.95zm94.29 0.61824c-0.18452-0.61858-0.49546-1.5057-0.69098-1.9714-0.34995-0.83346 0.0606-0.84667 26.309-0.84667h26.665l-2.1282 3.9427h-49.82zm-23.335-7e-3c0.0165-0.51033 0.0979-0.61414 0.20765-0.26467 0.0993 0.31624 0.0871 0.69408-0.0271 0.83966-0.11421 0.14557-0.19544-0.11318-0.18052-0.57499zm-11.563-2.8569c-0.12053-0.24858-0.41261-0.35734-0.64906-0.24168-0.28779 0.14076-0.41832-0.21266-0.39485-1.069 0.02454-0.89489 0.17725-1.2101 0.50825-1.049 0.26025 0.12665 0.68557 6e-3 0.94516-0.269 0.37393-0.39556 0.47198-0.31371 0.47198 0.39402 0 0.49131 0.12244 0.959 0.27209 1.0393 0.14965 0.0803 6.88e-4 0.48382-0.33116 0.89669-0.37845 0.47093-0.68492 0.58223-0.8224 0.29869zm25.627-0.61127c0-0.36142-0.26156-0.65712-0.58124-0.65712-0.51988 0-0.51434-0.0624 0.0525-0.59067 0.40354-0.37611 0.53177-0.80097 0.353-1.1696-0.20623-0.42534-0.1215-0.50111 0.3193-0.2855 0.33002 0.16142 0.83227 0.29348 1.1161 0.29348s0.44675 0.24642 0.36202 0.5476c-0.0847 0.30119-0.0229 0.87324 0.13725 1.2712 0.23303 0.57891 0.155 0.67821-0.39014 0.4965-0.37899-0.12632-0.68143-0.01-0.68143 0.26204 0 0.26905-0.15466 0.48918-0.34369 0.48918s-0.34369-0.29571-0.34369-0.65712zm-21.74-4.2557c-0.48758-0.63591-0.52594-0.94459-0.20004-1.6097 0.40994-0.83669 2.1123-1.079 1.8806-0.26768-0.06883 0.24094 0.02406 0.80686 0.20641 1.2576 0.25026 0.61859 0.22609 0.73643-0.09859 0.48067-0.24747-0.19495-0.59042-0.0703-0.8076 0.29355-0.32426 0.54323-0.46252 0.52147-0.98074-0.1544zm17.627 0.20347c-6e-3 -0.30118-0.33871-0.5476-0.73992-0.5476-0.57953 0-0.64896-0.12366-0.33777-0.60159 0.21544-0.33088 0.31-0.87301 0.21013-1.2047-0.12447-0.41343 0.0899-0.60312 0.68146-0.60312 0.47467 0 0.86304 0.23662 0.86304 0.52583s0.27066 0.72677 0.60146 0.97236c0.55518 0.41216 0.55649 0.44755 0.0171 0.45985-0.32142 7e-3 -0.74204 0.35831-0.93471 0.77996-0.19442 0.42547-0.35498 0.52295-0.36078 0.21904zm-12.28-3.0184c-0.33593-0.9073-0.30282-1.2182 0.19761-1.8561 0.49888-0.63589 0.67403-0.66674 1.0297-0.18142 0.23572 0.32164 0.57397 0.47027 0.75167 0.33028 0.17771-0.13998 0.32309-0.0574 0.32309 0.18357 0 0.24094-0.1479 0.55459-0.32868 0.697s-0.24089 0.55055-0.13358 0.90699c0.1417 0.47067 0.034 0.56927-0.39339 0.36021-0.32368-0.15831-0.69074-0.077-0.81571 0.18075-0.13304 0.27439-0.39444 0.0169-0.63073-0.62129zm5.8756 0.0216c0.079-0.26279 0.0143-0.74448-0.14378-1.0704-0.19499-0.40213-0.0489-0.74415 0.45464-1.0641 0.59894-0.3806 0.87167-0.3062 1.4147 0.38591 0.445 0.56722 0.53454 0.91611 0.26454 1.0308-0.22448 0.0954-0.40814 0.43183-0.40814 0.74768 0 0.33791-0.3551 0.54827-0.86274 0.5111-0.4745-0.0348-0.79814-0.27819-0.71919-0.54099z" fill="#ef0615"/>
  <path d="m106.55 151.51c-0.37096-0.51882-0.45769-0.92705-0.23433-1.103 0.19502-0.15363 0.28145-0.52223 0.19207-0.81912-0.10498-0.34873 0.17925-0.5398 0.80304-0.5398s0.90803 0.19107 0.80304 0.5398c-0.0894 0.29689-3e-3 0.66549 0.19208 0.81912 0.21799 0.17173 0.0946 0.61072-0.32026 1.1395-0.78898 1.0056-0.68867 1.0082-1.4356-0.0365zm-5.7694-1.0382c0-0.34134-0.18367-0.69865-0.40814-0.79403-0.26374-0.11205-0.14657-0.5068 0.33116-1.1157 0.44932-0.57271 0.82525-0.76504 0.95844-0.49035 0.12053 0.24858 0.39683 0.36506 0.614 0.25884 0.24109-0.11792 0.39486 0.29883 0.39486 1.0702 0 0.81295-0.14924 1.1903-0.41861 1.0586-0.23024-0.11262-0.51003-0.0162-0.62175 0.21419-0.30628 0.63166-0.84996 0.50266-0.84996-0.20166zm12.373 0.18253c0-0.24094-0.27066-0.43808-0.60146-0.43808-0.4079 0-0.60147-0.34277-0.60147-1.0651 0-1.3351 1.1324-1.6976 1.9532-0.62538 0.49625 0.64826 0.509 0.82915 0.0897 1.2727-0.26882 0.28437-0.40401 0.69184-0.30042 0.90548s0.0245 0.38844-0.17563 0.38844c-0.20019 0-0.36398-0.19714-0.36398-0.43808zm-17.718-3.8192c0.08785-0.29347 0.01182-0.65009-0.16896-0.7925-0.52384-0.41266-0.38146-0.83051 0.44731-1.3127 0.60284-0.35076 0.89886-0.2827 1.3596 0.31258 0.32391 0.41854 0.44666 0.87305 0.27278 1.01-0.17388 0.13698-0.23738 0.51068-0.14111 0.83044 0.12359 0.41054-0.13418 0.56734-0.87714 0.53358-0.67465-0.0307-0.99486-0.23927-0.89244-0.58139zm21.767-0.78068c-0.0686-0.48189 0.15243-1.2212 0.49115-1.6428s0.61585-0.5695 0.61585-0.32856c0 0.24095 0.32826 0.43808 0.72947 0.43808 0.60668 0 0.65806 0.10968 0.30525 0.65155-0.23333 0.35834-0.34323 0.92058-0.24424 1.2494 0.12765 0.42399-0.10397 0.58487-0.79639 0.55318-0.69002-0.0316-1.013-0.30167-1.1011-0.92086zm-25.186-4.3571c-0.98411-0.66106-0.94431-2.3102 0.06167-2.5554 0.49777-0.12129 0.79756 0.0161 0.79756 0.36553 0 0.30792 0.19333 0.65985 0.42962 0.78206 0.30574 0.15812 0.3206 0.32655 0.05153 0.5841-0.20794 0.19906-0.43994 0.5697-0.51554 0.82366-0.09633 0.32359-0.34311 0.32359-0.82485 0zm29.202-0.81228c-0.24461-0.66346-0.24461-1.2367 0-1.8399 0.29016-0.71552 0.49795-0.7964 1.1333-0.44113 0.42792 0.23927 0.71066 0.65881 0.62832 0.9323-0.0823 0.2735 0.0238 0.71843 0.23587 0.98873 0.28498 0.36323 0.20623 0.49147-0.30181 0.49147-0.37806 0-0.83432 0.18724-1.0139 0.4161-0.20619 0.26277-0.45744 0.061-0.68181-0.5476zm-40.716-0.30658c0-0.25281 1.0816-0.43808 2.5574-0.43808 1.4066 0 2.653 0.19713 2.7698 0.43808 0.1349 0.27821-0.79839 0.43808-2.5574 0.43808-1.6174 0-2.7698-0.18227-2.7698-0.43808zm47.774 0c0-0.25582 1.1524-0.43808 2.7698-0.43808 1.759 0 2.6923 0.15986 2.5574 0.43808-0.11683 0.24094-1.3632 0.43808-2.7698 0.43808-1.4758 0-2.5574-0.18528-2.5574-0.43808zm-33.338-7.6664c0-3.7967 0.09001-4.5998 0.51554-4.5998 0.38504 0 0.5032 0.47129 0.46677 1.8618l-0.04877 1.8618-0.4923-3.5046-0.04877 2.0975c-0.04475 1.9244 0.01505 2.0905 0.72454 2.0128 0.42532-0.0466 1.1986-0.054 1.7185-0.0166 0.91004 0.0656 0.94516 0.15767 0.94516 2.4776 0 2.0936-0.08751 2.4094-0.66763 2.4094-0.53748 0-0.68823-0.35632-0.77331-1.8278-0.15113-2.6138-0.96492-2.7656-0.96492-0.18008 0 1.7158-0.09998 2.0079-0.68739 2.0079-0.64375 0-0.68739-0.29205-0.68739-4.5998zm4.468 0v-4.5998h1.338c0.87229 0 1.4069 0.22872 1.5358 0.65712 0.14707 0.48851-0.0419 0.64922-0.73654 0.62633-0.83131-0.0274-0.85855-0.0723-0.24698-0.40729 0.57604-0.31551 0.50644-0.38149-0.42962-0.40729-1.0984-0.0303-1.117 2e-3 -1.117 1.9422 0 1.9435 0.01615 1.9714 1.0796 1.8618 0.62336-0.0642 1.1438 0.12023 1.2316 0.43642 0.0901 0.32483-0.13932 0.5476-0.56406 0.5476-0.53464 0-0.71603 0.27745-0.71603 1.0952 0 0.88814 0.16939 1.0952 0.896 1.0952 0.67584 0 0.84475 0.17027 0.68739 0.69295-0.11474 0.38112-0.20862 0.7754-0.20862 0.87616 0 0.10077-0.61865 0.18321-1.3748 0.18321h-1.3748zm3.7806 0v-4.5998l1.8044 0.0437c1.3968 0.0338 1.6103 0.12044 0.94516 0.3835-0.47258 0.18691-1.2072 0.24446-1.6326 0.12788-0.71185-0.19511-0.77331-0.0556-0.77331 1.7558 0 1.6703 0.11689 2.0077 0.77331 2.2319 1.2395 0.42338 1.286 0.3686 1.3466-1.5857l0.0578-1.8618 0.13482 1.6428c0.0868 1.058 0.31095 1.6428 0.62961 1.6428 0.5696 0 0.66948 1.1249 0.13712 1.5443-0.32072 0.25265-0.24719 0.97531 0.28137 2.7655 0.12013 0.40685-0.0721 0.54086-0.62831 0.43808-0.57636-0.10649-0.90058-0.57861-1.1547-1.6814l-0.3533-1.5333-0.11738 1.6428c-0.0916 1.2823-0.26369 1.6428-0.78403 1.6428-0.6174 0-0.66664-0.33977-0.66664-4.5998zm4.6221 4.0418c-0.10042-0.33356-0.13751-2.3651-0.0824-4.5145l0.10015-3.908 1.8166-0.13296 1.8166-0.13295-0.0982 4.5138-0.0981 4.5138-1.636 0.13371c-1.1523 0.0942-1.69-0.0456-1.8186-0.47275zm2.2518-2.5085c0-1.2656 0.14321-1.7523 0.51554-1.7523 0.38044 0 0.51554-0.50703 0.51554-1.9348v-1.9349h-3.0932v1.9349c0 2.3552 0.59319 2.5771 0.78071 0.29205 0.0771-0.93945 0.15956-0.31425 0.1926 1.4603 0.0318 1.7067 0.16088 3.2345 0.28691 3.3951 0.53119 0.67706 0.80195 0.18404 0.80195-1.4603zm2.0622 0.68231c0-2.0244 0.10135-2.4356 0.60146-2.4406 0.33081-3e-3 0.94946-0.12485 1.3748-0.27013 0.56852-0.1942 0.77331-0.0766 0.77331 0.44406 0 0.41616-0.28346 0.70822-0.68738 0.70822-0.50409 0-0.68739 0.29205-0.68739 1.0952 0 0.88448 0.17016 1.0952 0.88443 1.0952 0.65666 0 0.85506 0.19744 0.77035 0.76664-0.0832 0.55923-0.50846 0.80309-1.5718 0.90135l-1.4577 0.13471zm4.1243 1.5333c0-0.66939 0.22113-0.90135 0.85924-0.90135 0.68739 0 0.85924-0.21904 0.85924-1.0952 0-0.8691-0.1732-1.0952-0.83895-1.0952-0.46143 0-0.92261-0.17252-1.0248-0.38337-0.25255-0.52084 2.5832-1.0653 2.9714-0.57045 0.1698 0.21642 0.2607 1.3574 0.20201 2.5355l-0.10671 2.142-1.4607 0.13471c-1.2794 0.11799-1.4607 0.0229-1.4607-0.76664zm-26.62-1.449c-0.14399-0.42165-0.47725-0.76664-0.74058-0.76664-0.26332 0-0.47877-0.19714-0.47877-0.43808 0-0.24095 0.15466-0.43808 0.34369-0.43808 0.18903 0 0.3437-0.41841 0.3437-0.92981 0-0.76438 0.08904-0.83561 0.50049-0.40036 0.27526 0.29119 0.64424 0.41619 0.81994 0.27778 0.1757-0.1384 0.39302 0.2389 0.48294 0.83845 0.10574 0.70504 0.0071 1.0901-0.27919 1.0901-0.24347 0-0.50742 0.34499-0.58654 0.76664-0.13701 0.73013-0.15633 0.73013-0.40567 0zm34.525-0.74619c0-0.25219-0.24854-0.45853-0.55231-0.45853-0.36244 0-0.48059-0.23823-0.3437-0.69295 0.11474-0.38113 0.20862-0.85099 0.20862-1.0441 0-0.19315 0.35709-0.43819 0.79352-0.54453 0.56416-0.13747 0.89325 0.076 1.1385 0.73847 0.28138 0.75997 0.19841 1.0728-0.44983 1.696-0.43716 0.42031-0.79483 0.55785-0.79483 0.30566zm-81.252-1.5537-0.56299-1.0952h41.603v2.1904h-40.477zm87.157 0.113 0.11019-0.98917 41.503-0.22592-0.51521 0.98912-0.5152 0.98913-40.693 0.22601zm-32.661-2.632c-0.03936-1.5869 0.07077-2.0809 0.46392-2.0809 0.38645 0 0.50108 0.46619 0.45777 1.8618l-0.05778 1.8618-0.35749-3.5046-0.4548 3.9427zm6.5583 0.5476c0-0.8433 0.0707-1.1883 0.15719-0.76664 0.0864 0.42165 0.0864 1.1116 0 1.5333-0.0864 0.42166-0.15719 0.0767-0.15719-0.76664zm9.2798 0c0-0.8433 0.0707-1.1883 0.15718-0.76664 0.0865 0.42165 0.0865 1.1116 0 1.5333-0.0864 0.42166-0.15718 0.0767-0.15718-0.76664zm3.8396-0.42075c0.0231-0.75004 0.29451-1.1785 0.89241-1.4088 0.65649-0.25281 0.52139-0.30668-0.57256-0.2283-0.78748 0.0564-1.3583-0.0489-1.2686-0.23405 0.0898-0.18514 0.77275-0.33662 1.5177-0.33662 0.97486 0 1.3545 0.18417 1.3545 0.65712 0 0.40409-0.32206 0.65712-0.83641 0.65712-0.5962 0-0.87716 0.28307-0.97832 0.98568-0.12682 0.88084-0.13839 0.87104-0.10876-0.0922zm-2.7164-1.3154c0.53968-0.2829 0.35504-0.40104-0.85923-0.5498l-1.5466-0.18947 1.6326-0.0765c1.2487-0.0585 1.6326 0.078 1.6326 0.58059 0 0.39853-0.30432 0.645-0.77331 0.62633-0.73521-0.0293-0.73944-0.0486-0.0859-0.39111zm-26.066-2.5035c-0.5203-0.87922-0.52986-1.0173-0.07043-1.0173 0.29237 0 0.53158-0.29571 0.53158-0.65713 0-0.36141 0.15466-0.65712 0.3437-0.65712s0.3437 0.19714 0.3437 0.43808c0 0.24095 0.21563 0.43808 0.47918 0.43808 0.29196 0 0.45982 0.41608 0.42962 1.0649-0.06911 1.4847-1.2744 1.7135-2.0574 0.39051zm36.549 0.24585c0-0.26904-0.28355-0.39466-0.63011-0.27914-0.50265 0.16754-0.63011-0.0437-0.63011-1.0441 0-0.68978 0.0777-1.1551 0.17261-1.0341 0.0949 0.121 0.4558-0.10669 0.80195-0.50598 0.55194-0.63667 0.62935-0.64256 0.62935-0.0478 0 0.37298 0.25305 0.80191 0.56233 0.95319 0.52051 0.25459 0.52046 0.33401-6.9e-4 1.0681-0.30969 0.43618-0.45963 0.92491-0.3332 1.0861 0.12638 0.16115 0.0494 0.29301-0.17115 0.29301-0.22054 0-0.40098-0.22013-0.40098-0.48918zm-85.855-1.7888c-0.22684-0.28913-0.41243-0.68341-0.41243-0.87616 0-0.19276 10.208-0.35047 22.684-0.35047 22.455 0 22.684 9e-3 22.684 0.87616 0 0.86715-0.22913 0.87617-22.271 0.87617-16.864 0-22.372-0.12764-22.684-0.5257zm91.354-0.35047c0-0.86731 0.22914-0.87616 22.687-0.87616 22.601 0 22.685 3e-3 22.257 0.87616-0.4221 0.86151-0.8015 0.87617-22.687 0.87617-22.028 0-22.257-9e-3 -22.257-0.87617zm-40.629-5.476c-0.05432-0.48189 0.1719-1.2212 0.5027-1.6428 0.73626-0.93845 0.94516-0.96265 0.94516-0.10952 0 0.36142 0.21744 0.65712 0.4832 0.65712 0.38796 0 0.4071 0.20557 0.09707 1.0429-0.4845 1.3086-1.8824 1.3446-2.0281 0.0523zm32.511-0.43808c-0.22259-0.6452-0.12674-1.0999 0.36363-1.725 0.44168-0.56297 0.71172-0.6736 0.80196-0.32856 0.0748 0.28612 0.3717 0.52022 0.65972 0.52022 0.33631 0 0.44903 0.24792 0.31505 0.69295-0.11474 0.38113-0.20862 0.92325-0.20862 1.2047 0 0.88121-1.6066 0.57816-1.9317-0.36439zm-87.429-1.9714c-0.36635-0.87251-0.26138-0.87616 25.217-0.87616 25.416 0 25.584 6e-3 25.405 0.87616-0.17768 0.86605-0.46881 0.87616-25.217 0.87616-24.686 0-25.043-0.0123-25.405-0.87616zm94.058 0.58411c-0.12602-0.16063-0.22913-0.5549-0.22913-0.87616 0-0.4815 4.468-0.58411 25.433-0.58411 13.988 0 25.433 0.15771 25.433 0.35047 0 1.3538-0.87729 1.4018-25.617 1.4018-13.636 0-24.895-0.13142-25.021-0.29205zm-35.136-3.6965c-0.12053-0.24858-0.41261-0.35734-0.64906-0.24168-0.28779 0.14076-0.41832-0.21266-0.39485-1.069 0.02454-0.89489 0.17725-1.2101 0.50825-1.049 0.26025 0.12666 0.68557 6e-3 0.94516-0.269 0.37393-0.39556 0.47198-0.31371 0.47198 0.39402 0 0.49131 0.12244 0.95901 0.27209 1.0393 0.14965 0.0803 6.88e-4 0.48382-0.33116 0.89669-0.37845 0.47093-0.68492 0.58224-0.8224 0.29869zm25.627-0.61127c0-0.36142-0.26156-0.65712-0.58124-0.65712-0.51988 0-0.51434-0.0624 0.0525-0.59067 0.40354-0.37611 0.53177-0.80097 0.353-1.1696-0.20623-0.42534-0.1215-0.50111 0.3193-0.2855 0.33002 0.16142 0.83227 0.29348 1.1161 0.29348s0.44675 0.24642 0.36202 0.5476c-0.0847 0.30119-0.0229 0.87324 0.13725 1.2712 0.23303 0.57891 0.155 0.67821-0.39014 0.4965-0.37899-0.12632-0.68143-0.01-0.68143 0.26204 0 0.26905-0.15466 0.48918-0.34369 0.48918s-0.34369-0.29571-0.34369-0.65712zm-21.74-4.2557c-0.48758-0.63591-0.52594-0.94459-0.20004-1.6097 0.40994-0.83669 2.1123-1.079 1.8806-0.26768-0.06883 0.24094 0.02406 0.80686 0.20641 1.2576 0.25026 0.61859 0.22609 0.73643-0.09859 0.48067-0.24747-0.19495-0.59042-0.0703-0.8076 0.29355-0.32426 0.54323-0.46252 0.52147-0.98074-0.1544zm17.627 0.20347c-6e-3 -0.30118-0.33871-0.5476-0.73992-0.5476-0.57953 0-0.64896-0.12366-0.33777-0.60159 0.21544-0.33088 0.31-0.87301 0.21013-1.2047-0.12447-0.41343 0.0899-0.60312 0.68146-0.60312 0.47467 0 0.86304 0.23662 0.86304 0.52583s0.27066 0.72677 0.60146 0.97236c0.55518 0.41216 0.55649 0.44755 0.0171 0.45985-0.32142 7e-3 -0.74204 0.35831-0.93471 0.77996-0.19442 0.42547-0.35498 0.52295-0.36078 0.21904zm-12.28-3.0184c-0.33593-0.9073-0.30282-1.2182 0.19761-1.8561 0.49888-0.63589 0.67403-0.66674 1.0297-0.18142 0.23572 0.32164 0.57397 0.47027 0.75167 0.33028 0.17771-0.13998 0.32309-0.0574 0.32309 0.18357 0 0.24094-0.1479 0.55459-0.32868 0.697s-0.24089 0.55055-0.13358 0.90699c0.1417 0.47067 0.034 0.56927-0.39339 0.36021-0.32368-0.15831-0.69074-0.077-0.81571 0.18075-0.13304 0.27439-0.39444 0.0169-0.63073-0.62129zm5.8756 0.0216c0.079-0.26279 0.0143-0.74448-0.14378-1.0704-0.19499-0.40213-0.0489-0.74415 0.45464-1.0641 0.59894-0.3806 0.87167-0.3062 1.4147 0.38591 0.445 0.56722 0.53454 0.91611 0.26454 1.0308-0.22448 0.0954-0.40814 0.43183-0.40814 0.74768 0 0.33791-0.3551 0.54827-0.86274 0.5111-0.4745-0.0348-0.79814-0.27819-0.71919-0.54099z" fill="#b6070e"/>
  <path d="m106.55 151.51c-0.37096-0.51882-0.45769-0.92705-0.23433-1.103 0.19502-0.15363 0.28145-0.52223 0.19207-0.81912-0.10498-0.34873 0.17925-0.5398 0.80304-0.5398s0.90803 0.19107 0.80304 0.5398c-0.0894 0.29689-3e-3 0.66549 0.19208 0.81912 0.21799 0.17173 0.0946 0.61072-0.32026 1.1395-0.78898 1.0056-0.68867 1.0082-1.4356-0.0365zm-5.7694-1.0382c0-0.34134-0.18367-0.69865-0.40814-0.79403-0.26374-0.11205-0.14657-0.5068 0.33116-1.1157 0.44932-0.57271 0.82525-0.76504 0.95844-0.49035 0.12053 0.24858 0.39683 0.36506 0.614 0.25884 0.24109-0.11792 0.39486 0.29883 0.39486 1.0702 0 0.81295-0.14924 1.1903-0.41861 1.0586-0.23024-0.11262-0.51003-0.0162-0.62175 0.21419-0.30628 0.63166-0.84996 0.50266-0.84996-0.20166zm12.373 0.18253c0-0.24094-0.27066-0.43808-0.60146-0.43808-0.4079 0-0.60147-0.34277-0.60147-1.0651 0-1.3351 1.1324-1.6976 1.9532-0.62538 0.49625 0.64826 0.509 0.82915 0.0897 1.2727-0.26882 0.28437-0.40401 0.69184-0.30042 0.90548s0.0245 0.38844-0.17563 0.38844c-0.20019 0-0.36398-0.19714-0.36398-0.43808zm-17.718-3.8192c0.08785-0.29347 0.01182-0.65009-0.16896-0.7925-0.52384-0.41266-0.38146-0.83051 0.44731-1.3127 0.60284-0.35076 0.89886-0.2827 1.3596 0.31258 0.32391 0.41854 0.44666 0.87305 0.27278 1.01-0.17388 0.13698-0.23738 0.51068-0.14111 0.83044 0.12359 0.41054-0.13418 0.56734-0.87714 0.53358-0.67465-0.0307-0.99486-0.23927-0.89244-0.58139zm21.767-0.78068c-0.0686-0.48189 0.15243-1.2212 0.49115-1.6428s0.61585-0.5695 0.61585-0.32856c0 0.24095 0.32826 0.43808 0.72947 0.43808 0.60668 0 0.65806 0.10968 0.30525 0.65155-0.23333 0.35834-0.34323 0.92058-0.24424 1.2494 0.12765 0.42399-0.10397 0.58487-0.79639 0.55318-0.69002-0.0316-1.013-0.30167-1.1011-0.92086zm-25.186-4.3571c-0.98411-0.66106-0.94431-2.3102 0.06167-2.5554 0.49777-0.12129 0.79756 0.0161 0.79756 0.36553 0 0.30792 0.19333 0.65985 0.42962 0.78206 0.30574 0.15812 0.3206 0.32655 0.05153 0.5841-0.20794 0.19906-0.43994 0.5697-0.51554 0.82366-0.09633 0.32359-0.34311 0.32359-0.82485 0zm29.202-0.81228c-0.24461-0.66346-0.24461-1.2367 0-1.8399 0.29016-0.71552 0.49795-0.7964 1.1333-0.44113 0.42792 0.23927 0.71066 0.65881 0.62832 0.9323-0.0823 0.2735 0.0238 0.71843 0.23587 0.98873 0.28498 0.36323 0.20623 0.49147-0.30181 0.49147-0.37806 0-0.83432 0.18724-1.0139 0.4161-0.20619 0.26277-0.45744 0.061-0.68181-0.5476zm-26.281-7.973c0-3.7967 0.09001-4.5998 0.51554-4.5998 0.38504 0 0.5032 0.47129 0.46677 1.8618l-0.04877 1.8618-0.4923-3.5046-0.04877 2.0975c-0.04475 1.9244 0.01505 2.0905 0.72454 2.0128 0.42532-0.0466 1.1986-0.054 1.7185-0.0166 0.91004 0.0656 0.94516 0.15767 0.94516 2.4776 0 2.0936-0.08751 2.4094-0.66763 2.4094-0.53748 0-0.68823-0.35632-0.77331-1.8278-0.15113-2.6138-0.96492-2.7656-0.96492-0.18008 0 1.7158-0.09998 2.0079-0.68739 2.0079-0.64375 0-0.68739-0.29205-0.68739-4.5998zm4.468 0v-4.5998h1.338c0.87229 0 1.4069 0.22872 1.5358 0.65712 0.14707 0.48851-0.0419 0.64922-0.73654 0.62633-0.83131-0.0274-0.85855-0.0723-0.24698-0.40729 0.57604-0.31551 0.50644-0.38149-0.42962-0.40729-1.0984-0.0303-1.117 2e-3 -1.117 1.9422 0 1.9435 0.01615 1.9714 1.0796 1.8618 0.62336-0.0642 1.1438 0.12023 1.2316 0.43642 0.0901 0.32483-0.13932 0.5476-0.56406 0.5476-0.53464 0-0.71603 0.27745-0.71603 1.0952 0 0.88814 0.16939 1.0952 0.896 1.0952 0.67584 0 0.84475 0.17027 0.68739 0.69295-0.11474 0.38112-0.20862 0.7754-0.20862 0.87616 0 0.10077-0.61865 0.18321-1.3748 0.18321h-1.3748zm3.7806 0v-4.5998l1.8044 0.0437c1.3968 0.0338 1.6103 0.12044 0.94516 0.3835-0.47258 0.18691-1.2072 0.24446-1.6326 0.12788-0.71185-0.19511-0.77331-0.0556-0.77331 1.7558 0 1.6703 0.11689 2.0077 0.77331 2.2319 1.2395 0.42338 1.286 0.3686 1.3466-1.5857l0.0578-1.8618 0.13482 1.6428c0.0868 1.058 0.31095 1.6428 0.62961 1.6428 0.5696 0 0.66948 1.1249 0.13712 1.5443-0.32072 0.25265-0.24719 0.97531 0.28137 2.7655 0.12013 0.40685-0.0721 0.54086-0.62831 0.43808-0.57636-0.10649-0.90058-0.57861-1.1547-1.6814l-0.3533-1.5333-0.11738 1.6428c-0.0916 1.2823-0.26369 1.6428-0.78403 1.6428-0.6174 0-0.66664-0.33977-0.66664-4.5998zm4.6221 4.0418c-0.10042-0.33356-0.13751-2.3651-0.0824-4.5145l0.10015-3.908 1.8166-0.13296 1.8166-0.13295-0.0982 4.5138-0.0981 4.5138-1.636 0.13371c-1.1523 0.0942-1.69-0.0456-1.8186-0.47275zm2.2518-2.5085c0-1.2656 0.14321-1.7523 0.51554-1.7523 0.38044 0 0.51554-0.50703 0.51554-1.9348v-1.9349h-3.0932v1.9349c0 2.3552 0.59319 2.5771 0.78071 0.29205 0.0771-0.93945 0.15956-0.31425 0.1926 1.4603 0.0318 1.7067 0.16088 3.2345 0.28691 3.3951 0.53119 0.67706 0.80195 0.18404 0.80195-1.4603zm2.0622 0.68231c0-2.0244 0.10135-2.4356 0.60146-2.4406 0.33081-3e-3 0.94946-0.12485 1.3748-0.27013 0.56852-0.1942 0.77331-0.0766 0.77331 0.44406 0 0.41616-0.28346 0.70822-0.68738 0.70822-0.50409 0-0.68739 0.29205-0.68739 1.0952 0 0.88448 0.17016 1.0952 0.88443 1.0952 0.65666 0 0.85506 0.19744 0.77035 0.76664-0.0832 0.55923-0.50846 0.80309-1.5718 0.90135l-1.4577 0.13471zm4.1243 1.5333c0-0.66939 0.22113-0.90135 0.85924-0.90135 0.68739 0 0.85924-0.21904 0.85924-1.0952 0-0.8691-0.1732-1.0952-0.83895-1.0952-0.46143 0-0.92261-0.17252-1.0248-0.38337-0.25255-0.52084 2.5832-1.0653 2.9714-0.57045 0.1698 0.21642 0.2607 1.3574 0.20201 2.5355l-0.10671 2.142-1.4607 0.13471c-1.2794 0.11799-1.4607 0.0229-1.4607-0.76664zm-26.62-1.449c-0.14399-0.42165-0.47725-0.76664-0.74058-0.76664-0.26332 0-0.47877-0.19714-0.47877-0.43808 0-0.24095 0.15466-0.43808 0.34369-0.43808 0.18903 0 0.3437-0.41841 0.3437-0.92981 0-0.76438 0.08904-0.83561 0.50049-0.40036 0.27526 0.29119 0.64424 0.41619 0.81994 0.27778 0.1757-0.1384 0.39302 0.2389 0.48294 0.83845 0.10574 0.70504 0.0071 1.0901-0.27919 1.0901-0.24347 0-0.50742 0.34499-0.58654 0.76664-0.13701 0.73013-0.15633 0.73013-0.40567 0zm34.525-0.74619c0-0.25219-0.24854-0.45853-0.55231-0.45853-0.36244 0-0.48059-0.23823-0.3437-0.69295 0.11474-0.38113 0.20862-0.85099 0.20862-1.0441 0-0.19315 0.35709-0.43819 0.79352-0.54453 0.56416-0.13747 0.89325 0.076 1.1385 0.73847 0.28138 0.75997 0.19841 1.0728-0.44983 1.696-0.43716 0.42031-0.79483 0.55785-0.79483 0.30566zm-26.757-4.0727c-0.03936-1.5869 0.07077-2.0809 0.46392-2.0809 0.38645 0 0.50108 0.46619 0.45777 1.8618l-0.05778 1.8618-0.35749-3.5046-0.4548 3.9427zm6.5583 0.5476c0-0.8433 0.0707-1.1883 0.15719-0.76664 0.0864 0.42165 0.0864 1.1116 0 1.5333-0.0864 0.42166-0.15719 0.0767-0.15719-0.76664zm9.2798 0c0-0.8433 0.0707-1.1883 0.15718-0.76664 0.0865 0.42165 0.0865 1.1116 0 1.5333-0.0864 0.42166-0.15718 0.0767-0.15718-0.76664zm3.8396-0.42075c0.0231-0.75004 0.29451-1.1785 0.89241-1.4088 0.65649-0.25281 0.52139-0.30668-0.57256-0.2283-0.78748 0.0564-1.3583-0.0489-1.2686-0.23405 0.0898-0.18514 0.77275-0.33662 1.5177-0.33662 0.97486 0 1.3545 0.18417 1.3545 0.65712 0 0.40409-0.32206 0.65712-0.83641 0.65712-0.5962 0-0.87716 0.28307-0.97832 0.98568-0.12682 0.88084-0.13839 0.87104-0.10876-0.0922zm-2.7164-1.3154c0.53968-0.2829 0.35504-0.40104-0.85923-0.5498l-1.5466-0.18947 1.6326-0.0765c1.2487-0.0585 1.6326 0.078 1.6326 0.58059 0 0.39853-0.30432 0.645-0.77331 0.62633-0.73521-0.0293-0.73944-0.0486-0.0859-0.39111zm-26.066-2.5035c-0.5203-0.87922-0.52986-1.0173-0.07043-1.0173 0.29237 0 0.53158-0.29571 0.53158-0.65713 0-0.36141 0.15466-0.65712 0.3437-0.65712s0.3437 0.19714 0.3437 0.43808c0 0.24095 0.21563 0.43808 0.47918 0.43808 0.29196 0 0.45982 0.41608 0.42962 1.0649-0.06911 1.4847-1.2744 1.7135-2.0574 0.39051zm36.549 0.24585c0-0.26904-0.28355-0.39466-0.63011-0.27914-0.50265 0.16754-0.63011-0.0437-0.63011-1.0441 0-0.68978 0.0777-1.1551 0.17261-1.0341 0.0949 0.121 0.4558-0.10669 0.80195-0.50598 0.55194-0.63667 0.62935-0.64256 0.62935-0.0478 0 0.37298 0.25305 0.80191 0.56233 0.95319 0.52051 0.25459 0.52046 0.33401-6.9e-4 1.0681-0.30969 0.43618-0.45963 0.92491-0.3332 1.0861 0.12638 0.16115 0.0494 0.29301-0.17115 0.29301-0.22054 0-0.40098-0.22013-0.40098-0.48918zm-35.13-7.6153c-0.05432-0.48189 0.1719-1.2212 0.5027-1.6428 0.73626-0.93845 0.94516-0.96265 0.94516-0.10952 0 0.36142 0.21744 0.65712 0.4832 0.65712 0.38796 0 0.4071 0.20557 0.09707 1.0429-0.4845 1.3086-1.8824 1.3446-2.0281 0.0523zm32.511-0.43808c-0.22259-0.6452-0.12674-1.0999 0.36363-1.725 0.44168-0.56297 0.71172-0.6736 0.80196-0.32856 0.0748 0.28612 0.3717 0.52022 0.65972 0.52022 0.33631 0 0.44903 0.24792 0.31505 0.69295-0.11474 0.38113-0.20862 0.92325-0.20862 1.2047 0 0.88121-1.6066 0.57816-1.9317-0.36439zm-28.507-5.0838c-0.12053-0.24858-0.41261-0.35734-0.64906-0.24168-0.28779 0.14076-0.41832-0.21266-0.39485-1.069 0.02454-0.89489 0.17725-1.2101 0.50825-1.049 0.26025 0.12666 0.68557 6e-3 0.94516-0.269 0.37393-0.39556 0.47198-0.31371 0.47198 0.39402 0 0.49131 0.12244 0.95901 0.27209 1.0393 0.14965 0.0803 6.88e-4 0.48382-0.33116 0.89669-0.37845 0.47093-0.68492 0.58224-0.8224 0.29869zm25.627-0.61127c0-0.36142-0.26156-0.65712-0.58124-0.65712-0.51988 0-0.51434-0.0624 0.0525-0.59067 0.40354-0.37611 0.53177-0.80097 0.353-1.1696-0.20623-0.42534-0.1215-0.50111 0.3193-0.2855 0.33002 0.16142 0.83227 0.29348 1.1161 0.29348s0.44675 0.24642 0.36202 0.5476c-0.0847 0.30119-0.0229 0.87324 0.13725 1.2712 0.23303 0.57891 0.155 0.67821-0.39014 0.4965-0.37899-0.12632-0.68143-0.01-0.68143 0.26204 0 0.26905-0.15466 0.48918-0.34369 0.48918s-0.34369-0.29571-0.34369-0.65712zm-21.74-4.2557c-0.48758-0.63591-0.52594-0.94459-0.20004-1.6097 0.40994-0.83669 2.1123-1.079 1.8806-0.26768-0.06883 0.24094 0.02406 0.80686 0.20641 1.2576 0.25026 0.61859 0.22609 0.73643-0.09859 0.48067-0.24747-0.19495-0.59042-0.0703-0.8076 0.29355-0.32426 0.54323-0.46252 0.52147-0.98074-0.1544zm17.627 0.20347c-6e-3 -0.30118-0.33871-0.5476-0.73992-0.5476-0.57953 0-0.64896-0.12366-0.33777-0.60159 0.21544-0.33088 0.31-0.87301 0.21013-1.2047-0.12447-0.41343 0.0899-0.60312 0.68146-0.60312 0.47467 0 0.86304 0.23662 0.86304 0.52583s0.27066 0.72677 0.60146 0.97236c0.55518 0.41216 0.55649 0.44755 0.0171 0.45985-0.32142 7e-3 -0.74204 0.35831-0.93471 0.77996-0.19442 0.42547-0.35498 0.52295-0.36078 0.21904zm-12.28-3.0184c-0.33593-0.9073-0.30282-1.2182 0.19761-1.8561 0.49888-0.63589 0.67403-0.66674 1.0297-0.18142 0.23572 0.32164 0.57397 0.47027 0.75167 0.33028 0.17771-0.13998 0.32309-0.0574 0.32309 0.18357 0 0.24094-0.1479 0.55459-0.32868 0.697s-0.24089 0.55055-0.13358 0.90699c0.1417 0.47067 0.034 0.56927-0.39339 0.36021-0.32368-0.15831-0.69074-0.077-0.81571 0.18075-0.13304 0.27439-0.39444 0.0169-0.63073-0.62129zm5.8756 0.0216c0.079-0.26279 0.0143-0.74448-0.14378-1.0704-0.19499-0.40213-0.0489-0.74415 0.45464-1.0641 0.59894-0.3806 0.87167-0.3062 1.4147 0.38591 0.445 0.56722 0.53454 0.91611 0.26454 1.0308-0.22448 0.0954-0.40814 0.43183-0.40814 0.74768 0 0.33791-0.3551 0.54827-0.86274 0.5111-0.4745-0.0348-0.79814-0.27819-0.71919-0.54099z" fill="#15214d"/>
  <path d="m106.97 151.53c0-0.24094-0.27066-0.45364-0.60147-0.47267-0.35931-0.0207-0.4285-0.12354-0.17184-0.25554 0.23629-0.12153 0.42961-0.45829 0.42961-0.74835s0.30933-0.55709 0.68739-0.59339c0.37807-0.0363 0.68739 0.20102 0.68739 0.52739 0 0.32636 0.19333 0.69282 0.42962 0.81435 0.25665 0.132 0.18747 0.23488-0.17185 0.25554-0.3308 0.019-0.60146 0.23173-0.60146 0.47267 0 0.24095-0.15467 0.43808-0.3437 0.43808s-0.34369-0.19713-0.34369-0.43808zm0.68739-0.87616c0-0.24094-0.15467-0.43808-0.3437-0.43808s-0.34369 0.19714-0.34369 0.43808 0.15466 0.43808 0.34369 0.43808 0.3437-0.19714 0.3437-0.43808zm-6.8466-0.54518c-0.33192-0.67743-0.35309-0.99571-0.0741-1.1142 0.21478-0.0913 0.40273-0.49449 0.41765-0.89606 0.0169-0.45532 0.0924-0.52402 0.20049-0.18253 0.0953 0.30118 0.40158 0.5476 0.68054 0.5476 0.27895 0 0.40741 0.20577 0.28546 0.45727-0.12194 0.2515-0.0319 0.74885 0.20018 1.1052 0.35029 0.53799 0.32026 0.59825-0.17695 0.35505-0.32936-0.1611-0.70454-0.0749-0.83373 0.19154-0.15029 0.30995-0.40225 0.14287-0.69953-0.46387zm0.91782-1.0247c-0.32753-0.41747-0.98417 0.25873-0.74008 0.76213 0.14508 0.29921 0.33732 0.29165 0.58416-0.023 0.20235-0.25792 0.27252-0.59054 0.15592-0.73916zm10.731 1.129c-0.59537-0.17914-0.71306-0.35627-0.40039-0.60258 0.36096-0.28435 0.36032-0.47831-3e-3 -1.049-0.37845-0.59367-0.36122-0.65956 0.11327-0.43331 0.30777 0.14676 0.69443 0.11467 0.85924-0.0713 0.16481-0.18598 0.53165-0.0227 0.81519 0.36279 0.45844 0.62329 0.45705 0.77549-0.0125 1.374-0.33032 0.42103-0.84386 0.57808-1.3713 0.41937zm1.0917-1.0925c0-0.2289-0.16626-0.48682-0.36947-0.57316-0.20321-0.0863-0.36947 0.17158-0.36947 0.57316 0 0.40157 0.16626 0.65949 0.36947 0.57315 0.20321-0.0863 0.36947-0.34425 0.36947-0.57315zm-18.013-2.3055c0.0916-0.30425-0.04409-0.88422-0.30153-1.2888-0.39737-0.62452-0.3953-0.67974 0.01368-0.36557 0.31897 0.24501 0.63835 0.0971 0.94516-0.43772 0.41449-0.72252 0.4634-0.72958 0.4634-0.0669 0 0.41096 0.26782 0.74384 0.60146 0.74756 0.48143 5e-3 0.50573 0.084 0.12176 0.39387-0.26383 0.21294-0.39952 0.65348-0.30153 0.97897 0.12297 0.40847-0.11415 0.59182-0.76539 0.59182-0.61872 0-0.88623-0.19045-0.77703-0.55318zm1.1207-0.98011c0-0.24094-0.15466-0.43808-0.34369-0.43808s-0.3437 0.19714-0.3437 0.43808c0 0.24095 0.15466 0.43808 0.3437 0.43808s0.34369-0.19713 0.34369-0.43808zm20.775 0.56164c0.0884-0.29347 0.0184-0.64565-0.15551-0.78263-0.17388-0.13697-0.0511-0.58684 0.27278-0.99971 0.52394-0.66782 0.64741-0.67815 1.1189-0.0935 0.78989 0.97949 0.4591 2.4094-0.55737 2.4094-0.51854 0-0.77799-0.20395-0.67876-0.53356zm1.2218-0.99972c0-0.24094-0.232-0.43808-0.51555-0.43808-0.28354 0-0.51554 0.19714-0.51554 0.43808 0 0.24095 0.232 0.43808 0.51554 0.43808 0.28355 0 0.51555-0.19713 0.51555-0.43808zm-26.636-3.7076c-0.73832-0.48776-1.047-2.6111-0.32854-2.2596 0.22914 0.11208 0.59013-0.0174 0.8022-0.28769 0.28497-0.36323 0.38558-0.30667 0.38558 0.21677 0 0.38953 0.12435 0.77394 0.27633 0.85426 0.15198 0.0803 0.11332 0.54751-0.08592 1.0382-0.29348 0.72281-0.49276 0.80598-1.0496 0.43808zm0.85924-1.1371c0-0.22672-0.23199-0.41222-0.51554-0.41222-0.53149 0-0.68282 0.51691-0.29576 1.0103 0.27459 0.35 0.8113-0.0456 0.8113-0.59805zm28.424 0.01c-0.31785-0.47316-0.42475-0.86029-0.23757-0.86029s0.34033-0.26836 0.34033-0.59637c0-0.38229 0.2776-0.52866 0.77332-0.40774 0.53661 0.13089 0.78891 0.52326 0.82427 1.2819 0.028 0.60132-0.0351 0.98365-0.14023 0.84963-0.10515-0.13403-0.36916-0.0554-0.5867 0.17472-0.26538 0.28073-0.58568 0.13533-0.97342-0.44188zm1.1338-0.34919c0-0.57041-0.40858-0.94977-0.74094-0.68796-0.35545 0.28002-0.049 1.053 0.41753 1.053 0.17787 0 0.32341-0.16428 0.32341-0.36507zm-27.496-5.0014-2.13e-4 -2.2999 1.6876 0.14912 1.6876 0.14913 0.117 2.1511c0.09864 1.8135 0.02262 2.151-0.48447 2.1508-0.48369-2.1e-4 -0.60146-0.3863-0.60146-1.9716 0-1.6793-0.10184-1.9714-0.68739-1.9714-0.58555 0-0.68739 0.29205-0.68739 1.9714 0 1.4603-0.13366 1.9714-0.51554 1.9714-0.39277 0-0.51559-0.54772-0.51576-2.2999zm0.58699-0.87106c-0.08221-0.54493-0.15259-0.20224-0.15641 0.76154-0.0038 0.96378 0.06345 1.4096 0.14947 0.99079 0.08602-0.41885 0.08914-1.2074 0.0069-1.7523zm2.4059 0c-0.08221-0.54493-0.15259-0.20224-0.15641 0.76154-0.0038 0.96378 0.06345 1.4096 0.14947 0.99079 0.08602-0.41885 0.08914-1.2074 0.0069-1.7523zm1.4754 0.85948v-2.3115l1.4607 0.20937c0.89764 0.12867 1.1626 0.27152 0.68739 0.37061-0.59725 0.12452-0.77331 0.45351-0.77331 1.445 0 1.7423-0.60982 1.6332-0.78246-0.13999-0.13487-1.3852-0.14011-1.3788-0.19362 0.23889l-0.055 1.6626 1.2029-0.28764c0.97044-0.23206 1.2029-0.15122 1.2029 0.41823 0 0.53146-0.33968 0.70587-1.3748 0.70587h-1.3748zm3.7802 0.0116-3.4e-4 -2.2999 1.8908 0.15006c1.9218 0.15252 2.1952 0.38195 1.5044 1.2624-0.28031 0.3573-0.28522 0.86243-0.0179 1.8399 0.32838 1.2012 0.29642 1.3474-0.29458 1.3474-0.43967 0-0.7386-0.40577-0.88752-1.2047-0.23724-1.2728-1.0722-2.738-1.5603-2.738-0.15973 0-0.27213 0.73926-0.24976 1.6428 0.0405 1.635 0.0419 1.6366 0.30303 0.32856 0.26112-1.308 0.26255-1.3064 0.30303 0.32856 0.0295 1.1912-0.10104 1.6428-0.47488 1.6428-0.39273 0-0.51565-0.54786-0.51601-2.2999zm2.8686 0.74775c-0.11194-0.37181-0.27724-0.58206-0.36733-0.46723-0.0901 0.11483-0.0619 0.41904 0.0627 0.67602 0.3389 0.69894 0.53699 0.56315 0.30459-0.20879zm0.22509-2.2184c0-0.0947-0.232-0.17217-0.51554-0.17217-0.28355 0-0.51555 0.19095-0.51555 0.42433s0.232 0.31086 0.51555 0.17217c0.28354-0.13869 0.51554-0.32964 0.51554-0.42433zm1.8044 3.4908c-0.25145-0.1354-0.42962-1.0338-0.42962-2.1662 0-1.6428 0.10376-1.9348 0.68739-1.9348 0.55862 0 0.68739 0.29205 0.68739 1.5591 0 0.92787-0.13916 1.4495-0.3437 1.2884-0.18903-0.14891-0.34369-0.10792-0.34369 0.0911 0 0.19901 0.65731 0.3727 1.4607 0.38598 0.80339 0.0133 1.19-0.0538 0.85924-0.14906-0.91749-0.26421-0.83249-2.9963 0.10292-3.3081 0.65189-0.21729 0.69672-0.066 0.60146 2.0298l-0.10292 2.2646-1.3748 0.0853c-0.75613 0.0469-1.5681-0.0188-1.8044-0.14603zm4.2077-1.8737 2e-3 -2.1535 1.2888-0.15801c0.70887-0.0869 1.2889-5e-3 1.2889 0.18213 1.4e-4 0.18707-0.30918 0.34014-0.68724 0.34014-0.53711 0-0.69729 0.31127-0.73264 1.4238l-0.0452 1.4238-0.50642-3.0666-0.0452 1.6153c-0.0451 1.6109-0.042 1.6146 1.1646 1.365 1.0216-0.21131 1.1763-0.13886 0.99431 0.46562-0.14497 0.48154-0.62622 0.71587-1.4702 0.71587h-1.2546l2e-3 -2.1535zm3.955 1.4655c0-0.60207 0.2254-0.69427 1.2029-0.49207 0.70037 0.14486 1.2029 0.0665 1.2029-0.18758 0-0.24001-0.13789-0.32777-0.30642-0.19501s-0.36946-0.44701-0.44653-1.2884c-0.12069-1.3177-0.0403-1.5298 0.57999-1.5298 0.65627 0 0.70346 0.18444 0.53245 2.0809-0.18386 2.0388-0.21369 2.0836-1.4765 2.2168-1.0233 0.10795-1.2889-0.0167-1.2889-0.60492zm-26.899-2.1338c-0.41689-0.39179-0.52443-0.82769-0.34369-1.3932 0.28728-0.89878 1.949-1.2604 1.6796-0.36556-0.08793 0.29207 0.01364 0.7522 0.2257 1.0225 0.28497 0.36323 0.2406 0.49147-0.17006 0.49147-0.3056 0-0.60719 0.18336-0.6702 0.40746-0.06301 0.22411-0.3876 0.15088-0.7213-0.16272zm0.93575-0.65255c0.25418-0.52421-0.39237-1.0436-0.85016-0.68298-0.38437 0.3028-0.13204 1.0908 0.3493 1.0908 0.16672 0 0.39211-0.18352 0.50086-0.40781zm33.452-0.0985c-0.34487-0.4544-0.44937-0.88592-0.25217-1.0413 0.18523-0.14591 0.23154-0.4823 0.10293-0.74754-0.14676-0.30269-0.0365-0.38573 0.29621-0.22301 0.29152 0.14259 0.72624 0.0282 0.96604-0.25411 0.3312-0.38997 0.38181-0.39023 0.21057-1e-3 -0.12399 0.28176 0.019 0.82388 0.31782 1.2047 0.47747 0.60859 0.47992 0.69244 0.0203 0.69244-0.28766 0-0.6467 0.25781-0.79787 0.57292-0.21733 0.45303-0.39808 0.41054-0.86378-0.20307zm1.0185-1.0635c-0.32753-0.41747-0.98417 0.25873-0.74008 0.76213 0.14508 0.29921 0.33732 0.29165 0.58416-0.023 0.20235-0.25792 0.27252-0.59055 0.15592-0.73916zm-8.5064 0.25561c-0.30976-0.25517-0.35216-0.42735-0.1062-0.43138 0.22513-4e-3 0.50492 0.19043 0.62175 0.43138 0.26371 0.54388 0.14473 0.54388-0.51555 0zm-27.496-5.79c0-0.38953-0.19333-0.82323-0.42962-0.96378-0.34369-0.20443-0.34369-0.30665 0-0.51109 0.23629-0.14055 0.42962-0.51628 0.42962-0.83495 0-0.44663 0.1772-0.4728 0.77331-0.11423 0.78617 0.4729 1.1559 2.7158 0.38558 2.339-0.21326-0.1043-0.56125 0.0315-0.77331 0.30182-0.28498 0.36323-0.38558 0.30667-0.38558-0.21677zm0.85924-1.6574c-0.16629-0.34295-0.364-0.3684-0.59313-0.0763-0.18903 0.24095-0.23145 0.66957-0.09426 0.95251 0.16629 0.34294 0.364 0.36839 0.59313 0.0763 0.18903-0.24095 0.23145-0.66957 0.09426-0.9525zm34.859 0.90884c-0.68785-0.35344-0.64665-1.4275 0.0895-2.3326 0.49741-0.61157 0.62353-0.63812 0.62353-0.13129 0 0.34945 0.20227 0.79301 0.44949 0.98569 0.60794 0.47383-0.46415 1.837-1.1625 1.4782zm0.76459-1.1279c0-0.22889-0.16626-0.48681-0.36947-0.57315-0.20321-0.0863-0.36947 0.17158-0.36947 0.57315 0 0.40158 0.16626 0.6595 0.36947 0.57316 0.20321-0.0863 0.36947-0.34426 0.36947-0.57316zm-35.553-6.2426c-0.09093-0.6063 0.02124-0.98569 0.29141-0.98569 0.24158 0 0.49079-0.18335 0.5538-0.40746 0.06301-0.22411 0.42314-0.11775 0.80028 0.23634 0.55214 0.51839 0.59377 0.71623 0.21374 1.0156-0.25958 0.2045-0.3896 0.5417-0.28892 0.74935 0.10068 0.20764-0.17819 0.37754-0.61971 0.37754-0.55958 0-0.84756-0.29861-0.9506-0.98568zm1.3894-0.80321c-0.32752-0.41747-0.98417 0.25873-0.74008 0.76213 0.14508 0.29921 0.33732 0.29165 0.58416-0.023 0.20235-0.25792 0.27252-0.59055 0.15592-0.73916zm31.362 0.81781c0-0.51-0.19333-1.0267-0.42962-1.1482-0.25665-0.132-0.18747-0.23489 0.17185-0.25555 0.3308-0.019 0.60146-0.31174 0.60146-0.65049 0-0.49668 0.16041-0.51941 0.82867-0.11744 0.62319 0.37487 0.75403 0.67625 0.52764 1.2154-0.16557 0.39432-0.19049 0.87285-0.0554 1.0634 0.13512 0.19054-6e-3 0.23186-0.31391 0.0918-0.30777-0.14003-0.73309-0.0334-0.94516 0.23686-0.28497 0.36323-0.38557 0.24952-0.38557-0.43581zm1.0569-1.1208c-0.0425-0.52381-0.51392-0.42237-0.66161 0.14238-0.0756 0.28913 0.0481 0.44684 0.27495 0.35046 0.22684-0.0964 0.40084-0.31815 0.38666-0.49284zm-30.099-4.459c-0.81015-0.54038-1.0366-2.6103-0.2431-2.2222 0.27614 0.13506 0.74415-4e-3 1.04-0.30959 0.44436-0.45857 0.48744-0.44832 0.24762 0.0589-0.19222 0.40656-0.07618 0.81366 0.34341 1.2047 0.54004 0.50334 0.55153 0.59067 0.07771 0.59067-0.30582 0-0.60604 0.2556-0.66716 0.56801-0.08314 0.42496-0.28425 0.45254-0.79851 0.10952zm0.77326-1.3712c-0.32752-0.41747-0.98417 0.25873-0.74008 0.76213 0.14508 0.29921 0.33732 0.29165 0.58416-0.023 0.20235-0.25792 0.27252-0.59054 0.15592-0.73916zm25.131 0.52356c-0.4099-0.39464-0.42845-0.68127-0.0979-1.5114 0.23476-0.58951 0.50217-0.83011 0.62988-0.56673 0.12206 0.25173 0.4103 0.36556 0.64054 0.25295 0.2591-0.12673 0.41861 0.20586 0.41861 0.87284 0 1.2112-0.81544 1.6992-1.5912 0.95237zm1.0756-0.73189c0-0.22672-0.23199-0.41222-0.51554-0.41222-0.5315 0-0.68282 0.51691-0.29576 1.0103 0.27459 0.35 0.8113-0.0456 0.8113-0.59805zm-22.83-3.5481c-0.36388-0.44379-0.47988-0.80689-0.25777-0.80689 0.22211 0 0.40383-0.24642 0.40383-0.5476s0.36789-0.5476 0.81753-0.5476c0.62279 0 0.807 0.22593 0.77331 0.94847-0.06705 1.4383-0.94448 1.9201-1.7369 0.95362zm1.0912-1.0625c-0.32752-0.41747-0.98417 0.25873-0.74008 0.76213 0.14508 0.29921 0.33732 0.29165 0.58416-0.023 0.20235-0.25792 0.27252-0.59054 0.15592-0.73916zm16.24 1.1237c-0.7718-1.0334-0.70348-2.0763 0.14962-2.2842 0.53112-0.12942 0.86009 0.11449 1.1271 0.83568 0.29502 0.79681 0.27741 1.0184-0.0809 1.0184-0.2519 0-0.50801 0.25206-0.56913 0.56014-0.0834 0.42067-0.2395 0.38827-0.62667-0.13011zm0.71317-0.98858c-0.0425-0.52382-0.51392-0.42237-0.66161 0.14237-0.0756 0.28914 0.0481 0.44685 0.27495 0.35047 0.22684-0.0964 0.40084-0.31816 0.38666-0.49284zm-12.399-1.5223c0-0.30118-0.19333-0.55387-0.42962-0.56154-0.26237-8e-3 -0.19548-0.24048 0.17185-0.59589 0.3308-0.32008 0.60146-0.80665 0.60146-1.0813s0.27066-0.15432 0.60147 0.26733c0.87976 1.1214 0.78441 2.519-0.17185 2.519-0.42532 0-0.77331-0.24642-0.77331-0.5476zm1.0311-0.76664c0-0.36142-0.14553-0.65712-0.32341-0.65712-0.43339 0-0.74379 0.6841-0.4692 1.0341 0.38706 0.49336 0.79261 0.30048 0.79261-0.37697zm5.699 1.1531c-0.12206-0.25173-0.47434-0.33424-0.78284-0.18334-0.38427 0.18795-0.47973 0.1069-0.30311-0.25737 0.14181-0.29244 0.0709-0.81878-0.15754-1.1696-0.34057-0.52305-0.28916-0.63794 0.28546-0.63794 0.38546 0 0.77884-0.24642 0.87419-0.5476 0.10754-0.33969 0.18365-0.26872 0.20049 0.18692 0.0149 0.40399 0.22767 0.79826 0.47276 0.87616 0.3527 0.1121 0.36085 0.3553 0.0391 1.1661-0.23389 0.58932-0.50082 0.83003-0.62849 0.56673zm0.17946-1.5019c-0.44113-0.56227-0.88847-0.12771-0.56189 0.54584 0.12651 0.2609 0.38746 0.35034 0.57991 0.19874 0.23474-0.18492 0.22881-0.42996-0.018-0.74458z" fill="#010429"/>
 </g>
</svg>
