<svg xmlns="http://www.w3.org/2000/svg" xmlns:xlink="http://www.w3.org/1999/xlink" width="126" height="92" viewBox="0 0 126 92"><defs><path id="1w5ya" d="M262 6271.231c0-8.412 6.82-15.231 15.231-15.231h101.244a7.615 7.615 0 0 1 7.615 7.615v49.144c0 8.412-6.82 15.231-15.231 15.231H269.615a7.615 7.615 0 0 1-7.615-7.615z"/><path id="1w5yb" d="M262 6223.631c0-8.412 6.82-15.231 15.231-15.231h101.244a7.615 7.615 0 0 1 7.615 7.615v49.144c0 8.412-6.82 15.231-15.231 15.231H269.615a7.615 7.615 0 0 1-7.615-7.615z"/><path id="1w5yc" d="M262 6291.221c0-8.412 6.82-15.231 15.231-15.231h101.244a7.615 7.615 0 0 1 7.615 7.615v49.144c0 8.412-6.82 15.231-15.231 15.231H269.615a7.615 7.615 0 0 1-7.615-7.615z"/><linearGradient id="1w5yd" x1="311.63" x2="334.2" y1="6311.98" y2="6311.98" gradientUnits="userSpaceOnUse"><stop offset="0" stop-color="#6671df"/><stop offset="1" stop-color="#414ecb"/></linearGradient><mask id="1w5yf" width="2" height="2" x="-1" y="-1"><path fill="#fff" d="M262 6256h125v72H262z"/><use xlink:href="#1w5ya"/></mask><filter id="1w5ye" width="146" height="93" x="251" y="6246" filterUnits="userSpaceOnUse"><feOffset dx="-1" dy="1" in="SourceGraphic" result="FeOffset1074Out"/><feGaussianBlur in="FeOffset1074Out" result="FeGaussianBlur1075Out" stdDeviation="0 0"/></filter><mask id="1w5yi" width="2" height="2" x="-1" y="-1"><path fill="#fff" d="M262 6208h125v73H262z"/><use xlink:href="#1w5yb"/></mask><filter id="1w5yh" width="176" height="135" x="240" y="6186" filterUnits="userSpaceOnUse"><feOffset dx="7" dy="18" in="SourceGraphic" result="FeOffset1090Out"/><feGaussianBlur in="FeOffset1090Out" result="FeGaussianBlur1091Out" stdDeviation="4.8 4.8"/></filter><clipPath id="1w5yg"><use xlink:href="#1w5ya"/></clipPath></defs><g><g transform="translate(-261 -6256)"><use fill="url(#1w5yd)" xlink:href="#1w5yc"/></g><g transform="translate(-261 -6256)"><g filter="url(#1w5ye)"><use fill="none" stroke-opacity=".09" stroke-width="0" mask="url(&quot;#1w5yf&quot;)" xlink:href="#1w5ya"/><use fill="#fff" fill-opacity=".09" xlink:href="#1w5ya"/></g><use fill="#414ecc" xlink:href="#1w5ya"/></g><g clip-path="url(#1w5yg)" transform="translate(-261 -6256)"><g filter="url(#1w5yh)"><use fill="none" stroke-width="0" mask="url(&quot;#1w5yi&quot;)" xlink:href="#1w5yb"/><use fill="#2f3a9c" xlink:href="#1w5yb"/></g></g></g></svg>