<svg xmlns="http://www.w3.org/2000/svg" xmlns:xlink="http://www.w3.org/1999/xlink" width="126" height="91" viewBox="0 0 126 91"><defs><path id="1f4qa" d="M262 6352.231c0-8.412 6.82-15.231 15.231-15.231h101.244a7.615 7.615 0 0 1 7.615 7.615v49.144c0 8.412-6.82 15.231-15.231 15.231H269.615a7.615 7.615 0 0 1-7.615-7.615z"/><path id="1f4qb" d="M262 6304.631c0-8.412 6.82-15.231 15.231-15.231h101.244a7.615 7.615 0 0 1 7.615 7.615v49.144c0 8.412-6.82 15.231-15.231 15.231H269.615a7.615 7.615 0 0 1-7.615-7.615z"/><path id="1f4qc" d="M262 6372.231c0-8.412 6.82-15.231 15.231-15.231h101.244a7.615 7.615 0 0 1 7.615 7.615v48.134c0 8.412-6.82 15.231-15.231 15.231H269.615a7.615 7.615 0 0 1-7.615-7.615z"/><linearGradient id="1f4qd" x1="311.67" x2="334.17" y1="6392.49" y2="6392.49" gradientUnits="userSpaceOnUse"><stop offset="0" stop-color="#e0e3ff"/><stop offset="1" stop-color="#cbcef4"/></linearGradient><mask id="1f4qf" width="2" height="2" x="-1" y="-1"><path fill="#fff" d="M262 6337h125v72H262z"/><use xlink:href="#1f4qa"/></mask><filter id="1f4qe" width="146" height="93" x="251" y="6327" filterUnits="userSpaceOnUse"><feOffset dx="-1" dy="1" in="SourceGraphic" result="FeOffset1031Out"/><feGaussianBlur in="FeOffset1031Out" result="FeGaussianBlur1032Out" stdDeviation="0 0"/></filter><mask id="1f4qi" width="2" height="2" x="-1" y="-1"><path fill="#fff" d="M262 6289h125v73H262z"/><use xlink:href="#1f4qb"/></mask><filter id="1f4qh" width="176" height="135" x="240" y="6267" filterUnits="userSpaceOnUse"><feOffset dx="7" dy="18" in="SourceGraphic" result="FeOffset1047Out"/><feGaussianBlur in="FeOffset1047Out" result="FeGaussianBlur1048Out" stdDeviation="4.8 4.8"/></filter><clipPath id="1f4qg"><use xlink:href="#1f4qa"/></clipPath></defs><g><g transform="translate(-261 -6337)"><use fill="url(#1f4qd)" xlink:href="#1f4qc"/></g><g transform="translate(-261 -6337)"><g filter="url(#1f4qe)"><use fill="none" stroke-opacity=".33" stroke-width="0" mask="url(&quot;#1f4qf&quot;)" xlink:href="#1f4qa"/><use fill="#fff" fill-opacity=".33" xlink:href="#1f4qa"/></g><use fill="#d8dcff" xlink:href="#1f4qa"/></g><g clip-path="url(#1f4qg)" transform="translate(-261 -6337)"><g filter="url(#1f4qh)"><use fill="none" stroke-width="0" mask="url(&quot;#1f4qi&quot;)" xlink:href="#1f4qb"/><use fill="#c2c7f2" xlink:href="#1f4qb"/></g></g></g></svg>