<?xml version="1.0" standalone="no"?>
<!DOCTYPE svg PUBLIC "-//W3C//DTD SVG 1.1//EN" "http://www.w3.org/Graphics/SVG/1.1/DTD/svg11.dtd" >
<svg>
<metadata>
Created by FontForge 20120731 at Mon May 28 06:49:54 2018
 By www
Copyright (c) 2015 by Luciano Vergara. All rights reserved.
</metadata>
<defs>
<font id="NordikkaW00-Bold" horiz-adv-x="506" >
  <font-face 
    font-family="NordikkaW00-Bold"
    font-weight="700"
    font-stretch="normal"
    units-per-em="1000"
    panose-1="2 0 0 0 0 0 0 0 0 0"
    ascent="800"
    descent="-200"
    x-height="560"
    cap-height="700"
    bbox="-69 -244 1427 930"
    underline-thickness="50"
    underline-position="-125"
    unicode-range="U+0020-FB02"
  />
<missing-glyph horiz-adv-x="449" 
d="M143 615v-530h163v530h-163zM42 700h365v-700h-365v700z" />
    <glyph glyph-name=".notdef" horiz-adv-x="449" 
d="M143 615v-530h163v530h-163zM42 700h365v-700h-365v700z" />
    <glyph glyph-name=".null" horiz-adv-x="0" 
 />
    <glyph glyph-name="nonmarkingreturn" horiz-adv-x="333" 
 />
    <glyph glyph-name="space" unicode=" " horiz-adv-x="210" 
 />
    <glyph glyph-name="exclam" unicode="!" horiz-adv-x="245" 
d="M61 522v178h124v-178l-11 -336h-103zM193 57q0 -35 -19.5 -51t-51.5 -16q-31 0 -49.5 16t-18.5 51q0 32 18.5 48t49.5 16q32 0 51.5 -16t19.5 -48z" />
    <glyph glyph-name="quotedbl" unicode="&#x22;" horiz-adv-x="306" 
d="M29 750h110l-15 -199h-83zM168 750h111l-14 -199h-83z" />
    <glyph glyph-name="numbersign" unicode="#" horiz-adv-x="580" 
d="M92 189h-83l22 99h81l23 124h-83l22 98h82l35 190h114l-37 -190h104l35 190h113l-35 -190h85l-22 -98h-84l-23 -124h86l-22 -99h-84l-35 -189h-114l36 189h-103l-36 -189h-113zM329 288l22 124h-103l-22 -124h103z" />
    <glyph glyph-name="dollar" unicode="$" horiz-adv-x="468" 
d="M303 220q0 22 -8.5 35.5t-24 22.5t-37 15.5t-46.5 13.5q-29 8 -55 20.5t-46 33t-31.5 49.5t-11.5 71q0 69 38.5 110.5t120.5 47.5v160h82v-163q62 -8 107 -31v-93q-44 17 -79.5 24.5t-75.5 7.5q-68 0 -68 -62q0 -21 8.5 -34.5t23.5 -23.5t36 -16.5t45 -13.5
q29 -8 55.5 -19.5t46.5 -30.5t32 -47t12 -70q0 -69 -36.5 -110t-106.5 -53v-167h-82v163q-92 4 -159 33v99q40 -16 84 -26t90 -10q86 0 86 64z" />
    <glyph glyph-name="percent" unicode="%" horiz-adv-x="880" 
d="M45 568q0 74 42.5 108.5t114.5 34.5q71 0 114 -34.5t43 -108.5v-129q0 -40 -11.5 -68.5t-32 -47t-49.5 -27t-64 -8.5q-71 0 -114 35.5t-43 115.5v129zM157 440q0 -35 12.5 -46.5t32.5 -11.5t31.5 11.5t11.5 46.5v126q0 29 -11.5 40t-31.5 11t-32.5 -11t-12.5 -40v-126z
M521 270q0 74 43.5 108.5t115.5 34.5q70 0 112.5 -34.5t42.5 -108.5v-129q0 -80 -42.5 -115.5t-112.5 -35.5q-72 0 -115.5 35.5t-43.5 115.5v129zM635 142q0 -35 12 -46.5t32 -11.5q19 0 31.5 11.5t12.5 46.5v126q0 29 -12.5 40t-31.5 11q-20 0 -32 -11t-12 -40v-126z
M587 700h126l-423 -700h-128z" />
    <glyph glyph-name="ampersand" unicode="&#x26;" horiz-adv-x="593" 
d="M37 179q0 30 10.5 58t27.5 52.5t38 45t41 36.5q-29 35 -52.5 80t-23.5 91q0 36 11.5 67t34.5 53.5t56.5 35.5t77.5 13q50 0 84.5 -12t56.5 -33.5t31.5 -51t9.5 -64.5q0 -31 -10 -56.5t-27.5 -47.5t-40 -42.5t-47.5 -40.5l96 -139q16 26 22.5 57.5t8.5 57.5h107
q-4 -53 -20.5 -105t-42.5 -97l107 -137h-142l-40 53q-28 -30 -71.5 -47t-94.5 -17q-47 0 -85.5 10.5t-65.5 32.5t-42 55.5t-15 79.5v12zM223 293q-27 -29 -42.5 -58.5t-15.5 -61.5v-4q0 -43 24.5 -60t65.5 -17q55 0 86 40zM202 544q0 -29 13.5 -54.5t32.5 -48.5
q26 24 47.5 48.5t21.5 55.5q0 29 -13.5 47.5t-45.5 18.5q-56 0 -56 -67z" />
    <glyph glyph-name="quotesingle" unicode="'" horiz-adv-x="165" 
d="M29 750h110l-15 -199h-83z" />
    <glyph glyph-name="parenleft" unicode="(" horiz-adv-x="288" 
d="M177 126q0 -32 4 -58.5t14 -45.5t27 -29t43 -10v-101q-61 0 -101.5 15.5t-65 45.5t-34.5 73t-10 97v415q0 54 10 97t34.5 73t65 45.5t101.5 15.5v-101q-26 0 -43 -10.5t-27 -29t-14 -45t-4 -58.5v-389z" />
    <glyph glyph-name="parenright" unicode=")" horiz-adv-x="288" 
d="M24 -17q51 0 69.5 39t18.5 104v389q0 65 -18.5 104t-69.5 39v101q61 0 101.5 -15.5t65 -45.5t34.5 -73t10 -97v-415q0 -54 -10 -97t-34.5 -73t-65 -45.5t-101.5 -15.5v101v0z" />
    <glyph glyph-name="asterisk" unicode="*" horiz-adv-x="424" 
d="M146 517l-113 35l32 84l107 -42l-5 127h91l-4 -126l104 41l34 -84l-115 -35l77 -107l-80 -48l-63 103l-60 -103l-82 50z" />
    <glyph glyph-name="plus" unicode="+" horiz-adv-x="521" 
d="M208 258h-170v90h170v162h104v-162h171v-90h-171v-162h-104v162z" />
    <glyph glyph-name="comma" unicode="," horiz-adv-x="211" 
d="M37 -92q15 17 26.5 42.5t13.5 46.5q-19 6 -31.5 22.5t-12.5 39.5q0 34 20.5 52t52.5 18q33 0 53 -17.5t20 -52.5q0 -19 -5.5 -40t-14.5 -41t-20.5 -38.5t-22.5 -31.5h-79z" />
    <glyph glyph-name="hyphen" unicode="-" horiz-adv-x="369" 
d="M328 346v-90h-286v90h286z" />
    <glyph glyph-name="period" unicode="." horiz-adv-x="210" 
d="M179 57q0 -35 -20 -52.5t-53 -17.5t-53.5 17.5t-20.5 52.5q0 37 20.5 54.5t53.5 17.5t53 -17.5t20 -54.5z" />
    <glyph glyph-name="slash" unicode="/" horiz-adv-x="465" 
d="M335 750h124l-330 -860h-121z" />
    <glyph glyph-name="zero" unicode="0" horiz-adv-x="532" 
d="M47 508q0 52 16.5 90t45.5 63t69 37.5t88 12.5q49 0 89.5 -12.5t69.5 -37.5t45 -63t16 -90v-316q0 -52 -16 -90t-45 -63t-69.5 -37.5t-89.5 -12.5q-48 0 -88 12.5t-69 37.5t-45.5 63t-16.5 90v316zM178 206q0 -63 24 -85.5t65 -22.5t64.5 22.5t23.5 85.5v288
q0 63 -23.5 85.5t-64.5 22.5t-65 -22.5t-24 -85.5v-288z" />
    <glyph glyph-name="one" unicode="1" horiz-adv-x="331" 
d="M283 700v-700h-131v568l-119 -49v115l164 66h86z" />
    <glyph glyph-name="two" unicode="2" horiz-adv-x="524" 
d="M55 674q38 18 85.5 29t112.5 11q111 0 167.5 -51t56.5 -158q0 -49 -18 -98.5t-49.5 -100t-75 -100.5t-95.5 -99h249v-107h-444v97q148 117 225 224.5t77 188.5q0 53 -29.5 73.5t-78.5 20.5q-40 0 -89 -10t-94 -26v106z" />
    <glyph glyph-name="three" unicode="3" horiz-adv-x="471" 
d="M260 594h-225v106h402v-89l-168 -194q37 1 71 -8t60 -30.5t41.5 -58.5t15.5 -91v-27q0 -103 -63.5 -158t-176.5 -55q-64 0 -109 11t-83 28v106q47 -16 95.5 -25.5t90.5 -9.5q50 0 83 27t33 74v15q0 29 -8.5 48t-23 30t-34.5 15.5t-44 4.5q-42 0 -72 -6l-60 82z" />
    <glyph glyph-name="four" unicode="4" horiz-adv-x="531" 
d="M479 0h-131v170h-298l-3 94l131 436h135l-126 -423h161v232l131 20v-529z" />
    <glyph glyph-name="five" unicode="5" horiz-adv-x="507" 
d="M338 227q0 30 -6 50t-16.5 31.5t-26.5 16t-35 4.5q-37 0 -67 -7t-54 -18l-77 52v344h372v-106h-241v-178q18 8 46 12.5t55 4.5q41 0 74.5 -11.5t57 -35.5t36 -61.5t12.5 -89.5v-39q0 -100 -56.5 -153.5t-168.5 -53.5q-63 0 -110 11t-85 29v106q48 -16 96.5 -26t90.5 -10
q48 0 75.5 22t27.5 71v35z" />
    <glyph glyph-name="six" unicode="6" horiz-adv-x="536" 
d="M268 -11q-48 0 -88 12.5t-69.5 37.5t-46 63.5t-16.5 91.5v307q0 103 58 156.5t162 53.5q100 0 178 -38v-100q-84 31 -167 31q-51 0 -77 -26t-26 -89v-89q26 14 61 21.5t67 7.5q40 0 73.5 -11t58 -35t38.5 -61.5t14 -91.5v-30q0 -52 -16 -91.5t-45 -66t-69.5 -40
t-89.5 -13.5zM176 208q0 -62 25.5 -87t66.5 -25q42 0 68.5 27.5t26.5 90.5q0 58 -21 82.5t-65 24.5q-32 0 -57 -7.5t-44 -20.5v-85z" />
    <glyph glyph-name="seven" unicode="7" horiz-adv-x="447" 
d="M296 594h-274v106h420v-71l-233 -629h-134z" />
    <glyph glyph-name="eight" unicode="8" horiz-adv-x="537" 
d="M355 514q0 45 -20 68.5t-66 23.5q-48 0 -67.5 -23.5t-19.5 -68.5q0 -51 19 -78t56 -27h20q38 0 58.5 27t19.5 78zM41 224q0 51 22.5 89.5t54.5 56.5q-29 27 -45 69t-16 83q0 89 51 139t161 50t161 -50t51 -139q0 -40 -15.5 -81.5t-46.5 -69.5q34 -21 56 -58.5t22 -88.5
v-34q0 -92 -55.5 -146.5t-172.5 -54.5q-119 0 -173.5 54.5t-54.5 146.5v34zM256 320q-37 0 -60.5 -27.5t-23.5 -76.5v-24q0 -48 23 -72t74 -24q97 0 97 96v24q0 49 -24 76.5t-60 27.5h-26z" />
    <glyph glyph-name="nine" unicode="9" horiz-adv-x="533" 
d="M266 604q-42 0 -66.5 -27.5t-24.5 -96.5q0 -58 20 -86t65 -28q29 0 54 5t46 17v104q0 64 -26 88t-68 24zM360 282q-23 -14 -53.5 -19.5t-62.5 -5.5q-38 0 -73.5 11t-62.5 34.5t-43.5 61t-16.5 91.5v45q0 55 16 94.5t44.5 65.5t68.5 38.5t89 12.5t90 -11t70 -35.5t45 -63
t16 -92.5v-308q0 -103 -62.5 -157.5t-168.5 -54.5q-102 0 -180 38v100q42 -16 84 -23t85 -7q53 0 84 27t31 90v68z" />
    <glyph glyph-name="colon" unicode=":" horiz-adv-x="213" 
d="M180 60q0 -35 -19.5 -52.5t-53.5 -17.5q-33 0 -53 17.5t-20 52.5q0 37 20 54t53 17q34 0 53.5 -17t19.5 -54zM180 499q0 -35 -19.5 -52.5t-53.5 -17.5q-33 0 -53 17.5t-20 52.5q0 37 20 54t53 17q34 0 53.5 -17t19.5 -54z" />
    <glyph glyph-name="semicolon" unicode=";" horiz-adv-x="215" 
d="M40 -92q15 17 26.5 42.5t13.5 46.5q-19 6 -31.5 22.5t-12.5 39.5q0 34 20.5 52t52.5 18q33 0 53 -17.5t20 -52.5q0 -19 -5.5 -40t-14.5 -41t-20.5 -38.5t-22.5 -31.5h-79zM183 497q0 -35 -20 -52.5t-53 -17.5t-53.5 17.5t-20.5 52.5q0 37 20.5 54.5t53.5 17.5t53 -17.5
t20 -54.5z" />
    <glyph glyph-name="less" unicode="&#x3c;" horiz-adv-x="387" 
d="M155 329l190 -168l-79 -75l-224 204v78l224 204l79 -74z" />
    <glyph glyph-name="equal" unicode="=" horiz-adv-x="520" 
d="M42 227h437v-91h-437v91zM42 443h437v-90h-437v90z" />
    <glyph glyph-name="greater" unicode="&#x3e;" horiz-adv-x="387" 
d="M232 329l-190 169l79 74l224 -204v-78l-224 -204l-79 75z" />
    <glyph glyph-name="question" unicode="?" horiz-adv-x="474" 
d="M220 609q-41 0 -80.5 -8.5t-71.5 -19.5v102q36 14 81.5 22.5t98.5 8.5q46 0 80.5 -13t58 -35.5t35 -54t11.5 -67.5v-18q0 -32 -6.5 -57.5t-18.5 -47.5t-28 -42t-35 -39q-32 -36 -46.5 -64t-14.5 -67v-33h-126v37q0 39 5.5 65.5t16 47.5t26.5 38.5t36 38.5q26 28 44 57.5
t18 71.5v7q0 31 -20 50.5t-64 19.5zM296 53q0 -32 -21.5 -49t-52.5 -17q-32 0 -54.5 17t-22.5 49q0 34 22.5 51t54.5 17q31 0 52.5 -17t21.5 -51z" />
    <glyph glyph-name="at" unicode="@" horiz-adv-x="675" 
d="M271 294q-5 -38 4 -59t36 -21q23 0 43.5 13t31.5 31l27 224h-64q-56 0 -65 -85zM79 497q7 51 35 90.5t70 66.5t93 41t104 14t101 -15.5t83.5 -44t54 -68.5t12.5 -90l-26 -216q-7 -57 -38 -91t-85 -34q-27 0 -48 12t-31 35q-21 -22 -47.5 -34.5t-52.5 -12.5
q-63 0 -90.5 36t-18.5 105l12 117q8 67 43.5 101.5t90.5 34.5h158l-33 -276q-3 -29 2 -41t20 -12q33 0 41 60l25 212q5 40 -8 69t-38.5 48.5t-60.5 29t-72 9.5t-74 -9.5t-68 -28.5t-52 -48.5t-25 -68.5l-34 -280q-5 -41 8.5 -69.5t39 -47.5t59.5 -27.5t70 -8.5q34 0 72.5 6
t70.5 17v-67q-68 -23 -148 -23q-54 0 -102.5 15t-83.5 43t-53 68.5t-11 91.5z" />
    <glyph glyph-name="A" unicode="A" horiz-adv-x="559" 
d="M424 0l-41 146h-208l-41 -146h-134l222 700h115l221 -700h-134zM204 249h150l-50 180q-6 19 -10.5 39t-7.5 37.5t-5 30t-2 16.5q-1 -5 -3 -17.5t-5 -30t-7 -37.5t-9 -38z" />
    <glyph glyph-name="B" unicode="B" horiz-adv-x="546" 
d="M52 700h236q103 0 156 -40.5t53 -134.5v-40q0 -15 -4 -32t-12 -34t-20 -32t-28 -25q32 -15 54.5 -52.5t21.5 -85.5v-53q-1 -78 -48.5 -124.5t-150.5 -46.5h-258v700zM310 405q26 0 40.5 21t14.5 66v13q0 51 -18 68.5t-57 17.5h-107v-186h127zM309 109q38 0 54.5 22.5
t17.5 58.5l-1 27q0 39 -14.5 62.5t-46.5 23.5h-136v-194h126z" />
    <glyph glyph-name="C" unicode="C" horiz-adv-x="472" 
d="M440 22q-80 -33 -172 -33q-104 0 -162 50.5t-58 155.5v310q0 105 58 155.5t162 50.5q92 0 172 -33v-103q-43 14 -80 20t-75 6q-46 0 -76.5 -24.5t-30.5 -87.5v-278q0 -63 30.5 -87.5t76.5 -24.5q38 0 75 6t80 20v-103z" />
    <glyph glyph-name="D" unicode="D" horiz-adv-x="557" 
d="M52 700h241q101 0 158.5 -53.5t57.5 -157.5v-278q0 -104 -57.5 -157.5t-158.5 -53.5h-241v700zM293 110q42 0 65 27t23 90v246q0 63 -23 89.5t-65 26.5h-110v-479h110z" />
    <glyph glyph-name="E" unicode="E" horiz-adv-x="480" 
d="M52 700h390v-111h-259v-179h216v-109h-216v-191h266v-110h-397v700z" />
    <glyph glyph-name="F" unicode="F" horiz-adv-x="469" 
d="M52 700h392v-111h-261v-203h216v-110h-216v-276h-131v700z" />
    <glyph glyph-name="G" unicode="G" horiz-adv-x="510" 
d="M440 575q-43 14 -80 20t-75 6q-46 0 -76.5 -24.5t-30.5 -87.5v-278q0 -62 25.5 -87t68.5 -25q16 -1 30 1t28 7v180h-96v97h226v-360q-43 -17 -90 -26t-104 -9q-105 0 -161.5 51t-56.5 156v309q0 105 58 155.5t162 50.5q92 0 172 -33v-103z" />
    <glyph glyph-name="H" unicode="H" horiz-adv-x="561" 
d="M52 700h130v-283h198v283h130v-700h-130v305h-198v-305h-130v700z" />
    <glyph glyph-name="I" unicode="I" horiz-adv-x="232" 
d="M52 700h131v-700h-131v700z" />
    <glyph glyph-name="J" unicode="J" horiz-adv-x="261" 
d="M-10 -66q50 0 70.5 39.5t20.5 99.5v627h130v-642q0 -104 -54.5 -161t-166.5 -57v94z" />
    <glyph glyph-name="K" unicode="K" horiz-adv-x="551" 
d="M183 344v-344h-131v700h131v-337l214 337h145l-224 -341l235 -359h-151z" />
    <glyph glyph-name="L" unicode="L" horiz-adv-x="452" 
d="M52 700h131v-590h256v-110h-387v700z" />
    <glyph glyph-name="M" unicode="M" horiz-adv-x="814" 
d="M182 434v-434h-130v700h112l245 -396l242 396h112v-700h-129v439l-180 -290h-93z" />
    <glyph glyph-name="N" unicode="N" horiz-adv-x="572" 
d="M52 700h112l227 -407v407h129v-700h-112l-226 403v-403h-130v700z" />
    <glyph glyph-name="O" unicode="O" horiz-adv-x="571" 
d="M48 505q0 52 19 91t51 64.5t75.5 38t92.5 12.5t92 -12.5t75 -38t50.5 -64.5t18.5 -91v-309q0 -53 -18.5 -91.5t-50.5 -64.5t-75 -38.5t-92 -12.5t-92.5 12.5t-75.5 38.5t-51 64.5t-19 91.5v309zM178 211q0 -32 8.5 -53.5t23.5 -34.5t34.5 -18.5t41.5 -5.5t41.5 5.5
t34 18.5t23 34.5t8.5 53.5v278q0 32 -8.5 53.5t-23 34.5t-34 18.5t-41.5 5.5t-41.5 -5.5t-34.5 -18.5t-23.5 -34.5t-8.5 -53.5v-278z" />
    <glyph glyph-name="P" unicode="P" horiz-adv-x="548" 
d="M52 700h241q101 0 158.5 -54t57.5 -158v-64q0 -104 -57.5 -158t-158.5 -54h-110v-212h-131v700zM293 321q42 0 65 28t23 92v30q0 63 -23 90.5t-65 27.5h-110v-268h110z" />
    <glyph glyph-name="Q" unicode="Q" horiz-adv-x="571" 
d="M48 505q0 52 19 91t51 64.5t75.5 38t92.5 12.5t92 -12.5t75 -38t50.5 -64.5t18.5 -91v-309q0 -81 -42.5 -130t-109.5 -66l94 -129h-138l-85 121q-41 5 -76.5 20t-61.5 40.5t-40.5 61t-14.5 82.5v309zM178 211q0 -32 8.5 -53.5t23.5 -34.5t34.5 -18.5t41.5 -5.5t41.5 5.5
t34 18.5t23 34.5t8.5 53.5v278q0 32 -8.5 53.5t-23 34.5t-34 18.5t-41.5 5.5t-41.5 -5.5t-34.5 -18.5t-23.5 -34.5t-8.5 -53.5v-278z" />
    <glyph glyph-name="R" unicode="R" horiz-adv-x="548" 
d="M258 261h-75v-261h-131v700h241q50 0 90 -13.5t68 -38.5t43 -60.5t15 -78.5v-59q0 -64 -31 -108t-87 -65l133 -277h-147zM182 370h111q42 0 64.5 27.5t22.5 72.5v22q0 47 -22.5 72t-64.5 25h-111v-219z" />
    <glyph glyph-name="S" unicode="S" horiz-adv-x="536" 
d="M505 203q0 -109 -64 -161.5t-179 -52.5q-62 0 -113 10t-98 29v114q46 -19 100 -31t105 -12q53 0 84.5 23.5t31.5 70.5q0 51 -22.5 74.5t-67.5 29.5q-42 5 -82.5 16t-71.5 34t-50 60.5t-19 94.5q0 98 53 153.5t164 55.5q57 0 107 -10t93 -28v-108q-45 18 -95 27t-96 9
q-48 0 -71.5 -24.5t-23.5 -63.5q0 -27 8.5 -44.5t23.5 -29t34.5 -17t42.5 -8.5q43 -5 80.5 -17t65.5 -36t44 -62t16 -96z" />
    <glyph glyph-name="T" unicode="T" horiz-adv-x="473" 
d="M172 590h-162v110h454v-110h-162v-590h-130v590z" />
    <glyph glyph-name="U" unicode="U" horiz-adv-x="561" 
d="M179 201q0 -31 7 -50.5t19.5 -31t30.5 -15.5t40 -4q32 0 61 17t43 40v543h130v-700h-77l-33 60q-12 -15 -30 -27.5t-40 -22.5t-46.5 -15.5t-48.5 -5.5q-97 0 -142 48.5t-45 153.5v509h131v-499v0z" />
    <glyph glyph-name="V" unicode="V" horiz-adv-x="548" 
d="M135 700l115 -428q5 -19 9 -39t7 -37.5t5 -30.5t3 -18q0 5 2 18t5 30.5t7.5 37.5t9.5 38l116 429h133l-216 -700h-115l-216 700h135z" />
    <glyph glyph-name="W" unicode="W" horiz-adv-x="862" 
d="M862 700l-192 -700h-131l-90 399q-7 28 -11.5 52.5t-6.5 50.5q-2 -26 -6.5 -50.5t-10.5 -52.5l-91 -399h-130l-193 700h135l95 -428q3 -19 7 -41.5t7 -42.5t5.5 -35.5t2.5 -20.5q1 6 3 21.5t5.5 35.5t7.5 42t8 40l89 429h133l89 -428q4 -20 8 -43t7.5 -44t5.5 -36t2 -18
q1 3 3 18t5.5 36t7.5 44t8 42l95 429h133z" />
    <glyph glyph-name="X" unicode="X" horiz-adv-x="543" 
d="M537 700l-187 -338l193 -362h-146l-128 265l-127 -265h-141l193 360l-186 340h146l120 -241l121 241h142z" />
    <glyph glyph-name="Y" unicode="Y" horiz-adv-x="608" 
d="M148 700l116 -227q20 -41 30 -67t12 -31q2 5 11.5 30.5t30.5 67.5l115 227h144l-238 -429v-271h-130v269l-239 431h148z" />
    <glyph glyph-name="Z" unicode="Z" 
d="M26 97l290 493h-280v110h432v-101l-288 -489h301v-110h-455v97z" />
    <glyph glyph-name="bracketleft" unicode="[" horiz-adv-x="263" 
d="M54 750h190v-102h-77v-656h77v-102h-190v860z" />
    <glyph glyph-name="backslash" unicode="\" horiz-adv-x="466" 
d="M131 750l328 -860h-121l-330 860h123z" />
    <glyph glyph-name="bracketright" unicode="]" horiz-adv-x="263" 
d="M19 -8h78v656h-78v102h191v-860h-191v102z" />
    <glyph glyph-name="underscore" unicode="_" horiz-adv-x="458" 
d="M8 -48h443v-75h-443v75z" />
    <glyph glyph-name="grave" unicode="`" horiz-adv-x="291" 
d="M143 790l78 -147l-58 -36l-108 129z" />
    <glyph glyph-name="a" unicode="a" horiz-adv-x="507" 
d="M330 407q-11 24 -35.5 42t-53.5 18q-38 0 -52 -21.5t-14 -73.5v-184q0 -52 14 -73.5t52 -21.5q29 0 53.5 18t35.5 42v254zM454 560v-560h-76l-32 56q-22 -28 -56 -47t-79 -19q-81 0 -120.5 49t-39.5 139v205q0 90 39.5 138.5t120.5 48.5q45 0 79 -19t56 -47l32 56h76z
" />
    <glyph glyph-name="b" unicode="b" horiz-adv-x="507" 
d="M267 467q-29 0 -52.5 -18t-35.5 -42v-254q12 -24 35.5 -42t52.5 -18q38 0 52 21.5t14 73.5v184q0 52 -14 73.5t-52 21.5zM179 521q21 22 51.5 35.5t66.5 13.5q81 0 120.5 -48.5t39.5 -138.5v-205q0 -90 -39.5 -139t-120.5 -49q-45 0 -78.5 19t-56.5 47l-22 -56h-86v736
l125 15v-230z" />
    <glyph glyph-name="c" unicode="c" horiz-adv-x="414" 
d="M174 193q0 -58 25.5 -80t65.5 -22q56 0 115 23v-94q-31 -14 -61.5 -22t-66.5 -8q-97 0 -149.5 42.5t-52.5 141.5v212q0 94 52.5 139t149.5 45q36 0 66.5 -7.5t61.5 -21.5v-95q-62 24 -115 24q-45 0 -68 -22.5t-23 -81.5v-173z" />
    <glyph glyph-name="d" unicode="d" horiz-adv-x="507" 
d="M330 407q-11 24 -35.5 42t-53.5 18q-38 0 -52 -21.5t-14 -73.5v-184q0 -52 14 -73.5t52 -21.5q29 0 53.5 18t35.5 42v254zM454 753v-753h-85l-23 56q-22 -28 -56 -47t-79 -19q-81 0 -120 49t-39 139v205q0 90 39 138.5t120 48.5q38 0 67.5 -13.5t51.5 -35.5v213z" />
    <glyph glyph-name="e" unicode="e" horiz-adv-x="502" 
d="M174 193q0 -29 6.5 -48.5t18.5 -31.5t28.5 -17t36.5 -5q39 0 85.5 9t83.5 23v-94q-36 -19 -82.5 -29t-97.5 -10q-97 0 -150 42.5t-53 141.5v206q0 99 54 144.5t148 45.5q47 0 85 -11.5t64.5 -34.5t41 -59t14.5 -85v-146h-283v-41zM332 321v55q0 57 -19.5 78.5t-59.5 21.5
q-39 0 -59.5 -21t-20.5 -79v-55h159z" />
    <glyph glyph-name="f" unicode="f" horiz-adv-x="326" 
d="M55 463h-47v97h47v45q0 68 32 100.5t107 32.5q30 0 61 -5t54 -13v-91q-38 12 -80 12q-26 0 -37.5 -12t-11.5 -40v-29h114v-97h-114v-463h-125v463z" />
    <glyph glyph-name="g" unicode="g" 
d="M329 64q-22 -21 -51.5 -35t-67.5 -14q-81 0 -120 49t-39 139v180q0 89 39 138t120 49q46 0 79.5 -19t55.5 -47l22 56h86v-554q0 -49 -13.5 -81t-39.5 -51t-63.5 -26.5t-85.5 -7.5q-50 0 -91 8.5t-76 23.5v97q35 -15 74.5 -24t81.5 -9q18 0 34.5 3t28.5 12.5t19 27t7 45.5
v40zM241 118q28 0 52 18.5t36 41.5v229q-12 24 -36 42t-52 18q-38 0 -52 -21.5t-14 -73.5v-158q0 -52 14 -74t52 -22z" />
    <glyph glyph-name="h" unicode="h" 
d="M266 467q-29 0 -52 -18t-35 -42v-407h-125v734l125 19v-232q21 22 50 35.5t67 13.5q81 0 119.5 -48.5t38.5 -138.5v-383h-123v372q0 52 -13.5 73.5t-51.5 21.5z" />
    <glyph glyph-name="i" unicode="i" horiz-adv-x="232" 
d="M178 560v-560h-124v561zM195 682q0 -36 -23.5 -50.5t-55.5 -14.5q-34 0 -56.5 14.5t-22.5 50.5t22.5 51.5t56.5 15.5q32 0 55.5 -15.5t23.5 -51.5z" />
    <glyph glyph-name="j" unicode="j" horiz-adv-x="240" 
d="M185 560v-526q0 -92 -48.5 -143t-157.5 -51v86q27 3 43 12t24.5 24t11.5 37t3 51v510h124zM200 675q0 -36 -23 -50.5t-56 -14.5t-55.5 14.5t-22.5 50.5t22.5 51.5t55.5 15.5t56 -15.5t23 -51.5z" />
    <glyph glyph-name="k" unicode="k" horiz-adv-x="474" 
d="M458 560l-129 -267l146 -293h-134l-119 250h-43v-250h-125v734l125 19v-417h44l105 224h130z" />
    <glyph glyph-name="l" unicode="l" horiz-adv-x="233" 
d="M54 0v734l125 19v-753h-125z" />
    <glyph glyph-name="m" unicode="m" horiz-adv-x="752" 
d="M417 502q23 28 55.5 48t76.5 20q81 0 116.5 -48.5t35.5 -138.5v-383h-126v372q0 26 -2 44t-8 29.5t-17 16.5t-30 5q-25 0 -45 -15.5t-33 -36.5q0 -8 0.5 -16t0.5 -16v-383h-124v372q0 52 -10.5 73.5t-46.5 21.5q-26 0 -47.5 -16t-33.5 -39v-412h-125v560h74l31 -56
q23 28 54.5 47t75.5 19q48 0 79.5 -17.5t48.5 -50.5z" />
    <glyph glyph-name="n" unicode="n" 
d="M263 467q-26 0 -49 -16t-35 -39v-412h-125v560h74l31 -56q23 28 56 47t79 19q80 0 119.5 -48.5t39.5 -138.5v-383h-124v372q0 52 -14.5 73.5t-51.5 21.5z" />
    <glyph glyph-name="o" unicode="o" horiz-adv-x="504" 
d="M173 188q0 -58 20 -80.5t59 -22.5q38 0 58.5 22.5t20.5 80.5v184q0 59 -20.5 81t-58.5 22q-39 0 -59 -22t-20 -81v-184zM48 380q0 98 54.5 144t149.5 46t149 -45.5t54 -144.5v-200q0 -98 -54 -144t-149 -46q-96 0 -150 46t-54 144v200z" />
    <glyph glyph-name="p" unicode="p" horiz-adv-x="507" 
d="M297 -4q-37 0 -67 13.5t-52 35.5v-195h-125v710h87l22 -56q22 28 56 47t79 19q81 0 120.5 -49t39.5 -138v-200q0 -90 -39.5 -138.5t-120.5 -48.5zM178 159q12 -24 35.5 -42t52.5 -18q38 0 52 21.5t14 73.5v178q0 52 -14 73.5t-52 21.5q-29 0 -52.5 -18t-35.5 -42v-248z
" />
    <glyph glyph-name="q" unicode="q" 
d="M329 45q-22 -22 -51.5 -35.5t-67.5 -13.5q-81 0 -120 48.5t-39 138.5v200q0 89 39 138t120 49q46 0 79.5 -19t55.5 -47l22 56h86v-710h-124v195zM241 99q28 0 52 18t36 42v248q-12 24 -36 42t-52 18q-38 0 -52 -21.5t-14 -73.5v-178q0 -52 14 -73.5t52 -21.5z" />
    <glyph glyph-name="r" unicode="r" horiz-adv-x="320" 
d="M307 462q-38 2 -72 -10t-56 -35v-417h-125v560h74l31 -62q22 30 61.5 51t87.5 21l-1 -108v0z" />
    <glyph glyph-name="s" unicode="s" horiz-adv-x="458" 
d="M298 150q0 22 -8.5 35.5t-24 22.5t-37 15.5t-46.5 13.5q-29 8 -55 20.5t-46 33t-31.5 49.5t-11.5 71q0 74 44.5 116.5t139.5 42.5q48 0 90 -9t74 -26v-93q-44 17 -79.5 24.5t-75.5 7.5q-68 0 -68 -62q0 -21 8.5 -34.5t23.5 -23.5t36 -16.5t45 -13.5q29 -8 55.5 -19.5
t46.5 -30.5t32 -47t12 -70q0 -82 -51 -124.5t-151 -42.5q-53 0 -98.5 8.5t-83.5 24.5v99q40 -16 84 -26t90 -10q86 0 86 64z" />
    <glyph glyph-name="t" unicode="t" horiz-adv-x="328" 
d="M101 463h-99v97h99v104l126 19v-123h99v-97h-99v-463h-126v463z" />
    <glyph glyph-name="u" unicode="u" horiz-adv-x="501" 
d="M240 93q27 0 49.5 16t34.5 39v412h125v-560h-74l-32 56q-23 -28 -62 -47t-84 -19q-80 0 -113 43t-33 128v399h125v-375q0 -52 13 -72t51 -20z" />
    <glyph glyph-name="v" unicode="v" horiz-adv-x="463" 
d="M1 560h129l81 -306q6 -23 10 -46t7 -41.5t4.5 -31t1.5 -14.5q0 2 1.5 14.5t4 31t6.5 41t9 45.5l80 307h127l-175 -560h-112z" />
    <glyph glyph-name="w" unicode="w" horiz-adv-x="722" 
d="M722 560l-157 -560h-121l-63 276q-8 34 -12.5 65t-8.5 68q-1 -38 -6 -69t-13 -65l-66 -275h-119l-155 560h129l67 -306l8 -46t7 -42t5 -31t2 -14q0 2 1.5 14.5t4 31t6 41t8.5 45.5l68 307h111l69 -306q5 -23 9 -46t6.5 -41.5t4 -31t1.5 -14.5q0 2 2 14t4.5 31t6 41.5
t7.5 45.5l66 307h128z" />
    <glyph glyph-name="x" unicode="x" horiz-adv-x="480" 
d="M473 560l-158 -276l164 -284h-142l-97 185l-96 -185h-142l163 284l-157 276h142l90 -176l91 176h142z" />
    <glyph glyph-name="y" unicode="y" 
d="M329 560h124v-554q0 -49 -13.5 -81t-39.5 -51t-63.5 -26.5t-85.5 -7.5q-50 0 -91 8.5t-76 23.5v97q35 -15 74.5 -24t81.5 -9q18 0 34.5 3t28.5 12.5t19 27t7 45.5v40q-22 -21 -51.5 -35t-67.5 -14q-81 0 -120 49t-39 139v357h124v-346q0 -52 14 -74t52 -22q28 0 52 18.5
t36 41.5v382z" />
    <glyph glyph-name="z" unicode="z" horiz-adv-x="439" 
d="M29 91l227 368h-223v101h373v-88l-229 -371h240v-101h-388v91z" />
    <glyph glyph-name="braceleft" unicode="{" horiz-adv-x="320" 
d="M33 372h31q19 0 33.5 17.5t14.5 63.5v149q0 81 36.5 114.5t105.5 33.5h37v-100h-15q-23 0 -32.5 -15t-9.5 -46v-133q0 -45 -14.5 -80.5t-44.5 -55.5q28 -18 43.5 -54.5t15.5 -81.5v-132q0 -32 9.5 -47t32.5 -15h15v-100h-37q-69 0 -105.5 34t-36.5 115v148
q0 46 -14.5 63.5t-33.5 17.5h-31v104z" />
    <glyph glyph-name="bar" unicode="|" horiz-adv-x="221" 
d="M55 770h111v-940h-111v940z" />
    <glyph glyph-name="braceright" unicode="}" horiz-adv-x="320" 
d="M30 -110v100h15q23 0 32.5 15t9.5 47v132q0 45 15.5 81.5t43.5 54.5q-29 20 -44 55.5t-15 80.5v133q0 31 -9.5 46t-32.5 15h-15v100h37q69 0 105.5 -33.5t36.5 -114.5v-149q0 -46 14.5 -63.5t33.5 -17.5h31v-104h-31q-19 0 -33.5 -17.5t-14.5 -63.5v-148
q0 -81 -36.5 -115t-105.5 -34h-37z" />
    <glyph glyph-name="asciitilde" unicode="~" horiz-adv-x="531" 
d="M176 409q26 0 50.5 -10t46 -21.5t39.5 -21.5t33 -10q26 0 37.5 14t12.5 37h91q-2 -66 -35.5 -103t-95.5 -37q-27 0 -50.5 10t-43.5 21.5t-38.5 21.5t-36.5 10q-26 0 -38.5 -14t-12.5 -37h-90q2 66 36 103t95 37z" />
    <glyph glyph-name="exclamdown" unicode="&#xa1;" horiz-adv-x="245" 
d="M61 178l10 336h103l11 -336v-178h-124v178zM193 644q0 -33 -19.5 -49t-51.5 -16q-31 0 -49.5 16t-18.5 49q0 34 18.5 50t49.5 16q32 0 51.5 -16t19.5 -50z" />
    <glyph glyph-name="cent" unicode="&#xa2;" horiz-adv-x="431" 
d="M392 103q-22 -10 -46.5 -17t-51.5 -11v-105h-82v105q-78 8 -120 50.5t-42 131.5v183q0 83 42 128t120 53v109h82v-109q27 -3 51.5 -10t46.5 -16v-95q-59 23 -127 23q-45 0 -68 -22t-23 -81v-143q0 -29 7 -49t19 -32t28.5 -17t36.5 -5q34 0 65 6t62 17v-94z" />
    <glyph glyph-name="sterling" unicode="&#xa3;" horiz-adv-x="464" 
d="M100 583q0 75 39.5 115t126.5 40q38 0 79.5 -6t73.5 -18v-93q-58 20 -118 20q-74 0 -74 -74v-143h125v-103h-125v-88q0 -31 -6 -54t-13 -39q-9 -18 -19 -33h250v-107h-408v87q29 21 49 55t20 76v103h-69v103h69v159z" />
    <glyph glyph-name="currency" unicode="&#xa4;" horiz-adv-x="547" 
d="M98 226q-17 40 -17 92v43q0 48 17 90l-62 71l88 68l52 -58q41 25 98 25t98 -25l48 55l92 -65l-63 -71q16 -39 16 -90v-43q0 -25 -4.5 -48.5t-11.5 -43.5l63 -70l-86 -69l-54 59q-20 -12 -46 -18.5t-52 -6.5q-59 0 -98 25l-51 -58l-89 68zM188 327q1 -54 26 -79.5
t61 -25.5q34 0 58.5 25.5t24.5 79.5v24q0 54 -24.5 80t-58.5 26q-36 0 -61.5 -26t-25.5 -80v-24z" />
    <glyph glyph-name="yen" unicode="&#xa5;" horiz-adv-x="529" 
d="M50 179h155v69h-155v87h132l-173 365h135l125 -287l125 287h130l-171 -365h133v-87h-154v-69h154v-87h-154v-92h-127v92h-155v87z" />
    <glyph glyph-name="brokenbar" unicode="&#xa6;" horiz-adv-x="221" 
d="M55 183h111v-353h-111v353zM55 770h111v-355h-111v355z" />
    <glyph glyph-name="section" unicode="&#xa7;" horiz-adv-x="476" 
d="M313 306q0 23 -13.5 36t-33 21t-40.5 12t-35 9q-11 -10 -18.5 -27t-7.5 -37v-6q0 -21 10 -34t25.5 -21t35.5 -13.5t41 -11.5q15 12 25.5 30t10.5 35v7zM398 583q-35 13 -77.5 21.5t-80.5 8.5q-34 0 -49.5 -16t-15.5 -43v-8q0 -17 7 -29t19 -20t27.5 -13.5t32.5 -9.5
q30 -7 61.5 -17.5t57.5 -28.5t42.5 -45t16.5 -67v-16q0 -15 -5.5 -31.5t-14.5 -32t-21 -29t-25 -22.5q25 -16 40 -43t15 -62v-15q0 -36 -13.5 -66t-39 -51.5t-62 -34t-83.5 -12.5q-48 0 -94 9t-80 24v99q35 -14 83 -22.5t88 -8.5q37 0 55.5 18t18.5 48v10q0 26 -23.5 40.5
t-58.5 22.5q-32 7 -64.5 18t-58.5 29.5t-42.5 46.5t-16.5 70v13q0 32 17 65t43 53q-21 17 -34 43.5t-13 59.5v12q0 35 11 65t33.5 51.5t56.5 34t81 12.5t89.5 -9t76.5 -24v-98z" />
    <glyph glyph-name="dieresis" unicode="&#xa8;" horiz-adv-x="417" 
d="M162 678q0 -31 -15 -50.5t-49 -19.5q-33 0 -48 19.5t-15 50.5t15 51t48 20q34 0 49 -20t15 -51zM383 678q0 -31 -15 -50.5t-49 -19.5q-32 0 -47 19.5t-15 50.5t15 51t47 20q34 0 49 -20t15 -51z" />
    <glyph glyph-name="copyright" unicode="&#xa9;" horiz-adv-x="642" 
d="M48 489q0 52 22.5 93t60 69.5t87.5 43.5t104 15t103 -15t86.5 -43.5t60 -69.5t22.5 -93v-281q0 -52 -22.5 -93.5t-60 -70t-86.5 -43.5t-103 -15t-104 15t-87.5 43.5t-60 70t-22.5 93.5v281zM133 208q0 -35 16.5 -61.5t43.5 -44t60.5 -26.5t68.5 -9q34 0 68 9t61 26.5
t44 44t17 61.5v280q0 34 -17 60.5t-44 44.5t-61 27.5t-68 9.5q-35 0 -68.5 -9.5t-60.5 -27.5t-43.5 -44.5t-16.5 -60.5v-280zM188 419q0 71 36.5 104t105.5 33q26 0 54 -6t49 -17v-68q-21 8 -44.5 12.5t-46.5 4.5q-32 0 -48 -16t-16 -62v-111q0 -45 16 -61t48 -16
q23 0 46.5 4.5t44.5 12.5v-69q-21 -11 -49 -17t-54 -6q-69 0 -105.5 33t-36.5 104v141z" />
    <glyph glyph-name="ordfeminine" unicode="&#xaa;" horiz-adv-x="399" 
d="M272 510v58q0 21 -5.5 34t-15.5 20t-24 9.5t-31 2.5q-36 0 -67.5 -6t-59.5 -17v72q29 13 63 20t72 7q36 0 65 -6.5t49.5 -21t31.5 -39t11 -60.5v-319h-74l-13 33q-17 -17 -46 -28t-58 -11q-62 0 -95 33.5t-33 100.5q0 33 10.5 56t30 36.5t46.5 19.5t59 6h84zM132 392
q0 -30 14 -46t39 -16q26 0 49.5 13.5t37.5 31.5v70h-81q-59 0 -59 -53z" />
    <glyph glyph-name="guillemotleft" unicode="&#xab;" horiz-adv-x="660" 
 />
    <glyph glyph-name="registered" unicode="&#xae;" horiz-adv-x="642" 
d="M48 491q0 51 22.5 92t60 69t87.5 43t104 15t103 -15t86.5 -43t60 -69t22.5 -92v-284q0 -52 -22.5 -93t-60 -69.5t-86.5 -43.5t-103 -15t-104 15t-87.5 43.5t-60 69.5t-22.5 93v284zM133 207q0 -35 16.5 -61.5t43.5 -44t60.5 -26.5t68.5 -9q34 0 68 9t61 26.5t44 44
t17 61.5v283q0 34 -17 60t-44 44t-61 27t-68 9q-35 0 -68.5 -9t-60.5 -27t-43.5 -44t-16.5 -60v-283zM191 547h141q59 0 93 -29.5t34 -89.5v-23q0 -41 -17 -68.5t-49 -39.5l72 -145h-95l-58 135h-32v-135h-89v395zM319 355q24 0 38.5 12t14.5 44v9q0 32 -14.5 42.5
t-38.5 10.5h-39v-118h39z" />
    <glyph glyph-name="macron" unicode="&#xaf;" horiz-adv-x="362" 
d="M38 717h288v-89h-288v89z" />
    <glyph glyph-name="degree" unicode="&#xb0;" horiz-adv-x="331" 
d="M41 582q0 62 33.5 95.5t90.5 33.5q60 0 94.5 -33.5t34.5 -95.5v-16q0 -65 -34.5 -97.5t-94.5 -32.5q-57 0 -90.5 32.5t-33.5 97.5v16zM220 573q0 42 -13.5 59.5t-39.5 17.5t-40 -17.5t-14 -59.5t14 -60t40 -18t39.5 18t13.5 60z" />
    <glyph glyph-name="plusminus" unicode="&#xb1;" horiz-adv-x="521" 
d="M208 323h-170v91h170v157h104v-157h171v-91h-171v-157h-104v157zM38 0v90h445v-90h-445z" />
    <glyph glyph-name="acute" unicode="&#xb4;" horiz-adv-x="291" 
d="M133 786l91 -48l-104 -125l-62 31z" />
    <glyph glyph-name="paragraph" unicode="&#xb6;" horiz-adv-x="524" 
d="M251 265h-18q-41 0 -75 13.5t-59 39t-39 63.5t-14 88v27q0 98 53 151t153 53h219v-810h-74v726h-73v-726h-73v375z" />
    <glyph glyph-name="periodcentered" unicode="&#xb7;" horiz-adv-x="211" 
d="M179 346q0 -35 -20 -52.5t-53 -17.5t-53.5 17.5t-20.5 52.5q0 36 20.5 54t53.5 18t53 -18t20 -54z" />
    <glyph glyph-name="cedilla" unicode="&#xb8;" horiz-adv-x="241" 
d="M100 -167q-30 0 -58 9v46q7 -2 16.5 -3.5t17.5 -1.5q35 0 35 24q0 12 -9 17.5t-20 7.5q-12 3 -28 2l25 66h79l-11 -33q23 -6 40 -21t17 -42q0 -20 -10 -34t-25 -22t-33.5 -11.5t-35.5 -3.5z" />
    <glyph glyph-name="ordmasculine" unicode="&#xba;" horiz-adv-x="400" 
d="M47 555q0 77 43.5 116.5t120.5 39.5q78 0 121 -39.5t43 -116.5v-143q0 -75 -43 -114.5t-121 -39.5q-77 0 -120.5 39.5t-43.5 114.5v143zM137 422q0 -47 18 -66t56 -19q39 0 57 19t18 66v124q0 48 -18 67.5t-57 19.5q-38 0 -56 -19.5t-18 -67.5v-124z" />
    <glyph glyph-name="guillemotright" unicode="&#xbb;" horiz-adv-x="660" 
 />
    <glyph glyph-name="onequarter" unicode="&#xbc;" horiz-adv-x="820" 
d="M481 141l117 323h103l-110 -296h95v140h97v-308h-97v86h-205v55zM110 610l-74 -35v84l97 45h74v-452h-97v358zM546 700h126l-423 -700h-128z" />
    <glyph glyph-name="onehalf" unicode="&#xbd;" horiz-adv-x="856" 
d="M517 60q69 70 109 117t60 78t25 50t5 34q0 60 -63 60q-27 0 -58 -7t-57 -18v75q29 12 62.5 19t72.5 7q70 0 106 -36t36 -99q0 -48 -34 -110t-119 -145h162v-85h-307v60zM105 610l-74 -35v84l96 45h74v-452h-96v358zM516 700h126l-423 -700h-128z" />
    <glyph glyph-name="threequarters" unicode="&#xbe;" horiz-adv-x="897" 
d="M538 141l119 323h101l-109 -296h95v140h96v-308h-96v86h-206v55zM343 367q0 -69 -46 -104.5t-125 -35.5q-35 0 -70 6t-62 17v74q32 -12 65.5 -17t62.5 -5q35 0 56.5 16.5t21.5 47.5v10q0 38 -20 52.5t-54 14.5q-31 0 -52 -3l-40 54l121 134h-157v72h282v-59l-117 -128
q26 0 50 -5.5t43 -20.5t30 -40t11 -62v-18zM623 700h126l-423 -700h-128z" />
    <glyph glyph-name="questiondown" unicode="&#xbf;" horiz-adv-x="474" 
d="M178 647q0 33 22 49.5t54 16.5t53.5 -16.5t21.5 -49.5q0 -34 -21.5 -50.5t-53.5 -16.5t-54 16.5t-22 50.5zM253 91q41 0 81.5 8.5t72.5 19.5v-102q-35 -14 -81.5 -22.5t-98.5 -8.5q-47 0 -81.5 13t-57.5 35.5t-34.5 54t-11.5 67.5v18q0 32 6.5 58t18 48t27.5 41.5
t35 39.5q16 18 28 33.5t19 30.5t10.5 31t3.5 36v33h127v-37q0 -39 -5.5 -66t-16.5 -48t-26.5 -38.5t-35.5 -38.5q-26 -28 -44.5 -57t-18.5 -72v-7q0 -30 19.5 -50t63.5 -20z" />
    <glyph glyph-name="Agrave" unicode="&#xc0;" horiz-adv-x="559" 
d="M424 0l-41 146h-208l-41 -146h-134l222 700h115l221 -700h-134zM204 249h150l-50 180q-6 19 -10.5 39t-7.5 37.5t-5 30t-2 16.5q-1 -5 -3 -17.5t-5 -30t-7 -37.5t-9 -38zM227 930l78 -147l-58 -36l-108 129z" />
    <glyph glyph-name="Aacute" unicode="&#xc1;" horiz-adv-x="559" 
d="M424 0l-41 146h-208l-41 -146h-134l222 700h115l221 -700h-134zM204 249h150l-50 180q-6 19 -10.5 39t-7.5 37.5t-5 30t-2 16.5q-1 -5 -3 -17.5t-5 -30t-7 -37.5t-9 -38zM318 926l91 -48l-104 -125l-62 31z" />
    <glyph glyph-name="Acircumflex" unicode="&#xc2;" horiz-adv-x="559" 
d="M424 0l-41 146h-208l-41 -146h-134l222 700h115l221 -700h-134zM225 888h98l91 -132h-102l-39 69l-37 -69h-104zM204 249h150l-50 180q-6 19 -10.5 39t-7.5 37.5t-5 30t-2 16.5q-1 -5 -3 -17.5t-5 -30t-7 -37.5t-9 -38z" />
    <glyph glyph-name="Atilde" unicode="&#xc3;" horiz-adv-x="559" 
d="M424 0l-41 146h-208l-41 -146h-134l222 700h115l221 -700h-134zM93 765q0 57 25 93t76 36q25 0 46 -7t38.5 -15.5t32 -15.5t26.5 -7q18 0 25 12t8 32h84q0 -57 -25.5 -93t-76.5 -36q-24 0 -44 7t-36.5 15.5t-31.5 15.5t-30 7q-18 0 -25.5 -12t-7.5 -32h-84zM204 249h150
l-50 180q-6 19 -10.5 39t-7.5 37.5t-5 30t-2 16.5q-1 -5 -3 -17.5t-5 -30t-7 -37.5t-9 -38z" />
    <glyph glyph-name="Adieresis" unicode="&#xc4;" horiz-adv-x="559" 
d="M424 0l-41 146h-208l-41 -146h-134l222 700h115l221 -700h-134zM204 249h150l-50 180q-6 19 -10.5 39t-7.5 37.5t-5 30t-2 16.5q-1 -5 -3 -17.5t-5 -30t-7 -37.5t-9 -38zM153 748q-32 0 -47 18.5t-15 50.5t15 51.5t47 19.5t48 -19.5t16 -51.5t-16 -50.5t-48 -18.5z
M393 748q-32 0 -46.5 18.5t-14.5 50.5t14.5 51.5t46.5 19.5q33 0 48.5 -19.5t15.5 -51.5t-15.5 -50.5t-48.5 -18.5z" />
    <glyph glyph-name="Aring" unicode="&#xc5;" horiz-adv-x="559" 
d="M424 0l-41 146h-208l-41 -146h-134l222 700h115l221 -700h-134zM197 833q0 35 22.5 56.5t54.5 21.5q34 0 56.5 -21.5t22.5 -56.5v-10q0 -38 -22.5 -58.5t-56.5 -20.5q-32 0 -54.5 20.5t-22.5 58.5v10zM204 249h150l-50 180q-6 19 -10.5 39t-7.5 37.5t-5 30t-2 16.5
q-1 -5 -3 -17.5t-5 -30t-7 -37.5t-9 -38zM274 790q30 0 30 37t-30 37q-26 0 -26 -37t26 -37z" />
    <glyph glyph-name="AE" unicode="&#xc6;" horiz-adv-x="843" 
d="M415 269h-187l-94 -269h-134l252 700h553v-111h-259v-218h216v-109h-216v-152h266v-110h-397v269zM263 371h152v221h-74z" />
    <glyph glyph-name="Ccedilla" unicode="&#xc7;" horiz-adv-x="472" 
d="M440 575q-43 14 -80 20t-75 6q-46 0 -76.5 -24.5t-30.5 -87.5v-278q0 -63 30.5 -87.5t76.5 -24.5q38 0 75 6t80 20v-103q-34 -14 -71.5 -22t-75.5 -10l-8 -23q23 -6 39 -21t16 -42q0 -20 -9.5 -34t-24.5 -22t-33 -11.5t-35 -3.5q-32 0 -59 9v46q15 -5 34 -5q35 0 35 24
q0 12 -9 17.5t-20 7.5q-13 3 -29 2l25 59q-80 12 -123.5 61.5t-43.5 140.5v310q0 105 58 155.5t162 50.5q92 0 172 -33v-103v0z" />
    <glyph glyph-name="Egrave" unicode="&#xc8;" horiz-adv-x="480" 
d="M52 700h390v-111h-259v-179h216v-109h-216v-191h266v-110h-397v700zM237 920l78 -147l-58 -36l-108 129z" />
    <glyph glyph-name="Eacute" unicode="&#xc9;" horiz-adv-x="480" 
d="M52 700h390v-111h-259l-1 -180h217v-106h-217v-193h267v-110h-397v700zM274 921l91 -48l-104 -125l-62 31z" />
    <glyph glyph-name="Ecircumflex" unicode="&#xca;" horiz-adv-x="480" 
d="M52 700h390v-111h-259v-179h216v-109h-216v-191h266v-110h-397v700zM202 888h98l91 -132h-102l-39 69l-37 -69h-104z" />
    <glyph glyph-name="Edieresis" unicode="&#xcb;" horiz-adv-x="480" 
d="M133 748q-32 0 -47 18.5t-15 50.5t15 51.5t47 19.5t48 -19.5t16 -51.5t-16 -50.5t-48 -18.5zM354 748q-32 0 -46.5 18.5t-14.5 50.5t14.5 51.5t46.5 19.5t47.5 -19.5t15.5 -51.5t-15.5 -50.5t-47.5 -18.5zM52 700h390v-111h-259v-179h216v-109h-216v-191h266v-110h-397
v700z" />
    <glyph glyph-name="Igrave" unicode="&#xcc;" horiz-adv-x="232" 
d="M52 700h131v-700h-131v700zM93 924l78 -147l-58 -36l-108 129z" />
    <glyph glyph-name="Iacute" unicode="&#xcd;" horiz-adv-x="232" 
d="M52 700h131v-700h-131v700zM145 916l91 -48l-104 -125l-62 31z" />
    <glyph glyph-name="Icircumflex" unicode="&#xce;" horiz-adv-x="232" 
d="M52 700h131v-700h-131v700zM68 888h98l91 -132h-102l-39 69l-37 -69h-104z" />
    <glyph glyph-name="Idieresis" unicode="&#xcf;" horiz-adv-x="232" 
d="M42 748q-32 0 -46.5 18.5t-14.5 50.5t14.5 51.5t46.5 19.5t46 -19.5t14 -51.5t-14 -50.5t-46 -18.5zM52 700h131v-700h-131v700zM194 748q-32 0 -46 18.5t-14 50.5t14 51.5t46 19.5t45.5 -19.5t13.5 -51.5t-13.5 -50.5t-45.5 -18.5z" />
    <glyph glyph-name="Eth" unicode="&#xd0;" horiz-adv-x="559" 
d="M52 307h-43v90h43v303h241q101 0 158.5 -53.5t57.5 -157.5v-278q0 -104 -57.5 -157.5t-158.5 -53.5h-241v307zM293 110q42 0 65 27t23 90v246q0 63 -23 89.5t-65 26.5h-110v-192h115v-90h-115v-197h110z" />
    <glyph glyph-name="Ntilde" unicode="&#xd1;" horiz-adv-x="572" 
d="M52 700h112l227 -407v407h129v-700h-112l-226 403v-403h-130v700zM102 765q0 57 25 93t76 36q25 0 46 -7t38.5 -15.5t32 -15.5t26.5 -7q18 0 25 12t8 32h84q0 -57 -25.5 -93t-76.5 -36q-24 0 -44 7t-36.5 15.5t-31.5 15.5t-30 7q-18 0 -25.5 -12t-7.5 -32h-84z" />
    <glyph glyph-name="Ograve" unicode="&#xd2;" horiz-adv-x="571" 
d="M252 927l78 -147l-58 -36l-108 129zM48 505q0 52 19 91t51 64.5t75.5 38t92.5 12.5t92 -12.5t75 -38t50.5 -64.5t18.5 -91v-309q0 -53 -18.5 -91.5t-50.5 -64.5t-75 -38.5t-92 -12.5t-92.5 12.5t-75.5 38.5t-51 64.5t-19 91.5v309zM178 211q0 -32 8.5 -53.5t23.5 -34.5
t34.5 -18.5t41.5 -5.5t41.5 5.5t34 18.5t23 34.5t8.5 53.5v278q0 32 -8.5 53.5t-23 34.5t-34 18.5t-41.5 5.5t-41.5 -5.5t-34.5 -18.5t-23.5 -34.5t-8.5 -53.5v-278z" />
    <glyph glyph-name="Oacute" unicode="&#xd3;" horiz-adv-x="571" 
d="M330 922l91 -48l-104 -125l-62 31zM48 505q0 52 19 91t51 64.5t75.5 38t92.5 12.5t92 -12.5t75 -38t50.5 -64.5t18.5 -91v-309q0 -53 -18.5 -91.5t-50.5 -64.5t-75 -38.5t-92 -12.5t-92.5 12.5t-75.5 38.5t-51 64.5t-19 91.5v309zM178 211q0 -32 8.5 -53.5t23.5 -34.5
t34.5 -18.5t41.5 -5.5t41.5 5.5t34 18.5t23 34.5t8.5 53.5v278q0 32 -8.5 53.5t-23 34.5t-34 18.5t-41.5 5.5t-41.5 -5.5t-34.5 -18.5t-23.5 -34.5t-8.5 -53.5v-278z" />
    <glyph glyph-name="Ocircumflex" unicode="&#xd4;" horiz-adv-x="571" 
d="M239 888h98l91 -132h-102l-39 69l-37 -69h-104zM48 505q0 52 19 91t51 64.5t75.5 38t92.5 12.5t92 -12.5t75 -38t50.5 -64.5t18.5 -91v-309q0 -53 -18.5 -91.5t-50.5 -64.5t-75 -38.5t-92 -12.5t-92.5 12.5t-75.5 38.5t-51 64.5t-19 91.5v309zM178 211q0 -32 8.5 -53.5
t23.5 -34.5t34.5 -18.5t41.5 -5.5t41.5 5.5t34 18.5t23 34.5t8.5 53.5v278q0 32 -8.5 53.5t-23 34.5t-34 18.5t-41.5 5.5t-41.5 -5.5t-34.5 -18.5t-23.5 -34.5t-8.5 -53.5v-278z" />
    <glyph glyph-name="Otilde" unicode="&#xd5;" horiz-adv-x="571" 
d="M48 505q0 52 19 91t51 64.5t75.5 38t92.5 12.5t92 -12.5t75 -38t50.5 -64.5t18.5 -91v-309q0 -53 -18.5 -91.5t-50.5 -64.5t-75 -38.5t-92 -12.5t-92.5 12.5t-75.5 38.5t-51 64.5t-19 91.5v309zM178 211q0 -32 8.5 -53.5t23.5 -34.5t34.5 -18.5t41.5 -5.5t41.5 5.5
t34 18.5t23 34.5t8.5 53.5v278q0 32 -8.5 53.5t-23 34.5t-34 18.5t-41.5 5.5t-41.5 -5.5t-34.5 -18.5t-23.5 -34.5t-8.5 -53.5v-278zM106 765q0 57 25 93t76 36q25 0 46 -7t38.5 -15.5t32 -15.5t26.5 -7q18 0 25 12t8 32h84q0 -57 -25.5 -93t-76.5 -36q-24 0 -44 7
t-36.5 15.5t-31.5 15.5t-30 7q-18 0 -25.5 -12t-7.5 -32h-84z" />
    <glyph glyph-name="Odieresis" unicode="&#xd6;" horiz-adv-x="571" 
d="M239 818q0 -31 -15 -50.5t-49 -19.5q-33 0 -48 19.5t-15 50.5t15 51t48 20q34 0 49 -20t15 -51zM460 818q0 -31 -15 -50.5t-49 -19.5q-32 0 -47 19.5t-15 50.5t15 51t47 20q34 0 49 -20t15 -51zM48 505q0 52 19 91t51 64.5t75.5 38t92.5 12.5t92 -12.5t75 -38t50.5 -64.5
t18.5 -91v-309q0 -53 -18.5 -91.5t-50.5 -64.5t-75 -38.5t-92 -12.5t-92.5 12.5t-75.5 38.5t-51 64.5t-19 91.5v309zM178 211q0 -32 8.5 -53.5t23.5 -34.5t34.5 -18.5t41.5 -5.5t41.5 5.5t34 18.5t23 34.5t8.5 53.5v278q0 32 -8.5 53.5t-23 34.5t-34 18.5t-41.5 5.5
t-41.5 -5.5t-34.5 -18.5t-23.5 -34.5t-8.5 -53.5v-278z" />
    <glyph glyph-name="multiply" unicode="&#xd7;" horiz-adv-x="616" 
d="M378 339l196 -179l-69 -63l-197 178l-197 -178l-69 63l196 179l-196 178l69 64l197 -178l197 178l69 -64z" />
    <glyph glyph-name="Oslash" unicode="&#xd8;" horiz-adv-x="571" 
d="M2 162l46 41v302q0 52 19 91t51 64.5t75.5 38t92.5 12.5q69 0 125.5 -25t85.5 -76l74 67v-152l-47 -42v-287q0 -53 -19 -91.5t-51 -64.5t-75.5 -38.5t-92.5 -12.5q-67 0 -122 23t-86 71l-76 -69v148zM178 321l213 193q-7 49 -36.5 68t-68.5 19q-22 0 -41.5 -5.5
t-34.5 -18.5t-23.5 -34.5t-8.5 -53.5v-168zM286 100q22 0 41.5 5.5t34 18.5t23 34.5t8.5 53.5v153l-212 -190q10 -42 38.5 -58.5t66.5 -16.5z" />
    <glyph glyph-name="Ugrave" unicode="&#xd9;" horiz-adv-x="561" 
d="M179 201q0 -31 7 -50.5t19.5 -31t30.5 -15.5t40 -4q32 0 61 17t43 40v543h130v-700h-77l-33 60q-12 -15 -30 -27.5t-40 -22.5t-46.5 -15.5t-48.5 -5.5q-97 0 -142 48.5t-45 153.5v509h131v-499zM257 930l78 -147l-58 -36l-108 129z" />
    <glyph glyph-name="Uacute" unicode="&#xda;" horiz-adv-x="561" 
d="M311 926l91 -48l-104 -125l-62 31zM179 201q0 -31 7 -50.5t19.5 -31t30.5 -15.5t40 -4q32 0 61 17t43 40v543h130v-700h-77l-33 60q-12 -15 -30 -27.5t-40 -22.5t-46.5 -15.5t-48.5 -5.5q-97 0 -142 48.5t-45 153.5v509h131v-499z" />
    <glyph glyph-name="Ucircumflex" unicode="&#xdb;" horiz-adv-x="561" 
d="M231 888h98l91 -132h-102l-39 69l-37 -69h-104zM179 201q0 -31 7 -50.5t19.5 -31t30.5 -15.5t40 -4q32 0 61 17t43 40v543h130v-700h-77l-33 60q-12 -15 -30 -27.5t-40 -22.5t-46.5 -15.5t-48.5 -5.5q-97 0 -142 48.5t-45 153.5v509h131v-499z" />
    <glyph glyph-name="Udieresis" unicode="&#xdc;" horiz-adv-x="561" 
d="M232 818q0 -31 -15 -50.5t-49 -19.5q-33 0 -48 19.5t-15 50.5t15 51t48 20q34 0 49 -20t15 -51zM453 818q0 -31 -15 -50.5t-49 -19.5q-32 0 -47 19.5t-15 50.5t15 51t47 20q34 0 49 -20t15 -51zM179 201q0 -31 7 -50.5t19.5 -31t30.5 -15.5t40 -4q32 0 61 17t43 40v543
h130v-700h-77l-33 60q-12 -15 -30 -27.5t-40 -22.5t-46.5 -15.5t-48.5 -5.5q-97 0 -142 48.5t-45 153.5v509h131v-499z" />
    <glyph glyph-name="Yacute" unicode="&#xdd;" horiz-adv-x="608" 
d="M148 700l116 -227q19 -40 29.5 -66t12.5 -32q2 6 11.5 31.5t30.5 66.5l115 227h144l-238 -429v-271h-130v269l-239 431h148zM341 926l91 -48l-104 -125l-62 31z" />
    <glyph glyph-name="Thorn" unicode="&#xde;" horiz-adv-x="540" 
d="M52 700h131v-116h101q100 0 158.5 -55t58.5 -158v-42q0 -103 -58.5 -158t-158.5 -55h-101v-116h-131v700zM284 224q42 0 64 27.5t22 88.5v20q0 61 -22 88t-64 27h-101v-251h101z" />
    <glyph glyph-name="germandbls" unicode="&#xdf;" horiz-adv-x="530" 
d="M64 359h-55v102h55v89q0 98 47.5 154t138.5 56q37 0 70.5 -9.5t58.5 -28.5t39.5 -47t14.5 -65q0 -36 -12 -62.5t-27 -49t-27 -43t-12 -44.5q0 -21 11 -39t27 -36t35 -37t35 -42t27 -51.5t11 -63.5q0 -33 -10 -61.5t-31 -49.5t-55 -33t-82 -12q-20 0 -43.5 4t-40.5 11v100
q17 -6 40 -8.5t33 -2.5q25 0 46.5 15.5t21.5 47.5q0 21 -10 38.5t-25.5 34.5t-33 34t-33 38.5t-25.5 48t-10 62.5q0 31 11.5 54t25.5 44.5t25.5 43t11.5 49.5q0 24 -15 41.5t-49 17.5q-36 0 -50.5 -27t-14.5 -75v-557h-124v359z" />
    <glyph glyph-name="agrave" unicode="&#xe0;" horiz-adv-x="507" 
d="M330 407q-11 24 -35.5 42t-53.5 18q-38 0 -52 -21.5t-14 -73.5v-184q0 -52 14 -73.5t52 -21.5q29 0 53.5 18t35.5 42v254zM454 560v-560h-76l-32 56q-22 -28 -56 -47t-79 -19q-81 0 -120.5 49t-39.5 139v205q0 90 39.5 138.5t120.5 48.5q45 0 79 -19t56 -47l32 56h76z
M242 790l78 -147l-58 -36l-108 129z" />
    <glyph glyph-name="aacute" unicode="&#xe1;" horiz-adv-x="507" 
d="M330 407q-11 24 -35.5 42t-53.5 18q-38 0 -52 -21.5t-14 -73.5v-184q0 -52 14 -73.5t52 -21.5q29 0 53.5 18t35.5 42v254zM454 560v-560h-76l-32 56q-22 -28 -56 -47t-79 -19q-81 0 -120.5 49t-39.5 139v205q0 90 39.5 138.5t120.5 48.5q45 0 79 -19t56 -47l32 56h76z
M301 786l91 -48l-104 -125l-62 31z" />
    <glyph glyph-name="acircumflex" unicode="&#xe2;" horiz-adv-x="507" 
d="M217 748h98l91 -132h-102l-39 69l-37 -69h-104zM330 407q-11 24 -35.5 42t-53.5 18q-38 0 -52 -21.5t-14 -73.5v-184q0 -52 14 -73.5t52 -21.5q29 0 53.5 18t35.5 42v254zM454 560v-560h-76l-32 56q-22 -28 -56 -47t-79 -19q-81 0 -120.5 49t-39.5 139v205
q0 90 39.5 138.5t120.5 48.5q45 0 79 -19t56 -47l32 56h76z" />
    <glyph glyph-name="atilde" unicode="&#xe3;" horiz-adv-x="507" 
d="M330 407q-11 24 -35.5 42t-53.5 18q-38 0 -52 -21.5t-14 -73.5v-184q0 -52 14 -73.5t52 -21.5q29 0 53.5 18t35.5 42v254zM454 560v-560h-76l-32 56q-22 -28 -56 -47t-79 -19q-81 0 -120.5 49t-39.5 139v205q0 90 39.5 138.5t120.5 48.5q45 0 79 -19t56 -47l32 56h76z
M81 625q0 57 25 93t76 36q25 0 46 -7t38.5 -15.5t32 -15.5t26.5 -7q18 0 25 12t8 32h84q0 -57 -25.5 -93t-76.5 -36q-24 0 -44 7t-36.5 15.5t-31.5 15.5t-30 7q-18 0 -25.5 -12t-7.5 -32h-84z" />
    <glyph glyph-name="adieresis" unicode="&#xe4;" horiz-adv-x="495" 
d="M374 608q-32 0 -46.5 18.5t-14.5 50.5t14.5 51.5t46.5 19.5q34 0 49 -19.5t15 -51.5t-15 -50.5t-49 -18.5zM162 608q-32 0 -46.5 18.5t-14.5 50.5t14.5 51.5t46.5 19.5t48 -19.5t16 -51.5t-16 -50.5t-48 -18.5zM330 407q-11 24 -35.5 42t-53.5 18q-38 0 -52 -21.5
t-14 -73.5v-184q0 -52 14 -73.5t52 -21.5q29 0 53.5 18t35.5 42v254zM454 560v-560h-76l-32 56q-22 -28 -56 -47t-79 -19q-81 0 -120.5 49t-39.5 139v205q0 90 39.5 138.5t120.5 48.5q45 0 79 -19t56 -47l32 56h76z" />
    <glyph glyph-name="aring" unicode="&#xe5;" horiz-adv-x="504" 
d="M184 693q0 35 22.5 56.5t54.5 21.5q35 0 57.5 -21.5t22.5 -56.5v-10q0 -38 -22.5 -58.5t-57.5 -20.5q-32 0 -54.5 20.5t-22.5 58.5v10zM261 650q29 0 29 37t-29 37q-27 0 -27 -37t27 -37zM330 407q-11 24 -35.5 42t-53.5 18q-38 0 -52 -21.5t-14 -73.5v-184
q0 -52 14 -73.5t52 -21.5q29 0 53.5 18t35.5 42v254zM454 560v-560h-76l-32 56q-22 -28 -56 -47t-79 -19q-81 0 -120.5 49t-39.5 139v205q0 90 39.5 138.5t120.5 48.5q45 0 79 -19t56 -47l32 56h76z" />
    <glyph glyph-name="ae" unicode="&#xe6;" horiz-adv-x="783" 
d="M455 234v-41q-1 -29 6 -48.5t19 -31.5t29 -17t37 -5q44 0 88.5 9t80.5 23v-95q-38 -18 -87 -28t-102 -10q-116 0 -165 74q-26 -35 -63.5 -54.5t-82.5 -19.5q-81 0 -122.5 49.5t-41.5 141.5v193q0 98 42 147t139 49q48 0 87 -8.5t77 -28.5q27 20 61.5 28.5t75.5 8.5
q95 0 150 -46t55 -144v-146h-283zM330 454q-22 8 -43 11t-45 3q-32 0 -49.5 -19t-17.5 -70v-187q0 -54 15 -76.5t53 -22.5q29 0 51.5 16.5t35.5 40.5v304zM614 369q0 57 -20 78t-59 21t-60 -17t-21 -53v-74h160v45z" />
    <glyph glyph-name="ccedilla" unicode="&#xe7;" horiz-adv-x="414" 
d="M380 446q-62 24 -115 24q-45 0 -68 -22.5t-23 -81.5v-173q0 -58 25.5 -80t65.5 -22q56 0 115 23v-94q-26 -12 -52 -19.5t-55 -9.5l-8 -24q23 -6 39.5 -21t16.5 -42q0 -21 -9.5 -34.5t-24.5 -22t-33.5 -11.5t-35.5 -3q-32 0 -59 9v46q7 -2 16.5 -3.5t17.5 -1.5
q15 0 24.5 6.5t9.5 18.5q0 11 -9 17t-20 8q-12 3 -28 1l24 61q-70 11 -107 53t-37 126v212q0 94 52.5 139t149.5 45q36 0 66.5 -7.5t61.5 -21.5v-95v0z" />
    <glyph glyph-name="egrave" unicode="&#xe8;" horiz-adv-x="502" 
d="M174 193q0 -29 6.5 -48.5t18.5 -31.5t28.5 -17t36.5 -5q39 0 85.5 9t83.5 23v-94q-36 -19 -82.5 -29t-97.5 -10q-97 0 -150 42.5t-53 141.5v206q0 99 54 144.5t148 45.5q47 0 85 -11.5t64.5 -34.5t41 -59t14.5 -85v-146h-283v-41zM332 321v55q0 57 -19.5 78.5t-59.5 21.5
q-39 0 -59.5 -21t-20.5 -79v-55h159zM224 790l78 -147l-58 -36l-108 129z" />
    <glyph glyph-name="eacute" unicode="&#xe9;" horiz-adv-x="502" 
d="M284 786l91 -48l-104 -125l-62 31zM174 193q0 -29 6.5 -48.5t18.5 -31.5t28.5 -17t36.5 -5q39 0 85.5 9t83.5 23v-94q-36 -19 -82.5 -29t-97.5 -10q-97 0 -150 42.5t-53 141.5v206q0 99 54 144.5t148 45.5q47 0 85 -11.5t64.5 -34.5t41 -59t14.5 -85v-146h-283v-41z
M332 321v55q0 57 -19.5 78.5t-59.5 21.5q-39 0 -59.5 -21t-20.5 -79v-55h159z" />
    <glyph glyph-name="ecircumflex" unicode="&#xea;" horiz-adv-x="502" 
d="M202 748h98l91 -132h-102l-39 69l-37 -69h-104zM174 193q0 -29 6.5 -48.5t18.5 -31.5t28.5 -17t36.5 -5q39 0 85.5 9t83.5 23v-94q-36 -19 -82.5 -29t-97.5 -10q-97 0 -150 42.5t-53 141.5v206q0 99 54 144.5t148 45.5q47 0 85 -11.5t64.5 -34.5t41 -59t14.5 -85v-146
h-283v-41zM332 321v55q0 57 -19.5 78.5t-59.5 21.5q-39 0 -59.5 -21t-20.5 -79v-55h159z" />
    <glyph glyph-name="edieresis" unicode="&#xeb;" horiz-adv-x="502" 
d="M215 678q0 -31 -15 -50.5t-49 -19.5q-33 0 -48 19.5t-15 50.5t15 51t48 20q34 0 49 -20t15 -51zM436 678q0 -31 -15 -50.5t-49 -19.5q-32 0 -47 19.5t-15 50.5t15 51t47 20q34 0 49 -20t15 -51zM174 193q0 -29 6.5 -48.5t18.5 -31.5t28.5 -17t36.5 -5q39 0 85.5 9
t83.5 23v-94q-36 -19 -82.5 -29t-97.5 -10q-97 0 -150 42.5t-53 141.5v206q0 99 54 144.5t148 45.5q47 0 85 -11.5t64.5 -34.5t41 -59t14.5 -85v-146h-283v-41zM332 321v55q0 57 -19.5 78.5t-59.5 21.5q-39 0 -59.5 -21t-20.5 -79v-55h159z" />
    <glyph glyph-name="igrave" unicode="&#xec;" horiz-adv-x="232" 
d="M178 560v-560h-124v560h124zM85 790l78 -147l-58 -36l-108 129z" />
    <glyph glyph-name="iacute" unicode="&#xed;" horiz-adv-x="232" 
d="M153 786l91 -48l-104 -125l-62 31zM178 560v-560h-124v560h124z" />
    <glyph glyph-name="icircumflex" unicode="&#xee;" horiz-adv-x="232" 
d="M68 748h98l91 -132h-102l-39 69l-37 -69h-104zM178 560v-560h-124v560h124z" />
    <glyph glyph-name="idieresis" unicode="&#xef;" horiz-adv-x="232" 
d="M24 609q-32 0 -46.5 19t-14.5 51t14.5 52t46.5 20q33 0 48.5 -20t15.5 -52t-15.5 -51t-48.5 -19zM207 609q-32 0 -46.5 19t-14.5 51t14.5 52t46.5 20q33 0 48.5 -20t15.5 -52t-15.5 -51t-48.5 -19zM178 560v-560h-124v560h124z" />
    <glyph glyph-name="eth" unicode="&#xf0;" horiz-adv-x="507" 
d="M52 318q0 92 41 142t122 50q35 0 65.5 -14.5t56.5 -37.5v49q0 18 -2.5 34.5t-7.5 30.5l-42 -38l-55 50l41 40q-7 5 -21 8.5t-28 3.5q-36 0 -66 -8v96q18 5 39.5 8t41.5 3q36 0 66.5 -9t54.5 -24l57 50l56 -49l-55 -51q17 -22 27.5 -56t10.5 -72v-338q0 -99 -54 -147.5
t-148 -48.5q-97 0 -148.5 47t-51.5 145v136zM177 188q0 -57 19 -79t57 -22t57 24.5t19 81.5l1 154q-11 23 -35 41t-51 18q-38 0 -52.5 -22.5t-14.5 -73.5v-122z" />
    <glyph glyph-name="ntilde" unicode="&#xf1;" 
d="M69 625q0 57 25 93t76 36q25 0 46 -7t38.5 -15.5t32 -15.5t26.5 -7q18 0 25 12t8 32h84q0 -57 -25.5 -93t-76.5 -36q-24 0 -44 7t-36.5 15.5t-31.5 15.5t-30 7q-18 0 -25.5 -12t-7.5 -32h-84zM263 467q-26 0 -49 -16t-35 -39v-412h-125v560h74l31 -56q23 28 56 47t79 19
q80 0 119.5 -48.5t39.5 -138.5v-383h-124v372q0 52 -14.5 73.5t-51.5 21.5z" />
    <glyph glyph-name="ograve" unicode="&#xf2;" horiz-adv-x="504" 
d="M212 790l78 -147l-58 -36l-108 129zM173 188q0 -58 20 -80.5t59 -22.5q38 0 58.5 22.5t20.5 80.5v184q0 59 -20.5 81t-58.5 22q-39 0 -59 -22t-20 -81v-184zM48 380q0 98 54.5 144t149.5 46t149 -45.5t54 -144.5v-200q0 -98 -54 -144t-149 -46q-96 0 -150 46t-54 144v200
z" />
    <glyph glyph-name="oacute" unicode="&#xf3;" horiz-adv-x="504" 
d="M294 786l91 -48l-104 -125l-62 31zM173 188q0 -58 20 -80.5t59 -22.5q38 0 58.5 22.5t20.5 80.5v184q0 59 -20.5 81t-58.5 22q-39 0 -59 -22t-20 -81v-184zM48 380q0 98 54.5 144t149.5 46t149 -45.5t54 -144.5v-200q0 -98 -54 -144t-149 -46q-96 0 -150 46t-54 144v200z
" />
    <glyph glyph-name="ocircumflex" unicode="&#xf4;" horiz-adv-x="504" 
d="M202 748h98l91 -132h-102l-39 69l-37 -69h-104zM173 188q0 -58 20 -80.5t59 -22.5q38 0 58.5 22.5t20.5 80.5v184q0 59 -20.5 81t-58.5 22q-39 0 -59 -22t-20 -81v-184zM48 380q0 98 54.5 144t149.5 46t149 -45.5t54 -144.5v-200q0 -98 -54 -144t-149 -46q-96 0 -150 46
t-54 144v200z" />
    <glyph glyph-name="otilde" unicode="&#xf5;" horiz-adv-x="504" 
d="M173 188q0 -58 20 -80.5t59 -22.5q38 0 58.5 22.5t20.5 80.5v184q0 59 -20.5 81t-58.5 22q-39 0 -59 -22t-20 -81v-184zM48 380q0 98 54.5 144t149.5 46t149 -45.5t54 -144.5v-200q0 -98 -54 -144t-149 -46q-96 0 -150 46t-54 144v200zM67 625q0 57 25 93t76 36
q25 0 46 -7t38.5 -15.5t32 -15.5t26.5 -7q18 0 25 12t8 32h84q0 -57 -25.5 -93t-76.5 -36q-24 0 -44 7t-36.5 15.5t-31.5 15.5t-30 7q-18 0 -25.5 -12t-7.5 -32h-84z" />
    <glyph glyph-name="odieresis" unicode="&#xf6;" horiz-adv-x="504" 
d="M204 678q0 -31 -15 -50.5t-49 -19.5q-33 0 -48 19.5t-15 50.5t15 51t48 20q34 0 49 -20t15 -51zM425 678q0 -31 -15 -50.5t-49 -19.5q-32 0 -47 19.5t-15 50.5t15 51t47 20q34 0 49 -20t15 -51zM173 188q0 -58 20 -80.5t59 -22.5q38 0 58.5 22.5t20.5 80.5v184
q0 59 -20.5 81t-58.5 22q-39 0 -59 -22t-20 -81v-184zM48 380q0 98 54.5 144t149.5 46t149 -45.5t54 -144.5v-200q0 -98 -54 -144t-149 -46q-96 0 -150 46t-54 144v200z" />
    <glyph glyph-name="divide" unicode="&#xf7;" horiz-adv-x="530" 
d="M265 -13q-33 0 -52.5 17.5t-19.5 52.5q0 37 19.5 54.5t52.5 17.5t53.5 -17.5t20.5 -54.5q0 -35 -20.5 -52.5t-53.5 -17.5zM42 324h448v-90h-448v90zM339 498q0 -35 -20.5 -52.5t-53.5 -17.5t-52.5 17.5t-19.5 52.5q0 37 19.5 54.5t52.5 17.5t53.5 -17.5t20.5 -54.5z" />
    <glyph glyph-name="oslash" unicode="&#xf8;" horiz-adv-x="503" 
d="M498 415l-43 -36v-199q0 -98 -54 -144t-149 -46q-63 0 -107.5 19.5t-69.5 61.5l-70 -57v132l43 35v199q0 98 54.5 144t149.5 46q62 0 107 -19.5t69 -61.5l70 58v-132zM173 280l156 131q-8 36 -28 50t-49 14q-39 0 -59 -22t-20 -81v-92zM331 282l-156 -132
q6 -35 24.5 -49.5t52.5 -14.5q38 0 58.5 22t20.5 80v94z" />
    <glyph glyph-name="ugrave" unicode="&#xf9;" horiz-adv-x="501" 
d="M240 93q27 0 49.5 16t34.5 39v412h125v-560h-74l-32 56q-23 -28 -62 -47t-84 -19q-80 0 -113 43t-33 128v399h125v-375q0 -52 13 -72t51 -20zM223 790l78 -147l-58 -36l-108 129z" />
    <glyph glyph-name="uacute" unicode="&#xfa;" horiz-adv-x="501" 
d="M286 786l91 -48l-104 -125l-62 31zM240 93q27 0 49.5 16t34.5 39v412h125v-560h-74l-32 56q-23 -28 -62 -47t-84 -19q-80 0 -113 43t-33 128v399h125v-375q0 -52 13 -72t51 -20z" />
    <glyph glyph-name="ucircumflex" unicode="&#xfb;" horiz-adv-x="501" 
d="M199 748h98l91 -132h-102l-39 69l-37 -69h-104zM240 93q27 0 49.5 16t34.5 39v412h125v-560h-74l-32 56q-23 -28 -62 -47t-84 -19q-80 0 -113 43t-33 128v399h125v-375q0 -52 13 -72t51 -20z" />
    <glyph glyph-name="udieresis" unicode="&#xfc;" horiz-adv-x="501" 
d="M200 678q0 -31 -15 -50.5t-49 -19.5q-33 0 -48 19.5t-15 50.5t15 51t48 20q34 0 49 -20t15 -51zM421 678q0 -31 -15 -50.5t-49 -19.5q-32 0 -47 19.5t-15 50.5t15 51t47 20q34 0 49 -20t15 -51zM240 93q27 0 49.5 16t34.5 39v412h125v-560h-74l-32 56q-23 -28 -62 -47
t-84 -19q-80 0 -113 43t-33 128v399h125v-375q0 -52 13 -72t51 -20z" />
    <glyph glyph-name="yacute" unicode="&#xfd;" 
d="M329 560h124v-554q0 -49 -13.5 -81t-39.5 -51t-63.5 -26.5t-85.5 -7.5q-50 0 -91 8.5t-76 23.5v97q35 -15 74.5 -24t81.5 -9q18 0 34.5 3t28.5 12.5t19 27t7 45.5v40q-22 -21 -51.5 -35t-67.5 -14q-81 0 -120 49t-39 139v357h124v-346q0 -52 14 -74t52 -22q28 0 52 18.5
t36 41.5v382zM275 786l91 -48l-104 -125l-62 31z" />
    <glyph glyph-name="thorn" unicode="&#xfe;" horiz-adv-x="507" 
d="M179 521q21 22 51.5 35.5t66.5 13.5q81 0 120.5 -48.5t39.5 -138.5v-205q0 -90 -39.5 -139t-120.5 -49q-36 0 -66.5 13.5t-51.5 35.5v-189h-125v884l125 19v-232zM267 467q-29 0 -52.5 -18t-35.5 -42v-254q12 -24 35.5 -42t52.5 -18q38 0 52 21.5t14 73.5v184
q0 52 -14 73.5t-52 21.5z" />
    <glyph glyph-name="ydieresis" unicode="&#xff;" 
d="M204 678q0 -31 -15 -50.5t-49 -19.5q-33 0 -48 19.5t-15 50.5t15 51t48 20q34 0 49 -20t15 -51zM425 678q0 -31 -15 -50.5t-49 -19.5q-32 0 -47 19.5t-15 50.5t15 51t47 20q34 0 49 -20t15 -51zM329 560h124v-554q0 -49 -13.5 -81t-39.5 -51t-63.5 -26.5t-85.5 -7.5
q-50 0 -91 8.5t-76 23.5v97q35 -15 74.5 -24t81.5 -9q18 0 34.5 3t28.5 12.5t19 27t7 45.5v40q-22 -21 -51.5 -35t-67.5 -14q-81 0 -120 49t-39 139v357h124v-346q0 -52 14 -74t52 -22q28 0 52 18.5t36 41.5v382z" />
    <glyph glyph-name="Amacron" unicode="&#x100;" horiz-adv-x="559" 
d="M424 0l-41 146h-208l-41 -146h-134l222 700h115l221 -700h-134zM130 858h287v-90h-287v90zM204 249h150l-50 180q-6 19 -10.5 39t-7.5 37.5t-5 30t-2 16.5q-1 -5 -3 -17.5t-5 -30t-7 -37.5t-9 -38z" />
    <glyph glyph-name="amacron" unicode="&#x101;" horiz-adv-x="507" 
d="M330 407q-11 24 -35.5 42t-53.5 18q-38 0 -52 -21.5t-14 -73.5v-184q0 -52 14 -73.5t52 -21.5q29 0 53.5 18t35.5 42v254zM454 560v-560h-76l-32 56q-22 -28 -56 -47t-79 -19q-81 0 -120.5 49t-39.5 139v205q0 90 39.5 138.5t120.5 48.5q45 0 79 -19t56 -47l32 56h76z
M115 717h288v-89h-288v89z" />
    <glyph glyph-name="Abreve" unicode="&#x102;" horiz-adv-x="559" 
d="M424 0l-41 146h-208l-41 -146h-134l222 700h115l221 -700h-134zM237 881q0 -31 11 -44.5t32 -13.5q22 0 33 13.5t11 44.5h79q0 -36 -10 -60.5t-27 -40t-39 -22.5t-47 -7q-53 0 -87.5 31t-34.5 99h79zM204 249h150l-50 180q-6 19 -10.5 39t-7.5 37.5t-5 30t-2 16.5
q-1 -5 -3 -17.5t-5 -30t-7 -37.5t-9 -38z" />
    <glyph glyph-name="abreve" unicode="&#x103;" horiz-adv-x="507" 
d="M330 407q-11 24 -35.5 42t-53.5 18q-38 0 -52 -21.5t-14 -73.5v-184q0 -52 14 -73.5t52 -21.5q29 0 53.5 18t35.5 42v254zM454 560v-560h-76l-32 56q-22 -28 -56 -47t-79 -19q-81 0 -120.5 49t-39.5 139v205q0 90 39.5 138.5t120.5 48.5q45 0 79 -19t56 -47l32 56h76z
M258 680q21 0 33 14.5t12 46.5h76q0 -36 -10 -60.5t-26.5 -40t-38.5 -22.5t-46 -7q-53 0 -87.5 31t-34.5 99h77q0 -32 11.5 -46.5t33.5 -14.5z" />
    <glyph glyph-name="Aogonek" unicode="&#x104;" horiz-adv-x="559" 
d="M507 -72q0 -32 30 -32q10 0 20.5 2t21.5 4v-53q-15 -7 -34.5 -9.5t-39.5 -2.5q-39 0 -61.5 18t-22.5 58q0 26 17.5 50t40.5 37h-55l-41 146h-208l-41 -146h-134l222 700h115l221 -700q-22 -14 -36.5 -33t-14.5 -39zM354 249l-50 180q-6 19 -10.5 39t-7.5 37.5t-5 30
t-2 16.5q-1 -5 -3 -17.5t-5 -30t-7 -37.5t-9 -38l-53 -180h152z" />
    <glyph glyph-name="aogonek" unicode="&#x105;" horiz-adv-x="507" 
d="M404 -72q0 -32 29 -32q11 0 21 2t21 4v-53q-16 -7 -35 -9.5t-38 -2.5q-39 0 -62 18t-23 58q0 26 19 51t41 38l-31 54q-22 -28 -56 -47t-79 -19q-81 0 -120.5 49t-39.5 139v205q0 90 39.5 138.5t120.5 48.5q45 0 79 -19t56 -47l32 56h76v-560q-21 -14 -35.5 -33t-14.5 -39
zM330 407q-11 24 -35.5 42t-53.5 18q-38 0 -52 -21.5t-14 -73.5v-184q0 -52 14 -73.5t52 -21.5q29 0 53.5 18t35.5 42v254z" />
    <glyph glyph-name="Cacute" unicode="&#x106;" horiz-adv-x="472" 
d="M291 926l91 -48l-104 -125l-62 31zM440 125v-103q-80 -33 -172 -33q-104 0 -162 50.5t-58 155.5v310q0 105 58 155.5t162 50.5q92 0 172 -33v-103q-43 14 -80 20t-75 6q-46 0 -76.5 -24.5t-30.5 -87.5v-278q0 -63 30.5 -87.5t76.5 -24.5q38 0 75 6t80 20z" />
    <glyph glyph-name="cacute" unicode="&#x107;" horiz-adv-x="414" 
d="M289 786l91 -48l-104 -125l-62 31zM174 366v-173q0 -58 25.5 -80t65.5 -22q56 0 115 23v-94q-31 -14 -61.5 -22t-66.5 -8q-97 0 -149.5 42.5t-52.5 141.5v212q0 94 52.5 139t149.5 45q36 0 66.5 -7.5t61.5 -21.5v-95q-62 24 -115 24q-45 0 -68 -22.5t-23 -81.5z" />
    <glyph glyph-name="Cdotaccent" unicode="&#x10a;" horiz-adv-x="472" 
d="M440 125v-103q-80 -33 -172 -33q-104 0 -162 50.5t-58 155.5v310q0 105 58 155.5t162 50.5q92 0 172 -33v-103q-43 14 -80 20t-75 6q-46 0 -76.5 -24.5t-30.5 -87.5v-278q0 -63 30.5 -87.5t76.5 -24.5q38 0 75 6t80 20zM349 824q0 -35 -20 -52t-53 -17t-53.5 17t-20.5 52
q0 37 20.5 55t53.5 18t53 -18t20 -55z" />
    <glyph glyph-name="cdotaccent" unicode="&#x10b;" horiz-adv-x="414" 
d="M174 366v-173q0 -58 25.5 -80t65.5 -22q56 0 115 23v-94q-31 -14 -61.5 -22t-66.5 -8q-97 0 -149.5 42.5t-52.5 141.5v212q0 94 52.5 139t149.5 45q36 0 66.5 -7.5t61.5 -21.5v-95q-62 24 -115 24q-45 0 -68 -22.5t-23 -81.5zM325 684q0 -35 -20 -52t-53 -17t-53.5 17
t-20.5 52q0 37 20.5 55t53.5 18t53 -18t20 -55z" />
    <glyph glyph-name="Ccaron" unicode="&#x10c;" horiz-adv-x="472" 
d="M232 888l38 -69l40 69h102l-92 -132h-98l-94 132h104zM440 125v-103q-80 -33 -172 -33q-104 0 -162 50.5t-58 155.5v310q0 105 58 155.5t162 50.5q92 0 172 -33v-103q-43 14 -80 20t-75 6q-46 0 -76.5 -24.5t-30.5 -87.5v-278q0 -63 30.5 -87.5t76.5 -24.5q38 0 75 6
t80 20z" />
    <glyph glyph-name="ccaron" unicode="&#x10d;" horiz-adv-x="414" 
d="M212 748l38 -69l40 69h102l-92 -132h-98l-94 132h104zM174 366v-173q0 -58 25.5 -80t65.5 -22q56 0 115 23v-94q-31 -14 -61.5 -22t-66.5 -8q-97 0 -149.5 42.5t-52.5 141.5v212q0 94 52.5 139t149.5 45q36 0 66.5 -7.5t61.5 -21.5v-95q-62 24 -115 24q-45 0 -68 -22.5
t-23 -81.5z" />
    <glyph glyph-name="Dcaron" unicode="&#x10e;" horiz-adv-x="557" 
d="M229 888l38 -69l40 69h102l-92 -132h-98l-94 132h104zM52 700h241q101 0 158.5 -53.5t57.5 -157.5v-278q0 -104 -57.5 -157.5t-158.5 -53.5h-241v700zM293 110q42 0 65 27t23 90v246q0 63 -23 89.5t-65 26.5h-110v-479h110z" />
    <glyph glyph-name="dcaron" unicode="&#x10f;" horiz-adv-x="507" 
d="M330 407q-11 24 -35.5 42t-53.5 18q-38 0 -52 -21.5t-14 -73.5v-184q0 -52 14 -73.5t52 -21.5q29 0 53.5 18t35.5 42v254zM454 753v-753h-85l-23 56q-22 -28 -56 -47t-79 -19q-81 0 -120 49t-39 139v205q0 90 39 138.5t120 48.5q38 0 67.5 -13.5t51.5 -35.5v213zM495 534
q14 15 24 38t12 41q-17 5 -28 20.5t-11 35.5q0 30 18 46.5t47 16.5t47.5 -16.5t18.5 -46.5q0 -17 -5 -35.5t-13.5 -36.5t-19 -34.5t-20.5 -28.5h-70z" />
    <glyph glyph-name="Dcroat" unicode="&#x110;" horiz-adv-x="559" 
d="M52 307h-43v90h43v303h241q101 0 158.5 -53.5t57.5 -157.5v-278q0 -104 -57.5 -157.5t-158.5 -53.5h-241v307zM293 110q42 0 65 27t23 90v246q0 63 -23 89.5t-65 26.5h-110v-192h115v-90h-115v-197h110z" />
    <glyph glyph-name="dcroat" unicode="&#x111;" horiz-adv-x="507" 
d="M507 609h-53v-609h-85l-23 56q-22 -28 -56 -47t-79 -19q-81 0 -120 49t-39 139v205q0 90 39 138.5t120 48.5q38 0 67.5 -13.5t51.5 -35.5v88h-78v79h78v46l124 19v-65h53v-79zM330 407q-11 24 -35.5 42t-53.5 18q-38 0 -52 -21.5t-14 -73.5v-184q0 -52 14 -73.5t52 -21.5
q29 0 53.5 18t35.5 42v254z" />
    <glyph glyph-name="Emacron" unicode="&#x112;" horiz-adv-x="480" 
d="M102 857h288v-89h-288v89zM52 700h390v-111h-259v-179h216v-109h-216v-191h266v-110h-397v700z" />
    <glyph glyph-name="emacron" unicode="&#x113;" horiz-adv-x="502" 
d="M115 717h288v-89h-288v89zM174 193q0 -29 6.5 -48.5t18.5 -31.5t28.5 -17t36.5 -5q39 0 85.5 9t83.5 23v-94q-36 -19 -82.5 -29t-97.5 -10q-97 0 -150 42.5t-53 141.5v206q0 99 54 144.5t148 45.5q47 0 85 -11.5t64.5 -34.5t41 -59t14.5 -85v-146h-283v-41zM332 321v55
q0 57 -19.5 78.5t-59.5 21.5q-39 0 -59.5 -21t-20.5 -79v-55h159z" />
    <glyph glyph-name="Edotaccent" unicode="&#x116;" horiz-adv-x="480" 
d="M52 700h390v-111h-259v-179h216v-109h-216v-191h266v-110h-397v700zM322 824q0 -35 -20 -52t-53 -17t-53.5 17t-20.5 52q0 37 20.5 55t53.5 18t53 -18t20 -55z" />
    <glyph glyph-name="edotaccent" unicode="&#x117;" horiz-adv-x="502" 
d="M174 193q0 -29 6.5 -48.5t18.5 -31.5t28.5 -17t36.5 -5q39 0 85.5 9t83.5 23v-94q-36 -19 -82.5 -29t-97.5 -10q-97 0 -150 42.5t-53 141.5v206q0 99 54 144.5t148 45.5q47 0 85 -11.5t64.5 -34.5t41 -59t14.5 -85v-146h-283v-41zM332 321v55q0 57 -19.5 78.5t-59.5 21.5
q-39 0 -59.5 -21t-20.5 -79v-55h159zM326 684q0 -35 -20 -52t-53 -17t-53.5 17t-20.5 52q0 37 20.5 55t53.5 18t53 -18t20 -55z" />
    <glyph glyph-name="Eogonek" unicode="&#x118;" horiz-adv-x="480" 
d="M475 -151q-16 -8 -34.5 -10t-38.5 -2q-39 0 -65 18t-26 58q0 24 18.5 49.5t40.5 37.5h-318v700h390v-111h-259v-178h216v-110h-216v-191h266v-110q-22 -14 -35.5 -33t-13.5 -38q0 -33 29 -33q8 0 16.5 1.5t18.5 3.5z" />
    <glyph glyph-name="eogonek" unicode="&#x119;" horiz-adv-x="502" 
d="M174 193q0 -58 25 -80t65 -22q39 0 85.5 9t83.5 23v-94q-11 -10 -23 -24t-21.5 -28.5t-15.5 -27t-6 -20.5q0 -18 8 -25.5t23 -7.5q14 0 37 5l9 -52q-19 -7 -39 -9.5t-41 -2.5q-37 0 -60.5 16t-23.5 54q0 23 13.5 46t36.5 43q-36 -6 -77 -6q-97 0 -150 42.5t-53 141.5v206
q0 99 54 144.5t149 45.5q94 0 149 -46t55 -144v-146h-283v-41zM332 321v55q0 57 -19.5 78.5t-59.5 21.5q-39 0 -59.5 -21t-20.5 -79v-55h159z" />
    <glyph glyph-name="Ecaron" unicode="&#x11a;" horiz-adv-x="480" 
d="M210 888l38 -69l40 69h102l-92 -132h-98l-94 132h104zM52 700h390v-111h-259v-179h216v-109h-216v-191h266v-110h-397v700z" />
    <glyph glyph-name="ecaron" unicode="&#x11b;" horiz-adv-x="502" 
d="M218 748l38 -69l40 69h102l-92 -132h-98l-94 132h104zM174 193q0 -29 6.5 -48.5t18.5 -31.5t28.5 -17t36.5 -5q39 0 85.5 9t83.5 23v-94q-36 -19 -82.5 -29t-97.5 -10q-97 0 -150 42.5t-53 141.5v206q0 99 54 144.5t148 45.5q47 0 85 -11.5t64.5 -34.5t41 -59t14.5 -85
v-146h-283v-41zM332 321v55q0 57 -19.5 78.5t-59.5 21.5q-39 0 -59.5 -21t-20.5 -79v-55h159z" />
    <glyph glyph-name="Gbreve" unicode="&#x11e;" horiz-adv-x="510" 
d="M440 575q-43 14 -80 20t-75 6q-46 0 -76.5 -24.5t-30.5 -87.5v-278q0 -62 25.5 -87t68.5 -25q16 -1 30 1t28 7v180h-96v97h226v-360q-43 -17 -90 -26t-104 -9q-105 0 -161.5 51t-56.5 156v309q0 105 58 155.5t162 50.5q92 0 172 -33v-103zM271 820q21 0 33 14.5t12 46.5
h76q0 -36 -10 -60.5t-26.5 -40t-38.5 -22.5t-46 -7q-53 0 -87.5 31t-34.5 99h77q0 -32 11.5 -46.5t33.5 -14.5z" />
    <glyph glyph-name="gbreve" unicode="&#x11f;" 
d="M329 64q-22 -21 -51.5 -35t-67.5 -14q-81 0 -120 49t-39 139v180q0 89 39 138t120 49q46 0 79.5 -19t55.5 -47l22 56h86v-554q0 -49 -13.5 -81t-39.5 -51t-63.5 -26.5t-85.5 -7.5q-50 0 -91 8.5t-76 23.5v97q35 -15 74.5 -24t81.5 -9q18 0 34.5 3t28.5 12.5t19 27t7 45.5
v40zM241 118q28 0 52 18.5t36 41.5v229q-12 24 -36 42t-52 18q-38 0 -52 -21.5t-14 -73.5v-158q0 -52 14 -74t52 -22zM260 680q21 0 33 14.5t12 46.5h76q0 -36 -10 -60.5t-26.5 -40t-38.5 -22.5t-46 -7q-53 0 -87.5 31t-34.5 99h77q0 -32 11.5 -46.5t33.5 -14.5z" />
    <glyph glyph-name="Gdotaccent" unicode="&#x120;" horiz-adv-x="510" 
d="M440 678v-103q-43 14 -80 20t-75 6q-46 0 -76.5 -24.5t-30.5 -87.5v-278q0 -62 25.5 -87t68.5 -25q16 -1 30 1t28 7v180h-96v97h226v-360q-43 -17 -90 -26t-104 -9q-105 0 -161.5 51t-56.5 156v309q0 105 58 155.5t162 50.5q92 0 172 -33zM346 824q0 -35 -20 -52t-53 -17
t-53.5 17t-20.5 52q0 37 20.5 55t53.5 18t53 -18t20 -55z" />
    <glyph glyph-name="gdotaccent" unicode="&#x121;" 
d="M331 684q0 -35 -20 -52t-53 -17t-53.5 17t-20.5 52q0 37 20.5 55t53.5 18t53 -18t20 -55zM329 64q-22 -21 -51.5 -35t-67.5 -14q-81 0 -120 49t-39 139v180q0 89 39 138t120 49q46 0 79.5 -19t55.5 -47l22 56h86v-554q0 -49 -13.5 -81t-39.5 -51t-63.5 -26.5t-85.5 -7.5
q-50 0 -91 8.5t-76 23.5v97q35 -15 74.5 -24t81.5 -9q18 0 34.5 3t28.5 12.5t19 27t7 45.5v40zM241 118q28 0 52 18.5t36 41.5v229q-12 24 -36 42t-52 18q-38 0 -52 -21.5t-14 -73.5v-158q0 -52 14 -74t52 -22z" />
    <glyph glyph-name="uni0122" unicode="&#x122;" horiz-adv-x="510" 
d="M440 575q-43 14 -80 20t-75 6q-46 0 -76.5 -24.5t-30.5 -87.5v-278q0 -62 25.5 -87t68.5 -25q16 -1 30 1t28 7v180h-96v97h226v-360q-43 -17 -90 -26t-104 -9q-105 0 -161.5 51t-56.5 156v309q0 105 58 155.5t162 50.5q92 0 172 -33v-103zM206 -244q14 15 24 38t12 41
q-17 5 -28 20.5t-11 35.5q0 30 18 46.5t47 16.5t47.5 -16.5t18.5 -46.5q0 -17 -5 -35.5t-13.5 -36.5t-19 -34.5t-20.5 -28.5h-70z" />
    <glyph glyph-name="uni0123" unicode="&#x123;" horiz-adv-x="548" 
d="M299 723q12 -7 20 -19.5t8 -29.5q0 -32 -18.5 -48t-47.5 -16q-31 0 -49.5 16t-18.5 48q0 18 7 39t21 40.5t36.5 36t53.5 25.5l30 -43q-14 -8 -26 -21t-16 -28zM329 64q-22 -21 -51.5 -35t-67.5 -14q-81 0 -120 49t-39 139v180q0 89 39 138t120 49q46 0 79.5 -19t55.5 -47
l22 56h86v-554q0 -49 -13.5 -81t-39.5 -51t-63.5 -26.5t-85.5 -7.5q-50 0 -91 8.5t-76 23.5v97q35 -15 74.5 -24t81.5 -9q18 0 34.5 3t28.5 12.5t19 27t7 45.5v40zM241 118q28 0 52 18.5t36 41.5v229q-12 24 -36 42t-52 18q-38 0 -52 -21.5t-14 -73.5v-158q0 -52 14 -74
t52 -22z" />
    <glyph glyph-name="Hbar" unicode="&#x126;" horiz-adv-x="562" 
d="M562 518h-52v-518h-129v305h-198v-305h-131v518h-52v90h52v92h131v-92h198v92h129v-92h52v-90zM381 518h-198v-101h198v101z" />
    <glyph glyph-name="hbar" unicode="&#x127;" 
d="M179 521q21 22 50 35.5t67 13.5q81 0 119.5 -48.5t38.5 -138.5v-383h-123v372q0 52 -13.5 73.5t-51.5 21.5q-29 0 -52 -18t-35 -42v-407h-125v609h-54v74h54v51l125 19v-70h77v-74h-77v-88v0z" />
    <glyph glyph-name="Itilde" unicode="&#x128;" horiz-adv-x="232" 
d="M52 700h131v-700h-131v700zM-69 765q0 57 25 93t76 36q25 0 46 -7t38.5 -15.5t32 -15.5t26.5 -7q18 0 25 12t8 32h84q0 -57 -25.5 -93t-76.5 -36q-24 0 -44 7t-36.5 15.5t-31.5 15.5t-30 7q-18 0 -25.5 -12t-7.5 -32h-84z" />
    <glyph glyph-name="itilde" unicode="&#x129;" horiz-adv-x="232" 
d="M-48 625q0 28 6 52.5t18 42.5t30.5 28t44.5 10q22 0 38 -7.5t28 -16t21.5 -16t19.5 -7.5q17 0 22.5 10.5t6.5 31.5h84q0 -57 -24 -95.5t-75 -38.5q-23 0 -38 7.5t-26 16t-21 16t-23 7.5q-17 0 -22.5 -10.5t-5.5 -30.5h-84zM178 560v-560h-124v560h124z" />
    <glyph glyph-name="Imacron" unicode="&#x12a;" horiz-adv-x="232" 
d="M52 700h131v-700h-131v700zM-27 857h288v-89h-288v89z" />
    <glyph glyph-name="imacron" unicode="&#x12b;" horiz-adv-x="232" 
d="M178 560v-560h-124v560h124zM-28 717h288v-89h-288v89z" />
    <glyph glyph-name="Iogonek" unicode="&#x12e;" horiz-adv-x="232" 
d="M208 -151q-16 -8 -34.5 -10t-38.5 -2q-38 0 -64.5 18t-26.5 58q0 13 5.5 26t14 24.5t19 21t20.5 15.5h-51v700h131v-700q-22 -14 -36 -33t-14 -38q0 -33 30 -33q8 0 16.5 1.5t18.5 3.5z" />
    <glyph glyph-name="iogonek" unicode="&#x12f;" horiz-adv-x="232" 
d="M205 -151q-16 -7 -35 -9.5t-39 -2.5q-39 0 -64 18t-25 58q0 26 17.5 50t39.5 37h-45v560h124v-560q-21 -14 -35.5 -33t-14.5 -39q0 -32 29 -32q9 0 17.5 1.5t19.5 3.5zM191 684q0 -35 -20 -52t-53 -17t-53.5 17t-20.5 52q0 37 20.5 55t53.5 18t53 -18t20 -55z" />
    <glyph glyph-name="Idotaccent" unicode="&#x130;" horiz-adv-x="232" 
d="M190 824q0 -35 -20 -52t-53 -17t-53 17t-20 52q0 37 20 55t53 18t53 -18t20 -55zM52 700h131v-700h-131v700z" />
    <glyph glyph-name="dotlessi" unicode="&#x131;" horiz-adv-x="232" 
d="M178 560v-560h-124v560h124z" />
    <glyph glyph-name="IJ" unicode="&#x132;" horiz-adv-x="493" 
d="M222 -66q50 0 70.5 39.5t20.5 99.5v627h130v-642q0 -104 -54.5 -161t-166.5 -57v94zM52 700h131v-700h-131v700z" />
    <glyph glyph-name="ij" unicode="&#x133;" horiz-adv-x="471" 
d="M178 560v-560h-124v561zM195 682q0 -36 -23.5 -50.5t-55.5 -14.5q-34 0 -56.5 14.5t-22.5 50.5t22.5 51.5t56.5 15.5q32 0 55.5 -15.5t23.5 -51.5zM416 560v-526q0 -92 -48.5 -143t-157.5 -51v86q27 3 43 12t24.5 24t11.5 37t3 51v510h124zM431 675q0 -36 -23 -50.5
t-56 -14.5t-55.5 14.5t-22.5 50.5t22.5 51.5t55.5 15.5t56 -15.5t23 -51.5z" />
    <glyph glyph-name="uni0136" unicode="&#x136;" horiz-adv-x="551" 
d="M183 344v-344h-131v700h131v-337l214 337h145l-224 -341l235 -359h-151zM223 -244q14 15 24 38t12 41q-17 5 -28 20.5t-11 35.5q0 30 18 46.5t47 16.5t47.5 -16.5t18.5 -46.5q0 -17 -5 -35.5t-13.5 -36.5t-19 -34.5t-20.5 -28.5h-70z" />
    <glyph glyph-name="uni0137" unicode="&#x137;" horiz-adv-x="474" 
d="M458 560l-129 -267l146 -293h-134l-119 250h-43v-250h-125v734l125 19v-417h44l105 224h130zM186 -244q14 15 24 38t12 41q-17 5 -28 20.5t-11 35.5q0 30 18 46.5t47 16.5t47.5 -16.5t18.5 -46.5q0 -17 -5 -35.5t-13.5 -36.5t-19 -34.5t-20.5 -28.5h-70z" />
    <glyph glyph-name="kgreenlandic" unicode="&#x138;" horiz-adv-x="474" 
d="M459 560l-119 -268l135 -292h-134l-109 250h-53v-250h-125v560h125v-224h52l95 224h133z" />
    <glyph glyph-name="Lacute" unicode="&#x139;" horiz-adv-x="452" 
d="M161 926l91 -48l-104 -125l-62 31zM52 700h131v-590h256v-110h-387v700z" />
    <glyph glyph-name="lacute" unicode="&#x13a;" horiz-adv-x="233" 
d="M152 929l91 -48l-104 -125l-62 31zM54 0v734l125 19v-753h-125z" />
    <glyph glyph-name="uni013B" unicode="&#x13b;" horiz-adv-x="452" 
d="M52 700h131v-590h256v-110h-387v700zM178 -244q14 15 24 38t12 41q-17 5 -28 20.5t-11 35.5q0 30 18 46.5t47 16.5t47.5 -16.5t18.5 -46.5q0 -17 -5 -35.5t-13.5 -36.5t-19 -34.5t-20.5 -28.5h-70z" />
    <glyph glyph-name="uni013C" unicode="&#x13c;" horiz-adv-x="233" 
d="M54 0v734l125 19v-753h-125zM48 -244q14 15 24 38t12 41q-17 5 -28 20.5t-11 35.5q0 30 18 46.5t47 16.5t47.5 -16.5t18.5 -46.5q0 -17 -5 -35.5t-13.5 -36.5t-19 -34.5t-20.5 -28.5h-70z" />
    <glyph glyph-name="Lcaron" unicode="&#x13d;" horiz-adv-x="452" 
d="M52 700h131v-590h256v-110h-387v700zM338 512q14 15 24 38t12 41q-17 5 -28 20.5t-11 35.5q0 30 18 46.5t47 16.5t47.5 -16.5t18.5 -46.5q0 -17 -5 -35.5t-13.5 -36.5t-19 -34.5t-20.5 -28.5h-70z" />
    <glyph glyph-name="lcaron" unicode="&#x13e;" horiz-adv-x="233" 
d="M54 0v734l125 19v-753h-125zM224 542q14 15 24 38t12 41q-17 5 -28 20.5t-11 35.5q0 30 18 46.5t47 16.5t47.5 -16.5t18.5 -46.5q0 -17 -5 -35.5t-13.5 -36.5t-19 -34.5t-20.5 -28.5h-70z" />
    <glyph glyph-name="Ldot" unicode="&#x13f;" horiz-adv-x="452" 
d="M52 700h131v-590h256v-110h-387v700zM425 398q0 -35 -20 -52.5t-53 -17.5t-53.5 17.5t-20.5 52.5q0 36 20.5 54t53.5 18t53 -18t20 -54z" />
    <glyph glyph-name="ldot" unicode="&#x140;" horiz-adv-x="351" 
d="M362 346q0 -35 -20 -52.5t-54 -17.5q-32 0 -52 17.5t-20 52.5q0 37 20 54.5t52 17.5q34 0 54 -17.5t20 -54.5zM54 0v734l125 19v-753h-125z" />
    <glyph glyph-name="Lslash" unicode="&#x141;" horiz-adv-x="452" 
d="M52 269l-44 -19v115l44 19v316h131v-266l92 42l-1 -115l-91 -41v-210h256v-110h-387v269z" />
    <glyph glyph-name="lslash" unicode="&#x142;" horiz-adv-x="233" 
d="M221 339l-42 -18v-321h-125v270l-43 -18v116l43 18v348l125 19v-317l42 18v-115z" />
    <glyph glyph-name="Nacute" unicode="&#x143;" horiz-adv-x="572" 
d="M52 700h112l227 -407v407h129v-700h-112l-226 403v-403h-130v700zM321 926l91 -48l-104 -125l-62 31z" />
    <glyph glyph-name="nacute" unicode="&#x144;" 
d="M270 786l91 -48l-104 -125l-62 31zM263 467q-26 0 -49 -16t-35 -39v-412h-125v560h74l31 -56q23 28 56 47t79 19q80 0 119.5 -48.5t39.5 -138.5v-383h-124v372q0 52 -14.5 73.5t-51.5 21.5z" />
    <glyph glyph-name="uni0145" unicode="&#x145;" horiz-adv-x="572" 
d="M52 700h112l227 -407v407h129v-700h-112l-226 403v-403h-130v700zM216 -244q14 15 24 38t12 41q-17 5 -28 20.5t-11 35.5q0 30 18 46.5t47 16.5t47.5 -16.5t18.5 -46.5q0 -17 -5 -35.5t-13.5 -36.5t-19 -34.5t-20.5 -28.5h-70z" />
    <glyph glyph-name="uni0146" unicode="&#x146;" 
d="M186 -244q14 15 24 38t12 41q-17 5 -28 20.5t-11 35.5q0 30 18 46.5t47 16.5t47.5 -16.5t18.5 -46.5q0 -17 -5 -35.5t-13.5 -36.5t-19 -34.5t-20.5 -28.5h-70zM263 467q-26 0 -49 -16t-35 -39v-412h-125v560h74l31 -56q23 28 56 47t79 19q80 0 119.5 -48.5t39.5 -138.5
v-383h-124v372q0 52 -14.5 73.5t-51.5 21.5z" />
    <glyph glyph-name="Ncaron" unicode="&#x147;" horiz-adv-x="572" 
d="M52 700h112l227 -407v407h129v-700h-112l-226 403v-403h-130v700zM249 888l38 -69l40 69h102l-92 -132h-98l-94 132h104z" />
    <glyph glyph-name="ncaron" unicode="&#x148;" 
d="M209 748l38 -69l40 69h102l-92 -132h-98l-94 132h104zM263 467q-26 0 -49 -16t-35 -39v-412h-125v560h74l31 -56q23 28 56 47t79 19q80 0 119.5 -48.5t39.5 -138.5v-383h-124v372q0 52 -14.5 73.5t-51.5 21.5z" />
    <glyph glyph-name="Eng" unicode="&#x14a;" horiz-adv-x="572" 
d="M52 700h112l227 -407v407h129v-641q0 -114 -57 -166.5t-165 -52.5v94q25 0 42.5 7.5t28.5 20.5t16.5 30t6.5 36l-210 375v-403h-130v700z" />
    <glyph glyph-name="eng" unicode="&#x14b;" 
d="M159 504q23 28 56 47t79 19q80 0 119.5 -48.5t39.5 -138.5v-351q0 -45 -11 -81t-35.5 -60.5t-63.5 -37.5t-95 -13v93q47 3 64 30t17 80v329q0 52 -14.5 73.5t-51.5 21.5q-26 0 -49 -16t-35 -39v-412h-125v560h74l31 -56v0z" />
    <glyph glyph-name="Omacron" unicode="&#x14c;" horiz-adv-x="571" 
d="M140 857h288v-89h-288v89zM48 505q0 52 19 91t51 64.5t75.5 38t92.5 12.5t92 -12.5t75 -38t50.5 -64.5t18.5 -91v-309q0 -53 -18.5 -91.5t-50.5 -64.5t-75 -38.5t-92 -12.5t-92.5 12.5t-75.5 38.5t-51 64.5t-19 91.5v309zM178 211q0 -32 8.5 -53.5t23.5 -34.5t34.5 -18.5
t41.5 -5.5t41.5 5.5t34 18.5t23 34.5t8.5 53.5v278q0 32 -8.5 53.5t-23 34.5t-34 18.5t-41.5 5.5t-41.5 -5.5t-34.5 -18.5t-23.5 -34.5t-8.5 -53.5v-278z" />
    <glyph glyph-name="omacron" unicode="&#x14d;" horiz-adv-x="504" 
d="M106 717h288v-89h-288v89zM173 188q0 -58 20 -80.5t59 -22.5q38 0 58.5 22.5t20.5 80.5v184q0 59 -20.5 81t-58.5 22q-39 0 -59 -22t-20 -81v-184zM48 380q0 98 54.5 144t149.5 46t149 -45.5t54 -144.5v-200q0 -98 -54 -144t-149 -46q-96 0 -150 46t-54 144v200z" />
    <glyph glyph-name="Ohungarumlaut" unicode="&#x150;" horiz-adv-x="571" 
d="M333 855l-88 -105l-50 27l64 119zM468 855l-102 -106l-44 28l73 119zM48 505q0 52 19 91t51 64.5t75.5 38t92.5 12.5t92 -12.5t75 -38t50.5 -64.5t18.5 -91v-309q0 -53 -18.5 -91.5t-50.5 -64.5t-75 -38.5t-92 -12.5t-92.5 12.5t-75.5 38.5t-51 64.5t-19 91.5v309z
M178 211q0 -32 8.5 -53.5t23.5 -34.5t34.5 -18.5t41.5 -5.5t41.5 5.5t34 18.5t23 34.5t8.5 53.5v278q0 32 -8.5 53.5t-23 34.5t-34 18.5t-41.5 5.5t-41.5 -5.5t-34.5 -18.5t-23.5 -34.5t-8.5 -53.5v-278z" />
    <glyph glyph-name="ohungarumlaut" unicode="&#x151;" horiz-adv-x="504" 
d="M293 715l-88 -105l-50 27l64 119zM428 715l-102 -106l-44 28l73 119zM173 188q0 -58 20 -80.5t59 -22.5q38 0 58.5 22.5t20.5 80.5v184q0 59 -20.5 81t-58.5 22q-39 0 -59 -22t-20 -81v-184zM48 380q0 98 54.5 144t149.5 46t149 -45.5t54 -144.5v-200q0 -98 -54 -144
t-149 -46q-96 0 -150 46t-54 144v200z" />
    <glyph glyph-name="OE" unicode="&#x152;" horiz-adv-x="790" 
d="M50 496q0 106 58 160.5t158 54.5q29 0 61.5 -10.5t50.5 -33.5l-1 33h377v-110h-247v-180h201v-109h-201v-191h253v-110h-383l1 31q-17 -22 -48.5 -32t-63.5 -10q-100 0 -158 54.5t-58 160.5v292zM180 216q0 -63 26 -91t71 -28q42 0 71.5 30.5t29.5 91.5v264
q0 61 -29.5 91t-71.5 30q-45 0 -71 -28t-26 -91v-269z" />
    <glyph glyph-name="oe" unicode="&#x153;" horiz-adv-x="828" 
d="M48 380q0 98 54.5 144t150.5 46q45 0 80.5 -11.5t59.5 -34.5q49 46 142 46q94 0 149 -46t55 -144v-146h-282v-41q-2 -58 24 -80t66 -22q38 0 84.5 8.5t84.5 23.5v-94q-35 -18 -81.5 -28.5t-98.5 -10.5q-97 0 -145 44q-24 -23 -59.5 -33.5t-78.5 -10.5q-97 0 -151 46
t-54 144v200zM173 196q0 -57 20 -80t60 -23q36 0 57 21.5t21 73.5v184q0 59 -20 81t-58 22q-40 0 -60 -22t-20 -81v-176zM615 321v55q0 57 -20 78.5t-59 21.5q-40 0 -59.5 -21t-21.5 -79v-55h160z" />
    <glyph glyph-name="Racute" unicode="&#x154;" horiz-adv-x="548" 
d="M299 926l91 -48l-104 -125l-62 31zM258 261h-75v-261h-131v700h241q50 0 90 -13.5t68 -38.5t43 -60.5t15 -78.5v-59q0 -64 -31 -108t-87 -65l133 -277h-147zM182 370h111q42 0 64.5 27.5t22.5 72.5v22q0 47 -22.5 72t-64.5 25h-111v-219z" />
    <glyph glyph-name="racute" unicode="&#x155;" horiz-adv-x="320" 
d="M191 786l91 -48l-104 -125l-62 31zM307 462q-38 2 -72 -10t-56 -35v-417h-125v560h74l31 -62q22 30 61.5 51t87.5 21z" />
    <glyph glyph-name="uni0156" unicode="&#x156;" horiz-adv-x="548" 
d="M258 261h-75v-261h-131v700h241q50 0 90 -13.5t68 -38.5t43 -60.5t15 -78.5v-59q0 -64 -31 -108t-87 -65l133 -277h-147zM182 370h111q42 0 64.5 27.5t22.5 72.5v22q0 47 -22.5 72t-64.5 25h-111v-219zM206 -244q14 15 24 38t12 41q-17 5 -28 20.5t-11 35.5q0 30 18 46.5
t47 16.5t47.5 -16.5t18.5 -46.5q0 -17 -5 -35.5t-13.5 -36.5t-19 -34.5t-20.5 -28.5h-70z" />
    <glyph glyph-name="uni0157" unicode="&#x157;" horiz-adv-x="320" 
d="M307 462q-38 2 -72 -10t-56 -35v-417h-125v560h74l31 -62q22 30 61.5 51t87.5 21zM47 -244q14 15 24 38t12 41q-17 5 -28 20.5t-11 35.5q0 30 18 46.5t47 16.5t47.5 -16.5t18.5 -46.5q0 -17 -5 -35.5t-13.5 -36.5t-19 -34.5t-20.5 -28.5h-70z" />
    <glyph glyph-name="Rcaron" unicode="&#x158;" horiz-adv-x="548" 
d="M239 888l38 -69l40 69h102l-92 -132h-98l-94 132h104zM258 261h-75v-261h-131v700h241q50 0 90 -13.5t68 -38.5t43 -60.5t15 -78.5v-59q0 -64 -31 -108t-87 -65l133 -277h-147zM182 370h111q42 0 64.5 27.5t22.5 72.5v22q0 47 -22.5 72t-64.5 25h-111v-219z" />
    <glyph glyph-name="rcaron" unicode="&#x159;" horiz-adv-x="320" 
d="M129 748l38 -69l40 69h102l-92 -132h-98l-94 132h104zM307 462q-38 2 -72 -10t-56 -35v-417h-125v560h74l31 -62q22 30 61.5 51t87.5 21z" />
    <glyph glyph-name="Sacute" unicode="&#x15a;" horiz-adv-x="536" 
d="M319 926l91 -48l-104 -125l-62 31zM505 203q0 -109 -64 -161.5t-179 -52.5q-62 0 -113 10t-98 29v114q46 -19 100 -31t105 -12q53 0 84.5 23.5t31.5 70.5q0 51 -22.5 74.5t-67.5 29.5q-42 5 -82.5 16t-71.5 34t-50 60.5t-19 94.5q0 98 53 153.5t164 55.5q57 0 107 -10
t93 -28v-108q-45 18 -95 27t-96 9q-48 0 -71.5 -24.5t-23.5 -63.5q0 -27 8.5 -44.5t23.5 -29t34.5 -17t42.5 -8.5q43 -5 80.5 -17t65.5 -36t44 -62t16 -96z" />
    <glyph glyph-name="sacute" unicode="&#x15b;" horiz-adv-x="458" 
d="M275 786l91 -48l-104 -125l-62 31zM298 150q0 22 -8.5 35.5t-24 22.5t-37 15.5t-46.5 13.5q-29 8 -55 20.5t-46 33t-31.5 49.5t-11.5 71q0 74 44.5 116.5t139.5 42.5q48 0 90 -9t74 -26v-93q-44 17 -79.5 24.5t-75.5 7.5q-68 0 -68 -62q0 -21 8.5 -34.5t23.5 -23.5
t36 -16.5t45 -13.5q29 -8 55.5 -19.5t46.5 -30.5t32 -47t12 -70q0 -82 -51 -124.5t-151 -42.5q-53 0 -98.5 8.5t-83.5 24.5v99q40 -16 84 -26t90 -10q86 0 86 64z" />
    <glyph glyph-name="Scedilla" unicode="&#x15e;" horiz-adv-x="536" 
d="M299 414q43 -5 80.5 -17t65.5 -36t44 -62t16 -96q0 -98 -52 -150.5t-148 -61.5l-9 -27q23 -6 39 -21t16 -42q0 -20 -9.5 -34t-24.5 -22t-33 -11.5t-35 -3.5q-32 0 -60 9v46q17 -5 35 -5q34 0 34 24q0 12 -9 17.5t-20 7.5q-12 3 -28 2l23 59q-49 3 -91.5 12.5t-81.5 25.5
v114q46 -19 100 -31t105 -12q53 0 84.5 23.5t31.5 70.5q0 51 -22.5 74.5t-67.5 29.5q-42 5 -82.5 16t-71.5 34t-50 60.5t-19 94.5q0 98 53 153.5t164 55.5q57 0 107 -10t93 -28v-108q-45 18 -95 27t-96 9q-48 0 -71.5 -24.5t-23.5 -63.5q0 -27 8.5 -44.5t23.5 -29t34.5 -17
t42.5 -8.5z" />
    <glyph glyph-name="scedilla" unicode="&#x15f;" horiz-adv-x="458" 
d="M276 324q29 -8 55.5 -19.5t46.5 -30.5t32 -47t12 -70q0 -73 -40.5 -114.5t-118.5 -50.5l-9 -25q23 -6 39.5 -21t16.5 -42q0 -20 -9.5 -34t-24.5 -22t-33.5 -11.5t-35.5 -3.5q-31 0 -59 9v46q7 -2 17 -3.5t18 -1.5q35 0 35 24q0 12 -9 17.5t-20 7.5q-12 3 -28 2l22 57
q-41 2 -77.5 10.5t-67.5 21.5v99q40 -16 84 -26t90 -10q86 0 86 64q0 22 -8.5 35.5t-24 22.5t-37 15.5t-46.5 13.5q-29 8 -55 20.5t-46 33t-31.5 49.5t-11.5 71q0 74 44.5 116.5t139.5 42.5q48 0 90 -9t74 -26v-93q-44 17 -79.5 24.5t-75.5 7.5q-68 0 -68 -62
q0 -21 8.5 -34.5t23.5 -23.5t36 -16.5t45 -13.5z" />
    <glyph glyph-name="Scaron" unicode="&#x160;" horiz-adv-x="536" 
d="M237 888l38 -69l40 69h102l-92 -132h-98l-94 132h104zM505 203q0 -109 -64 -161.5t-179 -52.5q-62 0 -113 10t-98 29v114q46 -19 100 -31t105 -12q53 0 84.5 23.5t31.5 70.5q0 51 -22.5 74.5t-67.5 29.5q-42 5 -82.5 16t-71.5 34t-50 60.5t-19 94.5q0 98 53 153.5
t164 55.5q57 0 107 -10t93 -28v-108q-45 18 -95 27t-96 9q-48 0 -71.5 -24.5t-23.5 -63.5q0 -27 8.5 -44.5t23.5 -29t34.5 -17t42.5 -8.5q43 -5 80.5 -17t65.5 -36t44 -62t16 -96z" />
    <glyph glyph-name="scaron" unicode="&#x161;" horiz-adv-x="458" 
d="M195 748l38 -69l40 69h102l-92 -132h-98l-94 132h104zM298 150q0 22 -8.5 35.5t-24 22.5t-37 15.5t-46.5 13.5q-29 8 -55 20.5t-46 33t-31.5 49.5t-11.5 71q0 74 44.5 116.5t139.5 42.5q48 0 90 -9t74 -26v-93q-44 17 -79.5 24.5t-75.5 7.5q-68 0 -68 -62
q0 -21 8.5 -34.5t23.5 -23.5t36 -16.5t45 -13.5q29 -8 55.5 -19.5t46.5 -30.5t32 -47t12 -70q0 -82 -51 -124.5t-151 -42.5q-53 0 -98.5 8.5t-83.5 24.5v99q40 -16 84 -26t90 -10q86 0 86 64z" />
    <glyph glyph-name="uni0162" unicode="&#x162;" horiz-adv-x="473" 
d="M302 0l-9 -33q23 -6 39 -21t16 -42q0 -21 -10 -34.5t-25 -22t-33.5 -11.5t-35.5 -3q-15 0 -31 2.5t-30 7.5l6 45q15 -5 31 -5q35 0 35 25q0 11 -9 17t-20 8q-13 3 -29 1l25 66h-50v590h-162v110h454v-110h-162v-590z" />
    <glyph glyph-name="uni0163" unicode="&#x163;" horiz-adv-x="328" 
d="M227 0l-11 -33q23 -6 39 -21t16 -42q0 -20 -9.5 -34t-24.5 -22t-33 -11.5t-36 -3.5q-16 0 -30 2t-28 7v45q7 -2 16.5 -3t17.5 -1q34 0 34 24q0 12 -9 17.5t-20 7.5q-12 3 -28 2l26 66h-46v463h-99v97h99v104l126 19v-123h99v-97h-99v-463z" />
    <glyph glyph-name="Tcaron" unicode="&#x164;" horiz-adv-x="473" 
d="M199 888l39 -69l39 69h101l-92 -132h-98l-93 132h104zM172 590h-162v110h454v-110h-162v-590h-130v590z" />
    <glyph glyph-name="tcaron" unicode="&#x165;" horiz-adv-x="328" 
d="M101 463h-99v97h99v104l126 19v-123h99v-97h-99v-463h-126v463zM348 564q14 15 24 38t12 41q-17 5 -28 20.5t-11 35.5q0 30 18 46.5t47 16.5t47.5 -16.5t18.5 -46.5q0 -17 -5 -35.5t-13.5 -36.5t-19 -34.5t-20.5 -28.5h-70z" />
    <glyph glyph-name="Tbar" unicode="&#x166;" horiz-adv-x="473" 
d="M92 857h288v-89h-288v89zM172 590h-162v110h454v-110h-162v-590h-130v590z" />
    <glyph glyph-name="tbar" unicode="&#x167;" horiz-adv-x="328" 
d="M227 463v-88h85v-89h-85v-286h-126v286h-87v89h87v88h-99v97h99v106l126 17v-123h99v-97h-99z" />
    <glyph glyph-name="Utilde" unicode="&#x168;" horiz-adv-x="561" 
d="M179 201q0 -31 7 -50.5t19.5 -31t30.5 -15.5t40 -4q32 0 61 17t43 40v543h130v-700h-77l-33 60q-12 -15 -30 -27.5t-40 -22.5t-46.5 -15.5t-48.5 -5.5q-97 0 -142 48.5t-45 153.5v509h131v-499zM99 755q0 57 25 93t76 36q25 0 46 -7t38.5 -15.5t32 -15.5t26.5 -7
q18 0 25 12t8 32h84q0 -57 -25.5 -93t-76.5 -36q-24 0 -44 7t-36.5 15.5t-31.5 15.5t-30 7q-18 0 -25.5 -12t-7.5 -32h-84z" />
    <glyph glyph-name="utilde" unicode="&#x169;" horiz-adv-x="501" 
d="M240 93q27 0 49.5 16t34.5 39v412h125v-560h-74l-32 56q-23 -28 -62 -47t-84 -19q-80 0 -113 43t-33 128v399h125v-375q0 -52 13 -72t51 -20zM69 625q0 57 25 93t76 36q25 0 46 -7t38.5 -15.5t32 -15.5t26.5 -7q18 0 25 12t8 32h84q0 -57 -25.5 -93t-76.5 -36
q-24 0 -44 7t-36.5 15.5t-31.5 15.5t-30 7q-18 0 -25.5 -12t-7.5 -32h-84z" />
    <glyph glyph-name="Umacron" unicode="&#x16a;" horiz-adv-x="561" 
d="M134 841h288v-89h-288v89zM179 201q0 -31 7 -50.5t19.5 -31t30.5 -15.5t40 -4q32 0 61 17t43 40v543h130v-700h-77l-33 60q-12 -15 -30 -27.5t-40 -22.5t-46.5 -15.5t-48.5 -5.5q-97 0 -142 48.5t-45 153.5v509h131v-499z" />
    <glyph glyph-name="umacron" unicode="&#x16b;" horiz-adv-x="501" 
d="M105 717h288v-89h-288v89zM240 93q27 0 49.5 16t34.5 39v412h125v-560h-74l-32 56q-23 -28 -62 -47t-84 -19q-80 0 -113 43t-33 128v399h125v-375q0 -52 13 -72t51 -20z" />
    <glyph glyph-name="Uring" unicode="&#x16e;" horiz-adv-x="559" 
d="M200 835q0 36 23 56t55 20q34 0 57.5 -20t23.5 -56v-14q0 -38 -23.5 -57.5t-57.5 -19.5q-32 0 -55 19.5t-23 57.5v14zM278 790q30 0 30 37q0 38 -30 38q-27 0 -27 -38q0 -37 27 -37zM179 201q0 -31 7 -50.5t19.5 -31t30.5 -15.5t40 -4q32 0 61 17t43 40v543h130v-700h-77
l-33 60q-12 -15 -30 -27.5t-40 -22.5t-46.5 -15.5t-48.5 -5.5q-97 0 -142 48.5t-45 153.5v509h131v-499z" />
    <glyph glyph-name="uring" unicode="&#x16f;" horiz-adv-x="501" 
d="M170 693q0 35 23 56.5t56 21.5q34 0 56.5 -21.5t22.5 -56.5v-10q0 -38 -22.5 -58.5t-56.5 -20.5q-33 0 -56 20.5t-23 58.5v10zM249 650q28 0 28 37t-28 37t-28 -37t28 -37zM240 93q27 0 49.5 16t34.5 39v412h125v-560h-74l-32 56q-23 -28 -62 -47t-84 -19q-80 0 -113 43
t-33 128v399h125v-375q0 -52 13 -72t51 -20z" />
    <glyph glyph-name="Uhungarumlaut" unicode="&#x170;" horiz-adv-x="561" 
d="M179 201q0 -31 7 -50.5t19.5 -31t30.5 -15.5t40 -4q32 0 61 17t43 40v543h130v-700h-77l-33 60q-12 -15 -30 -27.5t-40 -22.5t-46.5 -15.5t-48.5 -5.5q-97 0 -142 48.5t-45 153.5v509h131v-499zM324 855l-88 -105l-50 27l64 119zM459 855l-102 -106l-44 28l73 119z" />
    <glyph glyph-name="uhungarumlaut" unicode="&#x171;" horiz-adv-x="501" 
d="M240 93q27 0 49.5 16t34.5 39v412h125v-560h-74l-32 56q-23 -28 -62 -47t-84 -19q-80 0 -113 43t-33 128v399h125v-375q0 -52 13 -72t51 -20zM290 715l-88 -105l-50 27l64 119zM425 715l-102 -106l-44 28l73 119z" />
    <glyph glyph-name="Uogonek" unicode="&#x172;" horiz-adv-x="561" 
d="M459 -72q0 -32 31 -32q10 0 20 2t21 4v-53q-16 -7 -35 -9.5t-39 -2.5q-39 0 -61.5 18t-22.5 58q0 26 18.5 51.5t40.5 38.5l-32 57q-12 -15 -30 -27.5t-40 -22.5t-46.5 -15.5t-48.5 -5.5q-97 0 -142 48.5t-45 153.5v509h131v-499q0 -31 7 -50.5t19.5 -31t30.5 -15.5t40 -4
q32 0 61 17t43 40v543h130v-700q-21 -14 -36 -33t-15 -39z" />
    <glyph glyph-name="uogonek" unicode="&#x173;" horiz-adv-x="501" 
d="M470 -151q-15 -7 -31.5 -9.5t-36.5 -2.5q-39 0 -64.5 18t-25.5 58q0 26 18.5 51t44.5 38l-32 54q-23 -28 -55.5 -47t-77.5 -19q-81 0 -120 49t-39 138v383h125v-372q0 -52 13 -73.5t51 -21.5q27 0 49.5 16t34.5 39v412h125v-560q-22 -14 -36.5 -33t-14.5 -39
q0 -32 30 -32q9 0 21 2t21 4v-53z" />
    <glyph glyph-name="Wcircumflex" unicode="&#x174;" horiz-adv-x="862" 
d="M862 700l-192 -700h-131l-90 399q-7 28 -11.5 52.5t-6.5 50.5q-2 -26 -6.5 -50.5t-10.5 -52.5l-91 -399h-130l-193 700h135l95 -428q3 -19 7 -41.5t7 -42.5t5.5 -35.5t2.5 -20.5q1 6 3 21.5t5.5 35.5t7.5 42t8 40l89 429h133l89 -428q4 -20 8 -43t7.5 -44t5.5 -36t2 -18
q1 3 3 18t5.5 36t7.5 44t8 42l95 429h133zM386 888h98l91 -132h-102l-38 69l-38 -69h-103z" />
    <glyph glyph-name="wcircumflex" unicode="&#x175;" horiz-adv-x="722" 
d="M316 748h98l91 -132h-102l-39 69l-37 -69h-104zM722 560l-157 -560h-121l-63 276q-8 34 -12.5 65t-8.5 68q-1 -38 -6 -69t-13 -65l-66 -275h-119l-155 560h129l67 -306l8 -46t7 -42t5 -31t2 -14q0 2 1.5 14.5t4 31t6 41t8.5 45.5l68 307h111l69 -306q5 -23 9 -46
t6.5 -41.5t4 -31t1.5 -14.5q0 2 2 14t4.5 31t6 41.5t7.5 45.5l66 307h128z" />
    <glyph glyph-name="Ycircumflex" unicode="&#x176;" horiz-adv-x="551" 
d="M148 700l116 -227q19 -40 29.5 -66t12.5 -32q2 6 11.5 31.5t30.5 66.5l115 227h144l-238 -429v-271h-130v269l-239 431h148zM257 888h98l92 -132h-103l-38 69l-38 -69h-103z" />
    <glyph glyph-name="ycircumflex" unicode="&#x177;" 
d="M199 748h98l91 -132h-102l-39 69l-37 -69h-104zM329 560h124v-554q0 -49 -13.5 -81t-39.5 -51t-63.5 -26.5t-85.5 -7.5q-50 0 -91 8.5t-76 23.5v97q35 -15 74.5 -24t81.5 -9q18 0 34.5 3t28.5 12.5t19 27t7 45.5v40q-22 -21 -51.5 -35t-67.5 -14q-81 0 -120 49t-39 139
v357h124v-346q0 -52 14 -74t52 -22q28 0 52 18.5t36 41.5v382z" />
    <glyph glyph-name="Ydieresis" unicode="&#x178;" horiz-adv-x="608" 
d="M148 700l116 -227q20 -41 30 -67t12 -31q2 5 11.5 30.5t30.5 67.5l115 227h144l-238 -429v-271h-130v269l-239 431h148zM258 818q0 -31 -15 -50.5t-49 -19.5q-33 0 -48 19.5t-15 50.5t15 51t48 20q34 0 49 -20t15 -51zM479 818q0 -31 -15 -50.5t-49 -19.5q-32 0 -47 19.5
t-15 50.5t15 51t47 20q34 0 49 -20t15 -51z" />
    <glyph glyph-name="Zacute" unicode="&#x179;" 
d="M280 926l91 -48l-104 -125l-62 31zM26 97l290 493h-280v110h432v-101l-288 -489h301v-110h-455v97z" />
    <glyph glyph-name="zacute" unicode="&#x17a;" horiz-adv-x="439" 
d="M242 786l91 -48l-104 -125l-62 31zM29 91l227 368h-223v101h373v-88l-229 -371h240v-101h-388v91z" />
    <glyph glyph-name="Zdotaccent" unicode="&#x17b;" 
d="M26 97l290 493h-280v110h432v-101l-288 -489h301v-110h-455v97zM320 824q0 -35 -20 -52t-53 -17t-53.5 17t-20.5 52q0 37 20.5 55t53.5 18t53 -18t20 -55z" />
    <glyph glyph-name="zdotaccent" unicode="&#x17c;" horiz-adv-x="439" 
d="M29 91l227 368h-223v101h373v-88l-229 -371h240v-101h-388v91zM291 684q0 -35 -20 -52t-53 -17t-53.5 17t-20.5 52q0 37 20.5 55t53.5 18t53 -18t20 -55z" />
    <glyph glyph-name="Zcaron" unicode="&#x17d;" 
d="M220 888l38 -69l40 69h102l-92 -132h-98l-94 132h104zM26 97l290 493h-280v110h432v-101l-288 -489h301v-110h-455v97z" />
    <glyph glyph-name="zcaron" unicode="&#x17e;" horiz-adv-x="439" 
d="M177 748l38 -69l40 69h102l-92 -132h-98l-94 132h104zM29 91l227 368h-223v101h373v-88l-229 -371h240v-101h-388v91z" />
    <glyph glyph-name="uni01EA" unicode="&#x1ea;" horiz-adv-x="571" 
d="M48 505q0 52 19 91t51 64.5t75.5 38t92.5 12.5t92.5 -12.5t75.5 -38t51 -64.5t19 -91v-309q0 -47 -15 -82.5t-41 -61t-61.5 -40.5t-76.5 -20q-17 -14 -27 -30t-10 -33q0 -33 29 -33q8 0 16.5 1.5t19.5 3.5l9 -52q-14 -8 -33 -10t-39 -2q-39 0 -64.5 18t-25.5 58
q0 21 12.5 42.5t30.5 35.5q-43 4 -79.5 19t-63.5 40.5t-42 62t-15 83.5v309zM393 489q0 32 -8.5 53.5t-23 34.5t-34 18.5t-41.5 5.5t-41.5 -5.5t-34.5 -18.5t-23.5 -34.5t-8.5 -53.5v-277q0 -32 8.5 -53.5t23.5 -34.5t34.5 -18.5t41.5 -5.5t41.5 5.5t34 18.5t23 34.5
t8.5 53.5v277z" />
    <glyph glyph-name="uni01EB" unicode="&#x1eb;" horiz-adv-x="504" 
d="M48 380q0 98 54.5 144t150.5 46q94 0 148 -45.5t54 -144.5v-200q0 -88 -43 -133.5t-121 -54.5q-17 -14 -28 -30.5t-11 -33.5q0 -32 30 -32q9 0 17.5 1.5t18.5 3.5l11 -52q-16 -7 -35 -9.5t-39 -2.5q-38 0 -63.5 18t-25.5 58q0 22 13.5 43.5t32.5 35.5q-77 9 -120.5 54.5
t-43.5 133.5v200zM331 372q0 59 -20 81t-58 22q-40 0 -60 -22t-20 -81v-184q0 -58 20 -80t60 -22q38 0 58 22t20 80v184z" />
    <glyph glyph-name="AEacute" unicode="&#x1fc;" horiz-adv-x="843" 
d="M415 269h-187l-94 -269h-134l252 700h553v-111h-259v-218h216v-109h-216v-152h266v-110h-397v269zM263 371h152v221h-74zM468 926l91 -48l-104 -125l-62 31z" />
    <glyph glyph-name="aeacute" unicode="&#x1fd;" horiz-adv-x="783" 
d="M452 786l91 -48l-104 -125l-62 31zM455 234v-41q-1 -29 6 -48.5t19 -31.5t29 -17t37 -5q44 0 88.5 9t80.5 23v-95q-38 -18 -87 -28t-102 -10q-116 0 -165 74q-26 -35 -63.5 -54.5t-82.5 -19.5q-81 0 -122.5 49.5t-41.5 141.5v193q0 98 42 147t139 49q48 0 87 -8.5
t77 -28.5q27 20 61.5 28.5t75.5 8.5q95 0 150 -46t55 -144v-146h-283zM330 454q-22 8 -43 11t-45 3q-32 0 -49.5 -19t-17.5 -70v-187q0 -54 15 -76.5t53 -22.5q29 0 51.5 16.5t35.5 40.5v304zM614 369q0 57 -20 78t-59 21t-60 -17t-21 -53v-74h160v45z" />
    <glyph glyph-name="Oslashacute" unicode="&#x1fe;" horiz-adv-x="571" 
d="M2 162l46 41v302q0 52 19 91t51 64.5t75.5 38t92.5 12.5q69 0 125.5 -25t85.5 -76l74 67v-152l-47 -42v-287q0 -53 -19 -91.5t-51 -64.5t-75.5 -38.5t-92.5 -12.5q-67 0 -122 23t-86 71l-76 -69v148zM178 321l213 193q-7 49 -36.5 68t-68.5 19q-22 0 -41.5 -5.5
t-34.5 -18.5t-23.5 -34.5t-8.5 -53.5v-168zM286 100q22 0 41.5 5.5t34 18.5t23 34.5t8.5 53.5v153l-212 -190q10 -42 38.5 -58.5t66.5 -16.5zM344 926l91 -48l-104 -125l-62 31z" />
    <glyph glyph-name="oslashacute" unicode="&#x1ff;" horiz-adv-x="503" 
d="M498 415l-43 -36v-199q0 -98 -54 -144t-149 -46q-63 0 -107.5 19.5t-69.5 61.5l-70 -57v132l43 35v199q0 98 54.5 144t149.5 46q62 0 107 -19.5t69 -61.5l70 58v-132zM173 280l156 131q-8 36 -28 50t-49 14q-39 0 -59 -22t-20 -81v-92zM331 282l-156 -132
q6 -35 24.5 -49.5t52.5 -14.5q38 0 58.5 22t20.5 80v94zM289 786l91 -48l-104 -125l-62 31z" />
    <glyph glyph-name="uni0218" unicode="&#x218;" horiz-adv-x="536" 
d="M505 203q0 -109 -64 -161.5t-179 -52.5q-62 0 -113 10t-98 29v114q46 -19 100 -31t105 -12q53 0 84.5 23.5t31.5 70.5q0 51 -22.5 74.5t-67.5 29.5q-42 5 -82.5 16t-71.5 34t-50 60.5t-19 94.5q0 98 53 153.5t164 55.5q57 0 107 -10t93 -28v-108q-45 18 -95 27t-96 9
q-48 0 -71.5 -24.5t-23.5 -63.5q0 -27 8.5 -44.5t23.5 -29t34.5 -17t42.5 -8.5q43 -5 80.5 -17t65.5 -36t44 -62t16 -96zM186 -244q14 15 24 38t12 41q-17 5 -28 20.5t-11 35.5q0 30 18 46.5t47 16.5t47.5 -16.5t18.5 -46.5q0 -17 -5 -35.5t-13.5 -36.5t-19 -34.5
t-20.5 -28.5h-70z" />
    <glyph glyph-name="uni0219" unicode="&#x219;" horiz-adv-x="458" 
d="M298 150q0 22 -8.5 35.5t-24 22.5t-37 15.5t-46.5 13.5q-29 8 -55 20.5t-46 33t-31.5 49.5t-11.5 71q0 74 44.5 116.5t139.5 42.5q48 0 90 -9t74 -26v-93q-44 17 -79.5 24.5t-75.5 7.5q-68 0 -68 -62q0 -21 8.5 -34.5t23.5 -23.5t36 -16.5t45 -13.5q29 -8 55.5 -19.5
t46.5 -30.5t32 -47t12 -70q0 -82 -51 -124.5t-151 -42.5q-53 0 -98.5 8.5t-83.5 24.5v99q40 -16 84 -26t90 -10q86 0 86 64zM162 -244q14 15 24 38t12 41q-17 5 -28 20.5t-11 35.5q0 30 18 46.5t47 16.5t47.5 -16.5t18.5 -46.5q0 -17 -5 -35.5t-13.5 -36.5t-19 -34.5
t-20.5 -28.5h-70z" />
    <glyph glyph-name="uni021A" unicode="&#x21a;" horiz-adv-x="473" 
d="M172 590h-162v110h454v-110h-162v-590h-130v590zM168 -244q14 15 24 38t12 41q-17 5 -28 20.5t-11 35.5q0 30 18 46.5t47 16.5t47.5 -16.5t18.5 -46.5q0 -17 -5 -35.5t-13.5 -36.5t-19 -34.5t-20.5 -28.5h-70z" />
    <glyph glyph-name="uni021B" unicode="&#x21b;" horiz-adv-x="328" 
d="M101 463h-99v97h99v104l126 19v-123h99v-97h-99v-463h-126v463zM92 -244q14 15 24 38t12 41q-17 5 -28 20.5t-11 35.5q0 30 18 46.5t47 16.5t47.5 -16.5t18.5 -46.5q0 -17 -5 -35.5t-13.5 -36.5t-19 -34.5t-20.5 -28.5h-70z" />
    <glyph glyph-name="uni0237" unicode="&#x237;" horiz-adv-x="240" 
d="M185 560v-526q0 -92 -48.5 -143t-157.5 -51v86q27 3 43 12t24.5 24t11.5 37t3 51v510h124z" />
    <glyph glyph-name="circumflex" unicode="&#x2c6;" horiz-adv-x="359" 
d="M131 748h98l91 -132h-102l-39 69l-37 -69h-104z" />
    <glyph glyph-name="caron" unicode="&#x2c7;" horiz-adv-x="359" 
d="M141 748l38 -69l40 69h102l-92 -132h-98l-94 132h104z" />
    <glyph glyph-name="breve" unicode="&#x2d8;" horiz-adv-x="321" 
d="M157 680q21 0 33 14.5t12 46.5h76q0 -36 -10 -60.5t-26.5 -40t-38.5 -22.5t-46 -7q-53 0 -87.5 31t-34.5 99h77q0 -32 11.5 -46.5t33.5 -14.5z" />
    <glyph glyph-name="dotaccent" unicode="&#x2d9;" horiz-adv-x="210" 
d="M179 684q0 -35 -20 -52t-53 -17t-53.5 17t-20.5 52q0 37 20.5 55t53.5 18t53 -18t20 -55z" />
    <glyph glyph-name="ring" unicode="&#x2da;" horiz-adv-x="442" 
d="M142 693q0 35 23 55.5t55 20.5q35 0 57.5 -20.5t22.5 -55.5v-10q0 -38 -22.5 -57.5t-57.5 -19.5q-32 0 -55 19.5t-23 57.5v10zM193 687q0 -37 27 -37q30 0 30 37t-30 37q-27 0 -27 -37z" />
    <glyph glyph-name="ogonek" unicode="&#x2db;" horiz-adv-x="240" 
d="M123 -163q-39 0 -61 18t-22 58q0 26 18 50.5t41 36.5h78q-23 -14 -37.5 -33t-14.5 -39q0 -32 31 -32q10 0 20.5 2t21.5 4v-53q-16 -7 -35.5 -9.5t-39.5 -2.5z" />
    <glyph glyph-name="tilde" unicode="&#x2dc;" horiz-adv-x="432" 
d="M36 625q0 57 25 93t76 36q25 0 46 -7t38.5 -15.5t32 -15.5t26.5 -7q18 0 25 12t8 32h84q0 -57 -25.5 -93t-76.5 -36q-24 0 -44 7t-36.5 15.5t-31.5 15.5t-30 7q-18 0 -25.5 -12t-7.5 -32h-84z" />
    <glyph glyph-name="hungarumlaut" unicode="&#x2dd;" horiz-adv-x="393" 
d="M194 715l-88 -105l-50 27l64 119zM329 715l-102 -106l-44 28l73 119z" />
    <glyph glyph-name="uni0326" unicode="&#x326;" horiz-adv-x="299" 
d="M88 -244q14 15 24 38t12 41q-17 5 -28 20.5t-11 35.5q0 30 18 46.5t47 16.5t47.5 -16.5t18.5 -46.5q0 -17 -5 -35.5t-13.5 -36.5t-19 -34.5t-20.5 -28.5h-70z" />
    <glyph glyph-name="Wgrave" unicode="&#x1e80;" horiz-adv-x="862" 
d="M862 700l-192 -700h-131l-90 399q-7 28 -11.5 52.5t-6.5 50.5q-2 -26 -6.5 -50.5t-10.5 -52.5l-91 -399h-130l-193 700h135l95 -428q3 -19 7 -41.5t7 -42.5t5.5 -35.5t2.5 -20.5q1 6 3 21.5t5.5 35.5t7.5 42t8 40l89 429h133l89 -428q4 -20 8 -43t7.5 -44t5.5 -36t2 -18
q1 3 3 18t5.5 36t7.5 44t8 42l95 429h133zM380 930l78 -147l-58 -36l-108 129z" />
    <glyph glyph-name="wgrave" unicode="&#x1e81;" horiz-adv-x="722" 
d="M319 790l78 -147l-58 -36l-108 129zM722 560l-157 -560h-121l-63 276q-8 34 -12.5 65t-8.5 68q-1 -38 -6 -69t-13 -65l-66 -275h-119l-155 560h129l67 -306l8 -46t7 -42t5 -31t2 -14q0 2 1.5 14.5t4 31t6 41t8.5 45.5l68 307h111l69 -306q5 -23 9 -46t6.5 -41.5t4 -31
t1.5 -14.5q0 2 2 14t4.5 31t6 41.5t7.5 45.5l66 307h128z" />
    <glyph glyph-name="Wacute" unicode="&#x1e82;" horiz-adv-x="862" 
d="M862 700l-192 -700h-131l-90 399q-7 28 -11.5 52.5t-6.5 50.5q-2 -26 -6.5 -50.5t-10.5 -52.5l-91 -399h-130l-193 700h135l95 -428q3 -19 7 -41.5t7 -42.5t5.5 -35.5t2.5 -20.5q1 6 3 21.5t5.5 35.5t7.5 42t8 40l89 429h133l89 -428q4 -20 8 -43t7.5 -44t5.5 -36t2 -18
q1 3 3 18t5.5 36t7.5 44t8 42l95 429h133zM477 926l91 -48l-104 -125l-62 31z" />
    <glyph glyph-name="wacute" unicode="&#x1e83;" horiz-adv-x="722" 
d="M408 786l91 -48l-104 -125l-62 31zM722 560l-157 -560h-121l-63 276q-8 34 -12.5 65t-8.5 68q-1 -38 -6 -69t-13 -65l-66 -275h-119l-155 560h129l67 -306l8 -46t7 -42t5 -31t2 -14q0 2 1.5 14.5t4 31t6 41t8.5 45.5l68 307h111l69 -306q5 -23 9 -46t6.5 -41.5t4 -31
t1.5 -14.5q0 2 2 14t4.5 31t6 41.5t7.5 45.5l66 307h128z" />
    <glyph glyph-name="Wdieresis" unicode="&#x1e84;" horiz-adv-x="862" 
d="M862 700l-192 -700h-131l-90 399q-7 28 -11.5 52.5t-6.5 50.5q-2 -26 -6.5 -50.5t-10.5 -52.5l-91 -399h-130l-193 700h135l95 -428q3 -19 7 -41.5t7 -42.5t5.5 -35.5t2.5 -20.5q1 6 3 21.5t5.5 35.5t7.5 42t8 40l89 429h133l89 -428q4 -20 8 -43t7.5 -44t5.5 -36t2 -18
q1 3 3 18t5.5 36t7.5 44t8 42l95 429h133zM385 818q0 -31 -15 -50.5t-49 -19.5q-33 0 -48 19.5t-15 50.5t15 51t48 20q34 0 49 -20t15 -51zM606 818q0 -31 -15 -50.5t-49 -19.5q-32 0 -47 19.5t-15 50.5t15 51t47 20q34 0 49 -20t15 -51z" />
    <glyph glyph-name="wdieresis" unicode="&#x1e85;" horiz-adv-x="722" 
d="M316 678q0 -31 -15 -50.5t-49 -19.5q-33 0 -48 19.5t-15 50.5t15 51t48 20q34 0 49 -20t15 -51zM537 678q0 -31 -15 -50.5t-49 -19.5q-32 0 -47 19.5t-15 50.5t15 51t47 20q34 0 49 -20t15 -51zM722 560l-157 -560h-121l-63 276q-8 34 -12.5 65t-8.5 68q-1 -38 -6 -69
t-13 -65l-66 -275h-119l-155 560h129l67 -306l8 -46t7 -42t5 -31t2 -14q0 2 1.5 14.5t4 31t6 41t8.5 45.5l68 307h111l69 -306q5 -23 9 -46t6.5 -41.5t4 -31t1.5 -14.5q0 2 2 14t4.5 31t6 41.5t7.5 45.5l66 307h128z" />
    <glyph glyph-name="Ygrave" unicode="&#x1ef2;" horiz-adv-x="608" 
d="M148 700l116 -227q19 -40 29.5 -66t12.5 -32q2 6 11.5 31.5t30.5 66.5l115 227h144l-238 -429v-271h-130v269l-239 431h148zM260 928l78 -147l-58 -36l-108 129z" />
    <glyph glyph-name="ygrave" unicode="&#x1ef3;" 
d="M329 560h124v-554q0 -49 -13.5 -81t-39.5 -51t-63.5 -26.5t-85.5 -7.5q-50 0 -91 8.5t-76 23.5v97q35 -15 74.5 -24t81.5 -9q18 0 34.5 3t28.5 12.5t19 27t7 45.5v40q-22 -21 -51.5 -35t-67.5 -14q-81 0 -120 49t-39 139v357h124v-346q0 -52 14 -74t52 -22q28 0 52 18.5
t36 41.5v382zM221 790l78 -147l-58 -36l-108 129z" />
    <glyph glyph-name="uni1EF8" unicode="&#x1ef8;" horiz-adv-x="551" 
d="M148 700l116 -227q19 -40 29.5 -66t12.5 -32q2 6 11.5 31.5t30.5 66.5l115 227h144l-238 -429v-271h-130v269l-239 431h148zM125 762q0 57 26 95.5t77 38.5q25 0 45.5 -8t38 -17t32 -17t26.5 -8q18 0 25.5 12t7.5 32h83q0 -57 -25 -95.5t-76 -38.5q-25 0 -44.5 8
t-36.5 17.5t-32 17.5t-30 8q-17 0 -24.5 -12.5t-8.5 -32.5h-84z" />
    <glyph glyph-name="uni1EF9" unicode="&#x1ef9;" 
d="M188 669q-18 0 -25 -12t-8 -32h-84q0 28 6.5 52.5t19.5 42.5t32 28t45 10q24 0 45 -8t38 -17t32 -17t27 -8q18 0 25 12.5t8 32.5h83q0 -57 -25.5 -95.5t-76.5 -38.5q-24 0 -44 8t-36.5 17t-31.5 17t-30 8zM329 560h124v-554q0 -49 -13.5 -81t-39.5 -51t-63.5 -26.5
t-85.5 -7.5q-50 0 -91 8.5t-76 23.5v97q35 -15 74.5 -24t81.5 -9q18 0 34.5 3t28.5 12.5t19 27t7 45.5v40q-22 -21 -51.5 -35t-67.5 -14q-81 0 -120 49t-39 139v357h124v-346q0 -52 14 -74t52 -22q28 0 52 18.5t36 41.5v382z" />
    <glyph glyph-name="endash" unicode="&#x2013;" horiz-adv-x="462" 
d="M8 346h447v-90h-447v90z" />
    <glyph glyph-name="emdash" unicode="&#x2014;" horiz-adv-x="737" 
d="M8 346h724v-90h-724v90z" />
    <glyph glyph-name="quoteleft" unicode="&#x2018;" horiz-adv-x="218" 
d="M91 529q-11 13 -22.5 31.5t-20.5 38.5t-14.5 41t-5.5 40q0 35 20 52.5t53 17.5q32 0 52.5 -18t20.5 -52q0 -23 -12.5 -39.5t-31.5 -22.5q2 -21 13.5 -46.5t26.5 -42.5h-79z" />
    <glyph glyph-name="quoteright" unicode="&#x2019;" horiz-adv-x="218" 
d="M47 529q15 17 26.5 42.5t13.5 46.5q-19 6 -31.5 22.5t-12.5 39.5q0 34 20.5 52t52.5 18q33 0 53 -17.5t20 -52.5q0 -19 -5.5 -40t-14.5 -41t-20.5 -38.5t-22.5 -31.5h-79z" />
    <glyph glyph-name="quotesinglbase" unicode="&#x201a;" horiz-adv-x="218" 
d="M47 -92q15 17 26.5 42.5t13.5 46.5q-19 6 -31.5 22.5t-12.5 39.5q0 34 20.5 52t52.5 18q33 0 53 -17.5t20 -52.5q0 -19 -5.5 -40t-14.5 -41t-20.5 -38.5t-22.5 -31.5h-79z" />
    <glyph glyph-name="quotedblleft" unicode="&#x201c;" horiz-adv-x="397" 
d="M91 529q-11 13 -22.5 31.5t-20.5 38.5t-14.5 41t-5.5 40q0 35 20 52.5t53 17.5q32 0 52.5 -18t20.5 -52q0 -23 -12.5 -39.5t-31.5 -22.5q2 -21 13.5 -46.5t26.5 -42.5h-79zM271 529q-11 13 -22.5 31.5t-20.5 38.5t-14.5 41t-5.5 40q0 35 20 52.5t53 17.5q32 0 52.5 -18
t20.5 -52q0 -23 -12.5 -39.5t-31.5 -22.5q2 -21 13.5 -46.5t26.5 -42.5h-79z" />
    <glyph glyph-name="quotedblright" unicode="&#x201d;" horiz-adv-x="397" 
d="M227 529q15 17 26.5 42.5t13.5 46.5q-19 6 -31.5 22.5t-12.5 39.5q0 34 20.5 52t52.5 18q33 0 53 -17.5t20 -52.5q0 -19 -5.5 -40t-14.5 -41t-20.5 -38.5t-22.5 -31.5h-79zM47 529q15 17 26.5 42.5t13.5 46.5q-19 6 -31.5 22.5t-12.5 39.5q0 34 20.5 52t52.5 18
q33 0 53 -17.5t20 -52.5q0 -19 -5.5 -40t-14.5 -41t-20.5 -38.5t-22.5 -31.5h-79z" />
    <glyph glyph-name="quotedblbase" unicode="&#x201e;" horiz-adv-x="397" 
d="M227 -92q15 17 26.5 42.5t13.5 46.5q-19 6 -31.5 22.5t-12.5 39.5q0 34 20.5 52t52.5 18q33 0 53 -17.5t20 -52.5q0 -19 -5.5 -40t-14.5 -41t-20.5 -38.5t-22.5 -31.5h-79zM47 -92q15 17 26.5 42.5t13.5 46.5q-19 6 -31.5 22.5t-12.5 39.5q0 34 20.5 52t52.5 18
q33 0 53 -17.5t20 -52.5q0 -19 -5.5 -40t-14.5 -41t-20.5 -38.5t-22.5 -31.5h-79z" />
    <glyph glyph-name="dagger" unicode="&#x2020;" horiz-adv-x="454" 
d="M165 400h-123v108h123v192h125v-192h125v-108h-125v-510h-125v510z" />
    <glyph glyph-name="daggerdbl" unicode="&#x2021;" horiz-adv-x="454" 
d="M165 115h-123v107h123v178h-123v108h123v192h125v-192h125v-108h-125v-178h125v-107h-125v-225h-125v225z" />
    <glyph glyph-name="bullet" unicode="&#x2022;" horiz-adv-x="400" 
d="M354 323q0 -77 -43 -118t-113 -41q-68 0 -109.5 41t-41.5 118q0 80 41.5 122t109.5 42q70 0 113 -42t43 -122z" />
    <glyph glyph-name="ellipsis" unicode="&#x2026;" horiz-adv-x="531" 
d="M179 57q0 -35 -20 -52.5t-53 -17.5t-53 17.5t-20 52.5q0 37 20 54.5t53 17.5t53 -17.5t20 -54.5zM385 57q0 -35 -20.5 -52.5t-53.5 -17.5t-52.5 17.5t-19.5 52.5q0 37 19.5 54.5t52.5 17.5t53.5 -17.5t20.5 -54.5zM591 57q0 -35 -20.5 -52.5t-53.5 -17.5t-53 17.5
t-20 52.5q0 37 20 54.5t53 17.5t53.5 -17.5t20.5 -54.5z" />
    <glyph glyph-name="perthousand" unicode="&#x2030;" horiz-adv-x="1243" 
d="M45 568q0 74 42.5 108.5t114.5 34.5q71 0 114 -34.5t43 -108.5v-129q0 -40 -11.5 -68.5t-32 -47t-49.5 -27t-64 -8.5q-71 0 -114 35.5t-43 115.5v129zM157 440q0 -35 12.5 -46.5t32.5 -11.5t31.5 11.5t11.5 46.5v126q0 29 -11.5 40t-31.5 11t-32.5 -11t-12.5 -40v-126z
M521 270q0 74 43.5 108.5t115.5 34.5q70 0 112.5 -34.5t42.5 -108.5v-129q0 -80 -42.5 -115.5t-112.5 -35.5q-72 0 -115.5 35.5t-43.5 115.5v129zM635 142q0 -35 12 -46.5t32 -11.5q19 0 31.5 11.5t12.5 46.5v126q0 29 -12.5 40t-31.5 11q-20 0 -32 -11t-12 -40v-126z
M884 270q0 74 43 108.5t115 34.5q71 0 113.5 -34.5t42.5 -108.5v-129q0 -40 -11 -68.5t-31.5 -47t-49.5 -27t-64 -8.5q-71 0 -114.5 35.5t-43.5 115.5v129zM997 142q0 -35 12 -46.5t33 -11.5q19 0 31.5 11.5t12.5 46.5v126q0 29 -12.5 40t-31.5 11q-21 0 -33 -11t-12 -40
v-126zM587 700h126l-423 -700h-128z" />
    <glyph glyph-name="guilsinglleft" unicode="&#x2039;" horiz-adv-x="264" 
d="M244 157l-69 -56l-133 142v73l133 142l69 -56l-115 -123z" />
    <glyph glyph-name="guilsinglright" unicode="&#x203a;" horiz-adv-x="264" 
d="M42 157l114 122l-114 123l69 56l133 -142v-73l-133 -142z" />
    <glyph glyph-name="fraction" unicode="&#x2044;" 
d="M402 700h126l-423 -700h-128z" />
    <glyph glyph-name="Euro" unicode="&#x20ac;" horiz-adv-x="468" 
d="M424 586q-26 8 -57 11.5t-55 3.5q-45 0 -69.5 -24.5t-24.5 -87.5v-29h185l-19 -75h-166v-67h185l-19 -75h-166v-32q0 -63 24.5 -87.5t69.5 -24.5q24 0 55 3.5t57 11.5v-110q-29 -8 -62 -11.5t-66 -3.5q-208 0 -208 206v48h-66l20 75h46v67h-66l20 75h46v45q0 206 208 206
q33 0 66.5 -3.5t61.5 -11.5v-110v0z" />
    <glyph glyph-name="trademark" unicode="&#x2122;" horiz-adv-x="832" 
d="M380 700h92l114 -230l112 230h95v-452h-97l2 255l-74 -149h-76l-74 147l1 -253h-95v452zM148 616h-110v84h315v-84h-108v-368h-97v368z" />
    <glyph glyph-name="minus" unicode="&#x2212;" horiz-adv-x="415" 
d="M328 346v-90h-286v90h286z" />
    <glyph glyph-name="approxequal" unicode="&#x2248;" horiz-adv-x="527" 
d="M176 252q26 0 50.5 -10t46 -21.5t39.5 -21.5t33 -10q26 0 37.5 14t12.5 37h91q-2 -66 -35.5 -103t-95.5 -37q-27 0 -50.5 10t-43.5 21.5t-38.5 21.5t-36.5 10q-26 0 -38.5 -14t-12.5 -37h-90q2 66 36 103t95 37zM176 462q26 0 50.5 -10t46 -21.5t39.5 -21.5t33 -10
q26 0 37.5 14t12.5 37h91q-2 -66 -35.5 -103t-95.5 -37q-27 0 -50.5 10t-43.5 21.5t-38.5 21.5t-36.5 10q-26 0 -38.5 -14t-12.5 -37h-90q2 66 36 103t95 37z" />
    <glyph glyph-name="notequal" unicode="&#x2260;" horiz-adv-x="513" 
d="M38 136v91h130l55 126h-185v90h226l53 117h123l-53 -117h88v-90h-130l-56 -126h186v-91h-227l-53 -118h-122l52 118h-87z" />
    <glyph glyph-name="uniFB01" unicode="&#xfb01;" horiz-adv-x="495" 
d="M8 458v102h48v25q0 44 13 73t37 46.5t58 24.5t76 7q40 0 83 -7.5t77 -20.5v-94q-38 11 -77.5 17t-79.5 6q-31 0 -46 -12t-15 -41v-24h258v-560h-124v458h-136v-458h-124v458h-48z" />
    <glyph glyph-name="uniFB02" unicode="&#xfb02;" horiz-adv-x="497" 
d="M56 463h-48v97h48v50q0 37 10 62t30.5 39.5t51 20.5t71.5 6q29 0 60.5 -4.5t61.5 -12t56.5 -17.5t46.5 -22v-682h-125v628q-16 5 -37.5 9t-42.5 4q-36 0 -47.5 -12t-11.5 -38v-31h96v-97h-96v-463h-124v463z" />
    <glyph glyph-name="glyph297" horiz-adv-x="501" 
d="M409 157l-69 -56l-50 53l-66 -53l-133 142v73l133 142l66 -53l50 53l69 -56l-115 -123zM207 249v60l-28 -30z" />
    <glyph glyph-name="glyph298" horiz-adv-x="501" 
d="M92 157l114 122l-114 123l69 56l49 -53l66 53l133 -142v-73l-133 -142l-66 53l-49 -53zM294 308v-58l27 29z" />
    <glyph glyph-name="glyph326" horiz-adv-x="1627" 
d="M1029 421q0 -20 2.5 -40t2.5 -54h-113q0 65 1.5 109t3.5 72q3 33 6 52h76q1 -13 3 -25q1 -11 2 -24t1 -25q1 2 4 14.5t11.5 26.5t24 25.5t41.5 11.5q40 0 56.5 -23.5t17.5 -77.5l2 -136h-112q0 34 1 54t1 40q0 14 -3.5 19.5t-11.5 5.5t-12.5 -5.5t-4.5 -19.5zM308 634
q2 -42 5 -90q2 -42 3.5 -97.5t1.5 -119.5h-116q0 65 1.5 120.5t3.5 97.5q3 48 6 89h95zM1306 321q-62 0 -91 33t-29 86q0 25 5.5 47.5t19.5 39.5t37 27t58 10q37 0 61 -10t37 -27t18 -39.5t5 -47.5q0 -53 -29 -86t-92 -33zM1283 429q0 -30 23 -30q24 0 24 30q0 27 -24 27
q-23 0 -23 -27zM509 327l-9 58q-6 -31 -22.5 -47.5t-51.5 -16.5q-42 0 -65.5 27.5t-23.5 84.5q0 63 30 97t102 34q60 0 88 -29t28 -83v-125h-76zM443 429q0 -14 6 -22t15 -8q24 0 24 30q0 27 -24 27q-9 0 -15 -6.5t-6 -20.5zM773 48q0 -5 1 -11q0 -5 0.5 -13t0.5 -18h-127
q0 64 1.5 116t3.5 89q3 43 6 77h78q1 -15 3 -29q2 -12 3 -24.5t1 -21.5q2 11 6 25.5t13 27t23 21.5t36 9q35 0 56.5 -29t21.5 -83q0 -67 -33 -101.5t-94 -34.5zM754 156q0 -6 0.5 -10.5t1.5 -8.5l2 -8q10 1 19 5q7 4 13 11t6 20q0 21 -19 21q-23 0 -23 -30zM1071 122
q25 0 39 7q7 4 12 8v-73q-6 -4 -17 -8q-9 -3 -22.5 -5.5t-32.5 -2.5q-70 0 -101.5 33.5t-31.5 87.5q0 127 123 127q52 0 82 -30t30 -84q0 -8 -1 -14.5t-2 -11.5l-2 -10h-120q1 -7 6 -12t13.5 -8.5t24.5 -3.5zM1043 198q-22 0 -22 -27h39v2q0 1 0.5 2.5t0.5 3.5q0 19 -18 19z
M598 471v83l116 36l4 -30h172q2 -20 4 -53q2 -28 3 -72t1 -108h-114v82.5t2 61.5h-57l2 -63q0 -1 2 -1q2 -1 9 -1t13 2q3 1 4 2v-72q-2 -5 -10 -9q-7 -3 -19.5 -5.5t-32.5 -2.5q-42 0 -60 16.5t-18 47.5q0 9 0.5 23t0.5 27t0.5 23.5t0.5 12.5h-23zM900 634
q0 -26 -16.5 -43.5t-42.5 -17.5t-42.5 17.5t-16.5 43.5q0 24 16.5 41.5t42.5 17.5t42.5 -17.5t16.5 -41.5zM200 194v83l121 40l4 -29h165q-1 -29 -1 -52q-1 -20 -1 -36v-18q0 -26 16 -26q15 0 15 26q0 2 -0.5 18t-0.5 36q-1 23 -1 52h106q1 -18 3 -40q1 -19 2 -46t1 -59
q0 -72 -36 -104.5t-114 -32.5q-26 0 -44 3t-29 7q-13 4 -20 11v83q7 -6 18 -10q9 -4 22.5 -6.5t31.5 -2.5q25 0 39 5.5t22 12.5q9 8 11 18q-4 -4 -11 -8q-7 -3 -18 -5t-28 -2q-43 0 -68 16t-25 58v8h-45l2 -61q13 0 21 3q4 1 7 3v-74q-5 -5 -15 -9q-8 -3 -21 -5.5t-31 -2.5
q-38 0 -55.5 17t-17.5 47q0 9 0.5 22.5t0.5 26t0.5 22t0.5 11.5h-27zM1198 235v37h16q15 0 15 -12q0 -9 -8 -12l8 -13h-9l-7 11h-7v-11h-8zM1206 253h8q7 0 7 6t-7 6h-8v-12zM1212 216q-15 0 -26 11t-11 26t11 26t26 11t26 -11t11 -26t-11 -26t-26 -11zM1182 253
q0 -12 9 -21t21 -9t21 9t9 21t-9 21t-21 9t-21 -9t-9 -21z" />
    <glyph glyph-name="glyph344" horiz-adv-x="493" 
d="M421 929l92 -48l-106 -126l-61 32zM163 929l91 -48l-104 -126l-62 32zM222 -66q50 0 70.5 39.5t20.5 99.5v627h130v-642q0 -104 -54.5 -161t-166.5 -57v94zM52 700h131v-700h-131v700z" />
    <glyph glyph-name="glyph345" horiz-adv-x="471" 
d="M178 560v-560h-124v561zM417 560v-526q0 -92 -48 -143t-158 -51v86q26 3 41.5 12t24 24t11.5 37t3 51v510h126zM353 786l91 -48l-104 -125l-62 31zM211 786l91 -48l-104 -125l-62 31z" />
    <glyph glyph-name="glyph348" horiz-adv-x="232" 
d="M178 560v-560h-124v560h124zM191 684q0 -35 -20 -52t-53 -17t-53.5 17t-20.5 52q0 37 20.5 55t53.5 18t53 -18t20 -55z" />
    <glyph glyph-name="glyph351" horiz-adv-x="473" 
d="M172 590h-162v110h454v-110h-162v-590h-130v590zM174 -244q14 15 24 38t12 41q-17 5 -28 20.5t-11 35.5q0 30 18 46.5t47 16.5t47.5 -16.5t18.5 -46.5q0 -17 -5 -35.5t-13.5 -36.5t-19 -34.5t-20.5 -28.5h-70z" />
    <glyph glyph-name="glyph352" horiz-adv-x="232" 
d="M178 560v-560h-124v560h124zM189 684q0 -35 -20 -52t-53 -17t-53.5 17t-20.5 52q0 37 20.5 55t53.5 18t53 -18t20 -55z" />
    <glyph glyph-name="glyph353" horiz-adv-x="328" 
d="M101 463h-99v97h99v104l126 19v-123h99v-97h-99v-463h-126v463zM100 -244q14 15 24 38t12 41q-17 5 -28 20.5t-11 35.5q0 30 18 46.5t47 16.5t47.5 -16.5t18.5 -46.5q0 -17 -5 -35.5t-13.5 -36.5t-19 -34.5t-20.5 -28.5h-70z" />
    </font>
</defs>
</svg>
