<?xml version="1.0" standalone="no"?>
<!DOCTYPE svg PUBLIC "-//W3C//DTD SVG 1.1//EN" "http://www.w3.org/Graphics/SVG/1.1/DTD/svg11.dtd" >
<svg xmlns="http://www.w3.org/2000/svg" xmlns:xlink="http://www.w3.org/1999/xlink" version="1.1">
<metadata>
Created by FontForge 20170910 at Thu Apr 17 23:50:37 2014
 By Jimmy Wärting
Copyright (c) 2014 by Intelligent Design - Kostas Bartsokas. All rights reserved.
</metadata>
<defs>
<font id="ZonaPro-Thin" horiz-adv-x="634" >
  <font-face 
    font-family="Zona Pro Thin"
    font-weight="275"
    font-stretch="normal"
    units-per-em="1000"
    panose-1="2 1 3 3 4 0 2 2 0 4"
    ascent="825"
    descent="-175"
    x-height="539"
    cap-height="705"
    bbox="-226 -266 1230 984"
    underline-thickness="20"
    underline-position="-133"
    stemh="29"
    stemv="21"
    unicode-range="U+0020-FB04"
  />
<missing-glyph horiz-adv-x="500" 
 />
    <glyph glyph-name="f_i" unicode="fi" horiz-adv-x="563" 
d="M369 746v-33c-17 5 -44 10 -88 10c-94 0 -120 -56 -120 -149v-35h313v-539h-36v506h-277v-535c0 -103 -67 -156 -149 -156c-16 0 -30 2 -43 3v33c10 -1 22 -1 37 -1c68 0 119 42 119 129v527h-103v33h103v39c0 160 92 178 158 178c39 0 68 -5 86 -10zM456 711
c17 0 30 -12 30 -29s-13 -29 -30 -29s-30 12 -30 29s13 29 30 29z" />
    <glyph glyph-name="f_l" unicode="fl" horiz-adv-x="590" 
d="M318 758c135 0 184 -88 184 -179v-579h-36v574c0 106 -64 150 -148 150c-107 0 -157 -62 -157 -185h197v-33h-197v-535c0 -102 -68 -155 -147 -155c-16 0 -31 1 -45 2v33c10 -1 22 -2 37 -2c68 0 119 43 119 130v527h-103v33h103c0 143 62 219 193 219z" />
    <glyph glyph-name="f_f" unicode="ff" horiz-adv-x="725" 
d="M723 746v-33c-17 5 -44 10 -88 10c-92 0 -120 -45 -120 -141v-43h197v-33h-197v-519c0 -105 -69 -155 -153 -155c-14 0 -27 1 -39 2v34c10 -1 22 -2 36 -2c69 0 120 42 120 129v511h-318v-535c0 -105 -70 -156 -152 -156c-14 0 -40 3 -40 3v33c10 -1 22 -2 37 -2
c68 0 119 43 119 130v527h-103v33h103v33c0 126 70 161 154 161c41 0 72 -6 90 -11v-33c-18 5 -46 11 -91 11c-82 0 -117 -43 -117 -130v-31h318v45c0 147 71 173 154 173c41 0 72 -6 90 -11z" />
    <glyph glyph-name="f_f_i" unicode="ffi" horiz-adv-x="918" 
d="M794 0v506h-279v-518c0 -104 -67 -156 -149 -156c-16 0 -30 1 -43 2v34c10 -1 22 -2 36 -2c69 0 120 42 120 129v511h-318v-535c0 -103 -67 -156 -149 -156c-16 0 -30 2 -43 3v33c10 -1 22 -1 37 -1c68 0 119 42 119 129v527h-103v33h103v31c0 127 72 163 154 163
c41 0 72 -6 90 -11v-33c-18 5 -46 11 -91 11c-83 0 -117 -44 -117 -132v-29h318v37c0 154 73 181 154 181c41 0 72 -6 90 -11v-33c-17 5 -44 10 -88 10c-95 0 -120 -54 -120 -151v-33h315v-539h-36zM812 711c17 0 30 -12 30 -29s-13 -29 -30 -29s-30 12 -30 29s13 29 30 29z
" />
    <glyph glyph-name="f_f_l" unicode="ffl" horiz-adv-x="944" 
d="M856 579v-579h-36v574c0 106 -64 150 -148 150c-107 0 -157 -62 -157 -185h197v-33h-197v-519c0 -103 -67 -155 -149 -155c-16 0 -30 1 -43 2v34c10 -1 22 -2 36 -2c69 0 120 42 120 129v511h-318v-535c0 -103 -67 -156 -149 -156c-16 0 -30 2 -43 3v33
c10 -1 22 -2 37 -2c68 0 119 43 119 130v527h-103v33h103v39c0 103 67 156 149 156c45 0 77 -7 95 -12v-33c-18 5 -46 11 -91 11c-66 0 -117 -42 -117 -123v-38h318c0 143 62 219 193 219c135 0 184 -88 184 -179z" />
    <glyph glyph-name="f_igrave" unicode="f&#xec;" horiz-adv-x="563" 
d="M439 590l-150 137c-77 0 -128 -46 -128 -128v-60h313v-539h-36v506h-277v-535c0 -103 -67 -156 -149 -156c-16 0 -30 2 -43 3v33c10 -1 22 -1 37 -1c68 0 119 42 119 129v527h-103v33h103v63c0 56 20 96 52 120c36 26 82 35 125 35l175 -167h-38z" />
    <glyph glyph-name=".notdef" horiz-adv-x="500" 
 />
    <glyph glyph-name="NULL" horiz-adv-x="0" 
 />
    <glyph glyph-name="CR" horiz-adv-x="277" 
 />
    <glyph glyph-name="space" unicode=" " horiz-adv-x="322" 
 />
    <glyph glyph-name="dotlessi" unicode="&#x131;" horiz-adv-x="213" 
d="M88 0v539h37v-539h-37z" />
    <glyph glyph-name="fraction" unicode="&#x2044;" horiz-adv-x="439" 
d="M450 701h33l-483 -701h-33z" />
    <glyph glyph-name="Lslash" unicode="&#x141;" horiz-adv-x="591" 
d="M-3 288v37l98 28v352h37v-341l246 72v-37l-246 -71v-294h415v-34h-452v317z" />
    <glyph glyph-name="lslash" unicode="&#x142;" horiz-adv-x="308" 
d="M-23 285v37l140 41v391h36v-381l147 43v-37l-147 -42v-337h-36v326z" />
    <glyph glyph-name="exclam" unicode="!" horiz-adv-x="184" 
d="M103 177h-21l-8 527h37zM92 54c17 0 30 -12 30 -29s-13 -29 -30 -29s-30 12 -30 29s13 29 30 29z" />
    <glyph glyph-name="quotedbl" unicode="&#x22;" horiz-adv-x="264" 
d="M169 450l15 250h42l-37 -250h-20zM36 450l15 250h42l-37 -250h-20z" />
    <glyph glyph-name="numbersign" unicode="#" horiz-adv-x="669" 
d="M460 507l29 170h31l-30 -170h150v-31h-154l-42 -237h163v-31h-168l-34 -200h-31l34 200h-212l-34 -200h-31l35 200h-136v31h141l41 237h-149v31h154l30 170h30l-29 -170h212zM414 239l40 237h-211l-41 -237h212z" />
    <glyph glyph-name="dollar" unicode="$" horiz-adv-x="630" 
d="M330 674v-304c134 -32 246 -71 246 -189c0 -117 -98 -186 -246 -188v-64h-29v64c-94 1 -141 12 -244 64l15 31c97 -47 140 -58 229 -60v312c-131 33 -239 73 -239 187c0 106 91 184 239 184v41h29v-42c75 -4 161 -24 216 -53l-17 -32c-49 27 -131 45 -199 49zM100 528
c0 -86 90 -121 201 -150v298c-125 -1 -201 -63 -201 -148zM538 180c0 93 -95 125 -208 153v-305c125 2 208 57 208 152z" />
    <glyph glyph-name="percent" unicode="%" horiz-adv-x="899" 
d="M397 516c0 -121 -78 -193 -175 -193c-96 0 -174 72 -174 193c0 122 78 193 174 193c97 0 175 -71 175 -193zM77 516c0 -102 65 -163 145 -163c81 0 145 61 145 163c0 103 -64 163 -145 163c-80 0 -145 -60 -145 -163zM677 381c96 0 174 -70 174 -192
c0 -121 -78 -193 -174 -193c-97 0 -175 72 -175 193c0 122 78 192 175 192zM677 26c80 0 145 61 145 163c0 103 -65 163 -145 163c-81 0 -146 -60 -146 -163c0 -102 65 -163 146 -163zM676 701h33l-483 -701h-33z" />
    <glyph glyph-name="ampersand" unicode="&#x26;" horiz-adv-x="676" 
d="M615 300l28 -14c-21 -34 -67 -108 -130 -173l96 -92l-23 -23l-96 92c-56 -52 -123 -93 -199 -93c-168 0 -238 84 -238 172c0 78 43 140 164 187c-63 63 -99 113 -99 187c0 83 67 162 168 162c111 0 177 -75 177 -157c0 -66 -29 -150 -188 -204l215 -208
c58 58 102 129 125 164zM286 673c-82 0 -134 -66 -134 -131c0 -70 39 -114 98 -174c146 50 179 112 179 176c0 66 -44 129 -143 129zM291 31c66 0 126 35 176 82l-226 218c-110 -42 -150 -97 -150 -161c0 -69 57 -139 200 -139z" />
    <glyph glyph-name="quotesingle" unicode="'" horiz-adv-x="172" 
d="M58 450l16 250h41l-36 -250h-21z" />
    <glyph glyph-name="parenleft" unicode="(" horiz-adv-x="379" 
d="M95 305c0 -172 97 -304 255 -388l-13 -27c-171 88 -280 230 -280 415s109 327 280 415l13 -27c-158 -83 -255 -216 -255 -388z" />
    <glyph glyph-name="parenright" unicode=")" horiz-adv-x="379" 
d="M285 305c0 172 -98 305 -256 388l14 27c171 -88 279 -230 279 -415s-108 -327 -279 -415l-14 27c158 84 256 216 256 388z" />
    <glyph glyph-name="asterisk" unicode="*" horiz-adv-x="407" 
d="M361 452l-16 -27l-131 83l6 -155h-30l6 155l-131 -83l-14 27l137 71l-138 72l15 27l131 -84l-6 156h30l-6 -156l131 84l15 -27l-137 -72z" />
    <glyph glyph-name="plus" unicode="+" horiz-adv-x="640" 
d="M568 386v-30h-232v-232h-30v232h-232v30h232v232h30v-232h232z" />
    <glyph glyph-name="comma" unicode="," horiz-adv-x="150" 
d="M70 55c18 0 31 -13 31 -40c0 -93 -57 -136 -100 -139l-7 19c32 5 76 40 76 102c-15 0 -28 13 -28 29s15 29 28 29z" />
    <glyph glyph-name="hyphen" unicode="-" horiz-adv-x="408" 
d="M359 347v-31h-310v31h310z" />
    <glyph glyph-name="period" unicode="." horiz-adv-x="139" 
d="M68 54c17 0 30 -12 30 -29s-13 -29 -30 -29s-30 12 -30 29s13 29 30 29z" />
    <glyph glyph-name="slash" unicode="/" horiz-adv-x="427" 
d="M-26 -128l443 926h35l-443 -926h-35z" />
    <glyph glyph-name="zero" unicode="0" horiz-adv-x="730" 
d="M366 708c175 0 318 -131 318 -356s-143 -356 -318 -356c-174 0 -318 131 -318 356s144 356 318 356zM366 672c-154 0 -281 -118 -281 -320s127 -320 281 -320c155 0 281 118 281 320s-126 320 -281 320z" />
    <glyph glyph-name="one" unicode="1" horiz-adv-x="379" 
d="M222 705h29v-705h-37v669l-170 -38l-7 33z" />
    <glyph glyph-name="two" unicode="2" horiz-adv-x="624" 
d="M117 35h452v-35h-517v21c145 159 480 173 480 427c0 127 -104 225 -223 225s-223 -93 -223 -224v-15h-35v16c0 149 119 259 258 259c138 0 258 -113 258 -260c0 -257 -293 -289 -450 -414z" />
    <glyph glyph-name="three" unicode="3" horiz-adv-x="612" 
d="M553 684l-216 -265c142 -3 234 -94 234 -202c0 -139 -110 -222 -276 -222c-97 0 -158 9 -236 44l14 32c73 -33 132 -41 222 -41c145 0 240 70 240 187c0 86 -72 174 -229 174h-17l-7 16l214 263h-424v35h481v-21z" />
    <glyph glyph-name="four" unicode="4" horiz-adv-x="646" 
d="M488 234h116v-35h-116v-199h-37v199h-400l-9 22l419 484h27v-471zM97 234h354v408z" />
    <glyph glyph-name="five" unicode="5" horiz-adv-x="614" 
d="M327 452c156 0 247 -99 247 -235c0 -139 -110 -222 -276 -222c-98 0 -162 8 -240 39l13 32c73 -29 135 -36 227 -36c145 0 240 70 240 188s-79 200 -215 200c-66 0 -160 -23 -213 -42l-20 13v316h451v-35h-416v-255c42 16 130 37 202 37z" />
    <glyph glyph-name="six" unicode="6" horiz-adv-x="665" 
d="M349 453c143 0 268 -77 268 -223c0 -142 -126 -234 -282 -234c-150 0 -274 131 -274 313c0 292 137 400 294 400c98 0 163 -32 222 -72l-18 -30c-54 36 -114 67 -203 67c-138 0 -258 -100 -258 -357c0 -5 0 -8 1 -13c26 102 147 149 250 149zM344 420
c-120 0 -233 -68 -233 -186c0 -92 104 -204 224 -204c136 0 246 81 246 200c0 122 -108 190 -237 190z" />
    <glyph glyph-name="seven" unicode="7" horiz-adv-x="572" 
d="M51 705h487v-22l-353 -683h-41l347 670h-440v35z" />
    <glyph glyph-name="eight" unicode="8" horiz-adv-x="636" 
d="M321 709c126 0 231 -53 231 -171c0 -79 -55 -136 -128 -152c96 -20 169 -88 169 -188c0 -135 -123 -202 -272 -202c-150 0 -273 67 -273 202c0 100 73 168 169 188c-72 16 -128 73 -128 152c0 118 105 171 232 171zM321 676c-108 0 -197 -44 -197 -139
c0 -89 79 -138 197 -138c117 0 196 49 196 138c0 95 -89 139 -196 139zM321 30c130 0 236 56 236 168c0 108 -97 169 -236 169c-140 0 -237 -61 -237 -169c0 -112 107 -168 237 -168z" />
    <glyph glyph-name="nine" unicode="9" horiz-adv-x="663" 
d="M327 252c-144 0 -268 77 -268 223c0 151 122 234 273 234c150 0 271 -113 271 -313c0 -292 -125 -400 -291 -400c-98 0 -163 32 -223 72l19 30c53 -36 114 -67 203 -67c147 0 257 100 257 358c0 4 -1 8 -1 12c-21 -97 -133 -149 -240 -149zM332 285c115 0 224 68 224 186
c0 105 -107 204 -224 204c-131 0 -237 -72 -237 -200c0 -122 108 -190 237 -190z" />
    <glyph glyph-name="colon" unicode=":" horiz-adv-x="189" 
d="M90 536c17 0 30 -12 30 -29s-13 -29 -30 -29s-30 12 -30 29s13 29 30 29zM90 54c17 0 30 -12 30 -29s-13 -29 -30 -29s-30 12 -30 29s13 29 30 29z" />
    <glyph glyph-name="semicolon" unicode=";" horiz-adv-x="186" 
d="M90 55c21 0 30 -16 30 -40c0 -88 -49 -136 -99 -139l-7 19c32 5 76 41 76 102c-16 0 -29 13 -29 29s15 29 29 29zM90 536c17 0 30 -12 30 -29s-13 -29 -30 -29s-30 12 -30 29s13 29 30 29z" />
    <glyph glyph-name="less" unicode="&#x3c;" horiz-adv-x="607" 
d="M534 594v-35l-431 -211l431 -209v-35l-478 234v21z" />
    <glyph glyph-name="equal" unicode="=" horiz-adv-x="620" 
d="M73 176v31h472v-31h-472zM73 498h472v-31h-472v31z" />
    <glyph glyph-name="greater" unicode="&#x3e;" horiz-adv-x="608" 
d="M82 104v35l430 209l-430 211v35l478 -235v-21z" />
    <glyph glyph-name="question" unicode="?" horiz-adv-x="540" 
d="M231 709c155 0 260 -81 260 -220c0 -135 -131 -189 -243 -190l-4 -131h-27l-4 150l7 10h11c158 0 227 80 227 157c0 121 -92 191 -226 191c-87 0 -138 -9 -210 -47l-14 29c76 42 131 51 223 51zM230 54c17 0 30 -12 30 -29s-13 -29 -30 -29s-30 12 -30 29s13 29 30 29z
" />
    <glyph glyph-name="at" unicode="@" horiz-adv-x="965" 
d="M486 724c242 0 439 -195 439 -437c0 -131 -94 -236 -213 -236c-81 0 -117 35 -117 99c0 9 0 19 2 29c-43 -68 -113 -113 -187 -113c-111 0 -190 91 -190 206c0 141 109 259 233 259c83 0 150 -52 175 -126l16 105l35 -5c-14 -87 -52 -334 -52 -344c0 -66 41 -84 89 -84
c113 0 184 102 184 210c0 228 -186 411 -414 411c-229 0 -414 -185 -414 -413c0 -229 185 -414 414 -414c104 0 198 36 270 99l18 -18c-77 -67 -178 -107 -288 -107c-243 0 -440 197 -440 440c0 242 197 439 440 439zM613 333c0 92 -69 164 -158 164
c-105 0 -200 -100 -200 -223c0 -97 66 -174 157 -174c105 0 200 106 201 233z" />
    <glyph glyph-name="A" unicode="A" horiz-adv-x="712" 
d="M648 0l-91 204h-403l-90 -204h-40l318 705h28l317 -705h-39zM355 660l-187 -424h376z" />
    <glyph glyph-name="B" unicode="B" horiz-adv-x="695" 
d="M506 565c0 -39 -15 -88 -53 -115c123 -12 191 -118 191 -227c0 -117 -74 -223 -213 -223h-336v705h251c89 0 160 -60 160 -140zM132 670v-217h244c70 0 94 64 94 108c0 64 -57 109 -129 109h-209zM132 35h290c121 0 183 90 183 190c0 99 -62 195 -183 195h-290v-385z" />
    <glyph glyph-name="C" unicode="C" horiz-adv-x="768" 
d="M427 33c105 0 198 48 258 121l29 -25c-68 -81 -171 -133 -287 -133c-203 0 -369 160 -369 356s166 357 369 357c116 0 219 -53 287 -134l-29 -25c-60 73 -153 122 -258 122c-182 0 -330 -143 -330 -320s148 -319 330 -319z" />
    <glyph glyph-name="D" unicode="D" horiz-adv-x="725" 
d="M667 352c0 -187 -147 -340 -332 -352h-240v705h217c196 0 355 -158 355 -353zM132 35h200c163 14 297 150 297 317c0 176 -142 318 -317 318h-180v-635z" />
    <glyph glyph-name="E" unicode="E" 
d="M132 35h448v-35h-485v705h464v-35h-427v-311h365v-34h-365v-290z" />
    <glyph glyph-name="F" unicode="F" horiz-adv-x="618" 
d="M567 670h-435v-360h380v-34h-380v-276h-37v705h472v-35z" />
    <glyph glyph-name="G" unicode="G" horiz-adv-x="801" 
d="M411 327h322v-228c-77 -63 -186 -103 -304 -103c-204 0 -371 160 -371 356s167 356 371 356c116 0 211 -39 278 -101l-25 -27c-61 56 -148 91 -253 91c-183 0 -333 -143 -333 -319c0 -177 150 -320 333 -320c106 0 197 33 267 86v175h-285v34z" />
    <glyph glyph-name="H" unicode="H" horiz-adv-x="726" 
d="M594 705h37v-705h-37v295h-462v-295h-37v705h37v-375h462v375z" />
    <glyph glyph-name="I" unicode="I" horiz-adv-x="229" 
d="M133 705v-705h-37v705h37z" />
    <glyph glyph-name="J" unicode="J" horiz-adv-x="607" 
d="M486 705h37v-417c0 -172 -79 -292 -249 -292c-121 0 -222 88 -241 204l34 4c20 -98 104 -171 207 -171c144 0 212 104 212 251v421z" />
    <glyph glyph-name="K" unicode="K" horiz-adv-x="684" 
d="M311 365l324 -365h-51l-299 337l-153 -164v-173h-37v705h37v-479l446 479h48z" />
    <glyph glyph-name="L" unicode="L" horiz-adv-x="591" 
d="M132 34h415v-34h-452v705h37v-671z" />
    <glyph glyph-name="M" unicode="M" horiz-adv-x="874" 
d="M754 705h24v-705h-37v619l-304 -500l-305 500v-619h-37v705h25l317 -518z" />
    <glyph glyph-name="N" unicode="N" horiz-adv-x="768" 
d="M636 705h37v-705h-24l-517 634v-634h-37v705h25l516 -634v634z" />
    <glyph glyph-name="O" unicode="O" horiz-adv-x="858" 
d="M429 708c205 0 370 -160 370 -356s-165 -356 -370 -356s-371 160 -371 356s166 356 371 356zM429 33c184 0 332 143 332 319s-148 320 -332 320c-183 0 -333 -144 -333 -320s150 -319 333 -319z" />
    <glyph glyph-name="P" unicode="P" horiz-adv-x="654" 
d="M95 705h269c182 0 245 -108 245 -225c0 -169 -112 -237 -270 -237h-207v-243h-37v705zM132 277h205c138 0 233 59 233 202c0 100 -54 191 -209 191h-229v-393z" />
    <glyph glyph-name="R" unicode="R" horiz-adv-x="669" 
d="M584 0l-181 246c-20 -2 -42 -3 -63 -3h-208v-243h-37v705h271c182 0 245 -108 245 -225c0 -129 -66 -201 -170 -226l189 -254h-46zM132 670v-393h207c138 0 233 59 233 202c0 100 -54 191 -208 191h-232z" />
    <glyph glyph-name="S" unicode="S" 
d="M332 371c132 -33 245 -72 245 -190c0 -119 -101 -188 -251 -188c-111 0 -156 8 -268 64l15 31c106 -52 149 -60 253 -60c128 0 213 56 213 152c0 95 -99 126 -216 155c-140 34 -260 72 -260 192c0 107 91 182 239 182c80 0 184 -21 245 -54l-17 -32
c-58 32 -156 51 -228 51c-125 0 -201 -61 -201 -146c0 -94 105 -126 231 -157z" />
    <glyph glyph-name="T" unicode="T" horiz-adv-x="660" 
d="M607 705v-35h-257v-670h-37v670h-256v35h550z" />
    <glyph glyph-name="U" unicode="U" horiz-adv-x="754" 
d="M660 705v-422c0 -159 -99 -287 -284 -287c-183 0 -281 127 -281 287v422h36v-418c0 -145 86 -254 245 -254c161 0 247 110 247 254v418h37z" />
    <glyph glyph-name="V" unicode="V" horiz-adv-x="760" 
d="M383 62l299 643h40l-328 -705h-22l-328 705h41z" />
    <glyph glyph-name="W" unicode="W" horiz-adv-x="1117" 
d="M1074 705l-266 -705h-23l-232 639l-232 -639h-22l-267 705h40l238 -636l231 636h24l231 -636l238 636h40z" />
    <glyph glyph-name="X" unicode="X" horiz-adv-x="698" 
d="M352 381l263 324h44l-283 -353l284 -352h-45l-263 324l-263 -324h-45l284 352l-283 353h45z" />
    <glyph glyph-name="Y" unicode="Y" horiz-adv-x="648" 
d="M579 705h44l-280 -461v-244h-37v244l-280 461h43l255 -423z" />
    <glyph glyph-name="Z" unicode="Z" horiz-adv-x="649" 
d="M594 705v-18l-488 -652h496v-35h-552v17l487 653h-458v35h515z" />
    <glyph glyph-name="bracketleft" unicode="[" horiz-adv-x="288" 
d="M266 672h-138v-770h138v-29h-170v828h170v-29z" />
    <glyph glyph-name="backslash" unicode="\" horiz-adv-x="415" 
d="M420 -128l-443 926h35l443 -926h-35z" />
    <glyph glyph-name="bracketright" unicode="]" horiz-adv-x="303" 
d="M38 -98h138v770h-138v29h170v-828h-170v29z" />
    <glyph glyph-name="asciicircum" unicode="^" horiz-adv-x="432" 
d="M75 490h-36l168 215h22l168 -215h-36l-143 184z" />
    <glyph glyph-name="underscore" unicode="_" horiz-adv-x="579" 
d="M582 -31v-27h-585v27h585z" />
    <glyph glyph-name="grave" unicode="`" horiz-adv-x="438" 
d="M275 758l-165 152l45 4l155 -156h-35z" />
    <glyph glyph-name="a" unicode="a" horiz-adv-x="667" 
d="M545 539h35v-539h-35v65c-53 -42 -126 -69 -213 -69c-156 0 -280 125 -280 277c0 151 124 276 280 276c83 0 162 -28 213 -72v62zM545 107v329c-50 49 -124 78 -210 78c-137 0 -248 -108 -248 -241c0 -134 111 -242 248 -242c88 0 161 28 210 76z" />
    <glyph glyph-name="b" unicode="b" horiz-adv-x="668" 
d="M335 549c155 0 281 -122 281 -277c0 -154 -126 -276 -281 -276c-83 0 -162 27 -212 71v-67h-36v754h36v-274c52 42 125 69 212 69zM332 31c137 0 248 107 248 241c0 135 -111 242 -248 242c-88 0 -161 -29 -209 -76v-329c50 -49 122 -78 209 -78z" />
    <glyph glyph-name="c" unicode="c" horiz-adv-x="589" 
d="M514 113l25 -25c-49 -57 -119 -92 -195 -92c-162 0 -293 124 -293 276c0 153 131 277 293 277c79 0 148 -35 196 -91l-26 -23c-41 48 -102 79 -170 79c-142 0 -257 -108 -257 -242c0 -133 115 -241 257 -241c67 0 128 32 170 82z" />
    <glyph glyph-name="d" unicode="d" horiz-adv-x="668" 
d="M545 754h36v-754h-36v67c-50 -44 -129 -71 -212 -71c-155 0 -282 122 -282 276c0 155 127 277 282 277c86 0 159 -27 212 -69v274zM335 31c86 0 160 29 210 78v329c-49 47 -122 76 -210 76c-136 0 -247 -107 -247 -242c0 -134 111 -241 247 -241z" />
    <glyph glyph-name="e" unicode="e" horiz-adv-x="637" 
d="M584 269v-12h-496c8 -132 114 -226 239 -226c81 0 159 30 207 91l28 -22c-50 -63 -136 -104 -237 -104c-162 0 -274 124 -274 276c0 153 112 277 274 277c160 0 259 -116 259 -280zM325 515c-135 0 -231 -99 -237 -226h461c-7 132 -90 226 -224 226z" />
    <glyph glyph-name="f" unicode="f" horiz-adv-x="371" 
d="M369 746v-33c-17 5 -44 10 -88 10c-95 0 -120 -63 -120 -169v-15h197v-33h-197v-535c0 -90 -63 -155 -152 -155c-14 0 -28 1 -40 2v33c10 -1 22 -2 37 -2c68 0 119 37 119 130v527h-103v33h103v18c0 117 37 200 154 200c41 0 72 -6 90 -11z" />
    <glyph glyph-name="g" unicode="g" horiz-adv-x="667" 
d="M544 539h36v-484c0 -131 -82 -240 -255 -240c-120 0 -143 12 -218 33l8 31c75 -22 107 -31 207 -31c157 0 222 100 222 192v23c-53 -41 -126 -67 -212 -67c-155 0 -282 124 -282 278c0 153 127 275 282 275c83 0 162 -28 212 -72v62zM87 274c0 -134 111 -243 247 -243
c88 0 161 27 210 75v330c-50 49 -124 78 -210 78c-136 0 -247 -107 -247 -240z" />
    <glyph glyph-name="h" unicode="h" horiz-adv-x="639" 
d="M334 549c131 0 232 -81 232 -238v-311h-36v311c0 132 -88 203 -199 203c-88 0 -155 -28 -208 -75v-439h-36v754h36v-279c49 47 124 74 211 74z" />
    <glyph glyph-name="i" unicode="i" horiz-adv-x="213" 
d="M88 0v539h37v-539h-37zM106 711c17 0 30 -12 30 -29s-13 -29 -30 -29s-30 12 -30 29s13 29 30 29z" />
    <glyph glyph-name="j" unicode="j" horiz-adv-x="211" 
d="M87 -21v560h37v-568c0 -103 -67 -156 -149 -156c-16 0 -31 2 -44 3v33c11 -1 23 -1 37 -1c68 0 119 42 119 129zM105 711c17 0 30 -12 30 -29s-13 -29 -30 -29s-30 12 -30 29s13 29 30 29z" />
    <glyph glyph-name="k" unicode="k" horiz-adv-x="612" 
d="M365 334l218 -334h-42l-202 307l-216 -200v-107h-36v754h36v-599l411 384h50z" />
    <glyph glyph-name="l" unicode="l" horiz-adv-x="211" 
d="M87 0v754h37v-754h-37z" />
    <glyph glyph-name="m" unicode="m" horiz-adv-x="1003" 
d="M698 549c132 0 233 -81 233 -238v-311h-36v311c0 132 -87 203 -199 203c-77 0 -137 -31 -184 -82c16 -32 26 -71 26 -121v-311h-36v311c0 131 -79 203 -180 203c-85 0 -149 -28 -199 -75v-439h-36v539h36v-65c48 48 119 75 201 75c74 0 138 -30 176 -90
c44 57 115 90 198 90z" />
    <glyph glyph-name="n" unicode="n" horiz-adv-x="640" 
d="M334 549c131 0 232 -81 232 -238v-311h-36v311c0 132 -87 203 -199 203c-88 0 -155 -28 -208 -75v-439h-36v539h36v-65c49 48 124 75 211 75z" />
    <glyph glyph-name="o" unicode="o" horiz-adv-x="687" 
d="M343 549c161 0 292 -124 292 -277c0 -152 -131 -276 -292 -276c-162 0 -293 124 -293 276c0 153 131 277 293 277zM343 31c141 0 256 108 256 241c0 134 -115 242 -256 242c-142 0 -257 -108 -257 -242c0 -133 115 -241 257 -241z" />
    <glyph glyph-name="p" unicode="p" horiz-adv-x="670" 
d="M335 549c155 0 281 -122 281 -276c0 -155 -126 -277 -281 -277c-87 0 -160 26 -212 68v-239h-36v714h36v-62c50 44 129 72 212 72zM332 31c137 0 248 107 248 242c0 134 -111 241 -248 241c-87 0 -159 -29 -209 -78v-329c48 -48 121 -76 209 -76z" />
    <glyph glyph-name="q" unicode="q" horiz-adv-x="670" 
d="M547 539h35v-714h-35v239c-53 -42 -126 -68 -213 -68c-154 0 -281 122 -281 277c0 154 127 276 281 276c83 0 163 -28 213 -72v62zM89 273c0 -135 111 -242 248 -242c88 0 161 28 210 76v329c-50 49 -124 78 -210 78c-137 0 -248 -107 -248 -241z" />
    <glyph glyph-name="r" unicode="r" horiz-adv-x="433" 
d="M123 539v-129c31 83 95 138 183 139c29 0 61 -7 93 -23l-9 -35c-31 15 -61 20 -87 20c-107 0 -180 -100 -180 -228v-283h-36v539h36z" />
    <glyph glyph-name="s" unicode="s" horiz-adv-x="536" 
d="M51 45l14 30c59 -23 131 -45 209 -45c131 0 177 58 177 118c0 67 -79 94 -185 116c-119 24 -205 59 -205 143c0 82 85 142 196 142c68 0 134 -14 197 -41l-12 -30c-57 26 -120 37 -185 37c-91 0 -161 -45 -161 -108c0 -61 66 -87 178 -109c125 -24 212 -59 212 -149
c0 -79 -58 -153 -213 -153c-84 0 -160 23 -222 49z" />
    <glyph glyph-name="t" unicode="t" horiz-adv-x="389" 
d="M369 506h-210v-334c0 -102 49 -141 119 -141c44 0 71 5 89 10v-33c-19 -5 -51 -12 -96 -12c-82 0 -149 53 -149 156v354h-99v33h99v215h37v-215h210v-33z" />
    <glyph glyph-name="u" unicode="u" horiz-adv-x="650" 
d="M527 539h36v-539h-36v71c-52 -48 -131 -75 -220 -75c-131 0 -232 81 -232 238v305h35v-305c0 -132 88 -203 200 -203c91 0 161 27 217 75v433z" />
    <glyph glyph-name="v" unicode="v" horiz-adv-x="606" 
d="M538 539h41l-265 -539h-21l-265 539h40l236 -481z" />
    <glyph glyph-name="w" unicode="w" horiz-adv-x="849" 
d="M793 539h37l-210 -539h-22l-173 477l-173 -477h-22l-212 539h39l185 -476l170 476h25l171 -476z" />
    <glyph glyph-name="x" unicode="x" horiz-adv-x="580" 
d="M292 241l-213 -241h-44l235 270l-235 269h45l212 -242l212 242h45l-234 -269l235 -270h-45z" />
    <glyph glyph-name="y" unicode="y" horiz-adv-x="608" 
d="M531 539h39l-229 -568c-49 -123 -180 -155 -292 -155h-5l2 32h11c119 0 219 43 257 152h-30l-250 539h40l231 -499h25z" />
    <glyph glyph-name="z" unicode="z" horiz-adv-x="590" 
d="M548 519l-440 -486h438v-33h-494v23l438 483h-423v33h481v-20z" />
    <glyph glyph-name="braceleft" unicode="{" horiz-adv-x="381" 
d="M350 705v-30c-77 0 -133 -9 -133 -100v-105c0 -115 -13 -173 -81 -188c68 -15 81 -65 81 -180v-123c0 -90 56 -100 133 -100v-30c-91 0 -164 11 -164 124v119c0 146 -2 175 -153 175v29c151 0 153 38 153 184v101c0 114 73 124 164 124z" />
    <glyph glyph-name="bar" unicode="|" horiz-adv-x="254" 
d="M105 -128v926h31v-926h-31z" />
    <glyph glyph-name="braceright" unicode="}" horiz-adv-x="377" 
d="M33 675v30c91 0 165 -10 165 -124v-101c0 -146 2 -184 153 -184v-29c-151 0 -153 -29 -153 -175v-119c0 -113 -74 -124 -165 -124v30c77 0 133 10 133 100v123c0 115 12 165 82 180c-70 15 -82 73 -82 188v105c0 91 -56 100 -133 100z" />
    <glyph glyph-name="asciitilde" unicode="~" horiz-adv-x="461" 
d="M72 245l-27 3c10 69 46 108 106 108s112 -49 165 -49c31 0 62 25 71 79l27 -5c-11 -73 -52 -106 -96 -106c-59 0 -116 49 -166 49c-43 0 -70 -29 -80 -79z" />
    <glyph glyph-name="quotesinglbase" unicode="&#x201a;" horiz-adv-x="185" 
d="M89 57c26 0 31 -24 31 -51c0 -56 -38 -104 -104 -104l-6 19c39 2 79 21 79 79c-15 1 -27 13 -27 29s13 28 27 28z" />
    <glyph glyph-name="florin" unicode="&#x192;" horiz-adv-x="553" 
d="M529 729v-32c-12 8 -28 19 -73 19c-67 0 -127 -42 -143 -127l-19 -95h175v-32h-180l-50 -266c-19 -103 -97 -156 -179 -156c-20 0 -38 8 -42 9v32c12 -4 26 -7 41 -7c68 0 129 44 145 131l48 257h-119v32h126l19 100c20 104 97 156 179 156c38 0 65 -13 72 -21z" />
    <glyph glyph-name="quotedblbase" unicode="&#x201e;" horiz-adv-x="309" 
d="M91 57c27 0 32 -24 32 -51c0 -56 -38 -104 -104 -104l-6 19c39 2 78 21 79 79c-15 1 -27 13 -27 29s13 28 26 28zM229 57c26 0 31 -24 31 -51c0 -56 -38 -104 -103 -104l-7 19c39 2 79 21 79 79c-15 1 -27 13 -27 29s14 28 27 28z" />
    <glyph glyph-name="ellipsis" unicode="&#x2026;" horiz-adv-x="498" 
d="M68 54c17 0 30 -12 30 -29s-13 -29 -30 -29s-30 12 -30 29s13 29 30 29zM242 54c17 0 30 -12 30 -29s-13 -29 -30 -29s-30 12 -30 29s13 29 30 29zM422 54c17 0 30 -12 30 -29s-13 -29 -30 -29s-30 12 -30 29s13 29 30 29z" />
    <glyph glyph-name="dagger" unicode="&#x2020;" horiz-adv-x="410" 
d="M360 580v-36l-119 6h-22v-125l4 -159h-32l3 159v125h-24l-119 -6v37l119 -5h23l-1 115h31l-3 -115h21z" />
    <glyph glyph-name="daggerdbl" unicode="&#x2021;" horiz-adv-x="430" 
d="M229 261v-121h22l119 6v-35l-119 4h-21l3 -115h-31l1 115h-24l-118 -5v36l118 -6h25l1 121l-1 90l1 79l-1 120h-25l-118 -5v36l118 -5h24l-1 115h31l-3 -115h21l119 4v-35l-118 5h-23v-120l1 -79z" />
    <glyph glyph-name="circumflex" unicode="&#x2c6;" horiz-adv-x="500" 
d="M93 758l142 134h26l143 -134h-42l-114 104l-113 -104h-42z" />
    <glyph glyph-name="perthousand" unicode="&#x2030;" horiz-adv-x="1275" 
d="M382 516c0 -121 -78 -193 -174 -193c-97 0 -175 72 -175 193c0 122 78 193 175 193c96 0 174 -71 174 -193zM62 516c0 -102 65 -163 146 -163c80 0 145 61 145 163c0 103 -65 163 -145 163c-81 0 -146 -60 -146 -163zM662 381c96 0 174 -70 174 -192
c0 -121 -78 -193 -174 -193c-97 0 -175 72 -175 193c0 122 78 192 175 192zM662 26c80 0 145 61 145 163c0 103 -65 163 -145 163c-81 0 -145 -60 -145 -163c0 -102 64 -163 145 -163zM1056 381c96 0 174 -70 174 -192c0 -121 -78 -193 -174 -193c-97 0 -175 72 -175 193
c0 122 78 192 175 192zM1056 26c80 0 145 61 145 163c0 103 -65 163 -145 163s-145 -60 -145 -163c0 -102 65 -163 145 -163zM661 701h33l-483 -701h-33z" />
    <glyph glyph-name="guilsinglleft" unicode="&#x2039;" horiz-adv-x="290" 
d="M206 10l-173 256l173 256l25 -18l-163 -238l163 -238z" />
    <glyph glyph-name="OE" unicode="&#x152;" horiz-adv-x="1015" 
d="M58 352c0 205 181 353 384 353h498v-35h-427v-311h365v-34h-365v-290h448v-35h-519c-201 0 -384 157 -384 352zM476 35v635h-32c-177 0 -348 -123 -348 -318c0 -186 171 -317 348 -317h32z" />
    <glyph glyph-name="quoteleft" unicode="&#x2018;" horiz-adv-x="179" 
d="M88 550c-26 0 -31 24 -31 51c0 56 38 104 103 104l7 -18c-40 -2 -79 -21 -79 -80c15 0 27 -13 27 -28c0 -16 -14 -29 -27 -29z" />
    <glyph glyph-name="quoteright" unicode="&#x2019;" horiz-adv-x="165" 
d="M101 705c27 0 32 -24 32 -51c0 -56 -38 -104 -104 -104l-6 19c39 2 78 21 79 79c-16 1 -27 13 -27 28c0 17 13 29 26 29z" />
    <glyph glyph-name="quotedblleft" unicode="&#x201c;" horiz-adv-x="313" 
d="M215 550c-26 0 -31 24 -31 51c0 56 38 104 104 104l6 -19c-39 -2 -79 -21 -79 -79c15 -1 27 -13 27 -29s-13 -28 -27 -28zM78 550c-26 0 -31 24 -31 51c0 56 37 104 103 104l7 -19c-40 -2 -79 -21 -79 -79c15 -1 27 -13 27 -29s-14 -28 -27 -28z" />
    <glyph glyph-name="quotedblright" unicode="&#x201d;" horiz-adv-x="306" 
d="M102 705c27 0 32 -24 32 -51c0 -56 -38 -104 -104 -104l-6 19c39 2 78 21 79 79c-16 1 -27 13 -27 28c0 17 13 29 26 29zM240 705c26 0 31 -24 31 -51c0 -56 -38 -104 -103 -104l-7 19c39 2 79 21 79 79c-15 1 -27 13 -27 28c0 17 14 29 27 29z" />
    <glyph glyph-name="bullet" unicode="&#x2022;" horiz-adv-x="370" 
d="M283 352c0 -55 -45 -99 -99 -99c-55 0 -100 44 -100 99c0 54 45 98 100 98c54 0 99 -44 99 -98z" />
    <glyph glyph-name="endash" unicode="&#x2013;" horiz-adv-x="528" 
d="M479 347v-31h-430v31h430z" />
    <glyph glyph-name="emdash" unicode="&#x2014;" horiz-adv-x="898" 
d="M847 347v-31h-798v31h798z" />
    <glyph glyph-name="tilde" unicode="&#x2dc;" horiz-adv-x="500" 
d="M90 761l-27 4c10 69 47 107 106 107c60 0 112 -48 165 -48c31 0 62 25 71 78l27 -4c-11 -73 -52 -106 -96 -106c-59 0 -116 48 -165 48c-44 0 -71 -28 -81 -79z" />
    <glyph glyph-name="trademark" unicode="&#x2122;" horiz-adv-x="695" 
d="M287 699v-26h-122v-286h-26v286h-123v26h271zM653 699h11v-312h-26v248l-138 -199l-138 199v-248h-26v312h11l153 -219z" />
    <glyph glyph-name="guilsinglright" unicode="&#x203a;" horiz-adv-x="269" 
d="M58 522l174 -256l-174 -256l-24 18l162 238l-162 238z" />
    <glyph glyph-name="oe" unicode="&#x153;" horiz-adv-x="1185" 
d="M342 -4c-161 0 -292 124 -292 276c0 153 131 277 293 277c127 0 235 -78 273 -187c33 109 128 187 256 187c162 0 260 -117 260 -280v-12h-497c5 -128 103 -228 239 -228c89 0 163 35 209 91l26 -20c-50 -63 -134 -104 -236 -104c-128 0 -224 78 -258 186
c-37 -108 -145 -186 -273 -186zM343 31c142 0 256 108 256 241c0 134 -115 242 -256 242c-142 0 -257 -108 -257 -242c0 -133 115 -241 257 -241zM872 516c-135 0 -231 -100 -237 -227h461c-7 133 -92 227 -224 227z" />
    <glyph glyph-name="exclamdown" unicode="&#xa1;" horiz-adv-x="193" 
d="M82 527h21l8 -527h-37zM92 650c-17 0 -30 12 -30 29s13 29 30 29s30 -12 30 -29s-13 -29 -30 -29z" />
    <glyph glyph-name="cent" unicode="&#xa2;" horiz-adv-x="575" 
d="M365 607l-98 -475c20 -4 42 -7 64 -7c66 1 126 32 168 82l25 -24c-48 -56 -119 -91 -194 -91c-25 0 -48 2 -69 8l-21 -100h-32l22 107c-113 39 -194 141 -194 261c0 175 150 276 304 276l15 70h32l-15 -74c61 -9 114 -40 153 -85l-26 -22c-34 39 -82 66 -134 74zM70 368
c0 -105 69 -193 167 -227l96 471c-149 -2 -263 -110 -263 -244z" />
    <glyph glyph-name="sterling" unicode="&#xa3;" horiz-adv-x="639" 
d="M604 34v-34h-561v22l112 11c-9 61 -23 175 -31 269h-71v33h70c-3 31 -4 60 -4 82c0 211 108 292 254 292c94 0 176 -51 219 -127l-29 -19c-37 66 -108 111 -190 111c-151 0 -217 -104 -217 -254c0 -22 1 -52 4 -85h320v-33h-318c9 -91 23 -203 32 -268h410z" />
    <glyph glyph-name="Euro" unicode="&#x20ac;" horiz-adv-x="704" 
d="M426 33c92 0 173 46 227 117l28 -22c-60 -81 -152 -132 -255 -132c-155 0 -284 115 -318 274h-68v28h64c-3 18 -4 35 -4 53c0 17 1 34 4 51h-64v29h68c33 158 163 275 318 275c103 0 195 -52 255 -132l-28 -23c-54 72 -135 118 -227 118c-135 0 -248 -102 -279 -238h316
v-29h-321c-3 -17 -4 -34 -4 -51c0 -18 1 -35 4 -53h321v-28h-315c31 -137 144 -237 278 -237z" />
    <glyph glyph-name="yen" unicode="&#xa5;" horiz-adv-x="699" 
d="M641 705l-248 -407h178v-32h-197l-13 -23v-15h209v-33h-209v-195h-37v195h-210v33h210v15l-13 23h-197v32h177l-247 407h43l255 -423l255 423h44z" />
    <glyph glyph-name="section" unicode="&#xa7;" horiz-adv-x="626" 
d="M536 321c0 -46 -43 -81 -72 -96c25 -17 40 -40 40 -78c0 -68 -61 -148 -198 -148c-77 0 -152 11 -224 47l15 29c50 -23 95 -44 197 -44c77 0 172 33 172 115c0 69 -107 80 -178 99c-108 29 -210 48 -210 127c0 42 39 75 91 96c-42 21 -70 52 -70 99c0 96 100 144 191 144
c78 0 157 -24 216 -43l-10 -32c-58 19 -135 42 -206 42c-73 0 -156 -38 -156 -113c0 -73 110 -90 214 -116c124 -31 188 -57 188 -128zM347 415c-48 12 -100 22 -144 38c-49 -17 -92 -50 -92 -80c0 -47 65 -64 165 -91c55 -15 112 -24 154 -40c16 4 74 36 74 78
c0 43 -38 66 -157 95z" />
    <glyph glyph-name="dieresis" unicode="&#xa8;" horiz-adv-x="500" 
d="M174 836c17 0 30 -12 30 -29s-13 -29 -30 -29s-30 12 -30 29s13 29 30 29zM327 836c17 0 30 -12 30 -29s-13 -29 -30 -29s-30 12 -30 29s13 29 30 29z" />
    <glyph glyph-name="copyright" unicode="&#xa9;" horiz-adv-x="830" 
d="M417 712c199 0 354 -164 354 -358c0 -193 -156 -358 -356 -358c-199 0 -355 164 -355 358c0 193 157 358 357 358zM746 354c0 181 -144 333 -329 333c-186 0 -332 -153 -332 -333c0 -181 145 -333 330 -333c186 0 331 153 331 333zM418 173c55 0 104 26 136 67l23 -18
c-37 -48 -95 -78 -159 -78c-113 0 -205 94 -205 210s92 209 205 209c64 0 122 -30 159 -78l-23 -18c-32 41 -81 67 -136 67c-96 0 -175 -80 -175 -180s79 -181 175 -181z" />
    <glyph glyph-name="guillemotleft" unicode="&#xab;" horiz-adv-x="517" 
d="M444 10l-173 256l173 256c4 -2 22 -15 25 -18l-163 -238l163 -238c-3 -3 -22 -16 -25 -18zM230 10l-173 256l173 256c4 -2 22 -15 25 -18l-163 -238l163 -238c-3 -3 -22 -16 -25 -18z" />
    <glyph glyph-name="registered" unicode="&#xae;" horiz-adv-x="830" 
d="M417 712c199 0 355 -164 355 -358c0 -193 -157 -358 -357 -358c-199 0 -355 164 -355 358c0 193 157 358 357 358zM746 354c0 181 -144 333 -329 333c-186 0 -332 -153 -332 -333c0 -181 145 -333 330 -333c186 0 331 153 331 333zM585 164l-23 -18l-114 149
c-9 -1 -20 -1 -29 -1h-112v-140h-30v406h156c105 0 141 -62 141 -129c0 -74 -36 -114 -94 -130zM307 532v-211h111c75 0 126 31 126 109c0 53 -29 102 -112 102h-125z" />
    <glyph glyph-name="macron" unicode="&#xaf;" horiz-adv-x="500" 
d="M92 794v29h316v-29h-316z" />
    <glyph glyph-name="degree" unicode="&#xb0;" horiz-adv-x="472" 
d="M236 364c-99 0 -182 80 -182 178c0 97 86 178 182 178s182 -81 182 -180c0 -96 -83 -176 -182 -176zM236 392c83 0 153 68 153 148c0 83 -72 152 -153 152s-153 -69 -153 -150c0 -82 70 -150 153 -150z" />
    <glyph glyph-name="acute" unicode="&#xb4;" horiz-adv-x="500" 
d="M365 910l-164 -152h-35l155 156z" />
    <glyph glyph-name="paragraph" unicode="&#xb6;" horiz-adv-x="552" 
d="M259 700h220v-700h-36v665h-123v-665h-37v275h-21c-133 0 -231 74 -231 212s90 213 228 213zM284 313v352h-24c-113 0 -190 -61 -190 -177c0 -114 82 -175 192 -175h22z" />
    <glyph glyph-name="periodcentered" unicode="&#xb7;" horiz-adv-x="167" 
d="M80 341c17 0 30 -12 30 -29s-13 -29 -30 -29s-30 12 -30 29s13 29 30 29z" />
    <glyph glyph-name="cedilla" unicode="&#xb8;" horiz-adv-x="429" 
d="M185 -74l47 75h26l-29 -59c34 0 60 -21 60 -55c0 -33 -25 -73 -90 -73c-40 0 -60 9 -63 9l6 22c12 -4 36 -7 52 -7c46 0 64 26 64 50c0 29 -36 38 -73 38z" />
    <glyph glyph-name="guillemotright" unicode="&#xbb;" horiz-adv-x="514" 
d="M470 266l-174 -256l-25 18l163 238l-163 238l25 18zM256 266l-174 -256l-24 18l162 238l-162 238l24 18z" />
    <glyph glyph-name="questiondown" unicode="&#xbf;" horiz-adv-x="540" 
d="M309 -5c-155 0 -260 81 -260 220c0 135 131 189 243 190l4 131h27l4 -150l-7 -10h-11c-158 0 -227 -80 -227 -157c0 -121 92 -191 226 -191c87 0 138 9 210 47l14 -29c-76 -42 -131 -51 -223 -51zM310 650c-17 0 -30 12 -30 29s13 29 30 29s30 -12 30 -29
s-13 -29 -30 -29z" />
    <glyph glyph-name="AE" unicode="&#xc6;" horiz-adv-x="983" 
d="M481 35h449v-35h-485v204h-275l-110 -204h-41l380 705h510v-35h-428v-311h366v-34h-366v-290zM419 669l-233 -433h259v433h-26z" />
    <glyph glyph-name="Eth" unicode="&#xd0;" horiz-adv-x="731" 
d="M-5 337v32h106v336h217c196 0 355 -158 355 -353c0 -187 -147 -352 -332 -352h-240v337h-106zM138 35h200c164 0 297 150 297 317c0 176 -142 318 -317 318h-180v-301h208v-32h-208v-302z" />
    <glyph glyph-name="Oslash" unicode="&#xd8;" horiz-adv-x="858" 
d="M110 0l74 85c-78 65 -126 161 -126 267c0 196 166 356 371 356c86 0 164 -28 227 -75l63 72h38l-78 -90c73 -66 120 -159 120 -263c0 -196 -165 -356 -370 -356c-84 0 -161 27 -223 72l-59 -68h-37zM96 352c0 -95 43 -179 112 -238l424 490c-56 43 -126 68 -203 68
c-183 0 -333 -144 -333 -320zM429 33c184 0 332 143 332 319c0 92 -41 176 -108 234l-423 -489c56 -41 124 -64 199 -64z" />
    <glyph glyph-name="Thorn" unicode="&#xde;" horiz-adv-x="654" 
d="M95 0v705h37v-113h232c179 0 245 -105 245 -224c0 -168 -112 -237 -269 -237h-208v-131h-37zM132 165h208c135 0 231 59 231 203c0 101 -55 190 -208 190h-231v-393z" />
    <glyph glyph-name="germandbls" unicode="&#xdf;" horiz-adv-x="635" 
d="M415 422c113 -21 169 -120 169 -201c0 -144 -107 -225 -238 -225c-42 0 -83 6 -118 18l8 33c32 -10 69 -16 108 -16c112 0 204 67 204 190c0 82 -63 181 -199 181h-26v32h21c69 0 133 52 133 139c0 98 -76 152 -181 152c-96 0 -173 -84 -173 -220v-674h-36v671
c0 160 94 256 209 256c125 0 217 -65 217 -186c0 -76 -44 -131 -98 -150z" />
    <glyph glyph-name="ae" unicode="&#xe6;" horiz-adv-x="1136" 
d="M581 0h-36v65c-53 -42 -125 -69 -212 -69c-155 0 -281 122 -281 277c0 154 126 276 281 276c83 0 162 -28 212 -72v62h36v-143c40 90 129 153 242 153c162 0 260 -117 260 -280v-12h-497c6 -128 102 -227 239 -227c89 0 163 34 209 91l26 -21
c-50 -63 -134 -104 -236 -104c-114 0 -203 62 -243 152v-148zM545 107v329c-50 49 -124 78 -209 78c-137 0 -249 -107 -249 -241c0 -135 112 -242 249 -242c87 0 160 28 209 76zM823 516c-135 0 -231 -100 -237 -227h461c-7 133 -92 227 -224 227z" />
    <glyph glyph-name="eth" unicode="&#xf0;" horiz-adv-x="665" 
d="M229 754h46c28 -27 63 -59 97 -93l148 52l17 -25l-143 -50c113 -113 227 -252 227 -384c-1 -140 -132 -258 -293 -258s-292 119 -292 259c0 139 126 249 286 251c76 1 150 -23 203 -77l-21 32c-41 58 -93 114 -145 165l-175 -61l-18 24l171 60c-38 38 -75 73 -108 105z
M328 30c142 0 257 103 257 231c0 133 -131 214 -257 214c-142 0 -256 -97 -256 -220c0 -122 114 -225 256 -225z" />
    <glyph glyph-name="oslash" unicode="&#xf8;" horiz-adv-x="687" 
d="M83 0l61 70c-58 50 -94 122 -94 202c0 153 131 277 293 277c65 0 126 -21 175 -56l46 53h36l-62 -69c60 -51 97 -124 97 -205c0 -152 -131 -276 -292 -276c-67 0 -129 22 -178 57l-47 -53h-35zM343 31c141 0 256 108 256 241c0 70 -32 133 -85 177l-326 -369
c43 -31 96 -49 155 -49zM86 272c0 -70 32 -132 82 -175l326 369c-42 30 -95 48 -151 48c-142 0 -257 -108 -257 -242z" />
    <glyph glyph-name="thorn" unicode="&#xfe;" horiz-adv-x="670" 
d="M335 549c155 0 281 -122 281 -276c0 -155 -126 -277 -281 -277c-87 0 -160 26 -212 68v-239h-36v929h36v-277c50 44 129 72 212 72zM332 31c137 0 248 107 248 242c0 134 -111 241 -248 241c-87 0 -159 -29 -209 -78v-329c48 -48 121 -76 209 -76z" />
    <glyph glyph-name="intelligentdesign" horiz-adv-x="967" 
d="M652 619c67 -27 114 -93 114 -169c0 -77 -47 -143 -114 -170c-27 -67 -93 -114 -170 -114s-142 47 -170 114c-67 27 -114 93 -114 170c0 76 47 142 114 169c28 67 93 114 170 114s142 -47 170 -114zM504 471h112c0 65 -49 120 -112 131v-131zM504 428v-131
c63 12 112 66 112 131h-112zM461 294v134h-69v-134h69zM461 471v134h-69v-134h69zM286 111c26 0 47 -20 47 -45s-21 -46 -47 -46s-47 21 -47 46s21 45 47 45zM678 48c4 -4 9 -7 15 -10l-9 -21c-13 5 -23 13 -32 24h-15v-19h-24v88h41c27 0 36 -16 36 -34
c0 -12 -4 -22 -12 -28zM604 66c0 -24 -18 -44 -41 -44h-33v88h30c25 0 44 -20 44 -44zM492 64v46h24v-88h-11l-47 45v-45h-24v88h11zM398 109h24v-52c0 -22 -19 -37 -41 -37c-21 0 -41 15 -41 37v52h24v-46c0 -16 6 -21 17 -21s17 5 17 21v46zM732 77l18 32h27l-33 -58v-29
h-24v29l-33 58h27zM234 110v-20h-18v-32h17v-17h-17v-19h-24v19h-5v17h5v52h42zM286 42c12 0 22 11 22 24s-10 23 -22 23c-13 0 -23 -10 -23 -23s10 -24 23 -24zM650 -134c0 -12 -11 -21 -21 -21h-12v42h12c12 0 21 -10 21 -21zM554 43h7c11 0 19 10 19 23
c0 12 -9 22 -20 22h-6v-45zM907 -144l10 -11h-6l-8 9h-10v-9h-4v42h11c9 0 16 -8 16 -16c0 -6 -3 -12 -9 -15zM650 90h-13v-32h11c12 1 17 6 17 16c0 8 -4 16 -15 16zM629 -151c9 0 17 8 17 17c0 10 -8 17 -17 17h-8v-34h8zM145 -149l12 37h4l-14 -42h-4l-9 35l-8 -35h-4
l-14 42h4l12 -37l8 37h4zM207 -149l12 37h4l-14 -42h-4l-9 35l-8 -35h-4l-14 42h4l12 -37l8 37h4zM85 -149l12 37h4l-14 -42h-4l-9 35l-8 -35h-4l-14 42h4l12 -37l8 37h4zM566 -148v35h4v-42h-4l-25 36v-36h-4v42h4zM819 -148v35h4v-42h-4l-25 36v-36h-4v42h4zM288 -148v35
h4v-42h-4l-25 36v-36h-4v42h4zM479 -142v4h14v-11s-6 -6 -16 -6c-13 0 -22 9 -22 21s10 22 21 22c7 0 12 -3 16 -7l-3 -3c-3 4 -8 6 -13 6c-9 0 -17 -8 -17 -18c0 -9 8 -17 18 -17c7 0 12 4 12 4v5h-10zM766 -142v4h14v-11s-6 -6 -16 -6c-13 0 -22 9 -22 21s10 22 21 22
c7 0 12 -3 16 -7l-3 -3c-3 4 -8 6 -13 6c-9 0 -17 -8 -17 -18c0 -9 8 -17 18 -17c7 0 12 4 12 4v5h-10zM866 -142v4h14v-11s-6 -6 -16 -6c-13 0 -22 9 -22 21s10 22 21 22c7 0 12 -3 16 -7l-3 -3c-3 4 -8 6 -13 6c-9 0 -17 -8 -17 -18c0 -9 8 -17 18 -17c7 0 12 4 12 4v5
h-10zM341 -113h26v-4h-22v-18h20v-4h-20v-12h22v-4h-26v42zM659 -113h26v-4h-22v-18h20v-4h-20v-12h22v-4h-26v42zM502 -113h26v-4h-22v-18h20v-4h-20v-12h22v-4h-26v42zM893 -142h7c7 1 12 7 12 13c0 7 -6 12 -12 12h-7v-25zM708 -131c8 -3 11 -7 11 -12
c0 -7 -5 -12 -12 -12s-13 4 -15 9l3 2c2 -4 6 -7 12 -7c4 0 8 3 8 8c0 3 -2 6 -8 8c-10 4 -12 7 -12 12c0 6 5 11 11 11c5 0 9 -3 11 -7l-3 -2c-2 3 -4 5 -8 5c-3 0 -7 -3 -7 -7s3 -6 9 -8zM314 -117h-13v4h30v-4h-13v-38h-4v38zM591 -117h-13v4h30v-4h-13v-38h-4v38z
M409 -113h4v-38h20v-4h-24v42zM376 -113h4v-38h20v-4h-24v42zM244 -113h4v-42h-4v42zM442 -113h4v-42h-4v42zM729 -113h4v-42h-4v42zM225 -152c0 2 2 4 4 4s4 -2 4 -4s-2 -4 -4 -4s-4 2 -4 4zM830 -152c0 2 2 4 4 4s4 -2 4 -4s-2 -4 -4 -4s-4 2 -4 4z" />
    <glyph glyph-name="uni00AD" unicode="&#xad;" horiz-adv-x="408" 
d="M359 347v-31h-310v31h310z" />
    <glyph glyph-name="onesuperior" unicode="&#xb9;" horiz-adv-x="332" 
d="M206 705h12v-406h-29v375l-104 -23l-6 26z" />
    <glyph glyph-name="threesuperior" unicode="&#xb3;" horiz-adv-x="415" 
d="M344 692l-126 -155c76 -5 134 -48 134 -113c0 -82 -65 -131 -163 -131c-64 0 -102 6 -155 30l11 25c50 -22 86 -28 144 -28c80 0 134 39 134 104c0 57 -58 89 -131 89h-12l-6 11l122 154h-241v27h289v-13z" />
    <glyph glyph-name="twosuperior" unicode="&#xb2;" horiz-adv-x="415" 
d="M98 327h261v-28h-312v14c71 104 281 121 281 246c0 73 -61 128 -131 128c-64 0 -123 -53 -123 -128v-8h-27v9c0 90 69 155 150 155c85 0 159 -66 159 -155c0 -135 -181 -159 -258 -233z" />
    <glyph glyph-name="KB" unicode="&#xa4;" horiz-adv-x="973" 
d="M651 619c67 -27 114 -93 114 -169c0 -77 -47 -143 -114 -170c-27 -67 -93 -114 -169 -114c-77 0 -143 47 -170 114c-67 27 -114 93 -114 170c0 76 47 142 114 169c27 67 93 114 170 114c76 0 142 -47 169 -114zM503 294h35c42 0 77 35 77 78c0 22 -9 42 -24 56h-88v-134z
M503 471h88c15 14 24 34 24 56c0 43 -35 78 -77 78h-35v-134zM391 363l69 -69v134h-112v-134h43v69zM348 471h112v134l-69 -69v69h-43v-134zM777 75c10 -4 17 -14 17 -26c0 -14 -9 -27 -27 -27h-47v88h39c19 0 26 -9 26 -19c0 -7 -3 -12 -8 -16zM159 66
c0 -24 -18 -44 -41 -44h-33v88h30c25 0 44 -20 44 -44zM690 66c0 -24 -18 -44 -41 -44h-33v88h30c25 0 44 -20 44 -44zM504 64v46h24v-88h-11l-47 45v-45h-24v88h11zM396 66h41v-33c-10 -8 -25 -12 -39 -13c-26 0 -47 21 -47 46s21 45 47 45c15 0 27 -5 36 -13l-16 -16
c-5 4 -12 7 -20 7c-12 0 -22 -10 -22 -23c0 -14 10 -25 22 -25c5 0 10 2 14 4v4h-16v17zM238 29l9 18c11 -5 20 -7 30 -7c7 0 10 3 10 6c0 4 -3 6 -14 9c-19 4 -33 9 -33 28c0 16 12 28 33 28c15 0 27 -4 36 -7l-10 -19c-8 3 -18 6 -26 6c-6 0 -9 -3 -9 -6c0 -4 3 -6 15 -9
c20 -4 33 -11 33 -27c0 -18 -14 -29 -36 -29c-15 0 -24 2 -38 9zM563 61v-20h42v-19h-66v88h64v-20h-40v-12h27v-17h-27zM190 61v-20h42v-19h-66v88h63v-20h-39v-12h26v-17h-26zM833 77l18 32h28l-34 -58v-29h-24v29l-33 58h27zM344 22h-24v88h24v-88zM650 -134
c0 -12 -11 -21 -21 -21h-12v42h12c12 0 21 -10 21 -21zM109 43h7c11 0 19 10 19 23c0 12 -9 22 -20 22h-6v-45zM640 43h7c11 0 19 10 19 23c0 12 -9 22 -20 22h-6v-45zM907 -144l10 -11h-6l-8 9h-10v-9h-4v42h11c9 0 16 -8 16 -16c0 -6 -3 -12 -9 -15zM629 -151
c9 0 17 8 17 17c0 10 -8 17 -17 17h-8v-34h8zM207 -149l12 37h4l-14 -42h-4l-9 35l-8 -35h-4l-14 42h4l12 -37l8 37h4zM85 -149l12 37h4l-14 -42h-4l-9 35l-8 -35h-4l-14 42h4l12 -37l8 37h4zM145 -149l12 37h4l-14 -42h-4l-9 35l-8 -35h-4l-14 42h4l12 -37l8 37h4z
M566 -148v35h4v-42h-4l-25 36v-36h-4v42h4zM819 -148v35h4v-42h-4l-25 36v-36h-4v42h4zM288 -148v35h4v-42h-4l-25 36v-36h-4v42h4zM743 41h11c11 0 15 5 15 11c0 7 -6 10 -18 10h-8v-21zM866 -142v4h14v-11s-6 -6 -16 -6c-13 0 -22 9 -22 21s10 22 21 22c7 0 12 -3 16 -7
l-3 -3c-3 4 -8 6 -13 6c-9 0 -17 -8 -17 -18c0 -9 8 -17 18 -17c7 0 12 4 12 4v5h-10zM766 -142v4h14v-11s-6 -6 -16 -6c-13 0 -22 9 -22 21s10 22 21 22c7 0 12 -3 16 -7l-3 -3c-3 4 -8 6 -13 6c-9 0 -17 -8 -17 -18c0 -9 8 -17 18 -17c7 0 12 4 12 4v5h-10zM479 -142v4h14
v-11s-6 -6 -16 -6c-13 0 -22 9 -22 21s10 22 21 22c7 0 12 -3 16 -7l-3 -3c-3 4 -8 6 -13 6c-9 0 -17 -8 -17 -18c0 -9 8 -17 18 -17c7 0 12 4 12 4v5h-10zM502 -113h26v-4h-22v-18h20v-4h-20v-12h22v-4h-26v42zM659 -113h26v-4h-22v-18h20v-4h-20v-12h22v-4h-26v42z
M341 -113h26v-4h-22v-18h20v-4h-20v-12h22v-4h-26v42zM893 -142h7c7 1 12 7 12 13c0 7 -6 12 -12 12h-7v-25zM708 -131c8 -3 11 -7 11 -12c0 -7 -5 -12 -12 -12s-13 4 -15 9l3 2c2 -4 6 -7 12 -7c4 0 8 3 8 8c0 3 -2 6 -8 8c-10 4 -12 7 -12 12c0 6 5 11 11 11
c5 0 9 -3 11 -7l-3 -2c-2 3 -4 5 -8 5c-3 0 -7 -3 -7 -7s3 -6 9 -8zM591 -117h-13v4h30v-4h-13v-38h-4v38zM314 -117h-13v4h30v-4h-13v-38h-4v38zM376 -113h4v-38h20v-4h-24v42zM409 -113h4v-38h20v-4h-24v42zM758 90h-15v-11h14c5 0 7 3 7 5c0 3 -2 6 -6 6zM244 -113h4v-42
h-4v42zM729 -113h4v-42h-4v42zM442 -113h4v-42h-4v42zM830 -152c0 2 2 4 4 4s4 -2 4 -4s-2 -4 -4 -4s-4 2 -4 4zM225 -152c0 2 2 4 4 4s4 -2 4 -4s-2 -4 -4 -4s-4 2 -4 4z" />
    <glyph glyph-name="dieresistonos" unicode="&#x385;" horiz-adv-x="570" 
d="M262 589l68 184l33 -5l-71 -179h-30zM156 678c17 0 30 -12 30 -29s-13 -29 -30 -29s-30 12 -30 29s13 29 30 29zM421 678c17 0 30 -12 30 -29s-13 -29 -30 -29s-30 12 -30 29s13 29 30 29z" />
    <glyph glyph-name="tonos" unicode="&#x384;" horiz-adv-x="413" 
d="M359 706l-175 -153h-37l168 157z" />
    <glyph glyph-name="Alpha" unicode="&#x391;" horiz-adv-x="712" 
d="M648 0l-91 204h-403l-90 -204h-40l318 705h28l317 -705h-39zM355 660l-187 -424h376z" />
    <glyph glyph-name="Beta" unicode="&#x392;" horiz-adv-x="695" 
d="M506 565c0 -39 -15 -88 -53 -115c123 -12 191 -118 191 -227c0 -117 -74 -223 -213 -223h-336v705h251c89 0 160 -60 160 -140zM132 670v-217h244c70 0 94 64 94 108c0 64 -57 109 -129 109h-209zM132 35h290c121 0 183 90 183 190c0 99 -62 195 -183 195h-290v-385z" />
    <glyph glyph-name="Gamma" unicode="&#x393;" horiz-adv-x="591" 
d="M547 705v-35h-415v-670h-37v705h452z" />
    <glyph glyph-name="Epsilon" unicode="&#x395;" 
d="M132 35h448v-35h-485v705h464v-35h-427v-311h365v-34h-365v-290z" />
    <glyph glyph-name="Zeta" unicode="&#x396;" horiz-adv-x="649" 
d="M594 705v-18l-488 -652h496v-35h-552v17l487 653h-458v35h515z" />
    <glyph glyph-name="Eta" unicode="&#x397;" horiz-adv-x="726" 
d="M594 705h37v-705h-37v295h-462v-295h-37v705h37v-375h462v375z" />
    <glyph glyph-name="Theta" unicode="&#x398;" horiz-adv-x="858" 
d="M429 708c205 0 370 -160 370 -356s-165 -356 -370 -356s-371 160 -371 356s166 356 371 356zM429 33c184 0 332 143 332 319s-148 320 -332 320c-183 0 -333 -144 -333 -320s150 -319 333 -319zM177 337v32h504v-32h-504z" />
    <glyph glyph-name="Iota" unicode="&#x399;" horiz-adv-x="229" 
d="M133 705v-705h-37v705h37z" />
    <glyph glyph-name="Kappa" unicode="&#x39a;" horiz-adv-x="684" 
d="M311 365l324 -365h-51l-299 337l-153 -164v-173h-37v705h37v-479l446 479h48z" />
    <glyph glyph-name="Lambda" unicode="&#x39b;" horiz-adv-x="711" 
d="M369 705l316 -705h-39l-291 658l-290 -658h-40l316 705h28z" />
    <glyph glyph-name="Mu" unicode="&#x39c;" horiz-adv-x="874" 
d="M754 705h24v-705h-37v619l-304 -500l-305 500v-619h-37v705h25l317 -518z" />
    <glyph glyph-name="Nu" unicode="&#x39d;" horiz-adv-x="768" 
d="M636 705h37v-705h-24l-517 634v-634h-37v705h25l516 -634v634z" />
    <glyph glyph-name="Xi" unicode="&#x39e;" horiz-adv-x="675" 
d="M66 33h553v-33h-553v33zM610 705v-33h-535v33h535zM568 339h-451v32h451v-32z" />
    <glyph glyph-name="Omicron" unicode="&#x39f;" horiz-adv-x="858" 
d="M429 708c205 0 370 -160 370 -356s-165 -356 -370 -356s-371 160 -371 356s166 356 371 356zM429 33c184 0 332 143 332 319s-148 320 -332 320c-183 0 -333 -144 -333 -320s150 -319 333 -319z" />
    <glyph glyph-name="Pi" unicode="&#x3a0;" horiz-adv-x="744" 
d="M95 705h554v-705h-36v672h-481v-672h-37v705z" />
    <glyph glyph-name="Rho" unicode="&#x3a1;" horiz-adv-x="645" 
d="M95 705h269c182 0 245 -108 245 -225c0 -169 -112 -237 -270 -237h-207v-243h-37v705zM132 277h205c138 0 233 59 233 202c0 100 -54 191 -209 191h-229v-393z" />
    <glyph glyph-name="Sigma" unicode="&#x3a3;" horiz-adv-x="642" 
d="M105 35h487v-35h-544v18l253 334l-252 335v18h542v-35h-486l239 -318z" />
    <glyph glyph-name="Tau" unicode="&#x3a4;" horiz-adv-x="660" 
d="M607 705v-35h-257v-670h-37v670h-256v35h550z" />
    <glyph glyph-name="Upsilon" unicode="&#x3a5;" horiz-adv-x="648" 
d="M579 705h44l-280 -461v-244h-37v244l-280 461h43l255 -423z" />
    <glyph glyph-name="Phi" unicode="&#x3a6;" horiz-adv-x="893" 
d="M835 363v-9c0 -174 -161 -297 -322 -297h-48v-57h-37v57h-48c-161 1 -322 121 -322 297v9c0 163 149 296 322 296h48v46h37v-46h48c172 0 321 -132 322 -296zM95 358c0 -159 140 -266 285 -266h48v532h-48c-154 0 -285 -117 -285 -266zM465 624v-532h47
c145 0 286 107 286 266c0 149 -131 266 -285 266h-48z" />
    <glyph glyph-name="Chi" unicode="&#x3a7;" horiz-adv-x="736" 
d="M371 381l281 324h45l-302 -353l303 -352h-46l-281 325l-281 -325h-46l303 352l-302 353h46z" />
    <glyph glyph-name="Psi" unicode="&#x3a8;" horiz-adv-x="860" 
d="M750 705h37v-258c0 -163 -141 -292 -298 -292h-40v-155h-37v155h-40c-157 0 -298 129 -298 292v258h36v-258c0 -144 123 -257 262 -257h40v515h37v-515h40c139 0 261 113 261 257v258z" />
    <glyph glyph-name="alpha" unicode="&#x3b1;" horiz-adv-x="668" 
d="M545 539h36v-539h-36v65c-53 -42 -125 -69 -212 -69c-155 0 -281 122 -281 277c0 154 126 276 281 276c83 0 162 -28 212 -72v62zM545 107v329c-50 49 -124 78 -209 78c-137 0 -248 -107 -248 -241c0 -135 111 -242 248 -242c87 0 160 28 209 76z" />
    <glyph glyph-name="beta" unicode="&#x3b2;" horiz-adv-x="635" 
d="M421 422c110 -26 163 -120 163 -201c0 -144 -107 -225 -238 -225c-92 0 -169 29 -223 77v-242h-36v671c0 160 94 255 209 255c125 0 217 -64 217 -185c0 -76 -39 -126 -92 -150zM296 723c-97 0 -173 -82 -173 -218v-71h222c68 0 132 51 132 139c0 98 -76 150 -181 150z
M344 31c112 0 204 67 204 190c0 82 -63 181 -199 181h-226v-285c49 -53 125 -86 221 -86z" />
    <glyph glyph-name="gamma" unicode="&#x3b3;" horiz-adv-x="604" 
d="M537 539h39l-256 -537v-171h-36v171l-256 537h38l236 -491z" />
    <glyph glyph-name="delta" unicode="&#x3b4;" horiz-adv-x="685" 
d="M560 721h-374s289 -209 303 -219c94 -71 145 -153 145 -248c0 -140 -131 -258 -292 -258c-162 0 -293 119 -293 259c0 137 128 251 284 251c79 0 118 -22 144 -38c-8 8 -366 269 -366 269v17h449v-33zM342 30c141 0 256 103 256 225c0 124 -115 220 -256 220
c-142 0 -257 -97 -257 -220c0 -122 115 -225 257 -225z" />
    <glyph glyph-name="epsilon" unicode="&#x3b5;" horiz-adv-x="587" 
d="M518 96l16 -29c-81 -43 -142 -71 -240 -71c-142 0 -243 40 -243 155c0 50 37 105 106 126c-55 25 -86 81 -86 118c0 120 97 154 233 154c82 0 154 -30 219 -64l-15 -28c-61 32 -129 59 -202 59c-116 0 -199 -28 -199 -123c0 -36 43 -101 116 -105h159v-29h-180
c-77 -10 -115 -63 -115 -106c0 -91 85 -123 207 -123c91 0 148 26 224 66z" />
    <glyph glyph-name="pi" unicode="&#x3c0;" horiz-adv-x="673" 
d="M87 539h498v-539h-36v505h-426v-505h-36v539z" />
    <glyph glyph-name="mu" unicode="&#xb5;" horiz-adv-x="662" 
d="M539 539h36v-539h-36v71c-51 -48 -130 -75 -218 -75c-87 0 -163 40 -198 115v-280h-36v708h36v-305c0 -133 88 -203 199 -203c91 0 161 27 217 75v433z" />
    <glyph glyph-name="Omega" unicode="&#x2126;" horiz-adv-x="839" 
d="M781 361c0 -171 -115 -282 -213 -328h201v-33h-281v36c96 22 256 134 256 325c0 210 -145 313 -324 313c-180 0 -325 -103 -325 -313c0 -191 160 -303 256 -325v-36h-281v33h200c-98 46 -212 157 -212 328c0 235 162 348 362 348c199 0 361 -113 361 -348z" />
    <glyph glyph-name="Delta" unicode="&#x2206;" horiz-adv-x="711" 
d="M370 705l316 -705h-661l317 705h28zM355 659l-277 -626h555z" />
    <glyph glyph-name="uni0394" unicode="&#x394;" horiz-adv-x="711" 
d="M370 705l316 -705h-661l317 705h28zM355 659l-277 -626h555z" />
    <glyph glyph-name="uni03A9" unicode="&#x3a9;" horiz-adv-x="839" 
d="M781 361c0 -171 -115 -282 -213 -328h201v-33h-281v36c96 22 256 134 256 325c0 210 -145 313 -324 313c-180 0 -325 -103 -325 -313c0 -191 160 -303 256 -325v-36h-281v33h200c-98 46 -212 157 -212 328c0 235 162 348 362 348c199 0 361 -113 361 -348z" />
    <glyph glyph-name="uni037E" unicode="&#x37e;" horiz-adv-x="188" 
d="M90 55c21 0 30 -16 30 -40c0 -88 -49 -136 -99 -139l-7 19c32 5 76 41 76 102c-16 0 -29 13 -29 29s15 29 29 29zM90 536c17 0 30 -12 30 -29s-13 -29 -30 -29s-30 12 -30 29s13 29 30 29z" />
    <glyph glyph-name="anoteleia" unicode="&#x387;" horiz-adv-x="167" 
d="M68 527c17 0 30 -12 30 -29s-13 -29 -30 -29s-30 12 -30 29s13 29 30 29z" />
    <glyph glyph-name="onehalf" unicode="&#xbd;" horiz-adv-x="891" 
d="M194 705h13v-406h-29v375l-104 -23l-6 26zM558 28h262v-28h-312v14c71 104 281 121 281 246c0 73 -61 128 -131 128c-65 0 -123 -53 -123 -127v-9h-27v9c0 90 69 155 150 155c85 0 159 -66 159 -155c0 -135 -182 -159 -259 -233zM620 701h34l-483 -701h-34z" />
    <glyph glyph-name="brokenbar" unicode="&#xa6;" horiz-adv-x="245" 
d="M107 415v383h30v-383h-30zM107 -127v383h30v-383h-30z" />
    <glyph glyph-name="Q" unicode="Q" horiz-adv-x="858" 
d="M748 21l-20 -25l-82 68c-61 -43 -135 -68 -217 -68c-205 0 -371 160 -371 356s166 356 371 356s370 -160 370 -356c0 -107 -50 -203 -128 -268zM429 33c70 0 135 21 188 56l-59 50l21 25l64 -54c72 57 118 145 118 242c0 176 -148 320 -332 320
c-183 0 -333 -144 -333 -320s150 -319 333 -319z" />
    <glyph glyph-name="notequal" unicode="&#x2260;" horiz-adv-x="639" 
d="M179 49h-33l65 127h-129v31h146l134 260h-280v31h296c62 120 63 121 63 122h32l-63 -122h145v-31h-161l-134 -260h295v-31h-311z" />
    <glyph glyph-name="infinity" unicode="&#x221e;" horiz-adv-x="862" 
d="M794 365c0 -112 -78 -169 -177 -169c-80 0 -132 47 -190 141c-55 -89 -111 -141 -190 -141c-100 0 -176 58 -176 169c0 112 77 170 176 170c79 0 135 -53 190 -142c58 95 110 142 190 142c100 0 177 -59 177 -170zM616 227c83 0 146 45 146 138s-63 139 -146 139
c-71 0 -118 -48 -172 -139c54 -92 101 -138 172 -138zM238 227c70 0 121 52 172 138c-51 86 -102 139 -172 139c-83 0 -146 -46 -146 -139s63 -138 146 -138z" />
    <glyph glyph-name="plusminus" unicode="&#xb1;" horiz-adv-x="640" 
d="M568 441v-31h-232v-231h-30v231h-232v31h232v231h30v-231h232zM568 0h-494v31h494v-31z" />
    <glyph glyph-name="lessequal" unicode="&#x2264;" horiz-adv-x="628" 
d="M553 31v-31h-479v31h479zM553 649v-35l-431 -210l431 -210v-35l-479 235v20z" />
    <glyph glyph-name="greaterequal" unicode="&#x2265;" horiz-adv-x="627" 
d="M553 31v-31h-479v31h479zM74 159v35l430 210l-430 210v35l479 -235v-20z" />
    <glyph glyph-name="dotaccent" unicode="&#x2d9;" horiz-adv-x="379" 
d="M176 836c17 0 30 -12 30 -29s-13 -29 -30 -29s-30 12 -30 29s13 29 30 29z" />
    <glyph glyph-name="breve" unicode="&#x2d8;" horiz-adv-x="500" 
d="M251 780c-80 0 -133 40 -141 127c3 0 28 2 31 2c5 -67 47 -96 110 -96c62 0 104 29 110 96l30 -2c-7 -87 -61 -127 -140 -127z" />
    <glyph glyph-name="uni2117" unicode="&#x2117;" horiz-adv-x="865" 
 />
    <glyph glyph-name="zeta" unicode="&#x3b6;" horiz-adv-x="506" 
d="M499 754v-19c-165 -139 -412 -355 -412 -504c0 -145 395 -79 395 -245c0 -99 -156 -158 -180 -165l-13 29c58 19 156 68 156 134c0 132 -395 66 -395 246c0 152 215 350 384 491h-386v33h451z" />
    <glyph glyph-name="eta" unicode="&#x3b7;" horiz-adv-x="639" 
d="M334 549c131 0 232 -81 232 -238v-311h-36v311c0 133 -88 203 -199 203c-88 0 -155 -28 -208 -75v-439h-36v539h36v-65c49 48 124 75 211 75z" />
    <glyph glyph-name="theta" unicode="&#x3b8;" horiz-adv-x="660" 
d="M330 757c155 0 279 -147 279 -385s-124 -376 -279 -376c-153 0 -278 138 -278 376s125 385 278 385zM330 723c-133 0 -239 -131 -243 -334h486c-3 204 -111 334 -243 334zM330 30c133 0 240 122 243 326h-486c3 -205 111 -326 243 -326z" />
    <glyph glyph-name="iota" unicode="&#x3b9;" horiz-adv-x="213" 
d="M88 0v539h37v-539h-37z" />
    <glyph glyph-name="kappa" unicode="&#x3ba;" horiz-adv-x="612" 
d="M365 334l218 -334h-42l-202 307l-216 -200v-107h-36v539h36v-384l411 384h50z" />
    <glyph glyph-name="lambda" unicode="&#x3bb;" horiz-adv-x="614" 
d="M362 599l228 -599h-39l-203 536l-37 -30l-234 -506h-40l251 537l46 38c-36 104 -145 149 -239 149h-20v33h21c108 0 224 -48 266 -158z" />
    <glyph glyph-name="uni03BC" unicode="&#x3bc;" horiz-adv-x="662" 
d="M539 539h36v-539h-36v71c-51 -48 -130 -75 -218 -75c-87 0 -163 40 -198 115v-280h-36v708h36v-305c0 -133 88 -203 199 -203c91 0 161 27 217 75v433z" />
    <glyph glyph-name="nu" unicode="&#x3bd;" horiz-adv-x="606" 
d="M538 539h41l-265 -539h-21l-265 539h40l236 -481z" />
    <glyph glyph-name="xi" unicode="&#x3be;" horiz-adv-x="503" 
d="M466 754v-30c-259 -1 -337 -88 -337 -166c0 -105 140 -158 294 -158v-31c-193 -2 -336 -59 -336 -150c0 -176 377 -88 377 -241c0 -88 -128 -145 -158 -153l-22 26c53 15 143 65 143 125c0 116 -377 35 -377 244c0 84 91 144 225 168c-105 24 -183 81 -183 170
c0 60 37 128 158 163h-220v33h436z" />
    <glyph glyph-name="omicron" unicode="&#x3bf;" horiz-adv-x="687" 
d="M344 549c161 0 292 -124 292 -277c0 -152 -131 -276 -292 -276c-162 0 -293 124 -293 276c0 153 131 277 293 277zM344 31c141 0 256 108 256 241c0 134 -115 242 -256 242c-142 0 -257 -108 -257 -242c0 -133 115 -241 257 -241z" />
    <glyph glyph-name="rho" unicode="&#x3c1;" horiz-adv-x="655" 
d="M320 549c157 0 284 -121 284 -277c0 -155 -127 -276 -281 -276c-88 0 -161 26 -213 68v-233h-36v487c0 127 111 231 246 231zM320 31c137 0 248 106 248 241c0 136 -110 242 -248 242c-113 0 -210 -85 -210 -195v-212c48 -48 121 -76 210 -76z" />
    <glyph glyph-name="uni03C2" unicode="&#x3c2;" horiz-adv-x="566" 
d="M337 35c65 -26 136 -44 136 -107c0 -60 -65 -97 -118 -118c-1 3 -12 22 -16 25c44 20 99 51 99 91c0 43 -64 58 -120 79c-134 51 -267 111 -267 276c0 150 134 268 283 268c82 0 157 -36 205 -99l-27 -22c-42 54 -107 86 -178 86c-130 0 -247 -102 -247 -233
c0 -145 127 -197 250 -246z" />
    <glyph glyph-name="sigma" unicode="&#x3c3;" horiz-adv-x="688" 
d="M649 539v-33h-190c93 -24 177 -115 177 -235c0 -151 -131 -275 -292 -275c-162 0 -293 124 -293 276c0 148 131 267 293 267h305zM344 31c141 0 256 108 256 241c0 129 -115 233 -256 233c-142 0 -257 -104 -257 -233c0 -133 115 -241 257 -241z" />
    <glyph glyph-name="tau" unicode="&#x3c4;" horiz-adv-x="530" 
d="M500 539v-33h-216v-506h-36v506h-219v33h471z" />
    <glyph glyph-name="upsilon" unicode="&#x3c5;" 
d="M561 539v-320c0 -141 -116 -223 -245 -223c-115 0 -243 77 -243 223v320h36v-317c0 -125 107 -191 207 -191c113 0 209 70 209 191v317h36z" />
    <glyph glyph-name="phi" unicode="&#x3c6;" horiz-adv-x="820" 
d="M769 267c0 -172 -166 -271 -341 -271v-165h-36v165c-176 0 -341 99 -341 271c0 118 80 217 196 264l13 -30c-103 -41 -173 -130 -173 -234c0 -141 135 -237 298 -237h7v519c11 1 23 2 34 2c179 0 343 -79 343 -284zM428 517v-487h5c165 0 300 96 300 237
c0 180 -144 250 -302 250h-3z" />
    <glyph glyph-name="chi" unicode="&#x3c7;" horiz-adv-x="580" 
d="M292 241l-213 -241h-44l235 270l-235 269h45l212 -242l212 242h45l-234 -269l235 -270h-45z" />
    <glyph glyph-name="psi" unicode="&#x3c8;" horiz-adv-x="801" 
d="M691 539h37v-320c0 -148 -105 -223 -310 -223v-165h-36v165c-204 0 -309 76 -309 223v320h36v-317c0 -136 104 -191 262 -191h11v579h36v-579h11c159 0 262 54 262 191v317z" />
    <glyph glyph-name="omega" unicode="&#x3c9;" horiz-adv-x="895" 
d="M605 513l3 34c133 -12 236 -113 236 -275c0 -169 -86 -276 -233 -276c-75 0 -138 54 -163 120c-26 -66 -90 -120 -163 -120c-148 0 -234 107 -234 276c0 162 104 263 236 275l4 -34c-115 -13 -204 -101 -204 -241c0 -148 73 -241 199 -241c79 0 144 78 144 158v142h35
v-142c0 -80 65 -158 145 -158c125 0 198 93 198 241c0 140 -89 228 -203 241z" />
    <glyph glyph-name="hungarumlaut" unicode="&#x2dd;" horiz-adv-x="500" 
d="M186 909l40 -12l-95 -137h-35zM330 909l40 -12l-96 -137h-35c1 0 91 149 91 149z" />
    <glyph glyph-name="ring" unicode="&#x2da;" horiz-adv-x="500" 
d="M164 770c0 46 39 84 85 84s85 -38 85 -84s-39 -84 -85 -84s-85 38 -85 84zM249 714c31 0 57 26 57 56s-26 56 -57 56s-57 -26 -57 -56s26 -56 57 -56z" />
    <glyph glyph-name="caron" unicode="&#x2c7;" horiz-adv-x="500" 
d="M235 758l-142 134h42l113 -104l114 104h42l-143 -134h-26z" />
    <glyph glyph-name="ogonek" unicode="&#x2db;" horiz-adv-x="500" 
d="M316 -135l5 -29c-22 -4 -37 -6 -55 -6c-49 0 -75 25 -75 63c0 57 69 110 71 112l28 -5c-1 -1 -65 -56 -65 -100c0 -27 19 -40 53 -40c11 0 21 2 38 5z" />
    <glyph glyph-name="logicalnot" unicode="&#xac;" horiz-adv-x="594" 
d="M537 449v-195h-34v162h-460v33h494z" />
    <glyph glyph-name="ordfeminine" unicode="&#xaa;" horiz-adv-x="479" 
d="M385 691h30v-369h-30v31c-36 -25 -82 -39 -136 -39c-109 0 -195 87 -195 192c0 106 86 192 195 192c51 0 100 -16 136 -40v33zM385 388v234c-30 28 -81 46 -134 46c-92 0 -166 -73 -166 -162s74 -162 166 -162c56 0 101 17 134 44z" />
    <glyph glyph-name="ordmasculine" unicode="&#xba;" horiz-adv-x="507" 
d="M249 700c112 0 204 -86 204 -193c0 -106 -92 -192 -204 -192c-113 0 -204 86 -204 192c0 107 91 193 204 193zM249 345c95 0 173 73 173 162c0 90 -78 163 -173 163c-96 0 -173 -73 -173 -163c0 -89 77 -162 173 -162z" />
    <glyph glyph-name="onequarter" unicode="&#xbc;" horiz-adv-x="839" 
d="M194 705h13v-406h-29v375l-104 -23l-6 26zM689 133h88v-27h-88v-106h-28v106h-221l-11 24l239 277h21v-274zM661 133v224l-194 -224h194zM620 701h33l-483 -701h-33z" />
    <glyph glyph-name="threequarters" unicode="&#xbe;" horiz-adv-x="877" 
d="M745 133h87v-27h-87v-106h-29v106h-222l-10 24l240 277h21v-274zM716 133v224l-194 -224h194zM55 704h289v-13l-126 -154c76 -5 134 -48 134 -113c0 -82 -65 -131 -163 -131c-64 0 -102 6 -155 30l11 25c50 -22 86 -28 144 -28c80 0 134 39 134 104c0 58 -57 89 -131 89
h-12l-6 11l122 153h-241v27zM676 701h33l-483 -701h-33z" />
    <glyph glyph-name="minus" unicode="&#x2212;" horiz-adv-x="528" 
d="M468 347v-31h-411v31h411z" />
    <glyph glyph-name="multiply" unicode="&#xd7;" horiz-adv-x="551" 
d="M309 316l204 -203l-21 -23l-205 204l-203 -203l-22 22l204 203l-204 203l22 23l203 -205l205 205l22 -22z" />
    <glyph glyph-name="divide" unicode="&#xf7;" horiz-adv-x="526" 
d="M479 347v-31h-430v31h430zM259 536c-16 0 -28 12 -28 28s12 28 28 28s28 -12 28 -28s-12 -28 -28 -28zM259 46c-16 0 -28 12 -28 28s12 29 28 29s28 -13 28 -29s-12 -28 -28 -28z" />
    <glyph glyph-name="approxequal" unicode="&#x2248;" horiz-adv-x="626" 
d="M450 175c53 0 88 30 117 56l11 -31c-32 -29 -68 -59 -130 -59c-81 0 -149 54 -234 54c-64 0 -115 -29 -134 -43l-11 29c20 15 76 49 148 49c99 0 148 -55 233 -55zM450 467c53 0 88 29 117 55l11 -31c-32 -29 -68 -59 -130 -59c-81 0 -149 54 -234 54
c-64 0 -115 -29 -134 -43l-11 30c20 15 76 48 148 48c99 0 148 -54 233 -54z" />
    <glyph glyph-name="partialdiff" unicode="&#x2202;" horiz-adv-x="662" 
d="M328 452c123 0 228 -52 251 -148c0 269 -114 370 -260 370c-85 0 -152 -11 -200 -28l-17 30c55 21 129 33 221 33c154 0 291 -108 291 -400c0 -191 -122 -313 -272 -313c-162 0 -292 92 -292 234c0 146 130 222 278 222zM333 420c-134 0 -246 -68 -246 -190
c0 -119 113 -200 255 -200c116 0 224 102 224 204c0 118 -113 186 -233 186z" />
    <glyph glyph-name="summation" unicode="&#x2211;" horiz-adv-x="654" 
d="M68 705h542v-35h-489l246 -397l-245 -399h488v-35h-542v18l256 416l-256 414v18z" />
    <glyph glyph-name="product" unicode="&#x220f;" horiz-adv-x="731" 
d="M89 -161v866h554v-866h-37v833h-481v-833h-36z" />
    <glyph glyph-name="integral" unicode="&#x222b;" horiz-adv-x="288" 
d="M297 746l-2 -31c-85 0 -92 -42 -105 -124l-86 -549c-28 -179 -32 -204 -84 -218c-19 -5 -38 -5 -66 -5c1 4 1 28 2 31h9c73 0 77 24 92 118l87 554c25 157 32 198 85 215c21 7 42 9 68 9z" />
    <glyph glyph-name="radical" unicode="&#x221a;" horiz-adv-x="791" 
d="M433 55l406 860h38l-432 -915h-25l-259 557h-125v34h150z" />
    <glyph glyph-name="lozenge" unicode="&#x25ca;" horiz-adv-x="467" 
d="M219 754h19l187 -377l-187 -377h-19l-186 377zM69 377l159 -323l161 323l-161 323z" />
    <glyph glyph-name="Agrave" unicode="&#xc0;" horiz-adv-x="712" 
d="M648 0l-91 204h-403l-90 -204h-40l318 705h28l317 -705h-39zM355 660l-187 -424h376zM340 758l-165 152l45 4l155 -156h-35z" />
    <glyph glyph-name="Adieresis" unicode="&#xc4;" horiz-adv-x="712" 
d="M648 0l-91 204h-403l-90 -204h-40l318 705h28l317 -705h-39zM355 660l-187 -424h376zM278 836c17 0 30 -12 30 -29s-13 -29 -30 -29s-30 12 -30 29s13 29 30 29zM431 836c17 0 30 -12 30 -29s-13 -29 -30 -29s-30 12 -30 29s13 29 30 29z" />
    <glyph glyph-name="Egrave" unicode="&#xc8;" 
d="M132 35h448v-35h-485v705h464v-35h-427v-311h365v-34h-365v-290zM319 758l-165 152l45 4l155 -156h-35z" />
    <glyph glyph-name="Edieresis" unicode="&#xcb;" 
d="M132 35h448v-35h-485v705h464v-35h-427v-311h365v-34h-365v-290zM258 836c17 0 30 -12 30 -29s-13 -29 -30 -29s-30 12 -30 29s13 29 30 29zM411 836c17 0 30 -12 30 -29s-13 -29 -30 -29s-30 12 -30 29s13 29 30 29z" />
    <glyph glyph-name="Aring" unicode="&#xc5;" horiz-adv-x="712" 
d="M270 770c0 46 39 84 85 84s85 -38 85 -84c0 -39 -27 -72 -63 -81l310 -689h-39l-91 204h-403l-90 -204h-40l310 688c-36 9 -64 43 -64 82zM355 660l-187 -424h376zM355 714c31 0 57 26 57 56s-26 56 -57 56s-57 -26 -57 -56s26 -56 57 -56z" />
    <glyph glyph-name="Ccedilla" unicode="&#xc7;" horiz-adv-x="768" 
d="M362 -74l44 71c-193 10 -348 165 -348 355c0 196 166 357 369 357c116 0 219 -53 287 -134l-29 -25c-60 73 -153 122 -258 122c-182 0 -330 -143 -330 -320s148 -319 330 -319c105 0 198 48 258 121l29 -25c-67 -80 -168 -131 -282 -133l-26 -54c34 0 60 -21 60 -55
c0 -33 -25 -73 -90 -73c-40 0 -60 9 -63 9l6 22c12 -4 36 -7 52 -7c46 0 64 26 64 50c0 29 -36 38 -73 38z" />
    <glyph glyph-name="Eacute" unicode="&#xc9;" 
d="M132 35h448v-35h-485v705h464v-35h-427v-311h365v-34h-365v-290zM518 910l-164 -152h-35l155 156z" />
    <glyph glyph-name="Ntilde" unicode="&#xd1;" horiz-adv-x="768" 
d="M636 705h37v-705h-24l-517 634v-634h-37v705h25l516 -634v634zM226 761l-27 4c10 69 47 107 106 107c60 0 112 -48 165 -48c31 0 62 25 71 78l27 -4c-11 -73 -52 -106 -96 -106c-59 0 -116 48 -165 48c-44 0 -71 -28 -81 -79z" />
    <glyph glyph-name="Odieresis" unicode="&#xd6;" horiz-adv-x="858" 
d="M429 708c205 0 370 -160 370 -356s-165 -356 -370 -356s-371 160 -371 356s166 356 371 356zM429 33c184 0 332 143 332 319s-148 320 -332 320c-183 0 -333 -144 -333 -320s150 -319 333 -319zM350 836c17 0 30 -12 30 -29s-13 -29 -30 -29s-30 12 -30 29s13 29 30 29z
M503 836c17 0 30 -12 30 -29s-13 -29 -30 -29s-30 12 -30 29s13 29 30 29z" />
    <glyph glyph-name="Udieresis" unicode="&#xdc;" horiz-adv-x="754" 
d="M660 705v-422c0 -159 -99 -287 -284 -287c-183 0 -281 127 -281 287v422h36v-418c0 -145 86 -254 245 -254c161 0 247 110 247 254v418h37zM303 836c17 0 30 -12 30 -29s-13 -29 -30 -29s-30 12 -30 29s13 29 30 29zM456 836c17 0 30 -12 30 -29s-13 -29 -30 -29
s-30 12 -30 29s13 29 30 29z" />
    <glyph glyph-name="aacute" unicode="&#xe1;" horiz-adv-x="667" 
d="M545 539h35v-539h-35v65c-53 -42 -126 -69 -213 -69c-156 0 -280 125 -280 277c0 151 124 276 280 276c83 0 162 -28 213 -72v62zM545 107v329c-50 49 -124 78 -210 78c-137 0 -248 -108 -248 -241c0 -134 111 -242 248 -242c88 0 161 28 210 76zM519 769l-164 -152h-35
l155 156z" />
    <glyph glyph-name="agrave" unicode="&#xe0;" horiz-adv-x="667" 
d="M545 539h35v-539h-35v65c-53 -42 -126 -69 -213 -69c-156 0 -280 125 -280 277c0 151 124 276 280 276c83 0 162 -28 213 -72v62zM545 107v329c-50 49 -124 78 -210 78c-137 0 -248 -108 -248 -241c0 -134 111 -242 248 -242c88 0 161 28 210 76zM320 617l-165 152l45 4
l155 -156h-35z" />
    <glyph glyph-name="acircumflex" unicode="&#xe2;" horiz-adv-x="667" 
d="M545 539h35v-539h-35v65c-53 -42 -126 -69 -213 -69c-156 0 -280 125 -280 277c0 151 124 276 280 276c83 0 162 -28 213 -72v62zM545 107v329c-50 49 -124 78 -210 78c-137 0 -248 -108 -248 -241c0 -134 111 -242 248 -242c88 0 161 28 210 76zM188 617l142 134h26
l143 -134h-42l-114 104l-113 -104h-42z" />
    <glyph glyph-name="adieresis" unicode="&#xe4;" horiz-adv-x="667" 
d="M545 539h35v-539h-35v65c-53 -42 -126 -69 -213 -69c-156 0 -280 125 -280 277c0 151 124 276 280 276c83 0 162 -28 213 -72v62zM545 107v329c-50 49 -124 78 -210 78c-137 0 -248 -108 -248 -241c0 -134 111 -242 248 -242c88 0 161 28 210 76zM268 695
c17 0 30 -12 30 -29s-13 -29 -30 -29s-30 12 -30 29s13 29 30 29zM421 695c17 0 30 -12 30 -29s-13 -29 -30 -29s-30 12 -30 29s13 29 30 29z" />
    <glyph glyph-name="atilde" unicode="&#xe3;" horiz-adv-x="667" 
d="M545 539h35v-539h-35v65c-53 -42 -126 -69 -213 -69c-156 0 -280 125 -280 277c0 151 124 276 280 276c83 0 162 -28 213 -72v62zM545 107v329c-50 49 -124 78 -210 78c-137 0 -248 -108 -248 -241c0 -134 111 -242 248 -242c88 0 161 28 210 76zM187 620l-27 4
c10 69 47 107 106 107c60 0 112 -48 165 -48c31 0 62 25 71 78l27 -4c-11 -73 -52 -106 -96 -106c-59 0 -116 48 -165 48c-44 0 -71 -28 -81 -79z" />
    <glyph glyph-name="aring" unicode="&#xe5;" horiz-adv-x="667" 
d="M545 539h35v-539h-35v65c-53 -42 -126 -69 -213 -69c-156 0 -280 125 -280 277c0 151 124 276 280 276c83 0 162 -28 213 -72v62zM545 107v329c-50 49 -124 78 -210 78c-137 0 -248 -108 -248 -241c0 -134 111 -242 248 -242c88 0 161 28 210 76zM257 721
c0 46 39 84 85 84s85 -38 85 -84s-39 -84 -85 -84s-85 38 -85 84zM342 665c31 0 57 26 57 56s-26 56 -57 56s-57 -26 -57 -56s26 -56 57 -56z" />
    <glyph glyph-name="ccedilla" unicode="&#xe7;" horiz-adv-x="589" 
d="M277 -74l44 71c-151 11 -270 130 -270 275c0 153 131 277 293 277c79 0 148 -35 196 -91l-26 -23c-41 48 -102 79 -170 79c-142 0 -257 -108 -257 -242c0 -133 115 -241 257 -241c67 0 128 32 170 82l25 -25c-48 -56 -117 -91 -192 -92l-26 -54c34 0 60 -21 60 -55
c0 -33 -25 -73 -90 -73c-40 0 -60 9 -63 9l6 22c12 -4 36 -7 52 -7c46 0 64 26 64 50c0 29 -36 38 -73 38z" />
    <glyph glyph-name="egrave" unicode="&#xe8;" horiz-adv-x="637" 
d="M584 269v-12h-496c8 -132 114 -226 239 -226c81 0 159 30 207 91l28 -22c-50 -63 -136 -104 -237 -104c-162 0 -274 124 -274 276c0 153 112 277 274 277c160 0 259 -116 259 -280zM325 515c-135 0 -231 -99 -237 -226h461c-7 132 -90 226 -224 226zM305 617l-165 152
l45 4l155 -156h-35z" />
    <glyph glyph-name="ecircumflex" unicode="&#xea;" horiz-adv-x="637" 
d="M584 269v-12h-496c8 -132 114 -226 239 -226c81 0 159 30 207 91l28 -22c-50 -63 -136 -104 -237 -104c-162 0 -274 124 -274 276c0 153 112 277 274 277c160 0 259 -116 259 -280zM325 515c-135 0 -231 -99 -237 -226h461c-7 132 -90 226 -224 226zM164 617l142 134h26
l143 -134h-42l-114 104l-113 -104h-42z" />
    <glyph glyph-name="edieresis" unicode="&#xeb;" horiz-adv-x="637" 
d="M584 269v-12h-496c8 -132 114 -226 239 -226c81 0 159 30 207 91l28 -22c-50 -63 -136 -104 -237 -104c-162 0 -274 124 -274 276c0 153 112 277 274 277c160 0 259 -116 259 -280zM325 515c-135 0 -231 -99 -237 -226h461c-7 132 -90 226 -224 226zM243 695
c17 0 30 -12 30 -29s-13 -29 -30 -29s-30 12 -30 29s13 29 30 29zM396 695c17 0 30 -12 30 -29s-13 -29 -30 -29s-30 12 -30 29s13 29 30 29z" />
    <glyph glyph-name="eacute" unicode="&#xe9;" horiz-adv-x="637" 
d="M584 269v-12h-496c8 -132 114 -226 239 -226c81 0 159 30 207 91l28 -22c-50 -63 -136 -104 -237 -104c-162 0 -274 124 -274 276c0 153 112 277 274 277c160 0 259 -116 259 -280zM325 515c-135 0 -231 -99 -237 -226h461c-7 132 -90 226 -224 226zM503 769l-164 -152
h-35l155 156z" />
    <glyph glyph-name="igrave" unicode="&#xec;" horiz-adv-x="213" 
d="M92 607l-165 152l45 4l155 -156h-35zM88 0v539h37v-539h-37z" />
    <glyph glyph-name="icircumflex" unicode="&#xee;" horiz-adv-x="213" 
d="M88 0v539h37v-539h-37zM-48 607l142 134h26l143 -134h-42l-114 104l-113 -104h-42z" />
    <glyph glyph-name="idieresis" unicode="&#xef;" horiz-adv-x="213" 
d="M31 685c17 0 30 -12 30 -29s-13 -29 -30 -29s-30 12 -30 29s13 29 30 29zM184 685c17 0 30 -12 30 -29s-13 -29 -30 -29s-30 12 -30 29s13 29 30 29zM88 0v539h37v-539h-37z" />
    <glyph glyph-name="iacute" unicode="&#xed;" horiz-adv-x="213" 
d="M292 759l-164 -152h-35l155 156zM88 0v539h37v-539h-37z" />
    <glyph glyph-name="ntilde" unicode="&#xf1;" horiz-adv-x="640" 
d="M334 549c131 0 232 -81 232 -238v-311h-36v311c0 132 -87 203 -199 203c-88 0 -155 -28 -208 -75v-439h-36v539h36v-65c49 48 124 75 211 75zM166 610l-27 4c10 69 47 107 106 107c60 0 112 -48 165 -48c31 0 62 25 71 78l27 -4c-11 -73 -52 -106 -96 -106
c-59 0 -116 48 -165 48c-44 0 -71 -28 -81 -79z" />
    <glyph glyph-name="ograve" unicode="&#xf2;" horiz-adv-x="687" 
d="M343 549c161 0 292 -124 292 -277c0 -152 -131 -276 -292 -276c-162 0 -293 124 -293 276c0 153 131 277 293 277zM343 31c141 0 256 108 256 241c0 134 -115 242 -256 242c-142 0 -257 -108 -257 -242c0 -133 115 -241 257 -241zM322 607l-165 152l45 4l155 -156h-35z
" />
    <glyph glyph-name="ocircumflex" unicode="&#xf4;" horiz-adv-x="687" 
d="M343 549c161 0 292 -124 292 -277c0 -152 -131 -276 -292 -276c-162 0 -293 124 -293 276c0 153 131 277 293 277zM343 31c141 0 256 108 256 241c0 134 -115 242 -256 242c-142 0 -257 -108 -257 -242c0 -133 115 -241 257 -241zM183 607l142 134h26l143 -134h-42
l-114 104l-113 -104h-42z" />
    <glyph glyph-name="otilde" unicode="&#xf5;" horiz-adv-x="687" 
d="M343 549c161 0 292 -124 292 -277c0 -152 -131 -276 -292 -276c-162 0 -293 124 -293 276c0 153 131 277 293 277zM343 31c141 0 256 108 256 241c0 134 -115 242 -256 242c-142 0 -257 -108 -257 -242c0 -133 115 -241 257 -241zM182 610l-27 4c10 69 47 107 106 107
c60 0 112 -48 165 -48c31 0 62 25 71 78l27 -4c-11 -73 -52 -106 -96 -106c-59 0 -116 48 -165 48c-44 0 -71 -28 -81 -79z" />
    <glyph glyph-name="odieresis" unicode="&#xf6;" horiz-adv-x="687" 
d="M343 549c161 0 292 -124 292 -277c0 -152 -131 -276 -292 -276c-162 0 -293 124 -293 276c0 153 131 277 293 277zM343 31c141 0 256 108 256 241c0 134 -115 242 -256 242c-142 0 -257 -108 -257 -242c0 -133 115 -241 257 -241zM262 685c17 0 30 -12 30 -29
s-13 -29 -30 -29s-30 12 -30 29s13 29 30 29zM415 685c17 0 30 -12 30 -29s-13 -29 -30 -29s-30 12 -30 29s13 29 30 29z" />
    <glyph glyph-name="oacute" unicode="&#xf3;" horiz-adv-x="687" 
d="M343 549c161 0 292 -124 292 -277c0 -152 -131 -276 -292 -276c-162 0 -293 124 -293 276c0 153 131 277 293 277zM343 31c141 0 256 108 256 241c0 134 -115 242 -256 242c-142 0 -257 -108 -257 -242c0 -133 115 -241 257 -241zM520 759l-164 -152h-35l155 156z" />
    <glyph glyph-name="ugrave" unicode="&#xf9;" horiz-adv-x="650" 
d="M527 539h36v-539h-36v71c-52 -48 -131 -75 -220 -75c-131 0 -232 81 -232 238v305h35v-305c0 -132 88 -203 200 -203c91 0 161 27 217 75v433zM311 607l-165 152l45 4l155 -156h-35z" />
    <glyph glyph-name="ucircumflex" unicode="&#xfb;" horiz-adv-x="650" 
d="M527 539h36v-539h-36v71c-52 -48 -131 -75 -220 -75c-131 0 -232 81 -232 238v305h35v-305c0 -132 88 -203 200 -203c91 0 161 27 217 75v433zM162 607l142 134h26l143 -134h-42l-114 104l-113 -104h-42z" />
    <glyph glyph-name="udieresis" unicode="&#xfc;" horiz-adv-x="650" 
d="M527 539h36v-539h-36v71c-52 -48 -131 -75 -220 -75c-131 0 -232 81 -232 238v305h35v-305c0 -132 88 -203 200 -203c91 0 161 27 217 75v433zM240 685c17 0 30 -12 30 -29s-13 -29 -30 -29s-30 12 -30 29s13 29 30 29zM393 685c17 0 30 -12 30 -29s-13 -29 -30 -29
s-30 12 -30 29s13 29 30 29z" />
    <glyph glyph-name="uacute" unicode="&#xfa;" horiz-adv-x="650" 
d="M527 539h36v-539h-36v71c-52 -48 -131 -75 -220 -75c-131 0 -232 81 -232 238v305h35v-305c0 -132 88 -203 200 -203c91 0 161 27 217 75v433zM509 759l-164 -152h-35l155 156z" />
    <glyph glyph-name="Atilde" unicode="&#xc3;" horiz-adv-x="712" 
d="M648 0l-91 204h-403l-90 -204h-40l318 705h28l317 -705h-39zM355 660l-187 -424h376zM199 761l-27 4c10 69 47 107 106 107c60 0 112 -48 165 -48c31 0 62 25 71 78l27 -4c-11 -73 -52 -106 -96 -106c-59 0 -116 48 -165 48c-44 0 -71 -28 -81 -79z" />
    <glyph glyph-name="Otilde" unicode="&#xd5;" horiz-adv-x="858" 
d="M429 708c205 0 370 -160 370 -356s-165 -356 -370 -356s-371 160 -371 356s166 356 371 356zM429 33c184 0 332 143 332 319s-148 320 -332 320c-183 0 -333 -144 -333 -320s150 -319 333 -319zM267 761l-27 4c10 69 47 107 106 107c60 0 112 -48 165 -48
c31 0 62 25 71 78l27 -4c-11 -73 -52 -106 -96 -106c-59 0 -116 48 -165 48c-44 0 -71 -28 -81 -79z" />
    <glyph glyph-name="Acircumflex" unicode="&#xc2;" horiz-adv-x="712" 
d="M648 0l-91 204h-403l-90 -204h-40l318 705h28l317 -705h-39zM355 660l-187 -424h376zM200 758l142 134h26l143 -134h-42l-114 104l-113 -104h-42z" />
    <glyph glyph-name="Ecircumflex" unicode="&#xca;" 
d="M132 35h448v-35h-485v705h464v-35h-427v-311h365v-34h-365v-290zM179 758l142 134h26l143 -134h-42l-114 104l-113 -104h-42z" />
    <glyph glyph-name="Aacute" unicode="&#xc1;" horiz-adv-x="712" 
d="M648 0l-91 204h-403l-90 -204h-40l318 705h28l317 -705h-39zM355 660l-187 -424h376zM540 910l-164 -152h-35l155 156z" />
    <glyph glyph-name="Igrave" unicode="&#xcc;" horiz-adv-x="229" 
d="M133 705v-705h-37v705h37zM99 771l-165 152l45 4l155 -156h-35z" />
    <glyph glyph-name="Icircumflex" unicode="&#xce;" horiz-adv-x="229" 
d="M133 705v-705h-37v705h37zM-40 771l142 134h26l143 -134h-42l-114 104l-113 -104h-42z" />
    <glyph glyph-name="Idieresis" unicode="&#xcf;" horiz-adv-x="229" 
d="M133 705v-705h-37v705h37zM40 849c17 0 30 -12 30 -29s-13 -29 -30 -29s-30 12 -30 29s13 29 30 29zM193 849c17 0 30 -12 30 -29s-13 -29 -30 -29s-30 12 -30 29s13 29 30 29z" />
    <glyph glyph-name="Iacute" unicode="&#xcd;" horiz-adv-x="229" 
d="M133 705v-705h-37v705h37zM301 923l-164 -152h-35l155 156z" />
    <glyph glyph-name="Ograve" unicode="&#xd2;" horiz-adv-x="858" 
d="M429 708c205 0 370 -160 370 -356s-165 -356 -370 -356s-371 160 -371 356s166 356 371 356zM429 33c184 0 332 143 332 319s-148 320 -332 320c-183 0 -333 -144 -333 -320s150 -319 333 -319zM405 758l-165 152l45 4l155 -156h-35z" />
    <glyph glyph-name="Ocircumflex" unicode="&#xd4;" horiz-adv-x="858" 
d="M429 708c205 0 370 -160 370 -356s-165 -356 -370 -356s-371 160 -371 356s166 356 371 356zM429 33c184 0 332 143 332 319s-148 320 -332 320c-183 0 -333 -144 -333 -320s150 -319 333 -319zM266 758l142 134h26l143 -134h-42l-114 104l-113 -104h-42z" />
    <glyph glyph-name="Oacute" unicode="&#xd3;" horiz-adv-x="858" 
d="M429 708c205 0 370 -160 370 -356s-165 -356 -370 -356s-371 160 -371 356s166 356 371 356zM429 33c184 0 332 143 332 319s-148 320 -332 320c-183 0 -333 -144 -333 -320s150 -319 333 -319zM603 910l-164 -152h-35l155 156z" />
    <glyph glyph-name="Ugrave" unicode="&#xd9;" horiz-adv-x="754" 
d="M660 705v-422c0 -159 -99 -287 -284 -287c-183 0 -281 127 -281 287v422h36v-418c0 -145 86 -254 245 -254c161 0 247 110 247 254v418h37zM364 758l-165 152l45 4l155 -156h-35z" />
    <glyph glyph-name="Ucircumflex" unicode="&#xdb;" horiz-adv-x="754" 
d="M660 705v-422c0 -159 -99 -287 -284 -287c-183 0 -281 127 -281 287v422h36v-418c0 -145 86 -254 245 -254c161 0 247 110 247 254v418h37zM224 758l142 134h26l143 -134h-42l-114 104l-113 -104h-42z" />
    <glyph glyph-name="Uacute" unicode="&#xda;" horiz-adv-x="754" 
d="M660 705v-422c0 -159 -99 -287 -284 -287c-183 0 -281 127 -281 287v422h36v-418c0 -145 86 -254 245 -254c161 0 247 110 247 254v418h37zM563 910l-164 -152h-35l155 156z" />
    <glyph glyph-name="Yacute" unicode="&#xdd;" horiz-adv-x="648" 
d="M579 705h44l-280 -461v-244h-37v244l-280 461h43l255 -423zM511 910l-164 -152h-35l155 156z" />
    <glyph glyph-name="Ydieresis" unicode="&#x178;" horiz-adv-x="648" 
d="M579 705h44l-280 -461v-244h-37v244l-280 461h43l255 -423zM249 836c17 0 30 -12 30 -29s-13 -29 -30 -29s-30 12 -30 29s13 29 30 29zM402 836c17 0 30 -12 30 -29s-13 -29 -30 -29s-30 12 -30 29s13 29 30 29z" />
    <glyph glyph-name="ydieresis" unicode="&#xff;" horiz-adv-x="608" 
d="M531 539h39l-229 -568c-49 -123 -180 -155 -292 -155h-5l2 32h11c119 0 219 43 257 152h-30l-250 539h40l231 -499h25zM236 685c17 0 30 -12 30 -29s-13 -29 -30 -29s-30 12 -30 29s13 29 30 29zM389 685c17 0 30 -12 30 -29s-13 -29 -30 -29s-30 12 -30 29s13 29 30 29z
" />
    <glyph glyph-name="yacute" unicode="&#xfd;" horiz-adv-x="608" 
d="M531 539h39l-229 -568c-49 -123 -180 -155 -292 -155h-5l2 32h11c119 0 219 43 257 152h-30l-250 539h40l231 -499h25zM496 759l-164 -152h-35l155 156z" />
    <glyph glyph-name="Alphatonos" unicode="&#x386;" horiz-adv-x="712" 
d="M648 0l-91 204h-403l-90 -204h-40l318 705h28l317 -705h-39zM355 660l-187 -424h376zM239 706l-175 -153h-37l168 157z" />
    <glyph glyph-name="Epsilontonos" unicode="&#x388;" 
d="M26 706l-175 -153h-37l168 157zM132 35h448v-35h-485v705h464v-35h-427v-311h365v-34h-365v-290z" />
    <glyph glyph-name="Etatonos" unicode="&#x389;" horiz-adv-x="726" 
d="M594 705h37v-705h-37v295h-462v-295h-37v705h37v-375h462v375zM26 706l-175 -153h-37l168 157z" />
    <glyph glyph-name="Iotatonos" unicode="&#x38a;" horiz-adv-x="229" 
d="M133 705v-705h-37v705h37zM26 706l-175 -153h-37l168 157z" />
    <glyph glyph-name="Omicrontonos" unicode="&#x38c;" horiz-adv-x="858" 
d="M118 706l-175 -153h-37l168 157zM429 708c205 0 370 -160 370 -356s-165 -356 -370 -356s-371 160 -371 356s166 356 371 356zM429 33c184 0 332 143 332 319s-148 320 -332 320c-183 0 -333 -144 -333 -320s150 -319 333 -319z" />
    <glyph glyph-name="Upsilontonos" unicode="&#x38e;" horiz-adv-x="648" 
d="M-14 706l-175 -153h-37l168 157zM579 705h44l-280 -461v-244h-37v244l-280 461h43l255 -423z" />
    <glyph glyph-name="Omegatonos" unicode="&#x38f;" horiz-adv-x="839" 
d="M781 361c0 -171 -115 -282 -213 -328h201v-33h-281v36c96 22 256 134 256 325c0 210 -145 313 -324 313c-180 0 -325 -103 -325 -313c0 -191 160 -303 256 -325v-36h-281v33h200c-98 46 -212 157 -212 328c0 235 162 348 362 348c199 0 361 -113 361 -348zM114 706
l-175 -153h-37l168 157z" />
    <glyph glyph-name="iotadieresistonos" unicode="&#x390;" horiz-adv-x="213" 
d="M88 0v539h37v-539h-37zM87 582l68 184l33 -5l-71 -179h-30zM-19 671c17 0 30 -12 30 -29s-13 -29 -30 -29s-30 12 -30 29s13 29 30 29zM246 671c17 0 30 -12 30 -29s-13 -29 -30 -29s-30 12 -30 29s13 29 30 29z" />
    <glyph glyph-name="iotatonos" unicode="&#x3af;" horiz-adv-x="213" 
d="M88 0v539h37v-539h-37zM301 758l-175 -153h-37l168 157z" />
    <glyph glyph-name="Iotadieresis" unicode="&#x3aa;" horiz-adv-x="229" 
d="M133 705v-705h-37v705h37zM39 849c17 0 30 -12 30 -29s-13 -29 -30 -29s-30 12 -30 29s13 29 30 29zM192 849c17 0 30 -12 30 -29s-13 -29 -30 -29s-30 12 -30 29s13 29 30 29z" />
    <glyph glyph-name="Upsilondieresis" unicode="&#x3ab;" horiz-adv-x="648" 
d="M579 705h44l-280 -461v-244h-37v244l-280 461h43l255 -423zM249 849c17 0 30 -12 30 -29s-13 -29 -30 -29s-30 12 -30 29s13 29 30 29zM402 849c17 0 30 -12 30 -29s-13 -29 -30 -29s-30 12 -30 29s13 29 30 29z" />
    <glyph glyph-name="alphatonos" unicode="&#x3ac;" horiz-adv-x="668" 
d="M545 539h36v-539h-36v65c-53 -42 -125 -69 -212 -69c-155 0 -281 122 -281 277c0 154 126 276 281 276c83 0 162 -28 212 -72v62zM545 107v329c-50 49 -124 78 -209 78c-137 0 -248 -107 -248 -241c0 -135 111 -242 248 -242c87 0 160 28 209 76zM534 758l-175 -153h-37
l168 157z" />
    <glyph glyph-name="epsilontonos" unicode="&#x3ad;" horiz-adv-x="587" 
d="M524 758l-175 -153h-37l168 157zM518 96l16 -29c-81 -43 -142 -71 -240 -71c-142 0 -243 40 -243 155c0 50 37 105 106 126c-55 25 -86 81 -86 118c0 120 97 154 233 154c82 0 154 -30 219 -64l-15 -28c-61 32 -129 59 -202 59c-116 0 -199 -28 -199 -123
c0 -36 43 -101 116 -105h159v-29h-180c-77 -10 -115 -63 -115 -106c0 -91 85 -123 207 -123c91 0 148 26 224 66z" />
    <glyph glyph-name="etatonos" unicode="&#x3ae;" horiz-adv-x="639" 
d="M334 549c131 0 232 -81 232 -238v-311h-36v311c0 133 -88 203 -199 203c-88 0 -155 -28 -208 -75v-439h-36v539h36v-65c49 48 124 75 211 75zM534 758l-175 -153h-37l168 157z" />
    <glyph glyph-name="iotadieresis" unicode="&#x3ca;" horiz-adv-x="213" 
d="M88 0v539h37v-539h-37zM31 685c17 0 30 -12 30 -29s-13 -29 -30 -29s-30 12 -30 29s13 29 30 29zM184 685c17 0 30 -12 30 -29s-13 -29 -30 -29s-30 12 -30 29s13 29 30 29z" />
    <glyph glyph-name="omicrontonos" unicode="&#x3cc;" horiz-adv-x="687" 
d="M531 758l-175 -153h-37l168 157zM344 549c161 0 292 -124 292 -277c0 -152 -131 -276 -292 -276c-162 0 -293 124 -293 276c0 153 131 277 293 277zM344 31c141 0 256 108 256 241c0 134 -115 242 -256 242c-142 0 -257 -108 -257 -242c0 -133 115 -241 257 -241z" />
    <glyph glyph-name="upsilontonos" unicode="&#x3cd;" 
d="M509 758l-175 -153h-37l168 157zM561 539v-320c0 -141 -116 -223 -245 -223c-115 0 -243 77 -243 223v320h36v-317c0 -125 107 -191 207 -191c113 0 209 70 209 191v317h36z" />
    <glyph glyph-name="omegatonos" unicode="&#x3ce;" horiz-adv-x="895" 
d="M605 513l3 34c133 -12 236 -113 236 -275c0 -169 -86 -276 -233 -276c-75 0 -138 54 -163 120c-26 -66 -90 -120 -163 -120c-148 0 -234 107 -234 276c0 162 104 263 236 275l4 -34c-115 -13 -204 -101 -204 -241c0 -148 73 -241 199 -241c79 0 144 78 144 158v142h35
v-142c0 -80 65 -158 145 -158c125 0 198 93 198 241c0 140 -89 228 -203 241zM643 758l-175 -153h-37l168 157z" />
    <glyph glyph-name="upsilondieresis" unicode="&#x3cb;" 
d="M561 539v-320c0 -141 -116 -223 -245 -223c-115 0 -243 77 -243 223v320h36v-317c0 -125 107 -191 207 -191c113 0 209 70 209 191v317h36zM235 685c17 0 30 -12 30 -29s-13 -29 -30 -29s-30 12 -30 29s13 29 30 29zM388 685c17 0 30 -12 30 -29s-13 -29 -30 -29
s-30 12 -30 29s13 29 30 29z" />
    <glyph glyph-name="upsilondieresistonos" unicode="&#x3b0;" 
d="M561 539v-320c0 -141 -116 -223 -245 -223c-115 0 -243 77 -243 223v320h36v-317c0 -125 107 -191 207 -191c113 0 209 70 209 191v317h36zM296 589l68 184l33 -5l-71 -179h-30zM190 678c17 0 30 -12 30 -29s-13 -29 -30 -29s-30 12 -30 29s13 29 30 29zM455 678
c17 0 30 -12 30 -29s-13 -29 -30 -29s-30 12 -30 29s13 29 30 29z" />
    <glyph glyph-name="Amacron" unicode="&#x100;" horiz-adv-x="712" 
d="M648 0l-91 204h-403l-90 -204h-40l318 705h28l317 -705h-39zM355 660l-187 -424h376zM197 794v29h316v-29h-316z" />
    <glyph glyph-name="Abreve" unicode="&#x102;" horiz-adv-x="712" 
d="M648 0l-91 204h-403l-90 -204h-40l318 705h28l317 -705h-39zM355 660l-187 -424h376zM356 780c-80 0 -133 40 -141 127c3 0 28 2 31 2c5 -67 47 -96 110 -96c62 0 104 29 110 96l30 -2c-7 -87 -61 -127 -140 -127z" />
    <glyph glyph-name="Aogonek" unicode="&#x104;" horiz-adv-x="712" 
d="M648 0l-91 204h-403l-90 -204h-40l318 705h28l317 -705c-1 -1 -65 -56 -65 -100c0 -27 19 -40 53 -40c11 0 21 2 38 5l5 -29c-22 -4 -37 -6 -55 -6c-49 0 -75 25 -75 63c0 48 48 93 65 107h-5zM355 660l-187 -424h376z" />
    <glyph glyph-name="amacron" unicode="&#x101;" horiz-adv-x="667" 
d="M545 539h35v-539h-35v65c-53 -42 -126 -69 -213 -69c-156 0 -280 125 -280 277c0 151 124 276 280 276c83 0 162 -28 213 -72v62zM545 107v329c-50 49 -124 78 -210 78c-137 0 -248 -108 -248 -241c0 -134 111 -242 248 -242c88 0 161 28 210 76zM176 653v29h316v-29
h-316z" />
    <glyph glyph-name="abreve" unicode="&#x103;" horiz-adv-x="667" 
d="M545 539h35v-539h-35v65c-53 -42 -126 -69 -213 -69c-156 0 -280 125 -280 277c0 151 124 276 280 276c83 0 162 -28 213 -72v62zM545 107v329c-50 49 -124 78 -210 78c-137 0 -248 -108 -248 -241c0 -134 111 -242 248 -242c88 0 161 28 210 76zM336 639
c-80 0 -133 40 -141 127c3 0 28 2 31 2c5 -67 47 -96 110 -96c62 0 104 29 110 96l30 -2c-7 -87 -61 -127 -140 -127z" />
    <glyph glyph-name="aogonek" unicode="&#x105;" horiz-adv-x="667" 
d="M606 -135l5 -29c-22 -4 -37 -6 -55 -6c-49 0 -75 25 -75 63c0 48 48 93 65 107h-1v65c-53 -42 -126 -69 -213 -69c-156 0 -280 125 -280 277c0 151 124 276 280 276c83 0 162 -28 213 -72v62h35v-539c-1 -1 -65 -56 -65 -100c0 -27 19 -40 53 -40c11 0 21 2 38 5z
M545 107v329c-50 49 -124 78 -210 78c-137 0 -248 -108 -248 -241c0 -134 111 -242 248 -242c88 0 161 28 210 76z" />
    <glyph glyph-name="Ccircumflex" unicode="&#x108;" horiz-adv-x="768" 
d="M427 33c105 0 198 48 258 121l29 -25c-68 -81 -171 -133 -287 -133c-203 0 -369 160 -369 356s166 357 369 357c116 0 219 -53 287 -134l-29 -25c-60 73 -153 122 -258 122c-182 0 -330 -143 -330 -320s148 -319 330 -319zM258 758l142 134h26l143 -134h-42l-114 104
l-113 -104h-42z" />
    <glyph glyph-name="Cacute" unicode="&#x106;" horiz-adv-x="768" 
d="M427 33c105 0 198 48 258 121l29 -25c-68 -81 -171 -133 -287 -133c-203 0 -369 160 -369 356s166 357 369 357c116 0 219 -53 287 -134l-29 -25c-60 73 -153 122 -258 122c-182 0 -330 -143 -330 -320s148 -319 330 -319zM597 910l-164 -152h-35l155 156z" />
    <glyph glyph-name="Cdotaccent" unicode="&#x10a;" horiz-adv-x="768" 
d="M427 33c105 0 198 48 258 121l29 -25c-68 -81 -171 -133 -287 -133c-203 0 -369 160 -369 356s166 357 369 357c116 0 219 -53 287 -134l-29 -25c-60 73 -153 122 -258 122c-182 0 -330 -143 -330 -320s148 -319 330 -319zM422 836c17 0 30 -12 30 -29s-13 -29 -30 -29
s-30 12 -30 29s13 29 30 29z" />
    <glyph glyph-name="Ccaron" unicode="&#x10c;" horiz-adv-x="768" 
d="M427 33c105 0 198 48 258 121l29 -25c-68 -81 -171 -133 -287 -133c-203 0 -369 160 -369 356s166 357 369 357c116 0 219 -53 287 -134l-29 -25c-60 73 -153 122 -258 122c-182 0 -330 -143 -330 -320s148 -319 330 -319zM409 758l-142 134h42l113 -104l114 104h42
l-143 -134h-26z" />
    <glyph glyph-name="ccircumflex" unicode="&#x109;" horiz-adv-x="589" 
d="M514 113l25 -25c-49 -57 -119 -92 -195 -92c-162 0 -293 124 -293 276c0 153 131 277 293 277c79 0 148 -35 196 -91l-26 -23c-41 48 -102 79 -170 79c-142 0 -257 -108 -257 -242c0 -133 115 -241 257 -241c67 0 128 32 170 82zM173 617l142 134h26l143 -134h-42
l-114 104l-113 -104h-42z" />
    <glyph glyph-name="cacute" unicode="&#x107;" horiz-adv-x="589" 
d="M514 113l25 -25c-49 -57 -119 -92 -195 -92c-162 0 -293 124 -293 276c0 153 131 277 293 277c79 0 148 -35 196 -91l-26 -23c-41 48 -102 79 -170 79c-142 0 -257 -108 -257 -242c0 -133 115 -241 257 -241c67 0 128 32 170 82zM512 769l-164 -152h-35l155 156z" />
    <glyph glyph-name="cdotaccent" unicode="&#x10b;" horiz-adv-x="589" 
d="M514 113l25 -25c-49 -57 -119 -92 -195 -92c-162 0 -293 124 -293 276c0 153 131 277 293 277c79 0 148 -35 196 -91l-26 -23c-41 48 -102 79 -170 79c-142 0 -257 -108 -257 -242c0 -133 115 -241 257 -241c67 0 128 32 170 82zM337 695c17 0 30 -12 30 -29
s-13 -29 -30 -29s-30 12 -30 29s13 29 30 29z" />
    <glyph glyph-name="ccaron" unicode="&#x10d;" horiz-adv-x="589" 
d="M514 113l25 -25c-49 -57 -119 -92 -195 -92c-162 0 -293 124 -293 276c0 153 131 277 293 277c79 0 148 -35 196 -91l-26 -23c-41 48 -102 79 -170 79c-142 0 -257 -108 -257 -242c0 -133 115 -241 257 -241c67 0 128 32 170 82zM313 617l-142 134h42l113 -104l114 104
h42l-143 -134h-26z" />
    <glyph glyph-name="Dcroat" unicode="&#x110;" horiz-adv-x="731" 
d="M-5 337v32h106v336h217c196 0 355 -158 355 -353c0 -187 -147 -352 -332 -352h-240v337h-106zM138 35h200c164 0 297 150 297 317c0 176 -142 318 -317 318h-180v-301h208v-32h-208v-302zM165 794v29h316v-29h-316z" />
    <glyph glyph-name="Dcaron" unicode="&#x10e;" horiz-adv-x="725" 
d="M667 352c0 -187 -147 -340 -332 -352h-240v705h217c196 0 355 -158 355 -353zM132 35h200c163 14 297 150 297 317c0 176 -142 318 -317 318h-180v-635zM311 758l-142 134h42l113 -104l114 104h42l-143 -134h-26z" />
    <glyph glyph-name="dcaron" unicode="&#x10f;" horiz-adv-x="728" 
d="M545 754h36v-754h-36v67c-50 -44 -129 -71 -212 -71c-155 0 -282 122 -282 276c0 155 127 277 282 277c86 0 159 -27 212 -69v274zM335 31c86 0 160 29 210 78v329c-49 47 -122 76 -210 76c-136 0 -247 -107 -247 -242c0 -134 111 -241 247 -241zM692 705
c27 0 32 -24 32 -51c0 -56 -38 -104 -104 -104l-6 19c39 2 78 21 79 79c-16 1 -27 13 -27 28c0 17 13 29 26 29z" />
    <glyph glyph-name="dcroat" unicode="&#x111;" horiz-adv-x="668" 
d="M718 647v-31h-137v-616h-36v67c-50 -44 -129 -71 -212 -71c-155 0 -282 122 -282 276c0 155 127 277 282 277c86 0 159 -27 212 -69v136h-137v31h137v107h36v-107h137zM335 31c86 0 160 29 210 78v329c-49 47 -122 76 -210 76c-136 0 -247 -107 -247 -242
c0 -134 111 -241 247 -241z" />
    <glyph glyph-name="Emacron" unicode="&#x112;" 
d="M132 35h448v-35h-485v705h464v-35h-427v-311h365v-34h-365v-290zM175 794v29h316v-29h-316z" />
    <glyph glyph-name="Edotaccent" unicode="&#x116;" 
d="M132 35h448v-35h-485v705h464v-35h-427v-311h365v-34h-365v-290zM334 836c17 0 30 -12 30 -29s-13 -29 -30 -29s-30 12 -30 29s13 29 30 29z" />
    <glyph glyph-name="Ebreve" unicode="&#x114;" 
d="M132 35h448v-35h-485v705h464v-35h-427v-311h365v-34h-365v-290zM335 780c-80 0 -133 40 -141 127c3 0 28 2 31 2c5 -67 47 -96 110 -96c62 0 104 29 110 96l30 -2c-7 -87 -61 -127 -140 -127z" />
    <glyph glyph-name="Ecaron" unicode="&#x11a;" 
d="M132 35h448v-35h-485v705h464v-35h-427v-311h365v-34h-365v-290zM321 758l-142 134h42l113 -104l114 104h42l-143 -134h-26z" />
    <glyph glyph-name="Eogonek" unicode="&#x118;" 
d="M606 -135l5 -29c-22 -4 -37 -6 -55 -6c-49 0 -75 25 -75 63c0 48 48 93 65 107h-451v705h464v-35h-427v-311h365v-34h-365v-290h448v-35c-1 -1 -65 -56 -65 -100c0 -27 19 -40 53 -40c11 0 21 2 38 5z" />
    <glyph glyph-name="emacron" unicode="&#x113;" horiz-adv-x="637" 
d="M584 269v-12h-496c8 -132 114 -226 239 -226c81 0 159 30 207 91l28 -22c-50 -63 -136 -104 -237 -104c-162 0 -274 124 -274 276c0 153 112 277 274 277c160 0 259 -116 259 -280zM325 515c-135 0 -231 -99 -237 -226h461c-7 132 -90 226 -224 226zM168 653v29h316v-29
h-316z" />
    <glyph glyph-name="edotaccent" unicode="&#x117;" horiz-adv-x="637" 
d="M584 269v-12h-496c8 -132 114 -226 239 -226c81 0 159 30 207 91l28 -22c-50 -63 -136 -104 -237 -104c-162 0 -274 124 -274 276c0 153 112 277 274 277c160 0 259 -116 259 -280zM325 515c-135 0 -231 -99 -237 -226h461c-7 132 -90 226 -224 226zM319 695
c17 0 30 -12 30 -29s-13 -29 -30 -29s-30 12 -30 29s13 29 30 29z" />
    <glyph glyph-name="ebreve" unicode="&#x115;" horiz-adv-x="637" 
d="M584 269v-12h-496c8 -132 114 -226 239 -226c81 0 159 30 207 91l28 -22c-50 -63 -136 -104 -237 -104c-162 0 -274 124 -274 276c0 153 112 277 274 277c160 0 259 -116 259 -280zM325 515c-135 0 -231 -99 -237 -226h461c-7 132 -90 226 -224 226zM320 639
c-80 0 -133 40 -141 127c3 0 28 2 31 2c5 -67 47 -96 110 -96c62 0 104 29 110 96l30 -2c-7 -87 -61 -127 -140 -127z" />
    <glyph glyph-name="ecaron" unicode="&#x11b;" horiz-adv-x="637" 
d="M584 269v-12h-496c8 -132 114 -226 239 -226c81 0 159 30 207 91l28 -22c-50 -63 -136 -104 -237 -104c-162 0 -274 124 -274 276c0 153 112 277 274 277c160 0 259 -116 259 -280zM325 515c-135 0 -231 -99 -237 -226h461c-7 132 -90 226 -224 226zM306 617l-142 134h42
l113 -104l114 104h42l-143 -134h-26z" />
    <glyph glyph-name="eogonek" unicode="&#x119;" horiz-adv-x="637" 
d="M418 -132l5 -29c-22 -4 -37 -6 -55 -6c-49 0 -75 25 -75 63c0 42 37 82 58 101c-9 -1 -18 -1 -26 -1c-162 0 -274 124 -274 276c0 153 112 277 274 277c160 0 259 -116 259 -280v-12h-496c8 -132 114 -226 239 -226c81 0 159 30 207 91l28 -22c-39 -49 -99 -85 -171 -98
c-5 -4 -64 -56 -64 -99c0 -27 19 -40 53 -40c11 0 21 2 38 5zM325 515c-135 0 -231 -99 -237 -226h461c-7 132 -90 226 -224 226z" />
    <glyph glyph-name="Gcircumflex" unicode="&#x11c;" horiz-adv-x="801" 
d="M411 327h322v-228c-77 -63 -186 -103 -304 -103c-204 0 -371 160 -371 356s167 356 371 356c116 0 211 -39 278 -101l-25 -27c-61 56 -148 91 -253 91c-183 0 -333 -143 -333 -319c0 -177 150 -320 333 -320c106 0 197 33 267 86v175h-285v34zM259 758l142 134h26
l143 -134h-42l-114 104l-113 -104h-42z" />
    <glyph glyph-name="Gdotaccent" unicode="&#x120;" horiz-adv-x="801" 
d="M411 327h322v-228c-77 -63 -186 -103 -304 -103c-204 0 -371 160 -371 356s167 356 371 356c116 0 211 -39 278 -101l-25 -27c-61 56 -148 91 -253 91c-183 0 -333 -143 -333 -319c0 -177 150 -320 333 -320c106 0 197 33 267 86v175h-285v34zM414 836
c17 0 30 -12 30 -29s-13 -29 -30 -29s-30 12 -30 29s13 29 30 29z" />
    <glyph glyph-name="Gbreve" unicode="&#x11e;" horiz-adv-x="801" 
d="M411 327h322v-228c-77 -63 -186 -103 -304 -103c-204 0 -371 160 -371 356s167 356 371 356c116 0 211 -39 278 -101l-25 -27c-61 56 -148 91 -253 91c-183 0 -333 -143 -333 -319c0 -177 150 -320 333 -320c106 0 197 33 267 86v175h-285v34zM415 780
c-80 0 -133 40 -141 127c3 0 28 2 31 2c5 -67 47 -96 110 -96c62 0 104 29 110 96l30 -2c-7 -87 -61 -127 -140 -127z" />
    <glyph glyph-name="gcircumflex" unicode="&#x11d;" horiz-adv-x="667" 
d="M544 539h36v-484c0 -131 -82 -240 -255 -240c-120 0 -143 12 -218 33l8 31c75 -22 107 -31 207 -31c157 0 222 100 222 192v23c-53 -41 -126 -67 -212 -67c-155 0 -282 124 -282 278c0 153 127 275 282 275c83 0 162 -28 212 -72v62zM87 274c0 -134 111 -243 247 -243
c88 0 161 27 210 75v330c-50 49 -124 78 -210 78c-136 0 -247 -107 -247 -240zM181 617l142 134h26l143 -134h-42l-114 104l-113 -104h-42z" />
    <glyph glyph-name="gdotaccent" unicode="&#x121;" horiz-adv-x="667" 
d="M544 539h36v-484c0 -131 -82 -240 -255 -240c-120 0 -143 12 -218 33l8 31c75 -22 107 -31 207 -31c157 0 222 100 222 192v23c-53 -41 -126 -67 -212 -67c-155 0 -282 124 -282 278c0 153 127 275 282 275c83 0 162 -28 212 -72v62zM87 274c0 -134 111 -243 247 -243
c88 0 161 27 210 75v330c-50 49 -124 78 -210 78c-136 0 -247 -107 -247 -240zM336 695c17 0 30 -12 30 -29s-13 -29 -30 -29s-30 12 -30 29s13 29 30 29z" />
    <glyph glyph-name="gbreve" unicode="&#x11f;" horiz-adv-x="667" 
d="M544 539h36v-484c0 -131 -82 -240 -255 -240c-120 0 -143 12 -218 33l8 31c75 -22 107 -31 207 -31c157 0 222 100 222 192v23c-53 -41 -126 -67 -212 -67c-155 0 -282 124 -282 278c0 153 127 275 282 275c83 0 162 -28 212 -72v62zM87 274c0 -134 111 -243 247 -243
c88 0 161 27 210 75v330c-50 49 -124 78 -210 78c-136 0 -247 -107 -247 -240zM337 639c-80 0 -133 40 -141 127c3 0 28 2 31 2c5 -67 47 -96 110 -96c62 0 104 29 110 96l30 -2c-7 -87 -61 -127 -140 -127z" />
    <glyph glyph-name="Gcommaaccent" unicode="&#x122;" horiz-adv-x="801" 
d="M411 327h322v-228c-77 -63 -186 -103 -304 -103c-204 0 -371 160 -371 356s167 356 371 356c116 0 211 -39 278 -101l-25 -27c-61 56 -148 91 -253 91c-183 0 -333 -143 -333 -319c0 -177 150 -320 333 -320c106 0 197 33 267 86v175h-285v34zM425 -71
c26 0 31 -24 31 -51c0 -56 -38 -104 -103 -104l-7 18c40 2 79 21 79 80c-15 0 -27 13 -27 28c0 16 14 29 27 29z" />
    <glyph glyph-name="gcommaaccent" unicode="&#x123;" horiz-adv-x="667" 
d="M544 539h36v-484c0 -131 -82 -240 -255 -240c-120 0 -143 12 -218 33l8 31c75 -22 107 -31 207 -31c157 0 222 100 222 192v23c-53 -41 -126 -67 -212 -67c-155 0 -282 124 -282 278c0 153 127 275 282 275c83 0 162 -28 212 -72v62zM87 274c0 -134 111 -243 247 -243
c88 0 161 27 210 75v330c-50 49 -124 78 -210 78c-136 0 -247 -107 -247 -240zM344 649c-26 0 -31 24 -31 51c0 56 38 104 103 104l7 -18c-40 -2 -79 -21 -79 -80c15 0 27 -13 27 -28c0 -16 -14 -29 -27 -29z" />
    <glyph glyph-name="Hcircumflex" unicode="&#x124;" horiz-adv-x="726" 
d="M594 705h37v-705h-37v295h-462v-295h-37v705h37v-375h462v375zM216 758l142 134h26l143 -134h-42l-114 104l-113 -104h-42z" />
    <glyph glyph-name="hcircumflex" unicode="&#x125;" horiz-adv-x="639" 
d="M334 549c131 0 232 -81 232 -238v-311h-36v311c0 132 -88 203 -199 203c-88 0 -155 -28 -208 -75v-439h-36v754h36v-279c49 47 124 74 211 74zM155 758l142 134h26l143 -134h-42l-114 104l-113 -104h-42z" />
    <glyph glyph-name="Hbar" unicode="&#x126;" horiz-adv-x="726" 
d="M48 578v31h47v96h37v-96h462v96h37v-96h50v-31h-50v-578h-37v295h-462v-295h-37v578h-47zM132 330h462v248h-462v-248z" />
    <glyph glyph-name="hbar" unicode="&#x127;" horiz-adv-x="639" 
d="M-30 578v30h117v146h36v-146h115v-30h-115v-103c49 47 124 74 211 74c131 0 232 -81 232 -238v-311h-36v311c0 132 -88 203 -199 203c-88 0 -155 -28 -208 -75v-439h-36v578h-117z" />
    <glyph glyph-name="Itilde" unicode="&#x128;" horiz-adv-x="229" 
d="M133 705v-705h-37v705h37zM-42 774l-27 4c10 69 47 107 106 107c60 0 112 -48 165 -48c31 0 62 25 71 78l27 -4c-11 -73 -52 -106 -96 -106c-59 0 -116 48 -165 48c-44 0 -71 -28 -81 -79z" />
    <glyph glyph-name="Imacron" unicode="&#x12a;" horiz-adv-x="229" 
d="M133 705v-705h-37v705h37zM-44 807v29h316v-29h-316z" />
    <glyph glyph-name="Idotaccent" unicode="&#x130;" horiz-adv-x="229" 
d="M133 705v-705h-37v705h37zM115 849c17 0 30 -12 30 -29s-13 -29 -30 -29s-30 12 -30 29s13 29 30 29z" />
    <glyph glyph-name="Ibreve" unicode="&#x12c;" horiz-adv-x="229" 
d="M133 705v-705h-37v705h37zM114 793c-80 0 -133 40 -141 127c3 0 28 2 31 2c5 -67 47 -96 110 -96c62 0 104 29 110 96l30 -2c-7 -87 -61 -127 -140 -127z" />
    <glyph glyph-name="Iogonek" unicode="&#x12e;" horiz-adv-x="229" 
d="M159 -135l5 -29c-22 -4 -37 -6 -55 -6c-49 0 -75 25 -75 63c0 48 48 93 65 107h-3v705h37v-705c-1 -1 -65 -56 -65 -100c0 -27 19 -40 53 -40c11 0 21 2 38 5z" />
    <glyph glyph-name="itilde" unicode="&#x129;" horiz-adv-x="213" 
d="M-50 610l-27 4c10 69 47 107 106 107c60 0 112 -48 165 -48c31 0 62 25 71 78l27 -4c-11 -73 -52 -106 -96 -106c-59 0 -116 48 -165 48c-44 0 -71 -28 -81 -79zM88 0v539h37v-539h-37z" />
    <glyph glyph-name="imacron" unicode="&#x12b;" horiz-adv-x="213" 
d="M-51 643v29h316v-29h-316zM88 0v539h37v-539h-37z" />
    <glyph glyph-name="ibreve" unicode="&#x12d;" horiz-adv-x="213" 
d="M107 629c-80 0 -133 40 -141 127c3 0 28 2 31 2c5 -67 47 -96 110 -96c62 0 104 29 110 96l30 -2c-7 -87 -61 -127 -140 -127zM88 0v539h37v-539h-37z" />
    <glyph glyph-name="iogonek" unicode="&#x12f;" horiz-adv-x="213" 
d="M88 0v539h37v-539c-1 -1 -65 -56 -65 -100c0 -27 19 -40 53 -40c11 0 21 2 38 5l5 -29c-22 -4 -37 -6 -55 -6c-49 0 -75 25 -75 63c0 48 48 93 65 107h-3zM106 711c17 0 30 -12 30 -29s-13 -29 -30 -29s-30 12 -30 29s13 29 30 29z" />
    <glyph glyph-name="IJ" unicode="&#x132;" horiz-adv-x="833" 
d="M133 705v-705h-37v705h37zM721 705h37v-417c0 -172 -79 -292 -249 -292c-121 0 -222 88 -241 204l34 4c20 -98 104 -171 207 -171c144 0 212 104 212 251v421z" />
    <glyph glyph-name="ij" unicode="&#x133;" horiz-adv-x="427" 
d="M88 0v539h37v-539h-37zM106 711c17 0 30 -12 30 -29s-13 -29 -30 -29s-30 12 -30 29s13 29 30 29zM303 -21v560h37v-568c0 -103 -67 -156 -149 -156c-16 0 -31 2 -44 3v33c11 -1 23 -1 37 -1c68 0 119 42 119 129zM321 711c17 0 30 -12 30 -29s-13 -29 -30 -29
s-30 12 -30 29s13 29 30 29z" />
    <glyph glyph-name="Jcircumflex" unicode="&#x134;" horiz-adv-x="607" 
d="M486 705h37v-417c0 -172 -79 -292 -249 -292c-121 0 -222 88 -241 204l34 4c20 -98 104 -171 207 -171c144 0 212 104 212 251v421zM209 758l142 134h26l143 -134h-42l-114 104l-113 -104h-42z" />
    <glyph glyph-name="jcircumflex" unicode="&#x135;" horiz-adv-x="211" 
d="M87 -21v560h37v-568c0 -103 -67 -156 -149 -156c-16 0 -31 2 -44 3v33c11 -1 23 -1 37 -1c68 0 119 42 119 129zM-48 617l142 134h26l143 -134h-42l-114 104l-113 -104h-42z" />
    <glyph glyph-name="Kcommaaccent" unicode="&#x136;" horiz-adv-x="684" 
d="M311 365l324 -365h-51l-299 337l-153 -164v-173h-37v705h37v-479l446 479h48zM332 -71c26 0 31 -24 31 -51c0 -56 -38 -104 -103 -104l-7 18c40 2 79 21 79 80c-15 0 -27 13 -27 28c0 16 14 29 27 29z" />
    <glyph glyph-name="kcommaaccent" unicode="&#x137;" horiz-adv-x="612" 
d="M365 334l218 -334h-42l-202 307l-216 -200v-107h-36v754h36v-599l411 384h50zM305 -71c26 0 31 -24 31 -51c0 -56 -38 -104 -103 -104l-7 18c40 2 79 21 79 80c-15 0 -27 13 -27 28c0 16 14 29 27 29z" />
    <glyph glyph-name="kgreenlandic" unicode="&#x138;" horiz-adv-x="612" 
d="M365 334l218 -334h-42l-202 307l-216 -200v-107h-36v539h36v-384l411 384h50z" />
    <glyph glyph-name="Lacute" unicode="&#x139;" horiz-adv-x="591" 
d="M132 34h415v-34h-452v705h37v-671zM303 910l-164 -152h-35l155 156z" />
    <glyph glyph-name="lacute" unicode="&#x13a;" horiz-adv-x="211" 
d="M87 0v754h37v-754h-37zM294 959l-164 -152h-35l155 156z" />
    <glyph glyph-name="Lcommaaccent" unicode="&#x13b;" horiz-adv-x="591" 
d="M132 34h415v-34h-452v705h37v-671zM322 -71c26 0 31 -24 31 -51c0 -56 -38 -104 -103 -104l-7 18c40 2 79 21 79 80c-15 0 -27 13 -27 28c0 16 14 29 27 29z" />
    <glyph glyph-name="lcommaaccent" unicode="&#x13c;" horiz-adv-x="211" 
d="M87 0v754h37v-754h-37zM102 -71c26 0 31 -24 31 -51c0 -56 -38 -104 -103 -104l-7 18c40 2 79 21 79 80c-15 0 -27 13 -27 28c0 16 14 29 27 29z" />
    <glyph glyph-name="Ldot" unicode="&#x13f;" horiz-adv-x="591" 
d="M132 34h415v-34h-452v705h37v-671zM229 542c17 0 30 -12 30 -29s-13 -29 -30 -29s-30 12 -30 29s13 29 30 29z" />
    <glyph glyph-name="ldot" unicode="&#x140;" horiz-adv-x="244" 
d="M87 0v754h37v-754h-37zM208 542c17 0 30 -12 30 -29s-13 -29 -30 -29s-30 12 -30 29s13 29 30 29z" />
    <glyph glyph-name="Lcaron" unicode="&#x13d;" horiz-adv-x="591" 
d="M132 34h415v-34h-452v705h37v-671zM281 706c27 0 32 -24 32 -51c0 -56 -38 -104 -104 -104l-6 19c39 2 78 21 79 79c-16 1 -27 13 -27 28c0 17 13 29 26 29z" />
    <glyph glyph-name="lcaron" unicode="&#x13e;" horiz-adv-x="292" 
d="M87 0v754h37v-754h-37zM262 705c27 0 32 -24 32 -51c0 -56 -38 -104 -104 -104l-6 19c39 2 78 21 79 79c-16 1 -27 13 -27 28c0 17 13 29 26 29z" />
    <glyph glyph-name="Nacute" unicode="&#x143;" horiz-adv-x="768" 
d="M636 705h37v-705h-24l-517 634v-634h-37v705h25l516 -634v634zM570 910l-164 -152h-35l155 156z" />
    <glyph glyph-name="Ncaron" unicode="&#x147;" horiz-adv-x="768" 
d="M636 705h37v-705h-24l-517 634v-634h-37v705h25l516 -634v634zM373 758l-142 134h42l113 -104l114 104h42l-143 -134h-26z" />
    <glyph glyph-name="nacute" unicode="&#x144;" horiz-adv-x="640" 
d="M334 549c131 0 232 -81 232 -238v-311h-36v311c0 132 -87 203 -199 203c-88 0 -155 -28 -208 -75v-439h-36v539h36v-65c49 48 124 75 211 75zM497 759l-164 -152h-35l155 156z" />
    <glyph glyph-name="ncaron" unicode="&#x148;" horiz-adv-x="640" 
d="M334 549c131 0 232 -81 232 -238v-311h-36v311c0 132 -87 203 -199 203c-88 0 -155 -28 -208 -75v-439h-36v539h36v-65c49 48 124 75 211 75zM300 607l-142 134h42l113 -104l114 104h42l-143 -134h-26z" />
    <glyph glyph-name="Ncommaaccent" unicode="&#x145;" horiz-adv-x="768" 
d="M636 705h37v-705h-24l-517 634v-634h-37v705h25l516 -634v634zM394 -71c26 0 31 -24 31 -51c0 -56 -38 -104 -103 -104l-7 18c40 2 79 21 79 80c-15 0 -27 13 -27 28c0 16 14 29 27 29z" />
    <glyph glyph-name="ncommaaccent" unicode="&#x146;" horiz-adv-x="640" 
d="M334 549c131 0 232 -81 232 -238v-311h-36v311c0 132 -87 203 -199 203c-88 0 -155 -28 -208 -75v-439h-36v539h36v-65c49 48 124 75 211 75zM336 -71c26 0 31 -24 31 -51c0 -56 -38 -104 -103 -104l-7 18c40 2 79 21 79 80c-15 0 -27 13 -27 28c0 16 14 29 27 29z" />
    <glyph glyph-name="napostrophe" unicode="&#x149;" horiz-adv-x="640" 
d="M334 549c131 0 232 -81 232 -238v-311h-36v311c0 132 -87 203 -199 203c-88 0 -155 -28 -208 -75v-439h-36v539h36v-65c49 48 124 75 211 75zM133 757c26 0 31 -24 31 -51c0 -56 -38 -104 -103 -104l-7 18c40 2 79 21 79 80c-15 0 -27 13 -27 28c0 16 14 29 27 29z" />
    <glyph glyph-name="Eng" unicode="&#x14a;" horiz-adv-x="768" 
d="M636 705h37v-703c0 -159 -87 -268 -248 -268c-122 0 -223 87 -242 203l34 4c20 -98 104 -171 207 -171c144 0 211 96 211 243l-503 624v-637h-37v705h25l516 -637v637z" />
    <glyph glyph-name="eng" unicode="&#x14b;" horiz-adv-x="640" 
d="M334 549c131 0 232 -81 232 -238v-340c0 -103 -67 -156 -149 -156c-16 0 -31 2 -44 3v33c11 -1 23 -1 37 -1c68 0 120 42 120 126v335c0 133 -88 203 -199 203c-88 0 -155 -28 -208 -75v-439h-36v539h36v-65c49 48 124 75 211 75z" />
    <glyph glyph-name="Omacron" unicode="&#x14c;" horiz-adv-x="858" 
d="M429 708c205 0 370 -160 370 -356s-165 -356 -370 -356s-371 160 -371 356s166 356 371 356zM429 33c184 0 332 143 332 319s-148 320 -332 320c-183 0 -333 -144 -333 -320s150 -319 333 -319zM264 794v29h316v-29h-316z" />
    <glyph glyph-name="Obreve" unicode="&#x14e;" horiz-adv-x="858" 
d="M429 708c205 0 370 -160 370 -356s-165 -356 -370 -356s-371 160 -371 356s166 356 371 356zM429 33c184 0 332 143 332 319s-148 320 -332 320c-183 0 -333 -144 -333 -320s150 -319 333 -319zM424 780c-80 0 -133 40 -141 127c3 0 28 2 31 2c5 -67 47 -96 110 -96
c62 0 104 29 110 96l30 -2c-7 -87 -61 -127 -140 -127z" />
    <glyph glyph-name="Ohungarumlaut" unicode="&#x150;" horiz-adv-x="858" 
d="M429 708c205 0 370 -160 370 -356s-165 -356 -370 -356s-371 160 -371 356s166 356 371 356zM429 33c184 0 332 143 332 319s-148 320 -332 320c-183 0 -333 -144 -333 -320s150 -319 333 -319zM423 909l40 -12l-95 -137h-35zM567 909l40 -12l-96 -137h-35
c1 0 91 149 91 149z" />
    <glyph glyph-name="omacron" unicode="&#x14d;" horiz-adv-x="687" 
d="M343 549c161 0 292 -124 292 -277c0 -152 -131 -276 -292 -276c-162 0 -293 124 -293 276c0 153 131 277 293 277zM343 31c141 0 256 108 256 241c0 134 -115 242 -256 242c-142 0 -257 -108 -257 -242c0 -133 115 -241 257 -241zM187 643v29h316v-29h-316z" />
    <glyph glyph-name="obreve" unicode="&#x14f;" horiz-adv-x="687" 
d="M343 549c161 0 292 -124 292 -277c0 -152 -131 -276 -292 -276c-162 0 -293 124 -293 276c0 153 131 277 293 277zM343 31c141 0 256 108 256 241c0 134 -115 242 -256 242c-142 0 -257 -108 -257 -242c0 -133 115 -241 257 -241zM342 629c-80 0 -133 40 -141 127
c3 0 28 2 31 2c5 -67 47 -96 110 -96c62 0 104 29 110 96l30 -2c-7 -87 -61 -127 -140 -127z" />
    <glyph glyph-name="ohungarumlaut" unicode="&#x151;" horiz-adv-x="687" 
d="M343 549c161 0 292 -124 292 -277c0 -152 -131 -276 -292 -276c-162 0 -293 124 -293 276c0 153 131 277 293 277zM343 31c141 0 256 108 256 241c0 134 -115 242 -256 242c-142 0 -257 -108 -257 -242c0 -133 115 -241 257 -241zM335 758l40 -12l-95 -137h-35zM479 758
l40 -12l-96 -137h-35c1 0 91 149 91 149z" />
    <glyph glyph-name="Racute" unicode="&#x154;" horiz-adv-x="669" 
d="M584 0l-181 246c-20 -2 -42 -3 -63 -3h-208v-243h-37v705h271c182 0 245 -108 245 -225c0 -129 -66 -201 -170 -226l189 -254h-46zM132 670v-393h207c138 0 233 59 233 202c0 100 -54 191 -208 191h-232zM501 910l-164 -152h-35l155 156z" />
    <glyph glyph-name="Rcaron" unicode="&#x158;" horiz-adv-x="669" 
d="M584 0l-181 246c-20 -2 -42 -3 -63 -3h-208v-243h-37v705h271c182 0 245 -108 245 -225c0 -129 -66 -201 -170 -226l189 -254h-46zM132 670v-393h207c138 0 233 59 233 202c0 100 -54 191 -208 191h-232zM314 758l-142 134h42l113 -104l114 104h42l-143 -134h-26z" />
    <glyph glyph-name="racute" unicode="&#x155;" horiz-adv-x="433" 
d="M123 539v-129c31 83 95 138 183 139c29 0 61 -7 93 -23l-9 -35c-31 15 -61 20 -87 20c-107 0 -180 -100 -180 -228v-283h-36v539h36zM295 769l-164 -152h-35l155 156z" />
    <glyph glyph-name="rcaron" unicode="&#x159;" horiz-adv-x="433" 
d="M123 539v-129c31 83 95 138 183 139c29 0 61 -7 93 -23l-9 -35c-31 15 -61 20 -87 20c-107 0 -180 -100 -180 -228v-283h-36v539h36zM214 617l-142 134h42l113 -104l114 104h42l-143 -134h-26z" />
    <glyph glyph-name="Rcommaaccent" unicode="&#x156;" horiz-adv-x="669" 
d="M584 0l-181 246c-20 -2 -42 -3 -63 -3h-208v-243h-37v705h271c182 0 245 -108 245 -225c0 -129 -66 -201 -170 -226l189 -254h-46zM132 670v-393h207c138 0 233 59 233 202c0 100 -54 191 -208 191h-232zM352 -71c26 0 31 -24 31 -51c0 -56 -38 -104 -103 -104l-7 18
c40 2 79 21 79 80c-15 0 -27 13 -27 28c0 16 14 29 27 29z" />
    <glyph glyph-name="rcommaaccent" unicode="&#x157;" horiz-adv-x="433" 
d="M123 539v-129c31 83 95 138 183 139c29 0 61 -7 93 -23l-9 -35c-31 15 -61 20 -87 20c-107 0 -180 -100 -180 -228v-283h-36v539h36zM110 -71c26 0 31 -24 31 -51c0 -56 -38 -104 -103 -104l-7 18c40 2 79 21 79 80c-15 0 -27 13 -27 28c0 16 14 29 27 29z" />
    <glyph glyph-name="Scircumflex" unicode="&#x15c;" 
d="M332 371c132 -33 245 -72 245 -190c0 -119 -101 -188 -251 -188c-111 0 -156 8 -268 64l15 31c106 -52 149 -60 253 -60c128 0 213 56 213 152c0 95 -99 126 -216 155c-140 34 -260 72 -260 192c0 107 91 182 239 182c80 0 184 -21 245 -54l-17 -32
c-58 32 -156 51 -228 51c-125 0 -201 -61 -201 -146c0 -94 105 -126 231 -157zM160 758l142 134h26l143 -134h-42l-114 104l-113 -104h-42z" />
    <glyph glyph-name="Sacute" unicode="&#x15a;" 
d="M332 371c132 -33 245 -72 245 -190c0 -119 -101 -188 -251 -188c-111 0 -156 8 -268 64l15 31c106 -52 149 -60 253 -60c128 0 213 56 213 152c0 95 -99 126 -216 155c-140 34 -260 72 -260 192c0 107 91 182 239 182c80 0 184 -21 245 -54l-17 -32
c-58 32 -156 51 -228 51c-125 0 -201 -61 -201 -146c0 -94 105 -126 231 -157zM497 910l-164 -152h-35l155 156z" />
    <glyph glyph-name="Scaron" unicode="&#x160;" 
d="M332 371c132 -33 245 -72 245 -190c0 -119 -101 -188 -251 -188c-111 0 -156 8 -268 64l15 31c106 -52 149 -60 253 -60c128 0 213 56 213 152c0 95 -99 126 -216 155c-140 34 -260 72 -260 192c0 107 91 182 239 182c80 0 184 -21 245 -54l-17 -32
c-58 32 -156 51 -228 51c-125 0 -201 -61 -201 -146c0 -94 105 -126 231 -157zM300 758l-142 134h42l113 -104l114 104h42l-143 -134h-26z" />
    <glyph glyph-name="scircumflex" unicode="&#x15d;" horiz-adv-x="536" 
d="M51 45l14 30c59 -23 131 -45 209 -45c131 0 177 58 177 118c0 67 -79 94 -185 116c-119 24 -205 59 -205 143c0 82 85 142 196 142c68 0 134 -14 197 -41l-12 -30c-57 26 -120 37 -185 37c-91 0 -161 -45 -161 -108c0 -61 66 -87 178 -109c125 -24 212 -59 212 -149
c0 -79 -58 -153 -213 -153c-84 0 -160 23 -222 49zM100 607l142 134h26l143 -134h-42l-114 104l-113 -104h-42z" />
    <glyph glyph-name="sacute" unicode="&#x15b;" horiz-adv-x="536" 
d="M51 45l14 30c59 -23 131 -45 209 -45c131 0 177 58 177 118c0 67 -79 94 -185 116c-119 24 -205 59 -205 143c0 82 85 142 196 142c68 0 134 -14 197 -41l-12 -30c-57 26 -120 37 -185 37c-91 0 -161 -45 -161 -108c0 -61 66 -87 178 -109c125 -24 212 -59 212 -149
c0 -79 -58 -153 -213 -153c-84 0 -160 23 -222 49zM434 759l-164 -152h-35l155 156z" />
    <glyph glyph-name="scaron" unicode="&#x161;" horiz-adv-x="536" 
d="M51 45l14 30c59 -23 131 -45 209 -45c131 0 177 58 177 118c0 67 -79 94 -185 116c-119 24 -205 59 -205 143c0 82 85 142 196 142c68 0 134 -14 197 -41l-12 -30c-57 26 -120 37 -185 37c-91 0 -161 -45 -161 -108c0 -61 66 -87 178 -109c125 -24 212 -59 212 -149
c0 -79 -58 -153 -213 -153c-84 0 -160 23 -222 49zM244 607l-142 134h42l113 -104l114 104h42l-143 -134h-26z" />
    <glyph glyph-name="Scedilla" unicode="&#x15e;" 
d="M284 -74l42 67c-111 0 -156 8 -268 64l15 31c106 -52 149 -60 253 -60c128 0 213 56 213 152c0 95 -99 126 -216 155c-140 34 -260 72 -260 192c0 107 91 182 239 182c80 0 184 -21 245 -54l-17 -32c-58 32 -156 51 -228 51c-125 0 -201 -61 -201 -146
c0 -94 105 -126 231 -157c132 -33 245 -72 245 -190c0 -112 -89 -180 -224 -187l-25 -52c34 0 60 -21 60 -55c0 -33 -25 -73 -90 -73c-40 0 -60 9 -63 9l6 22c12 -4 36 -7 52 -7c46 0 64 26 64 50c0 29 -36 38 -73 38z" />
    <glyph glyph-name="scedilla" unicode="&#x15f;" horiz-adv-x="536" 
d="M216 -74l44 70c-79 2 -150 24 -209 49l14 30c59 -23 131 -45 209 -45c131 0 177 58 177 118c0 67 -79 94 -185 116c-119 24 -205 59 -205 143c0 82 85 142 196 142c68 0 134 -14 197 -41l-12 -30c-57 26 -120 37 -185 37c-91 0 -161 -45 -161 -108c0 -61 66 -87 178 -109
c125 -24 212 -59 212 -149c0 -77 -55 -149 -200 -153l-26 -54c34 0 60 -21 60 -55c0 -33 -25 -73 -90 -73c-40 0 -60 9 -63 9l6 22c12 -4 36 -7 52 -7c46 0 64 26 64 50c0 29 -36 38 -73 38z" />
    <glyph glyph-name="Tcedilla" unicode="&#x162;" horiz-adv-x="660" 
d="M277 -74l46 74h-10v670h-256v35h550v-35h-257v-670h-1l-28 -58c34 0 60 -21 60 -55c0 -33 -25 -73 -90 -73c-40 0 -60 9 -63 9l6 22c12 -4 36 -7 52 -7c46 0 64 26 64 50c0 29 -36 38 -73 38z" />
    <glyph glyph-name="tcedilla" unicode="&#x163;" horiz-adv-x="389" 
d="M256 -74l44 71c-9 0 -19 -1 -29 -1c-82 0 -149 53 -149 156v354h-99v33h99v215h37v-215h210v-33h-210v-334c0 -102 49 -141 119 -141c44 0 71 5 89 10v-33c-10 -3 -23 -6 -39 -8l-28 -58c34 0 60 -21 60 -55c0 -33 -25 -73 -90 -73c-40 0 -60 9 -63 9l6 22
c12 -4 36 -7 52 -7c46 0 64 26 64 50c0 29 -36 38 -73 38z" />
    <glyph glyph-name="Tcaron" unicode="&#x164;" horiz-adv-x="660" 
d="M607 705v-35h-257v-670h-37v670h-256v35h550zM320 758l-142 134h42l113 -104l114 104h42l-143 -134h-26z" />
    <glyph glyph-name="tcaron" unicode="&#x165;" horiz-adv-x="437" 
d="M369 506h-210v-334c0 -102 49 -141 119 -141c44 0 71 5 89 10v-33c-19 -5 -51 -12 -96 -12c-82 0 -149 53 -149 156v354h-99v33h99v215h37v-215h210v-33zM425 718c27 0 32 -24 32 -51c0 -56 -38 -104 -104 -104l-6 19c39 2 78 21 79 79c-16 1 -27 13 -27 28
c0 17 13 29 26 29z" />
    <glyph glyph-name="tbar" unicode="&#x167;" horiz-adv-x="389" 
d="M40 351v29h82v126h-99v33h99v215h37v-215h210v-33h-210v-126h197v-29h-197v-179c0 -102 49 -141 119 -141c44 0 71 5 89 10v-33c-19 -5 -51 -12 -96 -12c-82 0 -149 53 -149 156v199h-82z" />
    <glyph glyph-name="Tbar" unicode="&#x166;" horiz-adv-x="660" 
d="M174 357v29h139v284h-256v35h550v-35h-257v-284h140v-29h-140v-357h-37v357h-139z" />
    <glyph glyph-name="Utilde" unicode="&#x168;" horiz-adv-x="754" 
d="M660 705v-422c0 -159 -99 -287 -284 -287c-183 0 -281 127 -281 287v422h36v-418c0 -145 86 -254 245 -254c161 0 247 110 247 254v418h37zM223 761l-27 4c10 69 47 107 106 107c60 0 112 -48 165 -48c31 0 62 25 71 78l27 -4c-11 -73 -52 -106 -96 -106
c-59 0 -116 48 -165 48c-44 0 -71 -28 -81 -79z" />
    <glyph glyph-name="Umacron" unicode="&#x16a;" horiz-adv-x="754" 
d="M660 705v-422c0 -159 -99 -287 -284 -287c-183 0 -281 127 -281 287v422h36v-418c0 -145 86 -254 245 -254c161 0 247 110 247 254v418h37zM220 794v29h316v-29h-316z" />
    <glyph glyph-name="Ubreve" unicode="&#x16c;" horiz-adv-x="754" 
d="M660 705v-422c0 -159 -99 -287 -284 -287c-183 0 -281 127 -281 287v422h36v-418c0 -145 86 -254 245 -254c161 0 247 110 247 254v418h37zM380 780c-80 0 -133 40 -141 127c3 0 28 2 31 2c5 -67 47 -96 110 -96c62 0 104 29 110 96l30 -2c-7 -87 -61 -127 -140 -127z
" />
    <glyph glyph-name="Uhungarumlaut" unicode="&#x170;" horiz-adv-x="754" 
d="M660 705v-422c0 -159 -99 -287 -284 -287c-183 0 -281 127 -281 287v422h36v-418c0 -145 86 -254 245 -254c161 0 247 110 247 254v418h37zM379 909l40 -12l-95 -137h-35zM523 909l40 -12l-96 -137h-35c1 0 91 149 91 149z" />
    <glyph glyph-name="Uring" unicode="&#x16e;" horiz-adv-x="754" 
d="M660 705v-422c0 -159 -99 -287 -284 -287c-183 0 -281 127 -281 287v422h36v-418c0 -145 86 -254 245 -254c161 0 247 110 247 254v418h37zM294 770c0 46 39 84 85 84s85 -38 85 -84s-39 -84 -85 -84s-85 38 -85 84zM379 714c31 0 57 26 57 56s-26 56 -57 56
s-57 -26 -57 -56s26 -56 57 -56z" />
    <glyph glyph-name="Uogonek" unicode="&#x172;" horiz-adv-x="754" 
d="M448 -135l5 -29c-22 -4 -37 -6 -55 -6c-49 0 -75 25 -75 63c0 44 40 85 60 103h-7c-183 0 -281 127 -281 287v422h36v-418c0 -145 86 -254 245 -254c161 0 247 110 247 254v418h37v-422c0 -146 -83 -266 -240 -284c-6 -6 -63 -57 -63 -99c0 -27 19 -40 53 -40
c11 0 21 2 38 5z" />
    <glyph glyph-name="uring" unicode="&#x16f;" horiz-adv-x="650" 
d="M527 539h36v-539h-36v71c-52 -48 -131 -75 -220 -75c-131 0 -232 81 -232 238v305h35v-305c0 -132 88 -203 200 -203c91 0 161 27 217 75v433zM241 721c0 46 39 84 85 84s85 -38 85 -84s-39 -84 -85 -84s-85 38 -85 84zM326 665c31 0 57 26 57 56s-26 56 -57 56
s-57 -26 -57 -56s26 -56 57 -56z" />
    <glyph glyph-name="uogonek" unicode="&#x173;" horiz-adv-x="650" 
d="M589 -135l5 -29c-22 -4 -37 -6 -55 -6c-49 0 -75 25 -75 63c0 48 48 93 65 107h-2v71c-52 -48 -131 -75 -220 -75c-131 0 -232 81 -232 238v305h35v-305c0 -132 88 -203 200 -203c91 0 161 27 217 75v433h36v-539c-1 -1 -65 -56 -65 -100c0 -27 19 -40 53 -40
c11 0 21 2 38 5z" />
    <glyph glyph-name="utilde" unicode="&#x169;" horiz-adv-x="650" 
d="M527 539h36v-539h-36v71c-52 -48 -131 -75 -220 -75c-131 0 -232 81 -232 238v305h35v-305c0 -132 88 -203 200 -203c91 0 161 27 217 75v433zM166 610l-27 4c10 69 47 107 106 107c60 0 112 -48 165 -48c31 0 62 25 71 78l27 -4c-11 -73 -52 -106 -96 -106
c-59 0 -116 48 -165 48c-44 0 -71 -28 -81 -79z" />
    <glyph glyph-name="umacron" unicode="&#x16b;" horiz-adv-x="650" 
d="M527 539h36v-539h-36v71c-52 -48 -131 -75 -220 -75c-131 0 -232 81 -232 238v305h35v-305c0 -132 88 -203 200 -203c91 0 161 27 217 75v433zM163 643v29h316v-29h-316z" />
    <glyph glyph-name="ubreve" unicode="&#x16d;" horiz-adv-x="650" 
d="M527 539h36v-539h-36v71c-52 -48 -131 -75 -220 -75c-131 0 -232 81 -232 238v305h35v-305c0 -132 88 -203 200 -203c91 0 161 27 217 75v433zM322 629c-80 0 -133 40 -141 127c3 0 28 2 31 2c5 -67 47 -96 110 -96c62 0 104 29 110 96l30 -2c-7 -87 -61 -127 -140 -127z
" />
    <glyph glyph-name="uhungarumlaut" unicode="&#x171;" horiz-adv-x="650" 
d="M527 539h36v-539h-36v71c-52 -48 -131 -75 -220 -75c-131 0 -232 81 -232 238v305h35v-305c0 -132 88 -203 200 -203c91 0 161 27 217 75v433zM316 758l40 -12l-95 -137h-35zM460 758l40 -12l-96 -137h-35c1 0 91 149 91 149z" />
    <glyph glyph-name="Wcircumflex" unicode="&#x174;" horiz-adv-x="1117" 
d="M1074 705l-266 -705h-23l-232 639l-232 -639h-22l-267 705h40l238 -636l231 636h24l231 -636l238 636h40zM398 758l142 134h26l143 -134h-42l-114 104l-113 -104h-42z" />
    <glyph glyph-name="wcircumflex" unicode="&#x175;" horiz-adv-x="849" 
d="M793 539h37l-210 -539h-22l-173 477l-173 -477h-22l-212 539h39l185 -476l170 476h25l171 -476zM269 598l142 134h26l143 -134h-42l-114 104l-113 -104h-42z" />
    <glyph glyph-name="Ycircumflex" unicode="&#x176;" horiz-adv-x="648" 
d="M579 705h44l-280 -461v-244h-37v244l-280 461h43l255 -423zM170 758l142 134h26l143 -134h-42l-114 104l-113 -104h-42z" />
    <glyph glyph-name="ycircumflex" unicode="&#x177;" horiz-adv-x="608" 
d="M531 539h39l-229 -568c-49 -123 -180 -155 -292 -155h-5l2 32h11c119 0 219 43 257 152h-30l-250 539h40l231 -499h25zM157 607l142 134h26l143 -134h-42l-114 104l-113 -104h-42z" />
    <glyph glyph-name="Zacute" unicode="&#x179;" horiz-adv-x="649" 
d="M594 705v-18l-488 -652h496v-35h-552v17l487 653h-458v35h515zM525 910l-164 -152h-35l155 156z" />
    <glyph glyph-name="Zdotaccent" unicode="&#x17b;" horiz-adv-x="649" 
d="M594 705v-18l-488 -652h496v-35h-552v17l487 653h-458v35h515zM333 836c17 0 30 -12 30 -29s-13 -29 -30 -29s-30 12 -30 29s13 29 30 29z" />
    <glyph glyph-name="Zcaron" unicode="&#x17d;" horiz-adv-x="649" 
d="M594 705v-18l-488 -652h496v-35h-552v17l487 653h-458v35h515zM317 758l-142 134h42l113 -104l114 104h42l-143 -134h-26z" />
    <glyph glyph-name="zacute" unicode="&#x17a;" horiz-adv-x="590" 
d="M548 519l-440 -486h438v-33h-494v23l438 483h-423v33h481v-20zM464 759l-164 -152h-35l155 156z" />
    <glyph glyph-name="zdotaccent" unicode="&#x17c;" horiz-adv-x="590" 
d="M548 519l-440 -486h438v-33h-494v23l438 483h-423v33h481v-20zM302 685c17 0 30 -12 30 -29s-13 -29 -30 -29s-30 12 -30 29s13 29 30 29z" />
    <glyph glyph-name="zcaron" unicode="&#x17e;" horiz-adv-x="590" 
d="M548 519l-440 -486h438v-33h-494v23l438 483h-423v33h481v-20zM296 607l-142 134h42l113 -104l114 104h42l-143 -134h-26z" />
    <glyph glyph-name="Aringacute" unicode="&#x1fa;" horiz-adv-x="712" 
d="M541 980l-146 -136c27 -14 47 -42 47 -74c0 -39 -28 -73 -65 -82l310 -688h-39l-91 204h-403l-90 -204h-40l311 689c-36 9 -63 42 -63 81c0 46 39 84 85 84c3 0 7 0 10 -1l130 131zM355 660l-187 -424h376zM357 714c31 0 57 26 57 56s-26 56 -57 56s-57 -26 -57 -56
s26 -56 57 -56z" />
    <glyph glyph-name="aringacute" unicode="&#x1fb;" horiz-adv-x="667" 
d="M545 539h35v-539h-35v65c-53 -42 -126 -69 -213 -69c-156 0 -280 125 -280 277c0 151 124 276 280 276c83 0 162 -28 213 -72v62zM545 107v329c-50 49 -124 78 -210 78c-137 0 -248 -108 -248 -241c0 -134 111 -242 248 -242c88 0 161 28 210 76zM523 930l-146 -136
c26 -14 45 -42 45 -73c0 -46 -39 -84 -85 -84s-85 38 -85 84s39 84 85 84c4 0 8 -1 13 -1l129 130zM337 665c31 0 57 26 57 56s-26 56 -57 56s-57 -26 -57 -56s26 -56 57 -56z" />
    <glyph glyph-name="AEacute" unicode="&#x1fc;" horiz-adv-x="983" 
d="M481 35h449v-35h-485v204h-275l-110 -204h-41l380 705h510v-35h-428v-311h366v-34h-366v-290zM419 669l-233 -433h259v433h-26zM634 910l-164 -152h-35l155 156z" />
    <glyph glyph-name="aeacute" unicode="&#x1fd;" horiz-adv-x="1136" 
d="M581 0h-36v65c-53 -42 -125 -69 -212 -69c-155 0 -281 122 -281 277c0 154 126 276 281 276c83 0 162 -28 212 -72v62h36v-143c40 90 129 153 242 153c162 0 260 -117 260 -280v-12h-497c6 -128 102 -227 239 -227c89 0 163 34 209 91l26 -21
c-50 -63 -134 -104 -236 -104c-114 0 -203 62 -243 152v-148zM545 107v329c-50 49 -124 78 -209 78c-137 0 -249 -107 -249 -241c0 -135 112 -242 249 -242c87 0 160 28 209 76zM823 516c-135 0 -231 -100 -237 -227h461c-7 133 -92 227 -224 227zM748 769l-164 -152h-35
l155 156z" />
    <glyph glyph-name="Oslashacute" unicode="&#x1fe;" horiz-adv-x="859" 
d="M598 910l-164 -152h-35l155 156zM110 0l74 85c-78 65 -126 161 -126 267c0 196 166 356 371 356c86 0 164 -28 227 -75l63 72h38l-78 -90c73 -66 120 -159 120 -263c0 -196 -165 -356 -370 -356c-84 0 -161 27 -223 72l-59 -68h-37zM96 352c0 -95 43 -179 112 -238
l424 490c-56 43 -126 68 -203 68c-183 0 -333 -144 -333 -320zM429 33c184 0 332 143 332 319c0 92 -41 176 -108 234l-423 -489c56 -41 124 -64 199 -64z" />
    <glyph glyph-name="oslashacute" unicode="&#x1ff;" horiz-adv-x="686" 
d="M511 769l-164 -152h-35l155 156zM83 0l61 70c-58 50 -94 122 -94 202c0 153 131 277 293 277c65 0 126 -21 175 -56l46 53h36l-62 -69c60 -51 97 -124 97 -205c0 -152 -131 -276 -292 -276c-67 0 -129 22 -178 57l-47 -53h-35zM343 31c141 0 256 108 256 241
c0 70 -32 133 -85 177l-326 -369c43 -31 96 -49 155 -49zM86 272c0 -70 32 -132 82 -175l326 369c-42 30 -95 48 -151 48c-142 0 -257 -108 -257 -242z" />
    <glyph glyph-name="Scommaaccent" unicode="&#x218;" 
d="M332 371c132 -33 245 -72 245 -190c0 -119 -101 -188 -251 -188c-111 0 -156 8 -268 64l15 31c106 -52 149 -60 253 -60c128 0 213 56 213 152c0 95 -99 126 -216 155c-140 34 -260 72 -260 192c0 107 91 182 239 182c80 0 184 -21 245 -54l-17 -32
c-58 32 -156 51 -228 51c-125 0 -201 -61 -201 -146c0 -94 105 -126 231 -157zM331 -71c26 0 31 -24 31 -51c0 -56 -38 -104 -103 -104l-7 18c40 2 79 21 79 80c-15 0 -27 13 -27 28c0 16 14 29 27 29z" />
    <glyph glyph-name="scommaaccent" unicode="&#x219;" horiz-adv-x="536" 
d="M51 45l14 30c59 -23 131 -45 209 -45c131 0 177 58 177 118c0 67 -79 94 -185 116c-119 24 -205 59 -205 143c0 82 85 142 196 142c68 0 134 -14 197 -41l-12 -30c-57 26 -120 37 -185 37c-91 0 -161 -45 -161 -108c0 -61 66 -87 178 -109c125 -24 212 -59 212 -149
c0 -79 -58 -153 -213 -153c-84 0 -160 23 -222 49zM278 -71c26 0 31 -24 31 -51c0 -56 -38 -104 -103 -104l-7 18c40 2 79 21 79 80c-15 0 -27 13 -27 28c0 16 14 29 27 29z" />
    <glyph glyph-name="uni021A" unicode="&#x21a;" horiz-adv-x="660" 
d="M607 705v-35h-257v-670h-37v670h-256v35h550zM329 -71c26 0 31 -24 31 -51c0 -56 -38 -104 -103 -104l-7 18c40 2 79 21 79 80c-15 0 -27 13 -27 28c0 16 14 29 27 29z" />
    <glyph glyph-name="uni021B" unicode="&#x21b;" horiz-adv-x="389" 
d="M369 506h-210v-334c0 -102 49 -141 119 -141c44 0 71 5 89 10v-33c-19 -5 -51 -12 -96 -12c-82 0 -149 53 -149 156v354h-99v33h99v215h37v-215h210v-33zM239 -72c26 0 31 -24 31 -51c0 -56 -38 -104 -103 -104l-7 18c40 2 79 21 79 80c-15 0 -27 13 -27 28
c0 16 14 29 27 29z" />
    <glyph glyph-name="dotlessj" unicode="&#x237;" horiz-adv-x="211" 
d="M87 -21v560h37v-568c0 -103 -67 -156 -149 -156c-16 0 -31 2 -44 3v33c11 -1 23 -1 37 -1c68 0 119 42 119 129z" />
    <glyph glyph-name="Wgrave" unicode="&#x1e80;" horiz-adv-x="1117" 
d="M1074 705l-266 -705h-23l-232 639l-232 -639h-22l-267 705h40l238 -636l231 636h24l231 -636l238 636h40zM537 758l-165 152l45 4l155 -156h-35z" />
    <glyph glyph-name="Wdieresis" unicode="&#x1e84;" horiz-adv-x="1117" 
d="M1074 705l-266 -705h-23l-232 639l-232 -639h-22l-267 705h40l238 -636l231 636h24l231 -636l238 636h40zM477 836c17 0 30 -12 30 -29s-13 -29 -30 -29s-30 12 -30 29s13 29 30 29zM630 836c17 0 30 -12 30 -29s-13 -29 -30 -29s-30 12 -30 29s13 29 30 29z" />
    <glyph glyph-name="Wacute" unicode="&#x1e82;" horiz-adv-x="1117" 
d="M1074 705l-266 -705h-23l-232 639l-232 -639h-22l-267 705h40l238 -636l231 636h24l231 -636l238 636h40zM737 910l-164 -152h-35l155 156z" />
    <glyph glyph-name="wgrave" unicode="&#x1e81;" horiz-adv-x="849" 
d="M793 539h37l-210 -539h-22l-173 477l-173 -477h-22l-212 539h39l185 -476l170 476h25l171 -476zM405 598l-165 152l45 4l155 -156h-35z" />
    <glyph glyph-name="wdieresis" unicode="&#x1e85;" horiz-adv-x="849" 
d="M793 539h37l-210 -539h-22l-173 477l-173 -477h-22l-212 539h39l185 -476l170 476h25l171 -476zM349 676c17 0 30 -12 30 -29s-13 -29 -30 -29s-30 12 -30 29s13 29 30 29zM502 676c17 0 30 -12 30 -29s-13 -29 -30 -29s-30 12 -30 29s13 29 30 29z" />
    <glyph glyph-name="wacute" unicode="&#x1e83;" horiz-adv-x="849" 
d="M793 539h37l-210 -539h-22l-173 477l-173 -477h-22l-212 539h39l185 -476l170 476h25l171 -476zM612 750l-164 -152h-35l155 156z" />
    <glyph glyph-name="Ygrave" unicode="&#x1ef2;" horiz-adv-x="648" 
d="M579 705h44l-280 -461v-244h-37v244l-280 461h43l255 -423zM297 758l-165 152l45 4l155 -156h-35z" />
    <glyph glyph-name="ygrave" unicode="&#x1ef3;" horiz-adv-x="608" 
d="M531 539h39l-229 -568c-49 -123 -180 -155 -292 -155h-5l2 32h11c119 0 219 43 257 152h-30l-250 539h40l231 -499h25zM297 607l-165 152l45 4l155 -156h-35z" />
    </font>
</defs>
</svg>
