<svg xmlns="http://www.w3.org/2000/svg" xmlns:xlink="http://www.w3.org/1999/xlink" width="150" height="24" viewBox="0 0 150 24"><defs><path id="x5o8a" d="M154.84 81.28c0-2.204-1.018-3.306-2.696-3.306-1.678 0-2.755 1.132-2.755 3.306v.123h5.45zm4.128 3.1h-9.582v.06c0 1.7.72 3.252 3.094 3.252 1.894 0 4.564-.152 5.768-.27h.089c.33 0 .572.152.572.49v2.263c0 .49-.123.686-.632.803-2.01.516-4.082.756-6.158.715-3.631 0-7.539-1.905-7.539-7.66v-2.096c0-4.8 2.822-7.837 7.599-7.837 4.934 0 7.401 3.34 7.401 7.837v1.739c.02.44-.222.705-.612.705z"/><path id="x5o8b" d="M170.502 84.111h-1.71c-2.101 0-2.639.715-2.639 2.175v.27c0 1.248.626 1.469 1.889 1.469a5.576 5.576 0 0 0 2.465-.657zm4.181 7.303h-3.36a.6.6 0 0 1-.602-.597v-.49a6.635 6.635 0 0 1-4.174 1.342c-2.616 0-5.137-1.25-5.137-5.123v-.27c0-3.487 2.255-5.04 7.401-5.04h1.624v-1.063c0-1.7-.84-2.057-2.255-2.057-1.92 0-4.051.118-4.984.21h-.163a.496.496 0 0 1-.399-.138.488.488 0 0 1-.143-.395v-2.42a.673.673 0 0 1 .572-.656 24.258 24.258 0 0 1 5.196-.627c4.322 0 7.026 1.729 7.026 6.083v10.644c0 .158-.063.31-.176.422a.604.604 0 0 1-.426.175z"/><path id="x5o8c" d="M200.186 91.414h-3.632a.629.629 0 0 1-.602-.627V80.62c0-1.905-.453-2.474-1.83-2.474-.8.018-1.59.201-2.314.54.059.592.089 1.278.089 1.934v10.168a.629.629 0 0 1-.602.627h-3.632a.654.654 0 0 1-.632-.627V80.62c0-1.905-.36-2.474-1.741-2.474a5.752 5.752 0 0 0-2.285.774v11.868a.624.624 0 0 1-.597.627h-3.636a.659.659 0 0 1-.632-.627v-15.86a.6.6 0 0 1 .602-.597h3.424a.6.6 0 0 1 .602.598v.656a7.903 7.903 0 0 1 4.441-1.494c1.589 0 2.704.45 3.543 1.47 1.742-.98 2.96-1.47 4.895-1.47 3.947 0 5.166 2.625 5.166 6.529v10.168a.654.654 0 0 1-.627.627z"/><path id="x5o8d" d="M213.69 81.716c0-2.092-.544-3.64-2.678-3.64a23.12 23.12 0 0 0-2.47.147v9.307c.817.123 1.643.183 2.47.18 2.134 0 2.678-1.552 2.678-3.668zm-2.678 9.967a28.536 28.536 0 0 1-6.414-.774c-.81-.176-.928-.387-.928-.862v-20.9a.63.63 0 0 1 .632-.597h3.636a.6.6 0 0 1 .602.598v5.157a21.425 21.425 0 0 1 2.467-.21c5.077 0 7.54 2.938 7.54 7.635v2.322c.005 4.83-2.67 7.631-7.535 7.631z"/><path id="x5o8e" d="M229.85 78.087h-.242a8.113 8.113 0 0 0-3.873 1.043v11.657a.629.629 0 0 1-.602.627h-3.631a.654.654 0 0 1-.632-.627v-15.86a.6.6 0 0 1 .602-.597h3.572a.6.6 0 0 1 .597.598v.597a6.474 6.474 0 0 1 4.056-1.435.6.6 0 0 1 .602.598v2.83c0 .275-.158.569-.449.569z"/><path id="x5o8f" d="M241.803 81.28c0-2.204-1.02-3.306-2.699-3.306-1.68 0-2.758 1.132-2.758 3.306v.123h5.477zm4.125 3.1h-9.562v.06c0 1.7.72 3.252 3.094 3.252 1.894 0 4.564-.152 5.768-.27h.089c.33 0 .572.152.572.49v2.263c0 .49-.123.686-.632.803-2.01.516-4.082.756-6.158.715-3.631 0-7.539-1.905-7.539-7.66v-2.096c0-4.8 2.822-7.837 7.599-7.837 4.934 0 7.401 3.34 7.401 7.837v1.739c.02.44-.222.705-.632.705z"/><path id="x5o8g" d="M253.283 91.419h-3.661a.654.654 0 0 1-.632-.627V69.148a.63.63 0 0 1 .632-.598h3.66a.58.58 0 0 1 .415.178.57.57 0 0 1 .158.42v21.644a.604.604 0 0 1-.572.627z"/><path id="x5o8h" d="M261.003 91.419h-3.661a.654.654 0 0 1-.632-.627V69.148a.63.63 0 0 1 .632-.598h3.66a.58.58 0 0 1 .415.178.57.57 0 0 1 .158.42v21.644a.604.604 0 0 1-.572.627z"/><path id="x5o8i" d="M272.929 84.111h-1.712c-2.102 0-2.645.715-2.645 2.175v.27c0 1.248.631 1.469 1.895 1.469a5.603 5.603 0 0 0 2.467-.657zm4.174 7.303h-3.365a.6.6 0 0 1-.602-.597v-.49a6.62 6.62 0 0 1-4.17 1.342c-2.615 0-5.136-1.25-5.136-5.123v-.27c0-3.487 2.25-5.04 7.401-5.04h1.624v-1.063c0-1.7-.844-2.057-2.255-2.057-1.925 0-4.056.118-4.984.21h-.153a.496.496 0 0 1-.397-.142.488.488 0 0 1-.14-.396v-2.415c0-.327.24-.605.567-.656a24.347 24.347 0 0 1 5.196-.627c4.327 0 7.03 1.729 7.03 6.083v10.644a.595.595 0 0 1-.18.427.604.604 0 0 1-.436.17z"/><path id="x5o8j" d="M138.293 73.672c-.163.508-.373 1-.626 1.47a8.444 8.444 0 0 1-1.97 2.404 10.169 10.169 0 0 1-2.871 1.675c.04-.117.078-.235.123-.347a8.81 8.81 0 0 1 1.881-2.94 9.106 9.106 0 0 1 3.458-2.247zM134.908 68a.866.866 0 0 0-.883.843c-.015.675-.074 1.35-.178 2.018-.08.679-.27 1.34-.562 1.959a3.434 3.434 0 0 1-.805.98 5.34 5.34 0 0 1-1.52.847 7.746 7.746 0 0 1-2.136.465.865.865 0 0 0-.824.852v3.233c0 .236.096.462.266.627a.882.882 0 0 0 .642.235 12.415 12.415 0 0 0 3.819-.794l.118-.044a10.069 10.069 0 0 0-.454 3.786 8.813 8.813 0 0 0 1.338 4.409 8.369 8.369 0 0 0 3.192 2.796 10.541 10.541 0 0 0 4.589 1.18.912.912 0 0 0 .622-.234.874.874 0 0 0 .266-.627l.079-3.189a.834.834 0 0 0-.237-.612.871.871 0 0 0-.607-.27 5.598 5.598 0 0 1-2.413-.621 3.63 3.63 0 0 1-1.352-1.127 4.218 4.218 0 0 1-.542-1.989c-.06-.714.03-1.432.261-2.11.19-.484.476-.925.839-1.299a4.24 4.24 0 0 1 1.53-1.028 4.137 4.137 0 0 1 1.52-.26.857.857 0 0 0 .892-.832l.08-3.184a.888.888 0 0 0-.237-.622.911.911 0 0 0-.607-.27h-.44a9.098 9.098 0 0 0-2.847.534c.212-.67.369-1.356.47-2.052.137-.884.216-1.775.236-2.67a.86.86 0 0 0-.849-.861z"/></defs><g><g transform="translate(-128 -68)"><use fill="#fff" xlink:href="#x5o8a"/></g><g transform="translate(-128 -68)"><use fill="#fff" xlink:href="#x5o8b"/></g><g transform="translate(-128 -68)"><use fill="#fff" xlink:href="#x5o8c"/></g><g transform="translate(-128 -68)"><use fill="#fff" xlink:href="#x5o8d"/></g><g transform="translate(-128 -68)"><use fill="#fff" xlink:href="#x5o8e"/></g><g transform="translate(-128 -68)"><use fill="#fff" xlink:href="#x5o8f"/></g><g transform="translate(-128 -68)"><use fill="#fff" xlink:href="#x5o8g"/></g><g transform="translate(-128 -68)"><use fill="#fff" xlink:href="#x5o8h"/></g><g transform="translate(-128 -68)"><use fill="#fff" xlink:href="#x5o8i"/></g><g transform="translate(-128 -68)"><use fill="#fff" xlink:href="#x5o8j"/></g></g></svg>