<svg xmlns="http://www.w3.org/2000/svg" xmlns:xlink="http://www.w3.org/1999/xlink" width="11" height="16" viewBox="0 0 11 16"><defs><path id="lcrka" d="M1205.278 11982.054l-.018-2.941c.79.005 3.268-.243 3.279 1.492.01 1.664-2.471 1.454-3.26 1.449zm.029 4.727l-.02-3.243c.948.006 3.918-.261 3.93 1.647.012 1.829-2.963 1.601-3.91 1.596zm5.835-6.817c-.17-1.745-1.604-2.34-3.41-2.518l-.015-2.42-1.398-.01.014 2.357c-.367-.002-.743.003-1.116.008l-.015-2.372-1.397-.009.014 2.42c-.303.004-.6.008-.89.006v-.007l-1.929-.014.01 1.573s1.033-.014 1.015.006c.567.004.753.352.809.651l.017 2.757c.039 0 .09.002.148.011h-.148l.023 3.862c-.024.187-.126.486-.522.484.018.017-1.017-.007-1.017-.007l-.267 1.757 1.82.012c.339.003.672.011.999.015l.016 2.448 1.397.01-.015-2.422c.383.01.755.016 1.117.018l.014 2.41 1.398.01-.014-2.443c2.35-.127 3.992-.74 4.182-3.064.154-1.871-.688-2.712-2.024-3.059.808-.43 1.31-1.192 1.184-2.47z"/></defs><g><g transform="translate(-1201 -11975)"><use fill="#bdc3ff" xlink:href="#lcrka"/></g></g></svg>