<svg xmlns="http://www.w3.org/2000/svg" xmlns:xlink="http://www.w3.org/1999/xlink" width="34" height="33" viewBox="0 0 34 33"><defs><path id="iy09a" d="M274 1303.635c0-5.321 4.09-9.635 9.135-9.635s9.135 4.314 9.135 9.635c0 2.774-1.111 5.274-2.89 7.032V1320h-10.5a2 2 0 0 1-2-2v-7.343c-1.773-1.757-2.88-4.253-2.88-7.022z"/><path id="iy09b" d="M274 1303.635c0-5.321 4.09-9.635 9.135-9.635s9.135 4.314 9.135 9.635c0 2.774-1.111 5.274-2.89 7.032V1320h-10.5a2 2 0 0 1-2-2v-7.343c-1.773-1.757-2.88-4.253-2.88-7.022z"/><path id="iy09d" d="M280 1316v-2h6.7v2z"/><path id="iy09e" d="M279 1312v-2h9.1v2z"/><path id="iy09f" d="M282.005 1287.995a.995.995 0 1 1 1.99 0v3.01a.995.995 0 1 1-1.99 0zm10.523 3.103a.995.995 0 0 1 1.524 1.28l-1.934 2.304a.995.995 0 0 1-1.525-1.28zm6.065 9.14a.995.995 0 0 1 .346 1.96l-2.964.523a.995.995 0 0 1-.345-1.96zm-1.239 10.902a.995.995 0 1 1-.995 1.724l-2.606-1.504a.995.995 0 1 1 .995-1.724zm-27.723 1.724a.995.995 0 0 1-.996-1.724l2.607-1.504a.995.995 0 0 1 .995 1.724zm-2.57-10.665a.995.995 0 1 1 .346-1.96l2.963.522a.995.995 0 1 1-.345 1.96zm4.887-9.822a.995.995 0 0 1 1.524-1.28l1.935 2.306a.995.995 0 0 1-1.525 1.28z"/><clipPath id="iy09c"><use fill="#fff" xlink:href="#iy09a"/></clipPath></defs><g><g transform="translate(-266 -1287)"><use fill="#fff" fill-opacity="0" stroke="#f0f2ff" stroke-miterlimit="50" stroke-width="4" clip-path="url(&quot;#iy09c&quot;)" xlink:href="#iy09b"/></g><g transform="translate(-266 -1287)"><use fill="#f0f2ff" xlink:href="#iy09d"/></g><g transform="translate(-266 -1287)"><use fill="#f0f2ff" xlink:href="#iy09e"/></g><g transform="translate(-266 -1287)"><use fill="#f0f2ff" xlink:href="#iy09f"/></g></g></svg>