<svg xmlns="http://www.w3.org/2000/svg" xmlns:xlink="http://www.w3.org/1999/xlink" width="1155" height="419" viewBox="0 0 1155 419"><defs><path id="rvl2a" d="M1284.904 9585.94c2.005-3.327 4.5-7.847 5.77-11.945.711-2.352 2.574-10.19.646-19.144-.71-3.423-2.34-10.122-7.737-17.284-3.648-4.841-11.878-11.848-18.445-14.166-7.38-2.487-19.849-2.454-27.292.091-1.394.467-4.292 1.601-7.252 3.071-.507.79-3.581 1.72-2.537 5.334.308.458.492 1.002.514 1.584 4.9 6.503 6.53 11.358 11.905 10.469 5.01-2.733 11.017-3.705 16.376-2.251 4.322 1.2 5.51 2.776 7.102 4.055 1.325 1.148 2.357 1.694 4.103 4.012 4.84 6.421 4.666 14.642 2.547 19.872-.998 2.561-2.938 5.093-5.108 7.292-.16.486-.364 1.126-.61 1.565-.352 3.786 1.228 5.777 3.774 9.048 6.012 7.727 6.95 7.499 9.23 6.056 4.554-3.84 6.184-6.28 7.014-7.659z"/><path id="rvl2b" d="M878.166 9468.097c.853-.088 1.982-.249 2.881-.577.513-.192 2.16-.923 3.525-2.503a10.047 10.047 0 0 0 2.125-3.785c.408-1.332.622-3.801.205-5.323-.49-1.694-2.08-3.977-3.483-4.994-.261-.192-.834-.568-1.474-.91-.206.016-.764-.421-1.282.265a.72.72 0 0 1-.219.311c-.547 1.79-1.213 2.753-.37 3.617 1.127.545 2.065 1.514 2.485 2.696.333.957.2 1.39.173 1.858-.039.4-.006.664-.2 1.302-.54 1.767-2.041 2.86-3.251 3.188-.587.167-1.29.158-1.96.061-.108.038-.249.088-.36.103-.725.453-.882 1.016-1.147 1.93-.626 2.161-.466 2.302.083 2.523 1.27.31 1.915.275 2.269.238z"/><path id="rvl2c" d="M1111.888 9424.63c-1.338-.288-3.132-.6-4.658-.546-.873.038-3.732.336-6.583 2.06a16.032 16.032 0 0 0-5.093 4.697c-1.275 1.821-2.818 5.462-2.935 7.978-.091 2.812 1.196 7.061 2.824 9.296.301.42.984 1.273 1.788 2.108.32.078.952 1.016 2.075.23.124-.16.291-.287.487-.364 1.712-2.446 3.199-3.58 2.346-5.307-1.443-1.383-2.389-3.316-2.443-5.317-.033-1.617.382-2.21.654-2.904.256-.59.336-1.006.946-1.878 1.691-2.415 4.507-3.335 6.505-3.235.974.035 2.035.395 3.005.874.182-.004.42-.01.595.021 1.325-.33 1.842-1.107 2.695-2.364 2.015-2.971 1.841-3.264 1.117-3.87-1.773-1.095-2.77-1.36-3.325-1.48z"/><path id="rvl2d" d="M1028.952 9298.583c-.485.872-1.086 2.057-1.373 3.132-.16.617-.561 2.674.033 5.03.22.9.714 2.663 2.19 4.553.998 1.277 3.208 3.13 4.937 3.747 1.942.664 5.18.672 7.085.013.357-.12 1.097-.415 1.85-.797.124-.207.912-.447.604-1.399a.837.837 0 0 1-.15-.416c-1.34-1.716-1.815-2.994-3.201-2.768-1.272.712-2.822.959-4.228.57-1.135-.321-1.46-.737-1.886-1.075-.357-.304-.63-.449-1.108-1.06-1.324-1.694-1.365-3.854-.87-5.226.233-.672.71-1.335 1.25-1.91.037-.127.083-.295.143-.41.052-.994-.38-1.52-1.075-2.383-1.642-2.039-1.883-1.98-2.46-1.604-1.142 1.003-1.54 1.642-1.74 2.003z"/><path id="rvl2e" d="M690.326 9455.372c-2.49.34-5.782.923-8.38 1.968-1.482.61-6.227 2.907-10.06 7.651-1.476 1.8-4.27 5.447-5.827 11.258-1.052 3.927-1.42 11.153-.038 15.553 1.615 4.896 6.513 11.401 10.73 14.23.785.534 2.501 1.576 4.413 2.51.603-.065 2.283 1.154 3.726-.9.114-.352.32-.675.61-.93 1.413-5.274 3.264-8.152.703-10.591-3.36-1.479-6.21-4.214-7.563-7.622-1.077-2.76-.735-4.04-.702-5.405.07-1.172-.055-1.94.449-3.82 1.395-5.209 5.675-8.548 9.184-9.623 1.703-.547 3.76-.59 5.735-.372.312-.12.72-.28 1.04-.335 2.079-1.395 2.48-3.053 3.16-5.748 1.605-6.368 1.12-6.763-.51-7.352-3.75-.779-5.639-.613-6.67-.472z"/><path id="rvl2f" d="M145.187 9571.82c2.287 1.916 5.43 4.344 8.432 5.791 1.727.816 7.559 3.15 14.85 2.727 2.783-.142 8.267-.602 14.7-3.88 4.346-2.214 11.096-7.668 13.927-12.402 3.088-5.333 5-14.84 4.168-20.81-.148-1.116-.584-3.457-1.272-5.884-.538-.479-.787-2.93-3.77-2.556a2.534 2.534 0 0 1-1.318.207c-5.839 2.975-9.884 3.65-10.024 7.85 1.356 4.136 1.181 8.828-.786 12.743-1.609 3.153-3.024 3.874-4.27 4.938-1.103.876-1.69 1.599-3.77 2.66-5.767 2.937-12.16 1.846-15.914-.38-1.845-1.06-3.521-2.833-4.901-4.743-.355-.179-.823-.409-1.127-.648-2.902-.71-4.703.262-7.653 1.82-6.968 3.68-6.935 4.421-6.163 6.327 2.292 3.919 3.944 5.446 4.891 6.24z"/><path id="rvl2g" d="M473.467 9431.186c3.06 1.06 7.184 2.31 10.784 2.62 2.063.161 8.867.28 16.065-2.951 2.755-1.213 8.113-3.788 13.326-9.577 3.523-3.912 8.204-12.026 9.208-17.903 1.03-6.584-.762-16.939-3.94-22.659-.586-1.073-1.943-3.274-3.589-5.466-.73-.277-1.942-2.662-4.81-1.137-.338.34-.766.592-1.248.716-4.732 5.256-8.553 7.493-7.05 11.798 2.99 3.664 4.65 8.478 4.197 13.196-.39 3.809-1.537 5.083-2.378 6.638-.771 1.31-1.08 2.267-2.767 4.14-4.673 5.19-11.556 6.543-16.22 5.735-2.279-.363-4.666-1.513-6.807-2.916-.429-.044-.991-.097-1.392-.221-3.21.396-4.647 2.072-7.016 4.783-5.596 6.402-5.273 7.14-3.746 8.77 3.849 3.085 6.115 3.995 7.383 4.434z"/><path id="rvl2h" d="M388.458 9608.327c.626-.74 1.42-1.754 1.894-2.722.268-.557 1.037-2.436.914-4.779-.04-.894-.18-2.656-1.23-4.718-.71-1.393-2.465-3.552-3.994-4.452-1.724-.983-4.803-1.579-6.74-1.3a15.34 15.34 0 0 0-1.912.42c-.156.175-.951.26-.836 1.218.058.13.082.275.065.423.953 1.87 1.164 3.17 2.526 3.207 1.344-.444 2.865-.397 4.13.228 1.02.51 1.251.964 1.594 1.363.282.352.515.54.855 1.206.941 1.848.575 3.905-.154 5.117-.347.595-.926 1.137-1.548 1.584-.058.115-.134.266-.212.364-.236.934.076 1.511.575 2.456 1.18 2.233 1.42 2.221 2.04 1.97 1.275-.745 1.773-1.28 2.033-1.585z"/><path id="rvl2i" d="M809.622 9421.576c2.58-3.062 5.852-7.268 7.806-11.285 1.102-2.308 4.258-10.107 3.72-19.843-.178-3.715-.773-11.038-5.142-19.614-2.953-5.796-10.242-14.788-16.58-18.547-7.143-4.102-19.889-6.615-27.9-5.48-1.5.202-4.642.794-7.901 1.724-.645.72-3.935 1.063-3.446 5.047a3.36 3.36 0 0 1 .272 1.757c3.967 7.786 4.855 13.185 10.49 13.355 5.555-1.828 11.85-1.615 17.093.996 4.224 2.135 5.185 4.022 6.607 5.681 1.17 1.47 2.138 2.25 3.552 5.024 3.917 7.689 2.426 16.23-.576 21.255-1.43 2.468-3.816 4.714-6.385 6.565-.24.474-.551 1.1-.873 1.508-.966 3.878.331 6.279 2.409 10.211 4.908 9.29 5.903 9.244 8.462 8.205 5.267-3.077 7.323-5.29 8.392-6.559z"/><path id="rvl2j" d="M969.346 9452.676c.567-1.951 1.218-4.574 1.299-6.836.036-1.296-.102-5.557-2.349-9.949-.844-1.682-2.622-4.946-6.404-8.01-2.557-2.07-7.776-4.72-11.482-5.148-4.148-.42-10.564 1.056-14.04 3.239-.653.403-1.986 1.328-3.305 2.432-.15.467-1.603 1.306-.56 3.047.224.2.394.46.487.757 3.434 2.78 4.953 5.094 7.596 4.007 2.197-1.995 5.155-3.199 8.118-3.076 2.393.113 3.226.787 4.224 1.26.844.438 1.452.6 2.675 1.59 3.391 2.746 4.453 7.006 4.094 9.951-.155 1.438-.8 2.97-1.609 4.358-.014.27-.03.623-.095.878.349 1.994 1.442 2.836 3.21 4.226 4.179 3.282 4.63 3.054 5.601 2.044 1.808-2.513 2.306-3.962 2.54-4.77z"/><path id="rvl2k" d="M138.077 9441.4c.301 3.412.881 7.934 2.145 11.547.74 2.064 3.582 8.694 9.848 14.27 2.375 2.145 7.205 6.225 15.09 8.787 5.33 1.732 15.242 2.785 21.384 1.241 6.84-1.822 16.113-7.986 20.284-13.507.787-1.026 2.334-3.28 3.746-5.81-.049-.825 1.74-3.017-.987-5.137a2.911 2.911 0 0 1-1.238-.9c-7.159-2.327-10.992-5.063-14.517-1.768-2.258 4.459-6.21 8.126-10.986 9.706-3.868 1.254-5.603.69-7.479.541-1.607-.184-2.67-.074-5.222-.902-7.07-2.298-11.376-8.374-12.619-13.23-.638-2.358-.559-5.159-.128-7.83-.144-.432-.337-1-.39-1.44-1.78-2.933-4.032-3.606-7.693-4.736-8.649-2.671-9.225-2.043-10.144.131-1.321 5.042-1.22 7.622-1.094 9.036z"/><path id="rvl2l" d="M722.088 9238.431c-.564.454-1.29 1.086-1.776 1.73-.276.37-1.106 1.642-1.348 3.383a8.431 8.431 0 0 0 .232 3.647c.323 1.126 1.305 2.967 2.3 3.849 1.124.97 3.298 1.851 4.759 1.924.273.016.85.018 1.461-.034.14-.106.735-.054.787-.776a.604.604 0 0 1 .012-.32c-.434-1.513-.404-2.499-1.398-2.722-1.049.134-2.158-.12-2.998-.76-.675-.523-.78-.89-.975-1.232-.157-.3-.301-.471-.456-1.01-.429-1.495.132-2.955.839-3.742.339-.388.84-.703 1.36-.943.06-.076.136-.176.207-.237.306-.653.159-1.122-.073-1.889-.549-1.812-.727-1.838-1.217-1.741-1.041.364-1.483.685-1.716.873z"/><path id="rvl2m" d="M940.22 9576.759c-4.59-3.01-10.85-6.772-16.628-8.775-3.317-1.122-14.427-4.142-27.533-1.824-5.007.848-14.832 2.85-25.713 10.19-7.354 4.96-18.301 16.336-22.318 25.567-4.344 10.38-5.579 28.121-2.673 38.83.528 2.005 1.867 6.182 3.681 10.462 1.088.758 2.112 5.176 7.43 3.862a4.563 4.563 0 0 1 2.336-.657c9.878-6.663 17.046-8.75 16.316-16.44-3.425-7.255-4.208-15.847-1.563-23.403 2.175-6.091 4.57-7.706 6.577-9.91 1.792-1.831 2.685-3.274 6.205-5.648 9.755-6.58 21.588-5.945 28.91-2.682 3.591 1.54 7.042 4.42 9.988 7.611.685.25 1.586.57 2.194.942 5.422.68 8.455-1.474 13.432-4.94 11.758-8.188 11.526-9.533 9.68-12.843-5.068-6.661-8.418-9.096-10.32-10.342z"/><path id="rvl2n" d="M826.822 9503.93c.835-.737 1.907-1.759 2.609-2.777.397-.586 1.584-2.585 1.832-5.243.102-1.013.236-3.02-.619-5.501-.577-1.678-2.219-4.378-3.812-5.626-1.8-1.37-5.208-2.51-7.461-2.492-.421 0-1.31.047-2.246.181-.207.172-1.127.146-1.154 1.244a.902.902 0 0 1 .003.486c.776 2.253.801 3.748 2.346 3.998 1.604-.295 3.33-.01 4.667.887 1.077.731 1.265 1.277 1.589 1.778.262.44.497.687.773 1.49.767 2.225.009 4.486-1.023 5.74-.494.617-1.242 1.14-2.025 1.548-.086.12-.197.279-.302.377-.424 1.017-.164 1.714.248 2.855.974 2.695 1.25 2.718 1.997 2.529 1.576-.644 2.232-1.169 2.578-1.474z"/></defs><g><g opacity=".06" transform="translate(-138 -9241)"><use fill="#4ec4f2" xlink:href="#rvl2a"/></g><g opacity=".06" transform="translate(-138 -9241)"><use fill="#f5f8fd" xlink:href="#rvl2b"/></g><g opacity=".06" transform="translate(-138 -9241)"><use fill="#ed4e73" xlink:href="#rvl2c"/></g><g opacity=".06" transform="translate(-138 -9241)"><use fill="#ed4e73" xlink:href="#rvl2d"/></g><g opacity=".04" transform="translate(-138 -9241)"><use fill="#4ec4f2" xlink:href="#rvl2e"/></g><g opacity=".06" transform="translate(-138 -9241)"><use fill="#ffd152" xlink:href="#rvl2f"/></g><g opacity=".06" transform="translate(-138 -9241)"><use fill="#4ec4f2" xlink:href="#rvl2g"/></g><g opacity=".06" transform="translate(-138 -9241)"><use fill="#ed4e73" xlink:href="#rvl2h"/></g><g opacity=".06" transform="translate(-138 -9241)"><use fill="#bdc3ff" xlink:href="#rvl2i"/></g><g opacity=".06" transform="translate(-138 -9241)"><use fill="#7882e4" xlink:href="#rvl2j"/></g><g opacity=".03" transform="translate(-138 -9241)"><use fill="#bdc3ff" xlink:href="#rvl2k"/></g><g opacity=".06" transform="translate(-138 -9241)"><use fill="#ed4e73" xlink:href="#rvl2l"/></g><g opacity=".06" transform="translate(-138 -9241)"><use fill="#4ec4f2" xlink:href="#rvl2m"/></g><g opacity=".06" transform="translate(-138 -9241)"><use fill="#4ec4f2" xlink:href="#rvl2n"/></g></g></svg>