<svg xmlns="http://www.w3.org/2000/svg" xmlns:xlink="http://www.w3.org/1999/xlink" width="835" height="477" viewBox="0 0 835 477"><defs><path id="5xwoa" d="M1132.906 669.472c2.004-3.327 4.497-7.846 5.768-11.943.71-2.352 2.57-10.19.642-19.142-.71-3.422-2.342-10.12-7.74-17.283-3.647-4.841-11.877-11.849-18.442-14.167-7.378-2.488-19.845-2.458-27.286.087-1.393.465-4.29 1.6-7.25 3.069-.506.79-3.58 1.72-2.536 5.333.309.458.492 1.002.515 1.584 4.9 6.502 6.53 11.358 11.904 10.469 5.007-2.732 11.014-3.702 16.372-2.248 4.321 1.2 5.509 2.777 7.1 4.056 1.326 1.148 2.358 1.694 4.104 4.012 4.84 6.421 4.667 14.64 2.55 19.87-.998 2.56-2.937 5.092-5.106 7.29-.16.486-.364 1.126-.61 1.564-.352 3.786 1.23 5.777 3.774 9.048 6.013 7.727 6.95 7.5 9.23 6.057 4.552-3.839 6.181-6.278 7.011-7.656z"/><path id="5xwob" d="M934.166 647.656c.853-.088 1.982-.25 2.88-.578.514-.191 2.16-.923 3.525-2.502a10.05 10.05 0 0 0 2.125-3.786c.407-1.332.622-3.801.205-5.323-.49-1.694-2.08-3.977-3.482-4.993-.26-.192-.833-.568-1.473-.91-.206.015-.764-.421-1.281.265a.72.72 0 0 1-.22.311c-.546 1.79-1.213 2.753-.37 3.617 1.127.545 2.065 1.514 2.484 2.696.333.957.2 1.39.172 1.857-.038.4-.005.665-.2 1.302-.54 1.767-2.04 2.861-3.25 3.188-.587.168-1.288.159-1.959.062-.108.037-.249.087-.359.102-.725.454-.883 1.017-1.148 1.931-.625 2.161-.465 2.302.083 2.523 1.27.31 1.915.274 2.268.238z"/><path id="5xwoc" d="M1087.887 452.197c-1.338-.288-3.131-.6-4.656-.545-.873.038-3.732.337-6.583 2.06a16.037 16.037 0 0 0-5.092 4.698c-1.274 1.82-2.818 5.462-2.936 7.977-.091 2.813 1.195 7.06 2.822 9.295.302.42.984 1.273 1.787 2.107.321.079.952 1.016 2.075.23.125-.16.291-.287.487-.364 1.712-2.446 3.198-3.58 2.346-5.307-1.443-1.382-2.388-3.315-2.44-5.316-.034-1.616.38-2.209.653-2.904.256-.589.336-1.006.946-1.877 1.691-2.415 4.507-3.336 6.504-3.236.974.035 2.034.395 3.004.873.182-.004.421-.01.596.021 1.324-.33 1.84-1.107 2.694-2.364 2.015-2.971 1.841-3.264 1.117-3.869-1.773-1.095-2.77-1.36-3.324-1.48z"/><path id="5xwod" d="M1020.952 542.192c-.486.871-1.086 2.056-1.372 3.13-.16.618-.561 2.675.033 5.03.22.9.714 2.663 2.19 4.553.998 1.277 3.208 3.13 4.937 3.748 1.942.663 5.178.672 7.083.014.357-.121 1.098-.415 1.85-.797.124-.207.912-.447.603-1.398a.837.837 0 0 1-.15-.417c-1.34-1.716-1.814-2.994-3.2-2.768-1.272.712-2.821.958-4.228.57-1.134-.322-1.459-.738-1.885-1.076-.357-.304-.63-.449-1.108-1.06-1.323-1.694-1.365-3.854-.87-5.225.232-.672.71-1.335 1.25-1.91.036-.127.082-.295.141-.41.052-.994-.38-1.52-1.074-2.383-1.642-2.038-1.883-1.98-2.46-1.604-1.142 1.003-1.54 1.642-1.74 2.003z"/><path id="5xwoe" d="M682.324 634.927c-2.489.34-5.78.923-8.376 1.969-1.483.61-6.227 2.908-10.059 7.652-1.475 1.799-4.268 5.447-5.825 11.257-1.052 3.928-1.421 11.154-.04 15.553 1.614 4.896 6.51 11.4 10.726 14.229.784.534 2.5 1.575 4.41 2.51.604-.066 2.283 1.153 3.726-.9.113-.353.32-.676.61-.93 1.413-5.275 3.263-8.153.704-10.592-3.36-1.478-6.208-4.213-7.561-7.621-1.076-2.76-.734-4.039-.701-5.405.07-1.172-.055-1.94.449-3.819 1.396-5.21 5.674-8.55 9.182-9.624 1.703-.547 3.759-.59 5.734-.373.311-.12.719-.28 1.04-.334 2.077-1.396 2.479-3.053 3.158-5.749 1.606-6.368 1.122-6.763-.51-7.352-3.748-.778-5.635-.612-6.667-.47z"/><path id="5xwof" d="M361.188 863.345c2.287 1.916 5.428 4.343 8.43 5.79 1.727.815 7.558 3.148 14.849 2.723 2.782-.141 8.267-.603 14.699-3.88 4.347-2.215 11.097-7.668 13.928-12.4 3.089-5.333 5.002-14.838 4.17-20.805-.147-1.116-.582-3.457-1.27-5.883-.538-.478-.786-2.93-3.77-2.555a2.534 2.534 0 0 1-1.317.207c-5.84 2.975-9.884 3.65-10.025 7.85 1.355 4.135 1.18 8.825-.788 12.739-1.609 3.153-3.024 3.874-4.27 4.938-1.103.876-1.69 1.598-3.77 2.658-5.767 2.939-12.159 1.848-15.913-.376-1.845-1.06-3.52-2.832-4.9-4.742-.355-.178-.823-.408-1.127-.647-2.902-.71-4.702.262-7.652 1.82-6.968 3.68-6.936 4.422-6.164 6.326 2.291 3.918 3.943 5.444 4.89 6.237z"/><path id="5xwog" d="M404.273 715.478c5.456 1.889 12.809 4.115 19.226 4.666 3.678.288 15.809.5 28.642-5.265 4.912-2.163 14.467-6.755 23.762-17.078 6.281-6.977 14.63-21.444 16.423-31.924 1.838-11.74-1.354-30.2-7.018-40.397-1.045-1.913-3.464-5.837-6.397-9.744-1.303-.494-3.462-4.746-8.575-2.026a4.854 4.854 0 0 1-2.226 1.277c-8.438 9.371-15.25 13.362-12.572 21.036 5.328 6.532 8.288 15.115 7.478 23.526-.696 6.792-2.741 9.064-4.242 11.837-1.375 2.337-1.927 4.043-4.933 7.382-8.334 9.255-20.606 11.67-28.92 10.23-4.063-.646-8.32-2.697-12.137-5.197-.763-.078-1.766-.172-2.481-.394-5.721.708-8.285 3.696-12.51 8.53-9.979 11.417-9.403 12.732-6.682 15.64 6.862 5.497 10.902 7.12 13.162 7.901z"/><path id="5xwoh" d="M388.458 851.835c.626-.74 1.42-1.754 1.894-2.722.268-.556 1.036-2.435.912-4.778-.04-.894-.18-2.656-1.23-4.718-.71-1.393-2.464-3.552-3.994-4.453-1.723-.982-4.801-1.579-6.738-1.3a15.33 15.33 0 0 0-1.91.42c-.157.174-.952.259-.836 1.217.058.13.082.276.064.423.954 1.871 1.165 3.17 2.526 3.207 1.344-.443 2.865-.396 4.13.229 1.02.51 1.25.964 1.593 1.363.282.353.515.54.855 1.207.941 1.847.575 3.904-.153 5.116-.347.595-.926 1.137-1.548 1.584-.058.114-.134.265-.212.363-.236.935.076 1.511.576 2.457 1.18 2.232 1.42 2.22 2.039 1.969 1.275-.744 1.773-1.278 2.032-1.584z"/><path id="5xwoi" d="M809.624 609.168c2.58-3.062 5.85-7.268 7.802-11.283 1.102-2.309 4.256-10.106 3.717-19.841-.178-3.716-.774-11.038-5.144-19.614-2.953-5.796-10.241-14.788-16.578-18.548-7.141-4.103-19.884-6.618-27.893-5.483-1.499.202-4.64.793-7.898 1.722-.645.72-3.934 1.062-3.445 5.046.242.54.343 1.146.273 1.758 3.967 7.785 4.855 13.184 10.489 13.354 5.553-1.827 11.845-1.613 17.088.999 4.223 2.135 5.184 4.022 6.606 5.682 1.17 1.47 2.138 2.25 3.551 5.024 3.918 7.689 2.428 16.23-.572 21.253-1.429 2.468-3.815 4.713-6.382 6.563-.24.475-.552 1.1-.873 1.508-.965 3.878.332 6.279 2.41 10.212 4.907 9.29 5.902 9.244 8.46 8.204 5.266-3.075 7.32-5.287 8.389-6.556z"/><path id="5xwoj" d="M969.347 456.25c.566-1.95 1.217-4.571 1.297-6.833.036-1.296-.103-5.556-2.35-9.947-.844-1.682-2.622-4.946-6.405-8.009-2.556-2.07-7.775-4.722-11.48-5.15-4.148-.42-10.563 1.054-14.039 3.236-.652.403-1.985 1.327-3.303 2.43-.15.468-1.603 1.306-.56 3.048.224.2.395.46.488.756 3.433 2.781 4.952 5.095 7.595 4.008 2.196-1.995 5.153-3.197 8.116-3.074 2.393.114 3.226.788 4.224 1.261.844.438 1.452.598 2.675 1.59 3.391 2.745 4.454 7.004 4.095 9.949-.155 1.437-.799 2.97-1.608 4.357-.014.27-.03.623-.094.878.348 1.994 1.441 2.836 3.21 4.225 4.178 3.282 4.629 3.055 5.6 2.045 1.807-2.513 2.305-3.961 2.539-4.77z"/><path id="5xwok" d="M306.855 416.79c.517 5.85 1.513 13.603 3.681 19.796 1.269 3.539 6.143 14.905 16.89 24.466 4.073 3.677 12.355 10.67 25.877 15.065 9.14 2.97 26.137 4.777 36.67 2.131 11.728-3.122 27.627-13.688 34.78-23.151 1.349-1.76 4.001-5.624 6.422-9.959-.084-1.415 2.984-5.172-1.694-8.807a4.994 4.994 0 0 1-2.122-1.545c-12.277-3.988-18.85-8.68-24.895-3.031-3.87 7.643-10.646 13.928-18.837 16.636-6.631 2.148-9.607 1.181-12.824.927-2.756-.316-4.58-.127-8.954-1.549-12.124-3.939-19.51-14.356-21.641-22.68-1.096-4.043-.96-8.845-.222-13.423-.247-.742-.578-1.714-.67-2.47-3.052-5.029-6.914-6.182-13.192-8.121-14.831-4.58-15.818-3.503-17.395.224-2.264 8.642-2.09 13.066-1.874 15.49z"/><path id="5xwol" d="M746.087 410.06c-.564.453-1.29 1.086-1.775 1.73-.275.37-1.105 1.642-1.347 3.383a8.433 8.433 0 0 0 .233 3.646c.323 1.127 1.304 2.967 2.298 3.85 1.125.97 3.298 1.85 4.759 1.924.272.016.85.018 1.46-.034.14-.106.735-.054.786-.775a.604.604 0 0 1 .013-.32c-.434-1.514-.405-2.5-1.398-2.723-1.049.134-2.157-.12-2.997-.761-.675-.522-.78-.89-.975-1.232-.157-.3-.301-.47-.456-1.01-.429-1.494.132-2.955.838-3.74.34-.389.84-.704 1.36-.944.059-.076.136-.176.207-.237.306-.653.159-1.122-.074-1.889-.548-1.812-.726-1.838-1.216-1.741-1.041.364-1.482.685-1.716.873z"/><path id="5xwom" d="M916.219 796.266c-4.59-3.009-10.849-6.769-16.625-8.77-3.317-1.121-14.425-4.14-27.53-1.82-5.007.849-14.831 2.853-25.712 10.192-7.355 4.96-18.302 16.336-22.32 25.565-4.345 10.379-5.583 28.115-2.68 38.82.529 2.005 1.866 6.18 3.68 10.46 1.088.758 2.111 5.174 7.428 3.86a4.564 4.564 0 0 1 2.336-.657c9.878-6.663 17.046-8.751 16.317-16.439-3.423-7.253-4.205-15.843-1.558-23.397 2.175-6.09 4.57-7.706 6.577-9.91 1.792-1.83 2.685-3.273 6.205-5.647 9.756-6.58 21.587-5.947 28.908-2.686 3.59 1.54 7.04 4.418 9.986 7.608.684.25 1.585.57 2.193.94 5.421.68 8.454-1.474 13.432-4.94 11.758-8.187 11.525-9.532 9.68-12.842-5.066-6.658-8.415-9.091-10.317-10.337z"/><path id="5xwon" d="M826.823 747.477c.835-.736 1.906-1.758 2.607-2.776.398-.586 1.584-2.585 1.831-5.243.102-1.013.236-3.019-.619-5.5-.577-1.678-2.219-4.379-3.811-5.626-1.8-1.37-5.207-2.512-7.46-2.494-.42 0-1.31.048-2.245.182-.206.172-1.126.146-1.153 1.243a.903.903 0 0 1 .003.486c.776 2.253.801 3.748 2.346 3.998 1.603-.295 3.328-.01 4.665.888 1.077.731 1.265 1.277 1.589 1.778.262.44.497.687.773 1.49.767 2.225.009 4.486-1.022 5.74-.494.617-1.242 1.139-2.025 1.548-.085.12-.196.278-.301.377-.424 1.016-.164 1.713.248 2.854.974 2.695 1.25 2.719 1.996 2.53 1.576-.644 2.232-1.17 2.578-1.475z"/></defs><g><g opacity=".21" transform="translate(-306 -404)"><use fill="#4ec4f2" xlink:href="#5xwoa"/></g><g opacity=".21" transform="translate(-306 -404)"><use fill="#f5f8fd" xlink:href="#5xwob"/></g><g opacity=".21" transform="translate(-306 -404)"><use fill="#ed4e73" xlink:href="#5xwoc"/></g><g opacity=".21" transform="translate(-306 -404)"><use fill="#ed4e73" xlink:href="#5xwod"/></g><g opacity=".15" transform="translate(-306 -404)"><use fill="#4ec4f2" xlink:href="#5xwoe"/></g><g opacity=".21" transform="translate(-306 -404)"><use fill="#ffd152" xlink:href="#5xwof"/></g><g opacity=".21" transform="translate(-306 -404)"><use fill="#4ec4f2" xlink:href="#5xwog"/></g><g opacity=".21" transform="translate(-306 -404)"><use fill="#ed4e73" xlink:href="#5xwoh"/></g><g opacity=".21" transform="translate(-306 -404)"><use fill="#bdc3ff" xlink:href="#5xwoi"/></g><g opacity=".21" transform="translate(-306 -404)"><use fill="#7882e4" xlink:href="#5xwoj"/></g><g opacity=".08" transform="translate(-306 -404)"><use fill="#bdc3ff" xlink:href="#5xwok"/></g><g opacity=".21" transform="translate(-306 -404)"><use fill="#ed4e73" xlink:href="#5xwol"/></g><g opacity=".21" transform="translate(-306 -404)"><use fill="#4ec4f2" xlink:href="#5xwom"/></g><g opacity=".21" transform="translate(-306 -404)"><use fill="#4ec4f2" xlink:href="#5xwon"/></g></g></svg>