<svg xmlns="http://www.w3.org/2000/svg" xmlns:xlink="http://www.w3.org/1999/xlink" width="15" height="15" viewBox="0 0 15 15"><defs><path id="4r6na" d="M657.012 11990h-7.184a.828.828 0 0 1-.828-.828v-13.344c0-.457.37-.828.828-.828h13.344c.457 0 .828.37.828.828v13.344c0 .457-.37.828-.828.828h-3.822v-5.809h1.95l.291-2.264h-2.241v-1.445c0-.655.182-1.102 1.122-1.102h1.198v-2.025c-.207-.028-.919-.09-1.746-.09-1.729 0-2.912 1.055-2.912 2.993v1.67h-1.955v2.263h1.955v5.809z"/></defs><g><g transform="translate(-649 -11975)"><use fill="#bdc3ff" xlink:href="#4r6na"/></g></g></svg>