<svg xmlns="http://www.w3.org/2000/svg" xmlns:xlink="http://www.w3.org/1999/xlink" width="43" height="23" viewBox="0 0 43 23"><defs><path id="vaega" d="M272.998 1066.083c0-1.15.895-2.083 2-2.083h26c1.105 0 2 .933 2 2.083V1084h5.632a.5.5 0 0 1 .5.5v1a1.5 1.5 0 0 1-1.5 1.5H267.5a1.5 1.5 0 0 1-1.5-1.5v-1a.5.5 0 0 1 .5-.5h6.498zm28 17.917v-18h-26v18h11.647a1.5 1.5 0 0 0 2.83 0z"/><path id="vaegb" d="M288.495 1073.187c-.477.453-1.845.838-2.495 1.06.024-.066.049-.131.077-.194.264-.61.716-1.452 1.225-1.923.582-.542 1.237-.677 2.023-.944a.828.828 0 0 1 .077-.025c-.099.275-.285 1.436-.907 2.026zm-1.2-5.186c-.298-.005-.543.205-.55.468-.009.376-.046.75-.11 1.121-.05.378-.168.746-.35 1.09a1.971 1.971 0 0 1-.5.544 3.448 3.448 0 0 1-.945.47 5.308 5.308 0 0 1-1.328.26c-.285.012-.51.22-.512.473l.029 2.022c0 .131.06.257.165.348.108.09.252.137.4.13.812-.033 1.585-.408 2.345-.666l.073-.024a5.04 5.04 0 0 0-.282 2.104c.029.867.316 1.712.831 2.45a5.07 5.07 0 0 0 1.985 1.554c.882.409 1.858.633 2.852.656a.607.607 0 0 0 .387-.13.462.462 0 0 0 .166-.35l.049-1.771a.438.438 0 0 0-.148-.34.573.573 0 0 0-.377-.15 3.811 3.811 0 0 1-1.5-.346 2.217 2.217 0 0 1-.84-.626 2.157 2.157 0 0 1-.338-1.105 2.602 2.602 0 0 1 .163-1.173c.118-.269.295-.514.521-.721.266-.25.635-.252.995-.378.302-.1.623-.15.945-.144a.57.57 0 0 0 .387-.128.467.467 0 0 0 .168-.335l.06-1.814a.465.465 0 0 0-.147-.345.6.6 0 0 0-.377-.15h-.273c-.604.014-1.257-.036-1.825.147.131-.373.229-.754.291-1.14.086-.492.258-1.036.27-1.533.002-.26-.233-.475-.527-.479z"/></defs><g><g transform="translate(-266 -1064)"><use fill="#f0f2ff" xlink:href="#vaega"/></g><g transform="translate(-266 -1064)"><use fill="#fff" xlink:href="#vaegb"/></g></g></svg>