<svg xmlns="http://www.w3.org/2000/svg" xmlns:xlink="http://www.w3.org/1999/xlink" width="16" height="16" viewBox="0 0 16 16"><defs><path id="9grza" d="M936 11975c-4.418 0-8 3.672-8 8.203 0 3.624 2.292 6.698 5.471 7.783.4.075.546-.178.546-.395 0-.195-.007-.711-.01-1.395-2.226.495-2.695-1.1-2.695-1.1-.364-.947-.888-1.2-.888-1.2-.727-.509.055-.498.055-.498.802.057 1.224.845 1.224.845.714 1.253 1.873.891 2.329.681.072-.53.28-.891.508-1.096-1.776-.207-3.644-.91-3.644-4.054 0-.896.311-1.628.824-2.201-.083-.208-.358-1.042.077-2.171 0 0 .672-.22 2.2.84a7.503 7.503 0 0 1 2.003-.276c.68.004 1.364.095 2.003.277 1.527-1.061 2.198-.841 2.198-.841.436 1.13.162 1.963.08 2.17.513.574.822 1.306.822 2.202 0 3.15-1.87 3.844-3.652 4.047.287.254.543.754.543 1.52 0 1.096-.01 1.98-.01 2.25 0 .219.144.474.55.394 3.176-1.087 5.466-4.16 5.466-7.782 0-4.53-3.582-8.203-8-8.203"/></defs><g><g transform="translate(-928 -11975)"><use fill="#bdc3ff" xlink:href="#9grza"/></g></g></svg>