<svg xmlns="http://www.w3.org/2000/svg" xmlns:xlink="http://www.w3.org/1999/xlink" width="29" height="33" viewBox="0 0 29 33"><defs><path id="zpxka" d="M804 1068.5c0-6.351 5.373-11.5 12-11.5s12 5.149 12 11.5-5.373 11.5-12 11.5-12-5.149-12-11.5z"/><path id="zpxkb" d="M807.589 1056.377c-6.996 4.899-8.872 14.556-4.178 21.26 4.695 6.704 14.343 8.421 21.339 3.523"/><path id="zpxkd" d="M808.483 1075.548s6.598-.19 10.626-2.851c4.027-2.661 6.433-8.199 6.433-8.199"/><path id="zpxke" d="M806.185 1070.068s5.77-.727 9.75-3.458c3.98-2.73 6.332-7.65 6.332-7.65"/><path id="zpxkf" d="M809.218 1061.171s.982 5.41 3.281 9.653c2.3 4.244 6.227 7.892 6.227 7.892"/><path id="zpxkg" d="M823.017 1075.543s-1.356-5.327-3.947-9.4c-2.59-4.073-6.762-7.439-6.762-7.439"/><path id="zpxki" d="M815 1087v-4h2v4z"/><path id="zpxkj" d="M810 1087a1 1 0 0 1 1-1h10a1 1 0 0 1 0 2h-10a1 1 0 0 1-1-1z"/><clipPath id="zpxkc"><use fill="#fff" xlink:href="#zpxka"/></clipPath><clipPath id="zpxkh"><use fill="#fff" xlink:href="#zpxkb"/></clipPath></defs><g><g transform="translate(-799 -1055)"><use fill="#fff" fill-opacity="0" stroke="#f0f2ff" stroke-miterlimit="50" stroke-width="3.7" clip-path="url(&quot;#zpxkc&quot;)" xlink:href="#zpxka"/></g><g transform="translate(-799 -1055)"><use fill="#fff" fill-opacity="0" stroke="#f0f2ff" stroke-miterlimit="50" stroke-width="1.85" xlink:href="#zpxkd"/></g><g transform="translate(-799 -1055)"><use fill="#fff" fill-opacity="0" stroke="#f0f2ff" stroke-miterlimit="50" stroke-width="1.85" xlink:href="#zpxke"/></g><g transform="translate(-799 -1055)"><use fill="#fff" fill-opacity="0" stroke="#f0f2ff" stroke-miterlimit="50" stroke-width="1.85" xlink:href="#zpxkf"/></g><g transform="translate(-799 -1055)"><use fill="#fff" fill-opacity="0" stroke="#f0f2ff" stroke-miterlimit="50" stroke-width="1.85" xlink:href="#zpxkg"/></g><g transform="translate(-799 -1055)"><use fill="#fff" fill-opacity="0" stroke="#f0f2ff" stroke-linecap="round" stroke-miterlimit="50" stroke-width="4" clip-path="url(&quot;#zpxkh&quot;)" xlink:href="#zpxkb"/></g><g transform="translate(-799 -1055)"><use fill="#f0f2ff" xlink:href="#zpxki"/></g><g transform="translate(-799 -1055)"><use fill="#f0f2ff" xlink:href="#zpxkj"/></g></g></svg>