<svg xmlns="http://www.w3.org/2000/svg" xmlns:xlink="http://www.w3.org/1999/xlink" width="33" height="32" viewBox="0 0 33 32"><defs><path id="jassa" d="M798 1301a1 1 0 0 1 1-1h4a1 1 0 0 1 1 1v10a1 1 0 0 1-1 1h-4a1 1 0 0 1-1-1z"/><path id="jassc" d="M818.35 1305.718c1.322-.964 1.112-2.659-1.05-2.659-2.164 0-3.668-.324-6.667-1.263-3-.938-7.563 1.004-7.563 1.004v7.44s6.25 2.762 9.734 2.762 15.982-5.444 15.982-5.444 2.083-1.895.775-2.95c-1.308-1.054-2.334-.903-3.157-.626s-11.326 2.7-11.326 2.7l-3.12.374s5.008-.554 6.393-1.338z"/><path id="jassd" d="M822 1293.924c-.096.192-.216.36-.36.504-.3.3-.726.498-1.278.594v-3.348l.306.054c.384.072.726.219 1.026.441.3.222.45.561.45 1.017 0 .3-.048.546-.144.738zm-2.952-4.572a15.578 15.578 0 0 1-.27-.036 2.682 2.682 0 0 1-.27-.054c-.384-.06-.693-.195-.927-.405-.234-.21-.351-.525-.351-.945a1.509 1.509 0 0 1 .486-1.134c.18-.168.387-.3.621-.396.234-.096.471-.162.711-.198zm5.013 2.385a3.087 3.087 0 0 0-.72-1.035 3.764 3.764 0 0 0-1.071-.702 5.209 5.209 0 0 0-1.296-.378 2.316 2.316 0 0 0-.306-.054 22.55 22.55 0 0 1-.306-.036v-3.294c.204.06.396.135.576.225.18.09.336.201.468.333.144.156.27.345.378.567.108.222.168.441.18.657h2.214a3.453 3.453 0 0 0-.369-1.413 4.131 4.131 0 0 0-.873-1.161 3.972 3.972 0 0 0-1.161-.747 5.154 5.154 0 0 0-1.413-.369v-1.71h-1.314v1.674a5.094 5.094 0 0 0-1.656.432 4.344 4.344 0 0 0-1.26.864 4.023 4.023 0 0 0-.792 1.062 2.826 2.826 0 0 0-.306 1.314c0 .924.279 1.68.837 2.268.558.588 1.323.96 2.295 1.116l.441.072c.15.024.297.042.441.054v3.564a2.812 2.812 0 0 1-.783-.18 1.959 1.959 0 0 1-.675-.45 2.106 2.106 0 0 1-.468-.657 2.208 2.208 0 0 1-.198-.855h-2.214c.012.576.138 1.101.378 1.575s.54.873.9 1.197c.444.408.921.711 1.431.909a5.81 5.81 0 0 0 1.629.369v1.62h1.314v-1.638a5.462 5.462 0 0 0 1.629-.414 4.031 4.031 0 0 0 2.043-1.962c.192-.396.288-.882.288-1.458 0-.504-.087-.957-.261-1.359z"/><clipPath id="jassb"><use fill="#fff" xlink:href="#jassa"/></clipPath></defs><g><g transform="translate(-798 -1282)"><use fill="#fff" fill-opacity="0" stroke="#f0f2ff" stroke-miterlimit="50" stroke-width="4" clip-path="url(&quot;#jassb&quot;)" xlink:href="#jassa"/></g><g transform="translate(-798 -1282)"><use fill="#fff" fill-opacity="0" stroke="#f0f2ff" stroke-miterlimit="50" stroke-width="2" xlink:href="#jassc"/></g><g transform="translate(-798 -1282)"><use fill="#edeffe" xlink:href="#jassd"/></g></g></svg>