<svg xmlns="http://www.w3.org/2000/svg" xmlns:xlink="http://www.w3.org/1999/xlink" width="49" height="48" viewBox="0 0 49 48"><defs><path id="omsla" d="M570 3454a2 2 0 0 1 2-2h29a2 2 0 0 1 2 2v24a2 2 0 0 1-2 2h-31z"/><path id="omslb" d="M561 3486v-46h49v46h-33.75l1.538-.452c1.052-.31 1.766-1.447 1.585-2.54l-.51-3.076c-.09-.55-.48-1.3-.87-1.69l-1.602-1.597a5.93 5.93 0 0 0-.996-.799 5 5 0 1 0-6.39 0 5.934 5.934 0 0 0-.995.8l-1.602 1.596c-.394.394-.78 1.146-.87 1.69l-.51 3.077c-.18 1.086.528 2.228 1.584 2.539l1.54.452zm33.028-7.991c-.18 1.086.528 2.228 1.584 2.539l2.71.796c1.59.467 4.167.467 5.757 0l2.71-.796c1.051-.31 1.765-1.447 1.584-2.54l-.51-3.076c-.09-.55-.48-1.3-.87-1.69l-1.602-1.597a5.93 5.93 0 0 0-.996-.799 5 5 0 1 0-6.39 0 5.934 5.934 0 0 0-.995.8l-1.602 1.596c-.394.394-.78 1.146-.87 1.69zm-15-19c-.18 1.086.528 2.228 1.584 2.539l2.71.796c1.59.467 4.167.467 5.757 0l2.71-.796c1.051-.31 1.765-1.447 1.584-2.54l-.51-3.076c-.09-.55-.48-1.3-.87-1.69l-1.602-1.597a5.93 5.93 0 0 0-.996-.799 5 5 0 1 0-6.39 0 5.934 5.934 0 0 0-.995.8l-1.602 1.596c-.394.394-.78 1.146-.87 1.69z"/><path id="omsle" d="M562.538 3480.932c.09-.544.476-1.296.87-1.69l1.602-1.597c.309-.307.643-.573.996-.799a5 5 0 1 1 6.39 0c.352.226.686.492.995.8l1.601 1.596c.391.39.78 1.14.871 1.69l.51 3.077c.18 1.092-.533 2.23-1.584 2.539l-2.71.796c-1.59.467-4.168.467-5.757 0l-2.71-.796c-1.056-.31-1.764-1.453-1.584-2.54zm1.75 2.993c-.05.296.175.657.455.74l2.339.687c1.133.333 3.104.333 4.237 0l2.339-.688c.28-.082.504-.441.455-.74l-.44-2.657c-.034-.205-.241-.607-.388-.754l-1.383-1.38a3.83 3.83 0 0 0-5.403 0l-1.383 1.38c-.147.147-.355.55-.388.754zm4.912-8.275a2.65 2.65 0 1 0 0-5.3 2.65 2.65 0 0 0 0 5.3z"/><path id="omslf" d="M596.538 3480.932c.09-.544.476-1.296.87-1.69l1.602-1.597c.309-.307.643-.573.996-.799a5 5 0 1 1 6.39 0c.352.226.686.492.995.8l1.601 1.596c.391.39.78 1.14.871 1.69l.51 3.077c.18 1.092-.533 2.23-1.584 2.539l-2.71.796c-1.59.467-4.168.467-5.757 0l-2.71-.796c-1.056-.31-1.764-1.453-1.584-2.54zm1.75 2.993c-.05.296.175.657.455.74l2.339.687c1.133.333 3.104.333 4.237 0l2.339-.688c.28-.082.504-.441.455-.74l-.44-2.657c-.034-.205-.241-.607-.388-.754l-1.383-1.38a3.83 3.83 0 0 0-5.403 0l-1.383 1.38c-.147.147-.355.55-.388.754zm4.912-8.275a2.65 2.65 0 1 0 0-5.3 2.65 2.65 0 0 0 0 5.3z"/><path id="omslg" d="M579.538 3452.932c.09-.544.476-1.296.87-1.69l1.602-1.597c.309-.307.643-.573.996-.799a5 5 0 1 1 6.39 0c.352.226.686.492.995.8l1.601 1.596c.391.39.78 1.14.871 1.69l.51 3.077c.18 1.092-.533 2.23-1.584 2.539l-2.71.796c-1.59.467-4.168.467-5.757 0l-2.71-.796c-1.056-.31-1.764-1.453-1.584-2.54zm1.75 2.993c-.05.296.175.657.455.74l2.339.687c1.133.333 3.104.333 4.237 0l2.339-.688c.28-.082.504-.441.455-.74l-.44-2.657c-.034-.205-.241-.607-.388-.754l-1.383-1.38a3.83 3.83 0 0 0-5.403 0l-1.383 1.38c-.147.147-.355.55-.388.754zm4.912-8.275a2.65 2.65 0 1 0 0-5.3 2.65 2.65 0 0 0 0 5.3z"/><clipPath id="omsld"><use fill="#fff" xlink:href="#omsla"/></clipPath><clipPath id="omslc"><use xlink:href="#omslb"/></clipPath></defs><g><g transform="translate(-562 -3440)"><g><g/><g clip-path="url(#omslc)"><use fill="#fff" fill-opacity="0" stroke="#7882e4" stroke-dasharray="2 2" stroke-miterlimit="50" stroke-width="4" clip-path="url(&quot;#omsld&quot;)" xlink:href="#omsla"/></g></g><g><use fill="#7882e4" xlink:href="#omsle"/></g><g><use fill="#7882e4" xlink:href="#omslf"/></g><g><use fill="#7882e4" xlink:href="#omslg"/></g></g></g></svg>