<svg xmlns="http://www.w3.org/2000/svg" xmlns:xlink="http://www.w3.org/1999/xlink" width="48" height="40" viewBox="0 0 48 40"><defs><path id="qv19a" d="M875.483 3464.994c-.537-1.992-2.2-2.813-3.852-.681-1.652 2.132-7.213 7.385-7.213 9.99 0 2.604.083 12.493.083 12.493h7.174s.327-6.34 1.388-7.406c.45-1.18 6.654-4.1 6.981-8.204.327-4.103-.077-17.42-.077-17.42s-.426-2.512-2.196-2.512c-1.77 0-1.892 1.122-2.499 3.715-.113.487-.902 8.405-.902 8.405s1.397.939 1.113 2.335c-.284 1.397-2.42 5.623-2.42 5.623s1.205-1.909 1.82-3.993c.236-.798.678-1.803.6-2.345z"/><path id="qv19b" d="M840.81 3464.994c.536-1.992 2.199-2.813 3.851-.681 1.652 2.132 7.213 7.385 7.213 9.99 0 2.604-.082 12.493-.082 12.493h-7.174s-.328-6.34-1.389-7.406c-.449-1.18-6.654-4.1-6.981-8.204-.327-4.103.077-17.42.077-17.42s.426-2.512 2.196-2.512c1.77 0 1.892 1.122 2.499 3.715.114.487.902 8.405.902 8.405s-1.397.939-1.113 2.335c.285 1.397 2.42 5.623 2.42 5.623s-1.205-1.909-1.82-3.993c-.236-.798-.677-1.803-.6-2.345z"/><path id="qv19c" d="M858.408 3465.855s-7.215-6.174-8.854-8.78c-2.19-3.287-.729-7.765 3.06-7.765 3.788 0 5.936 2.753 5.936 2.753s1.997-2.753 5.399-2.753 6.505 4.49 2.798 8.811c-3.478 4.044-8.339 7.734-8.339 7.734z"/></defs><g><g transform="translate(-834 -3448)"><g><use fill="#fff" xlink:href="#qv19a"/><use fill="#fff" fill-opacity="0" stroke="#24dcd0" stroke-miterlimit="50" stroke-width="2" xlink:href="#qv19a"/></g><g><use fill="#fff" xlink:href="#qv19b"/><use fill="#fff" fill-opacity="0" stroke="#24dcd0" stroke-miterlimit="50" stroke-width="2" xlink:href="#qv19b"/></g><g><use fill="#fff" xlink:href="#qv19c"/><use fill="#fff" fill-opacity="0" stroke="#24dcd0" stroke-miterlimit="50" stroke-width="2" xlink:href="#qv19c"/></g></g></g></svg>