<svg xmlns="http://www.w3.org/2000/svg" xmlns:xlink="http://www.w3.org/1999/xlink" width="39" height="33" viewBox="0 0 39 33"><defs><path id="5lgaa" d="M852 3719v-26h20v26z"/><path id="5lgab" d="M839 3706.5a1.5 1.5 0 0 1 1.5-1.5h6a1.5 1.5 0 0 1 1.5 1.5v16a1.5 1.5 0 0 1-1.5 1.5h-6a1.5 1.5 0 0 1-1.5-1.5z"/><path id="5lgad" d="M848 3693.5a1.5 1.5 0 0 1 1.5-1.5h27a1.5 1.5 0 1 1 0 3h-27a1.5 1.5 0 0 1-1.5-1.5z"/><path id="5lgae" d="M863.613 3710.923c2.095-1.732 3.429-5.023 0-5.023-3.428 0-8.14 3.198-10.678 4.512-2.54 1.314-8.155-.962-8.155-.962v11.532s12.877 2.63 15.34 2.728c3.493 0 12.97-3.252 13.5-3.813.532-.56 3.377-3.184 1.303-5.08-.845-.897-.898-.458-1.769.188-.472.594-.735 1.757-2.296 1.757-.685.23-6.863 0-6.863 0l-3.875.64s1.297-5.07 3.493-6.48z"/><clipPath id="5lgac"><use fill="#fff" xlink:href="#5lgaa"/></clipPath><clipPath id="5lgaf"><use fill="#fff" xlink:href="#5lgab"/></clipPath></defs><g><g transform="rotate(180 439.5 1863)"><g><g><use fill="#fff" fill-opacity="0" stroke="#f7b932" stroke-miterlimit="50" stroke-width="4.5" clip-path="url(&quot;#5lgac&quot;)" xlink:href="#5lgaa"/></g><g><use fill="#f7b932" xlink:href="#5lgad"/></g></g><g><g><use fill="#fff" xlink:href="#5lgae"/><use fill="#fff" fill-opacity="0" stroke="#f7b932" stroke-miterlimit="50" stroke-width="2.25" xlink:href="#5lgae"/></g><g><use fill="#fff" xlink:href="#5lgab"/><use fill="#fff" fill-opacity="0" stroke="#f7b932" stroke-miterlimit="50" stroke-width="4.5" clip-path="url(&quot;#5lgaf&quot;)" xlink:href="#5lgab"/></g></g></g></g></svg>