<svg xmlns="http://www.w3.org/2000/svg" xmlns:xlink="http://www.w3.org/1999/xlink" width="92" height="85" viewBox="0 0 92 85"><defs><path id="zlf0a" d="M186 3998v-3a3 3 0 0 1 0-6v-29h28.535a3.998 3.998 0 0 0 3.465 2c1.48 0 2.773-.804 3.465-2H226v38z"/><path id="zlf0f" d="M144 3959c0-22.091 17.909-40 40-40s40 17.909 40 40-17.909 40-40 40-40-17.909-40-40zm40 28c15.464 0 28-12.536 28-28s-12.536-28-28-28-28 12.536-28 28 12.536 28 28 28z"/><path id="zlf0b" d="M144 4000v-40h3.17a3 3 0 1 1 5.659 0H184v28.126a4.002 4.002 0 0 0 0 7.748V4000z"/><path id="zlf0c" d="M186 3957v-28.535a3.998 3.998 0 0 0 2-3.465c0-1.48-.804-2.773-2-3.465V3919h40v38h-5a3 3 0 0 1-6 0z"/><path id="zlf0d" d="M144 3958v-40h40v4.17a3.001 3.001 0 0 1 0 5.66V3958h-30.126a4.002 4.002 0 0 0-7.748 0z"/><path id="zlf0j" d="M144 3959c0-22.091 17.909-40 40-40s40 17.909 40 40-17.909 40-40 40-40-17.909-40-40zm39.9 27.9c15.464 0 28-12.536 28-28s-12.536-28-28-28-28 12.536-28 28 12.536 28 28 28z"/><linearGradient id="zlf0k" x1="183.44" x2="183.44" y1="3919" y2="3959" gradientUnits="userSpaceOnUse"><stop offset="0" stop-color="#fff" stop-opacity=".47"/><stop offset="1" stop-opacity=".6"/></linearGradient><clipPath id="zlf0e"><use xlink:href="#zlf0a"/></clipPath><clipPath id="zlf0g"><use xlink:href="#zlf0b"/></clipPath><clipPath id="zlf0h"><use xlink:href="#zlf0c"/></clipPath><clipPath id="zlf0i"><use xlink:href="#zlf0d"/></clipPath></defs><g><g transform="translate(-132 -3914)"><g><g/><g clip-path="url(#zlf0e)"><use fill="#ebecf5" fill-opacity=".5" xlink:href="#zlf0f"/></g></g><g><g/><g clip-path="url(#zlf0g)"><use fill="#ebecf5" fill-opacity=".5" xlink:href="#zlf0f"/></g></g><g><g/><g clip-path="url(#zlf0h)"><use fill="#ebecf5" fill-opacity=".5" xlink:href="#zlf0f"/></g></g><g><g/><g clip-path="url(#zlf0i)"><use fill="#7882e4" xlink:href="#zlf0j"/></g><g clip-path="url(#zlf0i)" opacity=".5"><use fill="url(#zlf0k)" xlink:href="#zlf0j"/></g></g></g></g></svg>