<svg xmlns="http://www.w3.org/2000/svg" xmlns:xlink="http://www.w3.org/1999/xlink" width="91" height="84" viewBox="0 0 91 84"><defs><path id="8yqja" d="M843 3999v-3a3 3 0 0 1 0-6v-29h28.535a3.998 3.998 0 0 0 3.465 2c1.48 0 2.773-.804 3.465-2H883v38z"/><path id="8yqjf" d="M801 3960c0-22.091 17.909-40 40-40s40 17.909 40 40-17.909 40-40 40-40-17.909-40-40zm40 28c15.464 0 28-12.536 28-28s-12.536-28-28-28-28 12.536-28 28 12.536 28 28 28z"/><path id="8yqjb" d="M801 4001v-40h3.17a3 3 0 1 1 5.659 0H841v28.126a4.002 4.002 0 0 0 0 7.748V4001z"/><path id="8yqjc" d="M843 3958v-28.535a3.998 3.998 0 0 0 2-3.465c0-1.48-.804-2.773-2-3.465V3920h40v38h-5a3 3 0 0 1-6 0z"/><path id="8yqjd" d="M801 3959v-40h40v4.17a3.001 3.001 0 0 1 0 5.66V3959h-30.126a4.002 4.002 0 0 0-7.748 0z"/><path id="8yqjk" d="M801 3960c0-22.091 17.909-40 40-40s40 17.909 40 40-17.909 40-40 40-40-17.909-40-40zm39.9 27.9c15.464 0 28-12.536 28-28s-12.536-28-28-28-28 12.536-28 28 12.536 28 28 28z"/><linearGradient id="8yqji" x1="840.44" x2="840.44" y1="3920" y2="3960" gradientUnits="userSpaceOnUse"><stop offset="0" stop-color="#fff" stop-opacity="0"/><stop offset="1"/></linearGradient><clipPath id="8yqje"><use xlink:href="#8yqja"/></clipPath><clipPath id="8yqjg"><use xlink:href="#8yqjb"/></clipPath><clipPath id="8yqjh"><use xlink:href="#8yqjc"/></clipPath><clipPath id="8yqjj"><use xlink:href="#8yqjd"/></clipPath></defs><g><g transform="translate(-801 -3916)"><g><g/><g clip-path="url(#8yqje)"><use fill="#ebecf5" fill-opacity=".5" xlink:href="#8yqjf"/></g></g><g><g/><g clip-path="url(#8yqjg)"><use fill="#ebecf5" fill-opacity=".5" xlink:href="#8yqjf"/></g></g><g><g/><g clip-path="url(#8yqjh)"><use fill="#79f0e8" xlink:href="#8yqjf"/></g><g clip-path="url(#8yqjh)" opacity=".5"><use fill="url(#8yqji)" xlink:href="#8yqjf"/></g></g><g><g/><g clip-path="url(#8yqjj)"><use fill="#ebecf5" fill-opacity=".5" xlink:href="#8yqjk"/></g></g></g></g></svg>