<svg xmlns="http://www.w3.org/2000/svg" xmlns:xlink="http://www.w3.org/1999/xlink" width="433" height="434" viewBox="0 0 433 434"><defs><path id="j9yda" d="M818 3467c0-22.091 17.909-40 40-40s40 17.909 40 40-17.909 40-40 40-40-17.909-40-40z"/><path id="j9ydb" d="M818 3707c0-22.091 17.909-40 40-40s40 17.909 40 40-17.909 40-40 40-40-17.909-40-40z"/><path id="j9ydc" d="M852 3719v-26h20v26z"/><path id="j9ydd" d="M839 3706.5a1.5 1.5 0 0 1 1.5-1.5h6a1.5 1.5 0 0 1 1.5 1.5v16a1.5 1.5 0 0 1-1.5 1.5h-6a1.5 1.5 0 0 1-1.5-1.5z"/><path id="j9yde" d="M546 3707c0-22.091 17.909-40 40-40s40 17.909 40 40-17.909 40-40 40-40-17.909-40-40z"/><path id="j9ydf" d="M576 3694a1 1 0 0 1 1-1h26a1 1 0 0 1 1 1v27.51a1 1 0 0 1-1 1h-27z"/><path id="j9ydg" d="M584 3705a2 2 0 0 0-2-2h-17a2 2 0 0 0-2 2v17a2 2 0 0 0 2 2h19z"/><path id="j9ydh" d="M546 3467c0-22.091 17.909-40 40-40s40 17.909 40 40-17.909 40-40 40-40-17.909-40-40z"/><path id="j9ydi" d="M570 3454a2 2 0 0 1 2-2h29a2 2 0 0 1 2 2v24a2 2 0 0 1-2 2h-31z"/><path id="j9ydj" d="M520 3590v-199h198v12a8 8 0 1 1 0 16v171H550.586c-1.306-4.617-5.55-8-10.586-8-5.035 0-9.28 3.383-10.586 8z"/><path id="j9ydp" d="M520 3590.5c0-110.18 89.32-199.5 199.5-199.5S919 3480.32 919 3590.5 829.68 3790 719.5 3790 520 3700.68 520 3590.5zm199.5 159.6c88.145 0 159.6-71.455 159.6-159.6s-71.455-159.6-159.6-159.6-159.6 71.455-159.6 159.6 71.455 159.6 159.6 159.6z"/><path id="j9ydk" d="M520 3792v-198h12a8 8 0 1 1 16 0h170v167.414c-4.617 1.306-8 5.55-8 10.586 0 5.035 3.383 9.28 8 10.586V3792z"/><path id="j9yds" d="M520 3591c0-110.457 89.543-200 200-200s200 89.543 200 200-89.543 200-200 200-200-89.543-200-200zm200 160c88.366 0 160-71.634 160-160s-71.634-160-160-160-160 71.634-160 160 71.634 160 160 160z"/><path id="j9ydl" d="M722 3791v-11a8 8 0 1 1 0-16v-171h167.414c1.306 4.617 5.55 8 10.586 8 5.035 0 9.28-3.383 10.586-8H920v198zm136-31c28.719 0 52-23.281 52-52s-23.281-52-52-52-52 23.281-52 52 23.281 52 52 52z"/><path id="j9ydm" d="M722 3589v-167.181c5.12-.94 9-5.427 9-10.819 0-5.392-3.88-9.878-9-10.819V3391h198v198h-12a8 8 0 1 1-16 0zm129-62c33.137 0 60-26.863 60-60s-26.863-60-60-60-60 26.863-60 60 26.863 60 60 60z"/><path id="j9ydD" d="M875.483 3464.994c-.537-1.992-2.2-2.813-3.852-.681-1.652 2.132-7.213 7.385-7.213 9.99 0 2.604.083 12.493.083 12.493h7.174s.327-6.34 1.388-7.406c.45-1.18 6.654-4.1 6.981-8.204.327-4.103-.077-17.42-.077-17.42s-.426-2.512-2.196-2.512c-1.77 0-1.892 1.122-2.499 3.715-.113.487-.902 8.405-.902 8.405s1.397.939 1.113 2.335c-.284 1.397-2.42 5.623-2.42 5.623s1.205-1.909 1.82-3.993c.236-.798.678-1.803.6-2.345z"/><path id="j9ydE" d="M840.81 3464.994c.536-1.992 2.199-2.813 3.851-.681 1.652 2.132 7.213 7.385 7.213 9.99 0 2.604-.082 12.493-.082 12.493h-7.174s-.328-6.34-1.389-7.406c-.449-1.18-6.654-4.1-6.981-8.204-.327-4.103.077-17.42.077-17.42s.426-2.512 2.196-2.512c1.77 0 1.892 1.122 2.499 3.715.114.487.902 8.405.902 8.405s-1.397.939-1.113 2.335c.285 1.397 2.42 5.623 2.42 5.623s-1.205-1.909-1.82-3.993c-.236-.798-.677-1.803-.6-2.345z"/><path id="j9ydF" d="M858.408 3465.855s-7.215-6.174-8.854-8.78c-2.19-3.287-.729-7.765 3.06-7.765 3.788 0 5.936 2.753 5.936 2.753s1.997-2.753 5.399-2.753 6.505 4.49 2.798 8.811c-3.478 4.044-8.339 7.734-8.339 7.734z"/><path id="j9ydM" d="M848 3693.5a1.5 1.5 0 0 1 1.5-1.5h27a1.5 1.5 0 1 1 0 3h-27a1.5 1.5 0 0 1-1.5-1.5z"/><path id="j9ydN" d="M863.613 3710.923c2.095-1.732 3.429-5.023 0-5.023-3.428 0-8.14 3.198-10.678 4.512-2.54 1.314-8.155-.962-8.155-.962v11.532s12.877 2.63 15.34 2.728c3.493 0 12.97-3.252 13.5-3.813.532-.56 3.377-3.184 1.303-5.08-.845-.897-.898-.458-1.769.188-.472.594-.735 1.757-2.296 1.757-.685.23-6.863 0-6.863 0l-3.875.64s1.297-5.07 3.493-6.48z"/><path id="j9ydn" d="M561 3486v-46h49v46h-33.75l1.538-.452c1.052-.31 1.766-1.447 1.585-2.54l-.51-3.076c-.09-.55-.48-1.3-.87-1.69l-1.602-1.597a5.93 5.93 0 0 0-.996-.799 5 5 0 1 0-6.39 0 5.934 5.934 0 0 0-.995.8l-1.602 1.596c-.394.394-.78 1.146-.87 1.69l-.51 3.077c-.18 1.086.528 2.228 1.584 2.539l1.54.452zm33.028-7.991c-.18 1.086.528 2.228 1.584 2.539l2.71.796c1.59.467 4.167.467 5.757 0l2.71-.796c1.051-.31 1.765-1.447 1.584-2.54l-.51-3.076c-.09-.55-.48-1.3-.87-1.69l-1.602-1.597a5.93 5.93 0 0 0-.996-.799 5 5 0 1 0-6.39 0 5.934 5.934 0 0 0-.995.8l-1.602 1.596c-.394.394-.78 1.146-.87 1.69zm-15-19c-.18 1.086.528 2.228 1.584 2.539l2.71.796c1.59.467 4.167.467 5.757 0l2.71-.796c1.051-.31 1.765-1.447 1.584-2.54l-.51-3.076c-.09-.55-.48-1.3-.87-1.69l-1.602-1.597a5.93 5.93 0 0 0-.996-.799 5 5 0 1 0-6.39 0 5.934 5.934 0 0 0-.995.8l-1.602 1.596c-.394.394-.78 1.146-.87 1.69z"/><path id="j9ydad" d="M562.538 3480.932c.09-.544.476-1.296.87-1.69l1.602-1.597c.309-.307.643-.573.996-.799a5 5 0 1 1 6.39 0c.352.226.686.492.995.8l1.601 1.596c.391.39.78 1.14.871 1.69l.51 3.077c.18 1.092-.533 2.23-1.584 2.539l-2.71.796c-1.59.467-4.168.467-5.757 0l-2.71-.796c-1.056-.31-1.764-1.453-1.584-2.54zm1.75 2.993c-.05.296.175.657.455.74l2.339.687c1.133.333 3.104.333 4.237 0l2.339-.688c.28-.082.504-.441.455-.74l-.44-2.657c-.034-.205-.241-.607-.388-.754l-1.383-1.38a3.83 3.83 0 0 0-5.403 0l-1.383 1.38c-.147.147-.355.55-.388.754zm4.912-8.275a2.65 2.65 0 1 0 0-5.3 2.65 2.65 0 0 0 0 5.3z"/><path id="j9ydae" d="M596.538 3480.932c.09-.544.476-1.296.87-1.69l1.602-1.597c.309-.307.643-.573.996-.799a5 5 0 1 1 6.39 0c.352.226.686.492.995.8l1.601 1.596c.391.39.78 1.14.871 1.69l.51 3.077c.18 1.092-.533 2.23-1.584 2.539l-2.71.796c-1.59.467-4.168.467-5.757 0l-2.71-.796c-1.056-.31-1.764-1.453-1.584-2.54zm1.75 2.993c-.05.296.175.657.455.74l2.339.687c1.133.333 3.104.333 4.237 0l2.339-.688c.28-.082.504-.441.455-.74l-.44-2.657c-.034-.205-.241-.607-.388-.754l-1.383-1.38a3.83 3.83 0 0 0-5.403 0l-1.383 1.38c-.147.147-.355.55-.388.754zm4.912-8.275a2.65 2.65 0 1 0 0-5.3 2.65 2.65 0 0 0 0 5.3z"/><path id="j9ydaf" d="M579.538 3452.932c.09-.544.476-1.296.87-1.69l1.602-1.597c.309-.307.643-.573.996-.799a5 5 0 1 1 6.39 0c.352.226.686.492.995.8l1.601 1.596c.391.39.78 1.14.871 1.69l.51 3.077c.18 1.092-.533 2.23-1.584 2.539l-2.71.796c-1.59.467-4.168.467-5.757 0l-2.71-.796c-1.056-.31-1.764-1.453-1.584-2.54zm1.75 2.993c-.05.296.175.657.455.74l2.339.687c1.133.333 3.104.333 4.237 0l2.339-.688c.28-.082.504-.441.455-.74l-.44-2.657c-.034-.205-.241-.607-.388-.754l-1.383-1.38a3.83 3.83 0 0 0-5.403 0l-1.383 1.38c-.147.147-.355.55-.388.754zm4.912-8.275a2.65 2.65 0 1 0 0-5.3 2.65 2.65 0 0 0 0 5.3z"/><linearGradient id="j9ydq" x1="716.7" x2="716.7" y1="3391" y2="3595.54" gradientUnits="userSpaceOnUse"><stop offset="0" stop-color="#fff" stop-opacity=".2"/><stop offset="1" stop-opacity=".7"/></linearGradient><linearGradient id="j9ydt" x1="720" x2="720" y1="3591" y2="3791" gradientUnits="userSpaceOnUse"><stop offset="0" stop-color="#fff" stop-opacity=".39"/><stop offset="1" stop-opacity=".5"/></linearGradient><linearGradient id="j9ydv" x1="720" x2="720" y1="3591" y2="3791" gradientUnits="userSpaceOnUse"><stop offset="0" stop-color="#fff" stop-opacity=".52"/><stop offset="1"/></linearGradient><linearGradient id="j9ydx" x1="717.19" x2="717.19" y1="3391" y2="3583.13" gradientUnits="userSpaceOnUse"><stop offset="0" stop-color="#fff" stop-opacity=".77"/><stop offset="1"/></linearGradient><mask id="j9ydz" width="2" height="2" x="-1" y="-1"><path fill="#fff" d="M818 3427h80v80h-80z"/><use xlink:href="#j9yda"/></mask><filter id="j9ydy" width="150" height="159" x="783" y="3392" filterUnits="userSpaceOnUse"><feOffset dy="9" in="SourceGraphic" result="FeOffset1567Out"/><feGaussianBlur in="FeOffset1567Out" result="FeGaussianBlur1568Out" stdDeviation="10 10"/></filter><mask id="j9ydB" width="2" height="2" x="-1" y="-1"><path fill="#fff" d="M818 3427h80v80h-80z"/><use xlink:href="#j9yda"/></mask><filter id="j9ydA" width="108" height="110" x="804" y="3413" filterUnits="userSpaceOnUse"><feOffset dy="2" in="SourceGraphic" result="FeOffset1578Out"/><feGaussianBlur in="FeOffset1578Out" result="FeGaussianBlur1579Out" stdDeviation="1.6 1.6"/></filter><linearGradient id="j9ydC" x1="858" x2="858" y1="3427" y2="3496.93" gradientUnits="userSpaceOnUse"><stop offset="0" stop-color="#fff"/><stop offset="1" stop-color="#f9fafd"/></linearGradient><mask id="j9ydH" width="2" height="2" x="-1" y="-1"><path fill="#fff" d="M818 3667h80v80h-80z"/><use xlink:href="#j9ydb"/></mask><filter id="j9ydG" width="150" height="159" x="783" y="3632" filterUnits="userSpaceOnUse"><feOffset dy="9" in="SourceGraphic" result="FeOffset1620Out"/><feGaussianBlur in="FeOffset1620Out" result="FeGaussianBlur1621Out" stdDeviation="10 10"/></filter><mask id="j9ydJ" width="2" height="2" x="-1" y="-1"><path fill="#fff" d="M818 3667h80v80h-80z"/><use xlink:href="#j9ydb"/></mask><filter id="j9ydI" width="108" height="110" x="804" y="3653" filterUnits="userSpaceOnUse"><feOffset dy="2" in="SourceGraphic" result="FeOffset1631Out"/><feGaussianBlur in="FeOffset1631Out" result="FeGaussianBlur1632Out" stdDeviation="1.6 1.6"/></filter><linearGradient id="j9ydK" x1="858" x2="858" y1="3667" y2="3736.93" gradientUnits="userSpaceOnUse"><stop offset="0" stop-color="#fff"/><stop offset="1" stop-color="#f9fafd"/></linearGradient><clipPath id="j9ydL"><use fill="#fff" xlink:href="#j9ydc"/></clipPath><clipPath id="j9ydO"><use fill="#fff" xlink:href="#j9ydd"/></clipPath><mask id="j9ydQ" width="2" height="2" x="-1" y="-1"><path fill="#fff" d="M546 3667h80v80h-80z"/><use xlink:href="#j9yde"/></mask><filter id="j9ydP" width="150" height="159" x="511" y="3632" filterUnits="userSpaceOnUse"><feOffset dy="9" in="SourceGraphic" result="FeOffset1685Out"/><feGaussianBlur in="FeOffset1685Out" result="FeGaussianBlur1686Out" stdDeviation="10 10"/></filter><mask id="j9ydS" width="2" height="2" x="-1" y="-1"><path fill="#fff" d="M546 3667h80v80h-80z"/><use xlink:href="#j9yde"/></mask><filter id="j9ydR" width="108" height="110" x="532" y="3653" filterUnits="userSpaceOnUse"><feOffset dy="2" in="SourceGraphic" result="FeOffset1696Out"/><feGaussianBlur in="FeOffset1696Out" result="FeGaussianBlur1697Out" stdDeviation="1.6 1.6"/></filter><linearGradient id="j9ydT" x1="586" x2="586" y1="3667" y2="3736.93" gradientUnits="userSpaceOnUse"><stop offset="0" stop-color="#fff"/><stop offset="1" stop-color="#f9fafd"/></linearGradient><clipPath id="j9ydU"><use fill="#fff" xlink:href="#j9ydf"/></clipPath><clipPath id="j9ydV"><use fill="#fff" xlink:href="#j9ydg"/></clipPath><mask id="j9ydX" width="2" height="2" x="-1" y="-1"><path fill="#fff" d="M546 3427h80v80h-80z"/><use xlink:href="#j9ydh"/></mask><filter id="j9ydW" width="150" height="159" x="511" y="3392" filterUnits="userSpaceOnUse"><feOffset dy="9" in="SourceGraphic" result="FeOffset1736Out"/><feGaussianBlur in="FeOffset1736Out" result="FeGaussianBlur1737Out" stdDeviation="10 10"/></filter><mask id="j9ydZ" width="2" height="2" x="-1" y="-1"><path fill="#fff" d="M546 3427h80v80h-80z"/><use xlink:href="#j9ydh"/></mask><filter id="j9ydY" width="108" height="110" x="532" y="3413" filterUnits="userSpaceOnUse"><feOffset dy="2" in="SourceGraphic" result="FeOffset1747Out"/><feGaussianBlur in="FeOffset1747Out" result="FeGaussianBlur1748Out" stdDeviation="1.6 1.6"/></filter><linearGradient id="j9ydaa" x1="586" x2="586" y1="3427" y2="3496.93" gradientUnits="userSpaceOnUse"><stop offset="0" stop-color="#fff"/><stop offset="1" stop-color="#f9fafd"/></linearGradient><clipPath id="j9ydac"><use fill="#fff" xlink:href="#j9ydi"/></clipPath><clipPath id="j9ydo"><use xlink:href="#j9ydj"/></clipPath><clipPath id="j9ydr"><use xlink:href="#j9ydk"/></clipPath><clipPath id="j9ydu"><use xlink:href="#j9ydl"/></clipPath><clipPath id="j9ydw"><use xlink:href="#j9ydm"/></clipPath><clipPath id="j9ydab"><use xlink:href="#j9ydn"/></clipPath></defs><g><g transform="translate(-504 -3388)"><g><g><g/><g clip-path="url(#j9ydo)"><use fill="#7882e4" xlink:href="#j9ydp"/></g><g clip-path="url(#j9ydo)" opacity=".5"><use fill="url(#j9ydq)" xlink:href="#j9ydp"/></g></g><g><g/><g clip-path="url(#j9ydr)"><use fill="#4ec4f2" xlink:href="#j9yds"/></g><g clip-path="url(#j9ydr)" opacity=".5"><use fill="url(#j9ydt)" xlink:href="#j9yds"/></g></g><g><g/><g clip-path="url(#j9ydu)"><use fill="#ffd152" xlink:href="#j9yds"/></g><g clip-path="url(#j9ydu)" opacity=".5"><use fill="url(#j9ydv)" xlink:href="#j9yds"/></g></g><g><g/><g clip-path="url(#j9ydw)"><use fill="#79f0e8" xlink:href="#j9yds"/></g><g clip-path="url(#j9ydw)" opacity=".5"><use fill="url(#j9ydx)" xlink:href="#j9yds"/></g></g></g><g><g><g filter="url(#j9ydy)"><use fill="none" stroke-opacity=".12" stroke-width="0" mask="url(&quot;#j9ydz&quot;)" xlink:href="#j9yda"/><use fill="#182171" fill-opacity=".12" xlink:href="#j9yda"/></g><g filter="url(#j9ydA)"><use fill="none" stroke-opacity=".1" stroke-width="0" mask="url(&quot;#j9ydB&quot;)" xlink:href="#j9yda"/><use fill="#182171" fill-opacity=".1" xlink:href="#j9yda"/></g><use fill="#f8fafd" xlink:href="#j9yda"/><use fill="url(#j9ydC)" xlink:href="#j9yda"/></g><g><g><use fill="#fff" xlink:href="#j9ydD"/><use fill="#fff" fill-opacity="0" stroke="#24dcd0" stroke-miterlimit="50" stroke-width="2" xlink:href="#j9ydD"/></g><g><use fill="#fff" xlink:href="#j9ydE"/><use fill="#fff" fill-opacity="0" stroke="#24dcd0" stroke-miterlimit="50" stroke-width="2" xlink:href="#j9ydE"/></g><g><use fill="#fff" xlink:href="#j9ydF"/><use fill="#fff" fill-opacity="0" stroke="#24dcd0" stroke-miterlimit="50" stroke-width="2" xlink:href="#j9ydF"/></g></g></g><g><g><g filter="url(#j9ydG)"><use fill="none" stroke-opacity=".12" stroke-width="0" mask="url(&quot;#j9ydH&quot;)" xlink:href="#j9ydb"/><use fill="#182171" fill-opacity=".12" xlink:href="#j9ydb"/></g><g filter="url(#j9ydI)"><use fill="none" stroke-opacity=".1" stroke-width="0" mask="url(&quot;#j9ydJ&quot;)" xlink:href="#j9ydb"/><use fill="#182171" fill-opacity=".1" xlink:href="#j9ydb"/></g><use fill="#f8fafd" xlink:href="#j9ydb"/><use fill="url(#j9ydK)" xlink:href="#j9ydb"/></g><g transform="rotate(180 859.5 3709)"><g><g><use fill="#fff" fill-opacity="0" stroke="#f7b932" stroke-miterlimit="50" stroke-width="4.5" clip-path="url(&quot;#j9ydL&quot;)" xlink:href="#j9ydc"/></g><g><use fill="#f7b932" xlink:href="#j9ydM"/></g></g><g><g><use fill="#fff" xlink:href="#j9ydN"/><use fill="#fff" fill-opacity="0" stroke="#f7b932" stroke-miterlimit="50" stroke-width="2.25" xlink:href="#j9ydN"/></g><g><use fill="#fff" xlink:href="#j9ydd"/><use fill="#fff" fill-opacity="0" stroke="#f7b932" stroke-miterlimit="50" stroke-width="4.5" clip-path="url(&quot;#j9ydO&quot;)" xlink:href="#j9ydd"/></g></g></g></g><g><g><g filter="url(#j9ydP)"><use fill="none" stroke-opacity=".12" stroke-width="0" mask="url(&quot;#j9ydQ&quot;)" xlink:href="#j9yde"/><use fill="#182171" fill-opacity=".12" xlink:href="#j9yde"/></g><g filter="url(#j9ydR)"><use fill="none" stroke-opacity=".1" stroke-width="0" mask="url(&quot;#j9ydS&quot;)" xlink:href="#j9yde"/><use fill="#182171" fill-opacity=".1" xlink:href="#j9yde"/></g><use fill="#f8fafd" xlink:href="#j9yde"/><use fill="url(#j9ydT)" xlink:href="#j9yde"/></g><g><g><use fill="#fff" xlink:href="#j9ydf"/><use fill="#fff" fill-opacity="0" stroke="#4ec4f2" stroke-miterlimit="50" stroke-width="4.5" clip-path="url(&quot;#j9ydU&quot;)" xlink:href="#j9ydf"/></g><g><use fill="#fff" xlink:href="#j9ydg"/><use fill="#fff" fill-opacity="0" stroke="#4ec4f2" stroke-miterlimit="50" stroke-width="4.5" clip-path="url(&quot;#j9ydV&quot;)" xlink:href="#j9ydg"/></g></g></g><g><g><g filter="url(#j9ydW)"><use fill="none" stroke-opacity=".12" stroke-width="0" mask="url(&quot;#j9ydX&quot;)" xlink:href="#j9ydh"/><use fill="#182171" fill-opacity=".12" xlink:href="#j9ydh"/></g><g filter="url(#j9ydY)"><use fill="none" stroke-opacity=".1" stroke-width="0" mask="url(&quot;#j9ydZ&quot;)" xlink:href="#j9ydh"/><use fill="#182171" fill-opacity=".1" xlink:href="#j9ydh"/></g><use fill="#f8fafd" xlink:href="#j9ydh"/><use fill="url(#j9ydaa)" xlink:href="#j9ydh"/></g><g><g><g/><g clip-path="url(#j9ydab)"><use fill="#fff" fill-opacity="0" stroke="#7882e4" stroke-dasharray="2 2" stroke-miterlimit="50" stroke-width="4" clip-path="url(&quot;#j9ydac&quot;)" xlink:href="#j9ydi"/></g></g><g><use fill="#7882e4" xlink:href="#j9ydad"/></g><g><use fill="#7882e4" xlink:href="#j9ydae"/></g><g><use fill="#7882e4" xlink:href="#j9ydaf"/></g></g></g></g></g></svg>