<svg xmlns="http://www.w3.org/2000/svg" xmlns:xlink="http://www.w3.org/1999/xlink" width="91" height="98" viewBox="0 0 91 98"><defs><path id="krpva" d="M186 4239v-3a3 3 0 0 1 0-6v-29h28.535a3.998 3.998 0 0 0 3.465 2c1.48 0 2.773-.804 3.465-2H226v38z"/><path id="krpvf" d="M144 4200c0-22.091 17.909-40 40-40s40 17.909 40 40-17.909 40-40 40-40-17.909-40-40zm40 28c15.464 0 28-12.536 28-28s-12.536-28-28-28-28 12.536-28 28 12.536 28 28 28z"/><path id="krpvb" d="M144 4241v-40h3.17a3 3 0 1 1 5.659 0H184v28.126a4.002 4.002 0 0 0 0 7.748V4241z"/><path id="krpvc" d="M186 4198v-28.535a3.998 3.998 0 0 0 2-3.465c0-1.48-.804-2.773-2-3.465V4160h40v38h-5a3 3 0 0 1-6 0z"/><path id="krpvd" d="M144 4199v-40h40v4.17a3.001 3.001 0 0 1 0 5.66V4199h-30.126a4.002 4.002 0 0 0-7.748 0z"/><path id="krpvk" d="M144 4200c0-22.091 17.909-40 40-40s40 17.909 40 40-17.909 40-40 40-40-17.909-40-40zm39.9 27.9c15.464 0 28-12.536 28-28s-12.536-28-28-28-28 12.536-28 28 12.536 28 28 28z"/><linearGradient id="krpvh" x1="183.44" x2="183.44" y1="4200" y2="4240" gradientUnits="userSpaceOnUse"><stop offset="0" stop-color="#fff" stop-opacity="0"/><stop offset="1"/></linearGradient><clipPath id="krpve"><use xlink:href="#krpva"/></clipPath><clipPath id="krpvg"><use xlink:href="#krpvb"/></clipPath><clipPath id="krpvi"><use xlink:href="#krpvc"/></clipPath><clipPath id="krpvj"><use xlink:href="#krpvd"/></clipPath></defs><g><g transform="translate(-133 -4160)"><g><g/><g clip-path="url(#krpve)"><use fill="#ebecf5" fill-opacity=".5" xlink:href="#krpvf"/></g></g><g><g/><g clip-path="url(#krpvg)"><use fill="#4ec4f2" xlink:href="#krpvf"/></g><g clip-path="url(#krpvg)" opacity=".5"><use fill="url(#krpvh)" xlink:href="#krpvf"/></g></g><g><g/><g clip-path="url(#krpvi)"><use fill="#ebecf5" fill-opacity=".5" xlink:href="#krpvf"/></g></g><g><g/><g clip-path="url(#krpvj)"><use fill="#ebecf5" fill-opacity=".5" xlink:href="#krpvk"/></g></g></g></g></svg>