<svg xmlns="http://www.w3.org/2000/svg" xmlns:xlink="http://www.w3.org/1999/xlink" width="91" height="97" viewBox="0 0 91 97"><defs><path id="lx8sa" d="M842 4239v-3a3 3 0 0 1 0-6v-29h28.535a3.998 3.998 0 0 0 3.465 2c1.48 0 2.773-.804 3.465-2H882v38z"/><path id="lx8sf" d="M800 4200c0-22.091 17.909-40 40-40s40 17.909 40 40-17.909 40-40 40-40-17.909-40-40zm40 28c15.464 0 28-12.536 28-28s-12.536-28-28-28-28 12.536-28 28 12.536 28 28 28z"/><path id="lx8sb" d="M800 4241v-40h3.17a3 3 0 1 1 5.659 0H840v28.126a4.002 4.002 0 0 0 0 7.748V4241z"/><path id="lx8sc" d="M842 4198v-28.535a3.998 3.998 0 0 0 2-3.465c0-1.48-.804-2.773-2-3.465V4160h40v38h-5a3 3 0 0 1-6 0z"/><path id="lx8sd" d="M800 4199v-40h40v4.17a3.001 3.001 0 0 1 0 5.66V4199h-30.126a4.002 4.002 0 0 0-7.748 0z"/><path id="lx8sk" d="M800 4200c0-22.091 17.909-40 40-40s40 17.909 40 40-17.909 40-40 40-40-17.909-40-40zm39.9 27.9c15.464 0 28-12.536 28-28s-12.536-28-28-28-28 12.536-28 28 12.536 28 28 28z"/><linearGradient id="lx8sg" x1="839.44" x2="839.44" y1="4200" y2="4240" gradientUnits="userSpaceOnUse"><stop offset="0" stop-color="#fff" stop-opacity="0"/><stop offset="1"/></linearGradient><clipPath id="lx8se"><use xlink:href="#lx8sa"/></clipPath><clipPath id="lx8sh"><use xlink:href="#lx8sb"/></clipPath><clipPath id="lx8si"><use xlink:href="#lx8sc"/></clipPath><clipPath id="lx8sj"><use xlink:href="#lx8sd"/></clipPath></defs><g><g transform="translate(-800 -4160)"><g><g/><g clip-path="url(#lx8se)"><use fill="#ffd152" xlink:href="#lx8sf"/></g><g clip-path="url(#lx8se)" opacity=".5"><use fill="url(#lx8sg)" xlink:href="#lx8sf"/></g></g><g><g/><g clip-path="url(#lx8sh)"><use fill="#ebecf5" fill-opacity=".5" xlink:href="#lx8sf"/></g></g><g><g/><g clip-path="url(#lx8si)"><use fill="#ebecf5" fill-opacity=".5" xlink:href="#lx8sf"/></g></g><g><g/><g clip-path="url(#lx8sj)"><use fill="#ebecf5" fill-opacity=".5" xlink:href="#lx8sk"/></g></g></g></g></svg>