<svg xmlns="http://www.w3.org/2000/svg" xmlns:xlink="http://www.w3.org/1999/xlink" width="16" height="16" viewBox="0 0 16 16"><defs><path id="og9ga" d="M1073.816 11975c.653 0 1.184.516 1.184 1.154v13.691c0 .638-.531 1.155-1.184 1.155h-13.636c-.651 0-1.18-.517-1.18-1.155v-13.691c0-.638.529-1.154 1.18-1.154h13.636m-11.257 2.203c-.762 0-1.377.618-1.377 1.38 0 .763.615 1.382 1.377 1.382.76 0 1.375-.619 1.375-1.381 0-.763-.616-1.381-1.375-1.381zm-1.188 11.42h2.375v-7.625h-2.375zm3.864-7.625v7.636h2.37v-3.777c0-.996.189-1.961 1.424-1.961 1.218 0 1.233 1.14 1.233 2.024v3.714h2.373v-4.188c0-2.056-.444-3.637-2.848-3.637-1.154 0-1.928.633-2.245 1.233h-.032v-1.044h-2.275"/></defs><g><g transform="translate(-1059 -11975)"><use fill="#bdc3ff" xlink:href="#og9ga"/></g></g></svg>