<svg xmlns="http://www.w3.org/2000/svg" xmlns:xlink="http://www.w3.org/1999/xlink" width="104" height="108" viewBox="0 0 104 108"><defs><path id="23x0a" d="M404.273 715.478c5.456 1.889 12.809 4.115 19.226 4.666 3.678.288 15.809.5 28.642-5.265 4.912-2.163 14.467-6.755 23.762-17.078 6.281-6.977 14.63-21.444 16.423-31.924 1.838-11.74-1.354-30.2-7.018-40.397-1.045-1.913-3.464-5.837-6.397-9.744-1.303-.494-3.462-4.746-8.575-2.026a4.854 4.854 0 0 1-2.226 1.277c-8.438 9.371-15.25 13.362-12.572 21.036 5.328 6.532 8.288 15.115 7.478 23.526-.696 6.792-2.741 9.064-4.242 11.837-1.375 2.337-1.927 4.043-4.933 7.382-8.334 9.255-20.606 11.67-28.92 10.23-4.063-.646-8.32-2.697-12.137-5.197-.763-.078-1.766-.172-2.481-.394-5.721.708-8.285 3.696-12.51 8.53-9.979 11.417-9.403 12.732-6.682 15.64 6.862 5.497 10.902 7.12 13.162 7.901z"/></defs><g><g opacity=".21" transform="translate(-390 -559)"><use fill="#4ec4f2" xlink:href="#23x0a"/></g></g></svg>