<svg xmlns="http://www.w3.org/2000/svg" xmlns:xlink="http://www.w3.org/1999/xlink" width="39" height="36" viewBox="0 0 39 36"><defs><path id="6twqa" d="M969.347 456.25c.566-1.95 1.217-4.571 1.297-6.833.036-1.296-.103-5.556-2.35-9.947-.844-1.682-2.622-4.946-6.405-8.009-2.556-2.07-7.775-4.722-11.48-5.15-4.148-.42-10.563 1.054-14.039 3.236-.652.403-1.985 1.327-3.303 2.43-.15.468-1.603 1.306-.56 3.048.224.2.395.46.488.756 3.433 2.781 4.952 5.095 7.595 4.008 2.196-1.995 5.153-3.197 8.116-3.074 2.393.114 3.226.788 4.224 1.261.844.438 1.452.598 2.675 1.59 3.391 2.745 4.454 7.004 4.095 9.949-.155 1.437-.799 2.97-1.608 4.357-.014.27-.03.623-.094.878.348 1.994 1.441 2.836 3.21 4.225 4.178 3.282 4.629 3.055 5.6 2.045 1.807-2.513 2.305-3.961 2.539-4.77z"/></defs><g><g opacity=".21" transform="translate(-932 -817)"><use fill="#7882e4" xlink:href="#6twqa"/></g></g></svg>