<svg xmlns="http://www.w3.org/2000/svg" xmlns:xlink="http://www.w3.org/1999/xlink" width="34" height="55" viewBox="0 0 34 55"><defs><path id="s6o9a" d="M698.324 682.927c-2.489.34-5.78.923-8.376 1.969-1.483.61-6.227 2.908-10.059 7.652-1.475 1.799-4.268 5.447-5.825 11.257-1.052 3.928-1.421 11.154-.04 15.553 1.614 4.896 6.51 11.4 10.726 14.229.784.534 2.5 1.575 4.41 2.51.604-.066 2.283 1.153 3.726-.9.113-.353.32-.676.61-.93 1.413-5.275 3.263-8.153.704-10.592-3.36-1.478-6.208-4.213-7.561-7.621-1.076-2.76-.734-4.039-.701-5.405.07-1.172-.055-1.94.449-3.819 1.396-5.21 5.674-8.55 9.182-9.624 1.703-.547 3.759-.59 5.734-.373.311-.12.719-.28 1.04-.334 2.077-1.396 2.479-3.053 3.158-5.749 1.606-6.368 1.122-6.763-.51-7.352-3.748-.778-5.635-.612-6.667-.47z"/></defs><g><g opacity=".15" transform="translate(-673 -542)"><use fill="#4ec4f2" xlink:href="#s6o9a"/></g></g></svg>