<svg xmlns="http://www.w3.org/2000/svg" xmlns:xlink="http://www.w3.org/1999/xlink" width="62" height="83" viewBox="0 0 62 83"><defs><path id="7mpta" d="M809.624 609.168c2.58-3.062 5.85-7.268 7.802-11.283 1.102-2.309 4.256-10.106 3.717-19.841-.178-3.716-.774-11.038-5.144-19.614-2.953-5.796-10.241-14.788-16.578-18.548-7.141-4.103-19.884-6.618-27.893-5.483-1.499.202-4.64.793-7.898 1.722-.645.72-3.934 1.062-3.445 5.046.242.54.343 1.146.273 1.758 3.967 7.785 4.855 13.184 10.489 13.354 5.553-1.827 11.845-1.613 17.088.999 4.223 2.135 5.184 4.022 6.606 5.682 1.17 1.47 2.138 2.25 3.551 5.024 3.918 7.689 2.428 16.23-.572 21.253-1.429 2.468-3.815 4.713-6.382 6.563-.24.475-.552 1.1-.873 1.508-.965 3.878.332 6.279 2.41 10.212 4.907 9.29 5.902 9.244 8.46 8.204 5.266-3.075 7.32-5.287 8.389-6.556z"/></defs><g><g opacity=".21" transform="translate(-760 -662)"><use fill="#bdc3ff" xlink:href="#7mpta"/></g></g></svg>