<svg xmlns="http://www.w3.org/2000/svg" xmlns:xlink="http://www.w3.org/1999/xlink" width="12" height="19" viewBox="0 0 12 19"><defs><path id="gfzwa" d="M934.166 647.656c.853-.088 1.982-.25 2.88-.578.514-.191 2.16-.923 3.525-2.502a10.05 10.05 0 0 0 2.125-3.786c.407-1.332.622-3.801.205-5.323-.49-1.694-2.08-3.977-3.482-4.993-.26-.192-.833-.568-1.473-.91-.206.015-.764-.421-1.281.265a.72.72 0 0 1-.22.311c-.546 1.79-1.213 2.753-.37 3.617 1.127.545 2.065 1.514 2.484 2.696.333.957.2 1.39.172 1.857-.038.4-.005.665-.2 1.302-.54 1.767-2.04 2.861-3.25 3.188-.587.168-1.288.159-1.959.062-.108.037-.249.087-.359.102-.725.454-.883 1.017-1.148 1.931-.625 2.161-.465 2.302.083 2.523 1.27.31 1.915.274 2.268.238z"/></defs><g><g opacity=".21" transform="translate(-931 -631)"><use fill="#f5f8fd" xlink:href="#gfzwa"/></g></g></svg>