<svg xmlns="http://www.w3.org/2000/svg" xmlns:xlink="http://www.w3.org/1999/xlink" width="16" height="24" viewBox="0 0 16 24"><defs><path id="a0sxa" d="M826.823 747.477c.835-.736 1.906-1.758 2.607-2.776.398-.586 1.584-2.585 1.831-5.243.102-1.013.236-3.019-.619-5.5-.577-1.678-2.219-4.379-3.811-5.626-1.8-1.37-5.207-2.512-7.46-2.494-.42 0-1.31.048-2.245.182-.206.172-1.126.146-1.153 1.243a.903.903 0 0 1 .003.486c.776 2.253.801 3.748 2.346 3.998 1.603-.295 3.328-.01 4.665.888 1.077.731 1.265 1.277 1.589 1.778.262.44.497.687.773 1.49.767 2.225.009 4.486-1.022 5.74-.494.617-1.242 1.139-2.025 1.548-.085.12-.196.278-.301.377-.424 1.016-.164 1.713.248 2.854.974 2.695 1.25 2.719 1.996 2.53 1.576-.644 2.232-1.17 2.578-1.475z"/></defs><g><g opacity=".21" transform="translate(-816 -530)"><use fill="#4ec4f2" xlink:href="#a0sxa"/></g></g></svg>