<svg xmlns="http://www.w3.org/2000/svg" xmlns:xlink="http://www.w3.org/1999/xlink" width="109" height="90" viewBox="0 0 109 90"><defs><path id="zi0qa" d="M916.219 796.266c-4.59-3.009-10.849-6.769-16.625-8.77-3.317-1.121-14.425-4.14-27.53-1.82-5.007.849-14.831 2.853-25.712 10.192-7.355 4.96-18.302 16.336-22.32 25.565-4.345 10.379-5.583 28.115-2.68 38.82.529 2.005 1.866 6.18 3.68 10.46 1.088.758 2.111 5.174 7.428 3.86a4.564 4.564 0 0 1 2.336-.657c9.878-6.663 17.046-8.751 16.317-16.439-3.423-7.253-4.205-15.843-1.558-23.397 2.175-6.09 4.57-7.706 6.577-9.91 1.792-1.83 2.685-3.273 6.205-5.647 9.756-6.58 21.587-5.947 28.908-2.686 3.59 1.54 7.04 4.418 9.986 7.608.684.25 1.585.57 2.193.94 5.421.68 8.454-1.474 13.432-4.94 11.758-8.187 11.525-9.532 9.68-12.842-5.066-6.658-8.415-9.091-10.317-10.337z"/></defs><g><g opacity=".21" transform="translate(-819 -404)"><use fill="#4ec4f2" xlink:href="#zi0qa"/></g></g></svg>