<svg xmlns="http://www.w3.org/2000/svg" xmlns:xlink="http://www.w3.org/1999/xlink" width="127" height="335" viewBox="0 0 127 335"><defs><path id="nxzha" d="M262 6352.231c0-8.412 6.82-15.231 15.231-15.231h101.244a7.615 7.615 0 0 1 7.615 7.615v49.144c0 8.412-6.82 15.231-15.231 15.231H269.615a7.615 7.615 0 0 1-7.615-7.615z"/><path id="nxzhb" d="M262 6304.631c0-8.412 6.82-15.231 15.231-15.231h101.244a7.615 7.615 0 0 1 7.615 7.615v49.144c0 8.412-6.82 15.231-15.231 15.231H269.615a7.615 7.615 0 0 1-7.615-7.615z"/><path id="nxzhc" d="M262 6271.231c0-8.412 6.82-15.231 15.231-15.231h101.244a7.615 7.615 0 0 1 7.615 7.615v49.144c0 8.412-6.82 15.231-15.231 15.231H269.615a7.615 7.615 0 0 1-7.615-7.615z"/><path id="nxzhd" d="M262 6223.631c0-8.412 6.82-15.231 15.231-15.231h101.244a7.615 7.615 0 0 1 7.615 7.615v49.144c0 8.412-6.82 15.231-15.231 15.231H269.615a7.615 7.615 0 0 1-7.615-7.615z"/><path id="nxzhe" d="M262 6189.231c0-8.412 6.82-15.231 15.231-15.231h101.244a7.615 7.615 0 0 1 7.615 7.615v49.144c0 8.412-6.82 15.231-15.231 15.231H269.615a7.615 7.615 0 0 1-7.615-7.615z"/><path id="nxzhf" d="M262 6141.631c0-8.412 6.82-15.231 15.231-15.231h101.244a7.615 7.615 0 0 1 7.615 7.615v49.144c0 8.412-6.82 15.231-15.231 15.231H269.615a7.615 7.615 0 0 1-7.615-7.615z"/><path id="nxzhg" d="M263 6108.231c0-8.412 6.82-15.231 15.231-15.231h101.244a7.615 7.615 0 0 1 7.615 7.615v49.144c0 8.412-6.82 15.231-15.231 15.231H270.615a7.615 7.615 0 0 1-7.615-7.615z"/><path id="nxzhh" d="M262 6372.231c0-8.412 6.82-15.231 15.231-15.231h101.244a7.615 7.615 0 0 1 7.615 7.615v48.134c0 8.412-6.82 15.231-15.231 15.231H269.615a7.615 7.615 0 0 1-7.615-7.615z"/><path id="nxzho" d="M262 6291.221c0-8.412 6.82-15.231 15.231-15.231h101.244a7.615 7.615 0 0 1 7.615 7.615v49.144c0 8.412-6.82 15.231-15.231 15.231H269.615a7.615 7.615 0 0 1-7.615-7.615z"/><path id="nxzhv" d="M270.5 6234.94v55.22"/><path id="nxzhw" d="M268 6290.5a2.5 2.5 0 1 1 5 0 2.5 2.5 0 0 1-5 0z"/><path id="nxzhx" d="M323.5 6263.94v55.22"/><path id="nxzhy" d="M321 6319.5a2.5 2.5 0 1 1 5 0 2.5 2.5 0 0 1-5 0z"/><path id="nxzhz" d="M377.5 6234.94v55.22"/><path id="nxzhA" d="M375 6290.5a2.5 2.5 0 1 1 5 0 2.5 2.5 0 0 1-5 0z"/><path id="nxzhB" d="M262 6209.221c0-8.412 6.82-15.231 15.231-15.231h101.244a7.615 7.615 0 0 1 7.615 7.615v49.144c0 8.412-6.82 15.231-15.231 15.231H269.615a7.615 7.615 0 0 1-7.615-7.615z"/><path id="nxzhI" d="M270.5 6153.94v55.22"/><path id="nxzhJ" d="M268 6209.5a2.5 2.5 0 1 1 5 0 2.5 2.5 0 0 1-5 0z"/><path id="nxzhK" d="M323.5 6182.94v55.22"/><path id="nxzhL" d="M321 6238.5a2.5 2.5 0 1 1 5 0 2.5 2.5 0 0 1-5 0z"/><path id="nxzhM" d="M377.5 6153.94v55.22"/><path id="nxzhN" d="M375 6209.5a2.5 2.5 0 1 1 5 0 2.5 2.5 0 0 1-5 0z"/><path id="nxzhO" d="M262.95 6128.221c0-8.412 6.82-15.231 15.231-15.231h101.244a7.615 7.615 0 0 1 7.615 7.615v49.144c0 8.412-6.82 15.231-15.231 15.231H270.565a7.615 7.615 0 0 1-7.615-7.615z"/><linearGradient id="nxzhi" x1="311.67" x2="334.17" y1="6392.49" y2="6392.49" gradientUnits="userSpaceOnUse"><stop offset="0" stop-color="#e0e3ff"/><stop offset="1" stop-color="#cbcef4"/></linearGradient><mask id="nxzhk" width="2" height="2" x="-1" y="-1"><path fill="#fff" d="M262 6337h125v72H262z"/><use xlink:href="#nxzha"/></mask><filter id="nxzhj" width="146" height="93" x="251" y="6327" filterUnits="userSpaceOnUse"><feOffset dx="-1" dy="1" in="SourceGraphic" result="FeOffset2045Out"/><feGaussianBlur in="FeOffset2045Out" result="FeGaussianBlur2046Out" stdDeviation="0 0"/></filter><mask id="nxzhn" width="2" height="2" x="-1" y="-1"><path fill="#fff" d="M262 6289h125v73H262z"/><use xlink:href="#nxzhb"/></mask><filter id="nxzhm" width="176" height="135" x="240" y="6267" filterUnits="userSpaceOnUse"><feOffset dx="7" dy="18" in="SourceGraphic" result="FeOffset2061Out"/><feGaussianBlur in="FeOffset2061Out" result="FeGaussianBlur2062Out" stdDeviation="4.8 4.8"/></filter><linearGradient id="nxzhp" x1="311.63" x2="334.2" y1="6311.98" y2="6311.98" gradientUnits="userSpaceOnUse"><stop offset="0" stop-color="#6671df"/><stop offset="1" stop-color="#414ecb"/></linearGradient><mask id="nxzhr" width="2" height="2" x="-1" y="-1"><path fill="#fff" d="M262 6256h125v72H262z"/><use xlink:href="#nxzhc"/></mask><filter id="nxzhq" width="146" height="93" x="251" y="6246" filterUnits="userSpaceOnUse"><feOffset dx="-1" dy="1" in="SourceGraphic" result="FeOffset2088Out"/><feGaussianBlur in="FeOffset2088Out" result="FeGaussianBlur2089Out" stdDeviation="0 0"/></filter><mask id="nxzhu" width="2" height="2" x="-1" y="-1"><path fill="#fff" d="M262 6208h125v73H262z"/><use xlink:href="#nxzhd"/></mask><filter id="nxzht" width="176" height="135" x="240" y="6186" filterUnits="userSpaceOnUse"><feOffset dx="7" dy="18" in="SourceGraphic" result="FeOffset2104Out"/><feGaussianBlur in="FeOffset2104Out" result="FeGaussianBlur2105Out" stdDeviation="4.8 4.8"/></filter><linearGradient id="nxzhC" x1="311.63" x2="334.2" y1="6229.98" y2="6229.98" gradientUnits="userSpaceOnUse"><stop offset="0" stop-color="#e0e3ff"/><stop offset="1" stop-color="#cbcef4"/></linearGradient><mask id="nxzhE" width="2" height="2" x="-1" y="-1"><path fill="#fff" d="M262 6174h125v72H262z"/><use xlink:href="#nxzhe"/></mask><filter id="nxzhD" width="146" height="93" x="251" y="6164" filterUnits="userSpaceOnUse"><feOffset dx="-1" dy="1" in="SourceGraphic" result="FeOffset2163Out"/><feGaussianBlur in="FeOffset2163Out" result="FeGaussianBlur2164Out" stdDeviation="0 0"/></filter><mask id="nxzhH" width="2" height="2" x="-1" y="-1"><path fill="#fff" d="M262 6126h125v73H262z"/><use xlink:href="#nxzhf"/></mask><filter id="nxzhG" width="176" height="135" x="240" y="6104" filterUnits="userSpaceOnUse"><feOffset dx="7" dy="18" in="SourceGraphic" result="FeOffset2179Out"/><feGaussianBlur in="FeOffset2179Out" result="FeGaussianBlur2180Out" stdDeviation="4.8 4.8"/></filter><linearGradient id="nxzhP" x1="312.58" x2="335.15" y1="6148.98" y2="6148.98" gradientUnits="userSpaceOnUse"><stop offset="0" stop-color="#e0e3ff"/><stop offset="1" stop-color="#cbcef4"/></linearGradient><mask id="nxzhR" width="2" height="2" x="-1" y="-1"><path fill="#fff" d="M263 6093h125v72H263z"/><use xlink:href="#nxzhg"/></mask><filter id="nxzhQ" width="146" height="93" x="252" y="6083" filterUnits="userSpaceOnUse"><feOffset dx="-1" dy="1" in="SourceGraphic" result="FeOffset2238Out"/><feGaussianBlur in="FeOffset2238Out" result="FeGaussianBlur2239Out" stdDeviation="0 0"/></filter><clipPath id="nxzhl"><use xlink:href="#nxzha"/></clipPath><clipPath id="nxzhs"><use xlink:href="#nxzhc"/></clipPath><clipPath id="nxzhF"><use xlink:href="#nxzhe"/></clipPath></defs><g><g transform="translate(-261 -6093)"><g><use fill="url(#nxzhi)" xlink:href="#nxzhh"/></g><g><g><g filter="url(#nxzhj)"><use fill="none" stroke-opacity=".33" stroke-width="0" mask="url(&quot;#nxzhk&quot;)" xlink:href="#nxzha"/><use fill="#fff" fill-opacity=".33" xlink:href="#nxzha"/></g><use fill="#d8dcff" xlink:href="#nxzha"/></g><g clip-path="url(#nxzhl)"><g filter="url(#nxzhm)"><use fill="none" stroke-width="0" mask="url(&quot;#nxzhn&quot;)" xlink:href="#nxzhb"/><use fill="#c2c7f2" xlink:href="#nxzhb"/></g></g></g></g><g transform="translate(-261 -6093)"><g><use fill="url(#nxzhp)" xlink:href="#nxzho"/></g><g><g><g filter="url(#nxzhq)"><use fill="none" stroke-opacity=".09" stroke-width="0" mask="url(&quot;#nxzhr&quot;)" xlink:href="#nxzhc"/><use fill="#fff" fill-opacity=".09" xlink:href="#nxzhc"/></g><use fill="#414ecc" xlink:href="#nxzhc"/></g><g clip-path="url(#nxzhs)"><g filter="url(#nxzht)"><use fill="none" stroke-width="0" mask="url(&quot;#nxzhu&quot;)" xlink:href="#nxzhd"/><use fill="#2f3a9c" xlink:href="#nxzhd"/></g></g></g></g><g opacity=".3" transform="translate(-261 -6093)"><g opacity=".3"><use fill="#fff" fill-opacity="0" stroke="#bdc3ff" stroke-miterlimit="50" xlink:href="#nxzhv"/></g><g opacity=".3"><use fill="#bdc3ff" xlink:href="#nxzhw"/></g><g opacity=".3"><use fill="#fff" fill-opacity="0" stroke="#bdc3ff" stroke-miterlimit="50" xlink:href="#nxzhx"/></g><g opacity=".3"><use fill="#bdc3ff" xlink:href="#nxzhy"/></g><g opacity=".3"><use fill="#fff" fill-opacity="0" stroke="#bdc3ff" stroke-miterlimit="50" xlink:href="#nxzhz"/></g><g opacity=".3"><use fill="#bdc3ff" xlink:href="#nxzhA"/></g></g><g transform="translate(-261 -6093)"><g><use fill="url(#nxzhC)" xlink:href="#nxzhB"/></g><g><g><g filter="url(#nxzhD)"><use fill="none" stroke-opacity=".33" stroke-width="0" mask="url(&quot;#nxzhE&quot;)" xlink:href="#nxzhe"/><use fill="#fff" fill-opacity=".33" xlink:href="#nxzhe"/></g><use fill="#d8dcff" xlink:href="#nxzhe"/></g><g clip-path="url(#nxzhF)"><g filter="url(#nxzhG)"><use fill="none" stroke-width="0" mask="url(&quot;#nxzhH&quot;)" xlink:href="#nxzhf"/><use fill="#c2c7f2" xlink:href="#nxzhf"/></g></g></g></g><g transform="translate(-261 -6093)"><g><use fill="#fff" fill-opacity="0" stroke="#bdc3ff" stroke-miterlimit="50" xlink:href="#nxzhI"/></g><g><use fill="#bdc3ff" xlink:href="#nxzhJ"/></g><g><use fill="#fff" fill-opacity="0" stroke="#bdc3ff" stroke-miterlimit="50" xlink:href="#nxzhK"/></g><g><use fill="#bdc3ff" xlink:href="#nxzhL"/></g><g><use fill="#fff" fill-opacity="0" stroke="#bdc3ff" stroke-miterlimit="50" xlink:href="#nxzhM"/></g><g><use fill="#bdc3ff" xlink:href="#nxzhN"/></g></g><g transform="translate(-261 -6093)"><g><g><use fill="url(#nxzhP)" xlink:href="#nxzhO"/></g><g><g filter="url(#nxzhQ)"><use fill="none" stroke-opacity=".33" stroke-width="0" mask="url(&quot;#nxzhR&quot;)" xlink:href="#nxzhg"/><use fill="#fff" fill-opacity=".33" xlink:href="#nxzhg"/></g><use fill="#d8dcff" xlink:href="#nxzhg"/></g></g></g></g></svg>