<svg xmlns="http://www.w3.org/2000/svg" xmlns:xlink="http://www.w3.org/1999/xlink" width="22" height="19" viewBox="0 0 22 19"><defs><path  id="mms9a" d="M1216.404 19.5a.953.953 0 0 1-.057-1.817l19.229-7.607c.759-.297 1.563.322 1.407 1.082l-3.496 17.054c-.147.714-1.043 1.029-1.65.58l-5.029-3.723-2.837 2.985c-.567.595-1.611.328-1.78-.456l-1.024-6.492zm5.677.195c.233.076.426.227.548.42l7.384-3.384-4.916 4.599v2.572l.635-.693a1.077 1.077 0 0 1 1.405-.116l4.85 3.67 2.99-14.561-16.491 6.484z"/></defs><g><g transform="translate(-1215 -10)"><use fill="#bdc3ff" xlink:href="#mms9a"/></g></g></svg>