<svg xmlns="http://www.w3.org/2000/svg" xmlns:xlink="http://www.w3.org/1999/xlink" width="15" height="13" viewBox="0 0 15 13"><defs><path id="rnpca" d="M813 11977.539a5.834 5.834 0 0 1-1.767.516 3.26 3.26 0 0 0 1.353-1.815 5.926 5.926 0 0 1-1.955.796 2.984 2.984 0 0 0-2.246-1.036c-1.699 0-3.076 1.47-3.076 3.282 0 .257.026.507.079.747-2.558-.137-4.825-1.442-6.344-3.43a3.446 3.446 0 0 0-.416 1.652c0 1.138.543 2.142 1.369 2.731a2.935 2.935 0 0 1-1.395-.41v.041c0 1.59 1.061 2.918 2.47 3.218a2.878 2.878 0 0 1-1.39.057c.391 1.304 1.527 2.253 2.874 2.278a5.934 5.934 0 0 1-4.556 1.36 8.335 8.335 0 0 0 4.717 1.474c5.662 0 8.756-5 8.756-9.337 0-.143-.002-.286-.008-.425a6.472 6.472 0 0 0 1.535-1.699"/></defs><g><g transform="translate(-798 -11976)"><use fill="#bdc3ff" xlink:href="#rnpca"/></g></g></svg>