<?xml version="1.0" standalone="no"?>
<!DOCTYPE svg PUBLIC "-//W3C//DTD SVG 1.1//EN" "http://www.w3.org/Graphics/SVG/1.1/DTD/svg11.dtd" >
<svg xmlns="http://www.w3.org/2000/svg" xmlns:xlink="http://www.w3.org/1999/xlink" version="1.1">
<metadata>
Created by FontForge 20170910 at Thu Dec 15 09:12:06 2011
 By Jimmy Wärting
Copyright (c) 2011, Sorkin Type Co (www.sorkintype.com)with Reserved Font Name "Armata"
</metadata>
<defs>
<font id="Armata-Regular" horiz-adv-x="1364" >
  <font-face 
    font-family="Armata"
    font-weight="400"
    font-stretch="normal"
    units-per-em="2048"
    panose-1="2 11 5 3 4 5 0 6 2 4"
    ascent="1638"
    descent="-410"
    x-height="1190"
    cap-height="1530"
    bbox="-128 -560 2655 2000"
    underline-thickness="118"
    underline-position="-185"
    unicode-range="U+0001-FB02"
  />
<missing-glyph horiz-adv-x="1534" 
d="M172 1530h1190v-1530h-1190v1530zM1232 376l-370 370l376 376l-94 94l-376 -375l-376 375l-97 -98l376 -375l-371 -371l95 -93l369 369l371 -368z" />
    <glyph glyph-name=".notdef" horiz-adv-x="1534" 
d="M172 1530h1190v-1530h-1190v1530zM1232 376l-370 370l376 376l-94 94l-376 -375l-376 375l-97 -98l376 -375l-371 -371l95 -93l369 369l371 -368z" />
    <glyph glyph-name=".null" horiz-adv-x="0" 
 />
    <glyph glyph-name="nonmarkingreturn" horiz-adv-x="0" 
 />
    <glyph glyph-name="uni0001" horiz-adv-x="0" 
 />
    <glyph glyph-name="uni0002" horiz-adv-x="0" 
 />
    <glyph glyph-name="uni0003" horiz-adv-x="0" 
 />
    <glyph glyph-name="uni0004" horiz-adv-x="0" 
 />
    <glyph glyph-name="uni0005" horiz-adv-x="0" 
 />
    <glyph glyph-name="uni0006" horiz-adv-x="0" 
 />
    <glyph glyph-name="uni0007" horiz-adv-x="0" 
 />
    <glyph glyph-name="uni0008" horiz-adv-x="0" 
 />
    <glyph glyph-name="uni0009" unicode="&#x9;" horiz-adv-x="0" 
 />
    <glyph glyph-name="uni0010" horiz-adv-x="0" 
 />
    <glyph glyph-name="uni0011" horiz-adv-x="0" 
 />
    <glyph glyph-name="uni0012" horiz-adv-x="0" 
 />
    <glyph glyph-name="uni0013" horiz-adv-x="0" 
 />
    <glyph glyph-name="uni0014" horiz-adv-x="0" 
 />
    <glyph glyph-name="uni0015" horiz-adv-x="0" 
 />
    <glyph glyph-name="uni0016" horiz-adv-x="0" 
 />
    <glyph glyph-name="uni0017" horiz-adv-x="0" 
 />
    <glyph glyph-name="uni0018" horiz-adv-x="0" 
 />
    <glyph glyph-name="uni0019" horiz-adv-x="0" 
 />
    <glyph glyph-name="space" unicode=" " horiz-adv-x="511" 
 />
    <glyph glyph-name="exclam" unicode="!" horiz-adv-x="512" 
d="M164 1530h188l-24 -1118h-131zM265 -19q-70 0 -89 21q-28 31 -28 90.5t5.5 84.5t18.5 39q24 26 76 26t74.5 -5.5t35.5 -20.5q23 -25 23 -103t-18 -99q-28 -33 -98 -33z" />
    <glyph glyph-name="quotedbl" unicode="&#x22;" horiz-adv-x="1026" 
d="M234 1193l-21 612h186l-21 -612h-144zM647 1193l-21 612h186l-21 -612h-144z" />
    <glyph glyph-name="numbersign" unicode="#" horiz-adv-x="1532" 
d="M242 1052h281l92 362h142l-92 -362h377l92 362h142l-93 -362h215v-116h-245l-109 -429h245v-116h-275l-87 -343h-139l87 343h-378l-87 -343h-141l87 343h-223v116h252l109 429h-252v116zM526 507h378l109 429h-378z" />
    <glyph glyph-name="dollar" unicode="$" horiz-adv-x="1194" 
d="M151 261q227 -120 444 -120q252 0 295 161q14 53 14 122v29q0 70 -10 113t-42 70q-52 45 -246 75q-173 27 -239 51t-108.5 52.5t-72.5 71.5q-62 90 -62 223.5t27 209.5t78 125q97 91 293 104v251h150v-251q211 -9 356 -72l-52 -152q-194 84 -353 84h-9q-190 0 -261 -69
q-59 -57 -59 -201v-4q0 -153 90 -204q61 -33 218.5 -58t234.5 -42.5t131 -57.5q112 -84 112 -319v-24q0 -312 -243 -395q-75 -25 -165 -32v-272h-150v272q-265 16 -437 119z" />
    <glyph glyph-name="percent" unicode="%" horiz-adv-x="1875" 
d="M69 1158q0 103 15.5 176.5t55.5 119.5q78 91 286 91q206 0 278 -91q61 -78 61 -290q0 -218 -75 -304q-77 -88 -275 -88q-202 0 -277 90q-69 82 -69 296zM319 904.5q38 -12.5 96.5 -12.5t95.5 12t59 44q39 59 39 230q0 145 -37 196q-37 52 -147 52q-120 0 -162 -52
q-41 -51 -41 -167t8 -171t29.5 -87t59.5 -44.5zM1106 367q0 215 71 297q78 91 286 91q206 0 277 -91q62 -78 62 -291q0 -217 -74 -303q-78 -88 -276 -88q-202 0 -277 90q-69 82 -69 295zM1356 114.5q38 -12.5 96.5 -12.5t95.5 12t58 44q40 59 40 229q0 146 -36 197
q-38 52 -148 52q-120 0 -162 -52q-41 -51 -41 -167t8 -171t29.5 -87t59.5 -44.5zM417 0l858 1530h162l-860 -1530h-160z" />
    <glyph glyph-name="ampersand" unicode="&#x26;" horiz-adv-x="1703" 
d="M285 1149q0 399 458 399q219 0 400 -74l-53 -146q-96 50 -244 75q-54 9 -120 9t-120.5 -10.5t-87.5 -41.5q-64 -57 -64 -234q0 -203 160 -250q48 -14 101 -14h322l43 264h116v-264h294q4 -28 4 -64q0 -37 -4 -65h-294v-427q0 -118 11 -145t29 -36t50 -9q96 0 205 53
l47 -117q-122 -71 -286 -71q-85 0 -133 39.5t-61 106.5q-186 -146 -433 -146q-190 0 -285 86q-109 99 -109 317q0 197 59 291q50 80 184 138q-88 43 -121 88q-68 91 -68 248zM526.5 130.5q47.5 -17.5 120.5 -17.5t135.5 15.5t112.5 37.5q82 36 142 87v480h-325
q-143 0 -197.5 -36t-82 -95t-27.5 -155.5t10 -158.5t37 -101t74.5 -56.5z" />
    <glyph glyph-name="quotesingle" unicode="'" horiz-adv-x="513" 
d="M184 1193l-21 612h186l-21 -612h-144z" />
    <glyph glyph-name="parenleft" unicode="(" horiz-adv-x="851" 
d="M634.013 1856.99q-211.986 -338.979 -266.983 -801.95q-73.9951 -626.962 171.989 -1091.93q46.9971 -88.9951 110.993 -173.989l-104.993 -77.9951q-120.993 120.992 -218.986 350.979q-129.992 305.981 -129.992 691.957q0 544.967 186.988 944.942
q61.9961 132.992 139.991 230.986z" />
    <glyph glyph-name="parenright" unicode=")" horiz-adv-x="852" 
d="M213 -216q212 339 267 802q74 627 -172 1092q-47 89 -111 174l105 78q121 -121 219 -351q130 -306 130 -692q0 -545 -187 -945q-62 -133 -140 -231z" />
    <glyph glyph-name="asterisk" unicode="*" horiz-adv-x="1195" 
d="M425 869l-143 84l219 328l-392 -22v160l393 -27l-232 325l151 84l175 -353l177 358l141 -83l-219 -333l392 27v-160l-392 23l222 -320l-142 -84l-175 350z" />
    <glyph glyph-name="plus" unicode="+" horiz-adv-x="1533" 
d="M694 673h-514v133h514v514h142v-514h515v-133h-515v-535h-142v535z" />
    <glyph glyph-name="comma" unicode="," horiz-adv-x="512" 
d="M81 -376l90 614l32 2q24 2 45 2h39q30 0 47.5 -8.5t17.5 -26.5q0 -25 -8 -60l-131 -523h-132z" />
    <glyph glyph-name="hyphen" unicode="-" horiz-adv-x="1026" 
d="M177 568v145h671v-145h-671z" />
    <glyph glyph-name="period" unicode="." horiz-adv-x="512" 
d="M256 -19q-70 0 -89 21q-28 31 -28 90.5t5.5 84.5t19.5 39q23 26 75 26t74.5 -5.5t35.5 -20.5q23 -25 23 -103t-18 -99q-28 -33 -98 -33z" />
    <glyph glyph-name="slash" unicode="/" horiz-adv-x="854" 
d="M155 -114h-145l679 1940h149z" />
    <glyph glyph-name="zero" unicode="0" horiz-adv-x="1534" 
d="M733 -20q-351 0 -446 224q-56 131 -60 346q-2 101 -2 214v60q0 268 22 373t55.5 166.5t89.5 102.5q113 84 341 84h62q243 0 359 -82q144 -103 154 -425q3 -100 3 -219v-60q0 -278 -18.5 -385.5t-50.5 -177.5t-90 -119q-119 -102 -357 -102h-62zM793 129q108 0 174.5 24
t104 84t50.5 162.5t13 259.5v165q0 153 -6 262t-37.5 178t-98.5 101.5t-188 32.5h-84q-217 0 -276 -136q-37 -87 -41 -212.5t-4 -225.5v-165q0 -304 64 -413q70 -117 269 -117h60z" />
    <glyph glyph-name="one" unicode="1" horiz-adv-x="858" 
d="M362 1387l-242 -29l-14 138l426 54v-1550h-170v1387z" />
    <glyph glyph-name="two" unicode="2" horiz-adv-x="1196" 
d="M805 1191q0 214 -235 214q-123 0 -274 -69q-43 -20 -75 -42l-66 139q106 82 313 110q58 8 139.5 8t160.5 -25.5t128 -71.5q93 -86 93 -244q0 -178 -127 -390q-105 -173 -251 -354l-265 -320h662v-146h-862l-12 129q75 81 153 175q265 331 390 520q128 201 128 367z" />
    <glyph glyph-name="three" unicode="3" horiz-adv-x="1195" 
d="M564 125q261 0 261 313v17q0 254 -185 278q-54 7 -110.5 7t-107.5 -3l-99 -6l-13 130q189 47 319 142q141 103 139.5 209.5t-58 151t-183.5 43.5q-171 0 -329 -83l-52 148q156 74 397 78q196 2 303 -86q99 -83 101 -226q3 -211 -219 -320q-66 -32 -139 -59l2 -9
q235 4 328 -89q89 -89 89 -302l-1 -43q-7 -236 -155 -344q-125 -92 -341 -92q-233 0 -413 80l48 150q206 -85 418 -85z" />
    <glyph glyph-name="four" unicode="4" horiz-adv-x="1366" 
d="M141 499l611 1031h277v-1003h174v-130l-174 -15v-382h-168v382h-720v117zM861 527l-1 881l-514 -881h515z" />
    <glyph glyph-name="five" unicode="5" horiz-adv-x="1196" 
d="M167 206q203 -82 409 -82q155 0 216 98q56 88 56 290q0 178 -58 252q-61 77 -211 77q-71 0 -158 -11t-197 -23v723h757v-145h-595v-435l114 18q59 9 156 9t170 -31.5t116 -87.5q76 -100 80 -309v-51q0 -282 -120 -403q-115 -115 -363 -115q-231 0 -421 79z" />
    <glyph glyph-name="six" unicode="6" horiz-adv-x="1366" 
d="M1080 1336q-175 71 -373 71q-82 0 -142.5 -15t-99.5 -62q-79 -96 -75 -372l1 -107q116 78 285 105q58 9 133 9t139 -15.5t107.5 -43.5t69.5 -67t39 -87q22 -76 22 -216v-94q0 -201 -76 -309q-107 -153 -389 -153q-271 0 -388 108q-115 107 -115 345v528q1 148 22 258.5
t80 184.5q116 146 434 146q187 0 318 -38q38 -11 58 -23zM391 483q0 -198 48 -268q59 -87 243 -87h57q165 0 223 74q51 65 51 241v57q0 197 -45 256q-25 34 -70 46t-115 12h-28q-207 0 -364 -90v-241z" />
    <glyph glyph-name="seven" unicode="7" horiz-adv-x="1024" 
d="M944 1397q-299 -597 -556 -1397h-176q122 373 229 638l179 428l145 319h-687v145h866v-133z" />
    <glyph glyph-name="eight" unicode="8" horiz-adv-x="1366" 
d="M224 1194v14q0 181 132 266q117 76 331 76h14q227 0 329 -74q111 -80 111 -265v-16q0 -202 -156 -303q-53 -35 -125 -64q167 -59 236 -149q72 -93 72 -251v-58q0 -327 -305 -376q-91 -14 -192.5 -14t-187 15t-147.5 57q-133 92 -133 318v69q0 194 161 299q61 40 153 72
q-239 74 -280 258q-13 58 -13 126zM370 371q0 -201 165 -235q52 -10 116 -10h68q141 0 204 46q77 56 77 199v65q0 126 -75 192q-68 61 -243 117q-187 -60 -250 -123q-62 -63 -62 -186v-65zM982 1214q0 60 -20 98.5t-58 59.5q-63 35 -176.5 35t-170.5 -8t-95 -31
q-79 -48 -79 -178q0 -127 67 -185q56 -49 251 -115q170 57 229 132q52 66 52 192z" />
    <glyph glyph-name="nine" unicode="9" horiz-adv-x="1366" 
d="M285 201q186 -77 373 -77q84 0 144.5 15t99.5 62q75 90 73 371l-1 107q-173 -114 -403 -114q-247 0 -331 126q-48 73 -57 189q-4 55 -4 114v94q0 201 75 309q108 153 390 153q271 0 388 -108q115 -107 115 -345v-528q-1 -148 -22 -258.5t-77 -184.5q-112 -146 -417 -146
q-187 0 -335 50q-39 13 -60 24zM974 1047q0 198 -48 268q-59 87 -243 87h-57q-165 0 -223 -74q-51 -65 -51 -241v-58q0 -197 44 -256q26 -34 70.5 -46t115.5 -12h28q152 0 295 57q40 16 69 33v242z" />
    <glyph glyph-name="colon" unicode=":" horiz-adv-x="512" 
d="M254 -19q-68 0 -86 19q-28 31 -28 88.5t5.5 82t18.5 38.5q25 25 74.5 25t71 -5.5t34.5 -19.5q23 -25 23 -81.5t-5 -81.5t-18 -40q-23 -25 -90 -25zM254 813q-68 0 -86 20q-28 31 -28 88.5t5.5 81.5t18.5 38q25 25 74.5 25t71 -5.5t34.5 -19.5q23 -25 23 -100
q0 -76 -18 -96q-29 -32 -95 -32z" />
    <glyph glyph-name="semicolon" unicode=";" horiz-adv-x="512" 
d="M257 813q-68 0 -86 20q-28 31 -28 88.5t5.5 81.5t19.5 38q24 25 73.5 25t71 -5.5t34.5 -19.5q23 -25 23 -100q0 -76 -18 -96q-29 -32 -95 -32zM81 -376l90 614l32 2q24 2 45 2h39q30 0 47.5 -8.5t17.5 -26.5q0 -25 -8 -60l-131 -523h-132z" />
    <glyph glyph-name="less" unicode="&#x3c;" horiz-adv-x="1374" 
d="M160.073 705.036l912.944 488.97l59.9961 -122.992l-814.95 -436.974l814.95 -416.975l-58.9971 -120.992l-913.943 470.971v137.992z" />
    <glyph glyph-name="equal" unicode="=" 
d="M189 807v130h984v-130h-984zM189 413v131h984v-131h-984z" />
    <glyph glyph-name="greater" unicode="&#x3e;" horiz-adv-x="1374" 
d="M1193 585l-913 -489l-60 123l815 437l-815 417l59 121l914 -471v-138z" />
    <glyph glyph-name="question" unicode="?" horiz-adv-x="1024" 
d="M481 412h-123l-20 151q-7 56 31 94l254 262q60 64 72 98q15 45 15 93t-1 70t-5 37q-7 28 -26.5 41.5t-60 30t-102.5 35.5q-147 45 -314 65l33 170q297 -41 490 -136q120 -60 143 -143q12 -43 12 -112t-4 -107.5t-14.5 -70.5t-29.5 -61.5t-48.5 -62.5t-71.5 -72l-208 -190
zM425 -19q-70 0 -89 21q-28 31 -28 90.5t5.5 84.5t18.5 39q24 26 76 26t74.5 -5.5t35.5 -20.5q23 -25 23 -103t-18 -99q-28 -33 -98 -33z" />
    <glyph glyph-name="at" unicode="@" horiz-adv-x="1877" 
d="M1677 7l57 -134q-227 -116 -566 -151q-95 -9 -170 -9q-431 0 -608 207q-171 202 -171 686q0 521 205 718q129 124 342 155q104 15 226.5 15t228.5 -13t183 -55q166 -91 166 -342v-443q0 -221 20 -437l-142 -13l-27 150q-209 -166 -447 -166q-352 0 -352 436
q0 337 215 395q64 18 137 18q225 0 437 -82v142q0 160 -97 218q-92 55 -343 55q-201 0 -317 -52q-211 -95 -263 -419q-19 -118 -19 -294.5t32 -319.5t104 -238q144 -187 472.5 -187t696.5 160zM1407 819q-220 59 -409 59q-132 0 -176 -81q-30 -57 -30 -195.5t50 -207
t168 -68.5q215 0 403 145q-3 50 -4 126l-1 125q-1 49 -1 97z" />
    <glyph glyph-name="A" unicode="A" 
d="M985 449h-616l-144 -449h-176l501 1530h233l535 -1530h-181zM415 592h522l-270 803l-31 -114z" />
    <glyph glyph-name="B" unicode="B" 
d="M1170 1138q0 -308 -233 -339v-3q144 -11 215 -82q82 -84 82 -243.5t-36.5 -247.5t-101.5 -137q-111 -86 -349 -86h-511v1525q277 26 457 26t264 -27.5t131 -79.5q82 -91 82 -306zM768 142q147 0 210 56q79 71 79 254q0 212 -155 248q-47 11 -102 11h-394v-569h362z
M631 847q201 0 279 57q89 64 89 238v21q0 134 -59 191q-59 56 -201 56q-119 0 -202 -5l-131 -8v-550h225z" />
    <glyph glyph-name="C" unicode="C" horiz-adv-x="1194" 
d="M771 124q163 0 328 63l44 -138q-76 -38 -183 -53.5t-189 -15.5h-14q-356 0 -477 204q-74 124 -90 334q-7 101 -7 221t6.5 228.5t26.5 199t58 161.5t102 120q130 102 378 102q160 0 257.5 -20.5t131.5 -33.5l-45 -158q-195 68 -333.5 68t-213 -33.5t-116.5 -110.5
q-73 -132 -73 -503v-74q0 -305 79 -426q88 -135 321 -135h9z" />
    <glyph glyph-name="D" unicode="D" horiz-adv-x="1534" 
d="M236 0v1521l150 11q225 18 359 18t214 -10.5t140.5 -36t103 -69.5t69.5 -112q51 -127 51 -378v-155q0 -297 -44 -451q-51 -178 -183 -256q-136 -82 -399 -82h-461zM981 1373q-68 29 -209 29t-366 -17v-1242h318q186 0 276 61q88 59 118 203q26 118 26 382v156
q0 249 -59 342q-36 57 -104 86z" />
    <glyph glyph-name="E" unicode="E" horiz-adv-x="1195" 
d="M236 1530h867v-148h-697v-528h562v-147h-562v-560h724v-147h-894v1530z" />
    <glyph glyph-name="F" unicode="F" horiz-adv-x="1191" 
d="M236 1530h879v-148h-709v-601h615v-147h-615v-634h-170v1530z" />
    <glyph glyph-name="G" unicode="G" 
d="M1165 1322q-241 84 -463 84q-229 0 -298 -188q-41 -111 -45.5 -252.5t-4.5 -244.5v-99q0 -319 107 -423q64 -62 171 -73q50 -6 103 -6t102.5 5.5t94.5 14.5q91 18 136 40v472h-309v138h476v-685q-94 -71 -333 -111q-83 -14 -189 -14t-194.5 21.5t-150 63t-99.5 103.5
t-59 143q-34 136 -34 335.5t7 315t27.5 209t57.5 164.5t97 119q122 96 348 96q258 0 441 -57l51 -16z" />
    <glyph glyph-name="H" unicode="H" horiz-adv-x="1534" 
d="M236 1530h170v-691h723v691h169v-1530h-169v694h-723v-694h-170v1530z" />
    <glyph glyph-name="I" unicode="I" horiz-adv-x="683" 
d="M257 1530h169v-1530h-169v1530z" />
    <glyph glyph-name="J" unicode="J" horiz-adv-x="853" 
d="M32 182l23 -11q109 -52 231 -52q106 0 150 66q42 64 42 219v1126h168v-1014q0 -187 -15.5 -264t-39 -124t-63.5 -80q-82 -68 -242 -68q-138 0 -259 50q-29 12 -44 21z" />
    <glyph glyph-name="K" unicode="K" 
d="M453 688l-47 -1v-687h-170v1530h170v-718q56 0 73 8.5t40 25t68 68t96 117.5q135 183 192 268l93 142q36 57 54 90h198q-9 -20 -35 -61q-87 -134 -139 -206l-192 -259l-87 -107q-89 -106 -118 -117v-9l31 -12q69 -26 177 -169l440 -591h-217l-321 454q-161 226 -273 233
q-16 1 -33 1z" />
    <glyph glyph-name="L" unicode="L" horiz-adv-x="1026" 
d="M235 1530h170v-1383h606v-147h-776v1530z" />
    <glyph glyph-name="M" unicode="M" horiz-adv-x="2051" 
d="M362 1530h261l348 -1130l59 -244l57 245l336 1129h249l247 -1530h-170l-186 1156l-28 270l-61 -272l-345 -1153h-197l-360 1159l-71 266l-34 -268l-169 -1158h-172z" />
    <glyph glyph-name="N" unicode="N" horiz-adv-x="1536" 
d="M236 1530h135l704 -1112l91 -189l-22 210v1091h155v-1530h-143l-699 1109l-88 172l22 -204v-1077h-155v1530z" />
    <glyph glyph-name="O" unicode="O" horiz-adv-x="1534" 
d="M739 -20q-356 0 -470 224q-67 130 -79 347q-5 102 -5 222t7 227.5t27.5 194.5t58 153.5t98.5 111.5q126 90 363 90h62q371 0 475 -200q65 -125 73 -348q4 -109 4 -230.5t-6 -224t-25 -189.5t-55.5 -157t-98.5 -119q-128 -102 -367 -102h-62zM799 124q110 0 182.5 24
t114.5 84q78 111 78 426v108q0 151 -8 269t-43 199q-72 168 -312 168h-84q-244 0 -312 -157q-43 -100 -47 -236t-4 -243v-108q0 -295 88 -416q85 -118 287 -118h60z" />
    <glyph glyph-name="P" unicode="P" 
d="M833 480q-41 -2 -143.5 -2t-283.5 27v-505h-170v1524q291 27 579 27q242 0 339 -109q82 -92 82 -304v-118q0 -164 -36 -280q-77 -242 -367 -260zM822 1407q-274 0 -416 -11v-750q175 -23 311.5 -23t196 19.5t92.5 65.5q56 78 56 310v124q0 143 -56 204q-54 61 -184 61z
" />
    <glyph glyph-name="Q" unicode="Q" horiz-adv-x="1534" 
d="M822 -19l-21 -1h-62q-356 0 -470 224q-67 130 -79 347q-5 102 -5 222t7 227.5t27.5 194.5t58 153.5t98.5 111.5q126 90 363 90h62q371 0 475 -200q65 -125 73 -348q4 -109 4 -249.5t-11.5 -270.5t-51.5 -231q-86 -214 -332 -258q119 -144 333 -306l-127 -134
q-245 207 -342 428zM799 124q110 0 182.5 24t114.5 84q78 111 78 426v108q0 151 -8 269t-43 199q-72 168 -312 168h-84q-244 0 -312 -157q-43 -100 -47 -236t-4 -243v-108q0 -295 88 -416q85 -118 287 -118h60z" />
    <glyph glyph-name="R" unicode="R" horiz-adv-x="1366" 
d="M236 1525q325 25 546 25h20q241 0 338 -108q81 -93 81 -304q0 -270 -77 -402q-79 -134 -262 -168q34 -42 67 -88l59 -85l263 -395h-200l-230 362q-96 146 -142 193h-11q-71 1 -137 3l-145 6v-564h-170v1525zM406 699q105 -5 330 -5q185 0 252 104q57 91 57 318
q0 191 -85 250q-50 35 -109.5 39t-104 4t-86 -0.5t-82.5 -1.5t-83 -3l-89 -6v-699z" />
    <glyph glyph-name="S" unicode="S" horiz-adv-x="1194" 
d="M151 241q227 -120 444 -120q252 0 295 161q14 53 14 122v39q0 70 -10 113t-42 70q-52 45 -246 75q-173 27 -239 51t-108.5 52.5t-72.5 71.5q-62 90 -62 249v10q0 330 274 395q87 20 197 20h13q257 0 420 -74l-52 -153q-197 85 -363 85h-9q-183 0 -252 -69
q-58 -58 -58 -201v-4q0 -163 90 -214q61 -33 218.5 -58t234.5 -42.5t131 -57.5q112 -84 112 -319v-13q0 -359 -289 -428q-89 -22 -168 -22t-143.5 5.5t-131.5 19.5q-157 32 -263 96z" />
    <glyph glyph-name="T" unicode="T" horiz-adv-x="1024" 
d="M420 1382h-408v148h1000v-148h-422v-1382h-170v1382z" />
    <glyph glyph-name="U" unicode="U" horiz-adv-x="1534" 
d="M214 1530h168v-818q0 -242 21 -330t48.5 -132.5t71.5 -71.5q83 -51 228.5 -51t219 25t114 90t54.5 179t14 291v818h168v-812q0 -257 -19 -354.5t-52.5 -165.5t-94.5 -116q-128 -102 -382 -102q-378 0 -488 216q-61 121 -68 320q-3 91 -3 189v825z" />
    <glyph glyph-name="V" unicode="V" horiz-adv-x="1366" 
d="M66 1530h184l386 -1165l52 -205l57 205l377 1165h182l-515 -1531h-197z" />
    <glyph glyph-name="W" unicode="W" horiz-adv-x="2044" 
d="M34 1530h184l296 -1156l52 -244l58 244l308 1156h199l367 -1408l53 256l282 1152h180l-392 -1530h-254l-293 1094l-45 258l-47 -258l-302 -1094h-234z" />
    <glyph glyph-name="X" unicode="X" horiz-adv-x="1360" 
d="M555 782l-487 748h194l396 -633l387 633h195l-477 -744l530 -786h-203l-429 661l-402 -661h-191z" />
    <glyph glyph-name="Y" unicode="Y" horiz-adv-x="1194" 
d="M512 565l-499 965h186l327 -657l74 -169l73 172l320 654h188l-499 -965l-1 -565h-168z" />
    <glyph glyph-name="Z" unicode="Z" horiz-adv-x="1194" 
d="M106 85l765 1302h-713v143h922v-88l-762 -1301h756v-141h-968v85z" />
    <glyph glyph-name="bracketleft" unicode="[" horiz-adv-x="851" 
d="M230.037 1908.98h396.977v-113.993h-246.985v-1952.88l246.985 -1v-112.993h-396.977v2180.87z" />
    <glyph glyph-name="backslash" unicode="\" horiz-adv-x="854" 
d="M152 1866.99h-145l679 -1939.88h149z" />
    <glyph glyph-name="bracketright" unicode="]" horiz-adv-x="852" 
d="M613 -270h-397v114h247v1953l-247 1v113h397v-2181z" />
    <glyph glyph-name="asciicircum" unicode="^" horiz-adv-x="1229" 
d="M676 1569l403 -753l-135 -38l-339 633l-324 -633l-131 38l388 753h138z" />
    <glyph glyph-name="underscore" unicode="_" horiz-adv-x="854" 
d="M-7 -185h868v-118h-868v118z" />
    <glyph glyph-name="grave" unicode="`" horiz-adv-x="510" 
d="M459 1486l-83 -87l-367 315l125 125z" />
    <glyph glyph-name="a" unicode="a" 
d="M1134 422q0 -199 19 -414l-148 -12l-25 139q-127 -102 -336 -142q-68 -13 -121 -13t-93.5 5t-78 19.5t-69.5 40.5t-56 69q-51 91 -51 218.5t18.5 198t61.5 117.5q85 93 286 93t429 -76v130q0 217 -179 257q-58 13 -133 13q-171 0 -355 -68l-37 144q51 34 260 61
q66 8 158.5 8t181.5 -22t148 -72q120 -99 120 -321v-373zM966 540q-234 59 -432 59q-122 0 -162 -70q-27 -49 -27 -145t10.5 -139t34.5 -71q47 -53 155 -53q169 0 335 87q51 26 92 58q-6 108 -6 274z" />
    <glyph glyph-name="b" unicode="b" 
d="M379 111l-21 -111h-141v1702l166 16v-642q207 134 400 134q268 0 340 -165q45 -104 51 -292q2 -91 2 -200v-80q0 -137 -17.5 -206t-44.5 -118.5t-74 -86.5q-102 -82 -292 -82t-369 131zM383 242q212 -115 357 -115h12q171 0 220 95q26 48 32 125t6 185v144q0 223 -51 300
q-50 77 -190 77h-25q-125 0 -290 -74q-43 -19 -71 -35v-702z" />
    <glyph glyph-name="c" unicode="c" horiz-adv-x="1196" 
d="M1050 53q-139 -73 -381 -73q-143 0 -210 22q-171 58 -224 197q-37 97 -43 209t-6 189t4 150.5t19.5 141.5t47.5 126.5t87 102.5q119 92 342 92q164 0 302 -48q37 -12 56 -23l-50 -148q-192 74 -314.5 74t-180 -28t-89.5 -85q-54 -98 -54 -360q0 -105 7 -191.5t35 -148.5
q59 -128 243.5 -128t358.5 64z" />
    <glyph glyph-name="d" unicode="d" 
d="M984 1137v565l166 16v-1171q0 -345 19 -539l-149 -12l-24 137q-211 -153 -429 -153q-241 0 -321 177q-46 100 -51.5 211.5t-5.5 196t1.5 170.5t12.5 159t34.5 131.5t67.5 99.5q91 85 300.5 85t378.5 -73zM988 268q-5 93 -5 287l1 445q-180 60 -348 60q-122 0 -161 -20
t-59.5 -52t-33.5 -88q-23 -105 -23 -346v-22q0 -225 49 -311q53 -91 197 -91h15q138 0 294 88q43 24 74 48v2z" />
    <glyph glyph-name="e" unicode="e" 
d="M1155 63q-207 -83 -457 -83q-145 0 -246 30q-161 46 -214 190q-49 135 -49 400v51q0 317 132 445q119 114 397 114q271 0 370 -134q48 -65 63.5 -157.5t15.5 -176.5q0 -131 -6 -203q-141 -6 -253 -6h-161q-252 0 -388 22q0 -230 58 -321q71 -111 283 -111t406 83z
M998 672v96q0 157 -61 224q-68 75 -235 75q-200 0 -273 -87q-70 -83 -70 -308h639z" />
    <glyph glyph-name="f" unicode="f" horiz-adv-x="854" 
d="M467 1542.5q-40 -33.5 -40 -132t37 -220.5h283v-139h-285v-1051h-161v1051h-199v123l197 16q-13 27 -25 117t-12 129q0 284 332 284q120 0 227 -26l-30 -149q-130 31 -207 31t-117 -33.5z" />
    <glyph glyph-name="g" unicode="g" 
d="M984 114q-191 -134 -404 -134q-249 0 -332 177q-48 100 -56 253q-3 70 -3 154.5t1.5 170.5t12.5 159t34.5 131.5t67.5 99.5q91 85 280.5 85t403.5 -102l16 82h144l1 -1168q0 -257 -101 -374q-108 -124 -365 -124q-200 0 -355 54q-39 13 -60 24l52 141q18 -6 53 -19.5
t84 -26.5q124 -33 227.5 -33t159.5 21t87 65q52 74 52 269v95zM984 970q-180 90 -348 90q-122 0 -161 -20t-59.5 -52t-33.5 -88q-23 -105 -23 -346v-22q0 -222 55 -311q55 -91 201 -91h15q138 0 282 76q41 21 72 43v721z" />
    <glyph glyph-name="h" unicode="h" 
d="M785 1055q-199 0 -395 -115v-940h-166v1702l162 16v-651q103 88 268 127q66 16 156 16t158 -20.5t108 -65.5q72 -81 72 -295v-829h-168v799q0 144 -28 185.5t-66.5 56t-100.5 14.5z" />
    <glyph glyph-name="i" unicode="i" horiz-adv-x="683" 
d="M261 1190h164v-1190h-162zM342 1475q-67 0 -86 19q-30 31 -30 85.5t6.5 78t19.5 36.5q24 24 73.5 24t71 -5t35.5 -19q24 -24 24 -78.5t-5.5 -78t-18.5 -37.5q-25 -25 -90 -25z" />
    <glyph glyph-name="j" unicode="j" horiz-adv-x="683" 
d="M53 -317q91 -23 132.5 -18.5t58 33.5t16.5 94v1398h161v-1383q0 -133 -43 -199q-53 -83 -184 -83q-123 0 -186 35zM339 1475q-67 0 -86 19q-30 31 -30 85.5t6.5 78t20.5 36.5q23 24 72.5 24t71 -5t34.5 -19q25 -24 25 -78.5t-5.5 -78t-19.5 -37.5q-24 -25 -89 -25z" />
    <glyph glyph-name="k" unicode="k" horiz-adv-x="1192" 
d="M220 1698l166 18v-1032q40 -8 96.5 41t100.5 93.5t91 97.5q169 195 222 274h198q-22 -50 -101 -142l-134 -151q-109 -117 -174.5 -173t-86.5 -64v-10l30 -15q65 -31 170 -165l373 -470h-210l-254 333q-176 230 -269 238l-22 2q-10 1 -18 0.5t-12 -0.5v-573h-166v1698z
" />
    <glyph glyph-name="l" unicode="l" horiz-adv-x="683" 
d="M259 1700l165 14v-1714h-163z" />
    <glyph glyph-name="m" unicode="m" horiz-adv-x="2047" 
d="M1105 935q5 -60 5 -106v-829h-168v798q0 144 -28 185.5t-66.5 56t-100.5 14.5q-163 0 -356 -115v-939h-166v1190h146l16 -123q175 143 392 143q124 0 195.5 -35.5t103.5 -116.5q221 152 420 152q188 0 261 -86q70 -83 70 -295v-829h-168v798q0 144 -28 185.5t-66.5 56
t-90 14.5t-97 -9.5t-92.5 -25.5q-95 -33 -182 -84z" />
    <glyph glyph-name="n" unicode="n" 
d="M786 1054q-195 0 -397 -115v-939h-166v1190h146l16 -123q109 89 271 127q66 16 155 16t157 -20.5t108 -65.5q73 -81 73 -295v-829h-168v798q0 144 -28 185.5t-66.5 56t-100.5 14.5z" />
    <glyph glyph-name="o" unicode="o" horiz-adv-x="1363" 
d="M188 592q0 227 23 317t56.5 142.5t90.5 87.5q114 71 337 71q322 0 414 -159q55 -96 63 -271q3 -83 3 -183t-6.5 -186.5t-25.5 -155.5t-53 -120.5t-90 -86.5q-110 -68 -321 -68q-316 0 -415 156q-61 97 -71 272q-5 84 -5 184zM550.5 134.5q54.5 -13.5 149 -13.5t159 27
t97 86.5t41 154.5t8.5 221t-7.5 210t-37.5 139q-60 108 -267 108q-219 0 -285 -108q-33 -55 -42 -140t-9 -185t2.5 -169.5t13 -125t31 -96.5t56.5 -68t90.5 -40.5z" />
    <glyph glyph-name="p" unicode="p" 
d="M383 71v-526h-166v1645h135l19 -123q117 88 305 129q68 14 148 14t141.5 -21t101.5 -58.5t62 -89.5t33 -113q14 -84 14 -268v-23q0 -234 -16 -324t-42 -148.5t-72 -99.5q-95 -85 -294 -85t-369 91zM383 208q170 -78 357 -78q122 0 178 45q76 62 85 289q3 75 3 172v22
q0 230 -40 308q-45 89 -186 89h-15q-147 0 -305 -73q-46 -21 -77 -43v-731z" />
    <glyph glyph-name="q" unicode="q" 
d="M989 1108l16 82h144l1 -1645h-166v569q-191 -134 -404 -134q-249 0 -332 177q-48 100 -56 253q-3 70 -3 154.5t1.5 170.5t12.5 159t34.5 131.5t67.5 99.5q91 85 280.5 85t403.5 -102zM984 970q-180 90 -348 90q-122 0 -161 -20t-59.5 -52t-33.5 -88q-23 -105 -23 -346
v-22q0 -222 55 -311q55 -91 201 -91h15q138 0 282 76q41 21 72 43v721z" />
    <glyph glyph-name="r" unicode="r" horiz-adv-x="854" 
d="M650 1045q-128 0 -261 -128v-917h-166v1190h146l16 -158q47 73 101.5 114t89.5 50q50 14 95 14t113 -18l-15 -159q-51 12 -119 12z" />
    <glyph glyph-name="s" unicode="s" horiz-adv-x="1194" 
d="M225 236q206 -115 414 -115q173 0 203 123q10 42 10 102.5t-14 94t-47 50t-87.5 24.5t-138.5 22.5t-154 32.5t-119 52q-104 73 -100 246v25q0 182 120 259q116 76 383 52q182 -17 290 -63l-47 -151q-120 51 -288 74q-52 7 -97.5 7t-82.5 -7t-62 -26q-48 -39 -50 -145
q-3 -125 70 -159q70 -33 166 -45.5t157 -22t111 -25.5t86 -51q75 -71 73 -247q-5 -307 -256 -350q-76 -13 -152 -13t-139.5 9.5t-121.5 26.5q-110 31 -199 82z" />
    <glyph glyph-name="t" unicode="t" horiz-adv-x="854" 
d="M809 57q-163 -77 -301 -77q-250 0 -284 214q-8 51 -8 148v709h-144v123l144 16l26 272h139v-272h347v-139h-347v-706q0 -123 18 -157q33 -62 132 -62t221 61z" />
    <glyph glyph-name="u" unicode="u" 
d="M1123 524q0 -330 19 -516l-149 -12l-24 141q-117 -97 -273 -140q-62 -17 -147.5 -17t-153 20.5t-107.5 65.5q-73 81 -73 295v829h168v-802q0 -144 28 -185.5t66.5 -56t91.5 -14.5t102.5 8.5t99.5 24.5q105 34 190 93v1q-4 76 -4 296v635h166v-666z" />
    <glyph glyph-name="v" unicode="v" horiz-adv-x="1193" 
d="M82 1190h179l312 -971l30 -99l28 99l298 971h181l-402 -1190h-218z" />
    <glyph glyph-name="w" unicode="w" horiz-adv-x="1875" 
d="M93 1190h178l252 -874l45 -191l33 160l260 905h164l256 -874l44 -193l32 163l248 904h180l-352 -1190h-219l-228 763l-46 234l-41 -234l-227 -763h-209z" />
    <glyph glyph-name="x" unicode="x" horiz-adv-x="1193" 
d="M482 603l-382 587h194l296 -481l301 481h191l-388 -582l411 -608h-192l-324 495l-318 -495h-183z" />
    <glyph glyph-name="y" unicode="y" horiz-adv-x="1192" 
d="M197 -288q73 -26 119.5 -26t61 2.5t29.5 10.5q35 19 52 62q42 102 73 224l-459 1205h185l310 -877l47 -154l43 155l274 876h174l-502 -1472q-55 -172 -254 -172q-126 0 -198 36z" />
    <glyph glyph-name="z" unicode="z" horiz-adv-x="1024" 
d="M106 113l609 939h-622v138h824v-113l-607 -938h632v-139h-836v113z" />
    <glyph glyph-name="braceleft" unicode="{" horiz-adv-x="851" 
d="M654.012 1896q-63.9961 15 -128.992 15q-143.991 0 -204.987 -61q-58.9971 -61 -58.9971 -206v-535q0 -87 -42.9971 -122t-196.988 -71v-158q149.991 -35 186.489 -66q36.4971 -31 44.9971 -60.5q8.49902 -29.5 8.49902 -72.5v-561q0 -145 58.9971 -206
q60.9961 -61 195.987 -61q73.9961 0 137.992 15l-15.999 116q-63.9961 -9 -101.994 -9q-37.9971 0 -59.9961 6t-36.998 21q-27.998 28 -27.998 99v588q0 107 -31.998 150q-65.9961 88 -229.986 120q232.986 46 255.984 187q6 41 6 83v556q0 71 21.999 93
q32.998 33 86.9941 33q53.9971 0 117.993 -9z" />
    <glyph glyph-name="bar" unicode="|" horiz-adv-x="854" 
d="M502 -178h-150v2178h150v-2178z" />
    <glyph glyph-name="braceright" unicode="}" horiz-adv-x="852" 
d="M189 1896q64 15 129 15q144 0 205 -61q59 -61 59 -206v-535q0 -87 43 -122t197 -71v-158q-150 -35 -186.5 -66t-45 -60.5t-8.5 -72.5v-561q0 -145 -59 -206q-61 -61 -196 -61q-74 0 -138 15l16 116q64 -9 102 -9t60 6t37 21q28 28 28 99v588q0 107 32 150q66 88 230 120
q-233 46 -256 187q-6 41 -6 83v556q0 71 -22 93q-33 33 -87 33t-118 -9z" />
    <glyph glyph-name="asciitilde" unicode="~" horiz-adv-x="1535" 
d="M1003 617q143 0 276 186l99 -83q-136 -266 -377 -266q-112 0 -250 88q-87 56 -133.5 72.5t-87.5 16.5q-142 0 -275 -186l-99 83q78 152 195 218q82 47 157 47t118.5 -13t82.5 -32.5t75 -42.5t71 -43q82 -45 148 -45z" />
    <glyph glyph-name="nonbreakingspace" unicode="&#xa0;" horiz-adv-x="683" 
 />
    <glyph glyph-name="exclamdown" unicode="&#xa1;" horiz-adv-x="512" 
d="M356.01 -338.906h-187.988l23.998 1117.93h130.992zM255.017 1210q69.9951 0 88.9941 -20.999q27.998 -30.998 27.998 -90.4941t-5.49902 -84.4951q-5.5 -24.998 -18.499 -38.9971q-23.999 -25.999 -75.9951 -25.999q-51.9971 0 -74.4961 5.5
q-22.498 5.49902 -35.498 20.499q-22.998 24.998 -22.998 102.993t17.999 98.9941q27.998 32.998 97.9941 32.998z" />
    <glyph glyph-name="cent" unicode="&#xa2;" horiz-adv-x="1202" 
d="M1022 219q-127 -65 -336 -73v-314h-140v317q-194 16 -291 132q-81 86 -93 272q-4 61 -4 126t3 124.5t15.5 115t37 105.5t68.5 90q92 85 264 106v320h140v-315q219 -8 330 -70l-50 -148q-192 74 -314.5 74t-180 -23.5t-89.5 -73.5q-54 -83 -54 -306q0 -145 13.5 -200.5
t34.5 -88.5t58 -55q74 -44 219 -44t316 64z" />
    <glyph glyph-name="sterling" unicode="&#xa3;" horiz-adv-x="1194" 
d="M404 839q-124 160 -124 341q0 265 249 340q87 27 170.5 27t135.5 -5t106 -14q116 -21 202 -56l-55 -150q-95 50 -196.5 67.5t-167.5 17.5t-119 -12t-86 -41q-63 -55 -63 -197q0 -136 82 -261q23 -35 47 -57h435v-145h-435l-87 -547h645v-147h-942v146h133l86 548h-219
v145h203z" />
    <glyph glyph-name="currency" unicode="&#xa4;" horiz-adv-x="1533" 
d="M434 423q-68 90 -68 308.5t61 302.5l-216 216l87 88l227 -227l-2 -2q88 39 247 39t242 -34l225 226l85 -85l-214 -214q37 -51 47.5 -128t10.5 -180q0 -211 -72 -306l225 -224l-88 -87l-235 234q-86 -40 -233.5 -40t-232.5 39l-230 -231l-87 87zM768 426q83 0 135.5 15.5
t82.5 52.5q50 63 50 257q0 169 -52 223q-52 57 -209 57q-168 0 -225 -57q-55 -56 -55 -226q0 -186 55 -254t218 -68z" />
    <glyph glyph-name="yen" unicode="&#xa5;" horiz-adv-x="1194" 
d="M128 818h312l-375 712h184l355 -712h2l345 712h187l-372 -712h307v-135h-945v135zM128 502h945v-135h-391v-367h-171v367h-383v135z" />
    <glyph glyph-name="brokenbar" unicode="&#xa6;" horiz-adv-x="854" 
d="M352 1068v932h150v-932h-150zM352 -178v932h150v-932h-150z" />
    <glyph glyph-name="section" unicode="&#xa7;" horiz-adv-x="1229" 
d="M192 1232q0 317 365 317h14q251 0 414 -69l-47 -151q-120 51 -288 74q-52 7 -97.5 7t-82.5 -7t-62 -27q-50 -38 -50 -144v-8q0 -118 71 -150t165 -44.5t154.5 -22.5t110.5 -25.5t86 -49.5q76 -70 76 -239v-11q0 -144 -77 -224q-33 -35 -56 -50q133 -60 133 -273v-11
q0 -307 -255 -350q-77 -13 -153 -13t-139.5 9.5t-121.5 25.5q-110 32 -199 83l72 138q206 -115 414 -115q173 0 203 124q10 41 10 101.5t-14 93.5t-47 49t-87.5 23.5t-136.5 21.5l-47 8q-51 6 -97 22q-117 30 -169 91q-62 71 -62 203v35q0 142 96 212q25 19 70 45
q-126 48 -155 163q-11 44 -11 103v35zM497 895q-139 -35 -139 -229q0 -121 71 -158q67 -35 165 -46.5t160 -20.5q81 35 94 159q4 38 4 92t-14 88.5t-47 52.5t-87 27z" />
    <glyph glyph-name="dieresis" unicode="&#xa8;" horiz-adv-x="1139" 
d="M341 1481q-63 0 -81 18q-28 29 -28 81t6 74.5t18 35.5q23 22 69.5 22t67 -5t33.5 -17q22 -23 22 -75t-5 -74.5t-17 -36.5q-22 -23 -85 -23zM799 1481q-63 0 -81 18q-28 29 -28 81t6 74.5t18 35.5q23 22 69.5 22t67.5 -5t33 -17q24 -24 24 -75.5t-5.5 -74t-18.5 -36.5
q-21 -23 -85 -23z" />
    <glyph glyph-name="copyright" unicode="&#xa9;" horiz-adv-x="1707" 
d="M1125.5 196q-113.5 -23 -276 -23t-273 25.5t-183.5 70.5t-113 107t-60 136q-27 103 -27 265.5t4 254.5t23.5 169.5t59.5 138.5t112 103q151 87 453 87q319 0 467 -76q135 -70 175 -231q26 -105 26 -293.5t-3.5 -274t-22.5 -159t-59.5 -133t-114.5 -102t-187.5 -65.5z
M581.5 319.5q103.5 -27.5 244 -27.5t226 11t145 35.5t96.5 65.5t57 100q36 104 36 278t-7 266.5t-27.5 157t-57 104.5t-96.5 62q-103 39 -349 39q-232 0 -334 -38q-114 -43 -157 -167q-39 -113 -39 -319.5t21.5 -310t79.5 -166.5t161.5 -90.5zM1133 545q-121 -55 -279 -55
q-166 0 -238 81q-77 85 -77 283q0 162 59 244q81 114 293 114q148 0 252 -52l-50 -124q-89 50 -209 50q-119 0 -158 -50q-35 -46 -35 -187q0 -130 21.5 -168t55 -53t128.5 -15t200 42z" />
    <glyph glyph-name="ordfeminine" unicode="&#xaa;" horiz-adv-x="1024" 
d="M857 959q0 -149 15 -312l-140 -8l-19 103q-92 -75 -247 -104q-49 -10 -96 -10t-92.5 9t-81.5 39q-82 67 -82 240q0 230 151 284q54 20 131 20q151 0 309 -61v78q0 151 -130 175q-42 7 -96 7q-122 0 -267 -51l-30 128q45 26 146 40t172 14t141.5 -17t118.5 -55
q97 -75 97 -241v-278zM702 1054q-151 41 -296 41q-87 0 -114 -53q-19 -38 -19 -109.5t7 -101t24 -47.5q31 -34 90 -34t98 8t77 22q76 27 138 74q-5 95 -5 200z" />
    <glyph glyph-name="guillemotleft" unicode="&#xab;" horiz-adv-x="1533" 
d="M169.044 648.032l464.972 433.974l90.9941 -85.9951l-388.977 -411.975l390.977 -401.976l-82.9951 -92.9941l-474.971 426.974v131.992zM778.044 648.032l464.972 433.974l90.9941 -85.9951l-388.977 -411.975l390.977 -401.976l-82.9951 -92.9941l-474.971 426.974
v131.992z" />
    <glyph glyph-name="logicalnot" unicode="&#xac;" 
d="M1067 775h-899v122h1028v-512h-129v390z" />
    <glyph glyph-name="uni00AD" unicode="&#xad;" horiz-adv-x="1229" 
 />
    <glyph glyph-name="registered" unicode="&#xae;" horiz-adv-x="1707" 
d="M1125.5 196q-113.5 -23 -276 -23t-273 25.5t-183.5 70.5t-113 107t-60 136q-27 103 -27 265.5t4 254.5t23.5 169.5t59.5 138.5t112 103q151 87 453 87q319 0 467 -76q135 -70 175 -231q26 -105 26 -293.5t-3.5 -274t-22.5 -159t-59.5 -133t-114.5 -102t-187.5 -65.5z
M581.5 319.5q103.5 -27.5 244.5 -27.5t227 11t146 36t96.5 66.5t56.5 102.5q34 104 34 280t-7.5 266.5t-28 154t-57.5 103t-97 61.5q-102 38 -347 38q-232 0 -334 -38q-114 -43 -157 -167q-39 -113 -39 -319.5t21.5 -310t79.5 -166.5t161.5 -90.5zM559 1190q213 15 323.5 15
t161 -12.5t78.5 -36.5q51 -41 51 -120.5t-9 -126t-30 -78.5q-43 -63 -149 -77q17 -17 33 -35l169 -210h-150l-168 209q-15 19 -27 31q-37 1 -80 2t-74 3v-245h-129v681zM1031.5 921.5q6.5 27.5 6.5 81t-43 77.5q-25 14 -116 14t-191 -7v-229q44 -2 80 -2h93t87.5 4.5
t56.5 19t26.5 42z" />
    <glyph glyph-name="macron" unicode="&#xaf;" horiz-adv-x="856" 
d="M128 1528v135h599v-135h-599z" />
    <glyph glyph-name="degree" unicode="&#xb0;" horiz-adv-x="1025" 
d="M219 1407q0 124 83 207q84 84 211 84q131 0 213 -83q80 -82 80 -208q0 -122 -86 -206t-207 -84q-127 0 -211 84q-83 83 -83 206zM358 1475q-12 -31 -12 -67.5t11.5 -66.5t33.5 -52q47 -47 122 -47q72 0 119 47q46 46 46 118q0 119 -94 157q-31 12 -70 12t-70 -12.5
t-52.5 -35t-33.5 -53.5z" />
    <glyph glyph-name="plusminus" unicode="&#xb1;" horiz-adv-x="1533" 
d="M209 1v133h1112v-133h-1112zM694 673h-514v133h514v513h142v-513h515v-133h-515v-408h-142v408z" />
    <glyph glyph-name="twosuperior" unicode="&#xb2;" horiz-adv-x="1025" 
d="M460 1669q-132 0 -262 -83l-59 126q78 58 229 84q54 10 111.5 10t116 -10t104.5 -36q105 -60 105 -188q0 -183 -254 -394q-79 -65 -174 -135l-18 -11l480 1v-133h-670l-15 113q263 182 402 365q82 106 82 176q0 97 -112 111q-32 4 -66 4z" />
    <glyph glyph-name="threesuperior" unicode="&#xb3;" horiz-adv-x="1025" 
d="M564 1297.5q-30 2.5 -73 2.5t-181 -20l-16 117q288 38 338 121q16 27 16 59.5t-16 52.5t-42 30q-38 15 -100 15t-102 -7t-75 -16q-67 -19 -106 -42l-57 109q120 87 332 87q202 0 282 -106q30 -39 30 -97q0 -180 -186 -226q177 0 210 -121q11 -41 11 -106.5t-27 -118.5
t-74 -85q-87 -62 -219 -62q-212 0 -368 59l41 131q152 -67 312 -67q145 0 174 88q10 32 10 78.5t-16.5 72t-42 37.5t-55.5 14.5z" />
    <glyph glyph-name="acute" unicode="&#xb4;" horiz-adv-x="510" 
d="M349 1837l130 -121l-370 -317l-83 87z" />
    <glyph glyph-name="mu" unicode="&#xb5;" horiz-adv-x="1362" 
d="M1123 524q0 -330 19 -516l-149 -12l-24 141q-117 -97 -273 -140q-62 -17 -129 -17q-129 0 -206 71l26 -508h-171v1647h167v-802q0 -145 38 -196q45 -60 180 -60q177 0 360 126v1q-4 76 -4 296v635h166v-666z" />
    <glyph glyph-name="mu" unicode="&#x3bc;" horiz-adv-x="1362" 
d="M1123 524q0 -330 19 -516l-149 -12l-24 141q-117 -97 -273 -140q-62 -17 -129 -17q-129 0 -206 71l26 -508h-171v1647h167v-802q0 -145 38 -196q45 -60 180 -60q177 0 360 126v1q-4 76 -4 296v635h166v-666z" />
    <glyph glyph-name="paragraph" unicode="&#xb6;" horiz-adv-x="1704" 
d="M856 510q-46 -4 -86 -4q-243 0 -378 137q-137 138 -137 388q0 265 169 389q151 110 439 110h533v-1530l-170 1v1376l-200 -14v-1363h-170v510z" />
    <glyph glyph-name="periodcentered" unicode="&#xb7;" horiz-adv-x="512" 
d="M256 481q-70 0 -89 21q-28 31 -28 90.5t5.5 84.5t19.5 39q23 26 75 26t74.5 -5.5t35.5 -20.5q23 -25 23 -103t-18 -99q-28 -33 -98 -33z" />
    <glyph glyph-name="cedilla" unicode="&#xb8;" horiz-adv-x="511" 
d="M281 -203q0 90 -107 204l1 10l72 37q174 -105 174 -277q0 -97 -56.5 -148t-159.5 -51q-87 0 -134 19l25 128q47 -10 86.5 -10t69 21t29.5 67z" />
    <glyph glyph-name="onesuperior" unicode="&#xb9;" horiz-adv-x="683" 
d="M295 1644l-185 -31l-20 124l356 56v-892h-151v743z" />
    <glyph glyph-name="ordmasculine" unicode="&#xba;" horiz-adv-x="1194" 
d="M215 950q-4 63 -4 154.5t11 177.5t52 146q82 121 334 121q251 0 324 -121q43 -74 48 -204q3 -61 3 -153.5t-12.5 -179.5t-53.5 -145q-82 -118 -322 -118q-247 0 -325 119q-47 72 -55 203zM469.5 763.5q46.5 -19.5 116.5 -19.5t109 9t64 27.5t38.5 47.5t19.5 70
q8 54 8 211v46q0 69 -4.5 121.5t-25.5 87.5q-42 69 -188 69q-165 0 -209 -81q-22 -41 -25.5 -102.5t-3.5 -143.5v-53q0 -77 4.5 -134.5t27 -96.5t69 -58.5z" />
    <glyph glyph-name="guillemotright" unicode="&#xbb;" horiz-adv-x="1529" 
d="M744 527l-465 -434l-91 86l389 412l-391 402l83 93l475 -427v-132zM1360 527l-465 -434l-91 86l389 412l-391 402l83 93l475 -427v-132z" />
    <glyph glyph-name="onequarter" unicode="&#xbc;" horiz-adv-x="1705" 
d="M831 319l476 586h209v-562h141v-111l-141 -13v-220h-151v218h-534v102zM1364 343v432q-14 -15 -34 -39l-323 -393h357zM226 1384l-185 -31l-20 124l356 56v-892h-151v743zM208 0l857 1531h152l-860 -1531h-149z" />
    <glyph glyph-name="onehalf" unicode="&#xbd;" horiz-adv-x="1875" 
d="M301 1384l-185 -31l-20 124l356 56v-892h-151v743zM1369 769q-132 0 -262 -83l-59 126q78 58 230 84q53 10 110.5 10t116 -10t105.5 -36q104 -60 104 -188q0 -183 -254 -394q-79 -65 -174 -135l-18 -11l480 1v-133h-670l-15 113q263 182 403 365q81 106 81 176
q0 97 -111 111q-33 4 -67 4zM272 0l857 1531h152l-860 -1531h-149z" />
    <glyph glyph-name="threequarters" unicode="&#xbe;" horiz-adv-x="2045" 
d="M1183 319l476 586h209v-562h141v-111l-141 -13v-220h-151v218h-534v102zM1716 343v432q-14 -15 -34 -39l-323 -393h357zM469 1041.5q-30 2.5 -73.5 2.5t-180.5 -20l-16 117q288 38 338 121q16 27 16 59.5t-16 52.5t-41 30q-39 15 -101 15t-102 -7t-75 -16
q-67 -19 -106 -42l-57 109q120 87 332 87q202 0 283 -106q29 -39 29 -97q0 -180 -186 -226q177 0 210 -121q11 -41 11 -106.5t-27 -118.5t-73 -85q-88 -62 -220 -62q-212 0 -368 59l41 131q152 -67 312 -67q145 0 173 88q11 32 11 78.5t-16.5 72t-42 37.5t-55.5 14.5zM542 0
l857 1531h152l-860 -1531h-149z" />
    <glyph glyph-name="questiondown" unicode="&#xbf;" horiz-adv-x="1024" 
d="M541.029 778.025h122.992l19.999 -150.991q7 -55.9961 -30.998 -93.9941l-253.984 -261.984q-59.9961 -63.9961 -71.9961 -97.9932q-14.999 -44.998 -14.999 -92.9951t1 -69.9951q1 -21.999 5 -36.998q7 -27.998 26.498 -41.4971q19.499 -13.499 59.9971 -29.998
q40.4971 -16.499 102.493 -35.498q146.991 -44.9971 313.981 -64.9961l-32.998 -169.99q-296.982 40.998 -489.971 135.992q-119.992 59.9961 -142.991 142.991q-11.999 42.9971 -11.999 111.993t4 107.493q3.99902 38.498 14.499 70.4961q10.499 31.998 29.498 61.4961
t48.4971 62.4961t71.4951 71.9961l207.987 189.988zM597.026 1209q69.9951 0 88.9941 -20.999q27.998 -30.998 27.998 -90.4941t-5.49902 -84.4951q-5.5 -24.998 -18.499 -38.9971q-23.999 -25.999 -75.9951 -25.999q-51.9971 0 -74.4961 5.5
q-22.498 5.49902 -35.498 20.499q-22.998 24.998 -22.998 102.993t17.999 98.9941q27.998 32.998 97.9941 32.998z" />
    <glyph glyph-name="Agrave" unicode="&#xc0;" 
d="M985 449h-616l-144 -449h-176l501 1530h233l535 -1530h-181zM415 592h522l-270 803l-31 -114zM858 1741l-50 -92l-455 187l84 164z" />
    <glyph glyph-name="Aacute" unicode="&#xc1;" 
d="M985 449h-616l-144 -449h-176l501 1530h233l535 -1530h-181zM415 592h522l-270 803l-31 -114zM873 2000l93 -159l-459 -192l-50 92z" />
    <glyph glyph-name="Acircumflex" unicode="&#xc2;" 
d="M985 449h-616l-144 -449h-176l501 1530h233l535 -1530h-181zM415 592h522l-270 803l-31 -114zM746 1991l233 -248l-77 -80l-237 200l-229 -201l-74 82l224 247h160z" />
    <glyph glyph-name="Atilde" unicode="&#xc3;" 
d="M985 449h-616l-144 -449h-176l501 1530h233l535 -1530h-181zM415 592h522l-270 803l-31 -114zM1058 1926q-99 -230 -266 -230q-48 0 -133 60q-31 22 -61.5 40.5t-54.5 18.5t-44.5 -10t-43.5 -26t-47 -37l-46 -40l-71 63q56 103 126.5 149.5t139.5 46.5h13q55 0 136 -57
l56 -39q26 -18 49 -18t43 11.5t39.5 30.5t38.5 43l39 50z" />
    <glyph glyph-name="Adieresis" unicode="&#xc4;" 
d="M985 449h-616l-144 -449h-176l501 1530h233l535 -1530h-181zM415 592h522l-270 803l-31 -114zM432 1717q-63 0 -81 18q-28 29 -28 81t6 74.5t18 35.5q23 22 69.5 22t67 -5t33.5 -17q22 -23 22 -75t-5 -74.5t-17 -36.5q-22 -23 -85 -23zM890 1717q-63 0 -81 18
q-28 29 -28 81t6 74.5t18 35.5q23 22 69.5 22t67.5 -5t33 -17q24 -24 24 -75.5t-5.5 -74t-18.5 -36.5q-21 -23 -85 -23z" />
    <glyph glyph-name="Aring" unicode="&#xc5;" 
d="M985 449h-616l-144 -449h-176l501 1530h233l535 -1530h-181zM415 592h522l-270 803l-31 -114zM443 1701q-19 38 -19 93.5t18.5 94.5t50.5 64q60 47 166 47q164 0 216 -111q19 -39 19 -94.5t-18.5 -93.5t-50.5 -62q-63 -47 -166 -47q-163 0 -216 109zM657 1894
q-110 0 -110 -100q0 -95 110 -95t110 95q0 100 -110 100z" />
    <glyph glyph-name="AE" unicode="&#xc6;" horiz-adv-x="1875" 
d="M968 420h-516l-213 -420h-192l798 1530h939v-148h-646v-528h511v-147h-511v-560h673v-147h-843v420zM524 563h444v874z" />
    <glyph glyph-name="Ccedilla" unicode="&#xc7;" horiz-adv-x="1194" 
d="M822 -19q90 -96 90 -201q0 -208 -216 -208q-86 0 -134 19l25 128q47 -10 86.5 -10t69 21t29.5 63q0 88 -90 189q-308 20 -414 222q-65 125 -78 324q-7 97 -7 214t6.5 225.5t26.5 199t58 161.5t102 120q130 102 378 102q160 0 257.5 -20.5t131.5 -33.5l-45 -158
q-195 68 -333.5 68t-213 -33.5t-116.5 -110.5q-73 -132 -73 -503v-74q0 -305 79 -426q88 -135 321 -135h9q163 0 328 63l44 -138q-8 -3 -32.5 -13t-64.5 -22q-100 -28 -224 -33z" />
    <glyph glyph-name="Egrave" unicode="&#xc8;" horiz-adv-x="1195" 
d="M236 1530h867v-148h-697v-528h562v-147h-562v-560h724v-147h-894v1530zM899 1741l-50 -92l-455 187l84 164z" />
    <glyph glyph-name="Eacute" unicode="&#xc9;" horiz-adv-x="1195" 
d="M236 1530h867v-148h-697v-528h562v-147h-562v-560h724v-147h-894v1530zM870 2000l93 -159l-459 -192l-50 92z" />
    <glyph glyph-name="Ecircumflex" unicode="&#xca;" horiz-adv-x="1195" 
d="M236 1530h867v-148h-697v-528h562v-147h-562v-560h724v-147h-894v1530zM765 1991l233 -248l-77 -80l-237 200l-229 -201l-74 82l224 247h160z" />
    <glyph glyph-name="Edieresis" unicode="&#xcb;" horiz-adv-x="1195" 
d="M236 1530h867v-148h-697v-528h562v-147h-562v-560h724v-147h-894v1530zM448 1717q-63 0 -81 18q-28 29 -28 81t6 74.5t18 35.5q23 22 69.5 22t67 -5t33.5 -17q22 -23 22 -75t-5 -74.5t-17 -36.5q-22 -23 -85 -23zM906 1717q-63 0 -81 18q-28 29 -28 81t6 74.5t18 35.5
q23 22 69.5 22t67.5 -5t33 -17q24 -24 24 -75.5t-5.5 -74t-18.5 -36.5q-21 -23 -85 -23z" />
    <glyph glyph-name="Igrave" unicode="&#xcc;" horiz-adv-x="683" 
d="M257 1530h169v-1530h-169v1530zM556 1741l-50 -92l-455 187l84 164z" />
    <glyph glyph-name="Iacute" unicode="&#xcd;" horiz-adv-x="683" 
d="M257 1530h169v-1530h-169v1530zM534 2000l93 -159l-459 -192l-50 92z" />
    <glyph glyph-name="Icircumflex" unicode="&#xce;" horiz-adv-x="683" 
d="M257 1530h169v-1530h-169v1530zM421 1991l233 -248l-77 -80l-237 200l-229 -201l-74 82l224 247h160z" />
    <glyph glyph-name="Idieresis" unicode="&#xcf;" horiz-adv-x="683" 
d="M257 1530h169v-1530h-169v1530zM112 1717q-63 0 -81 18q-28 29 -28 81t6 74.5t18 35.5q23 22 69.5 22t67 -5t33.5 -17q22 -23 22 -75t-5 -74.5t-17 -36.5q-22 -23 -85 -23zM570 1717q-63 0 -81 18q-28 29 -28 81t6 74.5t18 35.5q23 22 69.5 22t67.5 -5t33 -17
q24 -24 24 -75.5t-5.5 -74t-18.5 -36.5q-21 -23 -85 -23z" />
    <glyph glyph-name="Eth" unicode="&#xd0;" horiz-adv-x="1534" 
d="M236 1520q396 32 547 32t226.5 -11t130 -38t90 -73.5t56.5 -118.5q36 -128 36 -344.5t-6 -344t-27.5 -228t-62.5 -175t-110 -123.5q-139 -96 -419 -96h-461v699h-162v135h162v686zM406 834h339v-135h-339v-551h321q188 0 276 61.5t119 206.5q25 119 25 383v175
q0 108 -7 189.5t-38 135.5q-60 108 -261 108q-107 0 -217 -7l-218 -15v-551z" />
    <glyph glyph-name="Ntilde" unicode="&#xd1;" horiz-adv-x="1536" 
d="M236 1530h135l704 -1112l91 -189l-22 210v1091h155v-1530h-143l-699 1109l-88 172l22 -204v-1077h-155v1530zM1162 1926q-99 -230 -266 -230q-48 0 -133 60q-31 22 -61.5 40.5t-54.5 18.5t-44.5 -10t-43.5 -26t-47 -37l-46 -40l-71 63q56 103 126.5 149.5t139.5 46.5h13
q55 0 136 -57l56 -39q26 -18 49 -18t43 11.5t39.5 30.5t38.5 43l39 50z" />
    <glyph glyph-name="Ograve" unicode="&#xd2;" horiz-adv-x="1534" 
d="M739 -20q-356 0 -470 224q-67 130 -79 347q-5 102 -5 222t7 227.5t27.5 194.5t58 153.5t98.5 111.5q126 90 363 90h62q371 0 475 -200q65 -125 73 -348q4 -109 4 -230.5t-6 -224t-25 -189.5t-55.5 -157t-98.5 -119q-128 -102 -367 -102h-62zM799 124q110 0 182.5 24
t114.5 84q78 111 78 426v108q0 151 -8 269t-43 199q-72 168 -312 168h-84q-244 0 -312 -157q-43 -100 -47 -236t-4 -243v-108q0 -295 88 -416q85 -118 287 -118h60zM999 1741l-50 -92l-455 187l84 164z" />
    <glyph glyph-name="Oacute" unicode="&#xd3;" horiz-adv-x="1534" 
d="M739 -20q-356 0 -470 224q-67 130 -79 347q-5 102 -5 222t7 227.5t27.5 194.5t58 153.5t98.5 111.5q126 90 363 90h62q371 0 475 -200q65 -125 73 -348q4 -109 4 -230.5t-6 -224t-25 -189.5t-55.5 -157t-98.5 -119q-128 -102 -367 -102h-62zM799 124q110 0 182.5 24
t114.5 84q78 111 78 426v108q0 151 -8 269t-43 199q-72 168 -312 168h-84q-244 0 -312 -157q-43 -100 -47 -236t-4 -243v-108q0 -295 88 -416q85 -118 287 -118h60zM1000 2000l93 -159l-459 -192l-50 92z" />
    <glyph glyph-name="Ocircumflex" unicode="&#xd4;" horiz-adv-x="1534" 
d="M739 -20q-356 0 -470 224q-67 130 -79 347q-5 102 -5 222t7 227.5t27.5 194.5t58 153.5t98.5 111.5q126 90 363 90h62q371 0 475 -200q65 -125 73 -348q4 -109 4 -230.5t-6 -224t-25 -189.5t-55.5 -157t-98.5 -119q-128 -102 -367 -102h-62zM799 124q110 0 182.5 24
t114.5 84q78 111 78 426v108q0 151 -8 269t-43 199q-72 168 -312 168h-84q-244 0 -312 -157q-43 -100 -47 -236t-4 -243v-108q0 -295 88 -416q85 -118 287 -118h60zM850 1991l233 -248l-77 -80l-237 200l-229 -201l-74 82l224 247h160z" />
    <glyph glyph-name="Otilde" unicode="&#xd5;" horiz-adv-x="1534" 
d="M739 -20q-356 0 -470 224q-67 130 -79 347q-5 102 -5 222t7 227.5t27.5 194.5t58 153.5t98.5 111.5q126 90 363 90h62q371 0 475 -200q65 -125 73 -348q4 -109 4 -230.5t-6 -224t-25 -189.5t-55.5 -157t-98.5 -119q-128 -102 -367 -102h-62zM799 124q110 0 182.5 24
t114.5 84q78 111 78 426v108q0 151 -8 269t-43 199q-72 168 -312 168h-84q-244 0 -312 -157q-43 -100 -47 -236t-4 -243v-108q0 -295 88 -416q85 -118 287 -118h60zM1163 1926q-99 -230 -266 -230q-48 0 -133 60q-31 22 -61.5 40.5t-54.5 18.5t-44.5 -10t-43.5 -26t-47 -37
l-46 -40l-71 63q56 103 126.5 149.5t139.5 46.5h13q55 0 136 -57l56 -39q26 -18 49 -18t43 11.5t39.5 30.5t38.5 43l39 50z" />
    <glyph glyph-name="Odieresis" unicode="&#xd6;" horiz-adv-x="1534" 
d="M739 -20q-356 0 -470 224q-67 130 -79 347q-5 102 -5 222t7 227.5t27.5 194.5t58 153.5t98.5 111.5q126 90 363 90h62q371 0 475 -200q65 -125 73 -348q4 -109 4 -230.5t-6 -224t-25 -189.5t-55.5 -157t-98.5 -119q-128 -102 -367 -102h-62zM799 124q110 0 182.5 24
t114.5 84q78 111 78 426v108q0 151 -8 269t-43 199q-72 168 -312 168h-84q-244 0 -312 -157q-43 -100 -47 -236t-4 -243v-108q0 -295 88 -416q85 -118 287 -118h60zM537 1717q-63 0 -81 18q-28 29 -28 81t6 74.5t18 35.5q23 22 69.5 22t67 -5t33.5 -17q22 -23 22 -75
t-5 -74.5t-17 -36.5q-22 -23 -85 -23zM995 1717q-63 0 -81 18q-28 29 -28 81t6 74.5t18 35.5q23 22 69.5 22t67.5 -5t33 -17q24 -24 24 -75.5t-5.5 -74t-18.5 -36.5q-21 -23 -85 -23z" />
    <glyph glyph-name="multiply" unicode="&#xd7;" horiz-adv-x="1363" 
d="M1043 200l-371 368l-369 -369l-95 93l371 371l-376 375l97 98l376 -375l376 375l94 -94l-376 -376l370 -370z" />
    <glyph glyph-name="Oslash" unicode="&#xd8;" horiz-adv-x="1534" 
d="M739 -20q-104 0 -183 18l-112 -332l-130 24l123 348q-222 111 -245 486q-7 114 -7 241.5t7 235t27.5 194.5t58 153.5t98.5 111.5q126 90 363 90h62q84 0 152 -9l103 305l133 -26l-110 -308q97 -34 152 -98.5t82 -158.5t33.5 -217t6.5 -255.5t-6 -235t-25 -189.5
t-55.5 -157t-98.5 -119q-128 -102 -367 -102h-62zM799 124q110 0 182.5 24t114.5 84q78 111 78 426v108q0 262 -18.5 353.5t-49 146t-83.5 87.5l-201 -568l-218 -645q57 -16 135 -16h60zM904 1395q-49 7 -93 7h-84q-244 0 -312 -157q-43 -100 -47 -236t-4 -243v-108
q0 -180 30.5 -291.5t98.5 -169.5l207 588z" />
    <glyph glyph-name="Ugrave" unicode="&#xd9;" horiz-adv-x="1534" 
d="M214 1530h168v-818q0 -242 21 -330t48.5 -132.5t71.5 -71.5q83 -51 228.5 -51t219 25t114 90t54.5 179t14 291v818h168v-812q0 -257 -19 -354.5t-52.5 -165.5t-94.5 -116q-128 -102 -382 -102q-378 0 -488 216q-61 121 -68 320q-3 91 -3 189v825zM1022 1741l-50 -92
l-455 187l84 164z" />
    <glyph glyph-name="Uacute" unicode="&#xda;" horiz-adv-x="1534" 
d="M214 1530h168v-818q0 -242 21 -330t48.5 -132.5t71.5 -71.5q83 -51 228.5 -51t219 25t114 90t54.5 179t14 291v818h168v-812q0 -257 -19 -354.5t-52.5 -165.5t-94.5 -116q-128 -102 -382 -102q-378 0 -488 216q-61 121 -68 320q-3 91 -3 189v825zM940 2000l93 -159
l-459 -192l-50 92z" />
    <glyph glyph-name="Ucircumflex" unicode="&#xdb;" horiz-adv-x="1534" 
d="M214 1530h168v-818q0 -242 21 -330t48.5 -132.5t71.5 -71.5q83 -51 228.5 -51t219 25t114 90t54.5 179t14 291v818h168v-812q0 -257 -19 -354.5t-52.5 -165.5t-94.5 -116q-128 -102 -382 -102q-378 0 -488 216q-61 121 -68 320q-3 91 -3 189v825zM842 1991l233 -248
l-77 -80l-237 200l-229 -201l-74 82l224 247h160z" />
    <glyph glyph-name="Udieresis" unicode="&#xdc;" horiz-adv-x="1534" 
d="M214 1530h168v-818q0 -242 21 -330t48.5 -132.5t71.5 -71.5q83 -51 228.5 -51t219 25t114 90t54.5 179t14 291v818h168v-812q0 -257 -19 -354.5t-52.5 -165.5t-94.5 -116q-128 -102 -382 -102q-378 0 -488 216q-61 121 -68 320q-3 91 -3 189v825zM540 1717q-63 0 -81 18
q-28 29 -28 81t6 74.5t18 35.5q23 22 69.5 22t67 -5t33.5 -17q22 -23 22 -75t-5 -74.5t-17 -36.5q-22 -23 -85 -23zM998 1717q-63 0 -81 18q-28 29 -28 81t6 74.5t18 35.5q23 22 69.5 22t67.5 -5t33 -17q24 -24 24 -75.5t-5.5 -74t-18.5 -36.5q-21 -23 -85 -23z" />
    <glyph glyph-name="Yacute" unicode="&#xdd;" horiz-adv-x="1194" 
d="M512 565l-499 965h186l327 -657l74 -169l73 172l320 654h188l-499 -965l-1 -565h-168zM801 2000l93 -159l-459 -192l-50 92z" />
    <glyph glyph-name="Thorn" unicode="&#xde;" 
d="M833 251.5q-41 -2.5 -143.5 -2.5t-283.5 27v-276h-170v1530h170v-259q220 20 378.5 20t240.5 -28t129 -81q82 -92 82 -304q0 -218 -24.5 -311t-56.5 -146t-76 -85.5t-83.5 -48.5t-80.5 -24.5t-82 -11zM921.5 1131.5q-46.5 14.5 -166.5 14.5t-349 -20v-709
q152 -20 299 -20t208.5 23.5t92.5 79.5t39.5 149t8.5 199t-14 156t-43 81.5t-75.5 46z" />
    <glyph glyph-name="germandbls" unicode="&#xdf;" horiz-adv-x="1533" 
d="M708 201q173 -80 347 -80q172 0 203 149q10 49 10 104.5t-6 87t-27 53.5q-36 38 -157 66.5t-188 54t-106 56.5q-66 52 -66 154q0 119 152 218q84 54 104.5 86t27.5 61q9 37 9 121.5t-11 126.5t-42 69q-62 54 -196.5 54t-196.5 -26.5t-93.5 -81.5t-40.5 -140t-9 -201
v-1133h-163v1120q0 220 22.5 309.5t54.5 140.5t84 86q106 69 314 69q270 0 366 -104q48 -52 64.5 -130t16.5 -162.5t-14 -135t-37 -89.5q-51 -87 -166 -159q-56 -35 -68.5 -52.5t-12.5 -37.5t7.5 -35t22.5 -26q25 -17 112 -41l169 -47q81 -22 135 -56.5t81 -94t27 -166.5
v-12q0 -332 -247 -383q-72 -14 -172 -14q-195 0 -378 82z" />
    <glyph glyph-name="agrave" unicode="&#xe0;" 
d="M1134 422q0 -199 19 -414l-148 -12l-25 139q-127 -102 -336 -142q-68 -13 -121 -13t-93.5 5t-78 19.5t-69.5 40.5t-56 69q-51 91 -51 218.5t18.5 198t61.5 117.5q85 93 286 93t429 -76v130q0 217 -179 257q-58 13 -133 13q-171 0 -355 -68l-37 144q51 34 260 61
q66 8 158.5 8t181.5 -22t148 -72q120 -99 120 -321v-373zM966 540q-234 59 -432 59q-122 0 -162 -70q-27 -49 -27 -145t10.5 -139t34.5 -71q47 -53 155 -53q169 0 335 87q51 26 92 58q-6 108 -6 274zM873 1486l-83 -87l-367 315l125 125z" />
    <glyph glyph-name="aacute" unicode="&#xe1;" 
d="M1134 422q0 -199 19 -414l-148 -12l-25 139q-127 -102 -336 -142q-68 -13 -121 -13t-93.5 5t-78 19.5t-69.5 40.5t-56 69q-51 91 -51 218.5t18.5 198t61.5 117.5q85 93 286 93t429 -76v130q0 217 -179 257q-58 13 -133 13q-171 0 -355 -68l-37 144q51 34 260 61
q66 8 158.5 8t181.5 -22t148 -72q120 -99 120 -321v-373zM966 540q-234 59 -432 59q-122 0 -162 -70q-27 -49 -27 -145t10.5 -139t34.5 -71q47 -53 155 -53q169 0 335 87q51 26 92 58q-6 108 -6 274zM830 1837l130 -121l-370 -317l-83 87z" />
    <glyph glyph-name="acircumflex" unicode="&#xe2;" 
d="M1134 422q0 -199 19 -414l-148 -12l-25 139q-127 -102 -336 -142q-68 -13 -121 -13t-93.5 5t-78 19.5t-69.5 40.5t-56 69q-51 91 -51 218.5t18.5 198t61.5 117.5q85 93 286 93t429 -76v130q0 217 -179 257q-58 13 -133 13q-171 0 -355 -68l-37 144q51 34 260 61
q66 8 158.5 8t181.5 -22t148 -72q120 -99 120 -321v-373zM966 540q-234 59 -432 59q-122 0 -162 -70q-27 -49 -27 -145t10.5 -139t34.5 -71q47 -53 155 -53q169 0 335 87q51 26 92 58q-6 108 -6 274zM724 1830l288 -350l-81 -80l-266 265l-259 -265l-82 79l279 351h121z" />
    <glyph glyph-name="atilde" unicode="&#xe3;" 
d="M1134 422q0 -199 19 -414l-148 -12l-25 139q-127 -102 -336 -142q-68 -13 -121 -13t-93.5 5t-78 19.5t-69.5 40.5t-56 69q-51 91 -51 218.5t18.5 198t61.5 117.5q85 93 286 93t429 -76v130q0 217 -179 257q-58 13 -133 13q-171 0 -355 -68l-37 144q51 34 260 61
q66 8 158.5 8t181.5 -22t148 -72q120 -99 120 -321v-373zM966 540q-234 59 -432 59q-122 0 -162 -70q-27 -49 -27 -145t10.5 -139t34.5 -71q47 -53 155 -53q169 0 335 87q51 26 92 58q-6 108 -6 274zM1052 1640q-99 -230 -266 -230q-48 0 -133 60q-31 22 -61.5 40.5
t-54.5 18.5t-44.5 -10t-43.5 -26t-47 -37l-46 -40l-71 63q56 103 126.5 149.5t139.5 46.5h13q55 0 136 -57l56 -39q26 -18 49 -18t43 11.5t39.5 30.5t38.5 43l39 50z" />
    <glyph glyph-name="adieresis" unicode="&#xe4;" 
d="M1134 422q0 -199 19 -414l-148 -12l-25 139q-127 -102 -336 -142q-68 -13 -121 -13t-93.5 5t-78 19.5t-69.5 40.5t-56 69q-51 91 -51 218.5t18.5 198t61.5 117.5q85 93 286 93t429 -76v130q0 217 -179 257q-58 13 -133 13q-171 0 -355 -68l-37 144q51 34 260 61
q66 8 158.5 8t181.5 -22t148 -72q120 -99 120 -321v-373zM966 540q-234 59 -432 59q-122 0 -162 -70q-27 -49 -27 -145t10.5 -139t34.5 -71q47 -53 155 -53q169 0 335 87q51 26 92 58q-6 108 -6 274zM439 1481q-63 0 -81 18q-28 29 -28 81t6 74.5t18 35.5q23 22 69.5 22
t67 -5t33.5 -17q22 -23 22 -75t-5 -74.5t-17 -36.5q-22 -23 -85 -23zM897 1481q-63 0 -81 18q-28 29 -28 81t6 74.5t18 35.5q23 22 69.5 22t67.5 -5t33 -17q24 -24 24 -75.5t-5.5 -74t-18.5 -36.5q-21 -23 -85 -23z" />
    <glyph glyph-name="aring" unicode="&#xe5;" 
d="M1134 422q0 -199 19 -414l-148 -12l-25 139q-127 -102 -336 -142q-68 -13 -121 -13t-93.5 5t-78 19.5t-69.5 40.5t-56 69q-51 91 -51 218.5t18.5 198t61.5 117.5q85 93 286 93t429 -76v130q0 217 -179 257q-58 13 -133 13q-171 0 -355 -68l-37 144q51 34 260 61
q66 8 158.5 8t181.5 -22t148 -72q120 -99 120 -321v-373zM966 540q-234 59 -432 59q-122 0 -162 -70q-27 -49 -27 -145t10.5 -139t34.5 -71q47 -53 155 -53q169 0 335 87q51 26 92 58q-6 108 -6 274zM473 1478q-20 40 -20 97.5t19.5 98.5t52.5 67q62 49 173 49
q170 0 225 -116q20 -41 20 -98.5t-19.5 -97t-52.5 -64.5q-64 -50 -173 -50q-169 0 -225 114zM696 1683q-117 0 -117 -108q0 -103 117 -103t117 103q0 108 -117 108z" />
    <glyph glyph-name="ae" unicode="&#xe6;" horiz-adv-x="2215" 
d="M711 1065q-171 0 -355 -68l-37 144q51 34 259 61q67 8 176 8t212 -39t156 -132v-1l1 1q54 96 160.5 133.5t255.5 37.5t237 -34.5t134.5 -99.5t61.5 -157.5t15 -176.5q0 -133 -6 -205q-141 -6 -251 -6h-158q-275 0 -393 19q0 -229 61 -319q73 -109 283.5 -109t407.5 84
l49 -143q-208 -83 -457 -83q-286 0 -408 145q-11 13 -23 34l-59 -39q-139 -92 -337 -128q-67 -12 -120 -12t-93.5 5t-78 19.5t-69.5 40.5t-56 69q-51 91 -51 251q0 184 74 277q84 107 281 107t444 -77l-2 123q0 216 -181 257q-58 13 -133 13zM408.5 246.5
q10.5 -41.5 34.5 -66.5q46 -49 155 -49q181 0 356 81q54 26 95 58q-21 99 -25 280q-202 55 -437 55q-122 0 -161 -73q-28 -51 -28 -147.5t10.5 -138zM1818 672v96q0 157 -58 224q-65 75 -233 75q-201 0 -275 -87q-73 -84 -73 -308h639z" />
    <glyph glyph-name="ccedilla" unicode="&#xe7;" horiz-adv-x="1196" 
d="M761 -16q92 -94 92 -202q0 -210 -216 -210q-87 0 -134 19l25 128q47 -10 86.5 -10t69 21t29.5 63q0 89 -89 188q-183 6 -276 74q-80 58 -113 144q-37 97 -43 209t-6 189t4 150.5t19.5 141.5t47.5 126.5t87 102.5q119 92 342 92q164 0 302 -48q37 -12 56 -23l-50 -148
q-192 74 -314.5 74t-180 -28t-89.5 -85q-54 -98 -54 -360q0 -105 7 -191.5t35 -148.5q59 -128 243.5 -128t358.5 64l50 -135q-109 -56 -289 -69z" />
    <glyph glyph-name="egrave" unicode="&#xe8;" 
d="M1155 63q-207 -83 -457 -83q-145 0 -246 30q-161 46 -214 190q-49 135 -49 400v51q0 317 132 445q119 114 397 114q271 0 370 -134q48 -65 63.5 -157.5t15.5 -176.5q0 -131 -6 -203q-141 -6 -253 -6h-161q-252 0 -388 22q0 -230 58 -321q71 -111 283 -111t406 83z
M998 672v96q0 157 -61 224q-68 75 -235 75q-200 0 -273 -87q-70 -83 -70 -308h639zM886 1486l-83 -87l-367 315l125 125z" />
    <glyph glyph-name="eacute" unicode="&#xe9;" 
d="M1155 63q-207 -83 -457 -83q-145 0 -246 30q-161 46 -214 190q-49 135 -49 400v51q0 317 132 445q119 114 397 114q271 0 370 -134q48 -65 63.5 -157.5t15.5 -176.5q0 -131 -6 -203q-141 -6 -253 -6h-161q-252 0 -388 22q0 -230 58 -321q71 -111 283 -111t406 83z
M998 672v96q0 157 -61 224q-68 75 -235 75q-200 0 -273 -87q-70 -83 -70 -308h639zM835 1837l130 -121l-370 -317l-83 87z" />
    <glyph glyph-name="ecircumflex" unicode="&#xea;" 
d="M1155 63q-207 -83 -457 -83q-145 0 -246 30q-161 46 -214 190q-49 135 -49 400v51q0 317 132 445q119 114 397 114q271 0 370 -134q48 -65 63.5 -157.5t15.5 -176.5q0 -131 -6 -203q-141 -6 -253 -6h-161q-252 0 -388 22q0 -230 58 -321q71 -111 283 -111t406 83z
M998 672v96q0 157 -61 224q-68 75 -235 75q-200 0 -273 -87q-70 -83 -70 -308h639zM749 1830l288 -350l-81 -80l-266 265l-259 -265l-82 79l279 351h121z" />
    <glyph glyph-name="edieresis" unicode="&#xeb;" 
d="M1155 63q-207 -83 -457 -83q-145 0 -246 30q-161 46 -214 190q-49 135 -49 400v51q0 317 132 445q119 114 397 114q271 0 370 -134q48 -65 63.5 -157.5t15.5 -176.5q0 -131 -6 -203q-141 -6 -253 -6h-161q-252 0 -388 22q0 -230 58 -321q71 -111 283 -111t406 83z
M998 672v96q0 157 -61 224q-68 75 -235 75q-200 0 -273 -87q-70 -83 -70 -308h639zM451 1481q-63 0 -81 18q-28 29 -28 81t6 74.5t18 35.5q23 22 69.5 22t67 -5t33.5 -17q22 -23 22 -75t-5 -74.5t-17 -36.5q-22 -23 -85 -23zM909 1481q-63 0 -81 18q-28 29 -28 81t6 74.5
t18 35.5q23 22 69.5 22t67.5 -5t33 -17q24 -24 24 -75.5t-5.5 -74t-18.5 -36.5q-21 -23 -85 -23z" />
    <glyph glyph-name="igrave" unicode="&#xec;" horiz-adv-x="683" 
d="M261 1188h164v-1188h-162zM489 1486l-83 -87l-367 315l125 125z" />
    <glyph glyph-name="iacute" unicode="&#xed;" horiz-adv-x="683" 
d="M261 1188h164v-1188h-162zM528 1837l130 -121l-370 -317l-83 87z" />
    <glyph glyph-name="icircumflex" unicode="&#xee;" horiz-adv-x="683" 
d="M261 1188h164v-1188h-162zM400 1830l288 -350l-81 -80l-266 265l-259 -265l-82 79l279 351h121z" />
    <glyph glyph-name="idieresis" unicode="&#xef;" horiz-adv-x="683" 
d="M261 1188h164v-1188h-162zM115 1481q-63 0 -81 18q-28 29 -28 81t6 74.5t18 35.5q23 22 69.5 22t67 -5t33.5 -17q22 -23 22 -75t-5 -74.5t-17 -36.5q-22 -23 -85 -23zM573 1481q-63 0 -81 18q-28 29 -28 81t6 74.5t18 35.5q23 22 69.5 22t67.5 -5t33 -17q24 -24 24 -75.5
t-5.5 -74t-18.5 -36.5q-21 -23 -85 -23z" />
    <glyph glyph-name="eth" unicode="&#xf0;" horiz-adv-x="1366" 
d="M1202 453q0 -473 -567 -473q-286 0 -386 154q-57 87 -67 202q-4 55 -4 107v184q0 103 14 183t58 134q88 111 342 111q179 0 355 -69q51 -20 90 -42q0 11 -1 27l-2 33q-15 240 -227 414l-183 -179l-97 98l176 156q-112 72 -265 140l71 125q181 -87 293 -161l172 182
l95 -107l-159 -154q184 -151 246 -339q46 -137 46 -388v-338zM1031 813q-194 94 -425 94q-104 0 -141 -15t-57.5 -36.5t-33.5 -57.5q-25 -69 -25 -213v-142q0 -174 51 -239q57 -74 220 -74h54q212 0 291 96q66 81 66 277v310z" />
    <glyph glyph-name="ntilde" unicode="&#xf1;" 
d="M786 1054q-195 0 -397 -115v-939h-166v1190h146l16 -123q109 89 271 127q66 16 155 16t157 -20.5t108 -65.5q73 -81 73 -295v-829h-168v798q0 144 -28 185.5t-66.5 56t-100.5 14.5zM1078 1640q-99 -230 -266 -230q-48 0 -133 60q-31 22 -61.5 40.5t-54.5 18.5t-44.5 -10
t-43.5 -26t-47 -37l-46 -40l-71 63q56 103 126.5 149.5t139.5 46.5h13q55 0 136 -57l56 -39q26 -18 49 -18t43 11.5t39.5 30.5t38.5 43l39 50z" />
    <glyph glyph-name="ograve" unicode="&#xf2;" horiz-adv-x="1363" 
d="M188 592q0 227 23 317t56.5 142.5t90.5 87.5q114 71 337 71q322 0 414 -159q55 -96 63 -271q3 -83 3 -183t-6.5 -186.5t-25.5 -155.5t-53 -120.5t-90 -86.5q-110 -68 -321 -68q-316 0 -415 156q-61 97 -71 272q-5 84 -5 184zM550.5 134.5q54.5 -13.5 149 -13.5t159 27
t97 86.5t41 154.5t8.5 221t-7.5 210t-37.5 139q-60 108 -267 108q-219 0 -285 -108q-33 -55 -42 -140t-9 -185t2.5 -169.5t13 -125t31 -96.5t56.5 -68t90.5 -40.5zM849 1486l-83 -87l-367 315l125 125z" />
    <glyph glyph-name="oacute" unicode="&#xf3;" horiz-adv-x="1363" 
d="M188 592q0 227 23 317t56.5 142.5t90.5 87.5q114 71 337 71q322 0 414 -159q55 -96 63 -271q3 -83 3 -183t-6.5 -186.5t-25.5 -155.5t-53 -120.5t-90 -86.5q-110 -68 -321 -68q-316 0 -415 156q-61 97 -71 272q-5 84 -5 184zM550.5 134.5q54.5 -13.5 149 -13.5t159 27
t97 86.5t41 154.5t8.5 221t-7.5 210t-37.5 139q-60 108 -267 108q-219 0 -285 -108q-33 -55 -42 -140t-9 -185t2.5 -169.5t13 -125t31 -96.5t56.5 -68t90.5 -40.5zM866 1837l130 -121l-370 -317l-83 87z" />
    <glyph glyph-name="ocircumflex" unicode="&#xf4;" horiz-adv-x="1363" 
d="M188 592q0 227 23 317t56.5 142.5t90.5 87.5q114 71 337 71q322 0 414 -159q55 -96 63 -271q3 -83 3 -183t-6.5 -186.5t-25.5 -155.5t-53 -120.5t-90 -86.5q-110 -68 -321 -68q-316 0 -415 156q-61 97 -71 272q-5 84 -5 184zM550.5 134.5q54.5 -13.5 149 -13.5t159 27
t97 86.5t41 154.5t8.5 221t-7.5 210t-37.5 139q-60 108 -267 108q-219 0 -285 -108q-33 -55 -42 -140t-9 -185t2.5 -169.5t13 -125t31 -96.5t56.5 -68t90.5 -40.5zM750 1830l288 -350l-81 -80l-266 265l-259 -265l-82 79l279 351h121z" />
    <glyph glyph-name="otilde" unicode="&#xf5;" horiz-adv-x="1363" 
d="M188 592q0 227 23 317t56.5 142.5t90.5 87.5q114 71 337 71q322 0 414 -159q55 -96 63 -271q3 -83 3 -183t-6.5 -186.5t-25.5 -155.5t-53 -120.5t-90 -86.5q-110 -68 -321 -68q-316 0 -415 156q-61 97 -71 272q-5 84 -5 184zM550.5 134.5q54.5 -13.5 149 -13.5t159 27
t97 86.5t41 154.5t8.5 221t-7.5 210t-37.5 139q-60 108 -267 108q-219 0 -285 -108q-33 -55 -42 -140t-9 -185t2.5 -169.5t13 -125t31 -96.5t56.5 -68t90.5 -40.5zM1069 1640q-99 -230 -266 -230q-48 0 -133 60q-31 22 -61.5 40.5t-54.5 18.5t-44.5 -10t-43.5 -26t-47 -37
l-46 -40l-71 63q56 103 126.5 149.5t139.5 46.5h13q55 0 136 -57l56 -39q26 -18 49 -18t43 11.5t39.5 30.5t38.5 43l39 50z" />
    <glyph glyph-name="odieresis" unicode="&#xf6;" horiz-adv-x="1363" 
d="M188 592q0 227 23 317t56.5 142.5t90.5 87.5q114 71 337 71q322 0 414 -159q55 -96 63 -271q3 -83 3 -183t-6.5 -186.5t-25.5 -155.5t-53 -120.5t-90 -86.5q-110 -68 -321 -68q-316 0 -415 156q-61 97 -71 272q-5 84 -5 184zM550.5 134.5q54.5 -13.5 149 -13.5t159 27
t97 86.5t41 154.5t8.5 221t-7.5 210t-37.5 139q-60 108 -267 108q-219 0 -285 -108q-33 -55 -42 -140t-9 -185t2.5 -169.5t13 -125t31 -96.5t56.5 -68t90.5 -40.5zM454 1481q-63 0 -81 18q-28 29 -28 81t6 74.5t18 35.5q23 22 69.5 22t67 -5t33.5 -17q22 -23 22 -75
t-5 -74.5t-17 -36.5q-22 -23 -85 -23zM912 1481q-63 0 -81 18q-28 29 -28 81t6 74.5t18 35.5q23 22 69.5 22t67.5 -5t33 -17q24 -24 24 -75.5t-5.5 -74t-18.5 -36.5q-21 -23 -85 -23z" />
    <glyph glyph-name="divide" unicode="&#xf7;" horiz-adv-x="1195" 
d="M107 574v133h981v-133h-981zM595 77q-65 0 -83 19q-28 31 -28 86.5t5.5 79t18.5 36.5q24 25 72 25t69 -5.5t33 -19.5q23 -24 23 -78.5t-5 -78.5t-18 -39q-21 -25 -87 -25zM595 962q-64 0 -83 19q-28 29 -28 85.5t5.5 80t18.5 37.5q24 24 72 24t69 -5.5t33 -18.5
q23 -25 23 -98q0 -74 -17 -93q-28 -31 -93 -31z" />
    <glyph glyph-name="oslash" unicode="&#xf8;" horiz-adv-x="1363" 
d="M496.5 1192q82.5 18 170.5 18t156 -7l101 304l133 -26l-109 -305q150 -54 195 -204q32 -106 32 -372q0 -229 -25.5 -321.5t-59.5 -144t-90 -86.5q-110 -68 -321 -68q-79 0 -140 9l-107 -323l-130 24l115 327q-143 54 -191 203q-38 115 -38 372q0 227 23 317t56.5 142.5
t90 87.5t139 53zM585 127q43 -6 126 -6t147.5 27t97 86.5t41 154.5t8.5 203t-3 172.5t-14 115.5q-23 104 -94 146l-157 -441zM777 1062q-47 5 -124 5t-144 -26.5t-100.5 -81.5t-42.5 -140t-9 -186.5t2.5 -173t14.5 -127.5q24 -117 96 -164l160 451z" />
    <glyph glyph-name="ugrave" unicode="&#xf9;" 
d="M1123 524q0 -330 19 -516l-149 -12l-24 141q-117 -97 -273 -140q-62 -17 -147.5 -17t-153 20.5t-107.5 65.5q-73 81 -73 295v829h168v-802q0 -144 28 -185.5t66.5 -56t91.5 -14.5t102.5 8.5t99.5 24.5q105 34 190 93v1q-4 76 -4 296v635h166v-666zM841 1486l-83 -87
l-367 315l125 125z" />
    <glyph glyph-name="uacute" unicode="&#xfa;" 
d="M1123 524q0 -330 19 -516l-149 -12l-24 141q-117 -97 -273 -140q-62 -17 -147.5 -17t-153 20.5t-107.5 65.5q-73 81 -73 295v829h168v-802q0 -144 28 -185.5t66.5 -56t91.5 -14.5t102.5 8.5t99.5 24.5q105 34 190 93v1q-4 76 -4 296v635h166v-666zM835 1837l130 -121
l-370 -317l-83 87z" />
    <glyph glyph-name="ucircumflex" unicode="&#xfb;" 
d="M1123 524q0 -330 19 -516l-149 -12l-24 141q-117 -97 -273 -140q-62 -17 -147.5 -17t-153 20.5t-107.5 65.5q-73 81 -73 295v829h168v-802q0 -144 28 -185.5t66.5 -56t91.5 -14.5t102.5 8.5t99.5 24.5q105 34 190 93v1q-4 76 -4 296v635h166v-666zM730 1830l288 -350
l-81 -80l-266 265l-259 -265l-82 79l279 351h121z" />
    <glyph glyph-name="udieresis" unicode="&#xfc;" 
d="M1123 524q0 -330 19 -516l-149 -12l-24 141q-117 -97 -273 -140q-62 -17 -147.5 -17t-153 20.5t-107.5 65.5q-73 81 -73 295v829h168v-802q0 -144 28 -185.5t66.5 -56t91.5 -14.5t102.5 8.5t99.5 24.5q105 34 190 93v1q-4 76 -4 296v635h166v-666zM439 1481q-63 0 -81 18
q-28 29 -28 81t6 74.5t18 35.5q23 22 69.5 22t67 -5t33.5 -17q22 -23 22 -75t-5 -74.5t-17 -36.5q-22 -23 -85 -23zM897 1481q-63 0 -81 18q-28 29 -28 81t6 74.5t18 35.5q23 22 69.5 22t67.5 -5t33 -17q24 -24 24 -75.5t-5.5 -74t-18.5 -36.5q-21 -23 -85 -23z" />
    <glyph glyph-name="yacute" unicode="&#xfd;" horiz-adv-x="1192" 
d="M197 -288q73 -26 119.5 -26t61 2.5t29.5 10.5q35 19 52 62q42 102 73 224l-459 1205h185l310 -877l47 -154l43 155l274 876h174l-502 -1472q-55 -172 -254 -172q-126 0 -198 36zM747 1837l130 -121l-370 -317l-83 87z" />
    <glyph glyph-name="thorn" unicode="&#xfe;" 
d="M379 111v-566h-162v2157l166 16v-642q207 134 400 134q268 0 340 -165q45 -104 51 -292q2 -91 2 -200v-80q0 -137 -17.5 -206t-44.5 -118.5t-74 -86.5q-102 -82 -292 -82t-369 131zM383 242q212 -115 357 -115h12q171 0 220 95q26 48 32 125t6 185v144q0 223 -51 300
q-50 77 -190 77h-25q-125 0 -290 -74q-43 -19 -71 -35v-702z" />
    <glyph glyph-name="ydieresis" unicode="&#xff;" horiz-adv-x="1192" 
d="M197 -288q73 -26 119.5 -26t61 2.5t29.5 10.5q35 19 52 62q42 102 73 224l-459 1205h185l310 -877l47 -154l43 155l274 876h174l-502 -1472q-55 -172 -254 -172q-126 0 -198 36zM362 1481q-63 0 -81 18q-28 29 -28 81t6 74.5t18 35.5q23 22 69.5 22t67 -5t33.5 -17
q22 -23 22 -75t-5 -74.5t-17 -36.5q-22 -23 -85 -23zM820 1481q-63 0 -81 18q-28 29 -28 81t6 74.5t18 35.5q23 22 69.5 22t67.5 -5t33 -17q24 -24 24 -75.5t-5.5 -74t-18.5 -36.5q-21 -23 -85 -23z" />
    <glyph glyph-name="Amacron" unicode="&#x100;" 
d="M985 449h-616l-144 -449h-176l501 1530h233l535 -1530h-181zM415 592h522l-270 803l-31 -114zM363 1741v135h599v-135h-599z" />
    <glyph glyph-name="amacron" unicode="&#x101;" 
d="M1134 422q0 -199 19 -414l-148 -12l-25 139q-127 -102 -336 -142q-68 -13 -121 -13t-93.5 5t-78 19.5t-69.5 40.5t-56 69q-51 91 -51 218.5t18.5 198t61.5 117.5q85 93 286 93t429 -76v130q0 217 -179 257q-58 13 -133 13q-171 0 -355 -68l-37 144q51 34 260 61
q66 8 158.5 8t181.5 -22t148 -72q120 -99 120 -321v-373zM966 540q-234 59 -432 59q-122 0 -162 -70q-27 -49 -27 -145t10.5 -139t34.5 -71q47 -53 155 -53q169 0 335 87q51 26 92 58q-6 108 -6 274zM390 1528v135h599v-135h-599z" />
    <glyph glyph-name="Abreve" unicode="&#x102;" 
d="M985 449h-616l-144 -449h-176l501 1530h233l535 -1530h-181zM415 592h522l-270 803l-31 -114zM977 1989q-10 -340 -321 -340q-158 0 -239.5 87t-81.5 253l136 11q2 -120 47.5 -173.5t137.5 -53.5q140 0 172 119q11 44 13 108z" />
    <glyph glyph-name="abreve" unicode="&#x103;" 
d="M1134 422q0 -199 19 -414l-148 -12l-25 139q-127 -102 -336 -142q-68 -13 -121 -13t-93.5 5t-78 19.5t-69.5 40.5t-56 69q-51 91 -51 218.5t18.5 198t61.5 117.5q85 93 286 93t429 -76v130q0 217 -179 257q-58 13 -133 13q-171 0 -355 -68l-37 144q51 34 260 61
q66 8 158.5 8t181.5 -22t148 -72q120 -99 120 -321v-373zM966 540q-234 59 -432 59q-122 0 -162 -70q-27 -49 -27 -145t10.5 -139t34.5 -71q47 -53 155 -53q169 0 335 87q51 26 92 58q-6 108 -6 274zM1011 1733q-10 -340 -321 -340q-158 0 -239.5 87t-81.5 253l136 11
q2 -120 47.5 -173.5t137.5 -53.5q140 0 172 120q11 43 13 107z" />
    <glyph glyph-name="Aogonek" unicode="&#x104;" 
d="M976 -275q0 164 161 275l-152 449h-616l-144 -449h-176l501 1530h233l535 -1530h-24q-174 -105 -174 -251q0 -87 105 -87q75 0 149 31l40 -125q-66 -42 -178 -42q-260 0 -260 199zM415 592h522l-270 803l-31 -114z" />
    <glyph glyph-name="aogonek" unicode="&#x105;" 
d="M818 -276q0 154 185 280l-23 131q-127 -102 -336 -142q-68 -13 -121 -13t-93.5 5t-78 19.5t-69.5 40.5t-56 69q-51 91 -51 218.5t18.5 198t61.5 117.5q85 93 286 93t429 -76v130q0 217 -179 257q-58 13 -133 13q-171 0 -355 -68l-37 144q51 34 260 61q66 8 158.5 8
t181.5 -22t148 -72q120 -99 120 -321v-373q0 -222 20 -422q-146 -88 -182 -198q-10 -31 -10 -54q0 -87 105 -87q75 0 149 31l40 -125q-66 -42 -178 -42q-260 0 -260 199zM966 540q-234 59 -432 59q-122 0 -162 -70q-27 -49 -27 -145t10.5 -139t34.5 -71q47 -53 155 -53
q169 0 335 87q51 26 92 58q-6 108 -6 274z" />
    <glyph glyph-name="Cacute" unicode="&#x106;" horiz-adv-x="1194" 
d="M771 124q163 0 328 63l44 -138q-76 -38 -183 -53.5t-189 -15.5h-14q-356 0 -477 204q-74 124 -90 334q-7 101 -7 221t6.5 228.5t26.5 199t58 161.5t102 120q130 102 378 102q160 0 257.5 -20.5t131.5 -33.5l-45 -158q-195 68 -333.5 68t-213 -33.5t-116.5 -110.5
q-73 -132 -73 -503v-74q0 -305 79 -426q88 -135 321 -135h9zM967 2000l93 -159l-459 -192l-50 92z" />
    <glyph glyph-name="cacute" unicode="&#x107;" horiz-adv-x="1196" 
d="M1050 53q-139 -73 -381 -73q-143 0 -210 22q-171 58 -224 197q-37 97 -43 209t-6 189t4 150.5t19.5 141.5t47.5 126.5t87 102.5q119 92 342 92q164 0 302 -48q37 -12 56 -23l-50 -148q-192 74 -314.5 74t-180 -28t-89.5 -85q-54 -98 -54 -360q0 -105 7 -191.5t35 -148.5
q59 -128 243.5 -128t358.5 64zM774 1837l130 -121l-370 -317l-83 87z" />
    <glyph glyph-name="Ccircumflex" unicode="&#x108;" horiz-adv-x="1194" 
d="M771 124q163 0 328 63l44 -138q-76 -38 -183 -53.5t-189 -15.5h-14q-356 0 -477 204q-74 124 -90 334q-7 101 -7 221t6.5 228.5t26.5 199t58 161.5t102 120q130 102 378 102q160 0 257.5 -20.5t131.5 -33.5l-45 -158q-195 68 -333.5 68t-213 -33.5t-116.5 -110.5
q-73 -132 -73 -503v-74q0 -305 79 -426q88 -135 321 -135h9zM788 1991l233 -248l-77 -80l-237 200l-229 -201l-74 82l224 247h160z" />
    <glyph glyph-name="ccircumflex" unicode="&#x109;" horiz-adv-x="1196" 
d="M1050 53q-139 -73 -381 -73q-143 0 -210 22q-171 58 -224 197q-37 97 -43 209t-6 189t4 150.5t19.5 141.5t47.5 126.5t87 102.5q119 92 342 92q164 0 302 -48q37 -12 56 -23l-50 -148q-192 74 -314.5 74t-180 -28t-89.5 -85q-54 -98 -54 -360q0 -105 7 -191.5t35 -148.5
q59 -128 243.5 -128t358.5 64zM717 1830l288 -350l-81 -80l-266 265l-259 -265l-82 79l279 351h121z" />
    <glyph glyph-name="Cdotaccent" unicode="&#x10a;" horiz-adv-x="1194" 
d="M771 124q163 0 328 63l44 -138q-76 -38 -183 -53.5t-189 -15.5h-14q-356 0 -477 204q-74 124 -90 334q-7 101 -7 221t6.5 228.5t26.5 199t58 161.5t102 120q130 102 378 102q160 0 257.5 -20.5t131.5 -33.5l-45 -158q-195 68 -333.5 68t-213 -33.5t-116.5 -110.5
q-73 -132 -73 -503v-74q0 -305 79 -426q88 -135 321 -135h9zM702 1711q-67 0 -86 19q-30 31 -30 85.5t6.5 78t20.5 36.5q23 24 72.5 24t71 -5t34.5 -19q25 -24 25 -78.5t-5.5 -78t-19.5 -37.5q-24 -25 -89 -25z" />
    <glyph glyph-name="cdotaccent" unicode="&#x10b;" horiz-adv-x="1196" 
d="M1050 53q-139 -73 -381 -73q-143 0 -210 22q-171 58 -224 197q-37 97 -43 209t-6 189t4 150.5t19.5 141.5t47.5 126.5t87 102.5q119 92 342 92q164 0 302 -48q37 -12 56 -23l-50 -148q-192 74 -314.5 74t-180 -28t-89.5 -85q-54 -98 -54 -360q0 -105 7 -191.5t35 -148.5
q59 -128 243.5 -128t358.5 64zM666 1475q-67 0 -86 19q-30 31 -30 85.5t6.5 78t19.5 36.5q24 24 73.5 24t71 -5t35.5 -19q24 -24 24 -78.5t-5.5 -78t-18.5 -37.5q-25 -25 -90 -25z" />
    <glyph glyph-name="Ccaron" unicode="&#x10c;" horiz-adv-x="1194" 
d="M771 124q163 0 328 63l44 -138q-76 -38 -183 -53.5t-189 -15.5h-14q-356 0 -477 204q-74 124 -90 334q-7 101 -7 221t6.5 228.5t26.5 199t58 161.5t102 120q130 102 378 102q160 0 257.5 -20.5t131.5 -33.5l-45 -158q-195 68 -333.5 68t-213 -33.5t-116.5 -110.5
q-73 -132 -73 -503v-74q0 -305 79 -426q88 -135 321 -135h9zM624 1669l-233 248l77 80l237 -200l229 201l74 -82l-224 -247h-160z" />
    <glyph glyph-name="ccaron" unicode="&#x10d;" horiz-adv-x="1196" 
d="M1050 53q-139 -73 -381 -73q-143 0 -210 22q-171 58 -224 197q-37 97 -43 209t-6 189t4 150.5t19.5 141.5t47.5 126.5t87 102.5q119 92 342 92q164 0 302 -48q37 -12 56 -23l-50 -148q-192 74 -314.5 74t-180 -28t-89.5 -85q-54 -98 -54 -360q0 -105 7 -191.5t35 -148.5
q59 -128 243.5 -128t358.5 64zM612 1407l-288 350l81 80l266 -265l259 265l82 -80l-279 -350h-121z" />
    <glyph glyph-name="Dcaron" unicode="&#x10e;" horiz-adv-x="1534" 
d="M236 0v1521l150 11q225 18 359 18t214 -10.5t140.5 -36t103 -69.5t69.5 -112q51 -127 51 -378v-155q0 -297 -44 -451q-51 -178 -183 -256q-136 -82 -399 -82h-461zM981 1373q-68 29 -209 29t-366 -17v-1242h318q186 0 276 61q88 59 118 203q26 118 26 382v156
q0 249 -59 342q-36 57 -104 86zM649 1669l-233 248l77 80l237 -200l229 201l74 -82l-224 -247h-160z" />
    <glyph glyph-name="dcaron" unicode="&#x10f;" 
d="M984 1137v565l166 16v-1171q0 -345 19 -539l-149 -12l-24 137q-211 -153 -429 -153q-241 0 -321 177q-46 100 -51.5 211.5t-5.5 196t1.5 170.5t12.5 159t34.5 131.5t67.5 99.5q91 85 300.5 85t378.5 -73zM988 268q-5 93 -5 287l1 445q-180 60 -348 60q-122 0 -161 -20
t-59.5 -52t-33.5 -88q-23 -105 -23 -346v-22q0 -225 49 -311q53 -91 197 -91h15q138 0 294 88q43 24 74 48v2zM1417 1713q51 0 51 -47q0 -13 -5 -48l-52 -338h-112v419l22 4q58 10 96 10z" />
    <glyph glyph-name="Dcroat" unicode="&#x110;" horiz-adv-x="1534" 
d="M236 1520q396 32 547 32t226.5 -11t130 -38t90 -73.5t56.5 -118.5q36 -128 36 -344.5t-6 -344t-27.5 -228t-62.5 -175t-110 -123.5q-139 -96 -419 -96h-461v699h-162v135h162v686zM406 834h339v-135h-339v-551h321q188 0 276 61.5t119 206.5q25 119 25 383v175
q0 108 -7 189.5t-38 135.5q-60 108 -261 108q-107 0 -217 -7l-218 -15v-551z" />
    <glyph glyph-name="dcroat" unicode="&#x111;" 
d="M984 1137v265h-297v127h297v173l166 16v-189h209v-127h-209v-855q0 -345 19 -539l-149 -12l-24 137q-211 -153 -429 -153q-241 0 -321 177q-46 100 -51.5 211.5t-5.5 196t1.5 170.5t12.5 159t34.5 131.5t67.5 99.5q91 85 300.5 85t378.5 -73zM988 268q-5 93 -5 287l1 445
q-180 60 -348 60q-122 0 -161 -20t-59.5 -52t-33.5 -88q-23 -105 -23 -346v-22q0 -225 49 -311q53 -91 197 -91h15q138 0 294 88q43 24 74 48v2z" />
    <glyph glyph-name="Emacron" unicode="&#x112;" horiz-adv-x="1195" 
d="M236 1530h867v-148h-697v-528h562v-147h-562v-560h724v-147h-894v1530zM378 1741v135h599v-135h-599z" />
    <glyph glyph-name="emacron" unicode="&#x113;" 
d="M1155 63q-207 -83 -457 -83q-145 0 -246 30q-161 46 -214 190q-49 135 -49 400v51q0 317 132 445q119 114 397 114q271 0 370 -134q48 -65 63.5 -157.5t15.5 -176.5q0 -131 -6 -203q-141 -6 -253 -6h-161q-252 0 -388 22q0 -230 58 -321q71 -111 283 -111t406 83z
M998 672v96q0 157 -61 224q-68 75 -235 75q-200 0 -273 -87q-70 -83 -70 -308h639zM385 1528v135h599v-135h-599z" />
    <glyph glyph-name="Ebreve" unicode="&#x114;" horiz-adv-x="1195" 
d="M236 1530h867v-148h-697v-528h562v-147h-562v-560h724v-147h-894v1530zM995 1989q-10 -340 -321 -340q-158 0 -239.5 87t-81.5 253l136 11q2 -120 47.5 -173.5t137.5 -53.5q140 0 172 119q11 44 13 108z" />
    <glyph glyph-name="ebreve" unicode="&#x115;" 
d="M1155 63q-207 -83 -457 -83q-145 0 -246 30q-161 46 -214 190q-49 135 -49 400v51q0 317 132 445q119 114 397 114q271 0 370 -134q48 -65 63.5 -157.5t15.5 -176.5q0 -131 -6 -203q-141 -6 -253 -6h-161q-252 0 -388 22q0 -230 58 -321q71 -111 283 -111t406 83z
M998 672v96q0 157 -61 224q-68 75 -235 75q-200 0 -273 -87q-70 -83 -70 -308h639zM996 1734q-10 -340 -321 -340q-158 0 -239.5 87t-81.5 253l136 11q2 -120 47.5 -173.5t137.5 -53.5q140 0 172 120q11 43 13 107z" />
    <glyph glyph-name="Edotaccent" unicode="&#x116;" horiz-adv-x="1195" 
d="M236 1530h867v-148h-697v-528h562v-147h-562v-560h724v-147h-894v1530zM683 1711q-67 0 -86 19q-30 31 -30 85.5t6.5 78t20.5 36.5q23 24 72.5 24t71 -5t34.5 -19q25 -24 25 -78.5t-5.5 -78t-19.5 -37.5q-24 -25 -89 -25z" />
    <glyph glyph-name="edotaccent" unicode="&#x117;" 
d="M1155 63q-207 -83 -457 -83q-145 0 -246 30q-161 46 -214 190q-49 135 -49 400v51q0 317 132 445q119 114 397 114q271 0 370 -134q48 -65 63.5 -157.5t15.5 -176.5q0 -131 -6 -203q-141 -6 -253 -6h-161q-252 0 -388 22q0 -230 58 -321q71 -111 283 -111t406 83z
M998 672v96q0 157 -61 224q-68 75 -235 75q-200 0 -273 -87q-70 -83 -70 -308h639zM683 1475q-67 0 -86 19q-30 31 -30 85.5t6.5 78t19.5 36.5q24 24 73.5 24t71 -5t35.5 -19q24 -24 24 -78.5t-5.5 -78t-18.5 -37.5q-25 -25 -90 -25z" />
    <glyph glyph-name="Eogonek" unicode="&#x118;" horiz-adv-x="1195" 
d="M712 -275q0 152 177 275h-653v1530h867v-148h-697v-528h562v-147h-562v-560h724v-147h-84q-144 -87 -180 -198q-10 -30 -10 -53q0 -87 105 -87q75 0 149 31l40 -125q-66 -42 -178 -42q-260 0 -260 199z" />
    <glyph glyph-name="eogonek" unicode="&#x119;" 
d="M623 -276q0 142 155 259l-40 -2t-40 -1q-145 0 -246 30q-161 46 -214 190q-49 135 -49 400v51q0 317 132 445q119 114 397 114q271 0 370 -134q48 -65 63.5 -157.5t15.5 -202.5t-6 -182q-141 -6 -253 -6h-161q-252 0 -388 22q0 -230 58 -319q71 -109 281.5 -109t407.5 84
l49 -143q-82 -31 -174 -52l-22 -11q-146 -88 -182 -198q-10 -31 -10 -54q0 -87 105 -87q75 0 149 31l40 -125q-66 -42 -178 -42q-260 0 -260 199zM998 672v96q0 157 -61 224q-68 75 -235 75q-200 0 -273 -87q-70 -83 -70 -308h639z" />
    <glyph glyph-name="Ecaron" unicode="&#x11a;" horiz-adv-x="1195" 
d="M236 1530h867v-148h-697v-528h562v-147h-562v-560h724v-147h-894v1530zM604 1669l-233 248l77 80l237 -200l229 201l74 -82l-224 -247h-160z" />
    <glyph glyph-name="ecaron" unicode="&#x11b;" 
d="M1155 63q-207 -83 -457 -83q-145 0 -246 30q-161 46 -214 190q-49 135 -49 400v51q0 317 132 445q119 114 397 114q271 0 370 -134q48 -65 63.5 -157.5t15.5 -176.5q0 -131 -6 -203q-141 -6 -253 -6h-161q-252 0 -388 22q0 -230 58 -321q71 -111 283 -111t406 83z
M998 672v96q0 157 -61 224q-68 75 -235 75q-200 0 -273 -87q-70 -83 -70 -308h639zM620 1407l-288 350l81 80l266 -265l259 265l82 -80l-279 -350h-121z" />
    <glyph glyph-name="Gcircumflex" unicode="&#x11c;" 
d="M1165 1322q-241 84 -463 84q-229 0 -298 -188q-41 -111 -45.5 -252.5t-4.5 -244.5v-99q0 -319 107 -423q64 -62 171 -73q50 -6 103 -6t102.5 5.5t94.5 14.5q91 18 136 40v472h-309v138h476v-685q-94 -71 -333 -111q-83 -14 -189 -14t-194.5 21.5t-150 63t-99.5 103.5
t-59 143q-34 136 -34 335.5t7 315t27.5 209t57.5 164.5t97 119q122 96 348 96q258 0 441 -57l51 -16zM838 1991l233 -248l-77 -80l-237 200l-229 -201l-74 82l224 247h160z" />
    <glyph glyph-name="gcircumflex" unicode="&#x11d;" 
d="M984 114q-191 -134 -404 -134q-249 0 -332 177q-48 100 -56 253q-3 70 -3 154.5t1.5 170.5t12.5 159t34.5 131.5t67.5 99.5q91 85 280.5 85t403.5 -102l16 82h144l1 -1168q0 -257 -101 -374q-108 -124 -365 -124q-200 0 -355 54q-39 13 -60 24l52 141q18 -6 53 -19.5
t84 -26.5q124 -33 227.5 -33t159.5 21t87 65q52 74 52 269v95zM984 970q-180 90 -348 90q-122 0 -161 -20t-59.5 -52t-33.5 -88q-23 -105 -23 -346v-22q0 -222 55 -311q55 -91 201 -91h15q138 0 282 76q41 21 72 43v721zM725 1830l288 -350l-81 -80l-266 265l-259 -265
l-82 79l279 351h121z" />
    <glyph glyph-name="Gbreve" unicode="&#x11e;" 
d="M1165 1322q-241 84 -463 84q-229 0 -298 -188q-41 -111 -45.5 -252.5t-4.5 -244.5v-99q0 -319 107 -423q64 -62 171 -73q50 -6 103 -6t102.5 5.5t94.5 14.5q91 18 136 40v472h-309v138h476v-685q-94 -71 -333 -111q-83 -14 -189 -14t-194.5 21.5t-150 63t-99.5 103.5
t-59 143q-34 136 -34 335.5t7 315t27.5 209t57.5 164.5t97 119q122 96 348 96q258 0 441 -57l51 -16zM1062 1989q-10 -340 -321 -340q-158 0 -239.5 87t-81.5 253l136 11q2 -120 47.5 -173.5t137.5 -53.5q140 0 172 119q11 44 13 108z" />
    <glyph glyph-name="gbreve" unicode="&#x11f;" 
d="M984 114q-191 -134 -404 -134q-249 0 -332 177q-48 100 -56 253q-3 70 -3 154.5t1.5 170.5t12.5 159t34.5 131.5t67.5 99.5q91 85 280.5 85t403.5 -102l16 82h144l1 -1168q0 -257 -101 -374q-108 -124 -365 -124q-200 0 -355 54q-39 13 -60 24l52 141q18 -6 53 -19.5
t84 -26.5q124 -33 227.5 -33t159.5 21t87 65q52 74 52 269v95zM984 970q-180 90 -348 90q-122 0 -161 -20t-59.5 -52t-33.5 -88q-23 -105 -23 -346v-22q0 -222 55 -311q55 -91 201 -91h15q138 0 282 76q41 21 72 43v721zM1035 1733q-10 -340 -321 -340q-158 0 -239.5 87
t-81.5 253l136 11q2 -120 47.5 -173.5t137.5 -53.5q140 0 172 120q11 43 13 107z" />
    <glyph glyph-name="Gdotaccent" unicode="&#x120;" 
d="M1165 1322q-241 84 -463 84q-229 0 -298 -188q-41 -111 -45.5 -252.5t-4.5 -244.5v-99q0 -319 107 -423q64 -62 171 -73q50 -6 103 -6t102.5 5.5t94.5 14.5q91 18 136 40v472h-309v138h476v-685q-94 -71 -333 -111q-83 -14 -189 -14t-194.5 21.5t-150 63t-99.5 103.5
t-59 143q-34 136 -34 335.5t7 315t27.5 209t57.5 164.5t97 119q122 96 348 96q258 0 441 -57l51 -16zM745 1711q-67 0 -86 19q-30 31 -30 85.5t6.5 78t20.5 36.5q23 24 72.5 24t71 -5t34.5 -19q25 -24 25 -78.5t-5.5 -78t-19.5 -37.5q-24 -25 -89 -25z" />
    <glyph glyph-name="gdotaccent" unicode="&#x121;" 
d="M984 114q-191 -134 -404 -134q-249 0 -332 177q-48 100 -56 253q-3 70 -3 154.5t1.5 170.5t12.5 159t34.5 131.5t67.5 99.5q91 85 280.5 85t403.5 -102l16 82h144l1 -1168q0 -257 -101 -374q-108 -124 -365 -124q-200 0 -355 54q-39 13 -60 24l52 141q18 -6 53 -19.5
t84 -26.5q124 -33 227.5 -33t159.5 21t87 65q52 74 52 269v95zM984 970q-180 90 -348 90q-122 0 -161 -20t-59.5 -52t-33.5 -88q-23 -105 -23 -346v-22q0 -222 55 -311q55 -91 201 -91h15q138 0 282 76q41 21 72 43v721zM670 1475q-67 0 -86 19q-30 31 -30 85.5t6.5 78
t19.5 36.5q24 24 73.5 24t71 -5t35.5 -19q24 -24 24 -78.5t-5.5 -78t-18.5 -37.5q-25 -25 -90 -25z" />
    <glyph glyph-name="Gcommaaccent" unicode="&#x122;" 
d="M1165 1322q-241 84 -463 84q-229 0 -298 -188q-41 -111 -45.5 -252.5t-4.5 -244.5v-99q0 -319 107 -423q64 -62 171 -73q50 -6 103 -6t102.5 5.5t94.5 14.5q91 18 136 40v472h-309v138h476v-685q-94 -71 -333 -111q-83 -14 -189 -14t-194.5 21.5t-150 63t-99.5 103.5
t-59 143q-34 136 -34 335.5t7 315t27.5 209t57.5 164.5t97 119q122 96 348 96q258 0 441 -57l51 -16zM598 -560l71 429l28 2q24 2 42 2h38q30 0 49 -8.5t19 -26.5q0 -34 -11 -60l-127 -338h-109z" />
    <glyph glyph-name="gcommaaccent" unicode="&#x123;" 
d="M984 114q-191 -134 -404 -134q-249 0 -332 177q-48 100 -56 253q-3 70 -3 154.5t1.5 170.5t12.5 159t34.5 131.5t67.5 99.5q91 85 280.5 85t403.5 -102l16 82h144l1 -1168q0 -257 -101 -374q-108 -124 -365 -124q-200 0 -355 54q-39 13 -60 24l52 141q18 -6 53 -19.5
t84 -26.5q124 -33 227.5 -33t159.5 21t87 65q52 74 52 269v95zM984 970q-180 90 -348 90q-122 0 -161 -20t-59.5 -52t-33.5 -88q-23 -105 -23 -346v-22q0 -222 55 -311q55 -91 201 -91h15q138 0 282 76q41 21 72 43v721zM853.007 1810.97l-70.9961 -428.974l-27.998 -2
q-23.999 -2 -41.998 -2h-37.9971q-29.998 0 -48.9971 8.5q-18.999 8.49902 -18.999 26.498q0 33.998 10.999 59.9961l126.992 337.979h108.994z" />
    <glyph glyph-name="Hcircumflex" unicode="&#x124;" horiz-adv-x="1534" 
d="M236 1530h170v-691h723v691h169v-1530h-169v694h-723v-694h-170v1530zM854 1991l233 -248l-77 -80l-237 200l-229 -201l-74 82l224 247h160z" />
    <glyph glyph-name="hcircumflex" unicode="&#x125;" 
d="M785 1055q-199 0 -395 -115v-940h-166v1594l162 16v-543q103 88 268 127q66 16 156 16t158 -20.5t108 -65.5q72 -81 72 -295v-829h-168v799q0 144 -28 185.5t-66.5 56t-100.5 14.5zM606 1991l233 -248l-77 -80l-237 200l-229 -201l-74 82l224 247h160z" />
    <glyph glyph-name="Hbar" unicode="&#x126;" horiz-adv-x="1534" 
d="M236 1063h-154v135h154v332h170v-332h723v332h169v-332h154v-135h-154v-1063h-169v694h-723v-694h-170v1063zM1129 839v224h-723v-224h723z" />
    <glyph glyph-name="hbar" unicode="&#x127;" 
d="M785 1055q-199 0 -395 -115v-940h-166v1402h-158v128h158v172l162 16v-188h379v-128h-379v-335q103 88 268 127q66 16 156 16t158 -20.5t108 -65.5q72 -81 72 -295v-829h-168v799q0 144 -28 185.5t-66.5 56t-100.5 14.5z" />
    <glyph glyph-name="Itilde" unicode="&#x128;" horiz-adv-x="683" 
d="M257 1530h169v-1530h-169v1530zM725 1926q-99 -230 -266 -230q-48 0 -133 60q-31 22 -61.5 40.5t-54.5 18.5t-44.5 -10t-43.5 -26t-47 -37l-46 -40l-71 63q56 103 126.5 149.5t139.5 46.5h13q55 0 136 -57l56 -39q26 -18 49 -18t43 11.5t39.5 30.5t38.5 43l39 50z" />
    <glyph glyph-name="itilde" unicode="&#x129;" horiz-adv-x="683" 
d="M261 1188h164v-1188h-162zM728 1640q-99 -230 -266 -230q-48 0 -133 60q-31 22 -61.5 40.5t-54.5 18.5t-44.5 -10t-43.5 -26t-47 -37l-46 -40l-71 63q56 103 126.5 149.5t139.5 46.5h13q55 0 136 -57l56 -39q26 -18 49 -18t43 11.5t39.5 30.5t38.5 43l39 50z" />
    <glyph glyph-name="Imacron" unicode="&#x12a;" horiz-adv-x="683" 
d="M257 1530h169v-1530h-169v1530zM43 1741v135h599v-135h-599z" />
    <glyph glyph-name="imacron" unicode="&#x12b;" horiz-adv-x="683" 
d="M261 1188h164v-1188h-162zM45 1528v135h599v-135h-599z" />
    <glyph glyph-name="Ibreve" unicode="&#x12c;" horiz-adv-x="683" 
d="M257 1530h169v-1530h-169v1530zM663 1989q-10 -340 -321 -340q-158 0 -239.5 87t-81.5 253l136 11q2 -120 47.5 -173.5t137.5 -53.5q140 0 172 119q11 44 13 108z" />
    <glyph glyph-name="ibreve" unicode="&#x12d;" horiz-adv-x="683" 
d="M261 1188h164v-1188h-162zM662 1733q-10 -340 -321 -340q-158 0 -239.5 87t-81.5 253l136 11q2 -120 47.5 -173.5t137.5 -53.5q140 0 172 120q11 43 13 107z" />
    <glyph glyph-name="Iogonek" unicode="&#x12e;" horiz-adv-x="683" 
d="M79 -276q0 152 179 276h-1v1530h169v-1530h-11q-146 -88 -182 -198q-10 -31 -10 -54q0 -87 105 -87q75 0 149 31l40 -125q-66 -42 -178 -42q-260 0 -260 199z" />
    <glyph glyph-name="iogonek" unicode="&#x12f;" horiz-adv-x="683" 
d="M89 -275q0 152 177 275h-3l-2 1190h164v-1190h-2q-144 -87 -180 -198q-10 -30 -10 -53q0 -87 105 -87q75 0 149 31l40 -125q-66 -42 -178 -42q-260 0 -260 199zM342 1475q-67 0 -86 19q-30 31 -30 85.5t6.5 78t19.5 36.5q24 24 73.5 24t71 -5t35.5 -19q24 -24 24 -78.5
t-5.5 -78t-18.5 -37.5q-25 -25 -90 -25z" />
    <glyph glyph-name="Idotaccent" unicode="&#x130;" horiz-adv-x="683" 
d="M257 1530h169v-1530h-169v1530zM341 1711q-67 0 -86 19q-30 31 -30 85.5t6.5 78t20.5 36.5q23 24 72.5 24t71 -5t34.5 -19q25 -24 25 -78.5t-5.5 -78t-19.5 -37.5q-24 -25 -89 -25z" />
    <glyph glyph-name="dotlessi" unicode="&#x131;" horiz-adv-x="683" 
d="M261 1188h164v-1188h-162z" />
    <glyph glyph-name="IJ" unicode="&#x132;" horiz-adv-x="1536" 
d="M257 1530h169v-1530h-169v1530zM715 182l23 -11q109 -52 231 -52q106 0 150 66q42 64 42 219v1126h168v-1014q0 -187 -15.5 -264t-39 -124t-63.5 -80q-82 -68 -242 -68q-138 0 -259 50q-29 12 -44 21z" />
    <glyph glyph-name="ij" unicode="&#x133;" horiz-adv-x="1366" 
d="M261 1190h164v-1190h-162zM342 1475q-67 0 -86 19q-30 31 -30 85.5t6.5 78t19.5 36.5q24 24 73.5 24t71 -5t35.5 -19q24 -24 24 -78.5t-5.5 -78t-18.5 -37.5q-25 -25 -90 -25zM736 -317q91 -23 132.5 -18.5t58 33.5t16.5 94v1398h161v-1383q0 -133 -43 -199
q-53 -83 -184 -83q-123 0 -186 35zM1022 1475q-67 0 -86 19q-30 31 -30 85.5t6.5 78t20.5 36.5q23 24 72.5 24t71 -5t34.5 -19q25 -24 25 -78.5t-5.5 -78t-19.5 -37.5q-24 -25 -89 -25z" />
    <glyph glyph-name="Jcircumflex" unicode="&#x134;" horiz-adv-x="853" 
d="M32 182l23 -11q109 -52 231 -52q106 0 150 66q42 64 42 219v1126h168v-1014q0 -187 -15.5 -264t-39 -124t-63.5 -80q-82 -68 -242 -68q-138 0 -259 50q-29 12 -44 21zM639 1991l233 -248l-77 -80l-237 200l-229 -201l-74 82l224 247h160z" />
    <glyph glyph-name="jcircumflex" unicode="&#x135;" horiz-adv-x="683" 
d="M53 -317q91 -23 132.5 -18.5t58 33.5t16.5 94v1398h161v-1383q0 -133 -43 -199q-53 -83 -184 -83q-123 0 -186 35zM396 1830l288 -350l-81 -80l-266 265l-259 -265l-82 79l279 351h121z" />
    <glyph glyph-name="Kcommaaccent" unicode="&#x136;" 
d="M453 688l-47 -1v-687h-170v1530h170v-718q56 0 73 8.5t40 25t68 68t96 117.5q135 183 192 268l93 142q36 57 54 90h198q-9 -20 -35 -61q-87 -134 -139 -206l-192 -259l-87 -107q-89 -106 -118 -117v-9l31 -12q69 -26 177 -169l440 -591h-217l-321 454q-161 226 -273 233
q-16 1 -33 1zM567 -560l71 429l28 2q24 2 43 2h37q30 0 49 -8.5t19 -26.5q0 -34 -11 -60l-127 -338h-109z" />
    <glyph glyph-name="kcommaaccent" unicode="&#x137;" horiz-adv-x="1192" 
d="M220 1698l166 18v-1032q40 -8 96.5 41t100.5 93.5t91 97.5q169 195 222 274h198q-22 -50 -101 -142l-134 -151q-109 -117 -174.5 -173t-86.5 -64v-10l30 -15q65 -31 170 -165l373 -470h-210l-254 333q-176 230 -269 238l-22 2q-10 1 -18 0.5t-12 -0.5v-573h-166v1698z
M503 -560l71 429l28 2q24 2 42 2h38q30 0 49 -8.5t19 -26.5q0 -34 -11 -60l-127 -338h-109z" />
    <glyph glyph-name="kgreenlandic" unicode="&#x138;" horiz-adv-x="1192" 
d="M220 1186l166 18v-539q44 -9 117 57q75 69 147 153q187 227 246 315h198q-28 -61 -111 -159q-196 -226 -255 -282q-101 -97 -130 -108v-10q14 -7 32.5 -14.5t43.5 -24.5q55 -37 124 -122l373 -470h-211l-253 333q-125 162 -209 200q-39 17 -55 19l-27 2q-10 1 -18 0.5
t-12 -0.5v-554h-166v1186z" />
    <glyph glyph-name="Lacute" unicode="&#x139;" horiz-adv-x="1026" 
d="M235 1530h170v-1383h606v-147h-776v1530zM640 2000l93 -159l-459 -192l-50 92z" />
    <glyph glyph-name="lacute" unicode="&#x13a;" horiz-adv-x="683" 
d="M259 1596l165 14v-1610h-163zM627 1852l-392 -168l-50 92l357 224z" />
    <glyph glyph-name="Lcommaaccent" unicode="&#x13b;" horiz-adv-x="1026" 
d="M235 1530h170v-1383h606v-147h-776v1530zM461 -560l71 429l28 2q24 2 43 2h37q30 0 49 -8.5t19 -26.5q0 -34 -11 -60l-127 -338h-109z" />
    <glyph glyph-name="lcommaaccent" unicode="&#x13c;" horiz-adv-x="683" 
d="M259 1700l165 14v-1714h-163zM198 -560l71 429l28 2q24 2 42 2h38q30 0 49 -8.5t19 -26.5q0 -34 -11 -60l-127 -338h-109z" />
    <glyph glyph-name="Lcaron" unicode="&#x13d;" horiz-adv-x="1026" 
d="M235 1530h170v-1383h606v-147h-776v1530zM772 1524q51 0 51 -47q0 -13 -5 -48l-52 -338h-112v419l22 4q58 10 96 10z" />
    <glyph glyph-name="lcaron" unicode="&#x13e;" horiz-adv-x="683" 
d="M259 1700l165 14v-1714h-163zM701 1713q51 0 51 -47q0 -13 -5 -48l-52 -338h-112v419l22 4q58 10 96 10z" />
    <glyph glyph-name="Ldot" unicode="&#x13f;" horiz-adv-x="1026" 
d="M235 1530h170v-1383h606v-147h-776v1530zM752 652q-70 0 -89 21q-28 31 -28 90.5t5.5 84.5t19.5 39q23 26 75 26t74.5 -5.5t35.5 -20.5q23 -25 23 -103t-18 -99q-28 -33 -98 -33z" />
    <glyph glyph-name="ldot" unicode="&#x140;" horiz-adv-x="1024" 
d="M259 1700l165 14v-1714h-163zM851 646q-70 0 -89 21q-28 31 -28 90.5t5.5 84.5t19.5 39q23 26 75 26t74.5 -5.5t35.5 -20.5q23 -25 23 -103t-18 -99q-28 -33 -98 -33z" />
    <glyph glyph-name="Lslash" unicode="&#x141;" horiz-adv-x="1026" 
d="M54 519l181 143v868h170v-731l315 261l8 -165l-323 -255v-493h606v-147h-776v504l-173 -140z" />
    <glyph glyph-name="lslash" unicode="&#x142;" horiz-adv-x="683" 
d="M74 695l187 170l-1 835l163 14v-699l207 196l8 -162l-215 -195v-854h-161l-1 704l-179 -168z" />
    <glyph glyph-name="Nacute" unicode="&#x143;" horiz-adv-x="1536" 
d="M236 1530h135l704 -1112l91 -189l-22 210v1091h155v-1530h-143l-699 1109l-88 172l22 -204v-1077h-155v1530zM1017 2000l93 -159l-459 -192l-50 92z" />
    <glyph glyph-name="nacute" unicode="&#x144;" 
d="M786 1054q-195 0 -397 -115v-939h-166v1190h146l16 -123q109 89 271 127q66 16 155 16t157 -20.5t108 -65.5q73 -81 73 -295v-829h-168v798q0 144 -28 185.5t-66.5 56t-100.5 14.5zM904 1837l130 -121l-370 -317l-83 87z" />
    <glyph glyph-name="Ncommaaccent" unicode="&#x145;" horiz-adv-x="1536" 
d="M236 1530h135l704 -1112l91 -189l-22 210v1091h155v-1530h-143l-699 1109l-88 172l22 -204v-1077h-155v1530zM609 -560l71 429l28 2q24 2 43 2h37q30 0 49 -8.5t19 -26.5q0 -34 -11 -60l-127 -338h-109z" />
    <glyph glyph-name="ncommaaccent" unicode="&#x146;" 
d="M786 1054q-195 0 -397 -115v-939h-166v1190h146l16 -123q109 89 271 127q66 16 155 16t157 -20.5t108 -65.5q73 -81 73 -295v-829h-168v798q0 144 -28 185.5t-66.5 56t-100.5 14.5zM549 -560l71 429l28 2q24 2 42 2h38q30 0 49 -8.5t19 -26.5q0 -34 -11 -60l-127 -338
h-109z" />
    <glyph glyph-name="Ncaron" unicode="&#x147;" horiz-adv-x="1536" 
d="M236 1530h135l704 -1112l91 -189l-22 210v1091h155v-1530h-143l-699 1109l-88 172l22 -204v-1077h-155v1530zM700 1669l-233 248l77 80l237 -200l229 201l74 -82l-224 -247h-160z" />
    <glyph glyph-name="ncaron" unicode="&#x148;" 
d="M786 1054q-195 0 -397 -115v-939h-166v1190h146l16 -123q109 89 271 127q66 16 155 16t157 -20.5t108 -65.5q73 -81 73 -295v-829h-168v798q0 144 -28 185.5t-66.5 56t-100.5 14.5zM631 1407l-288 350l81 80l266 -265l259 265l82 -80l-279 -350h-121z" />
    <glyph glyph-name="Eng" unicode="&#x14a;" horiz-adv-x="1536" 
d="M716 -260q110 -62 250 -62q149 0 172 136q7 45 7 106v97l-703 1105l-73 159l22 -174v-1107h-156v1530h136l724 -1133l71 -168l-22 176v1125h156v-1428q0 -277 -34 -389q-39 -124 -140 -162q-66 -25 -147.5 -25t-133.5 10t-89 23q-47 16 -92 46z" />
    <glyph glyph-name="eng" unicode="&#x14b;" 
d="M786 1054q-195 0 -397 -115v-939h-166v1190h146l16 -123q109 89 271 127q66 16 155 16t157 -20.5t108 -65.5q73 -81 73 -295v-1022q0 -132 -46 -199q-57 -83 -188 -83q-123 0 -186 35l45 123q77 -20 125 -20t65 35t17 94v1006q0 144 -28 185.5t-66.5 56t-100.5 14.5z" />
    <glyph glyph-name="Omacron" unicode="&#x14c;" horiz-adv-x="1534" 
d="M739 -20q-356 0 -470 224q-67 130 -79 347q-5 102 -5 222t7 227.5t27.5 194.5t58 153.5t98.5 111.5q126 90 363 90h62q371 0 475 -200q65 -125 73 -348q4 -109 4 -230.5t-6 -224t-25 -189.5t-55.5 -157t-98.5 -119q-128 -102 -367 -102h-62zM799 124q110 0 182.5 24
t114.5 84q78 111 78 426v108q0 151 -8 269t-43 199q-72 168 -312 168h-84q-244 0 -312 -157q-43 -100 -47 -236t-4 -243v-108q0 -295 88 -416q85 -118 287 -118h60zM477 1741v135h599v-135h-599z" />
    <glyph glyph-name="omacron" unicode="&#x14d;" horiz-adv-x="1363" 
d="M188 592q0 227 23 317t56.5 142.5t90.5 87.5q114 71 337 71q322 0 414 -159q55 -96 63 -271q3 -83 3 -183t-6.5 -186.5t-25.5 -155.5t-53 -120.5t-90 -86.5q-110 -68 -321 -68q-316 0 -415 156q-61 97 -71 272q-5 84 -5 184zM550.5 134.5q54.5 -13.5 149 -13.5t159 27
t97 86.5t41 154.5t8.5 221t-7.5 210t-37.5 139q-60 108 -267 108q-219 0 -285 -108q-33 -55 -42 -140t-9 -185t2.5 -169.5t13 -125t31 -96.5t56.5 -68t90.5 -40.5zM379 1528v135h599v-135h-599z" />
    <glyph glyph-name="Obreve" unicode="&#x14e;" horiz-adv-x="1534" 
d="M739 -20q-356 0 -470 224q-67 130 -79 347q-5 102 -5 222t7 227.5t27.5 194.5t58 153.5t98.5 111.5q126 90 363 90h62q371 0 475 -200q65 -125 73 -348q4 -109 4 -230.5t-6 -224t-25 -189.5t-55.5 -157t-98.5 -119q-128 -102 -367 -102h-62zM799 124q110 0 182.5 24
t114.5 84q78 111 78 426v108q0 151 -8 269t-43 199q-72 168 -312 168h-84q-244 0 -312 -157q-43 -100 -47 -236t-4 -243v-108q0 -295 88 -416q85 -118 287 -118h60zM1097 1989q-10 -340 -321 -340q-158 0 -239.5 87t-81.5 253l136 11q2 -120 47.5 -173.5t137.5 -53.5
q140 0 172 119q11 44 13 108z" />
    <glyph glyph-name="obreve" unicode="&#x14f;" horiz-adv-x="1363" 
d="M188 592q0 227 23 317t56.5 142.5t90.5 87.5q114 71 337 71q322 0 414 -159q55 -96 63 -271q3 -83 3 -183t-6.5 -186.5t-25.5 -155.5t-53 -120.5t-90 -86.5q-110 -68 -321 -68q-316 0 -415 156q-61 97 -71 272q-5 84 -5 184zM550.5 134.5q54.5 -13.5 149 -13.5t159 27
t97 86.5t41 154.5t8.5 221t-7.5 210t-37.5 139q-60 108 -267 108q-219 0 -285 -108q-33 -55 -42 -140t-9 -185t2.5 -169.5t13 -125t31 -96.5t56.5 -68t90.5 -40.5zM999 1734q-10 -340 -321 -340q-158 0 -239.5 87t-81.5 253l136 11q2 -120 47.5 -173.5t137.5 -53.5
q140 0 172 120q11 43 13 107z" />
    <glyph glyph-name="Ohungarumlaut" unicode="&#x150;" horiz-adv-x="1534" 
d="M739 -20q-356 0 -470 224q-67 130 -79 347q-5 102 -5 222t7 227.5t27.5 194.5t58 153.5t98.5 111.5q126 90 363 90h62q371 0 475 -200q65 -125 73 -348q4 -109 4 -230.5t-6 -224t-25 -189.5t-55.5 -157t-98.5 -119q-128 -102 -367 -102h-62zM799 124q110 0 182.5 24
t114.5 84q78 111 78 426v108q0 151 -8 269t-43 199q-72 168 -312 168h-84q-244 0 -312 -157q-43 -100 -47 -236t-4 -243v-108q0 -295 88 -416q85 -118 287 -118h60zM726 2000l128 -119l-321 -248l-69 73zM1140 2000l129 -120l-348 -251l-71 74z" />
    <glyph glyph-name="ohungarumlaut" unicode="&#x151;" horiz-adv-x="1363" 
d="M188 592q0 227 23 317t56.5 142.5t90.5 87.5q114 71 337 71q322 0 414 -159q55 -96 63 -271q3 -83 3 -183t-6.5 -186.5t-25.5 -155.5t-53 -120.5t-90 -86.5q-110 -68 -321 -68q-316 0 -415 156q-61 97 -71 272q-5 84 -5 184zM550.5 134.5q54.5 -13.5 149 -13.5t159 27
t97 86.5t41 154.5t8.5 221t-7.5 210t-37.5 139q-60 108 -267 108q-219 0 -285 -108q-33 -55 -42 -140t-9 -185t2.5 -169.5t13 -125t31 -96.5t56.5 -68t90.5 -40.5zM669 1850l133 -112l-327 -339l-84 79zM1079 1837l128 -120l-371 -318l-81 86z" />
    <glyph glyph-name="OE" unicode="&#x152;" horiz-adv-x="2046" 
d="M1083 0q-143 -20 -309 -20t-256.5 27t-152 76.5t-97.5 120t-54 158.5q-30 139 -30 335t7 303.5t27.5 194.5t58 153.5t99.5 111.5q125 90 341.5 90t376.5 -20h854v-148h-697v-528h562v-147h-562v-560h724v-147h-892zM1081 1372q-138 29 -281.5 29t-207.5 -16t-107 -49.5
t-67.5 -85t-36.5 -122.5q-18 -105 -18 -362v-107q0 -331 114 -442q72 -70 200 -85q62 -8 168 -8t236 26v1222z" />
    <glyph glyph-name="oe" unicode="&#x153;" horiz-adv-x="2215" 
d="M1992 63q-204 -83 -438 -83q-292 0 -394 134q-34 44 -53 103q-58 -186 -249 -224q-66 -13 -166 -13t-181.5 18t-136.5 53t-87.5 87t-49.5 120q-27 108 -27 271t5.5 248t23 153.5t51 121t90.5 87.5q114 71 337 71q252 0 349 -121q33 -41 53 -98q60 171 274 207
q72 12 189.5 12t206 -34.5t136.5 -99.5t63.5 -157.5t15.5 -202.5t-6 -182q-141 -6 -253 -6h-161q-255 0 -391 22q0 -220 73 -320q80 -109 280 -109t392 82zM572.5 134.5q54.5 -13.5 145.5 -13.5t154.5 26.5t97.5 85.5t45 154.5t11 226t-10 214.5t-43 136q-62 99 -258 103
q-217 6 -285 -105q-33 -56 -42 -142t-9 -186t2.5 -169.5t13 -125t31 -96.5t56.5 -68t90.5 -40.5zM1835 672v96q0 157 -61 224q-68 75 -235 75q-200 0 -273 -87q-72 -84 -72 -308h641z" />
    <glyph glyph-name="Racute" unicode="&#x154;" horiz-adv-x="1366" 
d="M236 1525q325 25 546 25h20q241 0 338 -108q81 -93 81 -304q0 -270 -77 -402q-79 -134 -262 -168q34 -42 67 -88l59 -85l263 -395h-200l-230 362q-96 146 -142 193h-11q-71 1 -137 3l-145 6v-564h-170v1525zM406 699q105 -5 330 -5q185 0 252 104q57 91 57 318
q0 191 -85 250q-50 35 -109.5 39t-104 4t-86 -0.5t-82.5 -1.5t-83 -3l-89 -6v-699zM874 2000l93 -159l-459 -192l-50 92z" />
    <glyph glyph-name="racute" unicode="&#x155;" horiz-adv-x="854" 
d="M650 1045q-128 0 -261 -128v-917h-166v1190h146l16 -158q47 73 101.5 114t89.5 50q50 14 95 14t113 -18l-15 -159q-51 12 -119 12zM686 1837l130 -121l-370 -317l-83 87z" />
    <glyph glyph-name="Rcommaaccent" unicode="&#x156;" horiz-adv-x="1366" 
d="M236 1525q325 25 546 25h20q241 0 338 -108q81 -93 81 -304q0 -270 -77 -402q-79 -134 -262 -168q34 -42 67 -88l59 -85l263 -395h-200l-230 362q-96 146 -142 193h-11q-71 1 -137 3l-145 6v-564h-170v1525zM406 699q105 -5 330 -5q185 0 252 104q57 91 57 318
q0 191 -85 250q-50 35 -109.5 39t-104 4t-86 -0.5t-82.5 -1.5t-83 -3l-89 -6v-699zM564 -560l71 429l28 2q24 2 43 2h37q30 0 49 -8.5t19 -26.5q0 -34 -11 -60l-127 -338h-109z" />
    <glyph glyph-name="rcommaaccent" unicode="&#x157;" horiz-adv-x="854" 
d="M650 1045q-128 0 -261 -128v-917h-166v1190h146l16 -158q47 73 101.5 114t89.5 50q50 14 95 14t113 -18l-15 -159q-51 12 -119 12zM166 -560l71 429l28 2q24 2 42 2h38q30 0 49 -8.5t19 -26.5q0 -34 -11 -60l-127 -338h-109z" />
    <glyph glyph-name="Rcaron" unicode="&#x158;" horiz-adv-x="1366" 
d="M236 1525q325 25 546 25h20q241 0 338 -108q81 -93 81 -304q0 -270 -77 -402q-79 -134 -262 -168q34 -42 67 -88l59 -85l263 -395h-200l-230 362q-96 146 -142 193h-11q-71 1 -137 3l-145 6v-564h-170v1525zM406 699q105 -5 330 -5q185 0 252 104q57 91 57 318
q0 191 -85 250q-50 35 -109.5 39t-104 4t-86 -0.5t-82.5 -1.5t-83 -3l-89 -6v-699zM606 1669l-233 248l77 80l237 -200l229 201l74 -82l-224 -247h-160z" />
    <glyph glyph-name="rcaron" unicode="&#x159;" horiz-adv-x="854" 
d="M650 1045q-128 0 -261 -128v-917h-166v1190h146l16 -158q47 73 101.5 114t89.5 50q50 14 95 14t113 -18l-15 -159q-51 12 -119 12zM396 1407l-288 350l81 80l266 -265l259 265l82 -80l-279 -350h-121z" />
    <glyph glyph-name="Sacute" unicode="&#x15a;" horiz-adv-x="1194" 
d="M151 241q227 -120 444 -120q252 0 295 161q14 53 14 122v39q0 70 -10 113t-42 70q-52 45 -246 75q-173 27 -239 51t-108.5 52.5t-72.5 71.5q-62 90 -62 249v10q0 330 274 395q87 20 197 20h13q257 0 420 -74l-52 -153q-197 85 -363 85h-9q-183 0 -252 -69
q-58 -58 -58 -201v-4q0 -163 90 -214q61 -33 218.5 -58t234.5 -42.5t131 -57.5q112 -84 112 -319v-13q0 -359 -289 -428q-89 -22 -168 -22t-143.5 5.5t-131.5 19.5q-157 32 -263 96zM793 2000l93 -159l-459 -192l-50 92z" />
    <glyph glyph-name="sacute" unicode="&#x15b;" horiz-adv-x="1194" 
d="M225 236q206 -115 414 -115q173 0 203 123q10 42 10 102.5t-14 94t-47 50t-87.5 24.5t-138.5 22.5t-154 32.5t-119 52q-104 73 -100 246v25q0 182 120 259q116 76 383 52q182 -17 290 -63l-47 -151q-120 51 -288 74q-52 7 -97.5 7t-82.5 -7t-62 -26q-48 -39 -50 -145
q-3 -125 70 -159q70 -33 166 -45.5t157 -22t111 -25.5t86 -51q75 -71 73 -247q-5 -307 -256 -350q-76 -13 -152 -13t-139.5 9.5t-121.5 26.5q-110 31 -199 82zM783 1837l130 -121l-370 -317l-83 87z" />
    <glyph glyph-name="Scircumflex" unicode="&#x15c;" horiz-adv-x="1194" 
d="M151 241q227 -120 444 -120q252 0 295 161q14 53 14 122v39q0 70 -10 113t-42 70q-52 45 -246 75q-173 27 -239 51t-108.5 52.5t-72.5 71.5q-62 90 -62 249v10q0 330 274 395q87 20 197 20h13q257 0 420 -74l-52 -153q-197 85 -363 85h-9q-183 0 -252 -69
q-58 -58 -58 -201v-4q0 -163 90 -214q61 -33 218.5 -58t234.5 -42.5t131 -57.5q112 -84 112 -319v-13q0 -359 -289 -428q-89 -22 -168 -22t-143.5 5.5t-131.5 19.5q-157 32 -263 96zM662 1991l233 -248l-77 -80l-237 200l-229 -201l-74 82l224 247h160z" />
    <glyph glyph-name="scircumflex" unicode="&#x15d;" horiz-adv-x="1194" 
d="M225 236q206 -115 414 -115q173 0 203 123q10 42 10 102.5t-14 94t-47 50t-87.5 24.5t-138.5 22.5t-154 32.5t-119 52q-104 73 -100 246v25q0 182 120 259q116 76 383 52q182 -17 290 -63l-47 -151q-120 51 -288 74q-52 7 -97.5 7t-82.5 -7t-62 -26q-48 -39 -50 -145
q-3 -125 70 -159q70 -33 166 -45.5t157 -22t111 -25.5t86 -51q75 -71 73 -247q-5 -307 -256 -350q-76 -13 -152 -13t-139.5 9.5t-121.5 26.5q-110 31 -199 82zM665 1830l288 -350l-81 -80l-266 265l-259 -265l-82 79l279 351h121z" />
    <glyph glyph-name="Scedilla" unicode="&#x15e;" horiz-adv-x="1194" 
d="M644 -18q90 -94 90 -201q0 -209 -216 -209q-86 0 -134 19l25 128q47 -10 86.5 -10t69 21t29.5 63q0 86 -91 191q-259 21 -418 117l66 140q227 -120 444 -120q252 0 295 161q14 53 14 122v39q0 70 -10 113t-42 70q-52 45 -246 75q-173 27 -239 51t-108.5 52.5t-72.5 71.5
q-62 90 -62 249v10q0 330 274 395q87 20 197 20h13q257 0 420 -74l-52 -153q-197 85 -363 85h-9q-183 0 -252 -69q-58 -58 -58 -201v-4q0 -163 90 -214q61 -33 218.5 -58t234.5 -42.5t131 -57.5q112 -84 112 -319v-13q0 -340 -260 -420q-80 -24 -176 -28z" />
    <glyph glyph-name="scedilla" unicode="&#x15f;" horiz-adv-x="1194" 
d="M673 -18q90 -96 90 -202q0 -208 -216 -208q-87 0 -134 19l25 128q47 -10 86.5 -10t69 21t29.5 63q0 87 -91 190q-209 15 -379 115l72 138q206 -115 414 -115q173 0 203 123q10 42 10 102.5t-14 94t-47 50t-87.5 24.5t-138.5 22.5t-154 32.5t-119 52q-104 73 -100 246v25
q0 182 120 259q116 76 383 52q182 -17 290 -63l-47 -151q-120 51 -288 74q-52 7 -97.5 7t-82.5 -7t-62 -26q-48 -39 -50 -145q-3 -125 70 -159q70 -33 166 -45.5t157 -22t111 -25.5t86 -51q75 -71 73 -247q-5 -282 -211 -339q-63 -18 -137 -22z" />
    <glyph glyph-name="Scaron" unicode="&#x160;" horiz-adv-x="1194" 
d="M151 241q227 -120 444 -120q252 0 295 161q14 53 14 122v39q0 70 -10 113t-42 70q-52 45 -246 75q-173 27 -239 51t-108.5 52.5t-72.5 71.5q-62 90 -62 249v10q0 330 274 395q87 20 197 20h13q257 0 420 -74l-52 -153q-197 85 -363 85h-9q-183 0 -252 -69
q-58 -58 -58 -201v-4q0 -163 90 -214q61 -33 218.5 -58t234.5 -42.5t131 -57.5q112 -84 112 -319v-13q0 -359 -289 -428q-89 -22 -168 -22t-143.5 5.5t-131.5 19.5q-157 32 -263 96zM520 1669l-233 248l77 80l237 -200l229 201l74 -82l-224 -247h-160z" />
    <glyph glyph-name="scaron" unicode="&#x161;" horiz-adv-x="1194" 
d="M225 236q206 -115 414 -115q173 0 203 123q10 42 10 102.5t-14 94t-47 50t-87.5 24.5t-138.5 22.5t-154 32.5t-119 52q-104 73 -100 246v25q0 182 120 259q116 76 383 52q182 -17 290 -63l-47 -151q-120 51 -288 74q-52 7 -97.5 7t-82.5 -7t-62 -26q-48 -39 -50 -145
q-3 -125 70 -159q70 -33 166 -45.5t157 -22t111 -25.5t86 -51q75 -71 73 -247q-5 -307 -256 -350q-76 -13 -152 -13t-139.5 9.5t-121.5 26.5q-110 31 -199 82zM560 1407l-288 350l81 80l266 -265l259 265l82 -80l-279 -350h-121z" />
    <glyph glyph-name="Tcommaaccent" unicode="&#x162;" horiz-adv-x="1024" 
d="M420 1382h-408v148h1000v-148h-422v-1382h-170v1382zM355 -560l71 429l28 2q24 2 43 2h37q30 0 49 -8.5t19 -26.5q0 -34 -11 -60l-127 -338h-109z" />
    <glyph glyph-name="tcommaaccent" unicode="&#x163;" horiz-adv-x="854" 
d="M809 57q-163 -77 -301 -77q-250 0 -284 214q-8 51 -8 148v709h-144v123l144 16l26 272h139v-272h347v-139h-347v-706q0 -123 18 -157q33 -62 132 -62t221 61zM344 -560l71 429l28 2q24 2 42 2h38q30 0 49 -8.5t19 -26.5q0 -34 -11 -60l-127 -338h-109z" />
    <glyph glyph-name="Tcaron" unicode="&#x164;" horiz-adv-x="1024" 
d="M420 1382h-408v148h1000v-148h-422v-1382h-170v1382zM429 1669l-233 248l77 80l237 -200l229 201l74 -82l-224 -247h-160z" />
    <glyph glyph-name="tcaron" unicode="&#x165;" horiz-adv-x="854" 
d="M809 57q-163 -77 -301 -77q-250 0 -284 214q-8 51 -8 148v709h-144v123l144 16l26 272h139v-272h347v-139h-347v-706q0 -123 18 -157q33 -62 132 -62t221 61zM732 1784q51 0 51 -47q0 -13 -5 -48l-52 -338h-112v419l22 4q58 10 96 10z" />
    <glyph glyph-name="Tbar" unicode="&#x166;" horiz-adv-x="1024" 
d="M420 868h-210v135h210v379h-408v148h1000v-148h-422v-379h222v-135h-222v-868h-170v868z" />
    <glyph glyph-name="tbar" unicode="&#x167;" horiz-adv-x="854" 
d="M809 57q-163 -77 -301 -77q-250 0 -284 214q-8 51 -8 148v317h-144v135h144v257h-144v123l144 16l26 272h139v-272h347v-139h-347v-257h346v-135h-346v-314q0 -123 18 -157q33 -62 132 -62t221 61z" />
    <glyph glyph-name="Utilde" unicode="&#x168;" horiz-adv-x="1534" 
d="M214 1530h168v-818q0 -242 21 -330t48.5 -132.5t71.5 -71.5q83 -51 228.5 -51t219 25t114 90t54.5 179t14 291v818h168v-812q0 -257 -19 -354.5t-52.5 -165.5t-94.5 -116q-128 -102 -382 -102q-378 0 -488 216q-61 121 -68 320q-3 91 -3 189v825zM1154 1926
q-99 -230 -266 -230q-48 0 -133 60q-31 22 -61.5 40.5t-54.5 18.5t-44.5 -10t-43.5 -26t-47 -37l-46 -40l-71 63q56 103 126.5 149.5t139.5 46.5h13q55 0 136 -57l56 -39q26 -18 49 -18t43 11.5t39.5 30.5t38.5 43l39 50z" />
    <glyph glyph-name="utilde" unicode="&#x169;" 
d="M1123 524q0 -330 19 -516l-149 -12l-24 141q-117 -97 -273 -140q-62 -17 -147.5 -17t-153 20.5t-107.5 65.5q-73 81 -73 295v829h168v-802q0 -144 28 -185.5t66.5 -56t91.5 -14.5t102.5 8.5t99.5 24.5q105 34 190 93v1q-4 76 -4 296v635h166v-666zM1062 1640
q-99 -230 -266 -230q-48 0 -133 60q-31 22 -61.5 40.5t-54.5 18.5t-44.5 -10t-43.5 -26t-47 -37l-46 -40l-71 63q56 103 126.5 149.5t139.5 46.5h13q55 0 136 -57l56 -39q26 -18 49 -18t43 11.5t39.5 30.5t38.5 43l39 50z" />
    <glyph glyph-name="Umacron" unicode="&#x16a;" horiz-adv-x="1534" 
d="M214 1530h168v-818q0 -242 21 -330t48.5 -132.5t71.5 -71.5q83 -51 228.5 -51t219 25t114 90t54.5 179t14 291v818h168v-812q0 -257 -19 -354.5t-52.5 -165.5t-94.5 -116q-128 -102 -382 -102q-378 0 -488 216q-61 121 -68 320q-3 91 -3 189v825zM469 1741v135h599v-135
h-599z" />
    <glyph glyph-name="umacron" unicode="&#x16b;" 
d="M1123 524q0 -330 19 -516l-149 -12l-24 141q-117 -97 -273 -140q-62 -17 -147.5 -17t-153 20.5t-107.5 65.5q-73 81 -73 295v829h168v-802q0 -144 28 -185.5t66.5 -56t91.5 -14.5t102.5 8.5t99.5 24.5q105 34 190 93v1q-4 76 -4 296v635h166v-666zM373 1528v135h599v-135
h-599z" />
    <glyph glyph-name="Ubreve" unicode="&#x16c;" horiz-adv-x="1534" 
d="M214 1530h168v-818q0 -242 21 -330t48.5 -132.5t71.5 -71.5q83 -51 228.5 -51t219 25t114 90t54.5 179t14 291v818h168v-812q0 -257 -19 -354.5t-52.5 -165.5t-94.5 -116q-128 -102 -382 -102q-378 0 -488 216q-61 121 -68 320q-3 91 -3 189v825zM1092 1989
q-10 -340 -321 -340q-158 0 -239.5 87t-81.5 253l136 11q2 -120 47.5 -173.5t137.5 -53.5q140 0 172 119q11 44 13 108z" />
    <glyph glyph-name="ubreve" unicode="&#x16d;" 
d="M1123 524q0 -330 19 -516l-149 -12l-24 141q-117 -97 -273 -140q-62 -17 -147.5 -17t-153 20.5t-107.5 65.5q-73 81 -73 295v829h168v-802q0 -144 28 -185.5t66.5 -56t91.5 -14.5t102.5 8.5t99.5 24.5q105 34 190 93v1q-4 76 -4 296v635h166v-666zM996 1734
q-10 -340 -321 -340q-158 0 -239.5 87t-81.5 253l136 11q2 -120 47.5 -173.5t137.5 -53.5q140 0 172 120q11 43 13 107z" />
    <glyph glyph-name="Uring" unicode="&#x16e;" horiz-adv-x="1534" 
d="M214 1530h168v-818q0 -242 21 -330t48.5 -132.5t71.5 -71.5q83 -51 228.5 -51t219 25t114 90t54.5 179t14 291v818h168v-812q0 -257 -19 -354.5t-52.5 -165.5t-94.5 -116q-128 -102 -382 -102q-378 0 -488 216q-61 121 -68 320q-3 91 -3 189v825zM546 1701
q-19 38 -19 93.5t18.5 94.5t50.5 64q60 47 166 47q164 0 216 -111q19 -39 19 -94.5t-18.5 -93.5t-50.5 -62q-63 -47 -166 -47q-163 0 -216 109zM760 1894q-110 0 -110 -100q0 -95 110 -95t110 95q0 100 -110 100z" />
    <glyph glyph-name="uring" unicode="&#x16f;" 
d="M1123 524q0 -330 19 -516l-149 -12l-24 141q-117 -97 -273 -140q-62 -17 -147.5 -17t-153 20.5t-107.5 65.5q-73 81 -73 295v829h168v-802q0 -144 28 -185.5t66.5 -56t91.5 -14.5t102.5 8.5t99.5 24.5q105 34 190 93v1q-4 76 -4 296v635h166v-666zM450 1478
q-20 40 -20 97.5t19.5 98.5t52.5 67q62 49 173 49q170 0 225 -116q20 -41 20 -98.5t-19.5 -97t-52.5 -64.5q-64 -50 -173 -50q-169 0 -225 114zM673 1683q-117 0 -117 -108q0 -103 117 -103t117 103q0 108 -117 108z" />
    <glyph glyph-name="Uhungarumlaut" unicode="&#x170;" horiz-adv-x="1534" 
d="M214 1530h168v-818q0 -242 21 -330t48.5 -132.5t71.5 -71.5q83 -51 228.5 -51t219 25t114 90t54.5 179t14 291v818h168v-812q0 -257 -19 -354.5t-52.5 -165.5t-94.5 -116q-128 -102 -382 -102q-378 0 -488 216q-61 121 -68 320q-3 91 -3 189v825zM756 2000l128 -119
l-321 -248l-69 73zM1170 2000l129 -120l-348 -251l-71 74z" />
    <glyph glyph-name="uhungarumlaut" unicode="&#x171;" 
d="M1123 524q0 -330 19 -516l-149 -12l-24 141q-117 -97 -273 -140q-62 -17 -147.5 -17t-153 20.5t-107.5 65.5q-73 81 -73 295v829h168v-802q0 -144 28 -185.5t66.5 -56t91.5 -14.5t102.5 8.5t99.5 24.5q105 34 190 93v1q-4 76 -4 296v635h166v-666zM647 1850l133 -112
l-327 -339l-84 79zM1057 1837l128 -120l-371 -318l-81 86z" />
    <glyph glyph-name="Uogonek" unicode="&#x172;" horiz-adv-x="1534" 
d="M614 -276q0 142 152 256q-373 3 -482 218q-60 121 -67 318q-3 91 -3 189v825h168v-818q0 -242 21 -330t48.5 -132.5t71.5 -71.5q83 -51 228.5 -51t219 25t114 90t54.5 179t14 291v818h168v-812q0 -223 -13.5 -315t-37 -157t-66.5 -116q-90 -107 -266 -137
q-136 -84 -170 -193q-10 -29 -10 -52q0 -87 105 -87q75 0 149 31l40 -125q-66 -42 -178 -42q-260 0 -260 199z" />
    <glyph glyph-name="uogonek" unicode="&#x173;" 
d="M1123 524q0 -330 19 -516h-1l1 -7q-146 -88 -182 -199q-10 -30 -10 -53q0 -87 105 -87q75 0 149 31l40 -125q-66 -42 -178 -42q-260 0 -260 199q0 154 185 280l-22 132q-117 -97 -273 -140q-62 -17 -147.5 -17t-153 20.5t-107.5 65.5q-73 81 -73 295v829h168v-802
q0 -144 28 -185.5t66.5 -56t91.5 -14.5t102.5 8.5t99.5 24.5q105 34 190 93v1q-4 76 -4 296v635h166v-666z" />
    <glyph glyph-name="Wcircumflex" unicode="&#x174;" horiz-adv-x="2044" 
d="M34 1530h184l296 -1156l52 -244l58 244l308 1156h199l367 -1408l53 256l282 1152h180l-392 -1530h-254l-293 1094l-45 258l-47 -258l-302 -1094h-234zM1107 1991l233 -248l-77 -80l-237 200l-229 -201l-74 82l224 247h160z" />
    <glyph glyph-name="wcircumflex" unicode="&#x175;" horiz-adv-x="1875" 
d="M93 1190h178l252 -874l45 -191l33 160l260 905h164l256 -874l44 -193l32 163l248 904h180l-352 -1190h-219l-228 763l-46 234l-41 -234l-227 -763h-209zM999 1830l288 -350l-81 -80l-266 265l-259 -265l-82 79l279 351h121z" />
    <glyph glyph-name="Ycircumflex" unicode="&#x176;" horiz-adv-x="1194" 
d="M512 565l-499 965h186l327 -657l74 -169l73 172l320 654h188l-499 -965l-1 -565h-168zM678 1991l233 -248l-77 -80l-237 200l-229 -201l-74 82l224 247h160z" />
    <glyph glyph-name="ycircumflex" unicode="&#x177;" horiz-adv-x="1192" 
d="M197 -288q73 -26 119.5 -26t61 2.5t29.5 10.5q35 19 52 62q42 102 73 224l-459 1205h185l310 -877l47 -154l43 155l274 876h174l-502 -1472q-55 -172 -254 -172q-126 0 -198 36zM669 1830l288 -350l-81 -80l-266 265l-259 -265l-82 79l279 351h121z" />
    <glyph glyph-name="Ydieresis" unicode="&#x178;" horiz-adv-x="1194" 
d="M512 565l-499 965h186l327 -657l74 -169l73 172l320 654h188l-499 -965l-1 -565h-168zM369 1717q-63 0 -81 18q-28 29 -28 81t6 74.5t18 35.5q23 22 69.5 22t67 -5t33.5 -17q22 -23 22 -75t-5 -74.5t-17 -36.5q-22 -23 -85 -23zM827 1717q-63 0 -81 18q-28 29 -28 81
t6 74.5t18 35.5q23 22 69.5 22t67.5 -5t33 -17q24 -24 24 -75.5t-5.5 -74t-18.5 -36.5q-21 -23 -85 -23z" />
    <glyph glyph-name="Zacute" unicode="&#x179;" horiz-adv-x="1194" 
d="M106 85l765 1302h-713v143h922v-88l-762 -1301h756v-141h-968v85zM849 2000l93 -159l-459 -192l-50 92z" />
    <glyph glyph-name="zacute" unicode="&#x17a;" horiz-adv-x="1024" 
d="M106 113l609 939h-622v138h824v-113l-607 -938h632v-139h-836v113zM708 1837l130 -121l-370 -317l-83 87z" />
    <glyph glyph-name="Zdotaccent" unicode="&#x17b;" horiz-adv-x="1194" 
d="M106 85l765 1302h-713v143h922v-88l-762 -1301h756v-141h-968v85zM595 1711q-67 0 -86 19q-30 31 -30 85.5t6.5 78t20.5 36.5q23 24 72.5 24t71 -5t34.5 -19q25 -24 25 -78.5t-5.5 -78t-19.5 -37.5q-24 -25 -89 -25z" />
    <glyph glyph-name="zdotaccent" unicode="&#x17c;" horiz-adv-x="1024" 
d="M106 113l609 939h-622v138h824v-113l-607 -938h632v-139h-836v113zM518 1475q-67 0 -86 19q-30 31 -30 85.5t6.5 78t19.5 36.5q24 24 73.5 24t71 -5t35.5 -19q24 -24 24 -78.5t-5.5 -78t-18.5 -37.5q-25 -25 -90 -25z" />
    <glyph glyph-name="Zcaron" unicode="&#x17d;" horiz-adv-x="1194" 
d="M106 85l765 1302h-713v143h922v-88l-762 -1301h756v-141h-968v85zM545 1669l-233 248l77 80l237 -200l229 201l74 -82l-224 -247h-160z" />
    <glyph glyph-name="zcaron" unicode="&#x17e;" horiz-adv-x="1024" 
d="M106 113l609 939h-622v138h824v-113l-607 -938h632v-139h-836v113zM463 1407l-288 350l81 80l266 -265l259 265l82 -80l-279 -350h-121z" />
    <glyph glyph-name="florin" unicode="&#x192;" horiz-adv-x="854" 
d="M827 1373q-105 36 -167 36t-92 -9t-52 -30q-43 -41 -49 -140l-21 -374h258l-10 -136h-260l-71 -1060h-155l71 1060h-138l8 120l138 16l24 387q11 177 116 251q80 56 223 56q106 0 156.5 -15.5t59.5 -18.5z" />
    <glyph glyph-name="AEacute" unicode="&#x1fc;" horiz-adv-x="1875" 
d="M968 420h-516l-213 -420h-192l798 1530h939v-148h-646v-528h511v-147h-511v-560h673v-147h-843v420zM524 563h444v874zM1507 2000l93 -159l-459 -192l-50 92z" />
    <glyph glyph-name="aeacute" unicode="&#x1fd;" horiz-adv-x="2215" 
d="M711 1065q-171 0 -355 -68l-37 144q51 34 259 61q67 8 176 8t212 -39t156 -132v-1l1 1q54 96 160.5 133.5t255.5 37.5t237 -34.5t134.5 -99.5t61.5 -157.5t15 -176.5q0 -133 -6 -205q-141 -6 -251 -6h-158q-275 0 -393 19q0 -229 61 -319q73 -109 283.5 -109t407.5 84
l49 -143q-208 -83 -457 -83q-286 0 -408 145q-11 13 -23 34l-59 -39q-139 -92 -337 -128q-67 -12 -120 -12t-93.5 5t-78 19.5t-69.5 40.5t-56 69q-51 91 -51 251q0 184 74 277q84 107 281 107t444 -77l-2 123q0 216 -181 257q-58 13 -133 13zM408.5 246.5
q10.5 -41.5 34.5 -66.5q46 -49 155 -49q181 0 356 81q54 26 95 58q-21 99 -25 280q-202 55 -437 55q-122 0 -161 -73q-28 -51 -28 -147.5t10.5 -138zM1818 672v96q0 157 -58 224q-65 75 -233 75q-201 0 -275 -87q-73 -84 -73 -308h639zM1304 1837l130 -121l-370 -317l-83 87
z" />
    <glyph glyph-name="Scommaaccent" unicode="&#x218;" horiz-adv-x="1194" 
d="M151 241q227 -120 444 -120q252 0 295 161q14 53 14 122v39q0 70 -10 113t-42 70q-52 45 -246 75q-173 27 -239 51t-108.5 52.5t-72.5 71.5q-62 90 -62 249v10q0 330 274 395q87 20 197 20h13q257 0 420 -74l-52 -153q-197 85 -363 85h-9q-183 0 -252 -69
q-58 -58 -58 -201v-4q0 -163 90 -214q61 -33 218.5 -58t234.5 -42.5t131 -57.5q112 -84 112 -319v-13q0 -359 -289 -428q-89 -22 -168 -22t-143.5 5.5t-131.5 19.5q-157 32 -263 96zM434 -560l71 429l28 2q24 2 43 2h37q30 0 49 -8.5t19 -26.5q0 -34 -11 -60l-127 -338h-109
z" />
    <glyph glyph-name="scommaaccent" unicode="&#x219;" horiz-adv-x="1194" 
d="M225 236q206 -115 414 -115q173 0 203 123q10 42 10 102.5t-14 94t-47 50t-87.5 24.5t-138.5 22.5t-154 32.5t-119 52q-104 73 -100 246v25q0 182 120 259q116 76 383 52q182 -17 290 -63l-47 -151q-120 51 -288 74q-52 7 -97.5 7t-82.5 -7t-62 -26q-48 -39 -50 -145
q-3 -125 70 -159q70 -33 166 -45.5t157 -22t111 -25.5t86 -51q75 -71 73 -247q-5 -307 -256 -350q-76 -13 -152 -13t-139.5 9.5t-121.5 26.5q-110 31 -199 82zM450 -560l71 429l28 2q24 2 42 2h38q30 0 49 -8.5t19 -26.5q0 -34 -11 -60l-127 -338h-109z" />
    <glyph glyph-name="dotlessj" unicode="&#x237;" horiz-adv-x="683" 
d="M53 -317q91 -23 132.5 -18.5t58 33.5t16.5 94v1398h161v-1383q0 -133 -43 -199q-53 -83 -184 -83q-123 0 -186 35z" />
    <glyph glyph-name="circumflex" unicode="&#x2c6;" horiz-adv-x="680" 
d="M400 1830l288 -350l-81 -80l-266 265l-259 -265l-82 79l279 351h121z" />
    <glyph glyph-name="caron" unicode="&#x2c7;" horiz-adv-x="680" 
d="M285 1407l-288 350l81 80l266 -265l259 265l82 -80l-279 -350h-121z" />
    <glyph glyph-name="breve" unicode="&#x2d8;" horiz-adv-x="854" 
d="M745 1734q-10 -340 -321 -340q-158 0 -239.5 87t-81.5 253l136 11q2 -120 47.5 -173.5t137.5 -53.5q140 0 172 120q11 43 13 107z" />
    <glyph glyph-name="dotaccent" unicode="&#x2d9;" horiz-adv-x="686" 
d="M342 1475q-67 0 -86 19q-30 31 -30 85.5t6.5 78t19.5 36.5q24 24 73.5 24t71 -5t35.5 -19q24 -24 24 -78.5t-5.5 -78t-18.5 -37.5q-25 -25 -90 -25z" />
    <glyph glyph-name="ring" unicode="&#x2da;" horiz-adv-x="851" 
d="M202 1478q-20 40 -20 97.5t19.5 98.5t52.5 67q62 49 173 49q170 0 225 -116q20 -41 20 -98.5t-19.5 -97t-52.5 -64.5q-64 -50 -173 -50q-169 0 -225 114zM425 1683q-117 0 -117 -108q0 -103 117 -103t117 103q0 108 -117 108z" />
    <glyph glyph-name="ogonek" unicode="&#x2db;" horiz-adv-x="683" 
d="M476 -474q-260 0 -260 199q0 177 254 323l81 -37l1 -10q-146 -88 -182 -199q-10 -30 -10 -53q0 -87 105 -87q75 0 149 31l40 -125q-66 -42 -178 -42z" />
    <glyph glyph-name="tilde" unicode="&#x2dc;" horiz-adv-x="844" 
d="M805 1640q-99 -230 -266 -230q-48 0 -133 60q-31 22 -61.5 40.5t-54.5 18.5t-44.5 -10t-43.5 -26t-47 -37l-46 -40l-71 63q56 103 126.5 149.5t139.5 46.5h13q55 0 136 -57l56 -39q26 -18 49 -18t43 11.5t39.5 30.5t38.5 43l39 50z" />
    <glyph glyph-name="hungarumlaut" unicode="&#x2dd;" horiz-adv-x="851" 
d="M413 1850l133 -112l-327 -339l-84 79zM823 1837l128 -120l-371 -318l-81 86z" />
    <glyph glyph-name="Delta" unicode="&#x394;" 
d="M37 0l512 1530h253l525 -1530h-1290zM252 142h858l-433 1284z" />
    <glyph glyph-name="Delta" unicode="&#x2206;" 
d="M37 0l512 1530h253l525 -1530h-1290zM252 142h858l-433 1284z" />
    <glyph glyph-name="Omega" unicode="&#x3a9;" horiz-adv-x="1534" 
d="M739 1395q-227 0 -327 -133q-95 -126 -95 -398v-57q0 -138 56 -295q50 -142 151 -230q54 -48 128 -73v-211h-549v135h269l129 -2q-154 71 -249 251q-67 129 -96 306q-17 98 -17 220.5t35.5 250t109.5 213.5q152 176 465 176h41q466 0 574 -390q36 -127 36 -294
q0 -136 -38 -268t-78 -209q-93 -178 -246 -256l129 2h263v-135h-543v211q240 81 315 425q20 95 20 173v57q0 272 -95 398q-100 133 -327 133h-61z" />
    <glyph glyph-name="Omega" unicode="&#x2126;" horiz-adv-x="1534" 
d="M739 1395q-227 0 -327 -133q-95 -126 -95 -398v-57q0 -138 56 -295q50 -142 151 -230q54 -48 128 -73v-211h-549v135h269l129 -2q-154 71 -249 251q-67 129 -96 306q-17 98 -17 220.5t35.5 250t109.5 213.5q152 176 465 176h41q466 0 574 -390q36 -127 36 -294
q0 -136 -38 -268t-78 -209q-93 -178 -246 -256l129 2h263v-135h-543v211q240 81 315 425q20 95 20 173v57q0 272 -95 398q-100 133 -327 133h-61z" />
    <glyph glyph-name="pi" unicode="&#x3c0;" horiz-adv-x="1534" 
d="M1287 -44q-265 117 -265 377v721h-538v-1054h-162l-2 1054h-237v136h1368v-136h-266l-1 -723q0 -117 108 -214q34 -31 78 -62z" />
    <glyph glyph-name="uni1E02" unicode="&#x1e02;" 
d="M1170 1138q0 -308 -233 -339v-3q144 -11 215 -82q82 -84 82 -243.5t-36.5 -247.5t-101.5 -137q-111 -86 -349 -86h-511v1525q277 26 457 26t264 -27.5t131 -79.5q82 -91 82 -306zM768 142q147 0 210 56q79 71 79 254q0 212 -155 248q-47 11 -102 11h-394v-569h362z
M631 847q201 0 279 57q89 64 89 238v21q0 134 -59 191q-59 56 -201 56q-119 0 -202 -5l-131 -8v-550h225zM682 1711q-67 0 -86 19q-30 31 -30 85.5t6.5 78t20.5 36.5q23 24 72.5 24t71 -5t34.5 -19q25 -24 25 -78.5t-5.5 -78t-19.5 -37.5q-24 -25 -89 -25z" />
    <glyph glyph-name="uni1E03" unicode="&#x1e03;" 
d="M379 111l-21 -111h-141v1702l166 16v-642q207 134 400 134q268 0 340 -165q45 -104 51 -292q2 -91 2 -200v-80q0 -137 -17.5 -206t-44.5 -118.5t-74 -86.5q-102 -82 -292 -82t-369 131zM383 242q212 -115 357 -115h12q171 0 220 95q26 48 32 125t6 185v144q0 223 -51 300
q-50 77 -190 77h-25q-125 0 -290 -74q-43 -19 -71 -35v-702zM783 1475q-67 0 -86 19q-30 31 -30 85.5t6.5 78t19.5 36.5q24 24 73.5 24t71 -5t35.5 -19q24 -24 24 -78.5t-5.5 -78t-18.5 -37.5q-25 -25 -90 -25z" />
    <glyph glyph-name="uni1E0A" unicode="&#x1e0a;" horiz-adv-x="1534" 
d="M236 0v1521l150 11q225 18 359 18t214 -10.5t140.5 -36t103 -69.5t69.5 -112q51 -127 51 -378v-155q0 -297 -44 -451q-51 -178 -183 -256q-136 -82 -399 -82h-461zM981 1373q-68 29 -209 29t-366 -17v-1242h318q186 0 276 61q88 59 118 203q26 118 26 382v156
q0 249 -59 342q-36 57 -104 86zM718 1711q-67 0 -86 19q-30 31 -30 85.5t6.5 78t20.5 36.5q23 24 72.5 24t71 -5t34.5 -19q25 -24 25 -78.5t-5.5 -78t-19.5 -37.5q-24 -25 -89 -25z" />
    <glyph glyph-name="uni1E0B" unicode="&#x1e0b;" 
d="M984 1137v565l166 16v-1171q0 -345 19 -539l-149 -12l-24 137q-211 -153 -429 -153q-241 0 -321 177q-46 100 -51.5 211.5t-5.5 196t1.5 170.5t12.5 159t34.5 131.5t67.5 99.5q91 85 300.5 85t378.5 -73zM988 268q-5 93 -5 287l1 445q-180 60 -348 60q-122 0 -161 -20
t-59.5 -52t-33.5 -88q-23 -105 -23 -346v-22q0 -225 49 -311q53 -91 197 -91h15q138 0 294 88q43 24 74 48v2zM570 1475q-67 0 -86 19q-30 31 -30 85.5t6.5 78t19.5 36.5q24 24 73.5 24t71 -5t35.5 -19q24 -24 24 -78.5t-5.5 -78t-18.5 -37.5q-25 -25 -90 -25z" />
    <glyph glyph-name="uni1E1E" unicode="&#x1e1e;" horiz-adv-x="1191" 
d="M236 1530h879v-148h-709v-601h615v-147h-615v-634h-170v1530zM677 1711q-67 0 -86 19q-30 31 -30 85.5t6.5 78t20.5 36.5q23 24 72.5 24t71 -5t34.5 -19q25 -24 25 -78.5t-5.5 -78t-19.5 -37.5q-24 -25 -89 -25z" />
    <glyph glyph-name="uni1E1F" unicode="&#x1e1f;" horiz-adv-x="684" 
d="M467 1542.5q-40 -33.5 -40 -132t37 -220.5h283v-139h-285v-1051h-161v1051h-199v123l197 16q-13 27 -25 117t-12 129q0 284 332 284q120 0 227 -26l-30 -149q-130 31 -207 31t-117 -33.5zM282 1757q-67 0 -86 19q-30 31 -30 85.5t6.5 78t19.5 36.5q24 24 73.5 24t71 -5
t35.5 -19q24 -24 24 -78.5t-5.5 -78t-18.5 -37.5q-25 -25 -90 -25z" />
    <glyph glyph-name="uni1E40" unicode="&#x1e40;" horiz-adv-x="2051" 
d="M362 1530h261l348 -1130l59 -244l57 245l336 1129h249l247 -1530h-170l-186 1156l-28 270l-61 -272l-345 -1153h-197l-360 1159l-71 266l-34 -268l-169 -1158h-172zM1025 1711q-67 0 -86 19q-30 31 -30 85.5t6.5 78t20.5 36.5q23 24 72.5 24t71 -5t34.5 -19
q25 -24 25 -78.5t-5.5 -78t-19.5 -37.5q-24 -25 -89 -25z" />
    <glyph glyph-name="uni1E41" unicode="&#x1e41;" horiz-adv-x="2047" 
d="M1105 935q5 -60 5 -106v-829h-168v798q0 144 -28 185.5t-66.5 56t-100.5 14.5q-163 0 -356 -115v-939h-166v1190h146l16 -123q175 143 392 143q124 0 195.5 -35.5t103.5 -116.5q221 152 420 152q188 0 261 -86q70 -83 70 -295v-829h-168v798q0 144 -28 185.5t-66.5 56
t-90 14.5t-97 -9.5t-92.5 -25.5q-95 -33 -182 -84zM1028 1475q-67 0 -86 19q-30 31 -30 85.5t6.5 78t19.5 36.5q24 24 73.5 24t71 -5t35.5 -19q24 -24 24 -78.5t-5.5 -78t-18.5 -37.5q-25 -25 -90 -25z" />
    <glyph glyph-name="uni1E56" unicode="&#x1e56;" 
d="M833 480q-41 -2 -143.5 -2t-283.5 27v-505h-170v1524q291 27 579 27q242 0 339 -109q82 -92 82 -304v-118q0 -164 -36 -280q-77 -242 -367 -260zM822 1407q-274 0 -416 -11v-750q175 -23 311.5 -23t196 19.5t92.5 65.5q56 78 56 310v124q0 143 -56 204q-54 61 -184 61z
M695 1711q-67 0 -86 19q-30 31 -30 85.5t6.5 78t20.5 36.5q23 24 72.5 24t71 -5t34.5 -19q25 -24 25 -78.5t-5.5 -78t-19.5 -37.5q-24 -25 -89 -25z" />
    <glyph glyph-name="uni1E57" unicode="&#x1e57;" 
d="M383 71v-526h-166v1645h135l19 -123q117 88 305 129q68 14 148 14t141.5 -21t101.5 -58.5t62 -89.5t33 -113q14 -84 14 -268v-23q0 -234 -16 -324t-42 -148.5t-72 -99.5q-95 -85 -294 -85t-369 91zM383 208q170 -78 357 -78q122 0 178 45q76 62 85 289q3 75 3 172v22
q0 230 -40 308q-45 89 -186 89h-15q-147 0 -305 -73q-46 -21 -77 -43v-731zM697 1475q-67 0 -86 19q-30 31 -30 85.5t6.5 78t19.5 36.5q24 24 73.5 24t71 -5t35.5 -19q24 -24 24 -78.5t-5.5 -78t-18.5 -37.5q-25 -25 -90 -25z" />
    <glyph glyph-name="uni1E60" unicode="&#x1e60;" horiz-adv-x="1194" 
d="M151 241q227 -120 444 -120q252 0 295 161q14 53 14 122v39q0 70 -10 113t-42 70q-52 45 -246 75q-173 27 -239 51t-108.5 52.5t-72.5 71.5q-62 90 -62 249v10q0 330 274 395q87 20 197 20h13q257 0 420 -74l-52 -153q-197 85 -363 85h-9q-183 0 -252 -69
q-58 -58 -58 -201v-4q0 -163 90 -214q61 -33 218.5 -58t234.5 -42.5t131 -57.5q112 -84 112 -319v-13q0 -359 -289 -428q-89 -22 -168 -22t-143.5 5.5t-131.5 19.5q-157 32 -263 96zM597 1711q-67 0 -86 19q-30 31 -30 85.5t6.5 78t20.5 36.5q23 24 72.5 24t71 -5t34.5 -19
q25 -24 25 -78.5t-5.5 -78t-19.5 -37.5q-24 -25 -89 -25z" />
    <glyph glyph-name="uni1E61" unicode="&#x1e61;" horiz-adv-x="1194" 
d="M225 236q206 -115 414 -115q173 0 203 123q10 42 10 102.5t-14 94t-47 50t-87.5 24.5t-138.5 22.5t-154 32.5t-119 52q-104 73 -100 246v25q0 182 120 259q116 76 383 52q182 -17 290 -63l-47 -151q-120 51 -288 74q-52 7 -97.5 7t-82.5 -7t-62 -26q-48 -39 -50 -145
q-3 -125 70 -159q70 -33 166 -45.5t157 -22t111 -25.5t86 -51q75 -71 73 -247q-5 -307 -256 -350q-76 -13 -152 -13t-139.5 9.5t-121.5 26.5q-110 31 -199 82zM588 1475q-67 0 -86 19q-30 31 -30 85.5t6.5 78t19.5 36.5q24 24 73.5 24t71 -5t35.5 -19q24 -24 24 -78.5
t-5.5 -78t-18.5 -37.5q-25 -25 -90 -25z" />
    <glyph glyph-name="uni1E6A" unicode="&#x1e6a;" horiz-adv-x="1024" 
d="M420 1382h-408v148h1000v-148h-422v-1382h-170v1382zM511 1711q-67 0 -86 19q-30 31 -30 85.5t6.5 78t20.5 36.5q23 24 72.5 24t71 -5t34.5 -19q25 -24 25 -78.5t-5.5 -78t-19.5 -37.5q-24 -25 -89 -25z" />
    <glyph glyph-name="uni1E6B" unicode="&#x1e6b;" horiz-adv-x="854" 
d="M809 57q-163 -77 -301 -77q-250 0 -284 214q-8 51 -8 148v709h-144v123l144 16l26 272h139v-272h347v-139h-347v-706q0 -123 18 -157q33 -62 132 -62t221 61zM317 1655q-67 0 -86 19q-30 31 -30 85.5t6.5 78t19.5 36.5q24 24 73.5 24t71 -5t35.5 -19q24 -24 24 -78.5
t-5.5 -78t-18.5 -37.5q-25 -25 -90 -25z" />
    <glyph glyph-name="Wgrave" unicode="&#x1e80;" horiz-adv-x="2044" 
d="M34 1530h184l296 -1156l52 -244l58 244l308 1156h199l367 -1408l53 256l282 1152h180l-392 -1530h-254l-293 1094l-45 258l-47 -258l-302 -1094h-234zM1241 1741l-50 -92l-455 187l84 164z" />
    <glyph glyph-name="wgrave" unicode="&#x1e81;" horiz-adv-x="1875" 
d="M93 1190h178l252 -874l45 -191l33 160l260 905h164l256 -874l44 -193l32 163l248 904h180l-352 -1190h-219l-228 763l-46 234l-41 -234l-227 -763h-209zM1144 1486l-83 -87l-367 315l125 125z" />
    <glyph glyph-name="Wacute" unicode="&#x1e82;" horiz-adv-x="2044" 
d="M34 1530h184l296 -1156l52 -244l58 244l308 1156h199l367 -1408l53 256l282 1152h180l-392 -1530h-254l-293 1094l-45 258l-47 -258l-302 -1094h-234zM1234 2000l93 -159l-459 -192l-50 92z" />
    <glyph glyph-name="wacute" unicode="&#x1e83;" horiz-adv-x="1875" 
d="M93 1190h178l252 -874l45 -191l33 160l260 905h164l256 -874l44 -193l32 163l248 904h180l-352 -1190h-219l-228 763l-46 234l-41 -234l-227 -763h-209zM1099 1837l130 -121l-370 -317l-83 87z" />
    <glyph glyph-name="Wdieresis" unicode="&#x1e84;" horiz-adv-x="2044" 
d="M34 1530h184l296 -1156l52 -244l58 244l308 1156h199l367 -1408l53 256l282 1152h180l-392 -1530h-254l-293 1094l-45 258l-47 -258l-302 -1094h-234zM802 1717q-63 0 -81 18q-28 29 -28 81t6 74.5t18 35.5q23 22 69.5 22t67 -5t33.5 -17q22 -23 22 -75t-5 -74.5
t-17 -36.5q-22 -23 -85 -23zM1260 1717q-63 0 -81 18q-28 29 -28 81t6 74.5t18 35.5q23 22 69.5 22t67.5 -5t33 -17q24 -24 24 -75.5t-5.5 -74t-18.5 -36.5q-21 -23 -85 -23z" />
    <glyph glyph-name="wdieresis" unicode="&#x1e85;" horiz-adv-x="1875" 
d="M93 1190h178l252 -874l45 -191l33 160l260 905h164l256 -874l44 -193l32 163l248 904h180l-352 -1190h-219l-228 763l-46 234l-41 -234l-227 -763h-209zM719 1481q-63 0 -81 18q-28 29 -28 81t6 74.5t18 35.5q23 22 69.5 22t67 -5t33.5 -17q22 -23 22 -75t-5 -74.5
t-17 -36.5q-22 -23 -85 -23zM1177 1481q-63 0 -81 18q-28 29 -28 81t6 74.5t18 35.5q23 22 69.5 22t67.5 -5t33 -17q24 -24 24 -75.5t-5.5 -74t-18.5 -36.5q-21 -23 -85 -23z" />
    <glyph glyph-name="Ygrave" unicode="&#x1ef2;" horiz-adv-x="1194" 
d="M512 565l-499 965h186l327 -657l74 -169l73 172l320 654h188l-499 -965l-1 -565h-168zM824 1741l-50 -92l-455 187l84 164z" />
    <glyph glyph-name="ygrave" unicode="&#x1ef3;" horiz-adv-x="1192" 
d="M197 -288q73 -26 119.5 -26t61 2.5t29.5 10.5q35 19 52 62q42 102 73 224l-459 1205h185l310 -877l47 -154l43 155l274 876h174l-502 -1472q-55 -172 -254 -172q-126 0 -198 36zM818 1486l-83 -87l-367 315l125 125z" />
    <glyph glyph-name="endash" unicode="&#x2013;" horiz-adv-x="1703" 
d="M258 527v136h1186v-136h-1186z" />
    <glyph glyph-name="emdash" unicode="&#x2014;" horiz-adv-x="2214" 
d="M254 527v136h1706v-136h-1706z" />
    <glyph glyph-name="quoteleft" unicode="&#x2018;" horiz-adv-x="512" 
d="M369 1806l-71 -552l-38 -2q-22 -2 -47 -2h-42q-27 0 -42.5 7.5t-15.5 23.5q0 28 7 54l118 471h131z" />
    <glyph glyph-name="quoteright" unicode="&#x2019;" horiz-adv-x="512" 
d="M133 1250l71 552l38 2q22 2 47 2h42q27 0 42.5 -7.5t15.5 -23.5q0 -28 -7 -54l-118 -471h-131z" />
    <glyph glyph-name="quotesinglbase" unicode="&#x201a;" horiz-adv-x="512" 
d="M133 -319l71 552l38 2q22 2 47 2h42q27 0 42.5 -7.5t15.5 -23.5q0 -28 -7 -54l-118 -471h-131z" />
    <glyph glyph-name="quotedblleft" unicode="&#x201c;" horiz-adv-x="1026" 
d="M437 1806l-71 -552l-38 -2q-22 -2 -47 -2h-42q-27 0 -42.5 7.5t-15.5 23.5q0 28 7 54l118 471h131zM844 1806l-71 -552l-38 -2q-22 -2 -47 -2h-42q-27 0 -42.5 7.5t-15.5 23.5q0 28 7 54l118 471h131z" />
    <glyph glyph-name="quotedblright" unicode="&#x201d;" horiz-adv-x="1026" 
d="M191 1250l71 552l38 2q22 2 47 2h42q27 0 42.5 -7.5t15.5 -23.5q0 -28 -7 -54l-118 -471h-131zM578 1250l71 552l38 2q22 2 47 2h42q27 0 42.5 -7.5t15.5 -23.5q0 -28 -7 -54l-118 -471h-131z" />
    <glyph glyph-name="quotedblbase" unicode="&#x201e;" horiz-adv-x="1026" 
d="M191 -320l71 552l38 2q22 2 47 2h42q27 0 42.5 -7.5t15.5 -23.5q0 -28 -7 -54l-118 -471h-131zM578 -320l71 552l38 2q22 2 47 2h42q27 0 42.5 -7.5t15.5 -23.5q0 -28 -7 -54l-118 -471h-131z" />
    <glyph glyph-name="dagger" unicode="&#x2020;" horiz-adv-x="1024" 
d="M587 1055v-1325h-150v1325l-330 -10v155l330 -12v519h150v-519l330 12v-155z" />
    <glyph glyph-name="daggerdbl" unicode="&#x2021;" horiz-adv-x="1024" 
d="M587 1055v-548l330 12v-155l-330 10v-644h-150v644l-330 -10v155l330 -12v548l-330 -10v155l330 -12v519h150v-519l330 12v-155z" />
    <glyph glyph-name="bullet" unicode="&#x2022;" horiz-adv-x="683" 
d="M342 487q-98 0 -132 36.5t-34 120.5t8 119t28 55q35 36 107 36t104 -8t51 -28q33 -36 33 -118.5t-7.5 -118.5t-25.5 -57q-33 -37 -132 -37z" />
    <glyph glyph-name="ellipsis" unicode="&#x2026;" horiz-adv-x="1536" 
d="M256 -19q-70 0 -89 21q-28 31 -28 90.5t5.5 84.5t19.5 39q23 26 75 26t74.5 -5.5t35.5 -20.5q23 -25 23 -103t-18 -99q-28 -33 -98 -33zM768 -19q-70 0 -89 21q-28 31 -28 90.5t5.5 84.5t19.5 39q23 26 75 26t74.5 -5.5t35.5 -20.5q23 -25 23 -103t-18 -99
q-28 -33 -98 -33zM1280 -19q-70 0 -89 21q-28 31 -28 90.5t5.5 84.5t19.5 39q23 26 75 26t74.5 -5.5t35.5 -20.5q23 -25 23 -103t-18 -99q-28 -33 -98 -33z" />
    <glyph glyph-name="perthousand" unicode="&#x2030;" horiz-adv-x="2737" 
d="M69 1158q0 103 15.5 176.5t55.5 119.5q78 91 286 91q206 0 278 -91q61 -78 61 -290q0 -218 -75 -304q-77 -88 -275 -88q-202 0 -277 90q-69 82 -69 296zM319 904.5q38 -12.5 96.5 -12.5t95.5 12t59 44q39 59 39 230q0 145 -37 196q-37 52 -147 52q-120 0 -162 -52
q-41 -51 -41 -167t8 -171t29.5 -87t59.5 -44.5zM1106 367q0 215 71 297q78 91 286 91q206 0 277 -91q62 -78 62 -291q0 -217 -74 -303q-78 -88 -276 -88q-202 0 -277 90q-69 82 -69 295zM1356 114.5q38 -12.5 96.5 -12.5t95.5 12t58 44q40 59 40 229q0 146 -36 197
q-38 52 -148 52q-120 0 -162 -52q-41 -51 -41 -167t8 -171t29.5 -87t59.5 -44.5zM417 0l858 1530h162l-860 -1530h-160zM1959 367q0 215 71 297q78 91 286 91q206 0 278 -91q61 -78 61 -291q0 -217 -75 -303q-77 -88 -275 -88q-202 0 -277 90q-69 82 -69 295zM2209 114.5
q38 -12.5 96.5 -12.5t95.5 12t59 44q39 59 39 229q0 146 -37 197q-37 52 -147 52q-120 0 -162 -52q-41 -51 -41 -167t8 -171t29.5 -87t59.5 -44.5z" />
    <glyph glyph-name="guilsinglleft" unicode="&#x2039;" horiz-adv-x="856" 
d="M141.044 648.032l464.972 433.974l90.9941 -85.9951l-388.977 -411.975l390.977 -401.976l-82.9951 -92.9941l-474.971 426.974v131.992z" />
    <glyph glyph-name="guilsinglright" unicode="&#x203a;" horiz-adv-x="856" 
d="M714 527l-465 -434l-91 86l389 412l-391 402l83 93l475 -427v-132z" />
    <glyph glyph-name="fraction" unicode="&#x2044;" horiz-adv-x="1193" 
d="M93 0l857 1531h152l-860 -1531h-149z" />
    <glyph glyph-name="Euro" unicode="&#x20ac;" horiz-adv-x="1194" 
d="M1131 46q-125 -66 -363 -66h-11q-305 0 -437 148q-111 124 -131 409h-159v135h881v-135h-541q16 -218 100 -309q88 -96 292 -96h9q112 0 263 42q34 9 50 15zM1084 1342q-180 60 -307 60t-193 -21.5t-110 -70.5q-81 -92 -99 -317h574v-135h-881v135h123q22 282 133 409
q131 148 430 148q236 0 375 -49z" />
    <glyph glyph-name="trademark" unicode="&#x2122;" horiz-adv-x="2214" 
d="M911 646l138 883h180l206 -637l29 -119l26 119l204 637h174l149 -883h-138l-97 593l-14 152l-34 -152l-201 -593h-143l-198 587l-44 172l-20 -166l-88 -593h-129zM372 1414h-297v116h744v-116h-307v-767h-140v767z" />
    <glyph glyph-name="partialdiff" unicode="&#x2202;" horiz-adv-x="1366" 
d="M1092 433q-2 -240 -112 -345q-115 -108 -385 -108q-286 0 -386 154q-57 87 -67 202q-4 55 -4 107v214q0 103 14 183t58 134q88 111 342 111q148 0 298 -69q44 -20 78 -42q-4 228 -180 387q-110 100 -388 237l83 140q293 -152 429 -283q136 -130 182 -291q38 -132 38 -373
v-358zM922 843q-163 93 -356 93q-70 0 -119 -9t-80 -42q-59 -63 -59 -270v-172q0 -174 51 -239q58 -74 221 -74h54q180 0 240 86q48 70 48 267v360z" />
    <glyph glyph-name="product" unicode="&#x220f;" horiz-adv-x="1534" 
d="M236 1530h1062v-1700h-169v1555h-723v-1555h-170v1700z" />
    <glyph glyph-name="summation" unicode="&#x2211;" horiz-adv-x="1194" 
d="M722 693l-420 -721h757v-141h-968v85l455 777l-440 749v88h922v-143h-714z" />
    <glyph glyph-name="minus" unicode="&#x2212;" horiz-adv-x="1533" 
d="M210 673v133h1111v-133h-1111z" />
    <glyph glyph-name="radical" unicode="&#x221a;" horiz-adv-x="1537" 
d="M300 715h-212v135h336l263 -631l34 -99l31 99l513 1481h183l-622 -1700h-211z" />
    <glyph glyph-name="infinity" unicode="&#x221e;" horiz-adv-x="1705" 
d="M783 1196q46 -66 78 -155l10 35q56 196 248 230q55 9 149 9t168 -33.5t115 -91.5q70 -99 70 -305q0 -223 -72 -331q-87 -131 -292 -131q-148 0 -211 27t-99 63t-54 75q-30 65 -48 119q-28 -116 -72 -167.5t-88 -75.5q-78 -41 -210 -41t-206.5 33.5t-115.5 91.5
q-70 99 -70 304q0 229 67 332q83 131 297 131q254 0 336 -119zM462 573q70 0 123.5 9t93.5 40q82 62 99 243q-55 175 -110 234q-64 69 -203 69q-196 0 -222 -162q-8 -50 -8 -112v-59q0 -127 43 -187q54 -75 184 -75zM1242 1165q-70 0 -123 -9.5t-92 -39.5q-79 -60 -98 -229
q30 -88 54 -148.5t56 -98.5q60 -70 200 -70q197 0 222 160q8 51 8 114v59q0 125 -43 187q-53 75 -184 75z" />
    <glyph glyph-name="integral" unicode="&#x222b;" horiz-adv-x="854" 
d="M602 1633q-99 0 -99 -115v-1727q0 -140 -69.5 -203.5t-199.5 -63.5q-101 0 -157 21l34 138q83 -26 129 -26q99 0 99 115v1727q0 140 69 203.5t200 63.5q101 0 157 -21l-34 -138q-83 26 -129 26z" />
    <glyph glyph-name="approxequal" unicode="&#x2248;" horiz-adv-x="1535" 
d="M1008 499q143 0 276 186l99 -83q-136 -266 -377 -266q-112 0 -250 88q-87 56 -133.5 72.5t-87.5 16.5q-142 0 -275 -186l-99 83q78 152 195 218q82 47 157 47t118.5 -13t82.5 -32.5t75 -42.5t71 -43q82 -45 148 -45zM999 923q143 0 276 186l99 -83q-136 -266 -377 -266
q-112 0 -250 88q-87 56 -133.5 72.5t-87.5 16.5q-142 0 -275 -186l-99 83q78 152 195 218q82 47 157 47t118.5 -13t82.5 -32.5t75 -42.5t71 -43q82 -45 148 -45z" />
    <glyph glyph-name="notequal" unicode="&#x2260;" 
d="M374 129l123 284h-308v131h364l114 263h-478v130h534l126 290h139l-127 -290h312v-130h-368l-115 -263h483v-131h-540l-123 -284h-136z" />
    <glyph glyph-name="lessequal" unicode="&#x2264;" horiz-adv-x="1374" 
d="M187 0v133h1000v-133h-1000zM160 821l949 421l57 -131l-847 -364l848 -352l-54 -131l-953 405v152z" />
    <glyph glyph-name="greaterequal" unicode="&#x2265;" horiz-adv-x="1374" 
d="M1197 685l-949 -421l-57 131l847 364l-848 352l54 131l953 -405v-152zM187 0v133h1000v-133h-1000z" />
    <glyph glyph-name="lozenge" unicode="&#x25ca;" horiz-adv-x="1195" 
d="M1045 764l-338 -764h-214l-344 764l344 766h214zM688 345l175 419l-181 426l-83 205l-80 -205l-187 -426l180 -419l90 -217z" />
    <glyph glyph-name="ff" unicode="&#xfb00;" horiz-adv-x="1708" 
d="M1320 1542.5q-40 -33.5 -40 -132t37 -220.5h284v-139h-286v-1051h-161v1051h-691v-1051h-161v1051h-200v123l198 16q-13 27 -25 117t-12 152.5t30 117.5t77 87q84 56 218 56q147 0 234 -26l-35 -153q-94 32 -200 32q-158 0 -158 -146q0 -118 36 -237h687q-13 27 -25 117
t-12 129q0 284 332 284q120 0 227 -26l-30 -149q-130 31 -207 31t-117 -33.5z" />
    <glyph glyph-name="fi" unicode="&#xfb01;" horiz-adv-x="1537" 
d="M467 1542.5q-40 -33.5 -40 -132t37 -220.5h651l75 -139h-728v-1051h-161v1051h-199v123l197 16q-13 27 -25 117t-12 129q0 284 332 284q120 0 227 -26l-30 -149q-130 31 -207 31t-117 -33.5zM1115 1190h164v-1190h-162zM1196 1475q-67 0 -86 19q-30 31 -30 85.5t6.5 78
t19.5 36.5q24 24 73.5 24t71 -5t35.5 -19q24 -24 24 -78.5t-5.5 -78t-18.5 -37.5q-25 -25 -90 -25z" />
    <glyph glyph-name="fl" unicode="&#xfb02;" horiz-adv-x="1537" 
d="M467 1542.5q-40 -33.5 -40 -132t37 -220.5h705v-139h-707v-1051h-161v1051h-199v123l197 16q-13 27 -25 117t-12 129q0 284 332 284q120 0 227 -26l-30 -149q-130 31 -207 31t-117 -33.5zM1113 1700l165 14v-1714h-163z" />
    <glyph glyph-name="commaaccent" horiz-adv-x="511" 
d="M105 -560l71 429l28 2q24 2 42 2h38q30 0 49 -8.5t19 -26.5q0 -34 -11 -60l-127 -338h-109z" />
    <glyph glyph-name="grave.cap" horiz-adv-x="511" 
d="M510 1741l-50 -92l-455 187l84 164z" />
    <glyph glyph-name="acute.cap" horiz-adv-x="511" 
d="M416 2000l93 -159l-459 -192l-50 92z" />
    <glyph glyph-name="circumflex.cap" horiz-adv-x="511" 
d="M340 1991l233 -248l-77 -80l-237 200l-229 -201l-74 82l224 247h160z" />
    <glyph glyph-name="dieresis.cap" horiz-adv-x="511" 
d="M27 1717q-63 0 -81 18q-28 29 -28 81t6 74.5t18 35.5q23 22 69.5 22t67 -5t33.5 -17q22 -23 22 -75t-5 -74.5t-17 -36.5q-22 -23 -85 -23zM485 1717q-63 0 -81 18q-28 29 -28 81t6 74.5t18 35.5q23 22 69.5 22t67.5 -5t33 -17q24 -24 24 -75.5t-5.5 -74t-18.5 -36.5
q-21 -23 -85 -23z" />
    <glyph glyph-name="caron.cap" horiz-adv-x="511" 
d="M180 1669l-233 248l77 80l237 -200l229 201l74 -82l-224 -247h-160z" />
    <glyph glyph-name="ring.cap" horiz-adv-x="511" 
d="M40 1701q-19 38 -19 93.5t18.5 94.5t50.5 64q60 47 166 47q164 0 216 -111q19 -39 19 -94.5t-18.5 -93.5t-50.5 -62q-63 -47 -166 -47q-163 0 -216 109zM254 1894q-110 0 -110 -100q0 -95 110 -95t110 95q0 100 -110 100z" />
    <glyph glyph-name="tilde.cap" horiz-adv-x="511" 
d="M639 1926q-99 -230 -266 -230q-48 0 -133 60q-31 22 -61.5 40.5t-54.5 18.5t-44.5 -10t-43.5 -26t-47 -37l-46 -40l-71 63q56 103 126.5 149.5t139.5 46.5h13q55 0 136 -57l56 -39q26 -18 49 -18t43 11.5t39.5 30.5t38.5 43l39 50z" />
    <glyph glyph-name="hungarumlaut.cap" horiz-adv-x="511" 
d="M244 2000l128 -119l-321 -248l-69 73zM658 2000l129 -120l-348 -251l-71 74z" />
    <glyph glyph-name="dotaccent.cap" horiz-adv-x="686" 
d="M341 1711q-67 0 -86 19q-30 31 -30 85.5t6.5 78t20.5 36.5q23 24 72.5 24t71 -5t34.5 -19q25 -24 25 -78.5t-5.5 -78t-19.5 -37.5q-24 -25 -89 -25z" />
    <glyph glyph-name="commaaccent.cap" horiz-adv-x="511" 
d="M104 -560l71 429l28 2q24 2 43 2h37q30 0 49 -8.5t19 -26.5q0 -34 -11 -60l-127 -338h-109z" />
    <glyph glyph-name="cedilla.cap" horiz-adv-x="511" 
d="M311 -203q0 90 -107 204l1 10l72 37q174 -105 174 -277q0 -97 -56.5 -148t-159.5 -51q-87 0 -134 19l25 128q47 -10 86.5 -10t69 21t29.5 67z" />
    <glyph glyph-name="macron.cap" horiz-adv-x="682" 
d="M41 1741v135h599v-135h-599z" />
    <glyph glyph-name="breve.cap" horiz-adv-x="854" 
d="M745 1989q-10 -340 -321 -340q-158 0 -239.5 87t-81.5 253l136 11q2 -120 47.5 -173.5t137.5 -53.5q140 0 172 119q11 44 13 108z" />
    <glyph glyph-name="caronvertical" horiz-adv-x="511" 
d="M290 1899q51 0 51 -47q0 -13 -5 -48l-52 -338h-112v419l22 4q58 10 96 10z" />
    <glyph glyph-name="foundryicon" horiz-adv-x="2557" 
d="M1333 1248l298 5q368 0 559 -121q237 -150 237 -529q0 -143 -59 -318q-103 -306 -284 -415q-64 -38 -121.5 -38t-97 18.5t-79.5 39.5q-111 59 -177 59q-68 0 -97.5 -14t-47.5 -29q-219 -188 -514 -210q-85 -7 -170.5 -7t-167.5 22.5t-155 63.5t-134 98t-105 127
q-93 148 -93 317q0 131 81 221q53 56 69.5 89t20 80t-13 91t-37.5 86t-39 89.5t-18 108t20.5 112.5t56.5 96.5t83.5 81t101.5 62.5q115 53 203 53t139 -17.5t96.5 -44.5t88.5 -57.5t91 -57.5q110 -62 234 -62h31zM912 644q-32 -264 -64 -372l-36 2q-14 33 -14 134t6.5 201
t27.5 197q49 220 170 357q18 0 38 -7.5t23 -8.5q-69 -62 -92 -103q-41 -76 -41 -135.5t14.5 -94.5t39.5 -62q56 -59 124.5 -59t114.5 18t78 49q66 65 66 163v4q-4 137 -135 207q-110 60 -244 60t-236 -35t-182 -101q-175 -144 -175 -374q0 -189 129 -320q135 -137 331 -137
q258 0 361 207q38 75 45 185l41 18q4 -19 4 -50q0 -196 -137 -311q-128 -108 -319 -108q-232 0 -393 171q-51 54 -87 120l-42 -14q-17 -57 -17 -141t44.5 -171.5t120.5 -148.5q155 -127 384 -127q253 0 410 169q142 155 142 381q0 158 -70 291q-78 -38 -223.5 -38t-235.5 64
l-16 -28q17 -33 45 -52zM1412 910q24 -37 88 -73l-54 -588h338q3 25 5.5 66.5t6.5 90.5q12 129 25 184t22.5 88t24.5 64q32 67 86 107l35 -47q-55 -34 -85 -88t-30 -94t10 -66t30 -47q42 -44 125 -50q120 0 200 93q75 88 75 211q0 156 -126 211q-41 19 -95 19
q-243 0 -302 -347l-47 27l106 282l-34 36q-188 -60 -399 -66z" />
  </font>
</defs>
</svg>
